<?xml version="1.0" standalone="no"?>
<!DOCTYPE svg PUBLIC "-//W3C//DTD SVG 1.1//EN" "http://www.w3.org/Graphics/SVG/1.1/DTD/svg11.dtd" >
<svg xmlns="http://www.w3.org/2000/svg" xmlns:xlink="http://www.w3.org/1999/xlink" version="1.1">
<metadata>
Created by FontForge 20190801 at Sun Feb  2 15:08:21 2025
 By root
(c) Copyright The Font Bureau, Inc. 2014. All rights reserved.
</metadata>
<defs>
<font id="Input-BoldItalic" horiz-adv-x="700" >
  <font-face 
    font-family="Input"
    font-weight="700"
    font-style="italic"
    font-stretch="normal"
    units-per-em="1100"
    panose-1="2 0 7 9 3 0 0 9 0 4"
    ascent="850"
    descent="-250"
    x-height="600"
    cap-height="800"
    bbox="-303.446 -450 1029 1400"
    underline-thickness="0"
    underline-position="0"
    slope="-8"
    unicode-range="U+000D-1F41B"
  />
<missing-glyph 
d="M50 -250v1100h600v-1100h-600zM150 -150h400v900h-400v-900z" />
    <glyph glyph-name=".notdef" 
d="M50 -250v1100h600v-1100h-600zM150 -150h400v900h-400v-900z" />
    <glyph glyph-name="NULL" horiz-adv-x="0" 
 />
    <glyph glyph-name="nonmarkingreturn" unicode="&#xd;" horiz-adv-x="0" 
 />
    <glyph glyph-name="space" unicode="&#xa0;" 
 />
    <glyph glyph-name="space" unicode=" " 
 />
    <glyph glyph-name="A" unicode="A" 
d="M427 327l-37 338l-137 -338h174zM463 0l-22 195h-242l-79 -195h-157l342 800h203l118 -800h-163z" />
    <glyph glyph-name="Agrave" unicode="&#xc0;" 
d="M427 327l-37 338l-137 -338h174zM463 0l-22 195h-242l-79 -195h-157l342 800h203l118 -800h-163zM403 900l-188 200h220l87 -200h-119z" />
    <glyph glyph-name="Aacute" unicode="&#xc1;" 
d="M427 327l-37 338l-137 -338h174zM463 0l-22 195h-242l-79 -195h-157l342 800h203l118 -800h-163zM288 900l143 200h220l-244 -200h-119z" />
    <glyph glyph-name="Acircumflex" unicode="&#xc2;" 
d="M427 327l-37 338l-137 -338h174zM463 0l-22 195h-242l-79 -195h-157l342 800h203l118 -800h-163zM224 890l-44 78l203 156h128l161 -156l-65 -77l-178 108z" />
    <glyph glyph-name="Atilde" unicode="&#xc3;" 
d="M427 327l-37 338l-137 -338h174zM463 0l-22 195h-242l-79 -195h-157l342 800h203l118 -800h-163zM509 910q-44 0 -67.5 16t-37.5 34q-14 19 -26 34.5t-31 15.5q-17 0 -32.5 -15.5t-20.5 -64.5l-2 -10h-112l2 15q12 81 59 135t117 54q46 0 69.5 -15.5t37.5 -34.5t26 -35
t29 -16t32 15.5t21 65.5l1 9h112l-2 -15q-11 -80 -58 -134t-117 -54z" />
    <glyph glyph-name="Adieresis" unicode="&#xc4;" 
d="M427 327l-37 338l-137 -338h174zM463 0l-22 195h-242l-79 -195h-157l342 800h203l118 -800h-163zM290 896q-39 0 -61.5 15.5t-16.5 54.5l1 13q6 40 33 56.5t66 16.5q40 0 62 -16.5t16 -56.5l-1 -13q-6 -39 -33 -54.5t-66 -15.5zM542 896q-40 0 -62.5 15.5t-16.5 54.5
l1 13q6 40 33 56.5t67 16.5t61.5 -16.5t15.5 -56.5l-1 -13q-6 -39 -33 -54.5t-65 -15.5z" />
    <glyph glyph-name="Aring" unicode="&#xc5;" 
d="M427 327l-37 338l-137 -338h174zM463 0l-22 195h-242l-79 -195h-157l342 800h203l118 -800h-163zM413 878q-87 0 -135.5 37t-37.5 115l4 32q11 78 70.5 116.5t146.5 38.5q88 0 136 -38.5t37 -116.5l-4 -32q-11 -78 -70.5 -115t-146.5 -37zM425 963q37 0 58 15t27 52l4 32
q5 36 -11.5 53t-53.5 17t-58.5 -17t-26.5 -53l-4 -32q-6 -37 11 -52t54 -15z" />
    <glyph glyph-name="Amacron" unicode="&#x100;" 
d="M427 327l-37 338l-137 -338h174zM463 0l-22 195h-242l-79 -195h-157l342 800h203l118 -800h-163zM203 934l19 132h436l-19 -132h-436z" />
    <glyph glyph-name="Abreve" unicode="&#x102;" 
d="M427 327l-37 338l-137 -338h174zM463 0l-22 195h-242l-79 -195h-157l342 800h203l118 -800h-163zM415 893q-124 0 -182 55.5t-42 175.5h142q-9 -69 14 -96.5t83 -27.5t91 27.5t42 96.5h142q-18 -120 -92 -175.5t-198 -55.5z" />
    <glyph glyph-name="Aogonek" unicode="&#x104;" 
d="M427 327l-37 338l-137 -338h174zM463 0l-22 195h-242l-79 -195h-157l342 800h203l118 -800h-163zM538 -221q-78 0 -120.5 31.5t-33.5 93.5q8 61 61.5 104.5t111.5 59.5l20 -45q-37 -21 -48.5 -41.5t-14.5 -39.5q-4 -26 12.5 -39t54.5 -13q18 0 43 2.5t51 7.5l-15 -109
q-32 -6 -63.5 -9t-58.5 -3z" />
    <glyph glyph-name="Aringacute" unicode="&#x1fa;" 
d="M427 327l-37 338l-137 -338h174zM463 0l-22 195h-242l-79 -195h-157l342 800h203l118 -800h-163zM413 878q-87 0 -135.5 37t-37.5 115l4 32q11 78 70.5 116.5t146.5 38.5q88 0 136 -38.5t37 -116.5l-4 -32q-11 -78 -70.5 -115t-146.5 -37zM425 963q37 0 58 15t27 52l4 32
q5 36 -11.5 53t-53.5 17t-58.5 -17t-26.5 -53l-4 -32q-6 -37 11 -52t54 -15zM355 1200l143 200h220l-244 -200h-119z" />
    <glyph glyph-name="B" unicode="B" 
d="M9 0l112 800h294q132 0 189 -46t43 -142l-5 -37q-9 -61 -42 -94t-93 -43l-5 -29q66 -7 97.5 -47.5t22.5 -102.5l-7 -50q-15 -107 -91 -158t-221 -51h-294zM246 474h113q54 0 80 18.5t32 61.5l6 42q6 43 -15 61t-75 18h-113zM197 125h116q66 0 96.5 21.5t37.5 72.5l6 46
q7 50 -17.5 71.5t-90.5 21.5h-116z" />
    <glyph glyph-name="C" unicode="C" 
d="M303 -10q-151 0 -217 66.5t-47 199.5l40 284q19 135 104 202.5t236 67.5q152 0 213 -67t47 -218l-172 -10q7 97 -15 130t-93 33t-106 -35t-46 -118l-36 -255q-11 -80 14 -114t96 -34q70 0 101.5 32t51.5 127l169 -10q-28 -149 -107.5 -215t-232.5 -66z" />
    <glyph glyph-name="Ccedilla" unicode="&#xc7;" 
d="M303 -10q-151 0 -217 66.5t-47 199.5l40 284q19 135 104 202.5t236 67.5q152 0 213 -67t47 -218l-172 -10q7 97 -15 130t-93 33t-106 -35t-46 -118l-36 -255q-11 -80 14 -114t96 -34q70 0 101.5 32t51.5 127l169 -10q-28 -149 -107.5 -215t-232.5 -66zM278 0l26 42
q72 -8 118 -36t36 -95q-10 -72 -74 -103t-139 -31q-87 0 -138 29t-46 98l145 10q-1 -19 9.5 -26.5t36.5 -7.5q28 0 43.5 11t20.5 45q4 28 -4 42.5t-34 21.5z" />
    <glyph glyph-name="Cacute" unicode="&#x106;" 
d="M303 -10q-151 0 -217 66.5t-47 199.5l40 284q19 135 104 202.5t236 67.5q152 0 213 -67t47 -218l-172 -10q7 97 -15 130t-93 33t-106 -35t-46 -118l-36 -255q-11 -80 14 -114t96 -34q70 0 101.5 32t51.5 127l169 -10q-28 -149 -107.5 -215t-232.5 -66zM328 900l143 200
h220l-244 -200h-119z" />
    <glyph glyph-name="Ccircumflex" unicode="&#x108;" 
d="M303 -10q-151 0 -217 66.5t-47 199.5l40 284q19 135 104 202.5t236 67.5q152 0 213 -67t47 -218l-172 -10q7 97 -15 130t-93 33t-106 -35t-46 -118l-36 -255q-11 -80 14 -114t96 -34q70 0 101.5 32t51.5 127l169 -10q-28 -149 -107.5 -215t-232.5 -66zM238 890l-44 78
l203 156h128l161 -156l-65 -77l-178 108z" />
    <glyph glyph-name="Cdotaccent" unicode="&#x10a;" 
d="M303 -10q-151 0 -217 66.5t-47 199.5l40 284q19 135 104 202.5t236 67.5q152 0 213 -67t47 -218l-172 -10q7 97 -15 130t-93 33t-106 -35t-46 -118l-36 -255q-11 -80 14 -114t96 -34q70 0 101.5 32t51.5 127l169 -10q-28 -149 -107.5 -215t-232.5 -66zM430 896
q-51 0 -81 15.5t-24 54.5l1 13q6 40 40.5 56.5t85.5 16.5t80.5 -16.5t23.5 -56.5l-1 -13q-6 -39 -40 -54.5t-85 -15.5z" />
    <glyph glyph-name="Ccaron" unicode="&#x10c;" 
d="M303 -10q-151 0 -217 66.5t-47 199.5l40 284q19 135 104 202.5t236 67.5q152 0 213 -67t47 -218l-172 -10q7 97 -15 130t-93 33t-106 -35t-46 -118l-36 -255q-11 -80 14 -114t96 -34q70 0 101.5 32t51.5 127l169 -10q-28 -149 -107.5 -215t-232.5 -66zM368 904l-161 156
l65 77l178 -108l205 109l44 -78l-203 -156h-128z" />
    <glyph glyph-name="D" unicode="D" 
d="M9 0l112 800h277q140 0 208.5 -79.5t50.5 -211.5l-32 -222q-18 -131 -108.5 -209t-231.5 -78h-276zM198 132h92q78 0 116.5 40t50.5 129l28 194q12 90 -15 131.5t-105 41.5h-92z" />
    <glyph glyph-name="Dcaron" unicode="&#x10e;" 
d="M9 0l112 800h277q140 0 208.5 -79.5t50.5 -211.5l-32 -222q-18 -131 -108.5 -209t-231.5 -78h-276zM198 132h92q78 0 116.5 40t50.5 129l28 194q12 90 -15 131.5t-105 41.5h-92zM354 904l-161 156l65 77l178 -108l205 109l44 -78l-203 -156h-128z" />
    <glyph glyph-name="E" unicode="E" 
d="M9 0l112 800h576l-18 -132h-406l-25 -174h356l-18 -132h-356l-32 -230h406l-19 -132h-576z" />
    <glyph glyph-name="Egrave" unicode="&#xc8;" 
d="M9 0l112 800h576l-18 -132h-406l-25 -174h356l-18 -132h-356l-32 -230h406l-19 -132h-576zM427 900l-188 200h220l87 -200h-119z" />
    <glyph glyph-name="Eacute" unicode="&#xc9;" 
d="M9 0l112 800h576l-18 -132h-406l-25 -174h356l-18 -132h-356l-32 -230h406l-19 -132h-576zM318 898l143 200h220l-244 -200h-119z" />
    <glyph glyph-name="Ecircumflex" unicode="&#xca;" 
d="M9 0l112 800h576l-18 -132h-406l-25 -174h356l-18 -132h-356l-32 -230h406l-19 -132h-576zM237 890l-44 78l203 156h128l161 -156l-65 -77l-178 108z" />
    <glyph glyph-name="Edieresis" unicode="&#xcb;" 
d="M9 0l112 800h576l-18 -132h-406l-25 -174h356l-18 -132h-356l-32 -230h406l-19 -132h-576zM308 896q-39 0 -61.5 15.5t-16.5 54.5l1 13q6 40 33 56.5t66 16.5q40 0 62 -16.5t16 -56.5l-1 -13q-6 -39 -33 -54.5t-66 -15.5zM560 896q-40 0 -62.5 15.5t-16.5 54.5l1 13
q6 40 33 56.5t67 16.5t61.5 -16.5t15.5 -56.5l-1 -13q-6 -39 -33 -54.5t-65 -15.5z" />
    <glyph glyph-name="Emacron" unicode="&#x112;" 
d="M9 0l112 800h576l-18 -132h-406l-25 -174h356l-18 -132h-356l-32 -230h406l-19 -132h-576zM216 934l19 132h436l-19 -132h-436z" />
    <glyph glyph-name="Ebreve" unicode="&#x114;" 
d="M9 0l112 800h576l-18 -132h-406l-25 -174h356l-18 -132h-356l-32 -230h406l-19 -132h-576zM428 893q-124 0 -182 55.5t-42 175.5h142q-9 -69 14 -96.5t83 -27.5t91 27.5t42 96.5h142q-18 -120 -92 -175.5t-198 -55.5z" />
    <glyph glyph-name="Edotaccent" unicode="&#x116;" 
d="M9 0l112 800h576l-18 -132h-406l-25 -174h356l-18 -132h-356l-32 -230h406l-19 -132h-576zM429 896q-51 0 -81 15.5t-24 54.5l1 13q6 40 40.5 56.5t85.5 16.5t80.5 -16.5t23.5 -56.5l-1 -13q-6 -39 -40 -54.5t-85 -15.5z" />
    <glyph glyph-name="Eogonek" unicode="&#x118;" 
d="M433 -221q-78 0 -120.5 31.5t-33.5 93.5q8 61 61.5 104.5t111.5 59.5l20 -45q-37 -21 -48.5 -41.5t-14.5 -39.5q-4 -26 12.5 -39t54.5 -13q18 0 43 2.5t51 7.5l-15 -109q-32 -6 -63.5 -9t-58.5 -3zM9 0l112 800h576l-18 -132h-406l-25 -174h356l-18 -132h-356l-32 -230
h406l-19 -132h-576z" />
    <glyph glyph-name="Ecaron" unicode="&#x11a;" 
d="M9 0l112 800h576l-18 -132h-406l-25 -174h356l-18 -132h-356l-32 -230h406l-19 -132h-576zM370 904l-161 156l65 77l178 -108l205 109l44 -78l-203 -156h-128z" />
    <glyph glyph-name="F" unicode="F" 
d="M44 0l112 800h555l-18 -132h-385l-33 -233h315l-18 -132h-315l-43 -303h-170z" />
    <glyph glyph-name="G" unicode="G" 
d="M300 -10q-143 0 -210.5 72.5t-48.5 207.5l36 256q19 137 105.5 210.5t229.5 73.5q139 0 200.5 -64.5t51.5 -186.5l-172 -10q4 72 -18 100.5t-80 28.5q-69 0 -102.5 -36.5t-46.5 -129.5l-32 -228q-13 -90 10.5 -126t93.5 -36q68 0 100 36.5t44 129.5h-127l19 132h297
l-21 -147q-19 -137 -104 -210t-225 -73z" />
    <glyph glyph-name="Gcircumflex" unicode="&#x11c;" 
d="M300 -10q-143 0 -210.5 72.5t-48.5 207.5l36 256q19 137 105.5 210.5t229.5 73.5q139 0 200.5 -64.5t51.5 -186.5l-172 -10q4 72 -18 100.5t-80 28.5q-69 0 -102.5 -36.5t-46.5 -129.5l-32 -228q-13 -90 10.5 -126t93.5 -36q68 0 100 36.5t44 129.5h-127l19 132h297
l-21 -147q-19 -137 -104 -210t-225 -73zM230 890l-44 78l203 156h128l161 -156l-65 -77l-178 108z" />
    <glyph glyph-name="Gbreve" unicode="&#x11e;" 
d="M300 -10q-143 0 -210.5 72.5t-48.5 207.5l36 256q19 137 105.5 210.5t229.5 73.5q139 0 200.5 -64.5t51.5 -186.5l-172 -10q4 72 -18 100.5t-80 28.5q-69 0 -102.5 -36.5t-46.5 -129.5l-32 -228q-13 -90 10.5 -126t93.5 -36q68 0 100 36.5t44 129.5h-127l19 132h297
l-21 -147q-19 -137 -104 -210t-225 -73zM421 893q-124 0 -182 55.5t-42 175.5h142q-9 -69 14 -96.5t83 -27.5t91 27.5t42 96.5h142q-18 -120 -92 -175.5t-198 -55.5z" />
    <glyph glyph-name="Gdotaccent" unicode="&#x120;" 
d="M300 -10q-143 0 -210.5 72.5t-48.5 207.5l36 256q19 137 105.5 210.5t229.5 73.5q139 0 200.5 -64.5t51.5 -186.5l-172 -10q4 72 -18 100.5t-80 28.5q-69 0 -102.5 -36.5t-46.5 -129.5l-32 -228q-13 -90 10.5 -126t93.5 -36q68 0 100 36.5t44 129.5h-127l19 132h297
l-21 -147q-19 -137 -104 -210t-225 -73zM426 896q-51 0 -81 15.5t-24 54.5l1 13q6 40 40.5 56.5t85.5 16.5t80.5 -16.5t23.5 -56.5l-1 -13q-6 -39 -40 -54.5t-85 -15.5z" />
    <glyph glyph-name="Gcommaaccent" unicode="&#x122;" 
d="M100 -300l103 200h220l-204 -200h-119zM300 -10q-143 0 -210.5 72.5t-48.5 207.5l36 256q19 137 105.5 210.5t229.5 73.5q139 0 200.5 -64.5t51.5 -186.5l-172 -10q4 72 -18 100.5t-80 28.5q-69 0 -102.5 -36.5t-46.5 -129.5l-32 -228q-13 -90 10.5 -126t93.5 -36
q68 0 100 36.5t44 129.5h-127l19 132h297l-21 -147q-19 -137 -104 -210t-225 -73z" />
    <glyph glyph-name="H" unicode="H" 
d="M9 0l112 800h170l-41 -292h230l41 292h170l-112 -800h-170l53 376h-230l-53 -376h-170z" />
    <glyph glyph-name="Hcircumflex" unicode="&#x124;" 
d="M9 0l112 800h170l-41 -292h230l41 292h170l-112 -800h-170l53 376h-230l-53 -376h-170zM224 890l-44 78l203 156h128l161 -156l-65 -77l-178 108z" />
    <glyph glyph-name="I" unicode="I" 
d="M9 0l19 132h200l75 536h-200l18 132h570l-18 -132h-200l-75 -536h200l-19 -132h-570z" />
    <glyph glyph-name="Igrave" unicode="&#xcc;" 
d="M9 0l19 132h200l75 536h-200l18 132h570l-18 -132h-200l-75 -536h200l-19 -132h-570zM403 900l-188 200h220l87 -200h-119z" />
    <glyph glyph-name="Iacute" unicode="&#xcd;" 
d="M9 0l19 132h200l75 536h-200l18 132h570l-18 -132h-200l-75 -536h200l-19 -132h-570zM288 900l143 200h220l-244 -200h-119z" />
    <glyph glyph-name="Icircumflex" unicode="&#xce;" 
d="M9 0l19 132h200l75 536h-200l18 132h570l-18 -132h-200l-75 -536h200l-19 -132h-570zM224 890l-44 78l203 156h128l161 -156l-65 -77l-178 108z" />
    <glyph glyph-name="Idieresis" unicode="&#xcf;" 
d="M9 0l19 132h200l75 536h-200l18 132h570l-18 -132h-200l-75 -536h200l-19 -132h-570zM290 896q-39 0 -61.5 15.5t-16.5 54.5l1 13q6 40 33 56.5t66 16.5q40 0 62 -16.5t16 -56.5l-1 -13q-6 -39 -33 -54.5t-66 -15.5zM542 896q-40 0 -62.5 15.5t-16.5 54.5l1 13
q6 40 33 56.5t67 16.5t61.5 -16.5t15.5 -56.5l-1 -13q-6 -39 -33 -54.5t-65 -15.5z" />
    <glyph glyph-name="Itilde" unicode="&#x128;" 
d="M9 0l19 132h200l75 536h-200l18 132h570l-18 -132h-200l-75 -536h200l-19 -132h-570zM509 910q-44 0 -67.5 16t-37.5 34q-14 19 -26 34.5t-31 15.5q-17 0 -32.5 -15.5t-20.5 -64.5l-2 -10h-112l2 15q12 81 59 135t117 54q46 0 69.5 -15.5t37.5 -34.5t26 -35t29 -16
t32 15.5t21 65.5l1 9h112l-2 -15q-11 -80 -58 -134t-117 -54z" />
    <glyph glyph-name="Imacron" unicode="&#x12a;" 
d="M9 0l19 132h200l75 536h-200l18 132h570l-18 -132h-200l-75 -536h200l-19 -132h-570zM203 934l19 132h436l-19 -132h-436z" />
    <glyph glyph-name="Ibreve" unicode="&#x12c;" 
d="M9 0l19 132h200l75 536h-200l18 132h570l-18 -132h-200l-75 -536h200l-19 -132h-570zM415 893q-124 0 -182 55.5t-42 175.5h142q-9 -69 14 -96.5t83 -27.5t91 27.5t42 96.5h142q-18 -120 -92 -175.5t-198 -55.5z" />
    <glyph glyph-name="Iogonek" unicode="&#x12e;" 
d="M9 0l19 132h200l75 536h-200l18 132h570l-18 -132h-200l-75 -536h200l-19 -132h-570zM353 -221q-78 0 -120.5 31.5t-33.5 93.5q8 61 61.5 104.5t111.5 59.5l20 -45q-37 -21 -48.5 -41.5t-14.5 -39.5q-4 -26 12.5 -39t54.5 -13q18 0 43 2.5t51 7.5l-15 -109
q-32 -6 -63.5 -9t-58.5 -3z" />
    <glyph glyph-name="Idotaccent" unicode="&#x130;" 
d="M9 0l19 132h200l75 536h-200l18 132h570l-18 -132h-200l-75 -536h200l-19 -132h-570zM416 896q-51 0 -81 15.5t-24 54.5l1 13q6 40 40.5 56.5t85.5 16.5t80.5 -16.5t23.5 -56.5l-1 -13q-6 -39 -40 -54.5t-85 -15.5z" />
    <glyph glyph-name="J" unicode="J" 
d="M279 -10q-149 0 -210 68.5t-47 219.5l172 11q-8 -101 14 -134t88 -33q60 0 92.5 32t44.5 113l56 401h-221l18 132h391l-75 -540q-18 -128 -97.5 -199t-225.5 -71z" />
    <glyph glyph-name="Jcircumflex" unicode="&#x134;" 
d="M279 -10q-149 0 -210 68.5t-47 219.5l172 11q-8 -101 14 -134t88 -33q60 0 92.5 32t44.5 113l56 401h-221l18 132h391l-75 -540q-18 -128 -97.5 -199t-225.5 -71zM293 890l-44 78l203 156h128l161 -156l-65 -77l-178 108z" />
    <glyph glyph-name="K" unicode="K" 
d="M228 349l-49 -349h-170l112 800h170l-44 -319h38l270 319h178l-325 -369l210 -431h-177l-172 349h-41z" />
    <glyph glyph-name="Kcommaaccent" unicode="&#x136;" 
d="M228 349l-49 -349h-170l112 800h170l-44 -319h38l270 319h178l-325 -369l210 -431h-177l-172 349h-41zM113 -300l103 200h220l-204 -200h-119z" />
    <glyph glyph-name="L" unicode="L" 
d="M59 0l112 800h170l-93 -668h350l-19 -132h-520z" />
    <glyph glyph-name="Lacute" unicode="&#x139;" 
d="M59 0l112 800h170l-93 -668h350l-19 -132h-520zM193 900l143 200h220l-244 -200h-119z" />
    <glyph glyph-name="Lcommaaccent" unicode="&#x13b;" 
d="M59 0l112 800h170l-93 -668h350l-19 -132h-520zM133 -300l103 200h220l-204 -200h-119z" />
    <glyph glyph-name="Lcaron" unicode="&#x13d;" 
d="M59 0l112 800h170l-93 -668h350l-19 -132h-520zM432 505l101 295h217l-218 -295h-100z" />
    <glyph glyph-name="M" unicode="M" 
d="M269 235l-65 314l-61 -549h-150l112 800h170l78 -403l189 403h165l-112 -800h-149l91 545l-151 -310h-117z" />
    <glyph glyph-name="N" unicode="N" 
d="M373 0l-138 570l-80 -570h-146l112 800h193l147 -604l84 604h146l-112 -800h-206z" />
    <glyph glyph-name="Ntilde" unicode="&#xd1;" 
d="M373 0l-138 570l-80 -570h-146l112 800h193l147 -604l84 604h146l-112 -800h-206zM515 910q-44 0 -67.5 16t-37.5 34q-14 19 -26 34.5t-31 15.5q-17 0 -32.5 -15.5t-20.5 -64.5l-2 -10h-112l2 15q12 81 59 135t117 54q46 0 69.5 -15.5t37.5 -34.5t26 -35t29 -16t32 15.5
t21 65.5l1 9h112l-2 -15q-11 -80 -58 -134t-117 -54z" />
    <glyph glyph-name="Nacute" unicode="&#x143;" 
d="M373 0l-138 570l-80 -570h-146l112 800h193l147 -604l84 604h146l-112 -800h-206zM315 900l143 200h220l-244 -200h-119z" />
    <glyph glyph-name="Ncommaaccent" unicode="&#x145;" 
d="M91 -300l103 200h220l-204 -200h-119zM373 0l-138 570l-80 -570h-146l112 800h193l147 -604l84 604h146l-112 -800h-206z" />
    <glyph glyph-name="Ncaron" unicode="&#x147;" 
d="M373 0l-138 570l-80 -570h-146l112 800h193l147 -604l84 604h146l-112 -800h-206zM360 904l-161 156l65 77l178 -108l205 109l44 -78l-203 -156h-128z" />
    <glyph glyph-name="O" unicode="O" 
d="M293 -10q-143 0 -207.5 69.5t-46.5 196.5l40 284q18 128 102.5 199t227.5 71t206.5 -71t45.5 -199l-40 -284q-18 -127 -101.5 -196.5t-226.5 -69.5zM311 122q65 0 98 33.5t44 114.5l36 256q11 81 -12 116.5t-88 35.5t-98 -35.5t-44 -116.5l-36 -256q-11 -81 12 -114.5
t88 -33.5z" />
    <glyph glyph-name="Ograve" unicode="&#xd2;" 
d="M293 -10q-143 0 -207.5 69.5t-46.5 196.5l40 284q18 128 102.5 199t227.5 71t206.5 -71t45.5 -199l-40 -284q-18 -127 -101.5 -196.5t-226.5 -69.5zM311 122q65 0 98 33.5t44 114.5l36 256q11 81 -12 116.5t-88 35.5t-98 -35.5t-44 -116.5l-36 -256q-11 -81 12 -114.5
t88 -33.5zM403 900l-188 200h220l87 -200h-119z" />
    <glyph glyph-name="Oacute" unicode="&#xd3;" 
d="M293 -10q-143 0 -207.5 69.5t-46.5 196.5l40 284q18 128 102.5 199t227.5 71t206.5 -71t45.5 -199l-40 -284q-18 -127 -101.5 -196.5t-226.5 -69.5zM311 122q65 0 98 33.5t44 114.5l36 256q11 81 -12 116.5t-88 35.5t-98 -35.5t-44 -116.5l-36 -256q-11 -81 12 -114.5
t88 -33.5zM321 900l143 200h220l-244 -200h-119z" />
    <glyph glyph-name="Ocircumflex" unicode="&#xd4;" 
d="M293 -10q-143 0 -207.5 69.5t-46.5 196.5l40 284q18 128 102.5 199t227.5 71t206.5 -71t45.5 -199l-40 -284q-18 -127 -101.5 -196.5t-226.5 -69.5zM311 122q65 0 98 33.5t44 114.5l36 256q11 81 -12 116.5t-88 35.5t-98 -35.5t-44 -116.5l-36 -256q-11 -81 12 -114.5
t88 -33.5zM224 890l-44 78l203 156h128l161 -156l-65 -77l-178 108z" />
    <glyph glyph-name="Otilde" unicode="&#xd5;" 
d="M293 -10q-143 0 -207.5 69.5t-46.5 196.5l40 284q18 128 102.5 199t227.5 71t206.5 -71t45.5 -199l-40 -284q-18 -127 -101.5 -196.5t-226.5 -69.5zM311 122q65 0 98 33.5t44 114.5l36 256q11 81 -12 116.5t-88 35.5t-98 -35.5t-44 -116.5l-36 -256q-11 -81 12 -114.5
t88 -33.5zM509 910q-44 0 -67.5 16t-37.5 34q-14 19 -26 34.5t-31 15.5q-17 0 -32.5 -15.5t-20.5 -64.5l-2 -10h-112l2 15q12 81 59 135t117 54q46 0 69.5 -15.5t37.5 -34.5t26 -35t29 -16t32 15.5t21 65.5l1 9h112l-2 -15q-11 -80 -58 -134t-117 -54z" />
    <glyph glyph-name="Odieresis" unicode="&#xd6;" 
d="M293 -10q-143 0 -207.5 69.5t-46.5 196.5l40 284q18 128 102.5 199t227.5 71t206.5 -71t45.5 -199l-40 -284q-18 -127 -101.5 -196.5t-226.5 -69.5zM311 122q65 0 98 33.5t44 114.5l36 256q11 81 -12 116.5t-88 35.5t-98 -35.5t-44 -116.5l-36 -256q-11 -81 12 -114.5
t88 -33.5zM290 896q-39 0 -61.5 15.5t-16.5 54.5l1 13q6 40 33 56.5t66 16.5q40 0 62 -16.5t16 -56.5l-1 -13q-6 -39 -33 -54.5t-66 -15.5zM542 896q-40 0 -62.5 15.5t-16.5 54.5l1 13q6 40 33 56.5t67 16.5t61.5 -16.5t15.5 -56.5l-1 -13q-6 -39 -33 -54.5t-65 -15.5z" />
    <glyph glyph-name="Omacron" unicode="&#x14c;" 
d="M293 -10q-143 0 -207.5 69.5t-46.5 196.5l40 284q18 128 102.5 199t227.5 71t206.5 -71t45.5 -199l-40 -284q-18 -127 -101.5 -196.5t-226.5 -69.5zM311 122q65 0 98 33.5t44 114.5l36 256q11 81 -12 116.5t-88 35.5t-98 -35.5t-44 -116.5l-36 -256q-11 -81 12 -114.5
t88 -33.5zM203 934l19 132h436l-19 -132h-436z" />
    <glyph glyph-name="Obreve" unicode="&#x14e;" 
d="M293 -10q-143 0 -207.5 69.5t-46.5 196.5l40 284q18 128 102.5 199t227.5 71t206.5 -71t45.5 -199l-40 -284q-18 -127 -101.5 -196.5t-226.5 -69.5zM311 122q65 0 98 33.5t44 114.5l36 256q11 81 -12 116.5t-88 35.5t-98 -35.5t-44 -116.5l-36 -256q-11 -81 12 -114.5
t88 -33.5zM415 893q-124 0 -182 55.5t-42 175.5h142q-9 -69 14 -96.5t83 -27.5t91 27.5t42 96.5h142q-18 -120 -92 -175.5t-198 -55.5z" />
    <glyph glyph-name="Ohungarumlaut" unicode="&#x150;" 
d="M293 -10q-143 0 -207.5 69.5t-46.5 196.5l40 284q18 128 102.5 199t227.5 71t206.5 -71t45.5 -199l-40 -284q-18 -127 -101.5 -196.5t-226.5 -69.5zM311 122q65 0 98 33.5t44 114.5l36 256q11 81 -12 116.5t-88 35.5t-98 -35.5t-44 -116.5l-36 -256q-11 -81 12 -114.5
t88 -33.5zM472 900l77 200h175l-160 -200h-92zM242 900l77 200h175l-160 -200h-92z" />
    <glyph glyph-name="P" unicode="P" 
d="M9 0l112 800h303q131 0 196 -54.5t49 -169.5l-15 -107q-16 -111 -95 -163.5t-211 -52.5h-133l-36 -253h-170zM233 383h124q59 0 90 21t39 78l12 84q8 59 -17 80.5t-84 21.5h-124z" />
    <glyph glyph-name="Q" unicode="Q" 
d="M537 -205q-180 -28 -254.5 25t-53.5 197q-108 13 -155.5 80.5t-31.5 179.5l37 263q18 128 102.5 199t227.5 71t206.5 -71t45.5 -199l-37 -263q-16 -110 -82 -177.5t-177 -83.5q-5 -61 34.5 -80.5t139.5 -1.5zM314 139q65 0 98 36.5t44 115.5l33 235q11 80 -12 114.5
t-88 34.5t-98 -34.5t-44 -114.5l-33 -235q-11 -79 12 -115.5t88 -36.5z" />
    <glyph glyph-name="R" unicode="R" 
d="M238 420h130q64 0 92.5 21.5t36.5 75.5l8 57q7 51 -15.5 72.5t-86.5 21.5h-130zM179 0h-170l112 800h322q131 0 186 -55.5t40 -162.5l-10 -69q-12 -87 -58 -139.5t-127 -71.5l136 -302h-180l-129 289h-81z" />
    <glyph glyph-name="Racute" unicode="&#x154;" 
d="M238 420h130q64 0 92.5 21.5t36.5 75.5l8 57q7 51 -15.5 72.5t-86.5 21.5h-130zM179 0h-170l112 800h322q131 0 186 -55.5t40 -162.5l-10 -69q-12 -87 -58 -139.5t-127 -71.5l136 -302h-180l-129 289h-81zM328 900l143 200h220l-244 -200h-119z" />
    <glyph glyph-name="Rcommaaccent" unicode="&#x156;" 
d="M238 420h130q64 0 92.5 21.5t36.5 75.5l8 57q7 51 -15.5 72.5t-86.5 21.5h-130zM179 0h-170l112 800h322q131 0 186 -55.5t40 -162.5l-10 -69q-12 -87 -58 -139.5t-127 -71.5l136 -302h-180l-129 289h-81zM75 -300l103 200h220l-204 -200h-119z" />
    <glyph glyph-name="Rcaron" unicode="&#x158;" 
d="M238 420h130q64 0 92.5 21.5t36.5 75.5l8 57q7 51 -15.5 72.5t-86.5 21.5h-130zM179 0h-170l112 800h322q131 0 186 -55.5t40 -162.5l-10 -69q-12 -87 -58 -139.5t-127 -71.5l136 -302h-180l-129 289h-81zM345 904l-161 156l65 77l178 -108l205 109l44 -78l-203 -156
h-128z" />
    <glyph glyph-name="S" unicode="S" 
d="M291 -9q-95 0 -166 25.5t-124 71.5l71 125q48 -42 105 -66t135 -24q63 0 99 26t42 69q7 50 -25 71t-120 44q-135 34 -182.5 86t-33.5 151q15 105 95.5 171.5t214.5 66.5q76 0 146 -26.5t112 -66.5l-62 -120q-49 38 -101 59t-112 21q-53 0 -84 -21.5t-37 -64.5
q-6 -42 23 -66t127 -49q132 -32 178.5 -85.5t32.5 -156.5q-17 -116 -108.5 -178.5t-225.5 -62.5z" />
    <glyph glyph-name="Sacute" unicode="&#x15a;" 
d="M291 -9q-95 0 -166 25.5t-124 71.5l71 125q48 -42 105 -66t135 -24q63 0 99 26t42 69q7 50 -25 71t-120 44q-135 34 -182.5 86t-33.5 151q15 105 95.5 171.5t214.5 66.5q76 0 146 -26.5t112 -66.5l-62 -120q-49 38 -101 59t-112 21q-53 0 -84 -21.5t-37 -64.5
q-6 -42 23 -66t127 -49q132 -32 178.5 -85.5t32.5 -156.5q-17 -116 -108.5 -178.5t-225.5 -62.5zM287 900l143 200h220l-244 -200h-119z" />
    <glyph glyph-name="Scircumflex" unicode="&#x15c;" 
d="M291 -9q-95 0 -166 25.5t-124 71.5l71 125q48 -42 105 -66t135 -24q63 0 99 26t42 69q7 50 -25 71t-120 44q-135 34 -182.5 86t-33.5 151q15 105 95.5 171.5t214.5 66.5q76 0 146 -26.5t112 -66.5l-62 -120q-49 38 -101 59t-112 21q-53 0 -84 -21.5t-37 -64.5
q-6 -42 23 -66t127 -49q132 -32 178.5 -85.5t32.5 -156.5q-17 -116 -108.5 -178.5t-225.5 -62.5zM223 890l-44 78l203 156h128l161 -156l-65 -77l-178 108z" />
    <glyph glyph-name="Scedilla" unicode="&#x15e;" 
d="M291 -9q-95 0 -166 25.5t-124 71.5l71 125q48 -42 105 -66t135 -24q63 0 99 26t42 69q7 50 -25 71t-120 44q-135 34 -182.5 86t-33.5 151q15 105 95.5 171.5t214.5 66.5q76 0 146 -26.5t112 -66.5l-62 -120q-49 38 -101 59t-112 21q-53 0 -84 -21.5t-37 -64.5
q-6 -42 23 -66t127 -49q132 -32 178.5 -85.5t32.5 -156.5q-17 -116 -108.5 -178.5t-225.5 -62.5zM263 0l26 42q72 -8 118 -36t36 -95q-10 -72 -74 -103t-139 -31q-87 0 -138 29t-46 98l145 10q-1 -19 9.5 -26.5t36.5 -7.5q28 0 43.5 11t20.5 45q4 28 -4 42.5t-34 21.5z" />
    <glyph glyph-name="Scaron" unicode="&#x160;" 
d="M291 -9q-95 0 -166 25.5t-124 71.5l71 125q48 -42 105 -66t135 -24q63 0 99 26t42 69q7 50 -25 71t-120 44q-135 34 -182.5 86t-33.5 151q15 105 95.5 171.5t214.5 66.5q76 0 146 -26.5t112 -66.5l-62 -120q-49 38 -101 59t-112 21q-53 0 -84 -21.5t-37 -64.5
q-6 -42 23 -66t127 -49q132 -32 178.5 -85.5t32.5 -156.5q-17 -116 -108.5 -178.5t-225.5 -62.5zM353 904l-161 156l65 77l178 -108l205 109l44 -78l-203 -156h-128z" />
    <glyph glyph-name="Scommaaccent" unicode="&#x218;" 
d="M291 -9q-95 0 -166 25.5t-124 71.5l71 125q48 -42 105 -66t135 -24q63 0 99 26t42 69q7 50 -25 71t-120 44q-135 34 -182.5 86t-33.5 151q15 105 95.5 171.5t214.5 66.5q76 0 146 -26.5t112 -66.5l-62 -120q-49 38 -101 59t-112 21q-53 0 -84 -21.5t-37 -64.5
q-6 -42 23 -66t127 -49q132 -32 178.5 -85.5t32.5 -156.5q-17 -116 -108.5 -178.5t-225.5 -62.5zM77 -300l103 200h220l-204 -200h-119z" />
    <glyph glyph-name="T" unicode="T" 
d="M209 0l94 668h-229l18 132h628l-18 -132h-229l-94 -668h-170z" />
    <glyph glyph-name="Tcedilla" unicode="&#x162;" 
d="M209 0l94 668h-229l18 132h628l-18 -132h-229l-94 -668h-170zM253 0l26 42q72 -8 118 -36t36 -95q-10 -72 -74 -103t-139 -31q-87 0 -138 29t-46 98l145 10q-1 -19 9.5 -26.5t36.5 -7.5q28 0 43.5 11t20.5 45q4 28 -4 42.5t-34 21.5z" />
    <glyph glyph-name="Tcaron" unicode="&#x164;" 
d="M209 0l94 668h-229l18 132h628l-18 -132h-229l-94 -668h-170zM354 904l-161 156l65 77l178 -108l205 109l44 -78l-203 -156h-128z" />
    <glyph glyph-name="Tcommaaccent" unicode="&#x21a;" 
d="M209 0l94 668h-229l18 132h628l-18 -132h-229l-94 -668h-170zM84 -300l103 200h220l-204 -200h-119z" />
    <glyph glyph-name="U" unicode="U" 
d="M293 -10q-146 0 -206 70.5t-39 216.5l73 523h170l-72 -516q-12 -88 9.5 -121.5t83.5 -33.5t93.5 33.5t43.5 121.5l72 516h170l-73 -523q-21 -146 -100 -216.5t-225 -70.5z" />
    <glyph glyph-name="Ugrave" unicode="&#xd9;" 
d="M293 -10q-146 0 -206 70.5t-39 216.5l73 523h170l-72 -516q-12 -88 9.5 -121.5t83.5 -33.5t93.5 33.5t43.5 121.5l72 516h170l-73 -523q-21 -146 -100 -216.5t-225 -70.5zM403 900l-188 200h220l87 -200h-119z" />
    <glyph glyph-name="Uacute" unicode="&#xda;" 
d="M293 -10q-146 0 -206 70.5t-39 216.5l73 523h170l-72 -516q-12 -88 9.5 -121.5t83.5 -33.5t93.5 33.5t43.5 121.5l72 516h170l-73 -523q-21 -146 -100 -216.5t-225 -70.5zM288 900l143 200h220l-244 -200h-119z" />
    <glyph glyph-name="Ucircumflex" unicode="&#xdb;" 
d="M293 -10q-146 0 -206 70.5t-39 216.5l73 523h170l-72 -516q-12 -88 9.5 -121.5t83.5 -33.5t93.5 33.5t43.5 121.5l72 516h170l-73 -523q-21 -146 -100 -216.5t-225 -70.5zM224 890l-44 78l203 156h128l161 -156l-65 -77l-178 108z" />
    <glyph glyph-name="Udieresis" unicode="&#xdc;" 
d="M293 -10q-146 0 -206 70.5t-39 216.5l73 523h170l-72 -516q-12 -88 9.5 -121.5t83.5 -33.5t93.5 33.5t43.5 121.5l72 516h170l-73 -523q-21 -146 -100 -216.5t-225 -70.5zM290 896q-39 0 -61.5 15.5t-16.5 54.5l1 13q6 40 33 56.5t66 16.5q40 0 62 -16.5t16 -56.5l-1 -13
q-6 -39 -33 -54.5t-66 -15.5zM542 896q-40 0 -62.5 15.5t-16.5 54.5l1 13q6 40 33 56.5t67 16.5t61.5 -16.5t15.5 -56.5l-1 -13q-6 -39 -33 -54.5t-65 -15.5z" />
    <glyph glyph-name="Utilde" unicode="&#x168;" 
d="M293 -10q-146 0 -206 70.5t-39 216.5l73 523h170l-72 -516q-12 -88 9.5 -121.5t83.5 -33.5t93.5 33.5t43.5 121.5l72 516h170l-73 -523q-21 -146 -100 -216.5t-225 -70.5zM509 910q-44 0 -67.5 16t-37.5 34q-14 19 -26 34.5t-31 15.5q-17 0 -32.5 -15.5t-20.5 -64.5
l-2 -10h-112l2 15q12 81 59 135t117 54q46 0 69.5 -15.5t37.5 -34.5t26 -35t29 -16t32 15.5t21 65.5l1 9h112l-2 -15q-11 -80 -58 -134t-117 -54z" />
    <glyph glyph-name="Umacron" unicode="&#x16a;" 
d="M293 -10q-146 0 -206 70.5t-39 216.5l73 523h170l-72 -516q-12 -88 9.5 -121.5t83.5 -33.5t93.5 33.5t43.5 121.5l72 516h170l-73 -523q-21 -146 -100 -216.5t-225 -70.5zM203 934l19 132h436l-19 -132h-436z" />
    <glyph glyph-name="Ubreve" unicode="&#x16c;" 
d="M293 -10q-146 0 -206 70.5t-39 216.5l73 523h170l-72 -516q-12 -88 9.5 -121.5t83.5 -33.5t93.5 33.5t43.5 121.5l72 516h170l-73 -523q-21 -146 -100 -216.5t-225 -70.5zM415 893q-124 0 -182 55.5t-42 175.5h142q-9 -69 14 -96.5t83 -27.5t91 27.5t42 96.5h142
q-18 -120 -92 -175.5t-198 -55.5z" />
    <glyph glyph-name="Uring" unicode="&#x16e;" 
d="M293 -10q-146 0 -206 70.5t-39 216.5l73 523h170l-72 -516q-12 -88 9.5 -121.5t83.5 -33.5t93.5 33.5t43.5 121.5l72 516h170l-73 -523q-21 -146 -100 -216.5t-225 -70.5zM413 878q-87 0 -135.5 37t-37.5 115l4 32q11 78 70.5 116.5t146.5 38.5q88 0 136 -38.5t37 -116.5
l-4 -32q-11 -78 -70.5 -115t-146.5 -37zM425 963q37 0 58 15t27 52l4 32q5 36 -11.5 53t-53.5 17t-58.5 -17t-26.5 -53l-4 -32q-6 -37 11 -52t54 -15z" />
    <glyph glyph-name="Uhungarumlaut" unicode="&#x170;" 
d="M293 -10q-146 0 -206 70.5t-39 216.5l73 523h170l-72 -516q-12 -88 9.5 -121.5t83.5 -33.5t93.5 33.5t43.5 121.5l72 516h170l-73 -523q-21 -146 -100 -216.5t-225 -70.5zM482 900l77 200h175l-160 -200h-92zM252 900l77 200h175l-160 -200h-92z" />
    <glyph glyph-name="Uogonek" unicode="&#x172;" 
d="M336 -221q-78 0 -120.5 31.5t-33.5 93.5q8 61 61.5 104.5t111.5 59.5l20 -45q-37 -21 -48.5 -41.5t-14.5 -39.5q-4 -26 12.5 -39t54.5 -13q18 0 43 2.5t51 7.5l-15 -109q-32 -6 -63.5 -9t-58.5 -3zM293 -10q-146 0 -206 70.5t-39 216.5l73 523h170l-72 -516
q-12 -88 9.5 -121.5t83.5 -33.5t93.5 33.5t43.5 121.5l72 516h170l-73 -523q-21 -146 -100 -216.5t-225 -70.5z" />
    <glyph glyph-name="V" unicode="V" 
d="M403 0h-217l-111 800h171l67 -663l261 663h164z" />
    <glyph glyph-name="W" unicode="W" 
d="M377 0l-26 390l-137 -390h-152l8 800h148l-38 -606l135 406h126l25 -395l130 595h147l-217 -800h-149z" />
    <glyph glyph-name="Wcircumflex" unicode="&#x174;" 
d="M377 0l-26 390l-137 -390h-152l8 800h148l-38 -606l135 406h126l25 -395l130 595h147l-217 -800h-149zM224 890l-44 78l203 156h128l161 -156l-65 -77l-178 108z" />
    <glyph glyph-name="Wgrave" unicode="&#x1e80;" 
d="M377 0l-26 390l-137 -390h-152l8 800h148l-38 -606l135 406h126l25 -395l130 595h147l-217 -800h-149zM406 900l-188 200h220l87 -200h-119z" />
    <glyph glyph-name="Wacute" unicode="&#x1e82;" 
d="M377 0l-26 390l-137 -390h-152l8 800h148l-38 -606l135 406h126l25 -395l130 595h147l-217 -800h-149zM291 900l143 200h220l-244 -200h-119z" />
    <glyph glyph-name="Wdieresis" unicode="&#x1e84;" 
d="M377 0l-26 390l-137 -390h-152l8 800h148l-38 -606l135 406h126l25 -395l130 595h147l-217 -800h-149zM297 896q-39 0 -61.5 15.5t-16.5 54.5l1 13q6 40 33 56.5t66 16.5q40 0 62 -16.5t16 -56.5l-1 -13q-6 -39 -33 -54.5t-66 -15.5zM549 896q-40 0 -62.5 15.5
t-16.5 54.5l1 13q6 40 33 56.5t67 16.5t61.5 -16.5t15.5 -56.5l-1 -13q-6 -39 -33 -54.5t-65 -15.5z" />
    <glyph glyph-name="X" unicode="X" 
d="M449 0l-120 273l-193 -273h-169l305 411l-168 389h177l108 -248l176 248h169l-289 -388l174 -412h-170z" />
    <glyph glyph-name="Y" unicode="Y" 
d="M379 0h-170l42 300l-181 500h173l114 -358l212 358h172l-320 -500z" />
    <glyph glyph-name="Yacute" unicode="&#xdd;" 
d="M379 0h-170l42 300l-181 500h173l114 -358l212 358h172l-320 -500zM288 900l143 200h220l-244 -200h-119z" />
    <glyph glyph-name="Ycircumflex" unicode="&#x176;" 
d="M379 0h-170l42 300l-181 500h173l114 -358l212 358h172l-320 -500zM224 890l-44 78l203 156h128l161 -156l-65 -77l-178 108z" />
    <glyph glyph-name="Ydieresis" unicode="&#x178;" 
d="M379 0h-170l42 300l-181 500h173l114 -358l212 358h172l-320 -500zM290 896q-39 0 -61.5 15.5t-16.5 54.5l1 13q6 40 33 56.5t66 16.5q40 0 62 -16.5t16 -56.5l-1 -13q-6 -39 -33 -54.5t-66 -15.5zM542 896q-40 0 -62.5 15.5t-16.5 54.5l1 13q6 40 33 56.5t67 16.5
t61.5 -16.5t15.5 -56.5l-1 -13q-6 -39 -33 -54.5t-65 -15.5z" />
    <glyph glyph-name="Ygrave" unicode="&#x1ef2;" 
d="M379 0h-170l42 300l-181 500h173l114 -358l212 358h172l-320 -500zM403 900l-188 200h220l87 -200h-119z" />
    <glyph glyph-name="Z" unicode="Z" 
d="M585 0h-582l19 132l476 536h-401l18 132h582l-18 -132l-474 -536h399z" />
    <glyph glyph-name="Zacute" unicode="&#x179;" 
d="M585 0h-582l19 132l476 536h-401l18 132h582l-18 -132l-474 -536h399zM318 900l143 200h220l-244 -200h-119z" />
    <glyph glyph-name="Zdotaccent" unicode="&#x17b;" 
d="M585 0h-582l19 132l476 536h-401l18 132h582l-18 -132l-474 -536h399zM416 896q-51 0 -81 15.5t-24 54.5l1 13q6 40 40.5 56.5t85.5 16.5t80.5 -16.5t23.5 -56.5l-1 -13q-6 -39 -40 -54.5t-85 -15.5z" />
    <glyph glyph-name="Zcaron" unicode="&#x17d;" 
d="M585 0h-582l19 132l476 536h-401l18 132h582l-18 -132l-474 -536h399zM354 904l-161 156l65 77l178 -108l205 109l44 -78l-203 -156h-128z" />
    <glyph glyph-name="AE" unicode="&#xc6;" 
d="M344 678l-143 -361h127l50 361h-34zM310 195h-158l-77 -195h-124l327 800h461l-17 -122h-198l-26 -187h181l-17 -122h-181l-35 -247h198l-17 -122h-344z" />
    <glyph glyph-name="AEacute" unicode="&#x1fc;" 
d="M344 678l-143 -361h127l50 361h-34zM310 195h-158l-77 -195h-124l327 800h461l-17 -122h-198l-26 -187h181l-17 -122h-181l-35 -247h198l-17 -122h-344zM411 900l143 200h220l-244 -200h-119z" />
    <glyph glyph-name="Eth" unicode="&#xd0;" 
d="M9 0l54 385h-65l16 111h65l42 304h277q140 0 208.5 -79.5t50.5 -211.5l-32 -222q-18 -131 -108.5 -209t-231.5 -78h-276zM198 132h92q78 0 116.5 40t50.5 129l28 194q12 90 -15 131.5t-105 41.5h-92l-24 -172h115l-16 -111h-115z" />
    <glyph glyph-name="Oslash" unicode="&#xd8;" 
d="M197 222l244 451q-12 2 -24.5 3.5t-27.5 1.5q-75 0 -110 -38t-48 -128l-32 -228q-3 -19 -3.5 -34t1.5 -28zM311 122q76 0 110.5 36.5t47.5 125.5l32 228q3 22 3 40t-4 31l-245 -454q12 -4 26 -5.5t30 -1.5zM293 -10q-27 0 -51.5 3t-45.5 8l-55 -101h-128l82 153
q-36 36 -50 91t-4 126l36 256q19 135 104 209.5t228 74.5q25 0 47.5 -2.5t43.5 -6.5l53 99h128l-80 -149q39 -36 53.5 -93t4.5 -132l-36 -256q-19 -134 -103 -207t-227 -73z" />
    <glyph glyph-name="Oslashacute" unicode="&#x1fe;" 
d="M197 222l244 451q-12 2 -24.5 3.5t-27.5 1.5q-75 0 -110 -38t-48 -128l-32 -228q-3 -19 -3.5 -34t1.5 -28zM311 122q76 0 110.5 36.5t47.5 125.5l32 228q3 22 3 40t-4 31l-245 -454q12 -4 26 -5.5t30 -1.5zM293 -10q-27 0 -51.5 3t-45.5 8l-55 -101h-128l82 153
q-36 36 -50 91t-4 126l36 256q19 135 104 209.5t228 74.5q25 0 47.5 -2.5t43.5 -6.5l53 99h128l-80 -149q39 -36 53.5 -93t4.5 -132l-36 -256q-19 -134 -103 -207t-227 -73zM321 900l143 200h220l-244 -200h-119z" />
    <glyph glyph-name="Thorn" unicode="&#xde;" 
d="M9 0l112 800h170l-17 -123h133q134 0 197 -57.5t48 -167.5l-15 -105q-15 -105 -94 -161t-213 -56h-133l-18 -130h-170zM216 260h117q65 0 96.5 21.5t37.5 70.5l15 100q7 50 -18.5 71.5t-90.5 21.5h-117z" />
    <glyph glyph-name="Dcroat" unicode="&#x110;" 
d="M9 0l54 385h-65l16 111h65l42 304h277q140 0 208.5 -79.5t50.5 -211.5l-32 -222q-18 -131 -108.5 -209t-231.5 -78h-276zM198 132h92q78 0 116.5 40t50.5 129l28 194q12 90 -15 131.5t-105 41.5h-92l-24 -172h115l-16 -111h-115z" />
    <glyph glyph-name="Hbar" unicode="&#x126;" 
d="M245 423h216l19 130h-216zM227 291l-41 -291h-170l78 553h-72l15 111h72l19 136h170l-19 -136h216l19 136h170l-19 -136h72l-15 -111h-72l-78 -553h-170l41 291h-216z" />
    <glyph glyph-name="IJ" unicode="&#x132;" 
d="M125 0h-135l112 800h135zM404 -10q-100 0 -144 62t-25 212l137 11q-13 -101 -5 -134t50 -33q34 0 51.5 28.5t26.5 89.5l64 456h-148l16 118h283l-81 -581q-15 -107 -70.5 -168t-154.5 -61z" />
    <glyph glyph-name="Ldot" unicode="&#x13f;" 
d="M59 0l112 800h170l-93 -668h350l-19 -132h-520zM632 389q-51 0 -81 15.5t-24 54.5l1 13q6 40 40.5 56.5t85.5 16.5t80.5 -16.5t23.5 -56.5l-1 -13q-6 -39 -40 -54.5t-85 -15.5z" />
    <glyph glyph-name="Lslash" unicode="&#x141;" 
d="M59 0l47 334l-83 -25l16 108l82 25l50 358h170l-42 -304l246 75l-15 -108l-246 -75l-36 -256h350l-19 -132h-520z" />
    <glyph glyph-name="Eng" unicode="&#x14a;" 
d="M304 -209q-35 0 -69.5 7t-70.5 18l37 117q29 -10 53.5 -16.5t46.5 -6.5q44 0 73.5 27.5t38.5 90.5l75 532q8 59 -11.5 88t-56.5 29q-40 0 -76 -29t-86 -83l-79 -565h-170l112 800h170l-17 -127h30q38 66 93 101.5t116 35.5q77 0 121 -52.5t30 -151.5l-83 -594
q-17 -116 -97.5 -168.5t-179.5 -52.5z" />
    <glyph glyph-name="OE" unicode="&#x152;" 
d="M220 0q-119 0 -174.5 79t-36.5 211l31 222q18 131 96 209.5t197 78.5h409l-17 -122h-201l-26 -184h166l-17 -122h-166l-35 -250h201l-17 -122h-410zM253 129h48l76 542h-48q-69 0 -101 -44t-44 -129l-27 -194q-12 -85 7.5 -130t88.5 -45z" />
    <glyph glyph-name="Tbar" unicode="&#x166;" 
d="M209 0l42 296h-172l15 111h172l37 261h-229l18 132h628l-18 -132h-229l-37 -261h172l-15 -111h-172l-42 -296h-170z" />
    <glyph glyph-name="Alpha" unicode="&#x391;" 
d="M427 327l-37 338l-137 -338h174zM463 0l-22 195h-242l-79 -195h-157l342 800h203l118 -800h-163z" />
    <glyph glyph-name="Alphatonos" unicode="&#x386;" 
d="M427 327l-37 338l-137 -338h174zM463 0l-22 195h-242l-79 -195h-157l342 800h203l118 -800h-163zM27 700l83 200h210l-184 -200h-109z" />
    <glyph glyph-name="Beta" unicode="&#x392;" 
d="M9 0l112 800h294q132 0 189 -46t43 -142l-5 -37q-9 -61 -42 -94t-93 -43l-5 -29q66 -7 97.5 -47.5t22.5 -102.5l-7 -50q-15 -107 -91 -158t-221 -51h-294zM246 474h113q54 0 80 18.5t32 61.5l6 42q6 43 -15 61t-75 18h-113zM197 125h116q66 0 96.5 21.5t37.5 72.5l6 46
q7 50 -17.5 71.5t-90.5 21.5h-116z" />
    <glyph glyph-name="Gamma" unicode="&#x393;" 
d="M44 0l112 800h555l-18 -132h-385l-94 -668h-170z" />
    <glyph glyph-name="Delta" unicode="&#x394;" 
d="M-23 0l19 132l297 668h231l106 -668l-19 -132h-634zM468 132l-78 552l-239 -552h317z" />
    <glyph glyph-name="Epsilon" unicode="&#x395;" 
d="M9 0l112 800h576l-18 -132h-406l-25 -174h356l-18 -132h-356l-32 -230h406l-19 -132h-576z" />
    <glyph glyph-name="Epsilontonos" unicode="&#x388;" 
d="M9 0l112 800h576l-18 -132h-406l-25 -174h356l-18 -132h-356l-32 -230h406l-19 -132h-576zM-120 700l83 200h210l-184 -200h-109z" />
    <glyph glyph-name="Zeta" unicode="&#x396;" 
d="M585 0h-582l19 132l476 536h-401l18 132h582l-18 -132l-474 -536h399z" />
    <glyph glyph-name="Eta" unicode="&#x397;" 
d="M9 0l112 800h170l-41 -292h230l41 292h170l-112 -800h-170l53 376h-230l-53 -376h-170z" />
    <glyph glyph-name="Etatonos" unicode="&#x389;" 
d="M9 0l112 800h170l-41 -292h230l41 292h170l-112 -800h-170l53 376h-230l-53 -376h-170zM-137 700l83 200h210l-184 -200h-109z" />
    <glyph glyph-name="Theta" unicode="&#x398;" 
d="M293 -10q-145 0 -212.5 72.5t-48.5 207.5l36 256q19 137 107.5 210.5t233.5 73.5t211.5 -73.5t47.5 -210.5l-36 -256q-19 -135 -106 -207.5t-233 -72.5zM311 122q78 0 120 37.5t54 124.5l32 228q12 88 -19 127t-109 39t-120 -39t-54 -127l-32 -228q-12 -87 19 -124.5
t109 -37.5zM257 346l16 118h172l-16 -118h-172z" />
    <glyph glyph-name="Iota" unicode="&#x399;" 
d="M9 0l19 132h200l75 536h-200l18 132h570l-18 -132h-200l-75 -536h200l-19 -132h-570z" />
    <glyph glyph-name="Iotatonos" unicode="&#x38a;" 
d="M9 0l19 132h200l75 536h-200l18 132h570l-18 -132h-200l-75 -536h200l-19 -132h-570zM-137 700l83 200h210l-184 -200h-109z" />
    <glyph glyph-name="Iotadieresis" unicode="&#x3aa;" 
d="M9 0l19 132h200l75 536h-200l18 132h570l-18 -132h-200l-75 -536h200l-19 -132h-570zM290 896q-39 0 -61.5 15.5t-16.5 54.5l1 13q6 40 33 56.5t66 16.5q40 0 62 -16.5t16 -56.5l-1 -13q-6 -39 -33 -54.5t-66 -15.5zM542 896q-40 0 -62.5 15.5t-16.5 54.5l1 13
q6 40 33 56.5t67 16.5t61.5 -16.5t15.5 -56.5l-1 -13q-6 -39 -33 -54.5t-65 -15.5z" />
    <glyph glyph-name="Kappa" unicode="&#x39a;" 
d="M228 349l-49 -349h-170l112 800h170l-44 -319h38l270 319h178l-325 -369l210 -431h-177l-172 349h-41z" />
    <glyph glyph-name="Lambda" unicode="&#x39b;" 
d="M463 0l-73 665l-270 -665h-157l342 800h203l118 -800h-163z" />
    <glyph glyph-name="Mu" unicode="&#x39c;" 
d="M269 235l-65 314l-61 -549h-150l112 800h170l78 -403l189 403h165l-112 -800h-149l91 545l-151 -310h-117z" />
    <glyph glyph-name="Nu" unicode="&#x39d;" 
d="M373 0l-138 570l-80 -570h-146l112 800h193l147 -604l84 604h146l-112 -800h-206z" />
    <glyph glyph-name="Xi" unicode="&#x39e;" 
d="M97 668l18 132h582l-18 -132h-582zM79 362l18 132h532l-18 -132h-532zM3 0l19 132h582l-19 -132h-582z" />
    <glyph glyph-name="Omicron" unicode="&#x39f;" 
d="M293 -10q-143 0 -207.5 69.5t-46.5 196.5l40 284q18 128 102.5 199t227.5 71t206.5 -71t45.5 -199l-40 -284q-18 -127 -101.5 -196.5t-226.5 -69.5zM311 122q65 0 98 33.5t44 114.5l36 256q11 81 -12 116.5t-88 35.5t-98 -35.5t-44 -116.5l-36 -256q-11 -81 12 -114.5
t88 -33.5z" />
    <glyph glyph-name="Omicrontonos" unicode="&#x38c;" 
d="M295 -10q-143 0 -207.5 69.5t-46.5 196.5l40 284q18 128 102.5 199t227.5 71t206.5 -71t45.5 -199l-40 -284q-18 -127 -101.5 -196.5t-226.5 -69.5zM313 122q65 0 98 33.5t44 114.5l36 256q11 81 -12 116.5t-88 35.5t-98 -35.5t-44 -116.5l-36 -256q-11 -81 12 -114.5
t88 -33.5zM-27 700l83 200h210l-184 -200h-109z" />
    <glyph glyph-name="Pi" unicode="&#x3a0;" 
d="M9 0l112 800h570l-112 -800h-170l94 668h-230l-94 -668h-170z" />
    <glyph glyph-name="Rho" unicode="&#x3a1;" 
d="M9 0l112 800h303q131 0 196 -54.5t49 -169.5l-15 -107q-16 -111 -95 -163.5t-211 -52.5h-133l-36 -253h-170zM233 383h124q59 0 90 21t39 78l12 84q8 59 -17 80.5t-84 21.5h-124z" />
    <glyph glyph-name="Sigma" unicode="&#x3a3;" 
d="M564 0h-550l19 132l353 278l-278 258l18 132h550l-18 -132h-369l221 -199l-15 -106l-293 -231h381z" />
    <glyph glyph-name="Tau" unicode="&#x3a4;" 
d="M209 0l94 668h-229l18 132h628l-18 -132h-229l-94 -668h-170z" />
    <glyph glyph-name="Upsilon" unicode="&#x3a5;" 
d="M379 0h-170l42 300l-181 500h173l114 -358l212 358h172l-320 -500z" />
    <glyph glyph-name="Upsilontonos" unicode="&#x38e;" 
d="M379 0h-170l42 300l-181 500h173l114 -358l212 358h172l-320 -500zM-146 700l83 200h210l-184 -200h-109z" />
    <glyph glyph-name="Upsilondieresis" unicode="&#x3ab;" 
d="M379 0h-170l42 300l-181 500h173l114 -358l212 358h172l-320 -500zM290 896q-39 0 -61.5 15.5t-16.5 54.5l1 13q6 40 33 56.5t66 16.5q40 0 62 -16.5t16 -56.5l-1 -13q-6 -39 -33 -54.5t-66 -15.5zM542 896q-40 0 -62.5 15.5t-16.5 54.5l1 13q6 40 33 56.5t67 16.5
t61.5 -16.5t15.5 -56.5l-1 -13q-6 -39 -33 -54.5t-65 -15.5z" />
    <glyph glyph-name="Phi" unicode="&#x3a6;" 
d="M392 90h-15l-14 -100h-141l14 100h-14q-110 0 -157 71t-30 196l12 82q18 127 85.5 199t177.5 72h13l14 100h141l-14 -100h15q110 0 157 -72t29 -199l-12 -82q-17 -125 -84 -196t-177 -71zM468 585h-27l-52 -370h27q40 0 61.5 36t31.5 106l12 82q10 70 -1.5 108t-51.5 38z
M236 215h22l52 370h-22q-44 0 -66 -38t-32 -108l-12 -82q-10 -70 2 -106t56 -36z" />
    <glyph glyph-name="Chi" unicode="&#x3a7;" 
d="M449 0l-120 273l-193 -273h-169l305 411l-168 389h177l108 -248l176 248h169l-289 -388l174 -412h-170z" />
    <glyph glyph-name="Psi" unicode="&#x3a8;" 
d="M365 0h-142l26 188q-110 16 -158 85.5t-32 183.5l48 343h142l-47 -336q-9 -66 6 -101.5t60 -42.5l67 480h142l-67 -480q47 7 72.5 42.5t34.5 101.5l47 336h141l-48 -343q-16 -114 -83 -183.5t-183 -85.5z" />
    <glyph glyph-name="Omega" unicode="&#x3a9;" 
d="M258 0h-265l16 111h116l12 90q-54 27 -75 82t-11 128l16 115q19 139 107 211.5t234 72.5q147 0 213.5 -72.5t47.5 -211.5l-16 -115q-10 -73 -47 -128t-99 -82l-12 -90h116l-16 -111h-265l32 230q52 13 81 59.5t40 121.5l17 122q11 79 -17 112t-94 33t-103 -33t-48 -112
l-17 -122q-11 -75 5 -121.5t64 -59.5z" />
    <glyph glyph-name="Omegatonos" unicode="&#x38f;" 
d="M258 0h-265l16 111h116l12 90q-54 27 -75 82t-11 128l16 115q19 139 107 211.5t234 72.5q147 0 213.5 -72.5t47.5 -211.5l-16 -115q-10 -73 -47 -128t-99 -82l-12 -90h116l-16 -111h-265l32 230q52 13 81 59.5t40 121.5l17 122q11 79 -17 112t-94 33t-103 -33t-48 -112
l-17 -122q-11 -75 5 -121.5t64 -59.5zM-63 700l83 200h210l-184 -200h-109z" />
    <glyph glyph-name="Ohm" unicode="&#x2126;" 
d="M258 0h-265l16 111h116l12 90q-54 27 -75 82t-11 128l16 115q19 139 107 211.5t234 72.5q147 0 213.5 -72.5t47.5 -211.5l-16 -115q-10 -73 -47 -128t-99 -82l-12 -90h116l-16 -111h-265l32 230q52 13 81 59.5t40 121.5l17 122q11 79 -17 112t-94 33t-103 -33t-48 -112
l-17 -122q-11 -75 5 -121.5t64 -59.5z" />
    <glyph glyph-name="Djecyrillic" unicode="&#x402;" 
d="M82 0l94 668h-122l18 132h472l-18 -132h-180l-21 -148h88q127 0 184.5 -56.5t40.5 -175.5l-8 -58q-16 -117 -89.5 -173.5t-200.5 -56.5l18 130q45 0 73.5 22.5t36.5 79.5l7 54q8 58 -13.5 81t-66.5 23h-88l-55 -390h-170z" />
    <glyph glyph-name="Ecyrillic" unicode="&#x404;" 
d="M643 271q-28 -147 -108.5 -214t-231.5 -67q-149 0 -216 67t-48 199l40 284q19 134 104.5 202t235.5 68q149 0 211.5 -65.5t48.5 -219.5l-172 -10q6 93 -15.5 128t-92.5 35t-105.5 -34.5t-46.5 -118.5l-5 -31h173l-18 -132h-173l-13 -92q-11 -81 14 -114.5t96 -33.5
q72 0 102.5 33t50.5 126z" />
    <glyph glyph-name="Dzecyrillic" unicode="&#x405;" 
d="M291 -9q-95 0 -166 25.5t-124 71.5l71 125q48 -42 105 -66t135 -24q63 0 99 26t42 69q7 50 -25 71t-120 44q-135 34 -182.5 86t-33.5 151q15 105 95.5 171.5t214.5 66.5q76 0 146 -26.5t112 -66.5l-62 -120q-49 38 -101 59t-112 21q-53 0 -84 -21.5t-37 -64.5
q-6 -42 23 -66t127 -49q132 -32 178.5 -85.5t32.5 -156.5q-17 -116 -108.5 -178.5t-225.5 -62.5z" />
    <glyph glyph-name="Icyrillic" unicode="&#x406;" 
d="M9 0l19 132h200l75 536h-200l18 132h570l-18 -132h-200l-75 -536h200l-19 -132h-570z" />
    <glyph glyph-name="Yicyrillic" unicode="&#x407;" 
d="M9 0l19 132h200l75 536h-200l18 132h570l-18 -132h-200l-75 -536h200l-19 -132h-570zM290 896q-39 0 -61.5 15.5t-16.5 54.5l1 13q6 40 33 56.5t66 16.5q40 0 62 -16.5t16 -56.5l-1 -13q-6 -39 -33 -54.5t-66 -15.5zM542 896q-40 0 -62.5 15.5t-16.5 54.5l1 13
q6 40 33 56.5t67 16.5t61.5 -16.5t15.5 -56.5l-1 -13q-6 -39 -33 -54.5t-65 -15.5z" />
    <glyph glyph-name="Jecyrillic" unicode="&#x408;" 
d="M279 -10q-149 0 -210 68.5t-47 219.5l172 11q-8 -101 14 -134t88 -33q60 0 92.5 32t44.5 113l56 401h-221l18 132h391l-75 -540q-18 -128 -97.5 -199t-225.5 -71z" />
    <glyph glyph-name="Ljecyrillic" unicode="&#x409;" 
d="M164 143q-11 -75 -55 -111.5t-112 -36.5q-17 -1 -34.5 2t-34.5 7l37 126q7 -2 15 -3.5t15 -0.5q14 -1 26 11t18 49l95 614h347l-35 -253h54q85 0 124 -49t26 -139l-22 -162q-14 -94 -67.5 -145.5t-137.5 -51.5h-186l96 682h-86zM386 118h31q33 0 53.5 21.5t27.5 72.5
l18 128q7 49 -7.5 70t-47.5 21h-31z" />
    <glyph glyph-name="Njecyrillic" unicode="&#x40a;" 
d="M386 118h34q32 0 51 21t27 73l18 128q7 50 -6.5 70.5t-45.5 20.5h-34zM174 376l-53 -376h-132l112 800h132l-41 -292h116l41 292h132l-35 -253h57q86 0 123.5 -47.5t23.5 -140.5l-22 -162q-14 -97 -65 -147t-137 -50h-189l53 376h-116z" />
    <glyph glyph-name="Tshecyrillic" unicode="&#x40b;" 
d="M249 0h-170l94 668h-122l18 132h479l-18 -132h-187l-24 -171h91q131 0 186.5 -55.5t39.5 -169.5l-38 -272h-170l38 270q7 51 -10.5 74t-63.5 23h-91z" />
    <glyph glyph-name="Dzhecyrillic" unicode="&#x40f;" 
d="M188 -150l21 150h-200l112 800h170l-93 -668h230l93 668h170l-112 -800h-200l-21 -150h-170z" />
    <glyph glyph-name="Acyrillic" unicode="&#x410;" 
d="M427 327l-37 338l-137 -338h174zM463 0l-22 195h-242l-79 -195h-157l342 800h203l118 -800h-163z" />
    <glyph glyph-name="Becyrillic" unicode="&#x411;" 
d="M9 0l112 800h535l-18 -132h-365l-24 -173h149q128 0 188.5 -55.5t45.5 -158.5l-7 -54q-16 -110 -92 -168.5t-204 -58.5h-320zM198 132h129q63 0 92.5 25.5t36.5 76.5l4 32q7 50 -15.5 74.5t-85.5 24.5h-129z" />
    <glyph glyph-name="Vecyrillic" unicode="&#x412;" 
d="M9 0l112 800h294q132 0 189 -46t43 -142l-5 -37q-9 -61 -42 -94t-93 -43l-5 -29q66 -7 97.5 -47.5t22.5 -102.5l-7 -50q-15 -107 -91 -158t-221 -51h-294zM246 474h113q54 0 80 18.5t32 61.5l6 42q6 43 -15 61t-75 18h-113zM197 125h116q66 0 96.5 21.5t37.5 72.5l6 46
q7 50 -17.5 71.5t-90.5 21.5h-116z" />
    <glyph glyph-name="Gecyrillic" unicode="&#x413;" 
d="M44 0l112 800h555l-18 -132h-385l-94 -668h-170z" />
    <glyph glyph-name="Gjecyrillic" unicode="&#x403;" 
d="M44 0l112 800h555l-18 -132h-385l-94 -668h-170zM326 900l143 200h220l-244 -200h-119z" />
    <glyph glyph-name="Decyrillic" unicode="&#x414;" 
d="M202 153l-3 -21h202l75 536h-156l-54 -364q-9 -53 -23.5 -91.5t-40.5 -59.5zM103 0l-21 -150h-156l40 282h74q26 18 43 58t29 118l74 492h464l-93 -668h86l-40 -282h-156l21 150h-365z" />
    <glyph glyph-name="Iecyrillic" unicode="&#x415;" 
d="M9 0l112 800h576l-18 -132h-406l-25 -174h356l-18 -132h-356l-32 -230h406l-19 -132h-576z" />
    <glyph glyph-name="IEgravecyrillic" unicode="&#x400;" 
d="M9 0l112 800h576l-18 -132h-406l-25 -174h356l-18 -132h-356l-32 -230h406l-19 -132h-576zM398 900l-188 200h220l87 -200h-119z" />
    <glyph glyph-name="Iocyrillic" unicode="&#x401;" 
d="M9 0l112 800h576l-18 -132h-406l-25 -174h356l-18 -132h-356l-32 -230h406l-19 -132h-576zM306 896q-39 0 -61.5 15.5t-16.5 54.5l1 13q6 40 33 56.5t66 16.5q40 0 62 -16.5t16 -56.5l-1 -13q-6 -39 -33 -54.5t-66 -15.5zM558 896q-40 0 -62.5 15.5t-16.5 54.5l1 13
q6 40 33 56.5t67 16.5t61.5 -16.5t15.5 -56.5l-1 -13q-6 -39 -33 -54.5t-65 -15.5z" />
    <glyph glyph-name="Zhecyrillic" unicode="&#x416;" 
d="M239 357l-145 -357h-136l192 447l-82 353h137l55 -328h38l46 328h125l-46 -328h38l146 328h137l-176 -358l63 -442h-137l-44 357h-43l-50 -357h-125l50 357h-43z" />
    <glyph glyph-name="Zecyrillic" unicode="&#x417;" 
d="M292 -10q-149 0 -213 58t-54 180l171 10q-2 -69 24.5 -93.5t88.5 -24.5q67 0 98.5 24t38.5 78l4 27q8 57 -18 81.5t-88 24.5h-107l18 130h107q53 0 79.5 17t32.5 60l4 32q7 47 -15 66.5t-76 19.5q-50 0 -79 -22t-43 -77l-169 10q23 112 98 165.5t204 53.5q144 0 206 -47
t47 -154l-4 -22q-8 -63 -53.5 -102.5t-116.5 -46.5l-5 -29q80 -7 118 -53.5t28 -117.5l-2 -20q-17 -116 -92 -172t-232 -56z" />
    <glyph glyph-name="Iicyrillic" unicode="&#x418;" 
d="M430 0l80 569l-295 -569h-206l112 800h150l-84 -602l311 602h193l-112 -800h-149z" />
    <glyph glyph-name="Igravecyrillic" unicode="&#x40d;" 
d="M430 0l80 569l-295 -569h-206l112 800h150l-84 -602l311 602h193l-112 -800h-149zM386 900l-188 200h220l87 -200h-119z" />
    <glyph glyph-name="Iishortcyrillic" unicode="&#x419;" 
d="M430 0l80 569l-295 -569h-206l112 800h150l-84 -602l311 602h193l-112 -800h-149zM418 893q-100 0 -167 49.5t-49 171.5l151 10q-10 -66 6.5 -95t73.5 -29t82.5 29t33.5 95l147 -10q-16 -122 -97 -171.5t-181 -49.5z" />
    <glyph glyph-name="Kacyrillic" unicode="&#x41a;" 
d="M228 349l-49 -349h-170l112 800h170l-44 -319h38l270 319h178l-325 -369l210 -431h-177l-172 349h-41z" />
    <glyph glyph-name="Kjecyrillic" unicode="&#x40c;" 
d="M228 349l-49 -349h-170l112 800h170l-44 -319h38l270 319h178l-325 -369l210 -431h-177l-172 349h-41zM357 900l143 200h220l-244 -200h-119z" />
    <glyph glyph-name="Elcyrillic" unicode="&#x41b;" 
d="M409 0l94 668h-160l-63 -432q-18 -125 -79 -187t-160 -62q-24 0 -48.5 4.5t-48.5 11.5l38 133q14 -4 26 -7t24 -3q31 0 51.5 27t31.5 96l80 551h496l-112 -800h-170z" />
    <glyph glyph-name="Emcyrillic" unicode="&#x41c;" 
d="M269 235l-65 314l-61 -549h-150l112 800h170l78 -403l189 403h165l-112 -800h-149l91 545l-151 -310h-117z" />
    <glyph glyph-name="Encyrillic" unicode="&#x41d;" 
d="M9 0l112 800h170l-41 -292h230l41 292h170l-112 -800h-170l53 376h-230l-53 -376h-170z" />
    <glyph glyph-name="Ocyrillic" unicode="&#x41e;" 
d="M293 -10q-143 0 -207.5 69.5t-46.5 196.5l40 284q18 128 102.5 199t227.5 71t206.5 -71t45.5 -199l-40 -284q-18 -127 -101.5 -196.5t-226.5 -69.5zM311 122q65 0 98 33.5t44 114.5l36 256q11 81 -12 116.5t-88 35.5t-98 -35.5t-44 -116.5l-36 -256q-11 -81 12 -114.5
t88 -33.5z" />
    <glyph glyph-name="Pecyrillic" unicode="&#x41f;" 
d="M9 0l112 800h570l-112 -800h-170l94 668h-230l-94 -668h-170z" />
    <glyph glyph-name="Ercyrillic" unicode="&#x420;" 
d="M9 0l112 800h303q131 0 196 -54.5t49 -169.5l-15 -107q-16 -111 -95 -163.5t-211 -52.5h-133l-36 -253h-170zM233 383h124q59 0 90 21t39 78l12 84q8 59 -17 80.5t-84 21.5h-124z" />
    <glyph glyph-name="Escyrillic" unicode="&#x421;" 
d="M303 -10q-151 0 -217 66.5t-47 199.5l40 284q19 135 104 202.5t236 67.5q152 0 213 -67t47 -218l-172 -10q7 97 -15 130t-93 33t-106 -35t-46 -118l-36 -255q-11 -80 14 -114t96 -34q70 0 101.5 32t51.5 127l169 -10q-28 -149 -107.5 -215t-232.5 -66z" />
    <glyph glyph-name="Tecyrillic" unicode="&#x422;" 
d="M209 0l94 668h-229l18 132h628l-18 -132h-229l-94 -668h-170z" />
    <glyph glyph-name="Ucyrillic" unicode="&#x423;" 
d="M124 -5q-31 0 -63 3.5t-64 10.5l36 132q31 -7 57 -10t48 -3q46 0 77 19.5t57 70.5l8 17h-65l-129 565h167l92 -432l214 432h166l-315 -618q-51 -98 -121 -142.5t-165 -44.5z" />
    <glyph glyph-name="Ushortcyrillic" unicode="&#x40e;" 
d="M124 -5q-31 0 -63 3.5t-64 10.5l36 132q31 -7 57 -10t48 -3q46 0 77 19.5t57 70.5l8 17h-65l-129 565h167l92 -432l214 432h166l-315 -618q-51 -98 -121 -142.5t-165 -44.5zM415 893q-100 0 -167 49.5t-49 171.5l151 10q-10 -66 6.5 -95t73.5 -29t82.5 29t33.5 95
l147 -10q-16 -122 -97 -171.5t-181 -49.5z" />
    <glyph glyph-name="Efcyrillic" unicode="&#x424;" 
d="M392 90h-15l-14 -100h-141l14 100h-14q-110 0 -157 71t-30 196l12 82q18 127 85.5 199t177.5 72h13l14 100h141l-14 -100h15q110 0 157 -72t29 -199l-12 -82q-17 -125 -84 -196t-177 -71zM468 585h-27l-52 -370h27q40 0 61.5 36t31.5 106l12 82q10 70 -1.5 108t-51.5 38z
M236 215h22l52 370h-22q-44 0 -66 -38t-32 -108l-12 -82q-10 -70 2 -106t56 -36z" />
    <glyph glyph-name="Khacyrillic" unicode="&#x425;" 
d="M449 0l-120 273l-193 -273h-169l305 411l-168 389h177l108 -248l176 248h169l-289 -388l174 -412h-170z" />
    <glyph glyph-name="Tsecyrillic" unicode="&#x426;" 
d="M438 -150l21 150h-450l112 800h170l-93 -668h194l93 668h170l-93 -668h86l-40 -282h-170z" />
    <glyph glyph-name="Checyrillic" unicode="&#x427;" 
d="M688 800l-112 -800h-170l36 259h-115q-148 0 -208 59t-42 187l41 295h170l-41 -293q-8 -61 15.5 -89.5t83.5 -28.5h115l57 411h170z" />
    <glyph glyph-name="Shacyrillic" unicode="&#x428;" 
d="M-12 0l112 800h142l-95 -676h95l95 676h137l-95 -676h96l95 676h142l-112 -800h-612z" />
    <glyph glyph-name="Shchacyrillic" unicode="&#x429;" 
d="M617 -185h-147l26 185h-508l112 800h142l-95 -676h95l95 676h137l-95 -676h96l95 676h142l-95 -676h43z" />
    <glyph glyph-name="Hardsigncyrillic" unicode="&#x42a;" 
d="M352 0h-257l94 668h-148l18 132h315l-35 -253h90q125 0 179.5 -52t40.5 -157l-17 -120q-16 -110 -85.5 -164t-194.5 -54zM281 132h71q55 0 81.5 23.5t34.5 77.5l12 86q7 53 -13 75.5t-75 22.5h-71z" />
    <glyph glyph-name="Yericyrillic" unicode="&#x42b;" 
d="M-6 0l112 800h142l-35 -253h33q107 0 152 -50t30 -152l-18 -134q-15 -107 -74.5 -159t-166.5 -52h-175zM452 0l112 800h142l-112 -800h-142zM153 124h31q38 0 60.5 23t30.5 79l14 100q7 54 -8.5 76.5t-53.5 22.5h-31z" />
    <glyph glyph-name="Softsigncyrillic" unicode="&#x42c;" 
d="M9 0l112 800h170l-35 -253h154q137 0 199 -52.5t48 -156.5l-17 -120q-16 -108 -93 -163t-214 -55h-324zM198 132h131q66 0 100.5 23t42.5 78l12 86q7 54 -21 76t-94 22h-131z" />
    <glyph glyph-name="Ereversedcyrillic" unicode="&#x42d;" 
d="M289 -10q-149 0 -212.5 66.5t-49.5 214.5l171 10q-6 -93 16 -126t93 -33q80 0 111 37.5t41 110.5l13 92h-185l18 132h185l5 31q11 82 -13.5 117.5t-96.5 35.5q-71 0 -102.5 -35t-51.5 -128l-168 10q28 150 109.5 217.5t230.5 67.5q151 0 217 -67.5t47 -202.5l-40 -284
q-19 -133 -103.5 -199.5t-234.5 -66.5z" />
    <glyph glyph-name="IUcyrillic" unicode="&#x42e;" 
d="M402 -10q-97 0 -137.5 61t-25.5 168l20 144h-79l-51 -363h-141l112 800h141l-43 -307h79l12 84q15 108 73.5 170.5t155.5 62.5q99 0 138.5 -62.5t24.5 -170.5l-50 -358q-15 -107 -72.5 -168t-156.5 -61zM420 121q33 0 47.5 24t21.5 74l50 358q7 51 -0.5 76.5t-40.5 25.5
q-32 0 -47 -25.5t-22 -76.5l-50 -358q-7 -50 1 -74t40 -24z" />
    <glyph glyph-name="IAcyrillic" unicode="&#x42f;" 
d="M338 420h130l35 248h-130q-64 0 -92.5 -21t-35.5 -74l-8 -55q-8 -54 14.5 -76t86.5 -22zM450 289h-88l-202 -289h-182l216 304q-72 20 -102.5 72.5t-18.5 136.5l10 69q15 108 87 163t199 55h322l-112 -800h-170z" />
    <glyph glyph-name="Gheupturncyrillic" unicode="&#x490;" 
d="M44 0l112 800h385l22 150h170l-40 -282h-385l-94 -668h-170z" />
    <glyph glyph-name="a" unicode="a" 
d="M240 100q37 0 72 11.5t67 33.5l14 97h-138q-34 0 -55 -15t-27 -59q-5 -33 10.5 -50.5t56.5 -17.5zM184 -10q-84 0 -132 45t-36 129q12 83 75.5 127t157.5 44h157l10 73q7 44 -16 62.5t-72 18.5q-51 0 -78 -18t-47 -71l-136 25q35 101 99.5 143t183.5 42
q125 0 184.5 -48.5t45.5 -148.5l-33 -232q-6 -43 17.5 -53.5t73.5 -3.5l-17 -121q-80 -17 -128.5 3t-55.5 87h-27q-37 -42 -97 -72.5t-129 -30.5z" />
    <glyph glyph-name="agrave" unicode="&#xe0;" 
d="M240 100q37 0 72 11.5t67 33.5l14 97h-138q-34 0 -55 -15t-27 -59q-5 -33 10.5 -50.5t56.5 -17.5zM184 -10q-84 0 -132 45t-36 129q12 83 75.5 127t157.5 44h157l10 73q7 44 -16 62.5t-72 18.5q-51 0 -78 -18t-47 -71l-136 25q35 101 99.5 143t183.5 42
q125 0 184.5 -48.5t45.5 -148.5l-33 -232q-6 -43 17.5 -53.5t73.5 -3.5l-17 -121q-80 -17 -128.5 3t-55.5 87h-27q-37 -42 -97 -72.5t-129 -30.5zM366 700l-188 200h220l87 -200h-119z" />
    <glyph glyph-name="aacute" unicode="&#xe1;" 
d="M240 100q37 0 72 11.5t67 33.5l14 97h-138q-34 0 -55 -15t-27 -59q-5 -33 10.5 -50.5t56.5 -17.5zM184 -10q-84 0 -132 45t-36 129q12 83 75.5 127t157.5 44h157l10 73q7 44 -16 62.5t-72 18.5q-51 0 -78 -18t-47 -71l-136 25q35 101 99.5 143t183.5 42
q125 0 184.5 -48.5t45.5 -148.5l-33 -232q-6 -43 17.5 -53.5t73.5 -3.5l-17 -121q-80 -17 -128.5 3t-55.5 87h-27q-37 -42 -97 -72.5t-129 -30.5zM251 700l143 200h220l-244 -200h-119z" />
    <glyph glyph-name="acircumflex" unicode="&#xe2;" 
d="M240 100q37 0 72 11.5t67 33.5l14 97h-138q-34 0 -55 -15t-27 -59q-5 -33 10.5 -50.5t56.5 -17.5zM184 -10q-84 0 -132 45t-36 129q12 83 75.5 127t157.5 44h157l10 73q7 44 -16 62.5t-72 18.5q-51 0 -78 -18t-47 -71l-136 25q35 101 99.5 143t183.5 42
q125 0 184.5 -48.5t45.5 -148.5l-33 -232q-6 -43 17.5 -53.5t73.5 -3.5l-17 -121q-80 -17 -128.5 3t-55.5 87h-27q-37 -42 -97 -72.5t-129 -30.5zM190 690l-44 78l203 156h128l161 -156l-65 -77l-178 108z" />
    <glyph glyph-name="atilde" unicode="&#xe3;" 
d="M240 100q37 0 72 11.5t67 33.5l14 97h-138q-34 0 -55 -15t-27 -59q-5 -33 10.5 -50.5t56.5 -17.5zM184 -10q-84 0 -132 45t-36 129q12 83 75.5 127t157.5 44h157l10 73q7 44 -16 62.5t-72 18.5q-51 0 -78 -18t-47 -71l-136 25q35 101 99.5 143t183.5 42
q125 0 184.5 -48.5t45.5 -148.5l-33 -232q-6 -43 17.5 -53.5t73.5 -3.5l-17 -121q-80 -17 -128.5 3t-55.5 87h-27q-37 -42 -97 -72.5t-129 -30.5zM472 710q-44 0 -67.5 16t-37.5 34q-14 19 -26 34.5t-31 15.5q-17 0 -32.5 -15.5t-20.5 -64.5l-2 -10h-112l2 15q12 81 59 135
t117 54q46 0 69.5 -15.5t37.5 -34.5t26 -35t29 -16t32 15.5t21 65.5l1 9h112l-2 -15q-11 -80 -58 -134t-117 -54z" />
    <glyph glyph-name="adieresis" unicode="&#xe4;" 
d="M240 100q37 0 72 11.5t67 33.5l14 97h-138q-34 0 -55 -15t-27 -59q-5 -33 10.5 -50.5t56.5 -17.5zM184 -10q-84 0 -132 45t-36 129q12 83 75.5 127t157.5 44h157l10 73q7 44 -16 62.5t-72 18.5q-51 0 -78 -18t-47 -71l-136 25q35 101 99.5 143t183.5 42
q125 0 184.5 -48.5t45.5 -148.5l-33 -232q-6 -43 17.5 -53.5t73.5 -3.5l-17 -121q-80 -17 -128.5 3t-55.5 87h-27q-37 -42 -97 -72.5t-129 -30.5zM253 696q-39 0 -61.5 15.5t-16.5 54.5l1 13q6 40 33 56.5t66 16.5q40 0 62 -16.5t16 -56.5l-1 -13q-6 -39 -33 -54.5
t-66 -15.5zM505 696q-40 0 -62.5 15.5t-16.5 54.5l1 13q6 40 33 56.5t67 16.5t61.5 -16.5t15.5 -56.5l-1 -13q-6 -39 -33 -54.5t-65 -15.5z" />
    <glyph glyph-name="aring" unicode="&#xe5;" 
d="M240 100q37 0 72 11.5t67 33.5l14 97h-138q-34 0 -55 -15t-27 -59q-5 -33 10.5 -50.5t56.5 -17.5zM184 -10q-84 0 -132 45t-36 129q12 83 75.5 127t157.5 44h157l10 73q7 44 -16 62.5t-72 18.5q-51 0 -78 -18t-47 -71l-136 25q35 101 99.5 143t183.5 42
q125 0 184.5 -48.5t45.5 -148.5l-33 -232q-6 -43 17.5 -53.5t73.5 -3.5l-17 -121q-80 -17 -128.5 3t-55.5 87h-27q-37 -42 -97 -72.5t-129 -30.5zM369 678q-87 0 -135.5 37t-37.5 115l4 32q11 78 70.5 116.5t146.5 38.5q88 0 136 -38.5t37 -116.5l-4 -32q-11 -78 -70.5 -115
t-146.5 -37zM381 763q37 0 58 15t27 52l4 32q5 36 -11.5 53t-53.5 17t-58.5 -17t-26.5 -53l-4 -32q-6 -37 11 -52t54 -15z" />
    <glyph glyph-name="amacron" unicode="&#x101;" 
d="M240 100q37 0 72 11.5t67 33.5l14 97h-138q-34 0 -55 -15t-27 -59q-5 -33 10.5 -50.5t56.5 -17.5zM184 -10q-84 0 -132 45t-36 129q12 83 75.5 127t157.5 44h157l10 73q7 44 -16 62.5t-72 18.5q-51 0 -78 -18t-47 -71l-136 25q35 101 99.5 143t183.5 42
q125 0 184.5 -48.5t45.5 -148.5l-33 -232q-6 -43 17.5 -53.5t73.5 -3.5l-17 -121q-80 -17 -128.5 3t-55.5 87h-27q-37 -42 -97 -72.5t-129 -30.5zM159 734l19 132h436l-19 -132h-436z" />
    <glyph glyph-name="abreve" unicode="&#x103;" 
d="M240 100q37 0 72 11.5t67 33.5l14 97h-138q-34 0 -55 -15t-27 -59q-5 -33 10.5 -50.5t56.5 -17.5zM184 -10q-84 0 -132 45t-36 129q12 83 75.5 127t157.5 44h157l10 73q7 44 -16 62.5t-72 18.5q-51 0 -78 -18t-47 -71l-136 25q35 101 99.5 143t183.5 42
q125 0 184.5 -48.5t45.5 -148.5l-33 -232q-6 -43 17.5 -53.5t73.5 -3.5l-17 -121q-80 -17 -128.5 3t-55.5 87h-27q-37 -42 -97 -72.5t-129 -30.5zM371 693q-124 0 -182 55.5t-42 175.5h142q-9 -69 14 -96.5t83 -27.5t91 27.5t42 96.5h142q-18 -120 -92 -175.5t-198 -55.5z
" />
    <glyph glyph-name="aogonek" unicode="&#x105;" 
d="M240 100q37 0 72 11.5t67 33.5l14 97h-138q-34 0 -55 -15t-27 -59q-5 -33 10.5 -50.5t56.5 -17.5zM184 -10q-84 0 -132 45t-36 129q12 83 75.5 127t157.5 44h157l10 73q7 44 -16 62.5t-72 18.5q-51 0 -78 -18t-47 -71l-136 25q35 101 99.5 143t183.5 42
q125 0 184.5 -48.5t45.5 -148.5l-33 -232q-6 -43 17.5 -53.5t73.5 -3.5l-17 -121q-80 -17 -128.5 3t-55.5 87h-27q-37 -42 -97 -72.5t-129 -30.5zM514 -221q-78 0 -120.5 31.5t-33.5 93.5q8 61 61.5 104.5t111.5 59.5l20 -45q-37 -21 -48.5 -41.5t-14.5 -39.5
q-4 -26 12.5 -39t54.5 -13q18 0 43 2.5t51 7.5l-15 -109q-32 -6 -63.5 -9t-58.5 -3z" />
    <glyph glyph-name="aringacute" unicode="&#x1fb;" 
d="M240 100q37 0 72 11.5t67 33.5l14 97h-138q-34 0 -55 -15t-27 -59q-5 -33 10.5 -50.5t56.5 -17.5zM184 -10q-84 0 -132 45t-36 129q12 83 75.5 127t157.5 44h157l10 73q7 44 -16 62.5t-72 18.5q-51 0 -78 -18t-47 -71l-136 25q35 101 99.5 143t183.5 42
q125 0 184.5 -48.5t45.5 -148.5l-33 -232q-6 -43 17.5 -53.5t73.5 -3.5l-17 -121q-80 -17 -128.5 3t-55.5 87h-27q-37 -42 -97 -72.5t-129 -30.5zM369 678q-87 0 -135.5 37t-37.5 115l4 32q11 78 70.5 116.5t146.5 38.5q88 0 136 -38.5t37 -116.5l-4 -32q-11 -78 -70.5 -115
t-146.5 -37zM381 763q37 0 58 15t27 52l4 32q5 36 -11.5 53t-53.5 17t-58.5 -17t-26.5 -53l-4 -32q-6 -37 11 -52t54 -15zM297 1000l143 200h220l-244 -200h-119z" />
    <glyph glyph-name="b" unicode="b" 
d="M286 -7q-69 0 -136 19t-125 55l103 733h170l-43 -307h30q32 57 83 87t113 30q82 0 121.5 -56t25.5 -152l-25 -183q-16 -110 -97.5 -168t-219.5 -58zM310 117q54 0 84.5 24t38.5 79l22 154q7 52 -12 77.5t-59 25.5q-34 0 -68.5 -17t-71.5 -50l-38 -265q25 -15 49.5 -21.5
t54.5 -6.5z" />
    <glyph glyph-name="c" unicode="c" 
d="M304 -10q-141 0 -207 60t-50 174l22 154q16 112 99 172t222 60q131 0 187 -57.5t54 -162.5l-166 -13q3 58 -19.5 82.5t-78.5 24.5q-60 0 -90 -26.5t-39 -89.5l-20 -137q-8 -63 15 -89.5t84 -26.5q56 0 84.5 20.5t39.5 67.5l162 -13q-21 -96 -88 -148t-211 -52z" />
    <glyph glyph-name="ccedilla" unicode="&#xe7;" 
d="M304 -10q-141 0 -207 60t-50 174l22 154q16 112 99 172t222 60q131 0 187 -57.5t54 -162.5l-166 -13q3 58 -19.5 82.5t-78.5 24.5q-60 0 -90 -26.5t-39 -89.5l-20 -137q-8 -63 15 -89.5t84 -26.5q56 0 84.5 20.5t39.5 67.5l162 -13q-21 -96 -88 -148t-211 -52zM295 0
l26 42q72 -8 118 -36t36 -95q-10 -72 -74 -103t-139 -31q-87 0 -138 29t-46 98l145 10q-1 -19 9.5 -26.5t36.5 -7.5q28 0 43.5 11t20.5 45q4 28 -4 42.5t-34 21.5z" />
    <glyph glyph-name="cacute" unicode="&#x107;" 
d="M304 -10q-141 0 -207 60t-50 174l22 154q16 112 99 172t222 60q131 0 187 -57.5t54 -162.5l-166 -13q3 58 -19.5 82.5t-78.5 24.5q-60 0 -90 -26.5t-39 -89.5l-20 -137q-8 -63 15 -89.5t84 -26.5q56 0 84.5 20.5t39.5 67.5l162 -13q-21 -96 -88 -148t-211 -52zM298 700
l143 200h220l-244 -200h-119z" />
    <glyph glyph-name="ccircumflex" unicode="&#x109;" 
d="M304 -10q-141 0 -207 60t-50 174l22 154q16 112 99 172t222 60q131 0 187 -57.5t54 -162.5l-166 -13q3 58 -19.5 82.5t-78.5 24.5q-60 0 -90 -26.5t-39 -89.5l-20 -137q-8 -63 15 -89.5t84 -26.5q56 0 84.5 20.5t39.5 67.5l162 -13q-21 -96 -88 -148t-211 -52zM209 690
l-44 78l203 156h128l161 -156l-65 -77l-178 108z" />
    <glyph glyph-name="cdotaccent" unicode="&#x10b;" 
d="M304 -10q-141 0 -207 60t-50 174l22 154q16 112 99 172t222 60q131 0 187 -57.5t54 -162.5l-166 -13q3 58 -19.5 82.5t-78.5 24.5q-60 0 -90 -26.5t-39 -89.5l-20 -137q-8 -63 15 -89.5t84 -26.5q56 0 84.5 20.5t39.5 67.5l162 -13q-21 -96 -88 -148t-211 -52zM398 696
q-51 0 -81 15.5t-24 54.5l1 13q6 40 40.5 56.5t85.5 16.5t80.5 -16.5t23.5 -56.5l-1 -13q-6 -39 -40 -54.5t-85 -15.5z" />
    <glyph glyph-name="ccaron" unicode="&#x10d;" 
d="M304 -10q-141 0 -207 60t-50 174l22 154q16 112 99 172t222 60q131 0 187 -57.5t54 -162.5l-166 -13q3 58 -19.5 82.5t-78.5 24.5q-60 0 -90 -26.5t-39 -89.5l-20 -137q-8 -63 15 -89.5t84 -26.5q56 0 84.5 20.5t39.5 67.5l162 -13q-21 -96 -88 -148t-211 -52zM336 704
l-161 156l65 77l178 -108l205 109l44 -78l-203 -156h-128z" />
    <glyph glyph-name="d" unicode="d" 
d="M288 124q34 0 68.5 16.5t72.5 49.5l37 265q-22 13 -48.5 21t-55.5 8q-54 0 -84.5 -26t-38.5 -78l-21 -154q-8 -52 11 -77t59 -25zM387 107q-32 -56 -83 -86.5t-112 -30.5q-86 0 -123.5 59.5t-24.5 148.5l26 183q15 107 89.5 166.5t192.5 59.5q36 0 70 -6t62 -18l30 217
h170l-112 -800h-170l15 107h-30z" />
    <glyph glyph-name="dcaron" unicode="&#x10f;" 
d="M288 124q34 0 68.5 16.5t72.5 49.5l37 265q-22 13 -48.5 21t-55.5 8q-54 0 -84.5 -26t-38.5 -78l-21 -154q-8 -52 11 -77t59 -25zM387 107q-32 -56 -83 -86.5t-112 -30.5q-86 0 -123.5 59.5t-24.5 148.5l26 183q15 107 89.5 166.5t192.5 59.5q36 0 70 -6t62 -18l30 217
h170l-112 -800h-170l15 107h-30zM711 705l101 295h217l-218 -295h-100z" />
    <glyph glyph-name="e" unicode="e" 
d="M602 139q-47 -84 -113 -116.5t-193 -32.5q-122 0 -193.5 57.5t-55.5 171.5l22 160q16 110 99.5 170.5t212.5 60.5t194.5 -60.5t49.5 -173.5l-16 -110h-386l-8 -57q-7 -51 16 -78.5t84 -27.5q51 0 86 15.5t63 59.5zM241 393l-5 -34h216l4 25q9 63 -11.5 90t-80.5 27
t-87.5 -25.5t-35.5 -82.5z" />
    <glyph glyph-name="egrave" unicode="&#xe8;" 
d="M602 139q-47 -84 -113 -116.5t-193 -32.5q-122 0 -193.5 57.5t-55.5 171.5l22 160q16 110 99.5 170.5t212.5 60.5t194.5 -60.5t49.5 -173.5l-16 -110h-386l-8 -57q-7 -51 16 -78.5t84 -27.5q51 0 86 15.5t63 59.5zM241 393l-5 -34h216l4 25q9 63 -11.5 90t-80.5 27
t-87.5 -25.5t-35.5 -82.5zM383 700l-188 200h220l87 -200h-119z" />
    <glyph glyph-name="eacute" unicode="&#xe9;" 
d="M602 139q-47 -84 -113 -116.5t-193 -32.5q-122 0 -193.5 57.5t-55.5 171.5l22 160q16 110 99.5 170.5t212.5 60.5t194.5 -60.5t49.5 -173.5l-16 -110h-386l-8 -57q-7 -51 16 -78.5t84 -27.5q51 0 86 15.5t63 59.5zM241 393l-5 -34h216l4 25q9 63 -11.5 90t-80.5 27
t-87.5 -25.5t-35.5 -82.5zM282 700l143 200h220l-244 -200h-119z" />
    <glyph glyph-name="ecircumflex" unicode="&#xea;" 
d="M602 139q-47 -84 -113 -116.5t-193 -32.5q-122 0 -193.5 57.5t-55.5 171.5l22 160q16 110 99.5 170.5t212.5 60.5t194.5 -60.5t49.5 -173.5l-16 -110h-386l-8 -57q-7 -51 16 -78.5t84 -27.5q51 0 86 15.5t63 59.5zM241 393l-5 -34h216l4 25q9 63 -11.5 90t-80.5 27
t-87.5 -25.5t-35.5 -82.5zM204 690l-44 78l203 156h128l161 -156l-65 -77l-178 108z" />
    <glyph glyph-name="edieresis" unicode="&#xeb;" 
d="M602 139q-47 -84 -113 -116.5t-193 -32.5q-122 0 -193.5 57.5t-55.5 171.5l22 160q16 110 99.5 170.5t212.5 60.5t194.5 -60.5t49.5 -173.5l-16 -110h-386l-8 -57q-7 -51 16 -78.5t84 -27.5q51 0 86 15.5t63 59.5zM241 393l-5 -34h216l4 25q9 63 -11.5 90t-80.5 27
t-87.5 -25.5t-35.5 -82.5zM270 696q-39 0 -61.5 15.5t-16.5 54.5l1 13q6 40 33 56.5t66 16.5q40 0 62 -16.5t16 -56.5l-1 -13q-6 -39 -33 -54.5t-66 -15.5zM522 696q-40 0 -62.5 15.5t-16.5 54.5l1 13q6 40 33 56.5t67 16.5t61.5 -16.5t15.5 -56.5l-1 -13q-6 -39 -33 -54.5
t-65 -15.5z" />
    <glyph glyph-name="emacron" unicode="&#x113;" 
d="M602 139q-47 -84 -113 -116.5t-193 -32.5q-122 0 -193.5 57.5t-55.5 171.5l22 160q16 110 99.5 170.5t212.5 60.5t194.5 -60.5t49.5 -173.5l-16 -110h-386l-8 -57q-7 -51 16 -78.5t84 -27.5q51 0 86 15.5t63 59.5zM241 393l-5 -34h216l4 25q9 63 -11.5 90t-80.5 27
t-87.5 -25.5t-35.5 -82.5zM183 734l19 132h436l-19 -132h-436z" />
    <glyph glyph-name="ebreve" unicode="&#x115;" 
d="M602 139q-47 -84 -113 -116.5t-193 -32.5q-122 0 -193.5 57.5t-55.5 171.5l22 160q16 110 99.5 170.5t212.5 60.5t194.5 -60.5t49.5 -173.5l-16 -110h-386l-8 -57q-7 -51 16 -78.5t84 -27.5q51 0 86 15.5t63 59.5zM241 393l-5 -34h216l4 25q9 63 -11.5 90t-80.5 27
t-87.5 -25.5t-35.5 -82.5zM388 693q-124 0 -182 55.5t-42 175.5h142q-9 -69 14 -96.5t83 -27.5t91 27.5t42 96.5h142q-18 -120 -92 -175.5t-198 -55.5z" />
    <glyph glyph-name="edotaccent" unicode="&#x117;" 
d="M602 139q-47 -84 -113 -116.5t-193 -32.5q-122 0 -193.5 57.5t-55.5 171.5l22 160q16 110 99.5 170.5t212.5 60.5t194.5 -60.5t49.5 -173.5l-16 -110h-386l-8 -57q-7 -51 16 -78.5t84 -27.5q51 0 86 15.5t63 59.5zM241 393l-5 -34h216l4 25q9 63 -11.5 90t-80.5 27
t-87.5 -25.5t-35.5 -82.5zM396 696q-51 0 -81 15.5t-24 54.5l1 13q6 40 40.5 56.5t85.5 16.5t80.5 -16.5t23.5 -56.5l-1 -13q-6 -39 -40 -54.5t-85 -15.5z" />
    <glyph glyph-name="eogonek" unicode="&#x119;" 
d="M409 -221q-78 0 -120.5 31.5t-33.5 93.5q8 61 61.5 104.5t111.5 59.5l20 -45q-37 -21 -48.5 -41.5t-14.5 -39.5q-4 -26 12.5 -39t54.5 -13q18 0 43 2.5t51 7.5l-15 -109q-32 -6 -63.5 -9t-58.5 -3zM602 139q-47 -84 -113 -116.5t-193 -32.5q-122 0 -193.5 57.5
t-55.5 171.5l22 160q16 110 99.5 170.5t212.5 60.5t194.5 -60.5t49.5 -173.5l-16 -110h-386l-8 -57q-7 -51 16 -78.5t84 -27.5q51 0 86 15.5t63 59.5zM241 393l-5 -34h216l4 25q9 63 -11.5 90t-80.5 27t-87.5 -25.5t-35.5 -82.5z" />
    <glyph glyph-name="ecaron" unicode="&#x11b;" 
d="M602 139q-47 -84 -113 -116.5t-193 -32.5q-122 0 -193.5 57.5t-55.5 171.5l22 160q16 110 99.5 170.5t212.5 60.5t194.5 -60.5t49.5 -173.5l-16 -110h-386l-8 -57q-7 -51 16 -78.5t84 -27.5q51 0 86 15.5t63 59.5zM241 393l-5 -34h216l4 25q9 63 -11.5 90t-80.5 27
t-87.5 -25.5t-35.5 -82.5zM334 704l-161 156l65 77l178 -108l205 109l44 -78l-203 -156h-128z" />
    <glyph glyph-name="f" unicode="f" 
d="M145 -200l95 675h-163l17 125h163l5 34q13 90 90 143t188 53q41 0 82 -5.5t75 -18.5l-36 -113q-30 10 -61 14.5t-59 4.5q-46 0 -75 -20.5t-36 -69.5l-3 -22h229l-17 -125h-229l-95 -675h-170z" />
    <glyph glyph-name="g" unicode="g" 
d="M603 -33q-11 -81 -79.5 -129t-169.5 -48h-177q-110 0 -162.5 39.5t-44.5 102.5q7 50 42 80t82 35l2 20q-34 10 -56 33t-15 71q7 52 48 86.5t102 41.5l3 19q-49 14 -70 44.5t-15 70.5l1 9q11 75 81 116.5t170 41.5h340l-14 -104l-159 20l-3 -20q35 -10 54.5 -38.5
t15.5 -62.5l-2 -11q-10 -72 -80 -112.5t-174 -40.5h-98q-31 0 -50 -11.5t-23 -39.5q-3 -27 14.5 -39t51.5 -12h191q98 0 152 -39.5t42 -122.5zM323 317q46 0 70.5 18.5t29.5 52.5l6 44q4 32 -15.5 50t-65.5 18t-70.5 -18t-28.5 -50l-6 -44q-5 -34 13.5 -52.5t66.5 -18.5z
M193 -109h179q36 0 60.5 11.5t29.5 46.5t-16 46.5t-55 11.5h-248l-7 -53q-5 -31 9.5 -47t47.5 -16z" />
    <glyph glyph-name="gcircumflex" unicode="&#x11d;" 
d="M603 -33q-11 -81 -79.5 -129t-169.5 -48h-177q-110 0 -162.5 39.5t-44.5 102.5q7 50 42 80t82 35l2 20q-34 10 -56 33t-15 71q7 52 48 86.5t102 41.5l3 19q-49 14 -70 44.5t-15 70.5l1 9q11 75 81 116.5t170 41.5h340l-14 -104l-159 20l-3 -20q35 -10 54.5 -38.5
t15.5 -62.5l-2 -11q-10 -72 -80 -112.5t-174 -40.5h-98q-31 0 -50 -11.5t-23 -39.5q-3 -27 14.5 -39t51.5 -12h191q98 0 152 -39.5t42 -122.5zM323 317q46 0 70.5 18.5t29.5 52.5l6 44q4 32 -15.5 50t-65.5 18t-70.5 -18t-28.5 -50l-6 -44q-5 -34 13.5 -52.5t66.5 -18.5z
M193 -109h179q36 0 60.5 11.5t29.5 46.5t-16 46.5t-55 11.5h-248l-7 -53q-5 -31 9.5 -47t47.5 -16zM204 690l-44 78l203 156h128l161 -156l-65 -77l-178 108z" />
    <glyph glyph-name="gbreve" unicode="&#x11f;" 
d="M603 -33q-11 -81 -79.5 -129t-169.5 -48h-177q-110 0 -162.5 39.5t-44.5 102.5q7 50 42 80t82 35l2 20q-34 10 -56 33t-15 71q7 52 48 86.5t102 41.5l3 19q-49 14 -70 44.5t-15 70.5l1 9q11 75 81 116.5t170 41.5h340l-14 -104l-159 20l-3 -20q35 -10 54.5 -38.5
t15.5 -62.5l-2 -11q-10 -72 -80 -112.5t-174 -40.5h-98q-31 0 -50 -11.5t-23 -39.5q-3 -27 14.5 -39t51.5 -12h191q98 0 152 -39.5t42 -122.5zM323 317q46 0 70.5 18.5t29.5 52.5l6 44q4 32 -15.5 50t-65.5 18t-70.5 -18t-28.5 -50l-6 -44q-5 -34 13.5 -52.5t66.5 -18.5z
M193 -109h179q36 0 60.5 11.5t29.5 46.5t-16 46.5t-55 11.5h-248l-7 -53q-5 -31 9.5 -47t47.5 -16zM391 693q-124 0 -182 55.5t-42 175.5h142q-9 -69 14 -96.5t83 -27.5t91 27.5t42 96.5h142q-18 -120 -92 -175.5t-198 -55.5z" />
    <glyph glyph-name="gdotaccent" unicode="&#x121;" 
d="M603 -33q-11 -81 -79.5 -129t-169.5 -48h-177q-110 0 -162.5 39.5t-44.5 102.5q7 50 42 80t82 35l2 20q-34 10 -56 33t-15 71q7 52 48 86.5t102 41.5l3 19q-49 14 -70 44.5t-15 70.5l1 9q11 75 81 116.5t170 41.5h340l-14 -104l-159 20l-3 -20q35 -10 54.5 -38.5
t15.5 -62.5l-2 -11q-10 -72 -80 -112.5t-174 -40.5h-98q-31 0 -50 -11.5t-23 -39.5q-3 -27 14.5 -39t51.5 -12h191q98 0 152 -39.5t42 -122.5zM323 317q46 0 70.5 18.5t29.5 52.5l6 44q4 32 -15.5 50t-65.5 18t-70.5 -18t-28.5 -50l-6 -44q-5 -34 13.5 -52.5t66.5 -18.5z
M193 -109h179q36 0 60.5 11.5t29.5 46.5t-16 46.5t-55 11.5h-248l-7 -53q-5 -31 9.5 -47t47.5 -16zM392 696q-51 0 -81 15.5t-24 54.5l1 13q6 40 40.5 56.5t85.5 16.5t80.5 -16.5t23.5 -56.5l-1 -13q-6 -39 -40 -54.5t-85 -15.5z" />
    <glyph glyph-name="gcommaaccent" unicode="&#x123;" 
d="M603 -33q-11 -81 -79.5 -129t-169.5 -48h-177q-110 0 -162.5 39.5t-44.5 102.5q7 50 42 80t82 35l2 20q-34 10 -56 33t-15 71q7 52 48 86.5t102 41.5l3 19q-49 14 -70 44.5t-15 70.5l1 9q11 75 81 116.5t170 41.5h340l-14 -104l-159 20l-3 -20q35 -10 54.5 -38.5
t15.5 -62.5l-2 -11q-10 -72 -80 -112.5t-174 -40.5h-98q-31 0 -50 -11.5t-23 -39.5q-3 -27 14.5 -39t51.5 -12h191q98 0 152 -39.5t42 -122.5zM323 317q46 0 70.5 18.5t29.5 52.5l6 44q4 32 -15.5 50t-65.5 18t-70.5 -18t-28.5 -50l-6 -44q-5 -34 13.5 -52.5t66.5 -18.5z
M193 -109h179q36 0 60.5 11.5t29.5 46.5t-16 46.5t-55 11.5h-248l-7 -53q-5 -31 9.5 -47t47.5 -16zM270 700l204 200h119l-103 -200h-220z" />
    <glyph glyph-name="h" unicode="h" 
d="M16 0l112 800h170l-43 -307h30q32 55 84.5 86t113.5 31q80 0 120 -51t28 -137l-59 -422h-170l53 377q7 49 -9.5 74.5t-53.5 25.5q-34 0 -73.5 -24.5t-78.5 -67.5l-54 -385h-170z" />
    <glyph glyph-name="hcircumflex" unicode="&#x125;" 
d="M16 0l112 800h170l-43 -307h30q32 55 84.5 86t113.5 31q80 0 120 -51t28 -137l-59 -422h-170l53 377q7 49 -9.5 74.5t-53.5 25.5q-34 0 -73.5 -24.5t-78.5 -67.5l-54 -385h-170zM37 890l-44 78l203 156h128l161 -156l-65 -77l-178 108z" />
    <glyph glyph-name="i" unicode="i" 
d="M23 0l18 125h186l49 350h-186l17 125h356l-66 -475h186l-18 -125h-542zM400 696q-51 0 -81 15.5t-24 54.5l1 13q6 40 40.5 56.5t85.5 16.5t80.5 -16.5t23.5 -56.5l-1 -13q-6 -39 -40 -54.5t-85 -15.5z" />
    <glyph glyph-name="igrave" unicode="&#xec;" 
d="M23 0l18 125h186l49 350h-186l17 125h356l-66 -475h186l-18 -125h-542zM393 700l-188 200h220l87 -200h-119z" />
    <glyph glyph-name="iacute" unicode="&#xed;" 
d="M23 0l18 125h186l49 350h-186l17 125h356l-66 -475h186l-18 -125h-542zM264 700l143 200h220l-244 -200h-119z" />
    <glyph glyph-name="icircumflex" unicode="&#xee;" 
d="M23 0l18 125h186l49 350h-186l17 125h356l-66 -475h186l-18 -125h-542zM200 690l-44 78l203 156h128l161 -156l-65 -77l-178 108z" />
    <glyph glyph-name="idieresis" unicode="&#xef;" 
d="M23 0l18 125h186l49 350h-186l17 125h356l-66 -475h186l-18 -125h-542zM266 696q-39 0 -61.5 15.5t-16.5 54.5l1 13q6 40 33 56.5t66 16.5q40 0 62 -16.5t16 -56.5l-1 -13q-6 -39 -33 -54.5t-66 -15.5zM518 696q-40 0 -62.5 15.5t-16.5 54.5l1 13q6 40 33 56.5t67 16.5
t61.5 -16.5t15.5 -56.5l-1 -13q-6 -39 -33 -54.5t-65 -15.5z" />
    <glyph glyph-name="itilde" unicode="&#x129;" 
d="M23 0l18 125h186l49 350h-186l17 125h356l-66 -475h186l-18 -125h-542zM485 710q-44 0 -67.5 16t-37.5 34q-14 19 -26 34.5t-31 15.5q-17 0 -32.5 -15.5t-20.5 -64.5l-2 -10h-112l2 15q12 81 59 135t117 54q46 0 69.5 -15.5t37.5 -34.5t26 -35t29 -16t32 15.5t21 65.5
l1 9h112l-2 -15q-11 -80 -58 -134t-117 -54z" />
    <glyph glyph-name="imacron" unicode="&#x12b;" 
d="M23 0l18 125h186l49 350h-186l17 125h356l-66 -475h186l-18 -125h-542zM179 734l19 132h436l-19 -132h-436z" />
    <glyph glyph-name="ibreve" unicode="&#x12d;" 
d="M23 0l18 125h186l49 350h-186l17 125h356l-66 -475h186l-18 -125h-542zM391 693q-124 0 -182 55.5t-42 175.5h142q-9 -69 14 -96.5t83 -27.5t91 27.5t42 96.5h142q-18 -120 -92 -175.5t-198 -55.5z" />
    <glyph glyph-name="iogonek" unicode="&#x12f;" 
d="M400 696q-51 0 -81 15.5t-24 54.5l1 13q6 40 40.5 56.5t85.5 16.5t80.5 -16.5t23.5 -56.5l-1 -13q-6 -39 -40 -54.5t-85 -15.5zM23 0l18 125h186l49 350h-186l17 125h356l-66 -475h186l-18 -125h-542zM338 -221q-78 0 -120.5 31.5t-33.5 93.5q8 61 61.5 104.5t111.5 59.5
l20 -45q-37 -21 -48.5 -41.5t-14.5 -39.5q-4 -26 12.5 -39t54.5 -13q18 0 43 2.5t51 7.5l-15 -109q-32 -6 -63.5 -9t-58.5 -3z" />
    <glyph glyph-name="j" unicode="j" 
d="M159 -209q-44 0 -88.5 4.5t-86.5 17.5l36 117q37 -12 71 -16t65 -4q62 0 101 24t47 79l65 462h-258l17 125h428l-84 -603q-14 -99 -98.5 -152.5t-214.5 -53.5zM477 696q-51 0 -81 15.5t-24 54.5l1 13q6 40 40.5 56.5t85.5 16.5t80.5 -16.5t23.5 -56.5l-1 -13
q-6 -39 -40 -54.5t-85 -15.5z" />
    <glyph glyph-name="jcircumflex" unicode="&#x135;" 
d="M159 -209q-44 0 -88.5 4.5t-86.5 17.5l36 117q37 -12 71 -16t65 -4q62 0 101 24t47 79l65 462h-258l17 125h428l-84 -603q-14 -99 -98.5 -152.5t-214.5 -53.5zM258 690l-44 78l203 156h128l161 -156l-65 -77l-178 108z" />
    <glyph glyph-name="k" unicode="k" 
d="M244 253l-36 -253h-170l112 800h170l-60 -430h41l197 230h180l-242 -272l155 -328h-183l-123 253h-41z" />
    <glyph glyph-name="kcommaaccent" unicode="&#x137;" 
d="M244 253l-36 -253h-170l112 800h170l-60 -430h41l197 230h180l-242 -272l155 -328h-183l-123 253h-41zM111 -300l103 200h220l-204 -200h-119z" />
    <glyph glyph-name="l" unicode="l" 
d="M30 0l18 125h193l77 550h-193l17 125h363l-94 -675h186l-18 -125h-549z" />
    <glyph glyph-name="lacute" unicode="&#x13a;" 
d="M30 0l18 125h193l77 550h-193l17 125h363l-94 -675h186l-18 -125h-549zM265 900l143 200h220l-244 -200h-119z" />
    <glyph glyph-name="lcommaaccent" unicode="&#x13c;" 
d="M30 0l18 125h193l77 550h-193l17 125h363l-94 -675h186l-18 -125h-549zM79 -300l103 200h220l-204 -200h-119z" />
    <glyph glyph-name="lcaron" unicode="&#x13e;" 
d="M30 0l18 125h193l77 550h-193l17 125h363l-94 -675h186l-18 -125h-549zM546 705l101 295h217l-218 -295h-100z" />
    <glyph glyph-name="m" unicode="m" 
d="M189 426l-60 -426h-141l84 600h140l-11 -80h27q25 42 55 64.5t64 22.5t57 -22t27 -65h26q23 42 57 64.5t74 22.5q45 0 65.5 -38.5t11.5 -102.5l-65 -466h-141l61 437q4 29 -1 44.5t-19 15.5q-15 0 -35.5 -18.5t-41.5 -52.5l-60 -426h-138l61 437q4 29 -1.5 44.5
t-19.5 15.5q-15 0 -35 -18.5t-41 -52.5z" />
    <glyph glyph-name="n" unicode="n" 
d="M16 0l84 600h170l-15 -107h30q31 55 85.5 86t119.5 31q79 0 116.5 -50t24.5 -138l-59 -422h-170l55 391q6 42 -11 64t-54 22q-34 0 -74.5 -20t-75.5 -58l-56 -399h-170z" />
    <glyph glyph-name="ntilde" unicode="&#xf1;" 
d="M16 0l84 600h170l-15 -107h30q31 55 85.5 86t119.5 31q79 0 116.5 -50t24.5 -138l-59 -422h-170l55 391q6 42 -11 64t-54 22q-34 0 -74.5 -20t-75.5 -58l-56 -399h-170zM505 710q-44 0 -67.5 16t-37.5 34q-14 19 -26 34.5t-31 15.5q-17 0 -32.5 -15.5t-20.5 -64.5l-2 -10
h-112l2 15q12 81 59 135t117 54q46 0 69.5 -15.5t37.5 -34.5t26 -35t29 -16t32 15.5t21 65.5l1 9h112l-2 -15q-11 -80 -58 -134t-117 -54z" />
    <glyph glyph-name="nacute" unicode="&#x144;" 
d="M16 0l84 600h170l-15 -107h30q31 55 85.5 86t119.5 31q79 0 116.5 -50t24.5 -138l-59 -422h-170l55 391q6 42 -11 64t-54 22q-34 0 -74.5 -20t-75.5 -58l-56 -399h-170zM284 700l143 200h220l-244 -200h-119z" />
    <glyph glyph-name="ncommaaccent" unicode="&#x146;" 
d="M97 -300l103 200h220l-204 -200h-119zM16 0l84 600h170l-15 -107h30q31 55 85.5 86t119.5 31q79 0 116.5 -50t24.5 -138l-59 -422h-170l55 391q6 42 -11 64t-54 22q-34 0 -74.5 -20t-75.5 -58l-56 -399h-170z" />
    <glyph glyph-name="ncaron" unicode="&#x148;" 
d="M16 0l84 600h170l-15 -107h30q31 55 85.5 86t119.5 31q79 0 116.5 -50t24.5 -138l-59 -422h-170l55 391q6 42 -11 64t-54 22q-34 0 -74.5 -20t-75.5 -58l-56 -399h-170zM350 704l-161 156l65 77l178 -108l205 109l44 -78l-203 -156h-128z" />
    <glyph glyph-name="o" unicode="o" 
d="M293 -10q-131 0 -196.5 60t-50.5 167l23 162q16 109 98 170t214 61q131 0 195 -62t49 -172l-23 -162q-15 -106 -96.5 -165t-212.5 -59zM310 115q56 0 85.5 26t37.5 83l21 149q9 58 -13.5 85t-78.5 27t-85.5 -27t-37.5 -84l-21 -146q-8 -59 14 -86t78 -27z" />
    <glyph glyph-name="ograve" unicode="&#xf2;" 
d="M293 -10q-131 0 -196.5 60t-50.5 167l23 162q16 109 98 170t214 61q131 0 195 -62t49 -172l-23 -162q-15 -106 -96.5 -165t-212.5 -59zM310 115q56 0 85.5 26t37.5 83l21 149q9 58 -13.5 85t-78.5 27t-85.5 -27t-37.5 -84l-21 -146q-8 -59 14 -86t78 -27zM379 700
l-188 200h220l87 -200h-119z" />
    <glyph glyph-name="oacute" unicode="&#xf3;" 
d="M293 -10q-131 0 -196.5 60t-50.5 167l23 162q16 109 98 170t214 61q131 0 195 -62t49 -172l-23 -162q-15 -106 -96.5 -165t-212.5 -59zM310 115q56 0 85.5 26t37.5 83l21 149q9 58 -13.5 85t-78.5 27t-85.5 -27t-37.5 -84l-21 -146q-8 -59 14 -86t78 -27zM264 700
l143 200h220l-244 -200h-119z" />
    <glyph glyph-name="ocircumflex" unicode="&#xf4;" 
d="M293 -10q-131 0 -196.5 60t-50.5 167l23 162q16 109 98 170t214 61q131 0 195 -62t49 -172l-23 -162q-15 -106 -96.5 -165t-212.5 -59zM310 115q56 0 85.5 26t37.5 83l21 149q9 58 -13.5 85t-78.5 27t-85.5 -27t-37.5 -84l-21 -146q-8 -59 14 -86t78 -27zM200 690l-44 78
l203 156h128l161 -156l-65 -77l-178 108z" />
    <glyph glyph-name="otilde" unicode="&#xf5;" 
d="M293 -10q-131 0 -196.5 60t-50.5 167l23 162q16 109 98 170t214 61q131 0 195 -62t49 -172l-23 -162q-15 -106 -96.5 -165t-212.5 -59zM310 115q56 0 85.5 26t37.5 83l21 149q9 58 -13.5 85t-78.5 27t-85.5 -27t-37.5 -84l-21 -146q-8 -59 14 -86t78 -27zM485 710
q-44 0 -67.5 16t-37.5 34q-14 19 -26 34.5t-31 15.5q-17 0 -32.5 -15.5t-20.5 -64.5l-2 -10h-112l2 15q12 81 59 135t117 54q46 0 69.5 -15.5t37.5 -34.5t26 -35t29 -16t32 15.5t21 65.5l1 9h112l-2 -15q-11 -80 -58 -134t-117 -54z" />
    <glyph glyph-name="odieresis" unicode="&#xf6;" 
d="M293 -10q-131 0 -196.5 60t-50.5 167l23 162q16 109 98 170t214 61q131 0 195 -62t49 -172l-23 -162q-15 -106 -96.5 -165t-212.5 -59zM310 115q56 0 85.5 26t37.5 83l21 149q9 58 -13.5 85t-78.5 27t-85.5 -27t-37.5 -84l-21 -146q-8 -59 14 -86t78 -27zM266 696
q-39 0 -61.5 15.5t-16.5 54.5l1 13q6 40 33 56.5t66 16.5q40 0 62 -16.5t16 -56.5l-1 -13q-6 -39 -33 -54.5t-66 -15.5zM518 696q-40 0 -62.5 15.5t-16.5 54.5l1 13q6 40 33 56.5t67 16.5t61.5 -16.5t15.5 -56.5l-1 -13q-6 -39 -33 -54.5t-65 -15.5z" />
    <glyph glyph-name="omacron" unicode="&#x14d;" 
d="M293 -10q-131 0 -196.5 60t-50.5 167l23 162q16 109 98 170t214 61q131 0 195 -62t49 -172l-23 -162q-15 -106 -96.5 -165t-212.5 -59zM310 115q56 0 85.5 26t37.5 83l21 149q9 58 -13.5 85t-78.5 27t-85.5 -27t-37.5 -84l-21 -146q-8 -59 14 -86t78 -27zM179 734l19 132
h436l-19 -132h-436z" />
    <glyph glyph-name="obreve" unicode="&#x14f;" 
d="M293 -10q-131 0 -196.5 60t-50.5 167l23 162q16 109 98 170t214 61q131 0 195 -62t49 -172l-23 -162q-15 -106 -96.5 -165t-212.5 -59zM310 115q56 0 85.5 26t37.5 83l21 149q9 58 -13.5 85t-78.5 27t-85.5 -27t-37.5 -84l-21 -146q-8 -59 14 -86t78 -27zM398 693
q-124 0 -182 55.5t-42 175.5h142q-9 -69 14 -96.5t83 -27.5t91 27.5t42 96.5h142q-18 -120 -92 -175.5t-198 -55.5z" />
    <glyph glyph-name="ohungarumlaut" unicode="&#x151;" 
d="M293 -10q-131 0 -196.5 60t-50.5 167l23 162q16 109 98 170t214 61q131 0 195 -62t49 -172l-23 -162q-15 -106 -96.5 -165t-212.5 -59zM310 115q56 0 85.5 26t37.5 83l21 149q9 58 -13.5 85t-78.5 27t-85.5 -27t-37.5 -84l-21 -146q-8 -59 14 -86t78 -27zM441 700l77 200
h175l-160 -200h-92zM211 700l77 200h175l-160 -200h-92z" />
    <glyph glyph-name="p" unicode="p" 
d="M310 117q54 0 84.5 24t38.5 79l22 155q7 52 -11.5 77t-59.5 25q-35 0 -68.5 -16.5t-71.5 -50.5l-37 -264q23 -15 46.5 -22t56.5 -7zM320 -7q-34 0 -68.5 6t-63.5 18l-30 -217h-170l112 800h170l-15 -107h30q31 54 83.5 85.5t112.5 31.5q81 0 121 -56t26 -152l-25 -183
q-15 -104 -91 -165t-192 -61z" />
    <glyph glyph-name="q" unicode="q" 
d="M374 -200l43 307h-30q-28 -49 -77 -83t-118 -34q-87 0 -124 59t-24 149l26 183q15 109 99 167.5t217 58.5q68 0 143.5 -15t119.5 -43l-105 -749h-170zM288 124q34 0 68 16t73 50l37 265q-20 13 -45 21t-59 8q-49 0 -82 -24.5t-41 -79.5l-21 -151q-7 -54 11.5 -79.5
t58.5 -25.5z" />
    <glyph glyph-name="r" unicode="r" 
d="M45 0l84 600h170l-15 -107h30q31 62 81.5 89.5t114.5 27.5q75 0 109.5 -44.5t23.5 -125.5l-15 -105h-155l8 54q6 42 -9.5 65t-59.5 23q-38 0 -74 -18t-67 -60l-56 -399h-170z" />
    <glyph glyph-name="racute" unicode="&#x155;" 
d="M45 0l84 600h170l-15 -107h30q31 62 81.5 89.5t114.5 27.5q75 0 109.5 -44.5t23.5 -125.5l-15 -105h-155l8 54q6 42 -9.5 65t-59.5 23q-38 0 -74 -18t-67 -60l-56 -399h-170zM294 700l143 200h220l-244 -200h-119z" />
    <glyph glyph-name="rcommaaccent" unicode="&#x157;" 
d="M45 0l84 600h170l-15 -107h30q31 62 81.5 89.5t114.5 27.5q75 0 109.5 -44.5t23.5 -125.5l-15 -105h-155l8 54q6 42 -9.5 65t-59.5 23q-38 0 -74 -18t-67 -60l-56 -399h-170zM-56 -300l103 200h220l-204 -200h-119z" />
    <glyph glyph-name="rcaron" unicode="&#x159;" 
d="M45 0l84 600h170l-15 -107h30q31 62 81.5 89.5t114.5 27.5q75 0 109.5 -44.5t23.5 -125.5l-15 -105h-155l8 54q6 42 -9.5 65t-59.5 23q-38 0 -74 -18t-67 -60l-56 -399h-170zM360 704l-161 156l65 77l178 -108l205 109l44 -78l-203 -156h-128z" />
    <glyph glyph-name="s" unicode="s" 
d="M296 -7q-78 0 -151 21t-125 60l60 107q52 -37 115.5 -56.5t120.5 -19.5q46 0 75 14.5t34 48.5q5 35 -19.5 50.5t-89.5 22.5q-120 13 -180 50.5t-48 124.5q13 91 90.5 142.5t189.5 51.5q64 0 128.5 -19.5t114.5 -54.5l-52 -102q-50 31 -101 47.5t-100 16.5q-41 0 -67 -15
t-31 -47q-5 -35 26 -48.5t105 -23.5q115 -14 165.5 -56t39.5 -122q-13 -92 -94 -142.5t-206 -50.5z" />
    <glyph glyph-name="sacute" unicode="&#x15b;" 
d="M296 -7q-78 0 -151 21t-125 60l60 107q52 -37 115.5 -56.5t120.5 -19.5q46 0 75 14.5t34 48.5q5 35 -19.5 50.5t-89.5 22.5q-120 13 -180 50.5t-48 124.5q13 91 90.5 142.5t189.5 51.5q64 0 128.5 -19.5t114.5 -54.5l-52 -102q-50 31 -101 47.5t-100 16.5q-41 0 -67 -15
t-31 -47q-5 -35 26 -48.5t105 -23.5q115 -14 165.5 -56t39.5 -122q-13 -92 -94 -142.5t-206 -50.5zM269 700l143 200h220l-244 -200h-119z" />
    <glyph glyph-name="scircumflex" unicode="&#x15d;" 
d="M296 -7q-78 0 -151 21t-125 60l60 107q52 -37 115.5 -56.5t120.5 -19.5q46 0 75 14.5t34 48.5q5 35 -19.5 50.5t-89.5 22.5q-120 13 -180 50.5t-48 124.5q13 91 90.5 142.5t189.5 51.5q64 0 128.5 -19.5t114.5 -54.5l-52 -102q-50 31 -101 47.5t-100 16.5q-41 0 -67 -15
t-31 -47q-5 -35 26 -48.5t105 -23.5q115 -14 165.5 -56t39.5 -122q-13 -92 -94 -142.5t-206 -50.5zM198 690l-44 78l203 156h128l161 -156l-65 -77l-178 108z" />
    <glyph glyph-name="scedilla" unicode="&#x15f;" 
d="M296 -7q-78 0 -151 21t-125 60l60 107q52 -37 115.5 -56.5t120.5 -19.5q46 0 75 14.5t34 48.5q5 35 -19.5 50.5t-89.5 22.5q-120 13 -180 50.5t-48 124.5q13 91 90.5 142.5t189.5 51.5q64 0 128.5 -19.5t114.5 -54.5l-52 -102q-50 31 -101 47.5t-100 16.5q-41 0 -67 -15
t-31 -47q-5 -35 26 -48.5t105 -23.5q115 -14 165.5 -56t39.5 -122q-13 -92 -94 -142.5t-206 -50.5zM255 0l26 42q72 -8 118 -36t36 -95q-10 -72 -74 -103t-139 -31q-87 0 -138 29t-46 98l145 10q-1 -19 9.5 -26.5t36.5 -7.5q28 0 43.5 11t20.5 45q4 28 -4 42.5t-34 21.5z
" />
    <glyph glyph-name="scaron" unicode="&#x161;" 
d="M296 -7q-78 0 -151 21t-125 60l60 107q52 -37 115.5 -56.5t120.5 -19.5q46 0 75 14.5t34 48.5q5 35 -19.5 50.5t-89.5 22.5q-120 13 -180 50.5t-48 124.5q13 91 90.5 142.5t189.5 51.5q64 0 128.5 -19.5t114.5 -54.5l-52 -102q-50 31 -101 47.5t-100 16.5q-41 0 -67 -15
t-31 -47q-5 -35 26 -48.5t105 -23.5q115 -14 165.5 -56t39.5 -122q-13 -92 -94 -142.5t-206 -50.5zM328 704l-161 156l65 77l178 -108l205 109l44 -78l-203 -156h-128z" />
    <glyph glyph-name="scommaaccent" unicode="&#x219;" 
d="M296 -7q-78 0 -151 21t-125 60l60 107q52 -37 115.5 -56.5t120.5 -19.5q46 0 75 14.5t34 48.5q5 35 -19.5 50.5t-89.5 22.5q-120 13 -180 50.5t-48 124.5q13 91 90.5 142.5t189.5 51.5q64 0 128.5 -19.5t114.5 -54.5l-52 -102q-50 31 -101 47.5t-100 16.5q-41 0 -67 -15
t-31 -47q-5 -35 26 -48.5t105 -23.5q115 -14 165.5 -56t39.5 -122q-13 -92 -94 -142.5t-206 -50.5zM84 -300l103 200h220l-204 -200h-119z" />
    <glyph glyph-name="t" unicode="t" 
d="M400 -10q-117 0 -173.5 54.5t-41.5 158.5l38 272h-149l17 125h149l28 200h170l-28 -200h232l-17 -125h-232l-35 -250q-8 -57 14 -82.5t68 -25.5q28 0 60.5 4t65.5 16l3 -123q-25 -10 -70 -17t-99 -7z" />
    <glyph glyph-name="tcedilla" unicode="&#x163;" 
d="M400 -10q-117 0 -173.5 54.5t-41.5 158.5l38 272h-149l17 125h149l28 200h170l-28 -200h232l-17 -125h-232l-35 -250q-8 -57 14 -82.5t68 -25.5q28 0 60.5 4t65.5 16l3 -123q-25 -10 -70 -17t-99 -7zM314 0l26 42q72 -8 118 -36t36 -95q-10 -72 -74 -103t-139 -31
q-87 0 -138 29t-46 98l145 10q-1 -19 9.5 -26.5t36.5 -7.5q28 0 43.5 11t20.5 45q4 28 -4 42.5t-34 21.5z" />
    <glyph glyph-name="tcaron" unicode="&#x165;" 
d="M400 -10q-117 0 -173.5 54.5t-41.5 158.5l38 272h-149l17 125h149l28 200h170l-28 -200h232l-17 -125h-232l-35 -250q-8 -57 14 -82.5t68 -25.5q28 0 60.5 4t65.5 16l3 -123q-25 -10 -70 -17t-99 -7zM493 705l101 295h217l-218 -295h-100z" />
    <glyph glyph-name="tcommaaccent" unicode="&#x21b;" 
d="M400 -10q-117 0 -173.5 54.5t-41.5 158.5l38 272h-149l17 125h149l28 200h170l-28 -200h232l-17 -125h-232l-35 -250q-8 -57 14 -82.5t68 -25.5q28 0 60.5 4t65.5 16l3 -123q-25 -10 -70 -17t-99 -7zM118 -300l103 200h220l-204 -200h-119z" />
    <glyph glyph-name="u" unicode="u" 
d="M190 -10q-74 0 -118 49t-31 139l59 422h170l-53 -377q-7 -49 9.5 -74t53.5 -25q35 0 74 24t78 67l54 385h170l-84 -600h-170l15 107h-30q-33 -60 -89.5 -88.5t-107.5 -28.5z" />
    <glyph glyph-name="ugrave" unicode="&#xf9;" 
d="M190 -10q-74 0 -118 49t-31 139l59 422h170l-53 -377q-7 -49 9.5 -74t53.5 -25q35 0 74 24t78 67l54 385h170l-84 -600h-170l15 107h-30q-33 -60 -89.5 -88.5t-107.5 -28.5zM377 700l-188 200h220l87 -200h-119z" />
    <glyph glyph-name="uacute" unicode="&#xfa;" 
d="M190 -10q-74 0 -118 49t-31 139l59 422h170l-53 -377q-7 -49 9.5 -74t53.5 -25q35 0 74 24t78 67l54 385h170l-84 -600h-170l15 107h-30q-33 -60 -89.5 -88.5t-107.5 -28.5zM311 700l143 200h220l-244 -200h-119z" />
    <glyph glyph-name="ucircumflex" unicode="&#xfb;" 
d="M190 -10q-74 0 -118 49t-31 139l59 422h170l-53 -377q-7 -49 9.5 -74t53.5 -25q35 0 74 24t78 67l54 385h170l-84 -600h-170l15 107h-30q-33 -60 -89.5 -88.5t-107.5 -28.5zM207 690l-44 78l203 156h128l161 -156l-65 -77l-178 108z" />
    <glyph glyph-name="udieresis" unicode="&#xfc;" 
d="M190 -10q-74 0 -118 49t-31 139l59 422h170l-53 -377q-7 -49 9.5 -74t53.5 -25q35 0 74 24t78 67l54 385h170l-84 -600h-170l15 107h-30q-33 -60 -89.5 -88.5t-107.5 -28.5zM273 696q-39 0 -61.5 15.5t-16.5 54.5l1 13q6 40 33 56.5t66 16.5q40 0 62 -16.5t16 -56.5
l-1 -13q-6 -39 -33 -54.5t-66 -15.5zM525 696q-40 0 -62.5 15.5t-16.5 54.5l1 13q6 40 33 56.5t67 16.5t61.5 -16.5t15.5 -56.5l-1 -13q-6 -39 -33 -54.5t-65 -15.5z" />
    <glyph glyph-name="utilde" unicode="&#x169;" 
d="M190 -10q-74 0 -118 49t-31 139l59 422h170l-53 -377q-7 -49 9.5 -74t53.5 -25q35 0 74 24t78 67l54 385h170l-84 -600h-170l15 107h-30q-33 -60 -89.5 -88.5t-107.5 -28.5zM485 710q-44 0 -67.5 16t-37.5 34q-14 19 -26 34.5t-31 15.5q-17 0 -32.5 -15.5t-20.5 -64.5
l-2 -10h-112l2 15q12 81 59 135t117 54q46 0 69.5 -15.5t37.5 -34.5t26 -35t29 -16t32 15.5t21 65.5l1 9h112l-2 -15q-11 -80 -58 -134t-117 -54z" />
    <glyph glyph-name="umacron" unicode="&#x16b;" 
d="M190 -10q-74 0 -118 49t-31 139l59 422h170l-53 -377q-7 -49 9.5 -74t53.5 -25q35 0 74 24t78 67l54 385h170l-84 -600h-170l15 107h-30q-33 -60 -89.5 -88.5t-107.5 -28.5zM179 734l19 132h436l-19 -132h-436z" />
    <glyph glyph-name="ubreve" unicode="&#x16d;" 
d="M190 -10q-74 0 -118 49t-31 139l59 422h170l-53 -377q-7 -49 9.5 -74t53.5 -25q35 0 74 24t78 67l54 385h170l-84 -600h-170l15 107h-30q-33 -60 -89.5 -88.5t-107.5 -28.5zM398 693q-124 0 -182 55.5t-42 175.5h142q-9 -69 14 -96.5t83 -27.5t91 27.5t42 96.5h142
q-18 -120 -92 -175.5t-198 -55.5z" />
    <glyph glyph-name="uring" unicode="&#x16f;" 
d="M190 -10q-74 0 -118 49t-31 139l59 422h170l-53 -377q-7 -49 9.5 -74t53.5 -25q35 0 74 24t78 67l54 385h170l-84 -600h-170l15 107h-30q-33 -60 -89.5 -88.5t-107.5 -28.5zM396 678q-87 0 -135.5 37t-37.5 115l4 32q11 78 70.5 116.5t146.5 38.5q88 0 136 -38.5
t37 -116.5l-4 -32q-11 -78 -70.5 -115t-146.5 -37zM408 763q37 0 58 15t27 52l4 32q5 36 -11.5 53t-53.5 17t-58.5 -17t-26.5 -53l-4 -32q-6 -37 11 -52t54 -15z" />
    <glyph glyph-name="uhungarumlaut" unicode="&#x171;" 
d="M190 -10q-74 0 -118 49t-31 139l59 422h170l-53 -377q-7 -49 9.5 -74t53.5 -25q35 0 74 24t78 67l54 385h170l-84 -600h-170l15 107h-30q-33 -60 -89.5 -88.5t-107.5 -28.5zM447 700l77 200h175l-160 -200h-92zM217 700l77 200h175l-160 -200h-92z" />
    <glyph glyph-name="uogonek" unicode="&#x173;" 
d="M485 -221q-78 0 -120.5 31.5t-33.5 93.5q8 61 61.5 104.5t111.5 59.5l20 -45q-37 -21 -48.5 -41.5t-14.5 -39.5q-4 -26 12.5 -39t54.5 -13q18 0 43 2.5t51 7.5l-15 -109q-32 -6 -63.5 -9t-58.5 -3zM190 -10q-74 0 -118 49t-31 139l59 422h170l-53 -377q-7 -49 9.5 -74
t53.5 -25q35 0 74 24t78 67l54 385h170l-84 -600h-170l15 107h-30q-33 -60 -89.5 -88.5t-107.5 -28.5z" />
    <glyph glyph-name="v" unicode="v" 
d="M405 0h-223l-101 600h164l71 -468l200 468h158z" />
    <glyph glyph-name="w" unicode="w" 
d="M375 0l-36 317l-122 -317h-156l-15 600h147l-4 -430l114 323h116l32 -313l112 420h147l-183 -600h-152z" />
    <glyph glyph-name="wcircumflex" unicode="&#x175;" 
d="M375 0l-36 317l-122 -317h-156l-15 600h147l-4 -430l114 323h116l32 -313l112 420h147l-183 -600h-152zM207 690l-44 78l203 156h128l161 -156l-65 -77l-178 108z" />
    <glyph glyph-name="wgrave" unicode="&#x1e81;" 
d="M375 0l-36 317l-122 -317h-156l-15 600h147l-4 -430l114 323h116l32 -313l112 420h147l-183 -600h-152zM379 700l-188 200h220l87 -200h-119z" />
    <glyph glyph-name="wacute" unicode="&#x1e83;" 
d="M375 0l-36 317l-122 -317h-156l-15 600h147l-4 -430l114 323h116l32 -313l112 420h147l-183 -600h-152zM299 700l143 200h220l-244 -200h-119z" />
    <glyph glyph-name="wdieresis" unicode="&#x1e85;" 
d="M375 0l-36 317l-122 -317h-156l-15 600h147l-4 -430l114 323h116l32 -313l112 420h147l-183 -600h-152zM273 696q-39 0 -61.5 15.5t-16.5 54.5l1 13q6 40 33 56.5t66 16.5q40 0 62 -16.5t16 -56.5l-1 -13q-6 -39 -33 -54.5t-66 -15.5zM525 696q-40 0 -62.5 15.5
t-16.5 54.5l1 13q6 40 33 56.5t67 16.5t61.5 -16.5t15.5 -56.5l-1 -13q-6 -39 -33 -54.5t-65 -15.5z" />
    <glyph glyph-name="x" unicode="x" 
d="M416 0l-103 193l-147 -193h-171l258 305l-160 295h173l94 -174l132 174h171l-240 -289l168 -311h-175z" />
    <glyph glyph-name="y" unicode="y" 
d="M102 -210q-31 0 -64.5 3t-72.5 8l30 125q38 -7 67 -11t52 -4q54 0 87 23.5t61 86.5l3 7h-100l-98 572h175l70 -466l208 466h168l-278 -595q-56 -119 -126 -167t-182 -48z" />
    <glyph glyph-name="yacute" unicode="&#xfd;" 
d="M102 -210q-31 0 -64.5 3t-72.5 8l30 125q38 -7 67 -11t52 -4q54 0 87 23.5t61 86.5l3 7h-100l-98 572h175l70 -466l208 466h168l-278 -595q-56 -119 -126 -167t-182 -48zM264 700l143 200h220l-244 -200h-119z" />
    <glyph glyph-name="ydieresis" unicode="&#xff;" 
d="M102 -210q-31 0 -64.5 3t-72.5 8l30 125q38 -7 67 -11t52 -4q54 0 87 23.5t61 86.5l3 7h-100l-98 572h175l70 -466l208 466h168l-278 -595q-56 -119 -126 -167t-182 -48zM266 696q-39 0 -61.5 15.5t-16.5 54.5l1 13q6 40 33 56.5t66 16.5q40 0 62 -16.5t16 -56.5l-1 -13
q-6 -39 -33 -54.5t-66 -15.5zM518 696q-40 0 -62.5 15.5t-16.5 54.5l1 13q6 40 33 56.5t67 16.5t61.5 -16.5t15.5 -56.5l-1 -13q-6 -39 -33 -54.5t-65 -15.5z" />
    <glyph glyph-name="ycircumflex" unicode="&#x177;" 
d="M102 -210q-31 0 -64.5 3t-72.5 8l30 125q38 -7 67 -11t52 -4q54 0 87 23.5t61 86.5l3 7h-100l-98 572h175l70 -466l208 466h168l-278 -595q-56 -119 -126 -167t-182 -48zM200 690l-44 78l203 156h128l161 -156l-65 -77l-178 108z" />
    <glyph glyph-name="ygrave" unicode="&#x1ef3;" 
d="M102 -210q-31 0 -64.5 3t-72.5 8l30 125q38 -7 67 -11t52 -4q54 0 87 23.5t61 86.5l3 7h-100l-98 572h175l70 -466l208 466h168l-278 -595q-56 -119 -126 -167t-182 -48zM379 700l-188 200h220l87 -200h-119z" />
    <glyph glyph-name="z" unicode="z" 
d="M559 0h-530l18 125l397 350h-348l17 125h530l-17 -125l-396 -350h347z" />
    <glyph glyph-name="zacute" unicode="&#x17a;" 
d="M559 0h-530l18 125l397 350h-348l17 125h530l-17 -125l-396 -350h347zM299 700l143 200h220l-244 -200h-119z" />
    <glyph glyph-name="zdotaccent" unicode="&#x17c;" 
d="M559 0h-530l18 125l397 350h-348l17 125h530l-17 -125l-396 -350h347zM385 696q-51 0 -81 15.5t-24 54.5l1 13q6 40 40.5 56.5t85.5 16.5t80.5 -16.5t23.5 -56.5l-1 -13q-6 -39 -40 -54.5t-85 -15.5z" />
    <glyph glyph-name="zcaron" unicode="&#x17e;" 
d="M559 0h-530l18 125l397 350h-348l17 125h530l-17 -125l-396 -350h347zM330 704l-161 156l65 77l178 -108l205 109l44 -78l-203 -156h-128z" />
    <glyph glyph-name="ordfeminine" unicode="&#xaa;" 
d="M288 388q33 0 65 9.5t60 29.5l10 74h-125q-32 0 -51 -12t-24 -47q-4 -26 11 -40t54 -14zM242 294q-64 0 -116.5 33.5t-42.5 105.5q10 73 67.5 110.5t143.5 37.5h141l6 45q6 44 -13.5 63t-62.5 19q-41 0 -66.5 -14.5t-44.5 -59.5l-127 22q28 82 88 118t167 36t162 -41
t42 -139l-23 -161q-7 -46 17 -56t74 -4l-14 -104q-68 -13 -114.5 -0.5t-58.5 72.5h-23q-30 -35 -85 -59t-117 -24z" />
    <glyph glyph-name="ordmasculine" unicode="&#xba;" 
d="M335 294q-104 0 -166.5 47t-49.5 144l19 131q13 98 90 146t181 48t166 -48t49 -146l-19 -131q-13 -97 -89.5 -144t-180.5 -47zM350 401q53 0 79 22t32 71l17 119q6 45 -13 67.5t-72 22.5t-79 -23t-32 -68l-17 -118q-6 -49 13 -71t72 -22z" />
    <glyph glyph-name="germandbls" unicode="&#xdf;" 
d="M401 -6q-51 0 -104.5 18t-85.5 51l60 101q30 -30 64 -46.5t72 -16.5q32 0 56 14t28 44q5 34 -27 49t-78 31q-57 22 -92.5 57.5t-26.5 100.5q10 73 61.5 119t129.5 56q5 62 -24.5 87t-74.5 25q-43 0 -82 -29.5t-49 -98.5l-106 -756h-163l108 770q16 116 100.5 177
t210.5 61q122 0 186.5 -70.5t48.5 -180.5l-9 -67q-96 1 -138.5 -15.5t-46.5 -50.5q-5 -36 29.5 -51.5t83.5 -33.5q57 -22 88 -60t22 -103q-12 -86 -81 -134t-160 -48z" />
    <glyph glyph-name="ae" unicode="&#xe6;" 
d="M642 150q-29 -79 -80.5 -119.5t-127.5 -40.5q-51 0 -85.5 22.5t-49.5 67.5h-27q-22 -41 -60.5 -65.5t-89.5 -24.5q-68 0 -106 43t-27 125q13 88 68 132.5t134 44.5h96l9 66q7 49 -5.5 70t-44.5 21q-30 0 -46 -17.5t-39 -68.5l-119 25q32 91 83.5 135t129.5 44
q45 0 76 -17.5t44 -57.5q29 37 69.5 56t85.5 19q78 0 119.5 -55t25.5 -169l-17 -120h-252l-9 -67q-7 -48 3.5 -73.5t42.5 -25.5q29 0 47.5 16.5t31.5 53.5zM426 404l-7 -48h127l6 43q8 56 -3.5 80.5t-43.5 24.5q-31 0 -51.5 -23.5t-27.5 -76.5zM260 139l14 106h-63
q-34 0 -54.5 -17t-26.5 -60q-5 -34 5.5 -52.5t38.5 -18.5q22 0 42.5 11.5t43.5 30.5z" />
    <glyph glyph-name="aeacute" unicode="&#x1fd;" 
d="M642 150q-29 -79 -80.5 -119.5t-127.5 -40.5q-51 0 -85.5 22.5t-49.5 67.5h-27q-22 -41 -60.5 -65.5t-89.5 -24.5q-68 0 -106 43t-27 125q13 88 68 132.5t134 44.5h96l9 66q7 49 -5.5 70t-44.5 21q-30 0 -46 -17.5t-39 -68.5l-119 25q32 91 83.5 135t129.5 44
q45 0 76 -17.5t44 -57.5q29 37 69.5 56t85.5 19q78 0 119.5 -55t25.5 -169l-17 -120h-252l-9 -67q-7 -48 3.5 -73.5t42.5 -25.5q29 0 47.5 16.5t31.5 53.5zM426 404l-7 -48h127l6 43q8 56 -3.5 80.5t-43.5 24.5q-31 0 -51.5 -23.5t-27.5 -76.5zM260 139l14 106h-63
q-34 0 -54.5 -17t-26.5 -60q-5 -34 5.5 -52.5t38.5 -18.5q22 0 42.5 11.5t43.5 30.5zM342 700l143 200h220l-244 -200h-119z" />
    <glyph glyph-name="eth" unicode="&#xf0;" 
d="M293 -10q-128 0 -198.5 58.5t-53.5 178.5l8 58q14 99 85.5 157t172.5 58q63 0 100 -22t49 -52h21q4 63 -11.5 107.5t-49.5 76.5l-182 -77l13 94l82 34q-28 14 -63 26t-76 23l111 111q63 -17 113 -38.5t87 -47.5l171 72l-13 -94l-90 -38q46 -55 61 -130.5t1 -174.5
l-19 -137q-18 -127 -104.5 -185t-214.5 -58zM311 115q62 0 91.5 25.5t37.5 77.5l8 63q7 47 -15.5 70t-84.5 23q-63 0 -92 -23t-36 -70l-8 -63q-8 -52 14 -77.5t85 -25.5z" />
    <glyph glyph-name="oslash" unicode="&#xf8;" 
d="M197 228q-3 -24 -2 -42.5t8 -32.5l212 333q-10 3 -23.5 4.5t-28.5 1.5q-70 0 -103.5 -30t-41.5 -88zM309 108q70 0 103.5 28.5t42.5 91.5l21 148q3 22 1.5 39.5t-7.5 30.5l-214 -333q12 -2 25 -3.5t28 -1.5zM293 -10q-23 0 -47.5 2.5t-44.5 6.5l-64 -99h-114l87 136
q-41 28 -60 75.5t-11 105.5l23 162q16 110 101.5 170.5t217.5 60.5q22 0 46 -2.5t44 -6.5l64 99h114l-87 -136q41 -28 60 -76.5t10 -108.5l-23 -162q-15 -109 -100 -168t-216 -59z" />
    <glyph glyph-name="oslashacute" unicode="&#x1ff;" 
d="M197 228q-3 -24 -2 -42.5t8 -32.5l212 333q-10 3 -23.5 4.5t-28.5 1.5q-70 0 -103.5 -30t-41.5 -88zM309 108q70 0 103.5 28.5t42.5 91.5l21 148q3 22 1.5 39.5t-7.5 30.5l-214 -333q12 -2 25 -3.5t28 -1.5zM293 -10q-23 0 -47.5 2.5t-44.5 6.5l-64 -99h-114l87 136
q-41 28 -60 75.5t-11 105.5l23 162q16 110 101.5 170.5t217.5 60.5q22 0 46 -2.5t44 -6.5l64 99h114l-87 -136q41 -28 60 -76.5t10 -108.5l-23 -162q-15 -109 -100 -168t-216 -59zM299 700l143 200h220l-244 -200h-119z" />
    <glyph glyph-name="thorn" unicode="&#xfe;" 
d="M310 117q54 0 84.5 24.5t38.5 78.5l22 155q7 52 -12 77t-59 25q-34 0 -68 -16.5t-72 -50.5l-37 -264q24 -15 47.5 -22t55.5 -7zM320 -7q-36 0 -70 6.5t-62 17.5l-30 -217h-170l140 1000h170l-43 -307h30q31 55 83 86t113 31q81 0 121 -56.5t26 -151.5l-25 -183
q-15 -104 -91 -165t-192 -61z" />
    <glyph glyph-name="dcroat" unicode="&#x111;" 
d="M288 124q34 0 68 16.5t73 49.5l28 199q-26 16 -52.5 23.5t-58.5 7.5q-49 0 -78 -24.5t-37 -79.5l-12 -87q-7 -54 11 -79.5t58 -25.5zM387 107q-28 -48 -77 -82.5t-118 -34.5q-85 0 -122.5 60.5t-25.5 147.5l17 119q14 104 90 165t192 61q36 0 69.5 -6.5t62.5 -18.5l13 91
h-172l13 94h172l13 97h170l-13 -97h100l-13 -94h-100l-86 -609h-170l15 107h-30z" />
    <glyph glyph-name="hbar" unicode="&#x127;" 
d="M231 321l-45 -321h-170l86 609h-100l13 94h100l13 97h170l-13 -97h172l-13 -94h-172l-26 -180h30q31 54 85 85.5t115 31.5q77 0 118 -50t29 -131l-51 -365h-170l45 319q6 46 -10.5 70t-53.5 24q-35 0 -74 -24.5t-78 -67.5z" />
    <glyph glyph-name="dotlessi" unicode="&#x131;" 
d="M23 0l18 125h186l49 350h-186l17 125h356l-66 -475h186l-18 -125h-542z" />
    <glyph glyph-name="ij" unicode="&#x133;" 
d="M192 696q-49 0 -76.5 15.5t-21.5 54.5l1 13q6 40 38 56.5t81 16.5t76 -16.5t21 -56.5l-1 -13q-6 -39 -38.5 -54.5t-79.5 -15.5zM583 696q-48 0 -76 15.5t-22 54.5l1 13q6 40 38.5 56.5t80.5 16.5q49 0 76.5 -16.5t21.5 -56.5l-1 -13q-6 -39 -38.5 -54.5t-80.5 -15.5z
M178 0h-156l84 600h156zM299 -209q-37 0 -74.5 5t-73.5 17l36 117q31 -10 57.5 -15t51.5 -5q49 0 81 24t40 79l65 462h-129l17 125h285l-84 -603q-14 -99 -88 -152.5t-184 -53.5z" />
    <glyph glyph-name="kgreenlandic" unicode="&#x138;" 
d="M244 253l-36 -253h-170l84 600h170l-32 -230h41l197 230h180l-242 -272l155 -328h-183l-123 253h-41z" />
    <glyph glyph-name="ldot" unicode="&#x140;" 
d="M30 0l18 125h193l77 550h-193l17 125h363l-94 -675h186l-18 -125h-549zM737 324q-51 0 -81 15.5t-24 54.5l1 13q6 40 40.5 56.5t85.5 16.5t80.5 -16.5t23.5 -56.5l-1 -13q-6 -39 -40 -54.5t-85 -15.5z" />
    <glyph glyph-name="lslash" unicode="&#x142;" 
d="M30 0l18 125h193l29 206l-163 -42l15 108l163 42l33 236h-193l17 125h363l-44 -315l112 29l-15 -108l-112 -29l-35 -252h186l-18 -125h-549z" />
    <glyph glyph-name="napostrophe" unicode="&#x149;" 
d="M16 0l84 600h170l-15 -107h30q31 55 85.5 86t119.5 31q79 0 116.5 -50t24.5 -138l-59 -422h-170l55 391q6 42 -11 64t-54 22q-34 0 -74.5 -20t-75.5 -58l-56 -399h-170zM14 700l143 200h220l-244 -200h-119z" />
    <glyph glyph-name="eng" unicode="&#x14b;" 
d="M313 -209q-33 0 -66.5 6t-64.5 16l36 117q26 -9 48.5 -14.5t43.5 -5.5q37 0 61.5 24t32.5 79l54 384q5 40 -12 60t-54 20q-35 0 -74 -19.5t-76 -58.5l-56 -399h-170l84 600h170l-15 -107h30q35 60 92 88.5t114 28.5q77 0 115.5 -47t25.5 -134l-60 -432
q-16 -108 -91.5 -157t-167.5 -49z" />
    <glyph glyph-name="oe" unicode="&#x153;" 
d="M637 147q-28 -88 -77 -122.5t-127 -34.5q-47 0 -83 18t-53 53q-27 -36 -63.5 -53.5t-78.5 -17.5q-77 0 -120.5 49t-28.5 150l30 218q15 103 72.5 153t134.5 50q41 0 72.5 -17.5t47.5 -53.5q28 36 67.5 53.5t84.5 17.5q78 0 122 -48t30 -148l-21 -148h-248l-13 -95
q-5 -35 7 -53t43 -18q32 0 54 12t32 55zM422 432l-11 -76h107l9 67q6 43 -3 62t-39 19q-28 0 -43 -17t-20 -55zM189 112q28 0 43.5 20.5t21.5 67.5l29 204q6 42 -3.5 63t-37.5 21t-43.5 -21.5t-22.5 -64.5l-28 -202q-6 -47 3.5 -67.5t37.5 -20.5z" />
    <glyph glyph-name="tbar" unicode="&#x167;" 
d="M400 -10q-117 0 -173.5 54.5t-41.5 158.5l7 56h-123l16 111h123l15 105h-149l17 125h149l28 200h170l-28 -200h232l-17 -125h-232l-15 -105h209l-16 -111h-209l-4 -34q-8 -57 14 -82.5t68 -25.5q28 0 60.5 4t65.5 16l3 -123q-25 -10 -70 -17t-99 -7z" />
    <glyph glyph-name="longs" unicode="&#x17f;" 
d="M181 -200l95 675h-120l17 125h120l5 34q13 90 87 143t179 53q34 0 70.5 -6.5t66.5 -17.5l-36 -113q-25 9 -49.5 14t-47.5 5q-41 0 -68 -20.5t-34 -69.5l-115 -822h-170z" />
    <glyph glyph-name="dotlessj" unicode="&#xf6be;" 
d="M159 -209q-44 0 -88.5 4.5t-86.5 17.5l36 117q37 -12 71 -16t65 -4q62 0 101 24t47 79l65 462h-258l17 125h428l-84 -603q-14 -99 -98.5 -152.5t-214.5 -53.5z" />
    <glyph glyph-name="dotlessj" unicode="&#x237;" 
d="M159 -209q-44 0 -88.5 4.5t-86.5 17.5l36 117q37 -12 71 -16t65 -4q62 0 101 24t47 79l65 462h-258l17 125h428l-84 -603q-14 -99 -98.5 -152.5t-214.5 -53.5z" />
    <glyph glyph-name="alpha" unicode="&#x3b1;" 
d="M275 124q29 0 58 17.5t59 49.5l31 220q-23 31 -46.5 49t-54.5 18q-33 0 -55.5 -26t-30.5 -79l-21 -149q-7 -53 9 -76.5t51 -23.5zM438 125h-30q-38 -65 -93 -99.5t-122 -34.5q-83 0 -124.5 55.5t-27.5 152.5l27 189q13 99 69 161t129 62q54 0 88 -29t50 -88h30l15 106
h170l-57 -405q-6 -49 10 -63t59 -8l-17 -121q-86 -18 -129 10.5t-47 111.5z" />
    <glyph glyph-name="alphatonos" unicode="&#x3ac;" 
d="M275 124q29 0 58 17.5t59 49.5l31 220q-23 31 -46.5 49t-54.5 18q-33 0 -55.5 -26t-30.5 -79l-21 -149q-7 -53 9 -76.5t51 -23.5zM438 125h-30q-38 -65 -93 -99.5t-122 -34.5q-83 0 -124.5 55.5t-27.5 152.5l27 189q13 99 69 161t129 62q54 0 88 -29t50 -88h30l15 106
h170l-57 -405q-6 -49 10 -63t59 -8l-17 -121q-86 -18 -129 10.5t-47 111.5zM368 700l83 200h210l-184 -200h-109z" />
    <glyph glyph-name="beta" unicode="&#x3b2;" 
d="M308 120q46 0 81 26t44 89l4 28q9 63 -16.5 87.5t-80.5 24.5h-36l14 102h30q46 0 71.5 20t31.5 66l3 18q7 52 -13 74.5t-68 22.5q-49 0 -74.5 -28t-33.5 -88l-58 -411q21 -15 45.5 -23t55.5 -8zM320 -10q-37 0 -71 6t-61 16l-30 -212h-170l109 773q16 116 95 176.5
t200 60.5q119 0 183 -52.5t51 -144.5l-3 -19q-8 -58 -49 -95.5t-115 -50.5l-4 -29q81 -8 121 -53t31 -117l-5 -37q-15 -108 -94 -165t-188 -57z" />
    <glyph glyph-name="gamma" unicode="&#x3b3;" 
d="M368 -200h-204l48 220l-145 580h173l77 -441l200 441h171l-306 -580z" />
    <glyph glyph-name="delta" unicode="&#x3b4;" 
d="M293 -10q-131 0 -196.5 58t-50.5 169l13 92q8 57 46.5 99.5t111.5 71.5q-53 27 -72 59t-12 82q13 93 81 136t189 43h199l-17 -125h-199q-41 0 -63 -10.5t-27 -43.5q-3 -24 21 -40t118 -49q110 -39 151.5 -87.5t28.5 -139.5l-13 -88q-15 -111 -96.5 -169t-212.5 -58z
M310 115q54 0 84.5 24t37.5 78l13 88q7 51 -17.5 77.5t-106.5 55.5q-37 -19 -61 -50t-31 -79l-13 -92q-7 -54 17 -78t77 -24z" />
    <glyph glyph-name="epsilon" unicode="&#x3b5;" 
d="M303 -10q-150 0 -216.5 41t-54.5 128l3 17q6 48 50 83t123 40l3 22q-63 4 -96 32t-27 77l3 21q12 84 90 121.5t209 37.5q130 0 189 -46.5t51 -147.5l-156 -8q2 50 -19 72t-80 22q-58 0 -84.5 -15t-30.5 -49l-2 -14q-6 -37 16.5 -50t79.5 -13h56l-13 -94h-56
q-75 0 -102 -18.5t-32 -55.5l-1 -10q-6 -38 17 -58t96 -20q79 0 105.5 24.5t39.5 73.5l154 -7q-22 -103 -90 -154.5t-225 -51.5z" />
    <glyph glyph-name="epsilontonos" unicode="&#x3ad;" 
d="M303 -10q-150 0 -216.5 41t-54.5 128l3 17q6 48 50 83t123 40l3 22q-63 4 -96 32t-27 77l3 21q12 84 90 121.5t209 37.5q130 0 189 -46.5t51 -147.5l-156 -8q2 50 -19 72t-80 22q-58 0 -84.5 -15t-30.5 -49l-2 -14q-6 -37 16.5 -50t79.5 -13h56l-13 -94h-56
q-75 0 -102 -18.5t-32 -55.5l-1 -10q-6 -38 17 -58t96 -20q79 0 105.5 24.5t39.5 73.5l154 -7q-22 -103 -90 -154.5t-225 -51.5zM318 700l83 200h210l-184 -200h-109z" />
    <glyph glyph-name="zeta" unicode="&#x3b6;" 
d="M319 -200h-131l16 118h132q34 0 55.5 11.5t26.5 46.5q5 37 -13 49.5t-52 12.5h-71q-133 0 -189 58t-42 160q11 80 51 134t116 124l113 107l-3 15q-99 -22 -162 20.5t-91 137.5l103 54q31 -75 93.5 -99t172.5 1l213 79l6 -157l-179 -31l-149 -166q-48 -55 -75.5 -98.5
t-36.5 -105.5q-8 -56 10.5 -85.5t65.5 -29.5h91q96 0 144 -43t35 -131q-12 -91 -79 -136.5t-171 -45.5z" />
    <glyph glyph-name="eta" unicode="&#x3b7;" 
d="M374 -200l84 597q5 40 -12 60t-54 20q-35 0 -74 -19.5t-76 -58.5l-56 -399h-170l84 600h170l-15 -107h30q31 54 86 85.5t121 31.5q78 0 115 -48t25 -133l-88 -629h-170z" />
    <glyph glyph-name="etatonos" unicode="&#x3ae;" 
d="M374 -200l84 597q5 40 -12 60t-54 20q-35 0 -74 -19.5t-76 -58.5l-56 -399h-170l84 600h170l-15 -107h30q31 54 86 85.5t121 31.5q78 0 115 -48t25 -133l-88 -629h-170zM360 700l83 200h210l-184 -200h-109z" />
    <glyph glyph-name="theta" unicode="&#x3b8;" 
d="M293 -10q-127 0 -194.5 60t-52.5 167l51 362q16 110 100 170.5t212 60.5q127 0 193.5 -60.5t50.5 -170.5l-51 -362q-15 -107 -98.5 -167t-210.5 -60zM260 574l-16 -113h230l16 115q8 54 -15 81.5t-85 27.5t-92.5 -28.5t-37.5 -82.5zM310 115q62 0 92.5 27t38.5 86l17 122
h-230l-17 -122q-8 -59 14.5 -86t84.5 -27z" />
    <glyph glyph-name="iota" unicode="&#x3b9;" 
d="M431 -7q-109 0 -165 56.5t-43 148.5l39 277h-178l17 125h348l-52 -375q-8 -51 13 -76t65 -25q28 0 54.5 6t47.5 14l10 -122q-41 -14 -80 -21.5t-76 -7.5z" />
    <glyph glyph-name="iotadieresistonos" unicode="&#x390;" 
d="M431 -7q-109 0 -165 56.5t-43 148.5l39 277h-178l17 125h348l-52 -375q-8 -51 13 -76t65 -25q28 0 54.5 6t47.5 14l10 -122q-41 -14 -80 -21.5t-76 -7.5zM300 700l74 200h156l-133 -200h-97zM171 693q-34 0 -53.5 15.5t-14.5 54.5l2 13q6 40 30 56.5t58 16.5
q35 0 54.5 -16.5t13.5 -56.5l-2 -13q-5 -39 -29.5 -54.5t-58.5 -15.5zM591 693q-34 0 -53.5 15.5t-14.5 54.5l2 13q6 40 30 56.5t58 16.5q35 0 54.5 -16.5t13.5 -56.5l-2 -13q-5 -39 -29.5 -54.5t-58.5 -15.5z" />
    <glyph glyph-name="iotatonos" unicode="&#x3af;" 
d="M431 -7q-109 0 -165 56.5t-43 148.5l39 277h-178l17 125h348l-52 -375q-8 -51 13 -76t65 -25q28 0 54.5 6t47.5 14l10 -122q-41 -14 -80 -21.5t-76 -7.5zM306 700l83 200h210l-184 -200h-109z" />
    <glyph glyph-name="iotadieresis" unicode="&#x3ca;" 
d="M431 -7q-109 0 -165 56.5t-43 148.5l39 277h-178l17 125h348l-52 -375q-8 -51 13 -76t65 -25q28 0 54.5 6t47.5 14l10 -122q-41 -14 -80 -21.5t-76 -7.5zM261 696q-39 0 -61.5 15.5t-16.5 54.5l1 13q6 40 33 56.5t66 16.5q40 0 62 -16.5t16 -56.5l-1 -13
q-6 -39 -33 -54.5t-66 -15.5zM513 696q-40 0 -62.5 15.5t-16.5 54.5l1 13q6 40 33 56.5t67 16.5t61.5 -16.5t15.5 -56.5l-1 -13q-6 -39 -33 -54.5t-65 -15.5z" />
    <glyph glyph-name="kappa" unicode="&#x3ba;" 
d="M244 253l-36 -253h-170l84 600h170l-32 -230h41l197 230h180l-242 -272l155 -328h-183l-123 253h-41z" />
    <glyph glyph-name="lambda" unicode="&#x3bb;" 
d="M431 0l-77 465l-201 -465h-170l240 537h119l-4 25q-11 65 -39.5 92t-92.5 27q-17 0 -38.5 -1.5t-46.5 -5.5l-2 125q31 3 59.5 5t54.5 2q116 0 175.5 -42.5t79.5 -146.5l116 -617h-173z" />
    <glyph glyph-name="mu" unicode="&#x3bc;" 
d="M196 20l-21 -220h-190l41 220l81 580h170l-54 -383q-6 -49 13.5 -69.5t50.5 -20.5q32 0 57 14t50 40l59 419h170l-57 -405q-6 -49 8 -62.5t54 -8.5l-17 -121q-72 -15 -108.5 4.5t-49.5 78.5h-27q-21 -38 -56.5 -67t-86.5 -29q-31 0 -51.5 10.5t-33.5 32.5z" />
    <glyph glyph-name="nu" unicode="&#x3bd;" 
d="M381 0h-175l-139 600h172l94 -454q69 110 117 231.5t70 222.5h168q-42 -169 -124.5 -320t-182.5 -280z" />
    <glyph glyph-name="xi" unicode="&#x3be;" 
d="M575 -18q-12 -90 -77.5 -136t-179.5 -46h-117l16 118h118q37 0 60.5 11.5t28.5 46.5q5 37 -15 49.5t-57 12.5h-84q-112 0 -169 48.5t-45 134.5l3 20q8 59 58.5 103t140.5 51l3 23q-57 0 -83 29t-20 69q5 40 37 68t87 38l4 23q-93 -1 -146.5 38t-70.5 111l103 54
q30 -69 92.5 -92t166.5 -3l219 76l6 -157l-222 -35l-40 -21q-30 -15 -45.5 -37.5t-19.5 -52.5q-5 -34 9.5 -48t39.5 -14h177l-16 -118h-182q-60 0 -90.5 -26t-35.5 -64l-3 -20q-5 -36 19 -58t82 -22h62q104 0 151.5 -43t34.5 -131z" />
    <glyph glyph-name="omicron" unicode="&#x3bf;" 
d="M293 -10q-131 0 -196.5 60t-50.5 167l23 162q16 109 98 170t214 61q131 0 195 -62t49 -172l-23 -162q-15 -106 -96.5 -165t-212.5 -59zM310 115q56 0 85.5 26t37.5 83l21 149q9 58 -13.5 85t-78.5 27t-85.5 -27t-37.5 -84l-21 -146q-8 -59 14 -86t78 -27z" />
    <glyph glyph-name="omicrontonos" unicode="&#x3cc;" 
d="M293 -10q-131 0 -196.5 60t-50.5 167l23 162q16 109 98 170t214 61q131 0 195 -62t49 -172l-23 -162q-15 -106 -96.5 -165t-212.5 -59zM310 115q56 0 85.5 26t37.5 83l21 149q9 58 -13.5 85t-78.5 27t-85.5 -27t-37.5 -84l-21 -146q-8 -59 14 -86t78 -27zM304 700l83 200
h210l-184 -200h-109z" />
    <glyph glyph-name="pi" unicode="&#x3c0;" 
d="M672 600l-17 -125h-92l-40 -280q-6 -48 14.5 -63t81.5 -8l-17 -121q-131 -22 -192 18t-47 140l44 314h-142l-67 -475h-156l67 475h-79l17 125h625z" />
    <glyph glyph-name="rho" unicode="&#x3c1;" 
d="M334 124q42 0 67.5 26.5t32.5 78.5l21 151q8 54 -15.5 78.5t-74.5 24.5q-54 0 -86 -24.5t-40 -78.5l-26 -190q29 -33 59.5 -49.5t61.5 -16.5zM-12 -200l81 580q16 113 95 170t210 57q137 0 202 -57t49 -170l-24 -175q-14 -99 -76 -157t-152 -58q-60 0 -97 30.5t-45 86.5
h-30l-43 -307h-170z" />
    <glyph glyph-name="sigma1" unicode="&#x3c2;" 
d="M182 -200l17 125h132q34 0 55 10.5t26 43.5q5 35 -13 47t-52 12h-87q-117 0 -169 62t-36 175l14 102q16 111 96.5 172t217.5 61q130 0 183.5 -57.5t50.5 -165.5l-164 -13q4 62 -17 86t-75 24q-59 0 -86.5 -26.5t-36.5 -88.5l-13 -90q-9 -63 11 -89.5t79 -26.5h92
q89 0 132.5 -45.5t31.5 -131.5q-12 -88 -86 -137t-193 -49h-110z" />
    <glyph glyph-name="sigma" unicode="&#x3c3;" 
d="M290 115q47 0 71 24.5t32 81.5l22 153q7 54 -9.5 81t-63.5 27q-46 0 -71 -26.5t-32 -77.5l-22 -157q-8 -57 9.5 -81.5t63.5 -24.5zM273 -10q-119 0 -180.5 59t-46.5 168l23 159q15 106 93 165t197 59h369l-19 -135l-158 11q20 -26 27 -62t1 -79l-17 -118
q-15 -109 -92.5 -168t-196.5 -59z" />
    <glyph glyph-name="tau" unicode="&#x3c4;" 
d="M499 3q-145 -25 -213.5 15.5t-53.5 142.5l43 307h-200l18 132h580l-18 -132h-210l-39 -273q-6 -49 17.5 -64t92.5 -7z" />
    <glyph glyph-name="upsilon" unicode="&#x3c5;" 
d="M294 -10q-133 0 -197 66t-47 185l50 359h170l-49 -354q-10 -66 11.5 -95t78.5 -29t86.5 29t38.5 93l50 356h170l-50 -359q-17 -119 -98.5 -185t-213.5 -66z" />
    <glyph glyph-name="upsilondieresistonos" unicode="&#x3b0;" 
d="M294 -10q-133 0 -197 66t-47 185l50 359h170l-49 -354q-10 -66 11.5 -95t78.5 -29t86.5 29t38.5 93l50 356h170l-50 -359q-17 -119 -98.5 -185t-213.5 -66zM310 700l74 200h156l-133 -200h-97zM181 693q-34 0 -53.5 15.5t-14.5 54.5l2 13q6 40 30 56.5t58 16.5
q35 0 54.5 -16.5t13.5 -56.5l-2 -13q-5 -39 -29.5 -54.5t-58.5 -15.5zM601 693q-34 0 -53.5 15.5t-14.5 54.5l2 13q6 40 30 56.5t58 16.5q35 0 54.5 -16.5t13.5 -56.5l-2 -13q-5 -39 -29.5 -54.5t-58.5 -15.5z" />
    <glyph glyph-name="upsilondieresis" unicode="&#x3cb;" 
d="M294 -10q-133 0 -197 66t-47 185l50 359h170l-49 -354q-10 -66 11.5 -95t78.5 -29t86.5 29t38.5 93l50 356h170l-50 -359q-17 -119 -98.5 -185t-213.5 -66zM266 696q-39 0 -61.5 15.5t-16.5 54.5l1 13q6 40 33 56.5t66 16.5q40 0 62 -16.5t16 -56.5l-1 -13
q-6 -39 -33 -54.5t-66 -15.5zM518 696q-40 0 -62.5 15.5t-16.5 54.5l1 13q6 40 33 56.5t67 16.5t61.5 -16.5t15.5 -56.5l-1 -13q-6 -39 -33 -54.5t-65 -15.5z" />
    <glyph glyph-name="upsilontonos" unicode="&#x3cd;" 
d="M294 -10q-133 0 -197 66t-47 185l50 359h170l-49 -354q-10 -66 11.5 -95t78.5 -29t86.5 29t38.5 93l50 356h170l-50 -359q-17 -119 -98.5 -185t-213.5 -66zM297 700l83 200h210l-184 -200h-109z" />
    <glyph glyph-name="phi" unicode="&#x3c6;" 
d="M336 -200h-140l27 196q-107 19 -158.5 99.5t-33.5 210.5l8 57q11 76 32 140t54 107l131 -32q-26 -38 -46.5 -93.5t-29.5 -121.5l-8 -57q-12 -87 7.5 -131.5t74.5 -57.5l68 483h95q123 0 184.5 -75t42.5 -213l-6 -41q-16 -116 -89 -187.5t-186 -88.5zM417 478l-51 -362
q68 9 101.5 46t43.5 109l6 41q12 87 -14 126.5t-86 39.5z" />
    <glyph glyph-name="chi" unicode="&#x3c7;" 
d="M372 -200l-83 241l-155 -241h-167l269 396l-140 404h169l86 -246l159 246h167l-273 -400l139 -400h-171z" />
    <glyph glyph-name="psi" unicode="&#x3c8;" 
d="M336 -200h-140l26 187q-117 15 -166 83t-33 181l49 349h142l-46 -328q-9 -69 9 -107t70 -50l68 485h126l-68 -485q56 12 85 50t38 107l46 328h142l-49 -349q-16 -113 -84 -181t-189 -83z" />
    <glyph glyph-name="omega" unicode="&#x3c9;" 
d="M136 -10q-67 0 -99 66t-14 192l17 123q11 75 31.5 135t51.5 111l132 -32q-27 -60 -46.5 -112.5t-26.5 -101.5l-17 -123q-9 -63 -1.5 -94.5t31.5 -31.5q27 0 43 20.5t23 68.5l33 235h126l-33 -235q-7 -48 3.5 -68.5t37.5 -20.5q24 0 40 31.5t25 94.5l17 123
q7 49 2.5 101.5t-15.5 112.5l142 32q17 -51 20.5 -111t-7.5 -135l-17 -123q-18 -126 -68.5 -192t-120.5 -66q-47 0 -81.5 29t-42.5 104h-25q-22 -75 -67 -104t-94 -29z" />
    <glyph glyph-name="omegatonos" unicode="&#x3ce;" 
d="M136 -10q-67 0 -99 66t-14 192l17 123q11 75 31.5 135t51.5 111l132 -32q-27 -60 -46.5 -112.5t-26.5 -101.5l-17 -123q-9 -63 -1.5 -94.5t31.5 -31.5q27 0 43 20.5t23 68.5l33 235h126l-33 -235q-7 -48 3.5 -68.5t37.5 -20.5q24 0 40 31.5t25 94.5l17 123
q7 49 2.5 101.5t-15.5 112.5l142 32q17 -51 20.5 -111t-7.5 -135l-17 -123q-18 -126 -68.5 -192t-120.5 -66q-47 0 -81.5 29t-42.5 104h-25q-22 -75 -67 -104t-94 -29zM311 700l83 200h210l-184 -200h-109z" />
    <glyph glyph-name="acyrillic" unicode="&#x430;" 
d="M240 100q37 0 72 11.5t67 33.5l14 97h-138q-34 0 -55 -15t-27 -59q-5 -33 10.5 -50.5t56.5 -17.5zM184 -10q-84 0 -132 45t-36 129q12 83 75.5 127t157.5 44h157l10 73q7 44 -16 62.5t-72 18.5q-51 0 -78 -18t-47 -71l-136 25q35 101 99.5 143t183.5 42
q125 0 184.5 -48.5t45.5 -148.5l-33 -232q-6 -43 17.5 -53.5t73.5 -3.5l-17 -121q-80 -17 -128.5 3t-55.5 87h-27q-37 -42 -97 -72.5t-129 -30.5z" />
    <glyph glyph-name="becyrillic" unicode="&#x431;" 
d="M293 -10q-134 0 -197 64.5t-45 192.5l29 210q23 160 104 239t218 94l235 25l-4 -134l-224 -26q-71 -9 -110 -44.5t-52 -110.5l-8 -55h23q29 45 74 70t112 25q90 0 137.5 -54.5t34.5 -146.5l-16 -112q-17 -117 -97 -177t-214 -60zM309 115q58 0 86 26t36 77l14 103
q7 47 -14.5 70t-79.5 23q-59 0 -86 -23t-34 -70l-14 -103q-8 -51 12.5 -77t79.5 -26z" />
    <glyph glyph-name="vecyrillic" unicode="&#x432;" 
d="M16 0l84 600h280q131 0 199 -34.5t57 -112.5l-3 -21q-7 -51 -48.5 -80t-105.5 -33l-3 -22q77 -5 111 -40.5t27 -84.5l-2 -17q-11 -76 -84 -115.5t-232 -39.5h-280zM229 358h125q58 0 83.5 12t30.5 47l2 14q4 34 -17 47.5t-81 13.5h-124zM195 115h124q71 0 100 17.5
t34 53.5l2 10q5 36 -18 52t-96 16h-125z" />
    <glyph glyph-name="gecyrillic" unicode="&#x433;" 
d="M59 0l84 600h502l-18 -132h-332l-66 -468h-170z" />
    <glyph glyph-name="gjecyrillic" unicode="&#x453;" 
d="M59 0l84 600h502l-18 -132h-332l-66 -468h-170zM290 700l143 200h220l-244 -200h-119z" />
    <glyph glyph-name="decyrillic" unicode="&#x434;" 
d="M215 155l-3 -23h183l47 336h-139l-28 -179q-8 -44 -22.5 -75.5t-37.5 -58.5zM126 0l-21 -150h-156l40 282h67q23 16 39 52.5t27 108.5l48 307h446l-65 -468h86l-40 -282h-156l21 150h-336z" />
    <glyph glyph-name="iecyrillic" unicode="&#x435;" 
d="M602 139q-47 -84 -113 -116.5t-193 -32.5q-122 0 -193.5 57.5t-55.5 171.5l22 160q16 110 99.5 170.5t212.5 60.5t194.5 -60.5t49.5 -173.5l-16 -110h-386l-8 -57q-7 -51 16 -78.5t84 -27.5q51 0 86 15.5t63 59.5zM241 393l-5 -34h216l4 25q9 63 -11.5 90t-80.5 27
t-87.5 -25.5t-35.5 -82.5z" />
    <glyph glyph-name="iegravecyrillic" unicode="&#x450;" 
d="M602 139q-47 -84 -113 -116.5t-193 -32.5q-122 0 -193.5 57.5t-55.5 171.5l22 160q16 110 99.5 170.5t212.5 60.5t194.5 -60.5t49.5 -173.5l-16 -110h-386l-8 -57q-7 -51 16 -78.5t84 -27.5q51 0 86 15.5t63 59.5zM241 393l-5 -34h216l4 25q9 63 -11.5 90t-80.5 27
t-87.5 -25.5t-35.5 -82.5zM383 700l-188 200h220l87 -200h-119z" />
    <glyph glyph-name="iocyrillic" unicode="&#x451;" 
d="M602 139q-47 -84 -113 -116.5t-193 -32.5q-122 0 -193.5 57.5t-55.5 171.5l22 160q16 110 99.5 170.5t212.5 60.5t194.5 -60.5t49.5 -173.5l-16 -110h-386l-8 -57q-7 -51 16 -78.5t84 -27.5q51 0 86 15.5t63 59.5zM241 393l-5 -34h216l4 25q9 63 -11.5 90t-80.5 27
t-87.5 -25.5t-35.5 -82.5zM266 696q-39 0 -61.5 15.5t-16.5 54.5l1 13q6 40 33 56.5t66 16.5q40 0 62 -16.5t16 -56.5l-1 -13q-6 -39 -33 -54.5t-66 -15.5zM518 696q-40 0 -62.5 15.5t-16.5 54.5l1 13q6 40 33 56.5t67 16.5t61.5 -16.5t15.5 -56.5l-1 -13q-6 -39 -33 -54.5
t-65 -15.5z" />
    <glyph glyph-name="zhecyrillic" unicode="&#x436;" 
d="M228 261l-135 -261h-141l189 333l-108 267h143l78 -231h30l32 231h125l-32 -231h26l139 231h147l-180 -266l95 -334h-144l-61 261h-37l-37 -261h-125l37 261h-41z" />
    <glyph glyph-name="zecyrillic" unicode="&#x437;" 
d="M295 -10q-141 0 -202.5 49.5t-54.5 156.5l156 7q-1 -62 24.5 -83.5t91.5 -21.5q75 0 102.5 21t33.5 64l1 10q6 39 -14.5 56.5t-97.5 17.5h-49l13 94h49q57 0 82.5 12.5t31.5 50.5l2 14q5 36 -16.5 50t-80.5 14q-57 0 -84.5 -19.5t-42.5 -74.5l-154 8q23 101 93.5 147.5
t202.5 46.5q139 0 202 -37.5t51 -121.5l-3 -21q-6 -49 -47 -77t-106 -32l-3 -22q77 -5 111 -40t28 -83l-3 -17q-12 -85 -87 -127t-230 -42z" />
    <glyph glyph-name="iicyrillic" unicode="&#x438;" 
d="M425 0l57 406l-284 -406h-182l84 600h148l-60 -427l299 427h169l-84 -600h-147z" />
    <glyph glyph-name="iishortcyrillic" unicode="&#x439;" 
d="M425 0l57 406l-284 -406h-182l84 600h148l-60 -427l299 427h169l-84 -600h-147zM391 693q-100 0 -167 49.5t-49 171.5l151 10q-10 -66 6.5 -95t73.5 -29t82.5 29t33.5 95l147 -10q-16 -122 -97 -171.5t-181 -49.5z" />
    <glyph glyph-name="igravecyrillic" unicode="&#x45d;" 
d="M425 0l57 406l-284 -406h-182l84 600h148l-60 -427l299 427h169l-84 -600h-147zM393 700l-188 200h220l87 -200h-119z" />
    <glyph glyph-name="kacyrillic" unicode="&#x43a;" 
d="M244 253l-36 -253h-170l84 600h170l-32 -230h41l197 230h180l-242 -272l155 -328h-183l-123 253h-41z" />
    <glyph glyph-name="kjecyrillic" unicode="&#x45c;" 
d="M244 253l-36 -253h-170l84 600h170l-32 -230h41l197 230h180l-242 -272l155 -328h-183l-123 253h-41zM327 700l143 200h220l-244 -200h-119z" />
    <glyph glyph-name="elcyrillic" unicode="&#x43b;" 
d="M409 0l67 475h-161l-37 -246q-18 -124 -76 -183t-155 -59q-23 0 -46.5 5t-47.5 11l37 126q14 -4 25.5 -7t21.5 -3q32 0 52 25.5t31 97.5l53 358h490l-84 -600h-170z" />
    <glyph glyph-name="emcyrillic" unicode="&#x43c;" 
d="M256 150l-65 234l-39 -384h-146l84 600h176l73 -304l156 304h171l-84 -600h-146l68 384l-128 -234h-120z" />
    <glyph glyph-name="encyrillic" unicode="&#x43d;" 
d="M16 0l84 600h170l-28 -203h216l28 203h170l-84 -600h-170l37 265h-216l-37 -265h-170z" />
    <glyph glyph-name="ocyrillic" unicode="&#x43e;" 
d="M293 -10q-131 0 -196.5 60t-50.5 167l23 162q16 109 98 170t214 61q131 0 195 -62t49 -172l-23 -162q-15 -106 -96.5 -165t-212.5 -59zM310 115q56 0 85.5 26t37.5 83l21 149q9 58 -13.5 85t-78.5 27t-85.5 -27t-37.5 -84l-21 -146q-8 -59 14 -86t78 -27z" />
    <glyph glyph-name="pecyrillic" unicode="&#x43f;" 
d="M16 0l84 600h556l-84 -600h-170l66 468h-216l-66 -468h-170z" />
    <glyph glyph-name="ercyrillic" unicode="&#x440;" 
d="M310 117q54 0 84.5 24t38.5 79l22 155q7 52 -11.5 77t-59.5 25q-35 0 -68.5 -16.5t-71.5 -50.5l-37 -264q23 -15 46.5 -22t56.5 -7zM320 -7q-34 0 -68.5 6t-63.5 18l-30 -217h-170l112 800h170l-15 -107h30q31 54 83.5 85.5t112.5 31.5q81 0 121 -56t26 -152l-25 -183
q-15 -104 -91 -165t-192 -61z" />
    <glyph glyph-name="escyrillic" unicode="&#x441;" 
d="M304 -10q-141 0 -207 60t-50 174l22 154q16 112 99 172t222 60q131 0 187 -57.5t54 -162.5l-166 -13q3 58 -19.5 82.5t-78.5 24.5q-60 0 -90 -26.5t-39 -89.5l-20 -137q-8 -63 15 -89.5t84 -26.5q56 0 84.5 20.5t39.5 67.5l162 -13q-21 -96 -88 -148t-211 -52z" />
    <glyph glyph-name="tecyrillic" unicode="&#x442;" 
d="M209 0l66 468h-209l18 132h588l-18 -132h-209l-66 -468h-170z" />
    <glyph glyph-name="ucyrillic" unicode="&#x443;" 
d="M102 -210q-31 0 -64.5 3t-72.5 8l30 125q38 -7 67 -11t52 -4q54 0 87 23.5t61 86.5l3 7h-100l-98 572h175l70 -466l208 466h168l-278 -595q-56 -119 -126 -167t-182 -48z" />
    <glyph glyph-name="ushortcyrillic" unicode="&#x45e;" 
d="M102 -210q-31 0 -64.5 3t-72.5 8l30 125q38 -7 67 -11t52 -4q54 0 87 23.5t61 86.5l3 7h-100l-98 572h175l70 -466l208 466h168l-278 -595q-56 -119 -126 -167t-182 -48zM391 693q-100 0 -167 49.5t-49 171.5l151 10q-10 -66 6.5 -95t73.5 -29t82.5 29t33.5 95l147 -10
q-16 -122 -97 -171.5t-181 -49.5z" />
    <glyph glyph-name="efcyrillic" unicode="&#x444;" 
d="M385 0h-21l-28 -200h-140l28 200h-21q-101 0 -150 56.5t-35 155.5l25 178q14 99 78.5 154.5t165.5 55.5h21l28 200h140l-28 -200h21q101 0 150.5 -55.5t35.5 -154.5l-25 -179q-14 -99 -79 -155t-166 -56zM229 108h22l54 383h-22q-37 0 -66 -24t-37 -81l-24 -173
q-8 -57 14 -81t59 -24zM443 491h-22l-54 -383h22q38 0 66.5 24t36.5 81l24 173q8 57 -13.5 81t-59.5 24z" />
    <glyph glyph-name="khacyrillic" unicode="&#x445;" 
d="M416 0l-103 193l-147 -193h-171l258 305l-160 295h173l94 -174l132 174h171l-240 -289l168 -311h-175z" />
    <glyph glyph-name="tsecyrillic" unicode="&#x446;" 
d="M443 -150l21 150h-448l84 600h170l-65 -468h191l65 468h170l-65 -468h79l-40 -282h-162z" />
    <glyph glyph-name="checyrillic" unicode="&#x447;" 
d="M634 600l-84 -600h-170l26 187q-23 -8 -52 -13t-70 -5q-128 0 -184 61.5t-39 180.5l26 189h170l-26 -187q-9 -64 16 -88.5t73 -25.5q31 0 58 5.5t47 14.5l39 281h170z" />
    <glyph glyph-name="shacyrillic" unicode="&#x448;" 
d="M-12 0l84 600h138l-67 -477h100l67 477h136l-67 -477h100l67 477h138l-84 -600h-612z" />
    <glyph glyph-name="shchacyrillic" unicode="&#x449;" 
d="M622 -150h-139l21 150h-516l84 600h138l-67 -477h100l67 477h136l-67 -477h100l67 477h138l-66 -475h43z" />
    <glyph glyph-name="hardsigncyrillic" unicode="&#x44a;" 
d="M373 0h-279l66 468h-150l18 132h320l-24 -173h109q110 0 166 -50.5t43 -140.5l-7 -48q-12 -88 -82 -138t-180 -50zM282 125h80q49 0 74 17t31 57l5 35q5 39 -15.5 54.5t-69.5 15.5h-80z" />
    <glyph glyph-name="yericyrillic" unicode="&#x44b;" 
d="M-6 0l84 600h142l-22 -159h42q97 0 144.5 -45t36.5 -125l-13 -90q-12 -86 -72.5 -133.5t-157.5 -47.5h-184zM452 0l84 600h142l-84 -600h-142zM152 117h34q42 0 65 17t29 61l8 57q6 42 -12 58t-60 16h-34z" />
    <glyph glyph-name="softsigncyrillic" unicode="&#x44c;" 
d="M9 0l84 600h170l-24 -173h159q119 0 177.5 -50.5t45.5 -140.5l-7 -48q-12 -90 -84.5 -139t-191.5 -49h-329zM197 125h130q55 0 84 15.5t34 54.5l5 36q6 39 -18.5 56t-79.5 17h-130z" />
    <glyph glyph-name="ereversedcyrillic" unicode="&#x44d;" 
d="M279 -10q-134 0 -194.5 48t-53.5 149l167 13q-3 -52 17.5 -73.5t83.5 -21.5q65 0 95 27t39 89l6 39h-178l14 101h178l3 21q8 60 -14.5 86.5t-85.5 26.5q-60 0 -89 -20.5t-40 -69.5l-163 13q26 99 99 145.5t204 46.5q136 0 205 -58t53 -174l-22 -154q-16 -114 -99 -174
t-225 -60z" />
    <glyph glyph-name="iucyrillic" unicode="&#x44e;" 
d="M402 -10q-97 0 -138.5 53.5t-28.5 146.5l11 79h-77l-38 -269h-143l84 600h143l-30 -213h77l3 19q13 95 70.5 149.5t154.5 54.5q99 0 139.5 -54.5t27.5 -149.5l-30 -216q-13 -93 -69.5 -146.5t-155.5 -53.5zM418 108q33 0 47.5 21t20.5 61l30 216q6 42 -2.5 64t-41.5 22
q-32 0 -47 -22t-21 -64l-30 -216q-6 -40 3 -61t41 -21z" />
    <glyph glyph-name="iacyrillic" unicode="&#x44f;" 
d="M315 306h130l25 176h-130q-36 0 -56 -15t-27 -61l-3 -22q-7 -47 9 -62.5t52 -15.5zM429 189h-71l-166 -189h-185l178 203q-59 16 -85 62t-16 117l4 29q12 90 73 139.5t159 49.5h336l-84 -600h-170z" />
    <glyph glyph-name="djecyrillic" unicode="&#x452;" 
d="M306 -209q-33 0 -66.5 6t-64.5 16l36 117q26 -9 48.5 -14.5t43.5 -5.5q40 0 66.5 24t34.5 79l43 306q6 46 -10.5 70t-53.5 24q-34 0 -74 -24.5t-78 -67.5l-45 -321h-170l86 609h-100l13 94h100l13 97h170l-13 -97h172l-13 -94h-172l-26 -180h30q32 55 84.5 86t115.5 31
q76 0 117.5 -48t29.5 -133l-51 -368q-16 -108 -93.5 -157t-172.5 -49z" />
    <glyph glyph-name="ecyrillic" unicode="&#x454;" 
d="M609 187q-22 -101 -95 -149t-207 -48q-142 0 -209 60t-51 174l22 154q16 116 102 174t222 58q131 0 191 -46.5t58 -145.5l-166 -13q3 49 -20.5 69.5t-82.5 20.5q-64 0 -94.5 -26.5t-38.5 -86.5l-4 -25h194l-13 -94h-194l-6 -42q-9 -62 14 -89t89 -27q63 0 89.5 21.5
t37.5 73.5z" />
    <glyph glyph-name="dzecyrillic" unicode="&#x455;" 
d="M296 -7q-78 0 -151 21t-125 60l60 107q52 -37 115.5 -56.5t120.5 -19.5q46 0 75 14.5t34 48.5q5 35 -19.5 50.5t-89.5 22.5q-120 13 -180 50.5t-48 124.5q13 91 90.5 142.5t189.5 51.5q64 0 128.5 -19.5t114.5 -54.5l-52 -102q-50 31 -101 47.5t-100 16.5q-41 0 -67 -15
t-31 -47q-5 -35 26 -48.5t105 -23.5q115 -14 165.5 -56t39.5 -122q-13 -92 -94 -142.5t-206 -50.5z" />
    <glyph glyph-name="icyrillic" unicode="&#x456;" 
d="M23 0l18 125h186l49 350h-186l17 125h356l-66 -475h186l-18 -125h-542zM400 696q-51 0 -81 15.5t-24 54.5l1 13q6 40 40.5 56.5t85.5 16.5t80.5 -16.5t23.5 -56.5l-1 -13q-6 -39 -40 -54.5t-85 -15.5z" />
    <glyph glyph-name="yicyrillic" unicode="&#x457;" 
d="M23 0l18 125h186l49 350h-186l17 125h356l-66 -475h186l-18 -125h-542zM266 696q-39 0 -61.5 15.5t-16.5 54.5l1 13q6 40 33 56.5t66 16.5q40 0 62 -16.5t16 -56.5l-1 -13q-6 -39 -33 -54.5t-66 -15.5zM518 696q-40 0 -62.5 15.5t-16.5 54.5l1 13q6 40 33 56.5t67 16.5
t61.5 -16.5t15.5 -56.5l-1 -13q-6 -39 -33 -54.5t-65 -15.5z" />
    <glyph glyph-name="jecyrillic" unicode="&#x458;" 
d="M159 -209q-44 0 -88.5 4.5t-86.5 17.5l36 117q37 -12 71 -16t65 -4q62 0 101 24t47 79l65 462h-258l17 125h428l-84 -603q-14 -99 -98.5 -152.5t-214.5 -53.5zM477 696q-51 0 -81 15.5t-24 54.5l1 13q6 40 40.5 56.5t85.5 16.5t80.5 -16.5t23.5 -56.5l-1 -13
q-6 -39 -40 -54.5t-85 -15.5z" />
    <glyph glyph-name="ljecyrillic" unicode="&#x459;" 
d="M226 489l-55 -352q-11 -70 -55.5 -106.5t-113.5 -36.5q-17 0 -35 2.5t-36 7.5l37 121q7 -3 15 -4.5t15 -1.5q16 0 29 11t19 45l66 425h344l-24 -173h66q78 0 115.5 -44.5t25.5 -124.5l-10 -74q-12 -87 -62.5 -135.5t-128.5 -48.5h-198l69 489h-83zM387 110h37
q32 0 50 19.5t24 64.5l8 52q5 39 -7.5 56t-44.5 17h-37z" />
    <glyph glyph-name="njecyrillic" unicode="&#x45a;" 
d="M384 110h37q33 0 50 17t23 57l11 76q5 39 -7 56t-45 17h-37zM161 287l-40 -287h-132l84 600h132l-27 -196h116l27 196h132l-22 -159h66q78 0 115.5 -43t26.5 -119l-15 -109q-11 -81 -61 -125.5t-128 -44.5h-198l40 287h-116z" />
    <glyph glyph-name="tshecyrillic" unicode="&#x45b;" 
d="M231 321l-45 -321h-170l86 609h-100l13 94h100l13 97h170l-13 -97h172l-13 -94h-172l-26 -180h30q31 54 85 85.5t115 31.5q77 0 118 -50t29 -131l-51 -365h-170l45 319q6 46 -10.5 70t-53.5 24q-35 0 -74 -24.5t-78 -67.5z" />
    <glyph glyph-name="dzhecyrillic" unicode="&#x45f;" 
d="M192 -150l21 150h-197l84 600h170l-65 -468h216l65 468h170l-84 -600h-197l-21 -150h-162z" />
    <glyph glyph-name="gheupturncyrillic" unicode="&#x491;" 
d="M59 0l84 600h341l21 150h161l-39 -282h-332l-66 -468h-170z" />
    <glyph glyph-name="nsuperior" unicode="&#x207f;" 
d="M101 301l71 500h144l-13 -88h28q15 24 33 42.5t39 30.5t44.5 18t47.5 6q34 0 59.5 -13.5t41.5 -38.5q16 -26 20.5 -63t-1.5 -84l-44 -310h-144l43 302q3 23 1 40t-9 29q-6 11 -16.5 17t-24.5 6q-16 0 -32.5 -6t-33.5 -18q-15 -11 -32 -26.5t-34 -35.5l-44 -308h-144z" />
    <glyph glyph-name="gravecmb" unicode="&#x300;" horiz-adv-x="0" 
d="M29 700l-188 200h220l87 -200h-119z" />
    <glyph glyph-name="acutecmb" unicode="&#x301;" horiz-adv-x="0" 
d="M-86 700l143 200h220l-244 -200h-119z" />
    <glyph glyph-name="circumflexcmb" unicode="&#x302;" horiz-adv-x="0" 
d="M-150 690l-44 78l203 156h128l161 -156l-65 -77l-178 108z" />
    <glyph glyph-name="tildecmb" unicode="&#x303;" horiz-adv-x="0" 
d="M135 710q-44 0 -67.5 16t-37.5 34q-14 19 -26 34.5t-31 15.5q-17 0 -32.5 -15.5t-20.5 -64.5l-2 -10h-112l2 15q12 81 59 135t117 54q46 0 69.5 -15.5t37.5 -34.5t26 -35t29 -16t32 15.5t21 65.5l1 9h112l-2 -15q-11 -80 -58 -134t-117 -54z" />
    <glyph glyph-name="macroncmb" unicode="&#x304;" horiz-adv-x="0" 
d="M-171 734l19 132h436l-19 -132h-436z" />
    <glyph glyph-name="brevecmb" unicode="&#x306;" horiz-adv-x="0" 
d="M41 693q-124 0 -182 55.5t-42 175.5h142q-9 -69 14 -96.5t83 -27.5t91 27.5t42 96.5h142q-18 -120 -92 -175.5t-198 -55.5z" />
    <glyph glyph-name="dotaccentcmb" unicode="&#x307;" horiz-adv-x="0" 
d="M42 696q-51 0 -81 15.5t-24 54.5l1 13q6 40 40.5 56.5t85.5 16.5t80.5 -16.5t23.5 -56.5l-1 -13q-6 -39 -40 -54.5t-85 -15.5z" />
    <glyph glyph-name="dieresiscmb" unicode="&#x308;" horiz-adv-x="0" 
d="M-84 696q-39 0 -61.5 15.5t-16.5 54.5l1 13q6 40 33 56.5t66 16.5q40 0 62 -16.5t16 -56.5l-1 -13q-6 -39 -33 -54.5t-66 -15.5zM168 696q-40 0 -62.5 15.5t-16.5 54.5l1 13q6 40 33 56.5t67 16.5t61.5 -16.5t15.5 -56.5l-1 -13q-6 -39 -33 -54.5t-65 -15.5z" />
    <glyph glyph-name="ringcmb" unicode="&#x30a;" horiz-adv-x="0" 
d="M39 678q-87 0 -135.5 37t-37.5 115l4 32q11 78 70.5 116.5t146.5 38.5q88 0 136 -38.5t37 -116.5l-4 -32q-11 -78 -70.5 -115t-146.5 -37zM51 763q37 0 58 15t27 52l4 32q5 36 -11.5 53t-53.5 17t-58.5 -17t-26.5 -53l-4 -32q-6 -37 11 -52t54 -15z" />
    <glyph glyph-name="hungarumlautcmb" unicode="&#x30b;" horiz-adv-x="0" 
d="M90 700l77 200h175l-160 -200h-92zM-140 700l77 200h175l-160 -200h-92z" />
    <glyph glyph-name="caroncmb" unicode="&#x30c;" horiz-adv-x="0" 
d="M-20 704l-161 156l65 77l178 -108l205 109l44 -78l-203 -156h-128z" />
    <glyph glyph-name="commaturnedabovecmb" unicode="&#x312;" horiz-adv-x="0" 
d="M-106 700l204 200h119l-103 -200h-220z" />
    <glyph glyph-name="commaaccentcmb" unicode="&#x326;" horiz-adv-x="0" 
d="M-253 -300l103 200h220l-204 -200h-119z" />
    <glyph glyph-name="cedillacmb" unicode="&#x327;" horiz-adv-x="0" 
d="M-86 0l26 42q72 -8 118 -36t36 -95q-10 -72 -74 -103t-139 -31q-87 0 -138 29t-46 98l145 10q-1 -19 9.5 -26.5t36.5 -7.5q28 0 43.5 11t20.5 45q4 28 -4 42.5t-34 21.5z" />
    <glyph glyph-name="ogonekcmb" unicode="&#x328;" horiz-adv-x="0" 
d="M-59 -221q-78 0 -120.5 31.5t-33.5 93.5q8 61 61.5 104.5t111.5 59.5l20 -45q-37 -21 -48.5 -41.5t-14.5 -39.5q-4 -26 12.5 -39t54.5 -13q18 0 43 2.5t51 7.5l-15 -109q-32 -6 -63.5 -9t-58.5 -3z" />
    <glyph glyph-name="zero" 
d="M293 -10q-140 0 -203.5 86.5t-41.5 246.5l21 150q23 162 111.5 249.5t228.5 87.5t202.5 -87.5t39.5 -249.5l-21 -150q-22 -160 -109.5 -246.5t-227.5 -86.5zM310 115q74 0 111.5 50t54.5 172l18 122q17 124 -6.5 175t-97.5 51t-111.5 -51t-54.5 -175l-18 -122
q-17 -122 6.5 -172t97.5 -50zM338 315q-32 0 -50.5 11t-13.5 42l9 63q4 30 25.5 41.5t53.5 11.5t50 -11.5t14 -41.5l-9 -63q-5 -31 -26.5 -42t-52.5 -11z" />
    <glyph glyph-name="one" unicode="1" 
d="M39 0l19 132h206l71 506h-29q-31 -65 -87 -100t-122 -34l9 133q78 3 146 47t108 116h167l-93 -668h179l-19 -132h-555z" />
    <glyph glyph-name="two" unicode="2" 
d="M3 0l23 167q14 95 62.5 147.5t160.5 93.5l114 40q57 20 85 39.5t35 69.5l4 23q8 59 -15 82t-82 23q-57 0 -84.5 -27t-45.5 -109l-168 10q26 134 99.5 192.5t215.5 58.5q146 0 205.5 -58.5t44.5 -169.5l-7 -47q-12 -87 -69 -132t-145 -76l-115 -40q-70 -27 -93.5 -47
t-30.5 -71l-5 -37h412l-19 -132h-582z" />
    <glyph glyph-name="three" unicode="3" 
d="M292 -10q-156 0 -216.5 59.5t-50.5 178.5l171 10q-2 -77 22 -97.5t96 -20.5q64 0 94.5 24t37.5 78l4 27q8 57 -18 81.5t-88 24.5h-107l18 130h107q56 0 81 16.5t31 60.5l4 32q7 46 -14.5 66t-78.5 20q-52 0 -78.5 -21.5t-41.5 -77.5l-169 10q24 117 94.5 168t207.5 51
q143 0 205.5 -47t47.5 -154l-4 -22q-9 -67 -56.5 -104.5t-113.5 -44.5l-5 -29q71 -6 114 -51.5t32 -119.5l-2 -20q-18 -123 -99 -175.5t-225 -52.5z" />
    <glyph glyph-name="four" unicode="4" 
d="M191 325h200l42 304zM663 200h-120l-28 -200h-170l28 200h-352l18 125l373 475h215l-66 -475h120z" />
    <glyph glyph-name="five" unicode="5" 
d="M292 -10q-159 0 -218.5 55t-46.5 197l171 10q-4 -85 19 -111t93 -26q71 0 100 29.5t38 92.5l5 34q9 60 -13.5 87.5t-99.5 27.5h-263l58 414h529l-17 -125h-359l-22 -156h143q124 0 179 -54.5t39 -166.5l-12 -85q-14 -96 -93 -159.5t-230 -63.5z" />
    <glyph glyph-name="six" unicode="6" 
d="M293 -10q-149 0 -210 73t-41 213l34 242q20 146 104 219t230 73q128 0 186 -47.5t65 -157.5l-182 -23q-5 61 -23.5 82t-75.5 21q-60 0 -90.5 -38t-43.5 -130l-13 -87h13q30 31 72.5 50.5t114.5 19.5q107 0 156 -61t33 -177l-3 -22q-18 -125 -99.5 -187.5t-226.5 -62.5z
M309 115q66 0 98 33.5t40 92.5l2 13q9 64 -13 99t-88 35t-98 -35t-41 -99l-2 -13q-9 -64 13.5 -95t88.5 -31z" />
    <glyph glyph-name="seven" unicode="7" 
d="M159 0q81 231 149 366.5t200 298.5h-412l19 135h582l-19 -135q-132 -178 -202.5 -323.5t-129.5 -341.5h-187z" />
    <glyph glyph-name="eight" unicode="8" 
d="M293 -10q-149 0 -213 53t-48 164l3 22q11 75 61 123t128 55l4 29q-60 6 -96 45.5t-27 104.5l5 32q14 99 87 145.5t211 46.5t198 -46.5t46 -145.5l-5 -32q-9 -65 -56 -104.5t-109 -45.5l-4 -29q76 -7 113 -55.5t26 -122.5l-3 -22q-16 -111 -94 -164t-227 -53zM362 483
q52 0 79 19.5t34 68.5l3 23q7 49 -14.5 67.5t-73.5 18.5t-79.5 -18.5t-34.5 -67.5l-3 -23q-7 -49 15 -68.5t74 -19.5zM311 120q72 0 100.5 28t35.5 83l2 14q8 56 -12.5 84.5t-92.5 28.5t-100.5 -28.5t-36.5 -84.5l-2 -14q-7 -55 13.5 -83t92.5 -28z" />
    <glyph glyph-name="nine" unicode="9" 
d="M353 412q66 0 98 35.5t41 98.5l2 13q9 64 -14 95t-89 31t-97.5 -33.5t-39.5 -92.5l-2 -13q-9 -63 13 -98.5t88 -35.5zM291 -10q-127 0 -185.5 48.5t-66.5 156.5l183 23q5 -63 24.5 -83t74.5 -20q60 0 90.5 38.5t43.5 129.5l12 87h-13q-30 -32 -74 -51t-114 -19
q-107 0 -155.5 61t-31.5 177l3 22q17 125 99 187.5t227 62.5q149 0 209.5 -73t41.5 -213l-34 -242q-20 -143 -102 -217.5t-232 -74.5z" />
    <glyph glyph-name="onequarter" unicode="&#xbc;" 
d="M174 411l12 85h136l28 198h-19q-7 -20 -21.5 -37t-32.5 -29t-39.5 -19t-44.5 -9l8 96q23 3 47 11t47 22q22 14 41.5 33.5t30.5 44.5h131l-43 -311h124l-12 -85h-393zM-21 246l17 121l315 -20l-12 -81zM377 266l12 81l307 20l-17 -121zM530 -113h-93l-14 -97h-133l14 97
h-254l13 91l259 238h161l-33 -238h93zM168 -22h149l22 156z" />
    <glyph glyph-name="onehalf" unicode="&#xbd;" 
d="M174 411l12 85h136l28 198h-19q-7 -20 -21.5 -37t-32.5 -29t-39.5 -19t-44.5 -9l8 96q23 3 47 11t47 22q22 14 41.5 33.5t30.5 44.5h131l-43 -311h124l-12 -85h-393zM-21 246l17 121l315 -20l-12 -81zM377 266l12 81l307 20l-17 -121zM42 -210l14 94q3 25 12.5 45.5
t25.5 37.5q17 16 41 28t56 18l125 25q20 4 32.5 7.5t20.5 8.5t12.5 12t6.5 17l1 9q1 11 -3.5 18t-14.5 11t-25 5.5t-35 1.5t-34.5 -2t-25.5 -8q-11 -5 -18.5 -15t-10.5 -26l-132 7q6 32 22.5 56t43.5 40q29 16 70 24t97 8t96 -8t63 -23q25 -16 34.5 -38.5t5.5 -52.5l-4 -23
q-3 -22 -13.5 -40t-28.5 -31q-17 -14 -39 -23t-49 -14l-125 -25q-19 -4 -31 -7.5t-21 -8.5q-8 -5 -13 -12t-8 -18h309l-14 -98h-443z" />
    <glyph glyph-name="threequarters" unicode="&#xbe;" 
d="M354 404q-58 0 -99.5 8t-68.5 24q-25 17 -36 41.5t-9 57.5l134 6q0 -16 4 -26.5t14 -16.5t27 -8.5t44 -2.5q25 0 41.5 2t27.5 6q10 4 15.5 10t6.5 16l2 16q2 11 -2 18t-13 11q-11 4 -27 6t-41 2h-94l11 82h94q21 0 36 1.5t24 5.5q10 4 15.5 10.5t6.5 16.5l1 10
q2 9 -2.5 14.5t-13.5 8.5q-10 4 -25 5t-38 1q-22 0 -36 -1.5t-23 -5.5q-8 -4 -13 -10.5t-8 -16.5l-132 6q6 29 22.5 49.5t43.5 34.5q28 14 67 20.5t91 6.5q53 0 92.5 -5.5t64.5 -16.5q25 -12 36.5 -29.5t8.5 -42.5l-2 -11q-2 -17 -11 -31t-22 -24q-14 -10 -30.5 -16
t-36.5 -9l-2 -18q18 -2 35.5 -8t30.5 -16q14 -11 20 -26t4 -33l-1 -10q-5 -29 -21 -50t-44 -35q-29 -14 -71 -20.5t-98 -6.5zM-21 246l17 121l315 -20l-12 -81zM377 266l12 81l307 20l-17 -121zM530 -113h-93l-14 -97h-133l14 97h-254l13 91l259 238h161l-33 -238h93z
M168 -22h149l22 156z" />
    <glyph glyph-name="oneeighth" unicode="&#x215b;" 
d="M174 411l12 85h136l28 198h-19q-7 -20 -21.5 -37t-32.5 -29t-39.5 -19t-44.5 -9l8 96q23 3 47 11t47 22q22 14 41.5 33.5t30.5 44.5h131l-43 -311h124l-12 -85h-393zM-21 246l17 121l315 -20l-12 -81zM377 266l12 81l307 20l-17 -121zM271 -214q-62 0 -104 8t-65 23
q-24 15 -32 36.5t-4 49.5l2 14q3 19 12 34t25 26q14 11 34.5 18t45.5 9l2 18q-20 2 -35.5 7.5t-27.5 14.5q-11 8 -16 20t-3 27l3 20q3 27 19.5 46.5t45.5 31.5q28 13 67.5 19t90.5 6q52 0 89.5 -6t62.5 -18t35.5 -32t7.5 -47l-3 -20q-2 -15 -10.5 -27t-22.5 -20
q-13 -9 -30.5 -14.5t-37.5 -7.5l-2 -18q23 -2 41.5 -9t30.5 -19q12 -11 17 -26t2 -33l-2 -14q-4 -29 -18 -50.5t-42 -36.5q-27 -15 -71 -22.5t-107 -7.5zM307 44q19 0 33.5 1.5t24.5 5.5q11 4 17 10.5t7 16.5l3 19q1 10 -3 16.5t-14 10.5q-9 4 -23 5.5t-33 1.5
q-18 0 -32 -1.5t-25 -5.5q-10 -4 -16 -10.5t-7 -16.5l-3 -19q-1 -10 3 -16.5t13 -10.5q10 -4 23.5 -5.5t31.5 -1.5zM283 -131q27 0 44.5 2.5t28.5 8.5q10 5 15 12.5t6 17.5l2 13q2 11 -1 18.5t-11 13.5q-10 5 -27 8t-44 3q-26 0 -44 -3t-28 -8q-10 -6 -15 -13.5t-7 -18.5
l-2 -13q-1 -10 2 -17.5t11 -12.5q9 -6 26.5 -8.5t43.5 -2.5z" />
    <glyph glyph-name="threeeighths" unicode="&#x215c;" 
d="M354 404q-57 0 -98.5 8t-68.5 24q-25 17 -36.5 41.5t-9.5 57.5l134 6q0 -16 4 -26.5t14 -16.5t27 -8.5t44 -2.5q25 0 41.5 2t27.5 6q10 4 15.5 10t6.5 16l2 16q2 11 -2 18t-13 11q-11 4 -27 6t-41 2h-94l11 82h94q21 0 36 1.5t24 5.5q10 4 15.5 10.5t6.5 16.5l1 10
q2 9 -2.5 14.5t-13.5 8.5q-10 4 -25 5t-38 1q-22 0 -36 -1.5t-23 -5.5q-8 -4 -13 -10.5t-8 -16.5l-132 6q6 31 24 52.5t46 34.5q29 13 67 18.5t87 5.5q50 0 88 -4.5t65 -15.5q27 -10 40 -28.5t9 -45.5l-2 -11q-2 -17 -11 -31t-22 -24q-14 -10 -30.5 -16t-36.5 -9l-2 -18
q18 -2 35.5 -8t30.5 -16q14 -11 20 -26t4 -33l-1 -10q-5 -32 -23 -53.5t-48 -34.5t-70.5 -18.5t-92.5 -5.5zM-21 246l17 121l315 -20l-12 -81zM377 266l12 81l307 20l-17 -121zM271 -214q-62 0 -104 8t-65 23q-24 15 -32 36.5t-4 49.5l2 14q3 19 12 34t25 26q14 11 34.5 18
t45.5 9l2 18q-20 2 -35.5 7.5t-27.5 14.5q-11 8 -16 20t-3 27l3 20q3 27 19.5 46.5t45.5 31.5q28 13 67.5 19t90.5 6q52 0 89.5 -6t62.5 -18t35.5 -32t7.5 -47l-3 -20q-2 -15 -10.5 -27t-22.5 -20q-13 -9 -30.5 -14.5t-37.5 -7.5l-2 -18q23 -2 41.5 -9t30.5 -19
q12 -11 17 -26t2 -33l-2 -14q-4 -29 -18 -50.5t-42 -36.5q-27 -15 -71 -22.5t-107 -7.5zM307 44q19 0 33.5 1.5t24.5 5.5q11 4 17 10.5t7 16.5l3 19q1 10 -3 16.5t-14 10.5q-9 4 -23 5.5t-33 1.5q-18 0 -32 -1.5t-25 -5.5q-10 -4 -16 -10.5t-7 -16.5l-3 -19q-1 -10 3 -16.5
t13 -10.5q10 -4 23.5 -5.5t31.5 -1.5zM283 -131q27 0 44.5 2.5t28.5 8.5q10 5 15 12.5t6 17.5l2 13q2 11 -1 18.5t-11 13.5q-10 5 -27 8t-44 3q-26 0 -44 -3t-28 -8q-10 -6 -15 -13.5t-7 -18.5l-2 -13q-1 -10 2 -17.5t11 -12.5q9 -6 26.5 -8.5t43.5 -2.5z" />
    <glyph glyph-name="fiveeighths" unicode="&#x215d;" 
d="M354 398q-62 0 -103.5 7t-67.5 23q-25 16 -35 41.5t-7 63.5l134 6q-1 -17 3 -27.5t15 -17.5q11 -6 29 -9t46 -3q26 0 42 2.5t26 8.5q10 5 14.5 14t5.5 23l3 16q1 11 -2 18.5t-14 11.5q-10 5 -32 7t-58 2h-187l31 222h414l-11 -84h-281l-8 -55h106q48 0 83 -7t57 -21
t31 -35.5t5 -50.5l-5 -34q-4 -26 -19.5 -48t-43.5 -39q-29 -17 -72 -26t-99 -9zM-21 246l17 121l315 -20l-12 -81zM377 266l12 81l307 20l-17 -121zM271 -214q-62 0 -104 8t-65 23q-24 15 -32 36.5t-4 49.5l2 14q3 19 12 34t25 26q14 11 34.5 18t45.5 9l2 18
q-20 2 -35.5 7.5t-27.5 14.5q-11 9 -16 21t-3 27l3 20q4 27 20 46t45 32q28 12 67.5 18t90.5 6q52 0 90 -5.5t63 -17.5q24 -13 35 -32.5t7 -46.5l-3 -20q-2 -15 -11 -27t-22 -21t-30.5 -14.5t-37.5 -7.5l-2 -18q23 -2 41.5 -9t30.5 -19q12 -11 17 -26t2 -33l-2 -14
q-4 -29 -18 -50.5t-42 -36.5q-27 -15 -71 -22.5t-107 -7.5zM307 44q19 0 33.5 1.5t24.5 5.5q11 4 17 10.5t7 16.5l3 19q1 10 -3 16.5t-14 10.5q-9 4 -23 5.5t-33 1.5q-18 0 -32 -1.5t-25 -5.5q-10 -4 -16 -10.5t-7 -16.5l-3 -19q-1 -10 3 -16.5t13 -10.5q10 -4 23.5 -5.5
t31.5 -1.5zM283 -131q27 0 44.5 2.5t28.5 8.5q10 5 15 12.5t6 17.5l2 13q2 11 -1 18.5t-11 13.5q-10 5 -27 8t-44 3q-26 0 -44 -3t-28 -8q-10 -6 -15 -13.5t-7 -18.5l-2 -13q-1 -10 2 -17.5t11 -12.5q9 -6 26.5 -8.5t43.5 -2.5z" />
    <glyph glyph-name="seveneighths" unicode="&#x215e;" 
d="M275 411q19 46 42 85.5t50 75.5q28 36 61.5 69.5t74.5 68.5h-310l13 97h443l-13 -97q-41 -36 -74.5 -72t-61.5 -73q-27 -37 -48.5 -75t-37.5 -79h-139zM-21 246l17 121l315 -20l-12 -81zM377 266l12 81l307 20l-17 -121zM271 -214q-62 0 -104 8t-65 23q-24 15 -32 36.5
t-4 49.5l2 14q3 19 12 34t25 26q14 11 34.5 18t45.5 9l2 18q-20 2 -35.5 7.5t-27.5 14.5q-11 8 -16 20t-3 27l3 20q3 27 19.5 46.5t45.5 31.5q28 13 67.5 19t90.5 6q52 0 89.5 -6t62.5 -18t35.5 -32t7.5 -47l-3 -20q-2 -15 -10.5 -27t-22.5 -20q-13 -9 -30.5 -14.5
t-37.5 -7.5l-2 -18q23 -2 41.5 -9t30.5 -19q12 -11 17 -26t2 -33l-2 -14q-4 -29 -18 -50.5t-42 -36.5q-27 -15 -71 -22.5t-107 -7.5zM307 44q19 0 33.5 1.5t24.5 5.5q11 4 17 10.5t7 16.5l3 19q1 10 -3 16.5t-14 10.5q-9 4 -23 5.5t-33 1.5q-18 0 -32 -1.5t-25 -5.5
q-10 -4 -16 -10.5t-7 -16.5l-3 -19q-1 -10 3 -16.5t13 -10.5q10 -4 23.5 -5.5t31.5 -1.5zM283 -131q27 0 44.5 2.5t28.5 8.5q10 5 15 12.5t6 17.5l2 13q2 11 -1 18.5t-11 13.5q-10 5 -27 8t-44 3q-26 0 -44 -3t-28 -8q-10 -6 -15 -13.5t-7 -18.5l-2 -13q-1 -10 2 -17.5
t11 -12.5q9 -6 26.5 -8.5t43.5 -2.5z" />
    <glyph glyph-name="underscore" unicode="_" 
d="M-21 -200l21 149h574l-21 -149h-574z" />
    <glyph glyph-name="hyphen" unicode="&#x2011;" 
d="M46 279l21 149h574l-21 -149h-574z" />
    <glyph glyph-name="hyphen" unicode="&#x2010;" 
d="M46 279l21 149h574l-21 -149h-574z" />
    <glyph glyph-name="hyphen" unicode="&#xad;" 
d="M46 279l21 149h574l-21 -149h-574z" />
    <glyph glyph-name="hyphen" unicode="-" 
d="M46 279l21 149h574l-21 -149h-574z" />
    <glyph glyph-name="endash" unicode="&#x2013;" 
d="M41 279l21 149h584l-21 -149h-584z" />
    <glyph glyph-name="emdash" unicode="&#x2014;" 
d="M-17 279l21 149h700l-21 -149h-700z" />
    <glyph glyph-name="horizontalbar" unicode="&#x2015;" 
d="M-17 279l21 149h700l-21 -149h-700z" />
    <glyph glyph-name="parenleft" unicode="(" 
d="M485 -210q-213 37 -286.5 179.5t-47.5 330.5q26 183 140 328t338 182l1 -114q-150 -37 -218.5 -139.5t-90.5 -256.5q-21 -154 19 -253.5t179 -136.5z" />
    <glyph glyph-name="parenright" unicode=")" 
d="M43 -210v120q151 37 219 139t89 251q20 143 -18.5 251t-178.5 145l33 114q214 -37 287 -182t47 -328q-26 -188 -139.5 -330.5t-338.5 -179.5z" />
    <glyph glyph-name="bracketleft" unicode="[" 
d="M81 -200l140 1000h420l-17 -125h-250l-106 -754h250l-17 -121h-420z" />
    <glyph glyph-name="bracketright" unicode="]" 
d="M31 -200l17 121h250l106 754h-250l17 125h420l-140 -1000h-420z" />
    <glyph glyph-name="braceleft" 
d="M499 -210q-251 -3 -355 34.5t-91 131.5q6 45 26 75t57 60q38 31 57 50.5t21 37.5q7 47 -40 66.5t-177 22.5l12 88q131 3 183.5 22t58.5 65q3 18 -10.5 34t-42.5 40q-31 25 -43 52t-6 70q13 96 128 135t366 36l-18 -125q-169 3 -236.5 -13t-73.5 -59q-3 -21 8.5 -39
t44.5 -45q34 -26 45 -47t6 -52q-8 -59 -70.5 -86t-207.5 -31l-1 -5q143 -10 198 -38.5t47 -84.5q-4 -32 -21 -53t-58 -49q-41 -25 -58 -45.5t-20 -47.5q-7 -46 55.5 -63t233.5 -14z" />
    <glyph glyph-name="braceright" 
d="M523 -44q-13 -94 -128 -131.5t-366 -34.5l18 123q169 -3 236.5 14t74.5 63q3 27 -8 47.5t-44 45.5q-33 28 -44 49t-7 53q8 56 71 84.5t208 38.5l1 5q-143 4 -198.5 31t-47.5 86q5 31 22 52t57 47q41 27 57.5 45t19.5 39q6 43 -56.5 59t-233.5 13l18 125q251 3 355 -36
t91 -135q-6 -43 -26 -70t-57 -52q-37 -24 -54.5 -40t-20.5 -34q-6 -46 40.5 -65t177.5 -22l-12 -88q-132 -3 -184 -22.5t-59 -66.5q-2 -18 11 -37.5t43 -50.5q29 -30 40 -60t5 -75z" />
    <glyph glyph-name="numbersign" unicode="#" 
d="M394 297l39 206h-126l-39 -206h126zM337 0l34 179h-126l-34 -179h-132l34 179h-129l17 118h135l39 206h-145l16 118h151l34 179h132l-34 -179h126l34 179h132l-34 -179h129l-16 -118h-135l-39 -206h145l-17 -118h-151l-34 -179h-132z" />
    <glyph glyph-name="percent" unicode="%" 
d="M201 462q-75 0 -115 38t-29 117l6 46q11 80 62.5 118.5t125.5 38.5t113.5 -38.5t28.5 -118.5l-6 -46q-11 -79 -62 -117t-124 -38zM214 554q22 0 36.5 13.5t18.5 44.5l8 57q4 31 -6.5 45.5t-32.5 14.5t-37.5 -14.5t-19.5 -45.5l-8 -57q-4 -31 7.5 -44.5t33.5 -13.5zM5 186
l638 510l60 -80l-644 -512zM451 -22q-75 0 -115 38t-29 117l6 46q11 80 62.5 118.5t125.5 38.5t113.5 -38.5t28.5 -118.5l-6 -46q-11 -79 -62 -117t-124 -38zM463 66q22 0 36.5 13.5t18.5 44.5l8 57q5 31 -5.5 45.5t-32.5 14.5t-37.5 -14.5t-20.5 -45.5l-8 -57
q-4 -31 7.5 -44.5t33.5 -13.5z" />
    <glyph glyph-name="perthousand" unicode="&#x2030;" 
d="M188 462q-69 0 -106 37t-26 115l8 52q11 78 58.5 116t115.5 38t104.5 -38t25.5 -116l-8 -52q-11 -78 -58 -115t-114 -37zM166 609q-5 -30 5.5 -42.5t29.5 -12.5t31.5 12.5t17.5 42.5l8 63q5 29 -4.5 43t-28.5 14t-32.5 -14t-18.5 -43zM699 606l-662 -433l-39 73l657 431z
M500 -22q-30 0 -51 13t-31 41q-19 -28 -45 -41t-57 -13q-51 0 -78 37t-16 115l7 45q11 78 50 116t93 38q29 0 50.5 -13t30.5 -41q18 28 42.5 41t53.5 13q54 0 82.5 -38t17.5 -116l-7 -45q-11 -78 -49.5 -115t-92.5 -37zM317 122q-4 -30 3 -42.5t22 -12.5t25 12.5t14 42.5
l9 62q4 29 -2 43t-21 14t-26 -14t-15 -43zM481 122q-4 -30 2.5 -42.5t21.5 -12.5t25 12.5t14 42.5l9 62q4 29 -2 43t-21 14t-25.5 -14t-14.5 -43z" />
    <glyph glyph-name="quotesingle" unicode="'" 
d="M271 365l27 435h216l-95 -435h-148z" />
    <glyph glyph-name="quotedbl" unicode="&#x22;" 
d="M428 365l27 435h202l-95 -435h-134zM128 365l27 435h202l-95 -435h-134z" />
    <glyph glyph-name="quoteleft" unicode="&#x2018;" 
d="M167 365l304 435h114l-161 -435h-257z" />
    <glyph glyph-name="quoteleft" unicode="&#x2bb;" 
d="M167 365l304 435h114l-161 -435h-257z" />
    <glyph glyph-name="quoteright" unicode="&#x2019;" 
d="M166 365l161 435h257l-304 -435h-114z" />
    <glyph glyph-name="quotedblleft" unicode="&#x201c;" 
d="M338 365l283 435h97l-147 -435h-233zM38 365l290 435h97l-154 -435h-233z" />
    <glyph glyph-name="quotedblright" unicode="&#x201d;" 
d="M326 365l154 435h233l-290 -435h-97zM33 365l147 435h233l-283 -435h-97z" />
    <glyph glyph-name="quotereversed" unicode="&#x201b;" 
d="M389 365l-182 435h258l38 -435h-114z" />
    <glyph glyph-name="quotesinglbase" unicode="&#x201a;" 
d="M102 -165l141 435h257l-284 -435h-114z" />
    <glyph glyph-name="quotedblbase" unicode="&#x201e;" 
d="M296 -165l154 435h233l-290 -435h-97zM3 -165l147 435h233l-283 -435h-97z" />
    <glyph glyph-name="guilsinglleft" unicode="&#x2039;" 
d="M485 44l-339 221l24 170l401 221l-21 -151l-281 -155l237 -155z" />
    <glyph glyph-name="guilsinglright" unicode="&#x203a;" 
d="M115 44l21 151l281 155l-237 155l21 151l339 -221l-24 -170z" />
    <glyph glyph-name="guillemotleft" unicode="&#xab;" 
d="M612 44l-257 221l24 170l319 221l-21 -151l-224 -155l180 -155zM277 44l-257 221l24 170l319 221l-21 -151l-224 -155l180 -155z" />
    <glyph glyph-name="guillemotright" unicode="&#xbb;" 
d="M-11 44l21 151l224 155l-180 155l21 151l257 -221l-24 -170zM324 44l21 151l224 155l-180 155l21 151l257 -221l-24 -170z" />
    <glyph glyph-name="asterisk" unicode="*" 
d="M553 266l-165 176l8 -242h-150l77 241l-214 -175l-56 130l256 105l-227 105l93 130l165 -176l-10 240h150l-75 -241l214 177l57 -130l-258 -105l229 -105z" />
    <glyph glyph-name="dagger" unicode="&#x2020;" 
d="M192 -200l95 675h-76l-64 -217h-122l78 342h200l19 200h169l-38 -200h200l-18 -342h-122l-2 217h-75l-95 -675h-149z" />
    <glyph glyph-name="daggerdbl" unicode="&#x2021;" 
d="M182 -200l32 179h-201l5 251h115l23 -126h79l55 392h-79l-58 -126h-115l65 251h201l18 179h169l-32 -179h201l-5 -251h-115l-22 126h-79l-55 -392h79l57 126h115l-65 -251h-201l-18 -179h-169z" />
    <glyph glyph-name="period" unicode="." 
d="M294 -10q-63 0 -97.5 27.5t-27.5 78.5l10 69q7 52 49 80t105 28q62 0 96 -28t27 -80l-10 -69q-7 -51 -49.5 -78.5t-102.5 -27.5z" />
    <glyph glyph-name="comma" unicode="," 
d="M102 -165l141 435h257l-284 -435h-114z" />
    <glyph glyph-name="colon" unicode=":" 
d="M349 387q-57 0 -89.5 24.5t-25.5 70.5l7 55q7 47 46.5 72t96.5 25t88.5 -25t24.5 -72l-7 -55q-7 -46 -46.5 -70.5t-94.5 -24.5zM294 -6q-57 0 -89.5 24.5t-25.5 70.5l7 55q7 47 46.5 72t96.5 25t88.5 -25t24.5 -72l-7 -55q-7 -46 -46.5 -70.5t-94.5 -24.5z" />
    <glyph glyph-name="semicolon" unicode=";" 
d="M349 387q-57 0 -89.5 24.5t-25.5 70.5l7 55q7 47 46.5 72t96.5 25t88.5 -25t24.5 -72l-7 -55q-7 -46 -46.5 -70.5t-94.5 -24.5zM117 -150l131 405h238l-264 -405h-105z" />
    <glyph glyph-name="ellipsis" unicode="&#x2026;" 
d="M532 -9q-34 0 -53.5 20.5t-12.5 63.5l15 112q6 44 31 65t59 21q35 0 53.5 -21t12.5 -65l-15 -112q-7 -43 -31.5 -63.5t-58.5 -20.5zM293 -9q-34 0 -53.5 20.5t-12.5 63.5l15 112q6 44 31 65t59 21q35 0 53.5 -21t12.5 -65l-15 -112q-7 -43 -31.5 -63.5t-58.5 -20.5z
M55 -9q-35 0 -54.5 20.5t-12.5 63.5l15 112q6 44 31 65t60 21q34 0 52.5 -21t12.5 -65l-15 -112q-7 -43 -31 -63.5t-58 -20.5z" />
    <glyph glyph-name="exclam" unicode="!" 
d="M258 300l40 500h210l-100 -500h-150zM294 -10q-66 0 -96.5 20.5t-24.5 63.5l4 28q7 44 42.5 65t101.5 21t96 -21t23 -65l-4 -28q-6 -43 -42 -63.5t-100 -20.5z" />
    <glyph glyph-name="exclamdown" unicode="&#xa1;" 
d="M408 810q66 0 96 -20.5t24 -63.5l-4 -28q-6 -44 -42 -65t-102 -21t-95.5 21t-23.5 65l4 28q6 43 42.5 63.5t100.5 20.5zM444 500l-40 -500h-210l100 500h150z" />
    <glyph glyph-name="exclamdbl" unicode="&#x203c;" 
d="M447 300l40 500h182l-100 -500h-122zM111 300l40 500h182l-100 -500h-122zM469 -10q-30 0 -51.5 5t-35.5 15q-12 11 -17.5 26.5t-2.5 37.5l4 28q3 22 13 38.5t25 26.5q17 11 39.5 16t52.5 5t51.5 -5t33.5 -16q14 -10 18.5 -26.5t1.5 -38.5l-4 -28q-3 -22 -12.5 -37.5
t-26.5 -26.5q-15 -10 -37.5 -15t-51.5 -5zM133 -10q-30 0 -51.5 5t-35.5 15q-12 11 -17.5 26.5t-2.5 37.5l4 28q3 22 13 38.5t25 26.5q17 11 39.5 16t52.5 5t51.5 -5t33.5 -16q14 -10 18.5 -26.5t1.5 -38.5l-4 -28q-3 -22 -12.5 -37.5t-26.5 -26.5q-15 -10 -37.5 -15
t-51.5 -5z" />
    <glyph glyph-name="question" unicode="?" 
d="M218 278l-4 116q158 25 213.5 61.5t64.5 96.5l3 23q7 52 -13 81t-92 29q-77 0 -104 -30t-45 -106l-168 10q25 132 104 191.5t230 59.5q148 0 210 -65.5t49 -160.5l-5 -36q-17 -119 -122 -179t-321 -91zM245 -10q-66 0 -96 20.5t-24 63.5l4 28q7 44 42 65t101 21t96.5 -21
t23.5 -65l-4 -28q-6 -43 -42.5 -63.5t-100.5 -20.5z" />
    <glyph glyph-name="questiondown" unicode="&#xbf;" 
d="M456 810q66 0 96 -20.5t24 -63.5l-4 -28q-6 -44 -42 -65t-102 -21t-95.5 21t-23.5 65l4 28q6 43 42.5 63.5t100.5 20.5zM482 522l4 -116q-157 -25 -213 -61.5t-64 -96.5l-3 -23q-8 -52 12 -81t92 -29q77 0 104.5 30t44.5 106l169 -10q-26 -131 -104.5 -191t-229.5 -60
q-148 0 -210.5 65.5t-49.5 161.5l5 35q17 119 122 179t321 91z" />
    <glyph glyph-name="slash" unicode="/" 
d="M-5 -200l540 1000h142l-540 -1000h-142z" />
    <glyph glyph-name="backslash" unicode="\" 
d="M395 -199l-259 1000l141 -1l260 -1000z" />
    <glyph glyph-name="fraction" unicode="&#x2215;" 
d="M23 0l512 800h142l-512 -800h-142z" />
    <glyph glyph-name="fraction" unicode="&#x2044;" 
d="M23 0l512 800h142l-512 -800h-142z" />
    <glyph glyph-name="bar" unicode="|" 
d="M197 -200l140 1000h139l-140 -1000h-139z" />
    <glyph glyph-name="brokenbar" unicode="&#xa6;" 
d="M281 400l56 400h139l-56 -400h-139zM197 -200l56 400h139l-56 -400h-139z" />
    <glyph glyph-name="at" unicode="@" 
d="M330 -110q-178 0 -252.5 95t-52.5 252l36 256q20 143 109.5 230t246.5 87q141 0 205.5 -81.5t44.5 -225.5l-30 -210q-14 -92 -75 -134t-158 -42q-104 0 -146 47.5t-30 131.5l13 94q11 83 60 133t118 50q55 0 86 -20t43 -49h30q13 107 -23.5 160.5t-151.5 53.5
q-112 0 -169 -59t-72 -166l-35 -249q-17 -122 32.5 -190.5t183.5 -68.5q57 0 107 8.5t93 20.5l-14 -96q-41 -10 -94.5 -19t-104.5 -9zM421 218q31 0 51 15.5t27 64.5l12 84q6 48 -9.5 69t-45.5 21q-31 0 -51.5 -21t-27.5 -71l-10 -74q-7 -47 7.5 -67.5t46.5 -20.5z" />
    <glyph glyph-name="ampersand" unicode="&#x26;" 
d="M608 -17q-53 15 -101 40.5t-89 58.5q-50 -43 -104.5 -67.5t-129.5 -24.5q-92 0 -146 54.5t-41 149.5q11 76 53 130t124 101q-16 48 -22.5 90.5t-1.5 75.5q14 102 77 161t159 59q91 0 132 -53.5t32 -117.5q-11 -76 -57.5 -121.5t-180.5 -110.5q6 -16 14 -31.5t16 -30.5
q16 -29 36 -57t42 -53q24 36 52.5 84t59.5 107l126 -32q-41 -67 -87 -125.5t-90 -106.5l172 -60zM291 589q-4 -25 -3.5 -51t5.5 -51q52 26 84.5 58t38.5 75q6 40 -6.5 60t-40.5 20q-34 0 -52 -27.5t-26 -83.5zM244 100q28 0 53.5 10t50.5 34q-28 28 -52 59t-45 63
q-10 18 -21 36t-19 36q-23 -26 -37.5 -59.5t-18.5 -67.5q-8 -57 15 -84t74 -27z" />
    <glyph glyph-name="section" unicode="&#xa7;" 
d="M315 223q9 -2 17.5 -4t17.5 -4q37 1 68 17t36 54q6 44 -22 61.5t-70 26.5l-18 4t-17 4q-37 -1 -68 -16.5t-36 -54.5q-6 -44 22.5 -61t69.5 -27zM283 -207q-80 0 -151.5 27.5t-117.5 66.5l67 123q52 -38 104 -61.5t121 -23.5q42 0 75.5 15t38.5 51q6 46 -37 64t-99 30
q-122 25 -184.5 69t-49.5 139q7 52 45.5 86t95.5 52q-54 29 -79.5 72t-16.5 107q13 93 96.5 143.5t202.5 50.5q80 0 149 -27.5t120 -66.5l-74 -116q-52 35 -102.5 56.5t-116.5 21.5q-50 0 -79 -19t-34 -53q-6 -43 42.5 -60.5t128.5 -35.5q98 -19 155 -62t44 -138
q-8 -53 -41.5 -89.5t-82.5 -57.5q46 -28 66.5 -69.5t12.5 -100.5q-13 -92 -95 -143t-204 -51z" />
    <glyph glyph-name="paragraph" unicode="&#xb6;" 
d="M485 340h-86l-76 -540h-135l76 541q-84 4 -140 49t-42 147l8 52q15 110 91.5 160.5t166.5 50.5h336l-140 -1000h-135z" />
    <glyph glyph-name="lsquare" unicode="&#x2113;" 
d="M334 361q17 0 29 2.5t22 9.5q12 8 20 21t15 34l54 173q6 20 7 34.5t-3 23.5q-4 10 -15 14.5t-29 4.5q-17 0 -29.5 -2.5t-23.5 -10.5q-11 -7 -19 -21t-16 -37l-58 -184q-5 -16 -4.5 -27.5t5.5 -19.5q6 -7 17 -11t28 -4zM472 43q-29 -12 -57.5 -21.5t-56.5 -15.5
q-28 -7 -55.5 -10t-53.5 -3q-58 0 -101.5 15t-69.5 46q-27 31 -32 78.5t15 110.5l117 370q17 53 45.5 91.5t67.5 61.5q38 23 82 33.5t94 10.5q62 0 104 -11t64 -35q23 -24 26 -62.5t-14 -92.5l-64 -202q-12 -40 -36 -70t-56 -49t-70.5 -28.5t-81.5 -9.5q-16 0 -29.5 1.5
t-26.5 4.5t-23 7t-19 10l-14 -43q-7 -26 -5.5 -46t12.5 -33q10 -13 29 -19t44 -6q18 0 39 3t45 10q23 6 48.5 15t50.5 20z" />
    <glyph glyph-name="numero" unicode="&#x2116;" 
d="M262 632l-34 -243h-146l57 411h173l180 -257l36 257h146l-57 -411h-186zM365 -11q-87 0 -135.5 36t-38.5 110l6 46q11 74 70 111t146 37q88 0 136 -37t37 -111l-6 -46q-10 -74 -69 -110t-146 -36zM378 80q29 0 47 14t23 48l4 32q4 28 -9.5 42.5t-43.5 14.5
q-31 0 -48 -14.5t-21 -42.5l-4 -32q-5 -34 8 -48t44 -14z" />
    <glyph glyph-name="periodcentered" unicode="&#x2219;" 
d="M331 259q-63 0 -97 27t-27 78l10 70q7 51 49 79.5t105 28.5q62 0 96 -28.5t27 -79.5l-10 -70q-7 -51 -50 -78t-103 -27z" />
    <glyph glyph-name="periodcentered" unicode="&#xb7;" 
d="M331 259q-63 0 -97 27t-27 78l10 70q7 51 49 79.5t105 28.5q62 0 96 -28.5t27 -79.5l-10 -70q-7 -51 -50 -78t-103 -27z" />
    <glyph glyph-name="bullet" unicode="&#x2022;" 
d="M328 236q-75 0 -117 30.5t-33 95.5l10 72q9 66 60 97.5t126 31.5t116.5 -31.5t32.5 -97.5l-10 -72q-9 -65 -60.5 -95.5t-124.5 -30.5z" />
    <glyph glyph-name="anoteleia" unicode="&#x387;" 
d="M331 259q-63 0 -97 27t-27 78l10 70q7 51 49 79.5t105 28.5q62 0 96 -28.5t27 -79.5l-10 -70q-7 -51 -50 -78t-103 -27z" />
    <glyph glyph-name="underscoredbl" unicode="&#x2017;" 
d="M-21 0l21 149h574l-21 -149h-574zM-21 -270l21 149h574l-21 -149h-574z" />
    <glyph glyph-name="minute" unicode="&#x2032;" 
d="M166 365l161 435h257l-304 -435h-114z" />
    <glyph glyph-name="second" unicode="&#x2033;" 
d="M296 365l154 435h233l-290 -435h-97zM3 365l147 435h233l-283 -435h-97z" />
    <glyph glyph-name="overline" unicode="&#x203e;" 
d="M-21 851l21 149h574l-21 -149h-574z" />
    <glyph glyph-name="plus" unicode="+" 
d="M228 33l34 246h-216l20 142h216l35 246h142l-35 -246h216l-20 -142h-216l-34 -246h-142z" />
    <glyph glyph-name="minus" unicode="&#x2212;" 
d="M46 279l20 142h574l-20 -142h-574z" />
    <glyph glyph-name="plusminus" unicode="&#xb1;" 
d="M228 133l34 246h-216l20 142h216l35 246h142l-35 -246h216l-20 -142h-216l-34 -246h-142zM46 0l20 142h574l-20 -142h-574z" />
    <glyph glyph-name="divide" unicode="&#xf7;" 
d="M367 516q-44 0 -69.5 17.5t-19.5 55.5l2 19q6 39 36 57.5t74 18.5t68.5 -18.5t18.5 -57.5l-2 -19q-6 -38 -35.5 -55.5t-72.5 -17.5zM47 286l18 128h574l-18 -128h-574zM296 16q-44 0 -69 17.5t-19 55.5l2 19q6 39 36 57.5t74 18.5t68.5 -18.5t18.5 -57.5l-2 -19
q-6 -38 -36 -55.5t-73 -17.5z" />
    <glyph glyph-name="multiply" unicode="&#xd7;" 
d="M111 36l-78 91l219 223l-156 224l103 91l157 -224l219 222l78 -91l-219 -222l157 -222l-104 -91l-157 222z" />
    <glyph glyph-name="equal" unicode="=" 
d="M68 433l20 142h574l-20 -142h-574zM25 125l20 142h574l-20 -142h-574z" />
    <glyph glyph-name="less" unicode="&#x3c;" 
d="M552 6l-478 259l24 170l551 259l-20 -137l-439 -207l381 -207z" />
    <glyph glyph-name="greater" unicode="&#x3e;" 
d="M38 6l18 130l454 214l-394 214l19 130l477 -259l-24 -170z" />
    <glyph glyph-name="lessequal" unicode="&#x2264;" 
d="M579 200l-484 215l24 170l544 215l-19 -137l-410 -163l364 -163zM37 0l17 122h514l-17 -122h-514z" />
    <glyph glyph-name="greaterequal" unicode="&#x2265;" 
d="M65 200l19 137l410 163l-364 163l19 137l484 -215l-24 -170zM551 0h-514l17 122h514z" />
    <glyph glyph-name="approxequal" unicode="&#x2248;" 
d="M477 383q-24 0 -44.5 6.5t-39.5 19.5q-17 13 -32 33.5t-28 48.5q-31 65 -39.5 78.5t-18.5 20.5q-6 3 -11.5 5t-12.5 2q-12 0 -22.5 -5.5t-18.5 -17.5q-9 -13 -15.5 -33t-10.5 -48l-11 -79h-118l12 85q8 56 25 99t43 73t57.5 45t68.5 15q24 0 44.5 -6.5t37.5 -19.5
q18 -13 33.5 -32.5t29.5 -47.5q20 -46 25 -56.5t14 -23.5t19.5 -20.5t23.5 -7.5q12 0 22 5.5t18 18.5q9 12 15 32.5t10 48.5l11 78h118l-12 -85q-7 -56 -24.5 -99t-43.5 -73q-25 -30 -56.5 -45t-68.5 -15zM421 -17q-24 0 -45 6.5t-39 19.5q-17 13 -32 33.5t-28 48.5
q-20 40 -26 52.5t-15 25.5q-9 14 -20 21t-24 7q-12 0 -22 -5.5t-18 -17.5q-8 -13 -14 -33t-10 -48l-11 -79h-118l12 85q8 56 25 99t43 73q25 30 57 45t69 15q24 0 44.5 -6.5t37.5 -19.5q18 -13 33.5 -32.5t29.5 -47.5q14 -33 22 -49.5t18 -30.5q10 -13 20.5 -20.5t23.5 -7.5
q12 0 22 5.5t18 18.5q8 12 13.5 32t9.5 49l11 78h118l-12 -85q-8 -56 -25 -99t-43 -73q-25 -30 -56.5 -45t-68.5 -15z" />
    <glyph glyph-name="notequal" unicode="&#x2260;" 
d="M605 173h-280l-67 -173h-128l67 173h-166l19 135h200l72 185h-246l19 135h280l67 172h128l-67 -172h166l-19 -135h-200l-72 -185h246z" />
    <glyph glyph-name="logicalnot" unicode="&#xac;" 
d="M439 0l39 279h-432l20 142h574l-59 -421h-142z" />
    <glyph glyph-name="uni23af" unicode="&#x23af;" 
d="M0 315v170h700v-170h-700z" />
    <glyph glyph-name="arrowleft" unicode="&#x2190;" 
d="M365 40l-365 350v20l365 350h20v-275h315v-170h-315v-275h-20z" />
    <glyph glyph-name="arrowup" unicode="&#x2191;" 
d="M265 -35v450h-257v20l332 400h20l333 -400v-20h-258v-450h-170z" />
    <glyph glyph-name="arrowright" unicode="&#x2192;" 
d="M315 40v275h-315v170h315v275h20l365 -350v-20l-365 -350h-20z" />
    <glyph glyph-name="arrowdown" unicode="&#x2193;" 
d="M340 -70l-350 400v20h275v450h170v-450h275v-20l-350 -400h-20z" />
    <glyph glyph-name="arrowboth" unicode="&#x2194;" 
d="M273 315v-275h-20l-253 350v20l253 350h20v-275h154v275h20l253 -350v-20l-253 -350h-20v275h-154z" />
    <glyph glyph-name="partialdiff" unicode="&#x2202;" 
d="M290 -10q-63 0 -112 14.5t-81 43.5q-32 30 -44 74.5t-1 103.5l11 58q9 49 31.5 88.5t57.5 67.5q34 28 77.5 42.5t92.5 14.5q29 0 53 -5.5t42 -15.5t30 -23.5t17 -28.5h21q6 57 -3.5 98.5t-39.5 73.5t-85.5 58t-143.5 49l120 114q100 -28 166 -67.5t102 -93.5t44.5 -125
t-8.5 -163l-25 -136q-11 -62 -39 -108t-70 -76q-41 -29 -95 -43.5t-118 -14.5zM311 114q29 0 50.5 6.5t36.5 18.5q15 13 24.5 32t14.5 46l13 63q5 24 2.5 41t-13.5 28q-11 12 -30.5 17.5t-48.5 5.5q-30 0 -51.5 -5.5t-35.5 -17.5q-15 -11 -24 -28t-14 -41l-13 -63
q-5 -26 -3 -45t13 -32t30.5 -19.5t48.5 -6.5z" />
    <glyph glyph-name="Delta#1" unicode="&#x2206;" 
d="M-23 0l19 132l297 668h231l106 -668l-19 -132h-634zM468 132l-78 552l-239 -552h317z" />
    <glyph glyph-name="product" unicode="&#x220f;" 
d="M-19 -200l140 1000h570l-140 -1000h-170l122 868h-230l-122 -868h-170z" />
    <glyph glyph-name="summation" unicode="&#x2211;" 
d="M554 -68l-18 -132h-550l18 132l378 378l-274 358l18 132h550l-18 -132h-382l223 -299l-15 -106l-325 -331h395z" />
    <glyph glyph-name="mu1" unicode="&#xb5;" 
d="M193 20l-21 -220h-190l41 220l81 580h170l-54 -383q-6 -49 13.5 -69.5t50.5 -20.5q32 0 57 14t50 40l59 419h170l-57 -405q-6 -49 8 -62.5t54 -8.5l-17 -121q-72 -15 -108.5 4.5t-49.5 78.5h-27q-21 -38 -56.5 -67t-86.5 -29q-31 0 -51.5 10.5t-33.5 32.5z" />
    <glyph glyph-name="radical" unicode="&#x221a;" 
d="M246 0l-104 362l-134 -19l18 127l219 30l95 -362l280 762h162l-341 -900h-195z" />
    <glyph glyph-name="infinity" unicode="&#x221e;" 
d="M159 113q-32 0 -58.5 19t-44.5 56q-18 36 -23.5 90.5t3.5 122.5q10 68 31.5 122t51.5 91q30 36 65.5 54.5t71.5 18.5q29 0 50.5 -12.5t36.5 -34.5q15 -23 24.5 -51.5t14.5 -63.5q19 37 36.5 65.5t37.5 50.5t42.5 34t47.5 12q30 0 55.5 -19t43.5 -56t23.5 -91t-4.5 -121
q-9 -69 -31 -123t-52 -90q-31 -37 -66.5 -55.5t-73.5 -18.5q-27 0 -48 12t-35 34q-14 21 -23.5 49t-16.5 63q-18 -36 -35 -64t-37 -49q-19 -21 -41 -33t-46 -12zM460 227q12 0 23 9.5t22 31.5q11 21 19.5 55t15.5 82q5 45 5.5 77.5t-4.5 52.5q-4 20 -12 29t-20 9
q-14 0 -28.5 -10.5t-28.5 -29.5q-13 -19 -26.5 -43t-28.5 -57q5 -56 11 -93t12 -63q7 -25 17 -37.5t23 -12.5zM192 227q14 0 28.5 10.5t27.5 28.5q13 19 26.5 42.5t28.5 55.5q-5 57 -10 94.5t-13 63.5q-6 25 -15.5 38t-23.5 13q-12 0 -23 -9.5t-22 -31.5q-11 -21 -20 -55
t-15 -82q-6 -45 -6.5 -77.5t4.5 -52.5q4 -20 12.5 -29t20.5 -9z" />
    <glyph glyph-name="orthogonal" unicode="&#x221f;" 
d="M44 0l98 700h170l-78 -561h350l-20 -139h-520z" />
    <glyph glyph-name="intersection" unicode="&#x2229;" 
d="M23 0l62 444q9 63 35 112.5t66 84.5q41 34 94 51.5t115 17.5t109.5 -17.5t77.5 -51.5q31 -35 42.5 -84.5t2.5 -112.5l-62 -444h-170l61 434q5 37 3.5 64t-12.5 45q-9 17 -27 26t-45 9t-47 -9t-35 -27t-24.5 -45.5t-14.5 -64.5l-61 -432h-170z" />
    <glyph glyph-name="integral" unicode="&#x222b;" 
d="M107 -205q-19 0 -37.5 1.5t-35.5 4.5q-18 3 -34 7t-33 10l36 114q15 -5 28.5 -8.5t25.5 -5.5q12 -3 24 -4t23 -1q24 0 42 6t31 19q14 13 22.5 35t13.5 53l83 593q7 52 31.5 92t60.5 66q37 27 83 40t96 13q19 0 37 -1.5t37 -4.5q17 -3 33.5 -7t32.5 -10l-36 -114
q-13 5 -26 8.5t-26 5.5q-12 3 -24 4t-24 1q-24 0 -42 -6t-30 -19q-14 -13 -22.5 -35t-13.5 -53l-83 -593q-7 -52 -31.5 -92t-61.5 -66q-37 -27 -83 -40t-97 -13z" />
    <glyph glyph-name="equivalence" unicode="&#x2261;" 
d="M79 514l20 142h574l-20 -142h-574zM45 272l20 142h574l-20 -142h-574zM11 30l20 142h574l-20 -142h-574z" />
    <glyph glyph-name="integralbt" unicode="&#x2321;" 
d="M144 -205q-17 0 -35 1.5t-37 4.5q-19 2 -36.5 6.5t-33.5 10.5l36 114q15 -5 28.5 -8.5t25.5 -5.5q12 -3 24 -4t23 -1q24 0 42.5 6.5t31.5 19.5q13 14 21.5 35.5t13.5 51.5l108 774h170l-111 -794q-8 -53 -32.5 -93t-61.5 -66t-82.5 -39t-94.5 -13z" />
    <glyph glyph-name="dollar" unicode="$" 
d="M237 563q-4 -30 13.5 -49.5t66.5 -33.5l23 158q-48 -4 -73 -21t-30 -54zM480 239q4 31 -17 51t-79 35l-24 -166q57 2 85.5 21t34.5 59zM341 -50h-108l13 94q-83 7 -140.5 29.5t-98.5 51.5l55 116q42 -28 91 -50.5t120 -29.5l25 181q-131 23 -180.5 68t-37.5 132t79 144.5
t187 68.5l13 95h108l-13 -94q60 -6 116.5 -24.5t88.5 -43.5l-48 -112q-43 25 -85.5 40.5t-97.5 20.5l-25 -175q141 -25 193.5 -72t40.5 -135q-13 -93 -88 -148t-195 -64z" />
    <glyph glyph-name="cent" unicode="&#xa2;" 
d="M219 331q-8 -55 7.5 -84t60.5 -36l53 377q-47 -7 -70.5 -35.5t-31.5 -83.5zM236 -50l20 143q-114 11 -165 71t-36 163l21 150q15 104 84 162t182 68l20 143h108l-19 -142q106 -11 151 -67.5t42 -153.5l-157 -13q3 55 -12 81t-54 33l-53 -378q44 6 64.5 29.5t31.5 76.5
l155 -13q-21 -95 -78 -148.5t-177 -62.5l-20 -142h-108z" />
    <glyph glyph-name="sterling" unicode="&#xa3;" 
d="M648 259q-25 -131 -91 -200t-163 -69q-44 0 -83 18t-76 34q-31 13 -55.5 20.5t-55.5 -11.5l-100 -60l-59 106l107 60q38 21 70.5 62.5t37.5 81.5q3 18 1.5 33.5t-6.5 29.5h-147l14 97h91q-10 23 -16 49.5t-1 58.5q15 108 95 174.5t209 66.5q142 0 194.5 -66t41.5 -197
l-158 -10q4 69 -14 101.5t-84 32.5q-60 0 -90 -27.5t-37 -76.5q-4 -28 3 -54.5t20 -51.5h153l-14 -97h-103q2 -13 2.5 -26.5t-2.5 -28.5q-5 -38 -35 -70t-94 -60l13 -32q33 16 54 19t40 -2q21 -5 38.5 -15.5t39.5 -10.5q49 0 69.5 29.5t36.5 101.5z" />
    <glyph glyph-name="currency" unicode="&#xa4;" 
d="M325 222q43 0 67 22t32 73l22 162q7 51 -10.5 75t-60.5 24t-67.5 -24t-31.5 -75l-22 -162q-8 -51 10 -73t61 -22zM307 90q-49 0 -88.5 11.5t-67.5 33.5l-104 -93l-66 77l117 105q-4 20 -4 43.5t4 49.5l22 162q4 27 11.5 51t17.5 45l-89 106l88 77l78 -94q35 23 77.5 34.5
t91.5 11.5t88.5 -11.5t66.5 -35.5l103 90l66 -77l-117 -103q4 -20 4 -44t-4 -50l-22 -162q-4 -23 -9.5 -43.5t-13.5 -39.5l84 -110l-87 -77l-78 90q-34 -24 -77 -35.5t-92 -11.5z" />
    <glyph glyph-name="yen" unicode="&#xa5;" 
d="M593 100h-200l-14 -100h-170l14 100h-200l14 97h200l14 103h-200l14 97h153l-141 403h172l107 -356l207 356h171l-252 -403h153l-14 -97h-200l-14 -103h200z" />
    <glyph glyph-name="franc" unicode="&#x20a3;" 
d="M386 150h-165l-21 -150h-170l21 150h-100l16 111h100l75 539h555l-18 -132h-385l-21 -147h315l-18 -132h-315l-18 -128h165z" />
    <glyph glyph-name="lira" unicode="&#x20a4;" 
d="M657 259q-13 -66 -36.5 -116t-56.5 -84t-75.5 -51.5t-92.5 -17.5q-20 0 -40 4.5t-38 11.5q-9 4 -27 12.5t-45 22.5q-20 10 -35.5 15.5t-31.5 8.5q-16 2 -31.5 -1t-32.5 -13l-100 -60l-59 106l107 60q15 9 31.5 22.5t30.5 29.5q15 17 25.5 35.5t14.5 36.5h-158l14 94h137
q-2 4 -3.5 8t-2.5 8t-2.5 8t-4.5 9q-3 6 -8 19t-8 17l-5 12.5t-6 14.5h-84l13 94h59q10 56 34 101t63 77t92.5 49.5t120.5 17.5q74 0 124.5 -16.5t79.5 -48.5q29 -33 39.5 -82t5.5 -116l-158 -10q3 37 -0.5 61.5t-14.5 40.5t-32.5 24t-56.5 8q-28 0 -50 -7.5t-38 -21.5
t-25 -33.5t-13 -43.5h175l-13 -94h-157q1 -4 2.5 -8t1.5 -6q1 -2 3.5 -9t3.5 -10q2 -8 4 -15t4 -15t3.5 -16t2.5 -17h119l-14 -94h-116q-5 -14 -15.5 -28.5t-23.5 -28.5q-12 -13 -28.5 -24.5t-34.5 -20.5l13 -32q17 9 32.5 13.5t28.5 5.5t25 -0.5t23 -5.5q7 -2 20 -7t21 -8
q9 -3 18.5 -5t19.5 -2q26 0 43.5 7.5t28.5 22.5q11 16 19 39.5t17 61.5z" />
    <glyph glyph-name="peseta" unicode="&#x20a7;" 
d="M120 372h16q10 0 17.5 3.5t14.5 11.5q7 9 11 22.5t7 33.5l27 192q3 20 2.5 33.5t-4.5 22.5q-5 8 -11.5 11.5t-16.5 3.5h-16zM645 151q-5 -40 -20 -70.5t-36 -50.5q-22 -20 -47.5 -30t-54.5 -10q-8 0 -15 0.5t-13 1.5q-7 2 -13 3.5t-12 4.5q-9 -3 -19 -5t-18 -2
q-9 -1 -17.5 -1.5t-17.5 -0.5q-22 0 -39 8.5t-27 27.5q-11 19 -14 49t3 71l50 359h-46l-9 -65q-6 -46 -20 -77.5t-33 -49.5q-18 -18 -41 -26t-49 -8h-23l-39 -280h-101l112 800h125q26 0 46 -7.5t34 -26.5q14 -18 18.5 -49.5t-1.5 -77.5l-6 -39h46l28 200h94l-28 -200h101
l-1 -7q7 4 14.5 7t14.5 6q7 2 15 3t16 1q15 0 28 -2.5t25 -7.5q13 -5 24.5 -13t24.5 -19l-56 -76q-10 9 -16.5 14.5t-12.5 9.5q-7 3 -13.5 5t-14.5 2q-6 0 -11 -3.5t-10 -11.5q-4 -8 -7 -21t-6 -31q-3 -21 0 -39t10 -34t13.5 -27.5t23.5 -37.5q12 -20 20 -36t15 -36
q6 -19 8 -43t-2 -52zM499 77q10 0 18 3.5t15 10.5q7 8 12 21t7 32q3 17 -0.5 33.5t-8.5 32.5q-7 15 -7.5 15.5t-29.5 51.5q-12 21 -20.5 38t-15.5 37q-6 21 -8 45t2 52q1 8 2.5 15.5t3.5 14.5q1 7 3.5 14t4.5 13h-48l-51 -363q-2 -16 -2 -28t2 -20t6 -12t10 -4h6.5t6.5 1
q3 0 7 1l8 2l18 25q12 -10 18 -14.5t12 -8.5t13.5 -6t15.5 -2z" />
    <glyph glyph-name="Euro" unicode="&#x20ac;" 
d="M309 -10q-139 0 -196.5 69t-40.5 190v2h-87l13 93h86l16 110h-86l13 93h87v2q17 122 96.5 191.5t221.5 69.5q139 0 193.5 -65t41.5 -205l-151 -10q6 83 -15.5 115.5t-95.5 32.5q-69 0 -101 -34.5t-41 -94.5v-2h171l-13 -93h-172l-16 -110h172l-13 -93h-171v-2
q-8 -60 14 -93.5t92 -33.5q84 0 110 34.5t42 109.5l148 -10q-26 -138 -100 -202t-218 -64z" />
    <glyph glyph-name="florin" unicode="&#x192;" 
d="M140 -5q-18 0 -36.5 1.5t-38.5 4.5q-19 2 -36.5 6.5t-32.5 10.5l36 114q14 -5 27.5 -8.5t26.5 -5.5q11 -3 23 -4t23 -1q24 0 41.5 5.5t30.5 16.5q14 12 22 30.5t12 45.5l26 185h-202l17 125h203l16 113q6 45 28 81.5t56 61.5q35 26 81 39.5t101 13.5q18 0 36.5 -1.5
t37.5 -4.5q19 -2 36.5 -6.5t32.5 -10.5l-36 -114q-13 5 -26.5 8.5t-26.5 5.5q-12 3 -24 4t-23 1q-23 0 -41 -5.5t-31 -17.5q-13 -11 -21.5 -30t-12.5 -45l-13 -93h206l-17 -125h-206l-29 -205q-6 -45 -27.5 -81.5t-55.5 -62.5q-35 -25 -81.5 -38.5t-101.5 -13.5z" />
    <glyph glyph-name="asciicircum" unicode="^" 
d="M481 200l-103 395l-212 -395h-165l320 600h170l155 -600h-165z" />
    <glyph glyph-name="asciitilde" unicode="~" 
d="M454 203q-51 0 -86 31t-63 105q-21 54 -38 89t-44 35q-23 0 -40.5 -30t-27.5 -102l-17 -118h-111l17 124q18 126 71 193t124 67q52 0 86.5 -31t64.5 -105q20 -54 37 -89t44 -35q23 0 39.5 24t24.5 81l19 131h111l-20 -138q-16 -112 -67.5 -172t-123.5 -60z" />
    <glyph glyph-name="acute" unicode="&#xb4;" 
d="M264 700l143 200h220l-244 -200h-119z" />
    <glyph glyph-name="grave" unicode="`" 
d="M389 365l-182 435h258l38 -435h-114z" />
    <glyph glyph-name="hungarumlaut" unicode="&#x2dd;" 
d="M440 700l77 200h175l-160 -200h-92zM210 700l77 200h175l-160 -200h-92z" />
    <glyph glyph-name="circumflex" unicode="&#x2c6;" 
d="M200 690l-44 78l203 156h128l161 -156l-65 -77l-178 108z" />
    <glyph glyph-name="caron" unicode="&#x2c7;" 
d="M330 704l-161 156l65 77l178 -108l205 109l44 -78l-203 -156h-128z" />
    <glyph glyph-name="breve" unicode="&#x2d8;" 
d="M391 693q-124 0 -182 55.5t-42 175.5h142q-9 -69 14 -96.5t83 -27.5t91 27.5t42 96.5h142q-18 -120 -92 -175.5t-198 -55.5z" />
    <glyph glyph-name="tilde" unicode="&#x2dc;" 
d="M485 710q-44 0 -67.5 16t-37.5 34q-14 19 -26 34.5t-31 15.5q-17 0 -32.5 -15.5t-20.5 -64.5l-2 -10h-112l2 15q12 81 59 135t117 54q46 0 69.5 -15.5t37.5 -34.5t26 -35t29 -16t32 15.5t21 65.5l1 9h112l-2 -15q-11 -80 -58 -134t-117 -54z" />
    <glyph glyph-name="macron" unicode="&#x2c9;" 
d="M179 734l19 132h436l-19 -132h-436z" />
    <glyph glyph-name="macron" unicode="&#xaf;" 
d="M179 734l19 132h436l-19 -132h-436z" />
    <glyph glyph-name="dieresis" unicode="&#xa8;" 
d="M266 696q-39 0 -61.5 15.5t-16.5 54.5l1 13q6 40 33 56.5t66 16.5q40 0 62 -16.5t16 -56.5l-1 -13q-6 -39 -33 -54.5t-66 -15.5zM518 696q-40 0 -62.5 15.5t-16.5 54.5l1 13q6 40 33 56.5t67 16.5t61.5 -16.5t15.5 -56.5l-1 -13q-6 -39 -33 -54.5t-65 -15.5z" />
    <glyph glyph-name="dotaccent" unicode="&#x2d9;" 
d="M392 696q-51 0 -81 15.5t-24 54.5l1 13q6 40 40.5 56.5t85.5 16.5t80.5 -16.5t23.5 -56.5l-1 -13q-6 -39 -40 -54.5t-85 -15.5z" />
    <glyph glyph-name="ring" unicode="&#x2da;" 
d="M389 678q-87 0 -135.5 37t-37.5 115l4 32q11 78 70.5 116.5t146.5 38.5q88 0 136 -38.5t37 -116.5l-4 -32q-11 -78 -70.5 -115t-146.5 -37zM401 763q37 0 58 15t27 52l4 32q5 36 -11.5 53t-53.5 17t-58.5 -17t-26.5 -53l-4 -32q-6 -37 11 -52t54 -15z" />
    <glyph glyph-name="cedilla" unicode="&#xb8;" 
d="M264 0l26 42q72 -8 118 -36t36 -95q-10 -72 -74 -103t-139 -31q-87 0 -138 29t-46 98l145 10q-1 -19 9.5 -26.5t36.5 -7.5q28 0 43.5 11t20.5 45q4 28 -4 42.5t-34 21.5z" />
    <glyph glyph-name="ogonek" unicode="&#x2db;" 
d="M291 -221q-78 0 -120.5 31.5t-33.5 93.5q8 61 61.5 104.5t111.5 59.5l20 -45q-37 -21 -48.5 -41.5t-14.5 -39.5q-4 -26 12.5 -39t54.5 -13q18 0 43 2.5t51 7.5l-15 -109q-32 -6 -63.5 -9t-58.5 -3z" />
    <glyph glyph-name="tonos" unicode="&#x384;" 
d="M304 700l83 200h210l-184 -200h-109z" />
    <glyph glyph-name="dieresistonos" unicode="&#x385;" 
d="M310 700l74 200h156l-133 -200h-97zM181 693q-34 0 -53.5 15.5t-14.5 54.5l2 13q6 40 30 56.5t58 16.5q35 0 54.5 -16.5t13.5 -56.5l-2 -13q-5 -39 -29.5 -54.5t-58.5 -15.5zM601 693q-34 0 -53.5 15.5t-14.5 54.5l2 13q6 40 30 56.5t58 16.5q35 0 54.5 -16.5t13.5 -56.5
l-2 -13q-5 -39 -29.5 -54.5t-58.5 -15.5z" />
    <glyph glyph-name="copyright" unicode="&#xa9;" 
d="M350 -110q-166 0 -248 93t-82 274v222q0 183 82 277t249 94q166 0 247.5 -94t81.5 -277v-222q0 -181 -82 -274t-248 -93zM350 -41q138 0 199 73t61 239v194q0 168 -61 242t-199 74t-199 -74t-61 -242v-194q0 -166 61 -239t199 -73zM360 79q-98 0 -140.5 51.5t-42.5 149.5
v184q0 96 43 146.5t139 50.5q83 0 121.5 -50t45.5 -154l-118 -6q-4 65 -14 87t-36 22q-29 0 -42.5 -23.5t-13.5 -80.5v-172q0 -56 13.5 -80t44.5 -24q25 0 34.5 19.5t13.5 79.5l118 -6q-7 -101 -45.5 -147.5t-120.5 -46.5z" />
    <glyph glyph-name="registered" unicode="&#xae;" 
d="M350 124q-149 0 -221.5 72t-72.5 208v173q0 137 73 210t222 73t221 -73t72 -210v-173q0 -136 -72.5 -208t-221.5 -72zM350 185q123 0 178 52.5t55 169.5v167q0 119 -55 173t-178 54t-178 -54t-55 -173v-167q0 -117 55 -169.5t178 -52.5zM314 505h43q19 0 33 7.5t14 30.5
v30q0 28 -14 38.5t-33 10.5h-43v-117zM314 295h-113v400h167q74 0 111.5 -31t37.5 -91v-30q0 -35 -18 -59t-53 -35l92 -154h-122l-77 143h-25v-143z" />
    <glyph glyph-name="trademark" unicode="&#x2122;" 
d="M81 351v364h-78v85h252v-85h-67v-364h-107zM388 723l15 -372h-92v449h124l53 -235l55 235h121v-449h-92l14 370l-63 -233h-73z" />
    <glyph glyph-name="degree" unicode="&#xb0;" 
d="M350 325q-99 0 -160 44.5t-61 137.5v114q0 93 61 139t160 46q101 0 161 -46t60 -139v-114q0 -93 -61 -137.5t-160 -44.5zM350 440q41 0 62.5 19t21.5 62v86q0 43 -21.5 63.5t-62.5 20.5q-43 0 -63.5 -20.5t-20.5 -63.5v-86q0 -43 20.5 -62t63.5 -19z" />
    <glyph glyph-name="careof" unicode="&#x2105;" 
d="M266 588l109 -8q-8 -30 -22.5 -52t-36.5 -37t-51 -22t-64 -7q-38 0 -67 9.5t-49 28.5q-19 19 -26.5 48.5t-1.5 68.5l6 46q6 39 22 69t41 49q24 20 55.5 29.5t69.5 9.5q36 0 63 -7.5t45 -22.5q17 -15 25.5 -37.5t6.5 -52.5l-112 -15q2 10 0 17.5t-9 12.5q-5 5 -13 7.5
t-19 2.5t-20.5 -3.5t-17.5 -11.5q-7 -7 -12 -18.5t-8 -26.5l-8 -57q-2 -15 0 -26t7 -18q6 -7 14.5 -10.5t19.5 -3.5t20 2t16 7t11 12t6 17zM5 186l638 510l60 -80l-644 -512zM451 -22q-38 0 -67 9.5t-49 28.5q-19 19 -26.5 48.5t-1.5 68.5l6 46q6 39 22 69t41 49
q24 20 55.5 29.5t69.5 9.5t67 -9.5t47 -29.5q19 -19 26.5 -49t1.5 -69l-6 -46q-6 -39 -21.5 -68.5t-40.5 -48.5q-24 -19 -55.5 -28.5t-68.5 -9.5zM463 66q11 0 20 3.5t16 10.5q8 7 12.5 18t6.5 26l8 57q3 15 1.5 26.5t-7.5 18.5q-5 8 -13 11.5t-19 3.5t-20.5 -3.5
t-17.5 -11.5q-7 -7 -12 -18.5t-8 -26.5l-8 -57q-2 -15 0 -26t7 -18q6 -7 14.5 -10.5t19.5 -3.5z" />
    <glyph glyph-name="uni2117" unicode="&#x2117;" 
d="M350 -110q-160 0 -238 93t-78 274v222q0 183 78.5 277t238.5 94t237.5 -94t77.5 -277v-222q0 -181 -78 -274t-238 -93zM350 -41q131 0 188.5 73t57.5 239v194q0 168 -57.5 242t-188.5 74t-188.5 -74t-57.5 -242v-194q0 -166 57.5 -239t188.5 -73zM192 102v544h170
q90 0 135.5 -43.5t45.5 -128.5v-41q0 -82 -46 -124t-136 -42h-37v-165h-132zM324 367h37q24 0 40.5 12.5t16.5 53.5v41q0 41 -16.5 55.5t-40.5 14.5h-37v-177z" />
    <glyph glyph-name="estimated" unicode="&#x212e;" 
d="M345 -12q-142 0 -229.5 121t-87.5 293q0 175 86.5 294t234.5 119q147 0 231.5 -135t88.5 -330h-457v-237q27 -25 60 -38.5t73 -13.5q78 0 132 33t91 90l48 -60q-43 -65 -109.5 -100.5t-161.5 -35.5zM212 430h269v257q-25 24 -58.5 39.5t-75.5 15.5q-39 0 -74.5 -12
t-60.5 -40v-260z" />
    <glyph glyph-name="arrowupdn" unicode="&#x2195;" 
d="M360 -135h-20l-332 365v20h257v300h-257v20l332 365h20l333 -365v-20h-258v-300h258v-20z" />
    <glyph glyph-name="arrowupdnbse" unicode="&#x21a8;" 
d="M46 -242l20 142h574l-20 -142h-574zM360 -135h-20l-332 365v20h257v300h-257v20l332 365h20l333 -365v-20h-258v-300h258v-20z" />
    <glyph glyph-name="logicalnotreversed" unicode="&#x2310;" 
d="M-35 0l59 421h658l-20 -142h-516l-39 -279h-142z" />
    <glyph glyph-name="lighthorzbxd" unicode="&#x2500;" 
d="M-20 350h740v-100h-740v100z" />
    <glyph glyph-name="heavyhorzbxd" unicode="&#x2501;" 
d="M-20 400h740v-200h-740v200z" />
    <glyph glyph-name="lightvertbxd" unicode="&#x2502;" 
d="M300 1050h100v-1500h-100v1500z" />
    <glyph glyph-name="heavyvertbxd" unicode="&#x2503;" 
d="M250 1050h200v-1500h-200v1500z" />
    <glyph glyph-name="lighttrpldashhorzbxd" unicode="&#x2504;" 
d="M38 350h156v-100h-156v100zM271 350h156v-100h-156v100zM504 350h156v-100h-156v100z" />
    <glyph glyph-name="heavytrpldashhorzbxd" unicode="&#x2505;" 
d="M38 400h156v-200h-156v200zM271 400h156v-200h-156v200zM504 400h156v-200h-156v200z" />
    <glyph glyph-name="lighttrpldashvertbxd" unicode="&#x2506;" 
d="M300 55h100v-244h-100v244zM300 421h100v-244h-100v244zM300 787h100v-244h-100v244zM300 1153h100v-244h-100v244z" />
    <glyph glyph-name="heavytrpldashvertbxd" unicode="&#x2507;" 
d="M250 55h200v-244h-200v244zM250 421h200v-244h-200v244zM250 787h200v-244h-200v244zM250 1153h200v-244h-200v244z" />
    <glyph glyph-name="lightquaddashhorzbxd" unicode="&#x2508;" 
d="M21 350h132v-100h-132v100zM196 350h132v-100h-132v100zM371 350h132v-100h-132v100zM546 350h132v-100h-132v100z" />
    <glyph glyph-name="heavyquaddashhorzbxd" unicode="&#x2509;" 
d="M21 400h132v-200h-132v200zM196 400h132v-200h-132v200zM371 400h132v-200h-132v200zM546 400h132v-200h-132v200z" />
    <glyph glyph-name="lightquaddashvertbxd" unicode="&#x250a;" 
d="M300 -9h100v-207h-100v207zM300 266h100v-207h-100v207zM300 541h100v-207h-100v207zM300 816h100v-207h-100v207z" />
    <glyph glyph-name="heavyquaddashvertbxd" unicode="&#x250b;" 
d="M250 -9h200v-207h-200v207zM250 266h200v-207h-200v207zM250 541h200v-207h-200v207zM250 816h200v-207h-200v207z" />
    <glyph glyph-name="lightdnrightbxd" unicode="&#x250c;" 
d="M300 350h420v-100h-320v-700h-100v800z" />
    <glyph glyph-name="dnlightrightheavybxd" unicode="&#x250d;" 
d="M300 400h420v-200h-320v-650h-100v850z" />
    <glyph glyph-name="dnheavyrightlightbxd" unicode="&#x250e;" 
d="M250 350h470v-100h-270v-700h-200v800z" />
    <glyph glyph-name="heavydnrightbxd" unicode="&#x250f;" 
d="M250 400h470v-200h-270v-650h-200v850z" />
    <glyph glyph-name="lightdnleftbxd" unicode="&#x2510;" 
d="M-20 350h420v-800h-100v700h-320v100z" />
    <glyph glyph-name="dnlightleftheavybxd" unicode="&#x2511;" 
d="M-20 400h420v-850h-100v650h-320v200z" />
    <glyph glyph-name="dnheavyleftlightbxd" unicode="&#x2512;" 
d="M-20 350h470v-800h-200v700h-270v100z" />
    <glyph glyph-name="heavydnleftbxd" unicode="&#x2513;" 
d="M-20 400h470v-850h-200v650h-270v200z" />
    <glyph glyph-name="lightuprightbxd" unicode="&#x2514;" 
d="M300 1050h100v-700h320v-100h-420v800z" />
    <glyph glyph-name="uplightrightheavybxd" unicode="&#x2515;" 
d="M300 1050h100v-650h320v-200h-420v850z" />
    <glyph glyph-name="upheavyrightlightbxd" unicode="&#x2516;" 
d="M250 1050h200v-700h270v-100h-470v800z" />
    <glyph glyph-name="heavyuprightbxd" unicode="&#x2517;" 
d="M250 1050h200v-650h270v-200h-470v850z" />
    <glyph glyph-name="lightupleftbxd" unicode="&#x2518;" 
d="M-20 350h320v700h100v-800h-420v100z" />
    <glyph glyph-name="uplightleftheavybxd" unicode="&#x2519;" 
d="M-20 400h320v650h100v-850h-420v200z" />
    <glyph glyph-name="upheavyleftlightbxd" unicode="&#x251a;" 
d="M-20 350h270v700h200v-800h-470v100z" />
    <glyph glyph-name="heavyupleftbxd" unicode="&#x251b;" 
d="M-20 400h270v650h200v-850h-470v200z" />
    <glyph glyph-name="lightvertrightbxd" unicode="&#x251c;" 
d="M300 1050h100v-700h320v-100h-320v-700h-100v1500z" />
    <glyph glyph-name="vertlightrightheavybxd" unicode="&#x251d;" 
d="M300 1050h100v-650h320v-200h-320v-650h-100v1500z" />
    <glyph glyph-name="upheavyrightdnlightbxd" unicode="&#x251e;" 
d="M250 1050h200v-700h270v-100h-320v-700h-100v700h-50v800z" />
    <glyph glyph-name="dnheavyrightuplightbxd" unicode="&#x251f;" 
d="M250 350h50v700h100v-700h320v-100h-270v-700h-200v800z" />
    <glyph glyph-name="vertheavyrightlightbxd" unicode="&#x2520;" 
d="M250 1050h200v-700h270v-100h-270v-700h-200v1500z" />
    <glyph glyph-name="dnlightrightupheavybxd" unicode="&#x2521;" 
d="M250 1050h200v-650h270v-200h-320v-650h-100v650h-50v850z" />
    <glyph glyph-name="uplightrightdnheavybxd" unicode="&#x2522;" 
d="M250 400h50v650h100v-650h320v-200h-270v-650h-200v850z" />
    <glyph glyph-name="heavyvertrightbxd" unicode="&#x2523;" 
d="M250 1050h200v-650h270v-200h-270v-650h-200v1500z" />
    <glyph glyph-name="lightvertleftbxd" unicode="&#x2524;" 
d="M-20 350h320v700h100v-1500h-100v700h-320v100z" />
    <glyph glyph-name="vertlightleftheavybxd" unicode="&#x2525;" 
d="M-20 400h320v650h100v-1500h-100v650h-320v200z" />
    <glyph glyph-name="upheavyleftdnlightbxd" unicode="&#x2526;" 
d="M-20 350h270v700h200v-800h-50v-700h-100v700h-320v100z" />
    <glyph glyph-name="dnheavyleftuplightbxd" unicode="&#x2527;" 
d="M-20 350h320v700h100v-700h50v-800h-200v700h-270v100z" />
    <glyph glyph-name="vertheavyleftlightbxd" unicode="&#x2528;" 
d="M-20 350h270v700h200v-1500h-200v700h-270v100z" />
    <glyph glyph-name="dnlightleftupheavybxd" unicode="&#x2529;" 
d="M-20 400h270v650h200v-850h-50v-650h-100v650h-320v200z" />
    <glyph glyph-name="uplightleftdnheavybxd" unicode="&#x252a;" 
d="M-20 400h320v650h100v-650h50v-850h-200v650h-270v200z" />
    <glyph glyph-name="heavyvertleftbxd" unicode="&#x252b;" 
d="M-20 400h270v650h200v-1500h-200v650h-270v200z" />
    <glyph glyph-name="lightdnhorzbxd" unicode="&#x252c;" 
d="M-20 350h740v-100h-320v-700h-100v700h-320v100z" />
    <glyph glyph-name="leftheavyrightdnlightbxd" unicode="&#x252d;" 
d="M-20 400h420v-50h320v-100h-320v-700h-100v650h-320v200z" />
    <glyph glyph-name="rightheavyleftdnlightbxd" unicode="&#x252e;" 
d="M-20 350h320v50h420v-200h-320v-650h-100v700h-320v100z" />
    <glyph glyph-name="dnlighthorzheavybxd" unicode="&#x252f;" 
d="M-20 400h740v-200h-320v-650h-100v650h-320v200z" />
    <glyph glyph-name="dnheavyhorzlightbxd" unicode="&#x2530;" 
d="M-20 350h740v-100h-270v-700h-200v700h-270v100z" />
    <glyph glyph-name="rightlightleftdnheavybxd" unicode="&#x2531;" 
d="M-20 400h470v-50h270v-100h-270v-700h-200v650h-270v200z" />
    <glyph glyph-name="leftlightrightdnheavybxd" unicode="&#x2532;" 
d="M-20 350h270v50h470v-200h-270v-650h-200v700h-270v100z" />
    <glyph glyph-name="heavydnhorzbxd" unicode="&#x2533;" 
d="M-20 400h740v-200h-270v-650h-200v650h-270v200z" />
    <glyph glyph-name="lightuphorzbxd" unicode="&#x2534;" 
d="M-20 350h320v700h100v-700h320v-100h-740v100z" />
    <glyph glyph-name="leftheavyrightuplightbxd" unicode="&#x2535;" 
d="M-20 400h320v650h100v-700h320v-100h-320v-50h-420v200z" />
    <glyph glyph-name="rightheavyleftuplightbxd" unicode="&#x2536;" 
d="M-20 350h320v700h100v-650h320v-200h-420v50h-320v100z" />
    <glyph glyph-name="uplighthorzheavybxd" unicode="&#x2537;" 
d="M-20 400h320v650h100v-650h320v-200h-740v200z" />
    <glyph glyph-name="upheavyhorzlightbxd" unicode="&#x2538;" 
d="M-20 350h270v700h200v-700h270v-100h-740v100z" />
    <glyph glyph-name="rightlightleftupheavybxd" unicode="&#x2539;" 
d="M-20 400h270v650h200v-700h270v-100h-270v-50h-470v200z" />
    <glyph glyph-name="leftlightrightupheavybxd" unicode="&#x253a;" 
d="M-20 350h270v700h200v-650h270v-200h-470v50h-270v100z" />
    <glyph glyph-name="heavyuphorzbxd" unicode="&#x253b;" 
d="M-20 400h270v650h200v-650h270v-200h-740v200z" />
    <glyph glyph-name="lightverthorzbxd" unicode="&#x253c;" 
d="M-20 350h320v700h100v-700h320v-100h-320v-700h-100v700h-320v100z" />
    <glyph glyph-name="leftheavyrightvertlightbxd" unicode="&#x253d;" 
d="M-20 400h320v650h100v-700h320v-100h-320v-700h-100v650h-320v200z" />
    <glyph glyph-name="rightheavyleftvertlightbxd" unicode="&#x253e;" 
d="M-20 350h320v700h100v-650h320v-200h-320v-650h-100v700h-320v100z" />
    <glyph glyph-name="vertlighthorzheavybxd" unicode="&#x253f;" 
d="M-20 400h320v650h100v-650h320v-200h-320v-650h-100v650h-320v200z" />
    <glyph glyph-name="upheavydnhorzlightbxd" unicode="&#x2540;" 
d="M-20 350h270v700h200v-700h270v-100h-320v-700h-100v700h-320v100z" />
    <glyph glyph-name="dnheavyuphorzlightbxd" unicode="&#x2541;" 
d="M-20 350h320v700h100v-700h320v-100h-270v-700h-200v700h-270v100z" />
    <glyph glyph-name="vertheavyhorzlightbxd" unicode="&#x2542;" 
d="M-20 350h270v700h200v-700h270v-100h-270v-700h-200v700h-270v100z" />
    <glyph glyph-name="leftupheavyrightdnlightbxd" unicode="&#x2543;" 
d="M-20 400h270v650h200v-700h270v-100h-270v-50h-50v-650h-100v650h-320v200z" />
    <glyph glyph-name="rightupheavyleftdnlightbxd" unicode="&#x2544;" 
d="M-20 350h270v700h200v-650h270v-200h-320v-650h-100v650h-50v50h-270v100z" />
    <glyph glyph-name="leftdnheavyrightuplightbxd" unicode="&#x2545;" 
d="M-20 400h320v650h100v-650h50v-50h270v-100h-270v-700h-200v650h-270v200z" />
    <glyph glyph-name="rightdnheavyleftuplightbxd" unicode="&#x2546;" 
d="M-20 350h270v50h50v650h100v-650h320v-200h-270v-650h-200v700h-270v100z" />
    <glyph glyph-name="dnlightuphorzheavybxd" unicode="&#x2547;" 
d="M-20 400h270v650h200v-650h270v-200h-320v-650h-100v650h-320v200z" />
    <glyph glyph-name="uplightdnhorzheavybxd" unicode="&#x2548;" 
d="M-20 400h320v650h100v-650h320v-200h-270v-650h-200v650h-270v200z" />
    <glyph glyph-name="rightlightleftvertheavybxd" unicode="&#x2549;" 
d="M-20 400h270v650h200v-700h270v-100h-270v-700h-200v650h-270v200z" />
    <glyph glyph-name="leftlightrightvertheavybxd" unicode="&#x254a;" 
d="M-20 350h270v700h200v-650h270v-200h-270v-650h-200v700h-270v100z" />
    <glyph glyph-name="heavyverthorzbxd" unicode="&#x254b;" 
d="M-20 400h270v650h200v-650h270v-200h-270v-650h-200v650h-270v200z" />
    <glyph glyph-name="lightdbldashhorzbxd" unicode="&#x254c;" 
d="M87 350h175v-100h-175v100zM437 350h175v-100h-175v100z" />
    <glyph glyph-name="heavydbldashhorzbxd" unicode="&#x254d;" 
d="M87 400h175v-200h-175v200zM437 400h175v-200h-175v200z" />
    <glyph glyph-name="lightdbldashvertbxd" unicode="&#x254e;" 
d="M300 162h100v-275h-100v275zM300 712h100v-275h-100v275z" />
    <glyph glyph-name="heavydbldashvertbxd" unicode="&#x254f;" 
d="M250 162h200v-275h-200v275zM250 712h200v-275h-200v275z" />
    <glyph glyph-name="dblhorzbxd" unicode="&#x2550;" 
d="M-20 450h740v-100h-740v100zM-20 250h740v-100h-740v100z" />
    <glyph glyph-name="dblvertbxd" unicode="&#x2551;" 
d="M200 1050h100v-1500h-100v1500zM400 1050h100v-1500h-100v1500z" />
    <glyph glyph-name="dnsngrightdblbxd" unicode="&#x2552;" 
d="M300 450h420v-100h-320v-100h320v-100h-320v-600h-100v900z" />
    <glyph glyph-name="dndblrightsngbxd" unicode="&#x2553;" 
d="M200 350h520v-100h-220v-700h-100v700h-100v-700h-100v800z" />
    <glyph glyph-name="dbldnrightbxd" unicode="&#x2554;" 
d="M200 450h520v-100h-420v-800h-100v900zM400 250h320v-100h-220v-600h-100v700z" />
    <glyph glyph-name="dnsngleftdblbxd" unicode="&#x2555;" 
d="M-20 450h420v-900h-100v600h-320v100h320v100h-320v100z" />
    <glyph glyph-name="dndblleftsngbxd" unicode="&#x2556;" 
d="M-20 350h520v-800h-100v700h-100v-700h-100v700h-220v100z" />
    <glyph glyph-name="dbldnleftbxd" unicode="&#x2557;" 
d="M-20 450h520v-900h-100v800h-420v100zM-20 250h320v-700h-100v600h-220v100z" />
    <glyph glyph-name="upsngrightdblbxd" unicode="&#x2558;" 
d="M300 1050h100v-600h320v-100h-320v-100h320v-100h-420v900z" />
    <glyph glyph-name="updblrightsngbxd" unicode="&#x2559;" 
d="M200 1050h100v-700h100v700h100v-700h220v-100h-520v800z" />
    <glyph glyph-name="dbluprightbxd" unicode="&#x255a;" 
d="M200 1050h100v-800h420v-100h-520v900zM400 1050h100v-600h220v-100h-320v700z" />
    <glyph glyph-name="upsngleftdblbxd" unicode="&#x255b;" 
d="M-20 450h320v600h100v-900h-420v100h320v100h-320v100z" />
    <glyph glyph-name="updblleftsngbxd" unicode="&#x255c;" 
d="M-20 350h220v700h100v-700h100v700h100v-800h-520v100z" />
    <glyph glyph-name="dblupleftbxd" unicode="&#x255d;" 
d="M-20 250h420v800h100v-900h-520v100zM-20 450h220v600h100v-700h-320v100z" />
    <glyph glyph-name="vertsngrightdblbxd" unicode="&#x255e;" 
d="M300 1050h100v-600h320v-100h-320v-100h320v-100h-320v-600h-100v1500z" />
    <glyph glyph-name="vertdblrightsngbxd" unicode="&#x255f;" 
d="M400 1050h100v-700h220v-100h-220v-700h-100v1500zM200 1050h100v-1500h-100v1500z" />
    <glyph glyph-name="dblvertrightbxd" unicode="&#x2560;" 
d="M200 1050h100v-1500h-100v1500zM400 1050h100v-600h220v-100h-320v700zM400 250h320v-100h-220v-600h-100v700z" />
    <glyph glyph-name="vertsngleftdblbxd" unicode="&#x2561;" 
d="M-20 450h320v600h100v-1500h-100v600h-320v100h320v100h-320v100z" />
    <glyph glyph-name="vertdblleftsngbxd" unicode="&#x2562;" 
d="M-20 350h220v700h100v-1500h-100v700h-220v100zM400 1050h100v-1500h-100v1500z" />
    <glyph glyph-name="dblvertleftbxd" unicode="&#x2563;" 
d="M400 1050h100v-1500h-100v1500zM-20 250h320v-700h-100v600h-220v100zM-20 450h220v600h100v-700h-320v100z" />
    <glyph glyph-name="dnsnghorzdblbxd" unicode="&#x2564;" 
d="M-20 250h740v-100h-320v-600h-100v600h-320v100zM-20 450h740v-100h-740v100z" />
    <glyph glyph-name="dndblhorzsngbxd" unicode="&#x2565;" 
d="M-20 350h740v-100h-220v-700h-100v700h-100v-700h-100v700h-220v100z" />
    <glyph glyph-name="dbldnhorzbxd" unicode="&#x2566;" 
d="M-20 250h320v-700h-100v600h-220v100zM400 250h320v-100h-220v-600h-100v700zM-20 450h740v-100h-740v100z" />
    <glyph glyph-name="upsnghorzdblbxd" unicode="&#x2567;" 
d="M-20 450h320v600h100v-600h320v-100h-740v100zM-20 250h740v-100h-740v100z" />
    <glyph glyph-name="updblhorzsngbxd" unicode="&#x2568;" 
d="M-20 350h220v700h100v-700h100v700h100v-700h220v-100h-740v100z" />
    <glyph glyph-name="dbluphorzbxd" unicode="&#x2569;" 
d="M-20 450h220v600h100v-700h-320v100zM400 1050h100v-600h220v-100h-320v700zM-20 250h740v-100h-740v100z" />
    <glyph glyph-name="vertsnghorzdblbxd" unicode="&#x256a;" 
d="M-20 450h320v600h100v-600h320v-100h-320v-100h320v-100h-320v-600h-100v600h-320v100h320v100h-320v100z" />
    <glyph glyph-name="vertdblhorzsngbxd" unicode="&#x256b;" 
d="M-20 350h220v700h100v-700h100v700h100v-700h220v-100h-220v-700h-100v700h-100v-700h-100v700h-220v100z" />
    <glyph glyph-name="dblverthorzbxd" unicode="&#x256c;" 
d="M-20 450h220v600h100v-700h-320v100zM-20 250h320v-700h-100v600h-220v100zM400 1050h100v-600h220v-100h-320v700zM400 250h320v-100h-220v-600h-100v700z" />
    <glyph glyph-name="lightarcdnrightbxd" unicode="&#x256d;" 
d="M300 -50q0 83 31.5 156t85.5 127t127 85.5t156 31.5h20v-100h-20q-62 0 -117 -23.5t-95.5 -64t-64 -95.5t-23.5 -117v-400h-100v400z" />
    <glyph glyph-name="lightarcdnleftbxd" unicode="&#x256e;" 
d="M400 -450h-100v400q0 62 -23.5 117t-64 95.5t-95.5 64t-117 23.5h-20v100h20q83 0 156 -31.5t127 -85.5t85.5 -127t31.5 -156v-400z" />
    <glyph glyph-name="lightarcupleftbxd" unicode="&#x256f;" 
d="M400 650q0 -83 -31.5 -156t-85.5 -127t-127 -85.5t-156 -31.5h-20v100h20q62 0 117 23.5t95.5 64t64 95.5t23.5 117v400h100v-400z" />
    <glyph glyph-name="lightarcuprightbxd" unicode="&#x2570;" 
d="M300 1050h100v-400q0 -62 23.5 -117t64 -95.5t95.5 -64t117 -23.5h20v-100h-20q-83 0 -156 31.5t-127 85.5t-85.5 127t-31.5 156v400z" />
    <glyph glyph-name="lightdiaguprightdnleftbxd" unicode="&#x2571;" 
d="M641 850h59v-93l-641 -1007h-59v93z" />
    <glyph glyph-name="lightdiagupleftdnrightbxd" unicode="&#x2572;" 
d="M700 -157v-93h-59l-641 1007v93h59z" />
    <glyph glyph-name="lightdiagcrossbxd" unicode="&#x2573;" 
d="M291 300l-291 457v93h59l291 -458l291 458h59v-93l-291 -457l291 -457v-93h-59l-291 457l-291 -457h-59v93z" />
    <glyph glyph-name="lightleftbxd" unicode="&#x2574;" 
d="M-20 350h420v-100h-420v100z" />
    <glyph glyph-name="lightupbxd" unicode="&#x2575;" 
d="M300 1050h100v-800h-100v800z" />
    <glyph glyph-name="lightrightbxd" unicode="&#x2576;" 
d="M300 350h420v-100h-420v100z" />
    <glyph glyph-name="lightdnbxd" unicode="&#x2577;" 
d="M300 350h100v-800h-100v800z" />
    <glyph glyph-name="heavyleftbxd" unicode="&#x2578;" 
d="M-20 400h420v-200h-420v200z" />
    <glyph glyph-name="heavyupbxd" unicode="&#x2579;" 
d="M250 1050h200v-800h-200v800z" />
    <glyph glyph-name="heavyrightbxd" unicode="&#x257a;" 
d="M300 400h420v-200h-420v200z" />
    <glyph glyph-name="heavydnbxd" unicode="&#x257b;" 
d="M250 350h200v-800h-200v800z" />
    <glyph glyph-name="lightleftheavyrightbxd" unicode="&#x257c;" 
d="M-20 350h320v50h420v-200h-420v50h-320v100z" />
    <glyph glyph-name="lightupheavydnbxd" unicode="&#x257d;" 
d="M250 350h50v700h100v-700h50v-800h-200v800z" />
    <glyph glyph-name="heavyleftlightrightbxd" unicode="&#x257e;" 
d="M-20 400h420v-50h320v-100h-320v-50h-420v200z" />
    <glyph glyph-name="heavyuplightdnbxd" unicode="&#x257f;" 
d="M250 1050h200v-800h-50v-700h-100v700h-50v800z" />
    <glyph glyph-name="uphalfblock" unicode="&#x2580;" 
d="M0 850h700v-550h-700v550z" />
    <glyph glyph-name="dneighthblock" unicode="&#x2581;" 
d="M0 -113h700v-137h-700v137z" />
    <glyph glyph-name="dnquarterblock" unicode="&#x2582;" 
d="M0 25h700v-275h-700v275z" />
    <glyph glyph-name="dnthreeeighthsblock" unicode="&#x2583;" 
d="M0 162h700v-412h-700v412z" />
    <glyph glyph-name="dnhalfblock" unicode="&#x2584;" 
d="M0 300h700v-550h-700v550z" />
    <glyph glyph-name="dnfiveeighthsblock" unicode="&#x2585;" 
d="M0 437h700v-687h-700v687z" />
    <glyph glyph-name="dnthreequartersblock" unicode="&#x2586;" 
d="M0 575h700v-825h-700v825z" />
    <glyph glyph-name="dnseveneighthsblock" unicode="&#x2587;" 
d="M0 712h700v-962h-700v962z" />
    <glyph glyph-name="fullblock" unicode="&#x2588;" 
d="M0 850h700v-1100h-700v1100z" />
    <glyph glyph-name="leftseveneighthsblock" unicode="&#x2589;" 
d="M0 850h612v-1100h-612v1100z" />
    <glyph glyph-name="leftthreequartersblock" unicode="&#x258a;" 
d="M0 850h525v-1100h-525v1100z" />
    <glyph glyph-name="leftfiveeighthsblock" unicode="&#x258b;" 
d="M0 850h437v-1100h-437v1100z" />
    <glyph glyph-name="lefthalfblock" unicode="&#x258c;" 
d="M0 850h350v-1100h-350v1100z" />
    <glyph glyph-name="leftthreeeighthsblock" unicode="&#x258d;" 
d="M0 850h262v-1100h-262v1100z" />
    <glyph glyph-name="leftquarterblock" unicode="&#x258e;" 
d="M0 850h175v-1100h-175v1100z" />
    <glyph glyph-name="lefteighthblock" unicode="&#x258f;" 
d="M0 850h87v-1100h-87v1100z" />
    <glyph glyph-name="righthalfblock" unicode="&#x2590;" 
d="M350 850h350v-1100h-350v1100z" />
    <glyph glyph-name="lightshade" unicode="&#x2591;" 
d="M0 -220h20v-30h-20v30zM50 -170h20v-30h-20v30zM0 -120h20v-30h-20v30zM50 -70h20v-30h-20v30zM0 -20h20v-30h-20v30zM50 30h20v-30h-20v30zM0 80h20v-30h-20v30zM50 130h20v-30h-20v30zM0 180h20v-30h-20v30zM50 230h20v-30h-20v30zM0 280h20v-30h-20v30zM50 330h20v-30
h-20v30zM0 380h20v-30h-20v30zM50 430h20v-30h-20v30zM0 480h20v-30h-20v30zM50 530h20v-30h-20v30zM0 580h20v-30h-20v30zM50 630h20v-30h-20v30zM0 680h20v-30h-20v30zM50 730h20v-30h-20v30zM0 780h20v-30h-20v30zM50 830h20v-30h-20v30zM100 -220h20v-30h-20v30z
M150 -170h20v-30h-20v30zM100 -120h20v-30h-20v30zM150 -70h20v-30h-20v30zM100 -20h20v-30h-20v30zM150 30h20v-30h-20v30zM100 80h20v-30h-20v30zM150 130h20v-30h-20v30zM100 180h20v-30h-20v30zM150 230h20v-30h-20v30zM100 280h20v-30h-20v30zM150 330h20v-30h-20v30z
M100 380h20v-30h-20v30zM150 430h20v-30h-20v30zM100 480h20v-30h-20v30zM150 530h20v-30h-20v30zM100 580h20v-30h-20v30zM150 630h20v-30h-20v30zM100 680h20v-30h-20v30zM150 730h20v-30h-20v30zM100 780h20v-30h-20v30zM150 830h20v-30h-20v30zM200 -220h20v-30h-20v30z
M250 -170h20v-30h-20v30zM200 -120h20v-30h-20v30zM250 -70h20v-30h-20v30zM200 -20h20v-30h-20v30zM250 30h20v-30h-20v30zM200 80h20v-30h-20v30zM250 130h20v-30h-20v30zM200 180h20v-30h-20v30zM250 230h20v-30h-20v30zM200 280h20v-30h-20v30zM250 330h20v-30h-20v30z
M200 380h20v-30h-20v30zM250 430h20v-30h-20v30zM200 480h20v-30h-20v30zM250 530h20v-30h-20v30zM200 580h20v-30h-20v30zM250 630h20v-30h-20v30zM200 680h20v-30h-20v30zM250 730h20v-30h-20v30zM200 780h20v-30h-20v30zM250 830h20v-30h-20v30zM300 -220h20v-30h-20v30z
M350 -170h20v-30h-20v30zM300 -120h20v-30h-20v30zM350 -70h20v-30h-20v30zM300 -20h20v-30h-20v30zM350 30h20v-30h-20v30zM300 80h20v-30h-20v30zM350 130h20v-30h-20v30zM300 180h20v-30h-20v30zM350 230h20v-30h-20v30zM300 280h20v-30h-20v30zM350 330h20v-30h-20v30z
M300 380h20v-30h-20v30zM350 430h20v-30h-20v30zM300 480h20v-30h-20v30zM350 530h20v-30h-20v30zM300 580h20v-30h-20v30zM350 630h20v-30h-20v30zM300 680h20v-30h-20v30zM350 730h20v-30h-20v30zM300 780h20v-30h-20v30zM350 830h20v-30h-20v30zM400 -220h20v-30h-20v30z
M450 -170h20v-30h-20v30zM400 -120h20v-30h-20v30zM450 -70h20v-30h-20v30zM400 -20h20v-30h-20v30zM450 30h20v-30h-20v30zM400 80h20v-30h-20v30zM450 130h20v-30h-20v30zM400 180h20v-30h-20v30zM450 230h20v-30h-20v30zM400 280h20v-30h-20v30zM450 330h20v-30h-20v30z
M400 380h20v-30h-20v30zM450 430h20v-30h-20v30zM400 480h20v-30h-20v30zM450 530h20v-30h-20v30zM400 580h20v-30h-20v30zM450 630h20v-30h-20v30zM400 680h20v-30h-20v30zM450 730h20v-30h-20v30zM400 780h20v-30h-20v30zM450 830h20v-30h-20v30zM500 -220h20v-30h-20v30z
M550 -170h20v-30h-20v30zM500 -120h20v-30h-20v30zM550 -70h20v-30h-20v30zM500 -20h20v-30h-20v30zM550 30h20v-30h-20v30zM500 80h20v-30h-20v30zM550 130h20v-30h-20v30zM500 180h20v-30h-20v30zM550 230h20v-30h-20v30zM500 280h20v-30h-20v30zM550 330h20v-30h-20v30z
M500 380h20v-30h-20v30zM550 430h20v-30h-20v30zM500 480h20v-30h-20v30zM550 530h20v-30h-20v30zM500 580h20v-30h-20v30zM550 630h20v-30h-20v30zM500 680h20v-30h-20v30zM550 730h20v-30h-20v30zM500 780h20v-30h-20v30zM550 830h20v-30h-20v30zM600 -220h20v-30h-20v30z
M650 -170h20v-30h-20v30zM600 -120h20v-30h-20v30zM650 -70h20v-30h-20v30zM600 -20h20v-30h-20v30zM650 30h20v-30h-20v30zM600 80h20v-30h-20v30zM650 130h20v-30h-20v30zM600 180h20v-30h-20v30zM650 230h20v-30h-20v30zM600 280h20v-30h-20v30zM650 330h20v-30h-20v30z
M600 380h20v-30h-20v30zM650 430h20v-30h-20v30zM600 480h20v-30h-20v30zM650 530h20v-30h-20v30zM600 580h20v-30h-20v30zM650 630h20v-30h-20v30zM600 680h20v-30h-20v30zM650 730h20v-30h-20v30zM600 780h20v-30h-20v30zM650 830h20v-30h-20v30z" />
    <glyph glyph-name="mediumshade" unicode="&#x2592;" 
d="M0 -200h40v-50h-40v50zM50 -150h40v-50h-40v50zM0 -100h40v-50h-40v50zM50 -50h40v-50h-40v50zM0 0h40v-50h-40v50zM50 50h40v-50h-40v50zM0 100h40v-50h-40v50zM50 150h40v-50h-40v50zM0 200h40v-50h-40v50zM50 250h40v-50h-40v50zM0 300h40v-50h-40v50zM50 350h40v-50
h-40v50zM0 400h40v-50h-40v50zM50 450h40v-50h-40v50zM0 500h40v-50h-40v50zM50 550h40v-50h-40v50zM0 600h40v-50h-40v50zM50 650h40v-50h-40v50zM0 700h40v-50h-40v50zM50 750h40v-50h-40v50zM0 800h40v-50h-40v50zM50 850h40v-50h-40v50zM100 -200h40v-50h-40v50z
M150 -150h40v-50h-40v50zM100 -100h40v-50h-40v50zM150 -50h40v-50h-40v50zM100 0h40v-50h-40v50zM150 50h40v-50h-40v50zM100 100h40v-50h-40v50zM150 150h40v-50h-40v50zM100 200h40v-50h-40v50zM150 250h40v-50h-40v50zM100 300h40v-50h-40v50zM150 350h40v-50h-40v50z
M100 400h40v-50h-40v50zM150 450h40v-50h-40v50zM100 500h40v-50h-40v50zM150 550h40v-50h-40v50zM100 600h40v-50h-40v50zM150 650h40v-50h-40v50zM100 700h40v-50h-40v50zM150 750h40v-50h-40v50zM100 800h40v-50h-40v50zM150 850h40v-50h-40v50zM200 -200h40v-50h-40v50z
M250 -150h40v-50h-40v50zM200 -100h40v-50h-40v50zM250 -50h40v-50h-40v50zM200 0h40v-50h-40v50zM250 50h40v-50h-40v50zM200 100h40v-50h-40v50zM250 150h40v-50h-40v50zM200 200h40v-50h-40v50zM250 250h40v-50h-40v50zM200 300h40v-50h-40v50zM250 350h40v-50h-40v50z
M200 400h40v-50h-40v50zM250 450h40v-50h-40v50zM200 500h40v-50h-40v50zM250 550h40v-50h-40v50zM200 600h40v-50h-40v50zM250 650h40v-50h-40v50zM200 700h40v-50h-40v50zM250 750h40v-50h-40v50zM200 800h40v-50h-40v50zM250 850h40v-50h-40v50zM300 -200h40v-50h-40v50z
M350 -150h40v-50h-40v50zM300 -100h40v-50h-40v50zM350 -50h40v-50h-40v50zM300 0h40v-50h-40v50zM350 50h40v-50h-40v50zM300 100h40v-50h-40v50zM350 150h40v-50h-40v50zM300 200h40v-50h-40v50zM350 250h40v-50h-40v50zM300 300h40v-50h-40v50zM350 350h40v-50h-40v50z
M300 400h40v-50h-40v50zM350 450h40v-50h-40v50zM300 500h40v-50h-40v50zM350 550h40v-50h-40v50zM300 600h40v-50h-40v50zM350 650h40v-50h-40v50zM300 700h40v-50h-40v50zM350 750h40v-50h-40v50zM300 800h40v-50h-40v50zM350 850h40v-50h-40v50zM400 -200h40v-50h-40v50z
M450 -150h40v-50h-40v50zM400 -100h40v-50h-40v50zM450 -50h40v-50h-40v50zM400 0h40v-50h-40v50zM450 50h40v-50h-40v50zM400 100h40v-50h-40v50zM450 150h40v-50h-40v50zM400 200h40v-50h-40v50zM450 250h40v-50h-40v50zM400 300h40v-50h-40v50zM450 350h40v-50h-40v50z
M400 400h40v-50h-40v50zM450 450h40v-50h-40v50zM400 500h40v-50h-40v50zM450 550h40v-50h-40v50zM400 600h40v-50h-40v50zM450 650h40v-50h-40v50zM400 700h40v-50h-40v50zM450 750h40v-50h-40v50zM400 800h40v-50h-40v50zM450 850h40v-50h-40v50zM500 -200h40v-50h-40v50z
M550 -150h40v-50h-40v50zM500 -100h40v-50h-40v50zM550 -50h40v-50h-40v50zM500 0h40v-50h-40v50zM550 50h40v-50h-40v50zM500 100h40v-50h-40v50zM550 150h40v-50h-40v50zM500 200h40v-50h-40v50zM550 250h40v-50h-40v50zM500 300h40v-50h-40v50zM550 350h40v-50h-40v50z
M500 400h40v-50h-40v50zM550 450h40v-50h-40v50zM500 500h40v-50h-40v50zM550 550h40v-50h-40v50zM500 600h40v-50h-40v50zM550 650h40v-50h-40v50zM500 700h40v-50h-40v50zM550 750h40v-50h-40v50zM500 800h40v-50h-40v50zM550 850h40v-50h-40v50zM600 -200h40v-50h-40v50z
M650 -150h40v-50h-40v50zM600 -100h40v-50h-40v50zM650 -50h40v-50h-40v50zM600 0h40v-50h-40v50zM650 50h40v-50h-40v50zM600 100h40v-50h-40v50zM650 150h40v-50h-40v50zM600 200h40v-50h-40v50zM650 250h40v-50h-40v50zM600 300h40v-50h-40v50zM650 350h40v-50h-40v50z
M600 400h40v-50h-40v50zM650 450h40v-50h-40v50zM600 500h40v-50h-40v50zM650 550h40v-50h-40v50zM600 600h40v-50h-40v50zM650 650h40v-50h-40v50zM600 700h40v-50h-40v50zM650 750h40v-50h-40v50zM600 800h40v-50h-40v50zM650 850h40v-50h-40v50z" />
    </font>
</defs>
</svg>
