<?xml version="1.0" standalone="no"?>
<!DOCTYPE svg PUBLIC "-//W3C//DTD SVG 1.1//EN" "http://www.w3.org/Graphics/SVG/1.1/DTD/svg11.dtd" >
<svg xmlns="http://www.w3.org/2000/svg" xmlns:xlink="http://www.w3.org/1999/xlink" version="1.1">
<metadata>
Created by FontForge 20190801 at Sun Feb  2 16:42:47 2025
 By root
(c) Copyright The Font Bureau, Inc. 2014. All rights reserved.
</metadata>
<defs>
<font id="Input-Bold" horiz-adv-x="1100" >
  <font-face 
    font-family="Input"
    font-weight="700"
    font-stretch="normal"
    units-per-em="1100"
    panose-1="2 0 8 0 3 0 0 9 0 4"
    ascent="850"
    descent="-250"
    x-height="600"
    bbox="-313 -450 1654 1400"
    underline-thickness="0"
    underline-position="0"
    unicode-range="U+000D-1F41B"
  />
<missing-glyph horiz-adv-x="900" 
d="M50 -250v1100h800v-1100h-800zM150 -150h600v900h-600v-900z" />
    <glyph glyph-name=".notdef" horiz-adv-x="900" 
d="M50 -250v1100h800v-1100h-800zM150 -150h600v900h-600v-900z" />
    <glyph glyph-name="NULL" horiz-adv-x="0" 
 />
    <glyph glyph-name="nonmarkingreturn" unicode="&#xd;" horiz-adv-x="0" 
 />
    <glyph glyph-name="space" unicode="&#xa0;" horiz-adv-x="600" 
 />
    <glyph glyph-name="space" unicode=" " horiz-adv-x="600" 
 />
    <glyph glyph-name="A" unicode="A" horiz-adv-x="1000" 
d="M578 410l-90 267l-91 -267h181zM420 150v-150h-370v150h91l228 650h265l228 -650h88v-150h-390v150h106l-41 120h-275l-41 -120h111z" />
    <glyph glyph-name="Agrave" unicode="&#xc0;" horiz-adv-x="1000" 
d="M50 0zM578 410l-90 267l-91 -267h181zM420 150v-150h-370v150h91l228 650h265l228 -650h88v-150h-390v150h106l-41 120h-275l-41 -120h111zM481 900l-225 200h250l106 -200h-131z" />
    <glyph glyph-name="Aacute" unicode="&#xc1;" horiz-adv-x="1000" 
d="M50 0zM578 410l-90 267l-91 -267h181zM420 150v-150h-370v150h91l228 650h265l228 -650h88v-150h-390v150h106l-41 120h-275l-41 -120h111zM366 900l106 200h250l-225 -200h-131z" />
    <glyph glyph-name="Acircumflex" unicode="&#xc2;" horiz-adv-x="1000" 
d="M50 0zM578 410l-90 267l-91 -267h181zM420 150v-150h-370v150h91l228 650h265l228 -650h88v-150h-390v150h106l-41 120h-275l-41 -120h111zM301 884l-62 84l184 159h152l186 -159l-61 -83l-201 105z" />
    <glyph glyph-name="Atilde" unicode="&#xc3;" horiz-adv-x="1000" 
d="M50 0zM578 410l-90 267l-91 -267h181zM420 150v-150h-370v150h91l228 650h265l228 -650h88v-150h-390v150h106l-41 120h-275l-41 -120h111zM596 910q-49 0 -75 15t-42 32q-16 18 -30 32.5t-33 14.5q-16 0 -29 -14.5t-12 -60.5v-9h-127v15q0 83 42 139t116 56q48 0 74 -15
t43 -32q17 -18 31 -33t31 -15q16 0 29 14.5t12 60.5v9h127v-15q0 -82 -42 -138t-115 -56z" />
    <glyph glyph-name="Adieresis" unicode="&#xc4;" horiz-adv-x="1000" 
d="M50 0zM578 410l-90 267l-91 -267h181zM420 150v-150h-370v150h91l228 650h265l228 -650h88v-150h-390v150h106l-41 120h-275l-41 -120h111zM370 890q-43 0 -70.5 17t-27.5 59v15q0 43 27.5 61t70.5 18q44 0 71 -18t27 -61v-15q0 -42 -27.5 -59t-70.5 -17zM630 890
q-43 0 -70.5 17t-27.5 59v15q0 43 27.5 61t70.5 18q44 0 71 -18t27 -61v-15q0 -42 -27.5 -59t-70.5 -17z" />
    <glyph glyph-name="Aring" unicode="&#xc5;" horiz-adv-x="1000" 
d="M50 0zM578 410l-90 267l-91 -267h181zM420 150v-150h-370v150h91l228 650h265l228 -650h88v-150h-390v150h106l-41 120h-275l-41 -120h111zM500 875q-94 0 -152 38t-58 117v32q0 80 58 119t152 39q95 0 152.5 -39t57.5 -119v-32q0 -79 -58 -117t-152 -38zM500 966
q35 0 53.5 14.5t18.5 49.5v32q0 34 -18.5 50.5t-53.5 16.5q-36 0 -54 -16.5t-18 -50.5v-32q0 -35 18 -49.5t54 -14.5z" />
    <glyph glyph-name="Amacron" unicode="&#x100;" horiz-adv-x="1000" 
d="M50 0zM578 410l-90 267l-91 -267h181zM420 150v-150h-370v150h91l228 650h265l228 -650h88v-150h-390v150h106l-41 120h-275l-41 -120h111zM275 925v150h450v-150h-450z" />
    <glyph glyph-name="Abreve" unicode="&#x102;" horiz-adv-x="1000" 
d="M50 0zM578 410l-90 267l-91 -267h181zM420 150v-150h-370v150h91l228 650h265l228 -650h88v-150h-390v150h106l-41 120h-275l-41 -120h111zM500 893q-135 0 -200.5 59t-66.5 181h160q1 -68 25 -94.5t82 -26.5t82 26.5t25 94.5h160q-1 -122 -66.5 -181t-200.5 -59z" />
    <glyph glyph-name="Aogonek" unicode="&#x104;" horiz-adv-x="1000" 
d="M50 0zM578 410l-90 267l-91 -267h181zM420 150v-150h-370v150h91l228 650h265l228 -650h88v-150h-390v150h106l-41 120h-275l-41 -120h111zM810 -224q-84 0 -132.5 32t-48.5 96q0 66 51 111.5t111 61.5l27 -54q-34 -21 -41.5 -40t-7.5 -36q0 -26 17.5 -38.5t57.5 -12.5
q18 0 42 2.5t53 7.5v-116q-36 -7 -68.5 -10.5t-60.5 -3.5z" />
    <glyph glyph-name="Aringacute" unicode="&#x1fa;" horiz-adv-x="1000" 
d="M50 0zM578 410l-90 267l-91 -267h181zM420 150v-150h-370v150h91l228 650h265l228 -650h88v-150h-390v150h106l-41 120h-275l-41 -120h111zM500 875q-94 0 -152 38t-58 117v32q0 80 58 119t152 39q95 0 152.5 -39t57.5 -119v-32q0 -79 -58 -117t-152 -38zM500 966
q35 0 53.5 14.5t18.5 49.5v32q0 34 -18.5 50.5t-53.5 16.5q-36 0 -54 -16.5t-18 -50.5v-32q0 -35 18 -49.5t54 -14.5zM386 1200l106 200h250l-225 -200h-131z" />
    <glyph glyph-name="B" unicode="B" horiz-adv-x="1000" 
d="M80 0v150h120v500h-120v150h534q128 0 196 -48t68 -139v-36q0 -58 -33 -92t-106 -47v-29q78 -7 119.5 -52.5t41.5 -113.5v-32q0 -102 -74.5 -156.5t-214.5 -54.5h-531zM400 480h184q51 0 73.5 18t22.5 59v28q0 40 -22.5 57.5t-73.5 17.5h-184v-180zM400 140h180
q64 0 92 21t28 70v32q0 48 -28 68.5t-92 20.5h-180v-212z" />
    <glyph glyph-name="C" unicode="C" horiz-adv-x="900" 
d="M470 -10q-194 0 -282 73t-88 204v262q0 132 88.5 206.5t282.5 74.5q184 0 268 -68.5t91 -222.5l-200 -10q-7 85 -41.5 118t-118.5 33q-96 0 -133 -33t-37 -119v-221q0 -83 37 -115t133 -32q84 0 118.5 32t41.5 115l200 -10q-7 -152 -91.5 -219.5t-268.5 -67.5z" />
    <glyph glyph-name="Ccedilla" unicode="&#xc7;" horiz-adv-x="900" 
d="M100 0zM470 -10q-194 0 -282 73t-88 204v262q0 132 88.5 206.5t282.5 74.5q184 0 268 -68.5t91 -222.5l-200 -10q-7 85 -41.5 118t-118.5 33q-96 0 -133 -33t-37 -119v-221q0 -83 37 -115t133 -32q84 0 118.5 32t41.5 115l200 -10q-7 -152 -91.5 -219.5t-268.5 -67.5z
M435 0l20 42q86 -8 140 -35.5t54 -94.5q0 -75 -67 -106.5t-149 -31.5q-96 0 -157 31.5t-66 104.5l168 10q2 -19 12.5 -26.5t34.5 -7.5q27 0 40.5 10.5t13.5 44.5q0 25 -9 38.5t-35 20.5z" />
    <glyph glyph-name="Cacute" unicode="&#x106;" horiz-adv-x="900" 
d="M100 0zM470 -10q-194 0 -282 73t-88 204v262q0 132 88.5 206.5t282.5 74.5q184 0 268 -68.5t91 -222.5l-200 -10q-7 85 -41.5 118t-118.5 33q-96 0 -133 -33t-37 -119v-221q0 -83 37 -115t133 -32q84 0 118.5 32t41.5 115l200 -10q-7 -152 -91.5 -219.5t-268.5 -67.5z
M331 900l106 200h250l-225 -200h-131z" />
    <glyph glyph-name="Ccircumflex" unicode="&#x108;" horiz-adv-x="900" 
d="M100 0zM266 884l-62 84l184 159h152l186 -159l-61 -83l-201 105zM470 -10q-194 0 -282 73t-88 204v262q0 132 88.5 206.5t282.5 74.5q184 0 268 -68.5t91 -222.5l-200 -10q-7 85 -41.5 118t-118.5 33q-96 0 -133 -33t-37 -119v-221q0 -83 37 -115t133 -32q84 0 118.5 32
t41.5 115l200 -10q-7 -152 -91.5 -219.5t-268.5 -67.5z" />
    <glyph glyph-name="Cdotaccent" unicode="&#x10a;" horiz-adv-x="900" 
d="M100 0zM470 -10q-194 0 -282 73t-88 204v262q0 132 88.5 206.5t282.5 74.5q184 0 268 -68.5t91 -222.5l-200 -10q-7 85 -41.5 118t-118.5 33q-96 0 -133 -33t-37 -119v-221q0 -83 37 -115t133 -32q84 0 118.5 32t41.5 115l200 -10q-7 -152 -91.5 -219.5t-268.5 -67.5z
M465 890q-57 0 -92.5 17t-35.5 59v15q0 43 35.5 61t92.5 18t92.5 -18t35.5 -61v-15q0 -42 -36 -59t-92 -17z" />
    <glyph glyph-name="Ccaron" unicode="&#x10c;" horiz-adv-x="900" 
d="M100 0zM390 904l-186 159l61 83l201 -105l198 106l62 -84l-184 -159h-152zM470 -10q-194 0 -282 73t-88 204v262q0 132 88.5 206.5t282.5 74.5q184 0 268 -68.5t91 -222.5l-200 -10q-7 85 -41.5 118t-118.5 33q-96 0 -133 -33t-37 -119v-221q0 -83 37 -115t133 -32
q84 0 118.5 32t41.5 115l200 -10q-7 -152 -91.5 -219.5t-268.5 -67.5z" />
    <glyph glyph-name="D" unicode="D" horiz-adv-x="1000" 
d="M80 0v150h120v500h-120v150h471q164 0 256.5 -79.5t92.5 -211.5v-222q0 -131 -93 -209t-257 -78h-470zM400 150h130q96 0 133 34t37 123v182q0 92 -37 126.5t-133 34.5h-130v-500z" />
    <glyph glyph-name="Dcaron" unicode="&#x10e;" horiz-adv-x="1000" 
d="M80 0zM425 904l-186 159l61 83l201 -105l198 106l62 -84l-184 -159h-152zM80 0v150h120v500h-120v150h471q164 0 256.5 -79.5t92.5 -211.5v-222q0 -131 -93 -209t-257 -78h-470zM400 150h130q96 0 133 34t37 123v182q0 92 -37 126.5t-133 34.5h-130v-500z" />
    <glyph glyph-name="E" unicode="E" horiz-adv-x="1000" 
d="M80 0v150h120v500h-120v150h800v-280h-190v130h-290v-170h240v-150h-240v-180h290v130h190v-280h-800z" />
    <glyph glyph-name="Egrave" unicode="&#xc8;" horiz-adv-x="1000" 
d="M80 0zM491 900l-225 200h250l106 -200h-131zM80 0v150h120v500h-120v150h800v-280h-190v130h-290v-170h240v-150h-240v-180h290v130h190v-280h-800z" />
    <glyph glyph-name="Eacute" unicode="&#xc9;" horiz-adv-x="1000" 
d="M80 0zM376 900l106 200h250l-225 -200h-131zM80 0v150h120v500h-120v150h800v-280h-190v130h-290v-170h240v-150h-240v-180h290v130h190v-280h-800z" />
    <glyph glyph-name="Ecircumflex" unicode="&#xca;" horiz-adv-x="1000" 
d="M80 0zM311 886l-62 84l184 159h152l186 -159l-61 -83l-201 105zM80 0v150h120v500h-120v150h800v-280h-190v130h-290v-170h240v-150h-240v-180h290v130h190v-280h-800z" />
    <glyph glyph-name="Edieresis" unicode="&#xcb;" horiz-adv-x="1000" 
d="M80 0zM80 0v150h120v500h-120v150h800v-280h-190v130h-290v-170h240v-150h-240v-180h290v130h190v-280h-800zM380 890q-43 0 -70.5 17t-27.5 59v15q0 43 27.5 61t70.5 18q44 0 71 -18t27 -61v-15q0 -42 -27.5 -59t-70.5 -17zM640 890q-43 0 -70.5 17t-27.5 59v15
q0 43 27.5 61t70.5 18q44 0 71 -18t27 -61v-15q0 -42 -27.5 -59t-70.5 -17z" />
    <glyph glyph-name="Emacron" unicode="&#x112;" horiz-adv-x="1000" 
d="M80 0zM80 0v150h120v500h-120v150h800v-280h-190v130h-290v-170h240v-150h-240v-180h290v130h190v-280h-800zM285 925v150h450v-150h-450z" />
    <glyph glyph-name="Ebreve" unicode="&#x114;" horiz-adv-x="1000" 
d="M80 0zM80 0v150h120v500h-120v150h800v-280h-190v130h-290v-170h240v-150h-240v-180h290v130h190v-280h-800zM510 893q-135 0 -200.5 59t-66.5 181h160q1 -68 25 -94.5t82 -26.5t82 26.5t25 94.5h160q-1 -122 -66.5 -181t-200.5 -59z" />
    <glyph glyph-name="Edotaccent" unicode="&#x116;" horiz-adv-x="1000" 
d="M80 0zM510 890q-57 0 -92.5 17t-35.5 59v15q0 43 35.5 61t92.5 18t92.5 -18t35.5 -61v-15q0 -42 -36 -59t-92 -17zM80 0v150h120v500h-120v150h800v-280h-190v130h-290v-170h240v-150h-240v-180h290v130h190v-280h-800z" />
    <glyph glyph-name="Eogonek" unicode="&#x118;" horiz-adv-x="1000" 
d="M80 0zM749 -224q-84 0 -132.5 32t-48.5 96q0 66 51 111.5t111 61.5l27 -54q-34 -21 -41.5 -40t-7.5 -36q0 -26 17.5 -38.5t57.5 -12.5q18 0 42 2.5t53 7.5v-116q-36 -7 -68.5 -10.5t-60.5 -3.5zM80 0v150h120v500h-120v150h800v-280h-190v130h-290v-170h240v-150h-240
v-180h290v130h190v-280h-800z" />
    <glyph glyph-name="Ecaron" unicode="&#x11a;" horiz-adv-x="1000" 
d="M80 0zM435 904l-186 159l61 83l201 -105l198 106l62 -84l-184 -159h-152zM80 0v150h120v500h-120v150h800v-280h-190v130h-290v-170h240v-150h-240v-180h290v130h190v-280h-800z" />
    <glyph glyph-name="F" unicode="F" horiz-adv-x="900" 
d="M80 0v150h120v500h-120v150h770v-270h-190v120h-260v-170h220v-150h-220v-180h200v-150h-520z" />
    <glyph glyph-name="G" unicode="G" horiz-adv-x="900" 
d="M660 0l-19 78q-37 -43 -97.5 -65.5t-144.5 -22.5q-141 0 -220 73t-79 204v262q0 147 89.5 214t261.5 67q182 0 262 -60t87 -201l-200 -10q-7 68 -39.5 94.5t-107.5 26.5q-86 0 -119.5 -33t-33.5 -118v-222q0 -83 32.5 -115t115.5 -32q84 0 117.5 29t34.5 104v7h-150v150
h350v-430h-140z" />
    <glyph glyph-name="Gcircumflex" unicode="&#x11c;" horiz-adv-x="900" 
d="M100 0zM251 884l-62 84l184 159h152l186 -159l-61 -83l-201 105zM660 0l-19 78q-37 -43 -97.5 -65.5t-144.5 -22.5q-141 0 -220 73t-79 204v262q0 147 89.5 214t261.5 67q182 0 262 -60t87 -201l-200 -10q-7 68 -39.5 94.5t-107.5 26.5q-86 0 -119.5 -33t-33.5 -118v-222
q0 -83 32.5 -115t115.5 -32q84 0 117.5 29t34.5 104v7h-150v150h350v-430h-140z" />
    <glyph glyph-name="Gbreve" unicode="&#x11e;" horiz-adv-x="900" 
d="M100 0zM450 893q-135 0 -200.5 59t-66.5 181h160q1 -68 25 -94.5t82 -26.5t82 26.5t25 94.5h160q-1 -122 -66.5 -181t-200.5 -59zM660 0l-19 78q-37 -43 -97.5 -65.5t-144.5 -22.5q-141 0 -220 73t-79 204v262q0 147 89.5 214t261.5 67q182 0 262 -60t87 -201l-200 -10
q-7 68 -39.5 94.5t-107.5 26.5q-86 0 -119.5 -33t-33.5 -118v-222q0 -83 32.5 -115t115.5 -32q84 0 117.5 29t34.5 104v7h-150v150h350v-430h-140z" />
    <glyph glyph-name="Gdotaccent" unicode="&#x120;" horiz-adv-x="900" 
d="M100 0zM450 890q-57 0 -92.5 17t-35.5 59v15q0 43 35.5 61t92.5 18t92.5 -18t35.5 -61v-15q0 -42 -36 -59t-92 -17zM660 0l-19 78q-37 -43 -97.5 -65.5t-144.5 -22.5q-141 0 -220 73t-79 204v262q0 147 89.5 214t261.5 67q182 0 262 -60t87 -201l-200 -10
q-7 68 -39.5 94.5t-107.5 26.5q-86 0 -119.5 -33t-33.5 -118v-222q0 -83 32.5 -115t115.5 -32q84 0 117.5 29t34.5 104v7h-150v150h350v-430h-140z" />
    <glyph glyph-name="Gcommaaccent" unicode="&#x122;" horiz-adv-x="900" 
d="M100 0zM286 -300l66 200h250l-185 -200h-131zM660 0l-19 78q-37 -43 -97.5 -65.5t-144.5 -22.5q-141 0 -220 73t-79 204v262q0 147 89.5 214t261.5 67q182 0 262 -60t87 -201l-200 -10q-7 68 -39.5 94.5t-107.5 26.5q-86 0 -119.5 -33t-33.5 -118v-222q0 -83 32.5 -115
t115.5 -32q84 0 117.5 29t34.5 104v7h-150v150h350v-430h-140z" />
    <glyph glyph-name="H" unicode="H" 
d="M80 0v150h120v500h-120v150h420v-150h-100v-150h300v150h-100v150h420v-150h-120v-500h120v-150h-420v150h100v210h-300v-210h100v-150h-420z" />
    <glyph glyph-name="Hcircumflex" unicode="&#x124;" 
d="M80 0zM80 0v150h120v500h-120v150h420v-150h-100v-150h300v150h-100v150h420v-150h-120v-500h120v-150h-420v150h100v210h-300v-210h100v-150h-420zM351 884l-62 84l184 159h152l186 -159l-61 -83l-201 105z" />
    <glyph glyph-name="I" unicode="I" horiz-adv-x="800" 
d="M100 0v150h200v500h-200v150h600v-150h-200v-500h200v-150h-600z" />
    <glyph glyph-name="Igrave" unicode="&#xcc;" horiz-adv-x="800" 
d="M100 0zM100 0v150h200v500h-200v150h600v-150h-200v-500h200v-150h-600zM381 900l-225 200h250l106 -200h-131z" />
    <glyph glyph-name="Iacute" unicode="&#xcd;" horiz-adv-x="800" 
d="M100 0zM100 0v150h200v500h-200v150h600v-150h-200v-500h200v-150h-600zM266 900l106 200h250l-225 -200h-131z" />
    <glyph glyph-name="Icircumflex" unicode="&#xce;" horiz-adv-x="800" 
d="M100 0zM100 0v150h200v500h-200v150h600v-150h-200v-500h200v-150h-600zM201 884l-62 84l184 159h152l186 -159l-61 -83l-201 105z" />
    <glyph glyph-name="Idieresis" unicode="&#xcf;" horiz-adv-x="800" 
d="M100 0zM100 0v150h200v500h-200v150h600v-150h-200v-500h200v-150h-600zM270 890q-43 0 -70.5 17t-27.5 59v15q0 43 27.5 61t70.5 18q44 0 71 -18t27 -61v-15q0 -42 -27.5 -59t-70.5 -17zM530 890q-43 0 -70.5 17t-27.5 59v15q0 43 27.5 61t70.5 18q44 0 71 -18t27 -61
v-15q0 -42 -27.5 -59t-70.5 -17z" />
    <glyph glyph-name="Itilde" unicode="&#x128;" horiz-adv-x="800" 
d="M100 0zM100 0v150h200v500h-200v150h600v-150h-200v-500h200v-150h-600zM496 910q-49 0 -75 15t-42 32q-16 18 -30 32.5t-33 14.5q-16 0 -29 -14.5t-12 -60.5v-9h-127v15q0 83 42 139t116 56q48 0 74 -15t43 -32q17 -18 31 -33t31 -15q16 0 29 14.5t12 60.5v9h127v-15
q0 -82 -42 -138t-115 -56z" />
    <glyph glyph-name="Imacron" unicode="&#x12a;" horiz-adv-x="800" 
d="M100 0zM100 0v150h200v500h-200v150h600v-150h-200v-500h200v-150h-600zM175 925v150h450v-150h-450z" />
    <glyph glyph-name="Ibreve" unicode="&#x12c;" horiz-adv-x="800" 
d="M100 0zM100 0v150h200v500h-200v150h600v-150h-200v-500h200v-150h-600zM400 893q-135 0 -200.5 59t-66.5 181h160q1 -68 25 -94.5t82 -26.5t82 26.5t25 94.5h160q-1 -122 -66.5 -181t-200.5 -59z" />
    <glyph glyph-name="Iogonek" unicode="&#x12e;" horiz-adv-x="800" 
d="M100 0zM100 0v150h200v500h-200v150h600v-150h-200v-500h200v-150h-600zM486 -224q-84 0 -132.5 32t-48.5 96q0 66 51 111.5t111 61.5l27 -54q-34 -21 -41.5 -40t-7.5 -36q0 -26 17.5 -38.5t57.5 -12.5q18 0 42 2.5t53 7.5v-116q-36 -7 -68.5 -10.5t-60.5 -3.5z" />
    <glyph glyph-name="Idotaccent" unicode="&#x130;" horiz-adv-x="800" 
d="M100 0zM100 0v150h200v500h-200v150h600v-150h-200v-500h200v-150h-600zM400 890q-57 0 -92.5 17t-35.5 59v15q0 43 35.5 61t92.5 18t92.5 -18t35.5 -61v-15q0 -42 -36 -59t-92 -17z" />
    <glyph glyph-name="J" unicode="J" horiz-adv-x="900" 
d="M800 800v-150h-100v-390q0 -137 -73.5 -203.5t-225.5 -66.5q-185 0 -259.5 64t-81.5 233l200 11q7 -101 30 -129.5t97 -28.5q67 0 90 26.5t23 103.5v380h-200v150h500z" />
    <glyph glyph-name="Jcircumflex" unicode="&#x134;" horiz-adv-x="900" 
d="M60 0zM371 884l-62 84l184 159h152l186 -159l-61 -83l-201 105zM800 800v-150h-100v-390q0 -137 -73.5 -203.5t-225.5 -66.5q-185 0 -259.5 64t-81.5 233l200 11q7 -101 30 -129.5t97 -28.5q67 0 90 26.5t23 103.5v380h-200v150h500z" />
    <glyph glyph-name="K" unicode="K" horiz-adv-x="1000" 
d="M490 150v-150h-410v150h120v500h-120v150h390v-150h-70v-165h90l135 165h-75v150h370v-150h-90l-181 -221l178 -279h103v-150h-248l-206 335h-76v-185h90z" />
    <glyph glyph-name="Kcommaaccent" unicode="&#x136;" horiz-adv-x="1000" 
d="M80 0zM490 150v-150h-410v150h120v500h-120v150h390v-150h-70v-165h90l135 165h-75v150h370v-150h-90l-181 -221l178 -279h103v-150h-248l-206 335h-76v-185h90zM359 -300l66 200h250l-185 -200h-131z" />
    <glyph glyph-name="L" unicode="L" horiz-adv-x="900" 
d="M80 0v150h120v500h-120v150h459v-150h-139v-500h240v180h190v-330h-750z" />
    <glyph glyph-name="Lacute" unicode="&#x139;" horiz-adv-x="900" 
d="M80 0zM171 900l106 200h250l-225 -200h-131zM80 0v150h120v500h-120v150h459v-150h-139v-500h240v180h190v-330h-750z" />
    <glyph glyph-name="Lcommaaccent" unicode="&#x13b;" horiz-adv-x="900" 
d="M80 0zM80 0v150h120v500h-120v150h459v-150h-139v-500h240v180h190v-330h-750zM331 -300l66 200h250l-185 -200h-131z" />
    <glyph glyph-name="Lcaron" unicode="&#x13d;" horiz-adv-x="900" 
d="M80 0zM596 505l51 295h247l-186 -295h-112zM80 0v150h120v500h-120v150h459v-150h-139v-500h240v180h190v-330h-750z" />
    <glyph glyph-name="M" unicode="M" horiz-adv-x="1200" 
d="M470 150v-150h-390v150h120v500h-120v150h390l138 -376l137 376h375v-150h-120v-500h120v-150h-390v150h100v457l-137 -357h-186l-137 356v-456h100z" />
    <glyph glyph-name="N" unicode="N" 
d="M470 150v-150h-390v150h120v500h-120v150h387l263 -615v465h-100v150h390v-150h-120v-650h-283l-247 577v-427h100z" />
    <glyph glyph-name="Ntilde" unicode="&#xd1;" 
d="M80 0zM666 910q-49 0 -75 15t-42 32q-16 18 -30 32.5t-33 14.5q-16 0 -29 -14.5t-12 -60.5v-9h-127v15q0 83 42 139t116 56q48 0 74 -15t43 -32q17 -18 31 -33t31 -15q16 0 29 14.5t12 60.5v9h127v-15q0 -82 -42 -138t-115 -56zM470 150v-150h-390v150h120v500h-120v150
h387l263 -615v465h-100v150h390v-150h-120v-650h-283l-247 577v-427h100z" />
    <glyph glyph-name="Nacute" unicode="&#x143;" 
d="M80 0zM456 900l106 200h250l-225 -200h-131zM470 150v-150h-390v150h120v500h-120v150h387l263 -615v465h-100v150h390v-150h-120v-650h-283l-247 577v-427h100z" />
    <glyph glyph-name="Ncommaaccent" unicode="&#x145;" 
d="M80 0zM346 -300l66 200h250l-185 -200h-131zM470 150v-150h-390v150h120v500h-120v150h387l263 -615v465h-100v150h390v-150h-120v-650h-283l-247 577v-427h100z" />
    <glyph glyph-name="Ncaron" unicode="&#x147;" 
d="M80 0zM515 904l-186 159l61 83l201 -105l198 106l62 -84l-184 -159h-152zM470 150v-150h-390v150h120v500h-120v150h387l263 -615v465h-100v150h390v-150h-120v-650h-283l-247 577v-427h100z" />
    <glyph glyph-name="O" unicode="O" horiz-adv-x="900" 
d="M450 -10q-172 0 -261 73t-89 204v262q0 132 89.5 206.5t261.5 74.5t260.5 -74.5t88.5 -206.5v-262q0 -131 -89 -204t-261 -73zM450 140q83 0 116.5 33t33.5 114v222q0 84 -33.5 117.5t-116.5 33.5t-116.5 -33.5t-33.5 -117.5v-222q0 -81 33.5 -114t116.5 -33z" />
    <glyph glyph-name="Ograve" unicode="&#xd2;" horiz-adv-x="900" 
d="M100 0zM431 900l-225 200h250l106 -200h-131zM450 -10q-172 0 -261 73t-89 204v262q0 132 89.5 206.5t261.5 74.5t260.5 -74.5t88.5 -206.5v-262q0 -131 -89 -204t-261 -73zM450 140q83 0 116.5 33t33.5 114v222q0 84 -33.5 117.5t-116.5 33.5t-116.5 -33.5t-33.5 -117.5
v-222q0 -81 33.5 -114t116.5 -33z" />
    <glyph glyph-name="Oacute" unicode="&#xd3;" horiz-adv-x="900" 
d="M100 0zM316 900l106 200h250l-225 -200h-131zM450 -10q-172 0 -261 73t-89 204v262q0 132 89.5 206.5t261.5 74.5t260.5 -74.5t88.5 -206.5v-262q0 -131 -89 -204t-261 -73zM450 140q83 0 116.5 33t33.5 114v222q0 84 -33.5 117.5t-116.5 33.5t-116.5 -33.5t-33.5 -117.5
v-222q0 -81 33.5 -114t116.5 -33z" />
    <glyph glyph-name="Ocircumflex" unicode="&#xd4;" horiz-adv-x="900" 
d="M100 0zM251 884l-62 84l184 159h152l186 -159l-61 -83l-201 105zM450 -10q-172 0 -261 73t-89 204v262q0 132 89.5 206.5t261.5 74.5t260.5 -74.5t88.5 -206.5v-262q0 -131 -89 -204t-261 -73zM450 140q83 0 116.5 33t33.5 114v222q0 84 -33.5 117.5t-116.5 33.5
t-116.5 -33.5t-33.5 -117.5v-222q0 -81 33.5 -114t116.5 -33z" />
    <glyph glyph-name="Otilde" unicode="&#xd5;" horiz-adv-x="900" 
d="M100 0zM546 910q-49 0 -75 15t-42 32q-16 18 -30 32.5t-33 14.5q-16 0 -29 -14.5t-12 -60.5v-9h-127v15q0 83 42 139t116 56q48 0 74 -15t43 -32q17 -18 31 -33t31 -15q16 0 29 14.5t12 60.5v9h127v-15q0 -82 -42 -138t-115 -56zM450 -10q-172 0 -261 73t-89 204v262
q0 132 89.5 206.5t261.5 74.5t260.5 -74.5t88.5 -206.5v-262q0 -131 -89 -204t-261 -73zM450 140q83 0 116.5 33t33.5 114v222q0 84 -33.5 117.5t-116.5 33.5t-116.5 -33.5t-33.5 -117.5v-222q0 -81 33.5 -114t116.5 -33z" />
    <glyph glyph-name="Odieresis" unicode="&#xd6;" horiz-adv-x="900" 
d="M100 0zM320 890q-43 0 -70.5 17t-27.5 59v15q0 43 27.5 61t70.5 18q44 0 71 -18t27 -61v-15q0 -42 -27.5 -59t-70.5 -17zM580 890q-43 0 -70.5 17t-27.5 59v15q0 43 27.5 61t70.5 18q44 0 71 -18t27 -61v-15q0 -42 -27.5 -59t-70.5 -17zM450 -10q-172 0 -261 73t-89 204
v262q0 132 89.5 206.5t261.5 74.5t260.5 -74.5t88.5 -206.5v-262q0 -131 -89 -204t-261 -73zM450 140q83 0 116.5 33t33.5 114v222q0 84 -33.5 117.5t-116.5 33.5t-116.5 -33.5t-33.5 -117.5v-222q0 -81 33.5 -114t116.5 -33z" />
    <glyph glyph-name="Omacron" unicode="&#x14c;" horiz-adv-x="900" 
d="M100 0zM225 925v150h450v-150h-450zM450 -10q-172 0 -261 73t-89 204v262q0 132 89.5 206.5t261.5 74.5t260.5 -74.5t88.5 -206.5v-262q0 -131 -89 -204t-261 -73zM450 140q83 0 116.5 33t33.5 114v222q0 84 -33.5 117.5t-116.5 33.5t-116.5 -33.5t-33.5 -117.5v-222
q0 -81 33.5 -114t116.5 -33z" />
    <glyph glyph-name="Obreve" unicode="&#x14e;" horiz-adv-x="900" 
d="M100 0zM450 893q-135 0 -200.5 59t-66.5 181h160q1 -68 25 -94.5t82 -26.5t82 26.5t25 94.5h160q-1 -122 -66.5 -181t-200.5 -59zM450 -10q-172 0 -261 73t-89 204v262q0 132 89.5 206.5t261.5 74.5t260.5 -74.5t88.5 -206.5v-262q0 -131 -89 -204t-261 -73zM450 140
q83 0 116.5 33t33.5 114v222q0 84 -33.5 117.5t-116.5 33.5t-116.5 -33.5t-33.5 -117.5v-222q0 -81 33.5 -114t116.5 -33z" />
    <glyph glyph-name="Ohungarumlaut" unicode="&#x150;" horiz-adv-x="900" 
d="M100 0zM486 900l46 200h190l-135 -200h-101zM256 900l46 200h190l-135 -200h-101zM450 -10q-172 0 -261 73t-89 204v262q0 132 89.5 206.5t261.5 74.5t260.5 -74.5t88.5 -206.5v-262q0 -131 -89 -204t-261 -73zM450 140q83 0 116.5 33t33.5 114v222q0 84 -33.5 117.5
t-116.5 33.5t-116.5 -33.5t-33.5 -117.5v-222q0 -81 33.5 -114t116.5 -33z" />
    <glyph glyph-name="P" unicode="P" horiz-adv-x="900" 
d="M80 0v150h120v500h-120v150h462q142 0 215 -53.5t73 -157.5v-120q0 -97 -72.5 -147t-214.5 -50h-143v-122h170v-150h-490zM400 420h110q64 0 92 18t28 59v70q0 45 -28 64t-92 19h-110v-230z" />
    <glyph glyph-name="Q" unicode="Q" horiz-adv-x="900" 
d="M710 -211q-199 -28 -281 26.5t-80 212.5q-122 19 -185.5 89t-63.5 180v232q0 132 89.5 206.5t261.5 74.5t260.5 -74.5t88.5 -206.5v-232q0 -121 -76.5 -193t-223.5 -82q4 -60 47.5 -75.5t142.5 2.5zM450 160q90 0 120 32t30 125v192q0 90 -30 120.5t-120 30.5t-120 -30.5
t-30 -120.5v-192q0 -93 30 -125t120 -32z" />
    <glyph glyph-name="R" unicode="R" horiz-adv-x="1000" 
d="M400 450h170q60 0 85 18t25 61v42q0 43 -25 61t-85 18h-170v-200zM500 0h-420v150h120v500h-120v150h541q128 0 193.5 -56t65.5 -165v-52q0 -86 -39 -140t-114 -74l94 -163h129v-150h-258l-174 300h-118v-150h100v-150z" />
    <glyph glyph-name="Racute" unicode="&#x154;" horiz-adv-x="1000" 
d="M80 0zM421 900l106 200h250l-225 -200h-131zM400 450h170q60 0 85 18t25 61v42q0 43 -25 61t-85 18h-170v-200zM500 0h-420v150h120v500h-120v150h541q128 0 193.5 -56t65.5 -165v-52q0 -86 -39 -140t-114 -74l94 -163h129v-150h-258l-174 300h-118v-150h100v-150z" />
    <glyph glyph-name="Rcommaaccent" unicode="&#x156;" horiz-adv-x="1000" 
d="M80 0zM400 450h170q60 0 85 18t25 61v42q0 43 -25 61t-85 18h-170v-200zM500 0h-420v150h120v500h-120v150h541q128 0 193.5 -56t65.5 -165v-52q0 -86 -39 -140t-114 -74l94 -163h129v-150h-258l-174 300h-118v-150h100v-150zM361 -300l66 200h250l-185 -200h-131z" />
    <glyph glyph-name="Rcaron" unicode="&#x158;" horiz-adv-x="1000" 
d="M80 0zM480 904l-186 159l61 83l201 -105l198 106l62 -84l-184 -159h-152zM400 450h170q60 0 85 18t25 61v42q0 43 -25 61t-85 18h-170v-200zM500 0h-420v150h120v500h-120v150h541q128 0 193.5 -56t65.5 -165v-52q0 -86 -39 -140t-114 -74l94 -163h129v-150h-258
l-174 300h-118v-150h100v-150z" />
    <glyph glyph-name="S" unicode="S" horiz-adv-x="900" 
d="M441 -10q-92 0 -184 25.5t-167 65.5l45 149q78 -42 160.5 -66t174.5 -24q70 0 102.5 25t32.5 66q0 36 -44.5 53.5t-202.5 44.5q-135 22 -191.5 72t-56.5 149q0 110 82.5 185t248.5 75q82 0 171 -27t143 -59l-35 -142q-74 34 -144.5 55t-136.5 21q-62 0 -96 -21.5
t-34 -63.5q0 -36 44.5 -54t203.5 -46q135 -25 191.5 -77.5t56.5 -152.5q0 -120 -96 -186.5t-268 -66.5z" />
    <glyph glyph-name="Sacute" unicode="&#x15a;" horiz-adv-x="900" 
d="M90 0zM441 -10q-92 0 -184 25.5t-167 65.5l45 149q78 -42 160.5 -66t174.5 -24q70 0 102.5 25t32.5 66q0 36 -44.5 53.5t-202.5 44.5q-135 22 -191.5 72t-56.5 149q0 110 82.5 185t248.5 75q82 0 171 -27t143 -59l-35 -142q-74 34 -144.5 55t-136.5 21q-62 0 -96 -21.5
t-34 -63.5q0 -36 44.5 -54t203.5 -46q135 -25 191.5 -77.5t56.5 -152.5q0 -120 -96 -186.5t-268 -66.5zM314 900l106 200h250l-225 -200h-131z" />
    <glyph glyph-name="Scircumflex" unicode="&#x15c;" horiz-adv-x="900" 
d="M90 0zM249 884l-62 84l184 159h152l186 -159l-61 -83l-201 105zM441 -10q-92 0 -184 25.5t-167 65.5l45 149q78 -42 160.5 -66t174.5 -24q70 0 102.5 25t32.5 66q0 36 -44.5 53.5t-202.5 44.5q-135 22 -191.5 72t-56.5 149q0 110 82.5 185t248.5 75q82 0 171 -27t143 -59
l-35 -142q-74 34 -144.5 55t-136.5 21q-62 0 -96 -21.5t-34 -63.5q0 -36 44.5 -54t203.5 -46q135 -25 191.5 -77.5t56.5 -152.5q0 -120 -96 -186.5t-268 -66.5z" />
    <glyph glyph-name="Scedilla" unicode="&#x15e;" horiz-adv-x="900" 
d="M90 0zM441 -10q-92 0 -184 25.5t-167 65.5l45 149q78 -42 160.5 -66t174.5 -24q70 0 102.5 25t32.5 66q0 36 -44.5 53.5t-202.5 44.5q-135 22 -191.5 72t-56.5 149q0 110 82.5 185t248.5 75q82 0 171 -27t143 -59l-35 -142q-74 34 -144.5 55t-136.5 21q-62 0 -96 -21.5
t-34 -63.5q0 -36 44.5 -54t203.5 -46q135 -25 191.5 -77.5t56.5 -152.5q0 -120 -96 -186.5t-268 -66.5zM418 0l20 42q86 -8 140 -35.5t54 -94.5q0 -75 -67 -106.5t-149 -31.5q-96 0 -157 31.5t-66 104.5l168 10q2 -19 12.5 -26.5t34.5 -7.5q27 0 40.5 10.5t13.5 44.5
q0 25 -9 38.5t-35 20.5z" />
    <glyph glyph-name="Scaron" unicode="&#x160;" horiz-adv-x="900" 
d="M90 0zM373 904l-186 159l61 83l201 -105l198 106l62 -84l-184 -159h-152zM441 -10q-92 0 -184 25.5t-167 65.5l45 149q78 -42 160.5 -66t174.5 -24q70 0 102.5 25t32.5 66q0 36 -44.5 53.5t-202.5 44.5q-135 22 -191.5 72t-56.5 149q0 110 82.5 185t248.5 75
q82 0 171 -27t143 -59l-35 -142q-74 34 -144.5 55t-136.5 21q-62 0 -96 -21.5t-34 -63.5q0 -36 44.5 -54t203.5 -46q135 -25 191.5 -77.5t56.5 -152.5q0 -120 -96 -186.5t-268 -66.5z" />
    <glyph glyph-name="Scommaaccent" unicode="&#x218;" horiz-adv-x="900" 
d="M90 0zM441 -10q-92 0 -184 25.5t-167 65.5l45 149q78 -42 160.5 -66t174.5 -24q70 0 102.5 25t32.5 66q0 36 -44.5 53.5t-202.5 44.5q-135 22 -191.5 72t-56.5 149q0 110 82.5 185t248.5 75q82 0 171 -27t143 -59l-35 -142q-74 34 -144.5 55t-136.5 21q-62 0 -96 -21.5
t-34 -63.5q0 -36 44.5 -54t203.5 -46q135 -25 191.5 -77.5t56.5 -152.5q0 -120 -96 -186.5t-268 -66.5zM246 -300l66 200h250l-185 -200h-131z" />
    <glyph glyph-name="T" unicode="T" horiz-adv-x="1000" 
d="M259 0v150h141v500h-120v-150h-200v300h840v-300h-200v150h-120v-500h141v-150h-482z" />
    <glyph glyph-name="Tcedilla" unicode="&#x162;" horiz-adv-x="1000" 
d="M80 0zM259 0v150h141v500h-120v-150h-200v300h840v-300h-200v150h-120v-500h141v-150h-482zM470 0l20 42q86 -8 140 -35.5t54 -94.5q0 -75 -67 -106.5t-149 -31.5q-96 0 -157 31.5t-66 104.5l168 10q2 -19 12.5 -26.5t34.5 -7.5q27 0 40.5 10.5t13.5 44.5q0 25 -9 38.5
t-35 20.5z" />
    <glyph glyph-name="Tcaron" unicode="&#x164;" horiz-adv-x="1000" 
d="M80 0zM425 904l-186 159l61 83l201 -105l198 106l62 -84l-184 -159h-152zM259 0v150h141v500h-120v-150h-200v300h840v-300h-200v150h-120v-500h141v-150h-482z" />
    <glyph glyph-name="Tcommaaccent" unicode="&#x21a;" horiz-adv-x="1000" 
d="M80 0zM259 0v150h141v500h-120v-150h-200v300h840v-300h-200v150h-120v-500h141v-150h-482zM316 -300l66 200h250l-185 -200h-131z" />
    <glyph glyph-name="U" unicode="U" 
d="M550 -10q-181 0 -265.5 74t-84.5 233v353h-120v150h420v-150h-100v-343q0 -88 33 -122.5t117 -34.5t117 34.5t33 122.5v343h-100v150h420v-150h-120v-353q0 -159 -84.5 -233t-265.5 -74z" />
    <glyph glyph-name="Ugrave" unicode="&#xd9;" 
d="M80 0zM531 900l-225 200h250l106 -200h-131zM550 -10q-181 0 -265.5 74t-84.5 233v353h-120v150h420v-150h-100v-343q0 -88 33 -122.5t117 -34.5t117 34.5t33 122.5v343h-100v150h420v-150h-120v-353q0 -159 -84.5 -233t-265.5 -74z" />
    <glyph glyph-name="Uacute" unicode="&#xda;" 
d="M80 0zM416 900l106 200h250l-225 -200h-131zM550 -10q-181 0 -265.5 74t-84.5 233v353h-120v150h420v-150h-100v-343q0 -88 33 -122.5t117 -34.5t117 34.5t33 122.5v343h-100v150h420v-150h-120v-353q0 -159 -84.5 -233t-265.5 -74z" />
    <glyph glyph-name="Ucircumflex" unicode="&#xdb;" 
d="M80 0zM351 884l-62 84l184 159h152l186 -159l-61 -83l-201 105zM550 -10q-181 0 -265.5 74t-84.5 233v353h-120v150h420v-150h-100v-343q0 -88 33 -122.5t117 -34.5t117 34.5t33 122.5v343h-100v150h420v-150h-120v-353q0 -159 -84.5 -233t-265.5 -74z" />
    <glyph glyph-name="Udieresis" unicode="&#xdc;" 
d="M80 0zM550 -10q-181 0 -265.5 74t-84.5 233v353h-120v150h420v-150h-100v-343q0 -88 33 -122.5t117 -34.5t117 34.5t33 122.5v343h-100v150h420v-150h-120v-353q0 -159 -84.5 -233t-265.5 -74zM420 890q-43 0 -70.5 17t-27.5 59v15q0 43 27.5 61t70.5 18q44 0 71 -18
t27 -61v-15q0 -42 -27.5 -59t-70.5 -17zM680 890q-43 0 -70.5 17t-27.5 59v15q0 43 27.5 61t70.5 18q44 0 71 -18t27 -61v-15q0 -42 -27.5 -59t-70.5 -17z" />
    <glyph glyph-name="Utilde" unicode="&#x168;" 
d="M80 0zM550 -10q-181 0 -265.5 74t-84.5 233v353h-120v150h420v-150h-100v-343q0 -88 33 -122.5t117 -34.5t117 34.5t33 122.5v343h-100v150h420v-150h-120v-353q0 -159 -84.5 -233t-265.5 -74zM646 910q-49 0 -75 15t-42 32q-16 18 -30 32.5t-33 14.5q-16 0 -29 -14.5
t-12 -60.5v-9h-127v15q0 83 42 139t116 56q48 0 74 -15t43 -32q17 -18 31 -33t31 -15q16 0 29 14.5t12 60.5v9h127v-15q0 -82 -42 -138t-115 -56z" />
    <glyph glyph-name="Umacron" unicode="&#x16a;" 
d="M80 0zM550 -10q-181 0 -265.5 74t-84.5 233v353h-120v150h420v-150h-100v-343q0 -88 33 -122.5t117 -34.5t117 34.5t33 122.5v343h-100v150h420v-150h-120v-353q0 -159 -84.5 -233t-265.5 -74zM325 925v150h450v-150h-450z" />
    <glyph glyph-name="Ubreve" unicode="&#x16c;" 
d="M80 0zM550 -10q-181 0 -265.5 74t-84.5 233v353h-120v150h420v-150h-100v-343q0 -88 33 -122.5t117 -34.5t117 34.5t33 122.5v343h-100v150h420v-150h-120v-353q0 -159 -84.5 -233t-265.5 -74zM550 893q-135 0 -200.5 59t-66.5 181h160q1 -68 25 -94.5t82 -26.5t82 26.5
t25 94.5h160q-1 -122 -66.5 -181t-200.5 -59z" />
    <glyph glyph-name="Uring" unicode="&#x16e;" 
d="M80 0zM550 -10q-181 0 -265.5 74t-84.5 233v353h-120v150h420v-150h-100v-343q0 -88 33 -122.5t117 -34.5t117 34.5t33 122.5v343h-100v150h420v-150h-120v-353q0 -159 -84.5 -233t-265.5 -74zM550 875q-94 0 -152 38t-58 117v32q0 80 58 119t152 39q95 0 152.5 -39
t57.5 -119v-32q0 -79 -58 -117t-152 -38zM550 966q35 0 53.5 14.5t18.5 49.5v32q0 34 -18.5 50.5t-53.5 16.5q-36 0 -54 -16.5t-18 -50.5v-32q0 -35 18 -49.5t54 -14.5z" />
    <glyph glyph-name="Uhungarumlaut" unicode="&#x170;" 
d="M80 0zM586 900l46 200h190l-135 -200h-101zM356 900l46 200h190l-135 -200h-101zM550 -10q-181 0 -265.5 74t-84.5 233v353h-120v150h420v-150h-100v-343q0 -88 33 -122.5t117 -34.5t117 34.5t33 122.5v343h-100v150h420v-150h-120v-353q0 -159 -84.5 -233t-265.5 -74z
" />
    <glyph glyph-name="Uogonek" unicode="&#x172;" 
d="M80 0zM626 -224q-84 0 -132.5 32t-48.5 96q0 66 51 111.5t111 61.5l27 -54q-34 -21 -41.5 -40t-7.5 -36q0 -26 17.5 -38.5t57.5 -12.5q18 0 42 2.5t53 7.5v-116q-36 -7 -68.5 -10.5t-60.5 -3.5zM550 -10q-181 0 -265.5 74t-84.5 233v353h-120v150h420v-150h-100v-343
q0 -88 33 -122.5t117 -34.5t117 34.5t33 122.5v343h-100v150h420v-150h-120v-353q0 -159 -84.5 -233t-265.5 -74z" />
    <glyph glyph-name="V" unicode="V" horiz-adv-x="1000" 
d="M631 0h-265l-228 650h-88v150h394v-150h-100l168 -497l169 497h-100v150h369v-150h-91z" />
    <glyph glyph-name="W" unicode="W" horiz-adv-x="1300" 
d="M778 0l-127 502l-125 -502h-214l-141 650h-101v150h390v-150h-111l93 -459l119 509h179l128 -510l93 460h-111v150h380v-150h-101l-141 -650h-210z" />
    <glyph glyph-name="Wcircumflex" unicode="&#x174;" horiz-adv-x="1300" 
d="M70 0zM451 884l-62 84l184 159h152l186 -159l-61 -83l-201 105zM778 0l-127 502l-125 -502h-214l-141 650h-101v150h390v-150h-111l93 -459l119 509h179l128 -510l93 460h-111v150h380v-150h-101l-141 -650h-210z" />
    <glyph glyph-name="Wgrave" unicode="&#x1e80;" horiz-adv-x="1300" 
d="M70 0zM631 900l-225 200h250l106 -200h-131zM778 0l-127 502l-125 -502h-214l-141 650h-101v150h390v-150h-111l93 -459l119 509h179l128 -510l93 460h-111v150h380v-150h-101l-141 -650h-210z" />
    <glyph glyph-name="Wacute" unicode="&#x1e82;" horiz-adv-x="1300" 
d="M70 0zM516 900l106 200h250l-225 -200h-131zM778 0l-127 502l-125 -502h-214l-141 650h-101v150h390v-150h-111l93 -459l119 509h179l128 -510l93 460h-111v150h380v-150h-101l-141 -650h-210z" />
    <glyph glyph-name="Wdieresis" unicode="&#x1e84;" horiz-adv-x="1300" 
d="M70 0zM520 890q-43 0 -70.5 17t-27.5 59v15q0 43 27.5 61t70.5 18q44 0 71 -18t27 -61v-15q0 -42 -27.5 -59t-70.5 -17zM780 890q-43 0 -70.5 17t-27.5 59v15q0 43 27.5 61t70.5 18q44 0 71 -18t27 -61v-15q0 -42 -27.5 -59t-70.5 -17zM778 0l-127 502l-125 -502h-214
l-141 650h-101v150h390v-150h-111l93 -459l119 509h179l128 -510l93 460h-111v150h380v-150h-101l-141 -650h-210z" />
    <glyph glyph-name="X" unicode="X" horiz-adv-x="1000" 
d="M405 130v-130h-325v150h79l216 261l-194 239h-101v150h396v-130h-77l141 -173l134 173h-78v130h324v-150h-85l-208 -260l196 -240h97v-150h-395v130h78l-142 175l-136 -175h80z" />
    <glyph glyph-name="Y" unicode="Y" horiz-adv-x="1000" 
d="M741 0h-482v150h141v150l-245 350h-105v150h420v-150h-99l148 -216l150 216h-99v150h380v-150h-106l-244 -350v-150h141v-150z" />
    <glyph glyph-name="Yacute" unicode="&#xdd;" horiz-adv-x="1000" 
d="M50 0zM741 0h-482v150h141v150l-245 350h-105v150h420v-150h-99l148 -216l150 216h-99v150h380v-150h-106l-244 -350v-150h141v-150zM366 900l106 200h250l-225 -200h-131z" />
    <glyph glyph-name="Ycircumflex" unicode="&#x176;" horiz-adv-x="1000" 
d="M50 0zM741 0h-482v150h141v150l-245 350h-105v150h420v-150h-99l148 -216l150 216h-99v150h380v-150h-106l-244 -350v-150h141v-150zM301 884l-62 84l184 159h152l186 -159l-61 -83l-201 105z" />
    <glyph glyph-name="Ydieresis" unicode="&#x178;" horiz-adv-x="1000" 
d="M50 0zM741 0h-482v150h141v150l-245 350h-105v150h420v-150h-99l148 -216l150 216h-99v150h380v-150h-106l-244 -350v-150h141v-150zM370 890q-43 0 -70.5 17t-27.5 59v15q0 43 27.5 61t70.5 18q44 0 71 -18t27 -61v-15q0 -42 -27.5 -59t-70.5 -17zM630 890
q-43 0 -70.5 17t-27.5 59v15q0 43 27.5 61t70.5 18q44 0 71 -18t27 -61v-15q0 -42 -27.5 -59t-70.5 -17z" />
    <glyph glyph-name="Ygrave" unicode="&#x1ef2;" horiz-adv-x="1000" 
d="M50 0zM741 0h-482v150h141v150l-245 350h-105v150h420v-150h-99l148 -216l150 216h-99v150h380v-150h-106l-244 -350v-150h141v-150zM481 900l-225 200h250l106 -200h-131z" />
    <glyph glyph-name="Z" unicode="Z" horiz-adv-x="900" 
d="M810 0h-720v150l453 500h-273v-110h-170v260h700v-150l-452 -500h292v110h170v-260z" />
    <glyph glyph-name="Zacute" unicode="&#x179;" horiz-adv-x="900" 
d="M90 0zM316 900l106 200h250l-225 -200h-131zM810 0h-720v150l453 500h-273v-110h-170v260h700v-150l-452 -500h292v110h170v-260z" />
    <glyph glyph-name="Zdotaccent" unicode="&#x17b;" horiz-adv-x="900" 
d="M90 0zM810 0h-720v150l453 500h-273v-110h-170v260h700v-150l-452 -500h292v110h170v-260zM450 890q-57 0 -92.5 17t-35.5 59v15q0 43 35.5 61t92.5 18t92.5 -18t35.5 -61v-15q0 -42 -36 -59t-92 -17z" />
    <glyph glyph-name="Zcaron" unicode="&#x17d;" horiz-adv-x="900" 
d="M90 0zM375 904l-186 159l61 83l201 -105l198 106l62 -84l-184 -159h-152zM810 0h-720v150l453 500h-273v-110h-170v260h700v-150l-452 -500h292v110h170v-260z" />
    <glyph glyph-name="AE" unicode="&#xc6;" horiz-adv-x="1400" 
d="M589 650l-90 -210h201v210h-111zM480 150v-150h-390v150h106l221 500h-127v150h990v-280h-190v130h-190v-170h140v-150h-140v-180h190v130h190v-280h-670v150h90v140h-266l-60 -140h106z" />
    <glyph glyph-name="AEacute" unicode="&#x1fc;" horiz-adv-x="1400" 
d="M90 0zM673 900l106 200h250l-225 -200h-131zM589 650l-90 -210h201v210h-111zM480 150v-150h-390v150h106l221 500h-127v150h990v-280h-190v130h-190v-170h140v-150h-140v-180h190v130h190v-280h-670v150h90v140h-266l-60 -140h106z" />
    <glyph glyph-name="Eth" unicode="&#xd0;" horiz-adv-x="1000" 
d="M80 0v150h120v230h-120v120h120v150h-120v150h471q164 0 256.5 -79.5t92.5 -211.5v-222q0 -131 -93 -209t-257 -78h-470zM400 150h130q96 0 133 34t37 123v182q0 92 -37 126.5t-133 34.5h-130v-150h130v-120h-130v-230z" />
    <glyph glyph-name="Oslash" unicode="&#xd8;" horiz-adv-x="900" 
d="M312 204l180 454q-9 1 -20 1.5t-22 0.5q-84 0 -117 -33t-33 -118v-222q0 -26 3 -46.5t9 -36.5zM450 140q84 0 117 32t33 115v222q0 26 -3 47.5t-9 37.5l-181 -452q10 -1 20.5 -1.5t22.5 -0.5zM450 -10q-25 0 -47.5 1.5t-44.5 4.5l-38 -96h-140l54 134q-66 34 -100 93
t-34 140v262q0 132 89.5 206.5t261.5 74.5q24 0 46.5 -1.5t43.5 -4.5l39 96h140l-53 -134q66 -35 99.5 -95.5t33.5 -141.5v-262q0 -131 -89 -204t-261 -73z" />
    <glyph glyph-name="Oslashacute" unicode="&#x1fe;" horiz-adv-x="900" 
d="M100 0zM312 204l180 454q-9 1 -20 1.5t-22 0.5q-84 0 -117 -33t-33 -118v-222q0 -26 3 -46.5t9 -36.5zM450 140q84 0 117 32t33 115v222q0 26 -3 47.5t-9 37.5l-181 -452q10 -1 20.5 -1.5t22.5 -0.5zM450 -10q-25 0 -47.5 1.5t-44.5 4.5l-38 -96h-140l54 134
q-66 34 -100 93t-34 140v262q0 132 89.5 206.5t261.5 74.5q24 0 46.5 -1.5t43.5 -4.5l39 96h140l-53 -134q66 -35 99.5 -95.5t33.5 -141.5v-262q0 -131 -89 -204t-261 -73zM316 900l106 200h250l-225 -200h-131z" />
    <glyph glyph-name="Thorn" unicode="&#xde;" horiz-adv-x="900" 
d="M543 122h-143v-122h-320v160h120v480h-120v160h320v-120h142q141 0 214.5 -54t73.5 -157v-150q0 -96 -73.5 -146.5t-213.5 -50.5zM510 530h-110v-260h110q60 0 90 15.5t30 60.5v103q0 46 -30 63.5t-90 17.5z" />
    <glyph glyph-name="Dcroat" unicode="&#x110;" horiz-adv-x="1000" 
d="M80 0v150h120v230h-120v120h120v150h-120v150h471q164 0 256.5 -79.5t92.5 -211.5v-222q0 -131 -93 -209t-257 -78h-470zM400 150h130q96 0 133 34t37 123v182q0 92 -37 126.5t-133 34.5h-130v-150h130v-120h-130v-230z" />
    <glyph glyph-name="Hbar" unicode="&#x126;" 
d="M400 370h300v80h-300v-80zM500 150v-150h-420v150h120v300h-120v120h120v80h-120v150h420v-150h-100v-80h300v80h-100v150h420v-150h-120v-80h120v-120h-120v-300h120v-150h-420v150h100v100h-300v-100h100z" />
    <glyph glyph-name="IJ" unicode="&#x132;" horiz-adv-x="1700" 
d="M100 0zM100 0v150h200v500h-200v150h600v-150h-200v-500h200v-150h-600zM1600 800v-150h-100v-390q0 -137 -73.5 -203.5t-225.5 -66.5q-185 0 -259.5 64t-81.5 233l200 11q7 -101 30 -129.5t97 -28.5q67 0 90 26.5t23 103.5v380h-200v150h500z" />
    <glyph glyph-name="Ldot" unicode="&#x13f;" horiz-adv-x="1000" 
d="M80 0zM820 400q-57 0 -92.5 17t-35.5 59v15q0 43 35.5 61t92.5 18t92.5 -18t35.5 -61v-15q0 -42 -36 -59t-92 -17zM80 0v150h120v500h-120v150h459v-150h-139v-500h240v180h190v-330h-750z" />
    <glyph glyph-name="Lslash" unicode="&#x141;" horiz-adv-x="900" 
d="M80 0v150h120v188l-120 -38v120l120 38v192h-120v150h459v-150h-139v-128l180 58v-120l-180 -58v-252h240v180h190v-330h-750z" />
    <glyph glyph-name="Eng" unicode="&#x14a;" horiz-adv-x="1000" 
d="M80 0v150h120v500h-120v150h320v-160h30q40 94 105.5 132t137.5 38q100 0 163.5 -58.5t63.5 -172.5v-581q0 -110 -83.5 -159t-188.5 -49q-40 0 -80 5.5t-77 17.5l20 126q31 -10 59 -14.5t52 -4.5q46 0 72 22t26 73v509q0 70 -26.5 103t-83.5 33q-49 0 -95 -33t-95 -103
v-374h120v-150h-440z" />
    <glyph glyph-name="OE" unicode="&#x152;" horiz-adv-x="1300" 
d="M429 0q-154 0 -241.5 79.5t-87.5 211.5v222q0 131 87.5 209t242.5 78h750v-280h-190v130h-210v-170h160v-150h-160v-180h210v130h190v-280h-751zM450 150h130v500h-130q-87 0 -118.5 -33.5t-31.5 -123.5v-182q0 -93 31.5 -127t118.5 -34z" />
    <glyph glyph-name="Tbar" unicode="&#x166;" horiz-adv-x="1000" 
d="M259 0v150h141v140h-200v120h200v240h-120v-150h-200v300h840v-300h-200v150h-120v-240h200v-120h-200v-140h141v-150h-482z" />
    <glyph glyph-name="Alpha" unicode="&#x391;" horiz-adv-x="1000" 
d="M50 0zM578 410l-90 267l-91 -267h181zM420 150v-150h-370v150h91l228 650h265l228 -650h88v-150h-390v150h106l-41 120h-275l-41 -120h111z" />
    <glyph glyph-name="Alphatonos" unicode="&#x386;" 
d="M7 0zM678 410l-90 267l-91 -267h181zM520 150v-150h-370v150h91l228 650h265l228 -650h88v-150h-390v150h106l-41 120h-275l-41 -120h111zM7 600l46 200h240l-165 -200h-121z" />
    <glyph glyph-name="Beta" unicode="&#x392;" horiz-adv-x="1000" 
d="M80 0zM80 0v150h120v500h-120v150h534q128 0 196 -48t68 -139v-36q0 -58 -33 -92t-106 -47v-29q78 -7 119.5 -52.5t41.5 -113.5v-32q0 -102 -74.5 -156.5t-214.5 -54.5h-531zM400 480h184q51 0 73.5 18t22.5 59v28q0 40 -22.5 57.5t-73.5 17.5h-184v-180zM400 140h180
q64 0 92 21t28 70v32q0 48 -28 68.5t-92 20.5h-180v-212z" />
    <glyph glyph-name="Gamma" unicode="&#x393;" horiz-adv-x="900" 
d="M80 0v150h120v500h-120v150h770v-300h-190v150h-260v-500h200v-150h-520z" />
    <glyph glyph-name="Delta" unicode="&#x394;" horiz-adv-x="800" 
d="M30 0v150l233 650h285l222 -650v-150h-740zM567 150l-172 529l-180 -529h352z" />
    <glyph glyph-name="Epsilon" unicode="&#x395;" horiz-adv-x="1000" 
d="M80 0zM80 0v150h120v500h-120v150h800v-280h-190v130h-290v-170h240v-150h-240v-180h290v130h190v-280h-800z" />
    <glyph glyph-name="Epsilontonos" unicode="&#x388;" horiz-adv-x="1200" 
d="M0 0zM280 0v150h120v500h-120v150h800v-280h-190v130h-290v-170h240v-150h-240v-180h290v130h190v-280h-800zM-33 600l46 200h240l-165 -200h-121z" />
    <glyph glyph-name="Zeta" unicode="&#x396;" horiz-adv-x="900" 
d="M90 0zM810 0h-720v150l453 500h-273v-110h-170v260h700v-150l-452 -500h292v110h170v-260z" />
    <glyph glyph-name="Eta" unicode="&#x397;" 
d="M80 0zM80 0v150h120v500h-120v150h420v-150h-100v-150h300v150h-100v150h420v-150h-120v-500h120v-150h-420v150h100v210h-300v-210h100v-150h-420z" />
    <glyph glyph-name="Etatonos" unicode="&#x389;" horiz-adv-x="1300" 
d="M0 0zM-43 600l46 200h240l-165 -200h-121zM280 0v150h120v500h-120v150h420v-150h-100v-150h300v150h-100v150h420v-150h-120v-500h120v-150h-420v150h100v210h-300v-210h100v-150h-420z" />
    <glyph glyph-name="Theta" unicode="&#x398;" horiz-adv-x="900" 
d="M450 -10q-172 0 -261 73t-89 204v262q0 132 89.5 206.5t261.5 74.5t260.5 -74.5t88.5 -206.5v-262q0 -131 -89 -204t-261 -73zM450 140q88 0 124 33t36 114v222q0 83 -36 117t-124 34t-124 -34t-36 -117v-222q0 -81 36 -114t124 -33zM370 340v130h160v-130h-160z" />
    <glyph glyph-name="Iota" unicode="&#x399;" horiz-adv-x="800" 
d="M100 0zM100 0v150h200v500h-200v150h600v-150h-200v-500h200v-150h-600z" />
    <glyph glyph-name="Iotatonos" unicode="&#x38a;" horiz-adv-x="1000" 
d="M0 0zM-43 600l46 200h240l-165 -200h-121zM300 0v150h200v500h-200v150h600v-150h-200v-500h200v-150h-600z" />
    <glyph glyph-name="Iotadieresis" unicode="&#x3aa;" horiz-adv-x="800" 
d="M100 0zM100 0v150h200v500h-200v150h600v-150h-200v-500h200v-150h-600zM270 890q-43 0 -70.5 17t-27.5 59v15q0 43 27.5 61t70.5 18q44 0 71 -18t27 -61v-15q0 -42 -27.5 -59t-70.5 -17zM530 890q-43 0 -70.5 17t-27.5 59v15q0 43 27.5 61t70.5 18q44 0 71 -18t27 -61
v-15q0 -42 -27.5 -59t-70.5 -17z" />
    <glyph glyph-name="Kappa" unicode="&#x39a;" horiz-adv-x="1000" 
d="M80 0zM490 150v-150h-410v150h120v500h-120v150h390v-150h-70v-165h90l135 165h-75v150h370v-150h-90l-181 -221l178 -279h103v-150h-248l-206 335h-76v-185h90z" />
    <glyph glyph-name="Lambda" unicode="&#x39b;" horiz-adv-x="1000" 
d="M419 150v-150h-369v150h91l228 650h265l228 -650h88v-150h-394v150h100l-168 497l-169 -497h100z" />
    <glyph glyph-name="Mu" unicode="&#x39c;" horiz-adv-x="1200" 
d="M80 0zM470 150v-150h-390v150h120v500h-120v150h390l138 -376l137 376h375v-150h-120v-500h120v-150h-390v150h100v457l-137 -357h-186l-137 356v-456h100z" />
    <glyph glyph-name="Nu" unicode="&#x39d;" 
d="M80 0zM470 150v-150h-390v150h120v500h-120v150h387l263 -615v465h-100v150h390v-150h-120v-650h-283l-247 577v-427h100z" />
    <glyph glyph-name="Xi" unicode="&#x39e;" horiz-adv-x="1000" 
d="M310 520h-190v280h760v-280h-190v130h-380v-130zM640 330h-280v150h280v-150zM120 0v280h190v-130h380v130h190v-280h-760z" />
    <glyph glyph-name="Omicron" unicode="&#x39f;" horiz-adv-x="900" 
d="M100 0zM450 -10q-172 0 -261 73t-89 204v262q0 132 89.5 206.5t261.5 74.5t260.5 -74.5t88.5 -206.5v-262q0 -131 -89 -204t-261 -73zM450 140q83 0 116.5 33t33.5 114v222q0 84 -33.5 117.5t-116.5 33.5t-116.5 -33.5t-33.5 -117.5v-222q0 -81 33.5 -114t116.5 -33z" />
    <glyph glyph-name="Omicrontonos" unicode="&#x38c;" horiz-adv-x="1000" 
d="M0 0zM-23 600l46 200h240l-165 -200h-121zM550 -10q-172 0 -261 73t-89 204v262q0 132 89.5 206.5t261.5 74.5t260.5 -74.5t88.5 -206.5v-262q0 -131 -89 -204t-261 -73zM550 140q83 0 116.5 33t33.5 114v222q0 84 -33.5 117.5t-116.5 33.5t-116.5 -33.5t-33.5 -117.5
v-222q0 -81 33.5 -114t116.5 -33z" />
    <glyph glyph-name="Pi" unicode="&#x3a0;" 
d="M80 0v150h120v500h-120v150h940v-150h-120v-500h120v-150h-420v150h100v500h-300v-500h100v-150h-420z" />
    <glyph glyph-name="Rho" unicode="&#x3a1;" horiz-adv-x="900" 
d="M80 0zM80 0v150h120v500h-120v150h462q142 0 215 -53.5t73 -157.5v-120q0 -97 -72.5 -147t-214.5 -50h-143v-122h170v-150h-490zM400 420h110q64 0 92 18t28 59v70q0 45 -28 64t-92 19h-110v-230z" />
    <glyph glyph-name="Sigma" unicode="&#x3a3;" horiz-adv-x="900" 
d="M820 280v-280h-750v150l266 276l-266 224v150h750v-280h-190v130h-337l207 -175v-118l-207 -207h337v130h190z" />
    <glyph glyph-name="Tau" unicode="&#x3a4;" horiz-adv-x="1000" 
d="M80 0zM259 0v150h141v500h-120v-150h-200v300h840v-300h-200v150h-120v-500h141v-150h-482z" />
    <glyph glyph-name="Upsilon" unicode="&#x3a5;" horiz-adv-x="1000" 
d="M50 0zM741 0h-482v150h141v150l-245 350h-105v150h420v-150h-99l148 -216l150 216h-99v150h380v-150h-106l-244 -350v-150h141v-150z" />
    <glyph glyph-name="Upsilontonos" unicode="&#x38e;" horiz-adv-x="1300" 
d="M17 0zM1041 0h-482v150h141v150l-245 350h-105v150h420v-150h-99l148 -216l150 216h-99v150h380v-150h-106l-244 -350v-150h141v-150zM17 600l46 200h240l-165 -200h-121z" />
    <glyph glyph-name="Upsilondieresis" unicode="&#x3ab;" horiz-adv-x="1000" 
d="M50 0zM741 0h-482v150h141v150l-245 350h-105v150h420v-150h-99l148 -216l150 216h-99v150h380v-150h-106l-244 -350v-150h141v-150zM370 890q-43 0 -70.5 17t-27.5 59v15q0 43 27.5 61t70.5 18q44 0 71 -18t27 -61v-15q0 -42 -27.5 -59t-70.5 -17zM630 890
q-43 0 -70.5 17t-27.5 59v15q0 43 27.5 61t70.5 18q44 0 71 -18t27 -61v-15q0 -42 -27.5 -59t-70.5 -17z" />
    <glyph glyph-name="Phi" unicode="&#x3a6;" horiz-adv-x="1000" 
d="M50 0zM740 100v-120h-480v120h140v100h-62q-150 0 -219 49t-69 128v42q0 81 69 131t219 50h62v100h-140v120h480v-120h-140v-100h43q160 0 233.5 -50t73.5 -131v-42q0 -79 -73.5 -128t-233.5 -49h-43v-100h140zM643 490h-48v-180h48q55 0 81 16.5t26 50.5v42q0 37 -26 54
t-81 17zM338 310h67v180h-67q-46 0 -67 -17t-21 -54v-42q0 -34 21 -50.5t67 -16.5z" />
    <glyph glyph-name="Chi" unicode="&#x3a7;" 
d="M80 0zM405 130v-130h-325v150h79l216 261l-194 239h-101v150h396v-130h-77l141 -173l134 173h-78v130h324v-150h-85l-208 -260l196 -240h97v-150h-395v130h78l-142 175l-136 -175h80z" />
    <glyph glyph-name="Psi" unicode="&#x3a8;" 
d="M765 0h-430v140h120v114q-167 16 -253.5 85t-86.5 188v123h-100v150h290v-243q0 -64 34.5 -98t115.5 -44v245h-70v140h330v-140h-70v-246q82 10 116 43.5t34 99.5v243h290v-150h-100v-123q0 -121 -86.5 -190.5t-253.5 -82.5v-114h120v-140z" />
    <glyph glyph-name="Omega" unicode="&#x3a9;" horiz-adv-x="900" 
d="M400 0h-330v120h130v90q-76 33 -113 83t-37 118v108q0 132 95.5 211.5t304.5 79.5t304.5 -79.5t95.5 -211.5v-108q0 -68 -37 -118t-113 -83v-90h130v-120h-330v230q88 15 119 61.5t31 119.5v108q0 60 -40.5 95.5t-159.5 35.5t-159.5 -35.5t-40.5 -95.5v-108
q0 -73 31 -119.5t119 -61.5v-230z" />
    <glyph glyph-name="Omegatonos" unicode="&#x38f;" 
d="M0 0zM-23 600l46 200h240l-165 -200h-121zM600 0h-330v120h130v90q-76 33 -113 83t-37 118v108q0 132 95.5 211.5t304.5 79.5t304.5 -79.5t95.5 -211.5v-108q0 -68 -37 -118t-113 -83v-90h130v-120h-330v230q88 15 119 61.5t31 119.5v108q0 60 -40.5 95.5t-159.5 35.5
t-159.5 -35.5t-40.5 -95.5v-108q0 -73 31 -119.5t119 -61.5v-230z" />
    <glyph glyph-name="Ohm" unicode="&#x2126;" horiz-adv-x="900" 
d="M50 0zM400 0h-330v120h130v90q-76 33 -113 83t-37 118v108q0 132 95.5 211.5t304.5 79.5t304.5 -79.5t95.5 -211.5v-108q0 -68 -37 -118t-113 -83v-90h130v-120h-330v230q88 15 119 61.5t31 119.5v108q0 60 -40.5 95.5t-159.5 35.5t-159.5 -35.5t-40.5 -95.5v-108
q0 -73 31 -119.5t119 -61.5v-230z" />
    <glyph glyph-name="Djecyrillic" unicode="&#x402;" 
d="M260 0v150h140v500h-120v-150h-200v300h840v-250h-200v100h-120v-170h130q164 0 242 -54t78 -167v-41q0 -112 -78 -165t-242 -53v148q63 0 91.5 17.5t28.5 54.5v37q0 40 -28.5 57.5t-91.5 17.5h-130v-332h-340z" />
    <glyph glyph-name="Ecyrillic" unicode="&#x404;" horiz-adv-x="900" 
d="M830 277q-7 -151 -91.5 -219t-268.5 -68q-194 0 -282 73t-88 204v262q0 132 88.5 206.5t282.5 74.5q183 0 267.5 -68.5t91.5 -222.5l-200 -10q-7 85 -41.5 118t-118.5 33q-96 0 -133 -32.5t-37 -119.5v-8h250v-150h-250v-63q0 -84 37 -115.5t133 -31.5q84 0 118.5 32
t41.5 115z" />
    <glyph glyph-name="Dzecyrillic" unicode="&#x405;" horiz-adv-x="900" 
d="M90 0zM441 -10q-92 0 -184 25.5t-167 65.5l45 149q78 -42 160.5 -66t174.5 -24q70 0 102.5 25t32.5 66q0 36 -44.5 53.5t-202.5 44.5q-135 22 -191.5 72t-56.5 149q0 110 82.5 185t248.5 75q82 0 171 -27t143 -59l-35 -142q-74 34 -144.5 55t-136.5 21q-62 0 -96 -21.5
t-34 -63.5q0 -36 44.5 -54t203.5 -46q135 -25 191.5 -77.5t56.5 -152.5q0 -120 -96 -186.5t-268 -66.5z" />
    <glyph glyph-name="Icyrillic" unicode="&#x406;" horiz-adv-x="800" 
d="M100 0zM100 0v150h200v500h-200v150h600v-150h-200v-500h200v-150h-600z" />
    <glyph glyph-name="Yicyrillic" unicode="&#x407;" horiz-adv-x="800" 
d="M100 0zM270 890q-43 0 -70.5 17t-27.5 59v15q0 43 27.5 61t70.5 18q44 0 71 -18t27 -61v-15q0 -42 -27.5 -59t-70.5 -17zM530 890q-43 0 -70.5 17t-27.5 59v15q0 43 27.5 61t70.5 18q44 0 71 -18t27 -61v-15q0 -42 -27.5 -59t-70.5 -17zM100 0v150h200v500h-200v150h600
v-150h-200v-500h200v-150h-600z" />
    <glyph glyph-name="Jecyrillic" unicode="&#x408;" horiz-adv-x="900" 
d="M60 0zM800 800v-150h-100v-390q0 -137 -73.5 -203.5t-225.5 -66.5q-185 0 -259.5 64t-81.5 233l200 11q7 -101 30 -129.5t97 -28.5q67 0 90 26.5t23 103.5v380h-200v150h500z" />
    <glyph glyph-name="Ljecyrillic" unicode="&#x409;" horiz-adv-x="1300" 
d="M393 237q-1 -135 -65 -193t-170 -58q-29 0 -61 4.5t-66 13.5l20 151q18 -4 35.5 -6.5t33.5 -2.5q32 0 53 20.5t22 82.5l6 401h-101v150h850v-150h-150v-122h143q136 0 211.5 -52t75.5 -145v-120q0 -100 -75.5 -155.5t-212.5 -55.5h-462v150h120v500h-205zM800 380v-230
h110q63 0 91.5 18.5t28.5 60.5v73q0 41 -28.5 59.5t-91.5 18.5h-110z" />
    <glyph glyph-name="Njecyrillic" unicode="&#x40a;" horiz-adv-x="1400" 
d="M900 380v-230h110q63 0 91.5 19t28.5 62v73q0 40 -28.5 58t-91.5 18h-110zM500 150v-150h-420v150h120v500h-120v150h420v-150h-100v-150h300v150h-100v150h450v-150h-150v-122h143q136 0 211.5 -52t75.5 -145v-120q0 -100 -75.5 -155.5t-212.5 -55.5h-442v150h100v210
h-300v-210h100z" />
    <glyph glyph-name="Tshecyrillic" unicode="&#x40b;" horiz-adv-x="1200" 
d="M259 0v150h141v500h-120v-150h-200v300h840v-250h-200v100h-120v-170h150q147 0 223.5 -61.5t76.5 -179.5v-89h110v-150h-310v237q0 54 -27 74.5t-73 20.5h-150v-182h121v-150h-462z" />
    <glyph glyph-name="Dzhecyrillic" unicode="&#x40f;" 
d="M1020 0h-375v-150h-190v150h-375v150h120v500h-120v150h420v-150h-100v-500h300v500h-100v150h420v-150h-120v-500h120v-150z" />
    <glyph glyph-name="Acyrillic" unicode="&#x410;" horiz-adv-x="1000" 
d="M50 0zM578 410l-90 267l-91 -267h181zM420 150v-150h-370v150h91l228 650h265l228 -650h88v-150h-390v150h106l-41 120h-275l-41 -120h111z" />
    <glyph glyph-name="Becyrillic" unicode="&#x411;" horiz-adv-x="1000" 
d="M80 0v150h120v500h-120v150h790v-240h-190v90h-280v-170h234q133 0 206.5 -54.5t73.5 -152.5v-52q0 -104 -73.5 -162.5t-205.5 -58.5h-555zM400 150h214q51 0 75.5 18t24.5 58v32q0 38 -24.5 56t-75.5 18h-214v-182z" />
    <glyph glyph-name="Vecyrillic" unicode="&#x412;" horiz-adv-x="1000" 
d="M80 0zM80 0v150h120v500h-120v150h534q128 0 196 -48t68 -139v-36q0 -58 -33 -92t-106 -47v-29q78 -7 119.5 -52.5t41.5 -113.5v-32q0 -102 -74.5 -156.5t-214.5 -54.5h-531zM400 480h184q51 0 73.5 18t22.5 59v28q0 40 -22.5 57.5t-73.5 17.5h-184v-180zM400 140h180
q64 0 92 21t28 70v32q0 48 -28 68.5t-92 20.5h-180v-212z" />
    <glyph glyph-name="Gecyrillic" unicode="&#x413;" horiz-adv-x="900" 
d="M80 0zM80 0v150h120v500h-120v150h770v-300h-190v150h-260v-500h200v-150h-520z" />
    <glyph glyph-name="Gjecyrillic" unicode="&#x403;" horiz-adv-x="900" 
d="M80 0zM451 900l106 200h250l-225 -200h-131zM80 0v150h120v500h-120v150h770v-300h-190v150h-260v-500h200v-150h-520z" />
    <glyph glyph-name="Decyrillic" unicode="&#x414;" horiz-adv-x="1000" 
d="M345 169v-19h255v500h-214l-3 -345q-1 -61 -11.5 -90.5t-26.5 -45.5zM230 0v-150h-200v300h122q18 15 27.5 49.5t10.5 108.5l4 342h-116v150h842v-150h-120v-500h120v-300h-200v150h-490z" />
    <glyph glyph-name="Iecyrillic" unicode="&#x415;" horiz-adv-x="1000" 
d="M80 0zM80 0v150h120v500h-120v150h800v-280h-190v130h-290v-170h240v-150h-240v-180h290v130h190v-280h-800z" />
    <glyph glyph-name="IEgravecyrillic" unicode="&#x400;" horiz-adv-x="1000" 
d="M80 0zM461 900l-225 200h250l106 -200h-131zM80 0v150h120v500h-120v150h800v-280h-190v130h-290v-170h240v-150h-240v-180h290v130h190v-280h-800z" />
    <glyph glyph-name="Iocyrillic" unicode="&#x401;" horiz-adv-x="1000" 
d="M80 0zM80 0v150h120v500h-120v150h800v-280h-190v130h-290v-170h240v-150h-240v-180h290v130h190v-280h-800zM380 890q-43 0 -70.5 17t-27.5 59v15q0 43 27.5 61t70.5 18q44 0 71 -18t27 -61v-15q0 -42 -27.5 -59t-70.5 -17zM640 890q-43 0 -70.5 17t-27.5 59v15
q0 43 27.5 61t70.5 18q44 0 71 -18t27 -61v-15q0 -42 -27.5 -59t-70.5 -17z" />
    <glyph glyph-name="Zhecyrillic" unicode="&#x416;" horiz-adv-x="1300" 
d="M457 340l-172 -340h-240v150h107l144 272l-135 228h-106v150h220l190 -320h90v180h-90v140h370v-140h-89v-180h89l190 320h220v-150h-106l-135 -228l144 -272h107v-150h-240l-172 340h-97v-200h89v-140h-370v140h90v200h-98z" />
    <glyph glyph-name="Zecyrillic" unicode="&#x417;" horiz-adv-x="900" 
d="M463 -10q-189 0 -277.5 70.5t-95.5 191.5l200 10q7 -65 48 -94.5t124 -29.5q73 0 105.5 22t32.5 72v22q0 51 -34 69.5t-106 18.5h-83v147h83q66 0 93 16.5t27 56.5v19q0 43 -29.5 62t-95.5 19q-69 0 -103.5 -25.5t-41.5 -81.5l-200 10q7 119 85.5 182t254.5 63
q155 0 242 -47.5t87 -154.5v-18q0 -62 -24.5 -101t-97.5 -52v-29q81 -10 112 -50t31 -118v-17q0 -122 -91.5 -177.5t-245.5 -55.5z" />
    <glyph glyph-name="Iicyrillic" unicode="&#x418;" 
d="M720 150v435l-247 -585h-393v150h120v500h-120v150h400v-150h-100v-480l263 630h377v-150h-120v-500h120v-150h-400v150h100z" />
    <glyph glyph-name="Igravecyrillic" unicode="&#x40d;" 
d="M80 0zM511 900l-225 200h250l106 -200h-131zM720 150v435l-247 -585h-393v150h120v500h-120v150h400v-150h-100v-480l263 630h377v-150h-120v-500h120v-150h-400v150h100z" />
    <glyph glyph-name="Iishortcyrillic" unicode="&#x419;" 
d="M80 0zM720 150v435l-247 -585h-393v150h120v500h-120v150h400v-150h-100v-480l263 630h377v-150h-120v-500h120v-150h-400v150h100zM570 893q-105 0 -184.5 51.5t-77.5 178.5l170 10q-1 -65 18.5 -93t73.5 -28t73.5 28t18.5 93l170 -10q2 -127 -77.5 -178.5t-184.5 -51.5
z" />
    <glyph glyph-name="Kacyrillic" unicode="&#x41a;" horiz-adv-x="1000" 
d="M80 0zM490 150v-150h-410v150h120v500h-120v150h390v-150h-70v-165h90l135 165h-75v150h370v-150h-90l-181 -221l178 -279h103v-150h-248l-206 335h-76v-185h90z" />
    <glyph glyph-name="Kjecyrillic" unicode="&#x40c;" horiz-adv-x="1000" 
d="M80 0zM436 900l106 200h250l-225 -200h-131zM490 150v-150h-410v150h120v500h-120v150h390v-150h-70v-165h90l135 165h-75v150h370v-150h-90l-181 -221l178 -279h103v-150h-248l-206 335h-76v-185h90z" />
    <glyph glyph-name="Elcyrillic" unicode="&#x41b;" horiz-adv-x="1000" 
d="M393 237q-1 -135 -65 -193t-170 -58q-29 0 -61 4.5t-66 13.5l20 151q18 -4 35.5 -6.5t33.5 -2.5q32 0 53 20.5t22 82.5l6 401h-101v150h820v-150h-120v-500h120v-150h-440v150h120v500h-205z" />
    <glyph glyph-name="Emcyrillic" unicode="&#x41c;" horiz-adv-x="1200" 
d="M80 0zM470 150v-150h-390v150h120v500h-120v150h390l138 -376l137 376h375v-150h-120v-500h120v-150h-390v150h100v457l-137 -357h-186l-137 356v-456h100z" />
    <glyph glyph-name="Encyrillic" unicode="&#x41d;" 
d="M80 0zM80 0v150h120v500h-120v150h420v-150h-100v-150h300v150h-100v150h420v-150h-120v-500h120v-150h-420v150h100v210h-300v-210h100v-150h-420z" />
    <glyph glyph-name="Ocyrillic" unicode="&#x41e;" horiz-adv-x="900" 
d="M100 0zM450 -10q-172 0 -261 73t-89 204v262q0 132 89.5 206.5t261.5 74.5t260.5 -74.5t88.5 -206.5v-262q0 -131 -89 -204t-261 -73zM450 140q83 0 116.5 33t33.5 114v222q0 84 -33.5 117.5t-116.5 33.5t-116.5 -33.5t-33.5 -117.5v-222q0 -81 33.5 -114t116.5 -33z" />
    <glyph glyph-name="Pecyrillic" unicode="&#x41f;" 
d="M80 0zM80 0v150h120v500h-120v150h940v-150h-120v-500h120v-150h-420v150h100v500h-300v-500h100v-150h-420z" />
    <glyph glyph-name="Ercyrillic" unicode="&#x420;" horiz-adv-x="900" 
d="M80 0zM80 0v150h120v500h-120v150h462q142 0 215 -53.5t73 -157.5v-120q0 -97 -72.5 -147t-214.5 -50h-143v-122h170v-150h-490zM400 420h110q64 0 92 18t28 59v70q0 45 -28 64t-92 19h-110v-230z" />
    <glyph glyph-name="Escyrillic" unicode="&#x421;" horiz-adv-x="900" 
d="M100 0zM470 -10q-194 0 -282 73t-88 204v262q0 132 88.5 206.5t282.5 74.5q184 0 268 -68.5t91 -222.5l-200 -10q-7 85 -41.5 118t-118.5 33q-96 0 -133 -33t-37 -119v-221q0 -83 37 -115t133 -32q84 0 118.5 32t41.5 115l200 -10q-7 -152 -91.5 -219.5t-268.5 -67.5z
" />
    <glyph glyph-name="Tecyrillic" unicode="&#x422;" horiz-adv-x="1000" 
d="M80 0zM259 0v150h141v500h-120v-150h-200v300h840v-300h-200v150h-120v-500h141v-150h-482z" />
    <glyph glyph-name="Ucyrillic" unicode="&#x423;" horiz-adv-x="1000" 
d="M325 -11q-35 0 -72 5t-75 15l17 150q31 -9 58.5 -13.5t49.5 -4.5q50 0 82.5 22.5t54.5 68.5l9 18h-82l-209 400h-113v150h410v-150h-93l144 -285l142 285h-93v150h399v-150h-111l-247 -495q-45 -90 -115 -128t-156 -38z" />
    <glyph glyph-name="Ushortcyrillic" unicode="&#x40e;" horiz-adv-x="1000" 
d="M45 0zM325 -11q-35 0 -72 5t-75 15l17 150q31 -9 58.5 -13.5t49.5 -4.5q50 0 82.5 22.5t54.5 68.5l9 18h-82l-209 400h-113v150h410v-150h-93l144 -285l142 285h-93v150h399v-150h-111l-247 -495q-45 -90 -115 -128t-156 -38zM510 893q-105 0 -184.5 51.5t-77.5 178.5
l170 10q-1 -65 18.5 -93t73.5 -28t73.5 28t18.5 93l170 -10q2 -127 -77.5 -178.5t-184.5 -51.5z" />
    <glyph glyph-name="Efcyrillic" unicode="&#x424;" horiz-adv-x="1000" 
d="M740 100v-120h-480v120h140v100h-62q-150 0 -219 49t-69 128v42q0 81 69 131t219 50h62v100h-140v120h480v-120h-140v-100h43q160 0 233.5 -50t73.5 -131v-42q0 -79 -73.5 -128t-233.5 -49h-43v-100h140zM643 490h-48v-180h48q55 0 81 16.5t26 50.5v42q0 37 -26 54
t-81 17zM338 310h67v180h-67q-46 0 -67 -17t-21 -54v-42q0 -34 21 -50.5t67 -16.5z" />
    <glyph glyph-name="Khacyrillic" unicode="&#x425;" 
d="M80 0zM405 130v-130h-325v150h79l216 261l-194 239h-101v150h396v-130h-77l141 -173l134 173h-78v130h324v-150h-85l-208 -260l196 -240h97v-150h-395v130h78l-142 175l-136 -175h80z" />
    <glyph glyph-name="Tsecyrillic" unicode="&#x426;" 
d="M1020 -150h-190v150h-750v150h120v500h-120v150h420v-150h-100v-500h300v500h-100v150h420v-150h-120v-500h120v-300z" />
    <glyph glyph-name="Checyrillic" unicode="&#x427;" horiz-adv-x="1000" 
d="M430 0v150h170v120h-140q-154 0 -232 65.5t-78 195.5v119h-120v150h400v-150h-80v-117q0 -57 28 -86t82 -29h140v232h-80v150h400v-150h-120v-500h120v-150h-490z" />
    <glyph glyph-name="Shacyrillic" unicode="&#x428;" horiz-adv-x="1500" 
d="M80 0v150h120v500h-120v150h400v-150h-90v-500h265v500h-85v150h360v-150h-85v-500h265v500h-90v150h400v-150h-120v-500h120v-150h-1340z" />
    <glyph glyph-name="Shchacyrillic" unicode="&#x429;" horiz-adv-x="1500" 
d="M1420 -150h-190v150h-1150v150h120v500h-120v150h400v-150h-90v-500h265v500h-85v150h360v-150h-85v-500h265v500h-90v150h400v-150h-120v-500h120v-300z" />
    <glyph glyph-name="Hardsigncyrillic" unicode="&#x42a;" horiz-adv-x="1000" 
d="M652 0h-452v150h130v500h-120v-150h-190v300h680v-150h-170v-122h123q136 0 211.5 -54.5t75.5 -152.5v-100q0 -104 -75.5 -162.5t-212.5 -58.5zM530 380v-230h90q62 0 91 21t29 67v53q0 46 -29 67.5t-91 21.5h-90z" />
    <glyph glyph-name="Yericyrillic" unicode="&#x42b;" horiz-adv-x="1400" 
d="M880 0v150h120v500h-120v150h440v-150h-120v-500h120v-150h-440zM80 800h470v-150h-150v-122h143q136 0 211.5 -52t75.5 -145v-120q0 -100 -75.5 -155.5t-212.5 -55.5h-462v150h120v500h-120v150zM400 380v-230h110q62 0 91 18.5t29 58.5v73q0 42 -29 61t-91 19h-110z
" />
    <glyph glyph-name="Softsigncyrillic" unicode="&#x42c;" horiz-adv-x="900" 
d="M80 800h470v-150h-150v-122h143q136 0 211.5 -52t75.5 -145v-120q0 -100 -75.5 -155.5t-212.5 -55.5h-462v150h120v500h-120v150zM400 380v-230h110q62 0 91 19t29 59v73q0 41 -29 60t-91 19h-110z" />
    <glyph glyph-name="Ereversedcyrillic" unicode="&#x42d;" horiz-adv-x="900" 
d="M435 -10q-184 0 -271 68t-94 219l200 10q7 -87 41 -117t124 -30q97 0 131 30t34 117v63h-235v150h235v8q0 90 -33 121t-128 31q-93 0 -127.5 -31t-41.5 -120l-200 10q7 152 94 221.5t274 69.5q194 0 278 -74.5t84 -206.5v-262q0 -131 -85.5 -204t-279.5 -73z" />
    <glyph glyph-name="IUcyrillic" unicode="&#x42e;" horiz-adv-x="1400" 
d="M975 -10q-160 0 -242.5 73t-82.5 204v83h-250v-200h120v-150h-440v150h120v500h-120v150h440v-150h-120v-150h250v29q0 132 83 206.5t243 74.5t242 -74.5t82 -206.5v-262q0 -131 -82.5 -204t-242.5 -73zM975 140q71 0 98 32t27 115v222q0 85 -27 118t-98 33t-98 -33
t-27 -118v-222q0 -83 27 -115t98 -32z" />
    <glyph glyph-name="IAcyrillic" unicode="&#x42f;" horiz-adv-x="1000" 
d="M600 450v200h-170q-62 0 -86 -17t-24 -62v-42q0 -45 24 -62t86 -17h170zM600 300h-108l-174 -300h-268v150h129l100 161q-78 19 -118.5 70.5t-40.5 135.5v52q0 113 66 172t193 59h541v-150h-120v-500h120v-150h-420v150h100v150z" />
    <glyph glyph-name="Gheupturncyrillic" unicode="&#x490;" horiz-adv-x="800" 
d="M600 0h-520v150h120v500h-120v150h490v150h190v-300h-360v-500h200v-150z" />
    <glyph glyph-name="a" horiz-adv-x="900" 
d="M378 110q33 0 67.5 7.5t64.5 21.5v98h-143q-31 0 -49 -13.5t-18 -49.5q0 -33 19.5 -48.5t58.5 -15.5zM330 -10q-103 0 -161.5 46.5t-58.5 128.5q0 85 60 128.5t165 43.5h175v58q0 46 -27.5 66t-78.5 20t-72.5 -18t-35.5 -69l-171 25q22 104 97 147.5t198 43.5
q140 0 215 -49t75 -156v-195q0 -49 25.5 -64t94.5 -7v-134q-100 -23 -158.5 -2t-77.5 87h-30q-27 -45 -91 -72.5t-143 -27.5z" />
    <glyph glyph-name="agrave" horiz-adv-x="900" 
d="M110 0zM378 110q33 0 67.5 7.5t64.5 21.5v98h-143q-31 0 -49 -13.5t-18 -49.5q0 -33 19.5 -48.5t58.5 -15.5zM330 -10q-103 0 -161.5 46.5t-58.5 128.5q0 85 60 128.5t165 43.5h175v58q0 46 -27.5 66t-78.5 20t-72.5 -18t-35.5 -69l-171 25q22 104 97 147.5t198 43.5
q140 0 215 -49t75 -156v-195q0 -49 25.5 -64t94.5 -7v-134q-100 -23 -158.5 -2t-77.5 87h-30q-27 -45 -91 -72.5t-143 -27.5zM401 700l-225 200h250l106 -200h-131z" />
    <glyph glyph-name="aacute" horiz-adv-x="900" 
d="M110 0zM378 110q33 0 67.5 7.5t64.5 21.5v98h-143q-31 0 -49 -13.5t-18 -49.5q0 -33 19.5 -48.5t58.5 -15.5zM330 -10q-103 0 -161.5 46.5t-58.5 128.5q0 85 60 128.5t165 43.5h175v58q0 46 -27.5 66t-78.5 20t-72.5 -18t-35.5 -69l-171 25q22 104 97 147.5t198 43.5
q140 0 215 -49t75 -156v-195q0 -49 25.5 -64t94.5 -7v-134q-100 -23 -158.5 -2t-77.5 87h-30q-27 -45 -91 -72.5t-143 -27.5zM286 700l106 200h250l-225 -200h-131z" />
    <glyph glyph-name="acircumflex" horiz-adv-x="900" 
d="M110 0zM378 110q33 0 67.5 7.5t64.5 21.5v98h-143q-31 0 -49 -13.5t-18 -49.5q0 -33 19.5 -48.5t58.5 -15.5zM330 -10q-103 0 -161.5 46.5t-58.5 128.5q0 85 60 128.5t165 43.5h175v58q0 46 -27.5 66t-78.5 20t-72.5 -18t-35.5 -69l-171 25q22 104 97 147.5t198 43.5
q140 0 215 -49t75 -156v-195q0 -49 25.5 -64t94.5 -7v-134q-100 -23 -158.5 -2t-77.5 87h-30q-27 -45 -91 -72.5t-143 -27.5zM221 684l-62 84l184 159h152l186 -159l-61 -83l-201 105z" />
    <glyph glyph-name="atilde" horiz-adv-x="900" 
d="M110 0zM378 110q33 0 67.5 7.5t64.5 21.5v98h-143q-31 0 -49 -13.5t-18 -49.5q0 -33 19.5 -48.5t58.5 -15.5zM330 -10q-103 0 -161.5 46.5t-58.5 128.5q0 85 60 128.5t165 43.5h175v58q0 46 -27.5 66t-78.5 20t-72.5 -18t-35.5 -69l-171 25q22 104 97 147.5t198 43.5
q140 0 215 -49t75 -156v-195q0 -49 25.5 -64t94.5 -7v-134q-100 -23 -158.5 -2t-77.5 87h-30q-27 -45 -91 -72.5t-143 -27.5zM516 710q-49 0 -75 15t-42 32q-16 18 -30 32.5t-33 14.5q-16 0 -29 -14.5t-12 -60.5v-9h-127v15q0 83 42 139t116 56q48 0 74 -15t43 -32
q17 -18 31 -33t31 -15q16 0 29 14.5t12 60.5v9h127v-15q0 -82 -42 -138t-115 -56z" />
    <glyph glyph-name="adieresis" horiz-adv-x="900" 
d="M110 0zM378 110q33 0 67.5 7.5t64.5 21.5v98h-143q-31 0 -49 -13.5t-18 -49.5q0 -33 19.5 -48.5t58.5 -15.5zM330 -10q-103 0 -161.5 46.5t-58.5 128.5q0 85 60 128.5t165 43.5h175v58q0 46 -27.5 66t-78.5 20t-72.5 -18t-35.5 -69l-171 25q22 104 97 147.5t198 43.5
q140 0 215 -49t75 -156v-195q0 -49 25.5 -64t94.5 -7v-134q-100 -23 -158.5 -2t-77.5 87h-30q-27 -45 -91 -72.5t-143 -27.5zM290 690q-43 0 -70.5 17t-27.5 59v15q0 43 27.5 61t70.5 18q44 0 71 -18t27 -61v-15q0 -42 -27.5 -59t-70.5 -17zM550 690q-43 0 -70.5 17
t-27.5 59v15q0 43 27.5 61t70.5 18q44 0 71 -18t27 -61v-15q0 -42 -27.5 -59t-70.5 -17z" />
    <glyph glyph-name="aring" horiz-adv-x="900" 
d="M110 0zM378 110q33 0 67.5 7.5t64.5 21.5v98h-143q-31 0 -49 -13.5t-18 -49.5q0 -33 19.5 -48.5t58.5 -15.5zM330 -10q-103 0 -161.5 46.5t-58.5 128.5q0 85 60 128.5t165 43.5h175v58q0 46 -27.5 66t-78.5 20t-72.5 -18t-35.5 -69l-171 25q22 104 97 147.5t198 43.5
q140 0 215 -49t75 -156v-195q0 -49 25.5 -64t94.5 -7v-134q-100 -23 -158.5 -2t-77.5 87h-30q-27 -45 -91 -72.5t-143 -27.5zM420 675q-94 0 -152 38t-58 117v32q0 80 58 119t152 39q95 0 152.5 -39t57.5 -119v-32q0 -79 -58 -117t-152 -38zM420 766q35 0 53.5 14.5
t18.5 49.5v32q0 34 -18.5 50.5t-53.5 16.5q-36 0 -54 -16.5t-18 -50.5v-32q0 -35 18 -49.5t54 -14.5z" />
    <glyph glyph-name="amacron" horiz-adv-x="900" 
d="M110 0zM378 110q33 0 67.5 7.5t64.5 21.5v98h-143q-31 0 -49 -13.5t-18 -49.5q0 -33 19.5 -48.5t58.5 -15.5zM330 -10q-103 0 -161.5 46.5t-58.5 128.5q0 85 60 128.5t165 43.5h175v58q0 46 -27.5 66t-78.5 20t-72.5 -18t-35.5 -69l-171 25q22 104 97 147.5t198 43.5
q140 0 215 -49t75 -156v-195q0 -49 25.5 -64t94.5 -7v-134q-100 -23 -158.5 -2t-77.5 87h-30q-27 -45 -91 -72.5t-143 -27.5zM195 725v150h450v-150h-450z" />
    <glyph glyph-name="abreve" horiz-adv-x="900" 
d="M110 0zM378 110q33 0 67.5 7.5t64.5 21.5v98h-143q-31 0 -49 -13.5t-18 -49.5q0 -33 19.5 -48.5t58.5 -15.5zM330 -10q-103 0 -161.5 46.5t-58.5 128.5q0 85 60 128.5t165 43.5h175v58q0 46 -27.5 66t-78.5 20t-72.5 -18t-35.5 -69l-171 25q22 104 97 147.5t198 43.5
q140 0 215 -49t75 -156v-195q0 -49 25.5 -64t94.5 -7v-134q-100 -23 -158.5 -2t-77.5 87h-30q-27 -45 -91 -72.5t-143 -27.5zM420 693q-135 0 -200.5 59t-66.5 181h160q1 -68 25 -94.5t82 -26.5t82 26.5t25 94.5h160q-1 -122 -66.5 -181t-200.5 -59z" />
    <glyph glyph-name="aogonek" horiz-adv-x="900" 
d="M110 0zM378 110q33 0 67.5 7.5t64.5 21.5v98h-143q-31 0 -49 -13.5t-18 -49.5q0 -33 19.5 -48.5t58.5 -15.5zM330 -10q-103 0 -161.5 46.5t-58.5 128.5q0 85 60 128.5t165 43.5h175v58q0 46 -27.5 66t-78.5 20t-72.5 -18t-35.5 -69l-171 25q22 104 97 147.5t198 43.5
q140 0 215 -49t75 -156v-195q0 -49 25.5 -64t94.5 -7v-134q-100 -23 -158.5 -2t-77.5 87h-30q-27 -45 -91 -72.5t-143 -27.5zM701 -224q-84 0 -132.5 32t-48.5 96q0 66 51 111.5t111 61.5l27 -54q-34 -21 -41.5 -40t-7.5 -36q0 -26 17.5 -38.5t57.5 -12.5q18 0 42 2.5
t53 7.5v-116q-36 -7 -68.5 -10.5t-60.5 -3.5z" />
    <glyph glyph-name="aringacute" unicode="&#x1fb;" horiz-adv-x="900" 
d="M110 0zM378 110q33 0 67.5 7.5t64.5 21.5v98h-143q-31 0 -49 -13.5t-18 -49.5q0 -33 19.5 -48.5t58.5 -15.5zM330 -10q-103 0 -161.5 46.5t-58.5 128.5q0 85 60 128.5t165 43.5h175v58q0 46 -27.5 66t-78.5 20t-72.5 -18t-35.5 -69l-171 25q22 104 97 147.5t198 43.5
q140 0 215 -49t75 -156v-195q0 -49 25.5 -64t94.5 -7v-134q-100 -23 -158.5 -2t-77.5 87h-30q-27 -45 -91 -72.5t-143 -27.5zM420 675q-94 0 -152 38t-58 117v32q0 80 58 119t152 39q95 0 152.5 -39t57.5 -119v-32q0 -79 -58 -117t-152 -38zM420 766q35 0 53.5 14.5
t18.5 49.5v32q0 34 -18.5 50.5t-53.5 16.5q-36 0 -54 -16.5t-18 -50.5v-32q0 -35 18 -49.5t54 -14.5zM346 1000l106 200h250l-225 -200h-131z" />
    <glyph glyph-name="b" unicode="b" horiz-adv-x="900" 
d="M493 -7q-71 0 -158.5 15t-134.5 42v610h-120v140h320v-310h30q19 52 68.5 86t112.5 34q103 0 146 -64.5t43 -173.5v-153q0 -107 -80.5 -166.5t-226.5 -59.5zM504 133q46 0 71.5 19.5t24.5 83.5l-1 155q0 35 -20.5 52t-48.5 17q-38 0 -68.5 -12.5t-61.5 -37.5v-252
q19 -10 43 -17.5t61 -7.5z" />
    <glyph glyph-name="c" unicode="c" horiz-adv-x="800" 
d="M404 -10q-151 0 -227.5 60.5t-76.5 171.5v153q0 117 80 176t223 59q146 0 219.5 -59.5t88.5 -166.5l-193 -16q-5 58 -29 79.5t-82 21.5q-62 0 -84.5 -25t-22.5 -72v-140q0 -54 23 -78t86 -24q65 0 85 18t24 64l193 -16q-7 -99 -74.5 -152.5t-232.5 -53.5z" />
    <glyph glyph-name="ccedilla" unicode="&#xe7;" horiz-adv-x="800" 
d="M100 0zM404 -10q-151 0 -227.5 60.5t-76.5 171.5v153q0 117 80 176t223 59q146 0 219.5 -59.5t88.5 -166.5l-193 -16q-5 58 -29 79.5t-82 21.5q-62 0 -84.5 -25t-22.5 -72v-140q0 -54 23 -78t86 -24q65 0 85 18t24 64l193 -16q-7 -99 -74.5 -152.5t-232.5 -53.5zM366 0
l20 42q86 -8 140 -35.5t54 -94.5q0 -75 -67 -106.5t-149 -31.5q-96 0 -157 31.5t-66 104.5l168 10q2 -19 12.5 -26.5t34.5 -7.5q27 0 40.5 10.5t13.5 44.5q0 25 -9 38.5t-35 20.5z" />
    <glyph glyph-name="cacute" unicode="&#x107;" horiz-adv-x="800" 
d="M100 0zM404 -10q-151 0 -227.5 60.5t-76.5 171.5v153q0 117 80 176t223 59q146 0 219.5 -59.5t88.5 -166.5l-193 -16q-5 58 -29 79.5t-82 21.5q-62 0 -84.5 -25t-22.5 -72v-140q0 -54 23 -78t86 -24q65 0 85 18t24 64l193 -16q-7 -99 -74.5 -152.5t-232.5 -53.5zM262 700
l106 200h250l-225 -200h-131z" />
    <glyph glyph-name="ccircumflex" unicode="&#x109;" horiz-adv-x="800" 
d="M100 0zM197 684l-62 84l184 159h152l186 -159l-61 -83l-201 105zM404 -10q-151 0 -227.5 60.5t-76.5 171.5v153q0 117 80 176t223 59q146 0 219.5 -59.5t88.5 -166.5l-193 -16q-5 58 -29 79.5t-82 21.5q-62 0 -84.5 -25t-22.5 -72v-140q0 -54 23 -78t86 -24q65 0 85 18
t24 64l193 -16q-7 -99 -74.5 -152.5t-232.5 -53.5z" />
    <glyph glyph-name="cdotaccent" unicode="&#x10b;" horiz-adv-x="800" 
d="M100 0zM404 -10q-151 0 -227.5 60.5t-76.5 171.5v153q0 117 80 176t223 59q146 0 219.5 -59.5t88.5 -166.5l-193 -16q-5 58 -29 79.5t-82 21.5q-62 0 -84.5 -25t-22.5 -72v-140q0 -54 23 -78t86 -24q65 0 85 18t24 64l193 -16q-7 -99 -74.5 -152.5t-232.5 -53.5zM396 690
q-57 0 -92.5 17t-35.5 59v15q0 43 35.5 61t92.5 18t92.5 -18t35.5 -61v-15q0 -42 -36 -59t-92 -17z" />
    <glyph glyph-name="ccaron" unicode="&#x10d;" horiz-adv-x="800" 
d="M100 0zM321 704l-186 159l61 83l201 -105l198 106l62 -84l-184 -159h-152zM404 -10q-151 0 -227.5 60.5t-76.5 171.5v153q0 117 80 176t223 59q146 0 219.5 -59.5t88.5 -166.5l-193 -16q-5 58 -29 79.5t-82 21.5q-62 0 -84.5 -25t-22.5 -72v-140q0 -54 23 -78t86 -24
q65 0 85 18t24 64l193 -16q-7 -99 -74.5 -152.5t-232.5 -53.5z" />
    <glyph glyph-name="d" unicode="d" horiz-adv-x="900" 
d="M370 140q38 0 68.5 12.5t61.5 37.5v232q-32 21 -63 29.5t-56 8.5q-43 0 -61 -23.5t-18 -77.5v-131q0 -45 18 -66.5t50 -21.5zM470 110q-19 -52 -68.5 -86t-112.5 -34q-103 0 -146 64.5t-43 173.5v143q0 105 62 167t168 62q53 1 94.5 -8.5t75.5 -24.5v93h-120v140h320
v-660h120v-140h-320v110h-30z" />
    <glyph glyph-name="dcaron" unicode="&#x10f;" horiz-adv-x="900" 
d="M100 0zM796 705l51 295h247l-186 -295h-112zM370 140q38 0 68.5 12.5t61.5 37.5v232q-32 21 -63 29.5t-56 8.5q-43 0 -61 -23.5t-18 -77.5v-131q0 -45 18 -66.5t50 -21.5zM470 110q-19 -52 -68.5 -86t-112.5 -34q-103 0 -146 64.5t-43 173.5v143q0 105 62 167t168 62
q53 1 94.5 -8.5t75.5 -24.5v93h-120v140h320v-660h120v-140h-320v110h-30z" />
    <glyph glyph-name="e" unicode="e" horiz-adv-x="800" 
d="M715 142q-40 -87 -108.5 -119.5t-202.5 -32.5q-142 0 -223 64.5t-81 177.5v141q0 110 80.5 173.5t220.5 63.5t219.5 -63.5t79.5 -174.5v-112h-400v-28q0 -54 27 -85.5t93 -31.5q58 0 88 17.5t43 53.5zM300 372v-12h200v12q0 65 -22.5 91.5t-77.5 26.5t-77.5 -26.5
t-22.5 -91.5z" />
    <glyph glyph-name="egrave" unicode="&#xe8;" horiz-adv-x="800" 
d="M100 0zM386 700l-225 200h250l106 -200h-131zM715 142q-40 -87 -108.5 -119.5t-202.5 -32.5q-142 0 -223 64.5t-81 177.5v141q0 110 80.5 173.5t220.5 63.5t219.5 -63.5t79.5 -174.5v-112h-400v-28q0 -54 27 -85.5t93 -31.5q58 0 88 17.5t43 53.5zM300 372v-12h200v12
q0 65 -22.5 91.5t-77.5 26.5t-77.5 -26.5t-22.5 -91.5z" />
    <glyph glyph-name="eacute" unicode="&#xe9;" horiz-adv-x="800" 
d="M100 0zM271 700l106 200h250l-225 -200h-131zM715 142q-40 -87 -108.5 -119.5t-202.5 -32.5q-142 0 -223 64.5t-81 177.5v141q0 110 80.5 173.5t220.5 63.5t219.5 -63.5t79.5 -174.5v-112h-400v-28q0 -54 27 -85.5t93 -31.5q58 0 88 17.5t43 53.5zM300 372v-12h200v12
q0 65 -22.5 91.5t-77.5 26.5t-77.5 -26.5t-22.5 -91.5z" />
    <glyph glyph-name="ecircumflex" unicode="&#xea;" horiz-adv-x="800" 
d="M100 0zM206 684l-62 84l184 159h152l186 -159l-61 -83l-201 105zM715 142q-40 -87 -108.5 -119.5t-202.5 -32.5q-142 0 -223 64.5t-81 177.5v141q0 110 80.5 173.5t220.5 63.5t219.5 -63.5t79.5 -174.5v-112h-400v-28q0 -54 27 -85.5t93 -31.5q58 0 88 17.5t43 53.5z
M300 372v-12h200v12q0 65 -22.5 91.5t-77.5 26.5t-77.5 -26.5t-22.5 -91.5z" />
    <glyph glyph-name="edieresis" unicode="&#xeb;" horiz-adv-x="800" 
d="M100 0zM715 142q-40 -87 -108.5 -119.5t-202.5 -32.5q-142 0 -223 64.5t-81 177.5v141q0 110 80.5 173.5t220.5 63.5t219.5 -63.5t79.5 -174.5v-112h-400v-28q0 -54 27 -85.5t93 -31.5q58 0 88 17.5t43 53.5zM300 372v-12h200v12q0 65 -22.5 91.5t-77.5 26.5t-77.5 -26.5
t-22.5 -91.5zM275 690q-43 0 -70.5 17t-27.5 59v15q0 43 27.5 61t70.5 18q44 0 71 -18t27 -61v-15q0 -42 -27.5 -59t-70.5 -17zM535 690q-43 0 -70.5 17t-27.5 59v15q0 43 27.5 61t70.5 18q44 0 71 -18t27 -61v-15q0 -42 -27.5 -59t-70.5 -17z" />
    <glyph glyph-name="emacron" unicode="&#x113;" horiz-adv-x="800" 
d="M100 0zM715 142q-40 -87 -108.5 -119.5t-202.5 -32.5q-142 0 -223 64.5t-81 177.5v141q0 110 80.5 173.5t220.5 63.5t219.5 -63.5t79.5 -174.5v-112h-400v-28q0 -54 27 -85.5t93 -31.5q58 0 88 17.5t43 53.5zM300 372v-12h200v12q0 65 -22.5 91.5t-77.5 26.5t-77.5 -26.5
t-22.5 -91.5zM180 725v150h450v-150h-450z" />
    <glyph glyph-name="ebreve" unicode="&#x115;" horiz-adv-x="800" 
d="M100 0zM715 142q-40 -87 -108.5 -119.5t-202.5 -32.5q-142 0 -223 64.5t-81 177.5v141q0 110 80.5 173.5t220.5 63.5t219.5 -63.5t79.5 -174.5v-112h-400v-28q0 -54 27 -85.5t93 -31.5q58 0 88 17.5t43 53.5zM300 372v-12h200v12q0 65 -22.5 91.5t-77.5 26.5t-77.5 -26.5
t-22.5 -91.5zM405 693q-135 0 -200.5 59t-66.5 181h160q1 -68 25 -94.5t82 -26.5t82 26.5t25 94.5h160q-1 -122 -66.5 -181t-200.5 -59z" />
    <glyph glyph-name="edotaccent" unicode="&#x117;" horiz-adv-x="800" 
d="M100 0zM405 690q-57 0 -92.5 17t-35.5 59v15q0 43 35.5 61t92.5 18t92.5 -18t35.5 -61v-15q0 -42 -36 -59t-92 -17zM715 142q-40 -87 -108.5 -119.5t-202.5 -32.5q-142 0 -223 64.5t-81 177.5v141q0 110 80.5 173.5t220.5 63.5t219.5 -63.5t79.5 -174.5v-112h-400v-28
q0 -54 27 -85.5t93 -31.5q58 0 88 17.5t43 53.5zM300 372v-12h200v12q0 65 -22.5 91.5t-77.5 26.5t-77.5 -26.5t-22.5 -91.5z" />
    <glyph glyph-name="eogonek" unicode="&#x119;" horiz-adv-x="800" 
d="M100 0zM567 -224q-84 0 -132.5 32t-48.5 96q0 66 51 111.5t111 61.5l27 -54q-34 -21 -41.5 -40t-7.5 -36q0 -26 17.5 -38.5t57.5 -12.5q18 0 42 2.5t53 7.5v-116q-36 -7 -68.5 -10.5t-60.5 -3.5zM715 142q-40 -87 -108.5 -119.5t-202.5 -32.5q-142 0 -223 64.5t-81 177.5
v141q0 110 80.5 173.5t220.5 63.5t219.5 -63.5t79.5 -174.5v-112h-400v-28q0 -54 27 -85.5t93 -31.5q58 0 88 17.5t43 53.5zM300 372v-12h200v12q0 65 -22.5 91.5t-77.5 26.5t-77.5 -26.5t-22.5 -91.5z" />
    <glyph glyph-name="ecaron" unicode="&#x11b;" horiz-adv-x="800" 
d="M100 0zM330 704l-186 159l61 83l201 -105l198 106l62 -84l-184 -159h-152zM715 142q-40 -87 -108.5 -119.5t-202.5 -32.5q-142 0 -223 64.5t-81 177.5v141q0 110 80.5 173.5t220.5 63.5t219.5 -63.5t79.5 -174.5v-112h-400v-28q0 -54 27 -85.5t93 -31.5q58 0 88 17.5
t43 53.5zM300 372v-12h200v12q0 65 -22.5 91.5t-77.5 26.5t-77.5 -26.5t-22.5 -91.5z" />
    <glyph glyph-name="f" unicode="f" horiz-adv-x="700" 
d="M600 140v-140h-520v140h120v320h-120v140h120v31q0 98 69.5 153t192.5 55q37 0 74.5 -6t72.5 -17l-20 -126q-29 9 -54 14t-47 5q-41 0 -64.5 -22t-23.5 -73v-14h200v-140h-200v-320h200z" />
    <glyph glyph-name="g" horiz-adv-x="900" 
d="M800 -26q0 -82 -63 -133t-179 -51h-202q-130 0 -193 41.5t-63 98.5q0 51 32 81.5t78 35.5v20q-37 12 -62.5 35t-25.5 71q0 56 42.5 90.5t104.5 41.5v20q-57 13 -88 45t-31 81v2q0 72 70.5 109.5t210.5 37.5h369v-110l-164 18v-20q37 -10 61 -39t24 -66v-4
q0 -72 -71.5 -110t-213.5 -38h-98q-33 0 -52 -11t-19 -36t19 -36t52 -11h226q113 0 174.5 -40.5t61.5 -122.5zM435 321q51 0 73 20t22 52v30q0 30 -22.5 49.5t-72.5 19.5t-72.5 -19.5t-22.5 -49.5v-30q0 -32 21.5 -52t73.5 -20zM358 -100h188q41 0 67.5 9t26.5 42t-27 41.5
t-67 8.5h-258v-46q0 -27 17 -41t53 -14z" />
    <glyph glyph-name="gcircumflex" horiz-adv-x="900" 
d="M100 0zM251 684l-62 84l184 159h152l186 -159l-61 -83l-201 105zM800 -26q0 -82 -63 -133t-179 -51h-202q-130 0 -193 41.5t-63 98.5q0 51 32 81.5t78 35.5v20q-37 12 -62.5 35t-25.5 71q0 56 42.5 90.5t104.5 41.5v20q-57 13 -88 45t-31 81v2q0 72 70.5 109.5
t210.5 37.5h369v-110l-164 18v-20q37 -10 61 -39t24 -66v-4q0 -72 -71.5 -110t-213.5 -38h-98q-33 0 -52 -11t-19 -36t19 -36t52 -11h226q113 0 174.5 -40.5t61.5 -122.5zM435 321q51 0 73 20t22 52v30q0 30 -22.5 49.5t-72.5 19.5t-72.5 -19.5t-22.5 -49.5v-30
q0 -32 21.5 -52t73.5 -20zM358 -100h188q41 0 67.5 9t26.5 42t-27 41.5t-67 8.5h-258v-46q0 -27 17 -41t53 -14z" />
    <glyph glyph-name="gbreve" horiz-adv-x="900" 
d="M100 0zM450 693q-135 0 -200.5 59t-66.5 181h160q1 -68 25 -94.5t82 -26.5t82 26.5t25 94.5h160q-1 -122 -66.5 -181t-200.5 -59zM800 -26q0 -82 -63 -133t-179 -51h-202q-130 0 -193 41.5t-63 98.5q0 51 32 81.5t78 35.5v20q-37 12 -62.5 35t-25.5 71q0 56 42.5 90.5
t104.5 41.5v20q-57 13 -88 45t-31 81v2q0 72 70.5 109.5t210.5 37.5h369v-110l-164 18v-20q37 -10 61 -39t24 -66v-4q0 -72 -71.5 -110t-213.5 -38h-98q-33 0 -52 -11t-19 -36t19 -36t52 -11h226q113 0 174.5 -40.5t61.5 -122.5zM435 321q51 0 73 20t22 52v30
q0 30 -22.5 49.5t-72.5 19.5t-72.5 -19.5t-22.5 -49.5v-30q0 -32 21.5 -52t73.5 -20zM358 -100h188q41 0 67.5 9t26.5 42t-27 41.5t-67 8.5h-258v-46q0 -27 17 -41t53 -14z" />
    <glyph glyph-name="gdotaccent" horiz-adv-x="900" 
d="M100 0zM450 690q-57 0 -92.5 17t-35.5 59v15q0 43 35.5 61t92.5 18t92.5 -18t35.5 -61v-15q0 -42 -36 -59t-92 -17zM800 -26q0 -82 -63 -133t-179 -51h-202q-130 0 -193 41.5t-63 98.5q0 51 32 81.5t78 35.5v20q-37 12 -62.5 35t-25.5 71q0 56 42.5 90.5t104.5 41.5v20
q-57 13 -88 45t-31 81v2q0 72 70.5 109.5t210.5 37.5h369v-110l-164 18v-20q37 -10 61 -39t24 -66v-4q0 -72 -71.5 -110t-213.5 -38h-98q-33 0 -52 -11t-19 -36t19 -36t52 -11h226q113 0 174.5 -40.5t61.5 -122.5zM435 321q51 0 73 20t22 52v30q0 30 -22.5 49.5t-72.5 19.5
t-72.5 -19.5t-22.5 -49.5v-30q0 -32 21.5 -52t73.5 -20zM358 -100h188q41 0 67.5 9t26.5 42t-27 41.5t-67 8.5h-258v-46q0 -27 17 -41t53 -14z" />
    <glyph glyph-name="gcommaaccent" horiz-adv-x="900" 
d="M100 0zM800 -26q0 -82 -63 -133t-179 -51h-202q-130 0 -193 41.5t-63 98.5q0 51 32 81.5t78 35.5v20q-37 12 -62.5 35t-25.5 71q0 56 42.5 90.5t104.5 41.5v20q-57 13 -88 45t-31 81v2q0 72 70.5 109.5t210.5 37.5h369v-110l-164 18v-20q37 -10 61 -39t24 -66v-4
q0 -72 -71.5 -110t-213.5 -38h-98q-33 0 -52 -11t-19 -36t19 -36t52 -11h226q113 0 174.5 -40.5t61.5 -122.5zM435 321q51 0 73 20t22 52v30q0 30 -22.5 49.5t-72.5 19.5t-72.5 -19.5t-22.5 -49.5v-30q0 -32 21.5 -52t73.5 -20zM358 -100h188q41 0 67.5 9t26.5 42t-27 41.5
t-67 8.5h-258v-46q0 -27 17 -41t53 -14zM296 700l185 200h131l-66 -200h-250z" />
    <glyph glyph-name="h" unicode="h" horiz-adv-x="1000" 
d="M495 140v-140h-415v140h120v520h-120v140h320v-310h30q24 57 72 88.5t115 31.5q87 0 135 -56.5t48 -155.5v-258h120v-140h-320v374q0 42 -18.5 64t-50.5 22t-65 -20.5t-66 -65.5v-234h95z" />
    <glyph glyph-name="hcircumflex" unicode="&#x125;" horiz-adv-x="1000" 
d="M0 0zM495 140v-140h-415v140h120v520h-120v140h320v-310h30q24 57 72 88.5t115 31.5q87 0 135 -56.5t48 -155.5v-258h120v-140h-320v374q0 42 -18.5 64t-50.5 22t-65 -20.5t-66 -65.5v-234h95zM51 884l-62 84l184 159h152l186 -159l-61 -83l-201 105z" />
    <glyph glyph-name="i" unicode="i" horiz-adv-x="800" 
d="M100 0zM100 0v140h200v320h-200v140h400v-460h200v-140h-600zM400 690q-57 0 -92.5 17t-35.5 59v15q0 43 35.5 61t92.5 18t92.5 -18t35.5 -61v-15q0 -42 -36 -59t-92 -17z" />
    <glyph glyph-name="igrave" unicode="&#xec;" horiz-adv-x="800" 
d="M100 0zM381 700l-225 200h250l106 -200h-131zM100 0v140h200v320h-200v140h400v-460h200v-140h-600z" />
    <glyph glyph-name="iacute" unicode="&#xed;" horiz-adv-x="800" 
d="M100 0zM266 700l106 200h250l-225 -200h-131zM100 0v140h200v320h-200v140h400v-460h200v-140h-600z" />
    <glyph glyph-name="icircumflex" unicode="&#xee;" horiz-adv-x="800" 
d="M100 0zM191 684l-62 84l184 159h152l186 -159l-61 -83l-201 105zM100 0v140h200v320h-200v140h400v-460h200v-140h-600z" />
    <glyph glyph-name="idieresis" unicode="&#xef;" horiz-adv-x="800" 
d="M100 0zM100 0v140h200v320h-200v140h400v-460h200v-140h-600zM270 690q-43 0 -70.5 17t-27.5 59v15q0 43 27.5 61t70.5 18q44 0 71 -18t27 -61v-15q0 -42 -27.5 -59t-70.5 -17zM530 690q-43 0 -70.5 17t-27.5 59v15q0 43 27.5 61t70.5 18q44 0 71 -18t27 -61v-15
q0 -42 -27.5 -59t-70.5 -17z" />
    <glyph glyph-name="itilde" unicode="&#x129;" horiz-adv-x="800" 
d="M100 0zM100 0v140h200v320h-200v140h400v-460h200v-140h-600zM496 710q-49 0 -75 15t-42 32q-16 18 -30 32.5t-33 14.5q-16 0 -29 -14.5t-12 -60.5v-9h-127v15q0 83 42 139t116 56q48 0 74 -15t43 -32q17 -18 31 -33t31 -15q16 0 29 14.5t12 60.5v9h127v-15
q0 -82 -42 -138t-115 -56z" />
    <glyph glyph-name="imacron" unicode="&#x12b;" horiz-adv-x="800" 
d="M100 0zM100 0v140h200v320h-200v140h400v-460h200v-140h-600zM165 725v150h450v-150h-450z" />
    <glyph glyph-name="ibreve" unicode="&#x12d;" horiz-adv-x="800" 
d="M100 0zM100 0v140h200v320h-200v140h400v-460h200v-140h-600zM400 693q-135 0 -200.5 59t-66.5 181h160q1 -68 25 -94.5t82 -26.5t82 26.5t25 94.5h160q-1 -122 -66.5 -181t-200.5 -59z" />
    <glyph glyph-name="iogonek" unicode="&#x12f;" horiz-adv-x="800" 
d="M100 0zM400 690q-57 0 -92.5 17t-35.5 59v15q0 43 35.5 61t92.5 18t92.5 -18t35.5 -61v-15q0 -42 -36 -59t-92 -17zM100 0v140h200v320h-200v140h400v-460h200v-140h-600zM466 -224q-84 0 -132.5 32t-48.5 96q0 66 51 111.5t111 61.5l27 -54q-34 -21 -41.5 -40t-7.5 -36
q0 -26 17.5 -38.5t57.5 -12.5q18 0 42 2.5t53 7.5v-116q-36 -7 -68.5 -10.5t-60.5 -3.5z" />
    <glyph glyph-name="j" unicode="j" horiz-adv-x="600" 
d="M41 0zM188 -210q-37 0 -74.5 6t-72.5 17l20 126q29 -9 54 -14t47 -5q41 0 64.5 22t23.5 73v445h-169v140h369v-602q0 -110 -80.5 -159t-181.5 -49zM350 690q-57 0 -92.5 17t-35.5 59v15q0 43 35.5 61t92.5 18t92.5 -18t35.5 -61v-15q0 -42 -36 -59t-92 -17z" />
    <glyph glyph-name="jcircumflex" unicode="&#x135;" horiz-adv-x="600" 
d="M41 0zM188 -210q-37 0 -74.5 6t-72.5 17l20 126q29 -9 54 -14t47 -5q41 0 64.5 22t23.5 73v445h-169v140h369v-602q0 -110 -80.5 -159t-181.5 -49zM116 684l-62 84l184 159h152l186 -159l-61 -83l-201 105z" />
    <glyph glyph-name="k" unicode="k" horiz-adv-x="900" 
d="M400 230v-230h-320v140h120v520h-120v140h320v-430h64l146 230h240v-140h-122l-86 -128l126 -192h92v-140h-220l-159 230h-81z" />
    <glyph glyph-name="kcommaaccent" unicode="&#x137;" horiz-adv-x="900" 
d="M80 0zM400 230v-230h-320v140h120v520h-120v140h320v-430h64l146 230h240v-140h-122l-86 -128l126 -192h92v-140h-220l-159 230h-81zM309 -300l66 200h250l-185 -200h-131z" />
    <glyph glyph-name="l" unicode="l" horiz-adv-x="800" 
d="M100 0v140h200v520h-200v140h400v-660h200v-140h-600z" />
    <glyph glyph-name="lacute" unicode="&#x13a;" horiz-adv-x="800" 
d="M100 0zM311 900l106 200h250l-225 -200h-131zM100 0v140h200v520h-200v140h400v-660h200v-140h-600z" />
    <glyph glyph-name="lcommaaccent" unicode="&#x13c;" horiz-adv-x="800" 
d="M100 0zM100 0v140h200v520h-200v140h400v-660h200v-140h-600zM221 -300l66 200h250l-185 -200h-131z" />
    <glyph glyph-name="lcaron" unicode="&#x13e;" horiz-adv-x="800" 
d="M100 0zM596 705l51 295h247l-186 -295h-112zM100 0v140h200v520h-200v140h400v-660h200v-140h-600z" />
    <glyph glyph-name="m" unicode="m" horiz-adv-x="1300" 
d="M400 394v-394h-320v140h120v320h-120v140h320v-110h30q27 64 72.5 92t96.5 28q49 0 87 -30t54 -90h40q27 64 72 92t92 28q67 0 111.5 -50.5t44.5 -149.5v-270h120v-140h-320v394q0 32 -13.5 49t-35.5 17q-25 0 -52 -18t-49 -52v-390h-200v394q0 32 -13.5 49t-35.5 17
q-25 0 -52 -17.5t-49 -48.5z" />
    <glyph glyph-name="n" unicode="n" horiz-adv-x="1000" 
d="M490 140v-140h-410v140h120v320h-120v140h320v-110h30q28 65 80 92.5t106 27.5q78 0 131 -50.5t53 -160.5v-259h120v-140h-320v374q0 42 -18.5 64t-50.5 22q-33 0 -68 -23t-63 -63v-234h90z" />
    <glyph glyph-name="ntilde" unicode="&#xf1;" horiz-adv-x="1000" 
d="M80 0zM616 710q-49 0 -75 15t-42 32q-16 18 -30 32.5t-33 14.5q-16 0 -29 -14.5t-12 -60.5v-9h-127v15q0 83 42 139t116 56q48 0 74 -15t43 -32q17 -18 31 -33t31 -15q16 0 29 14.5t12 60.5v9h127v-15q0 -82 -42 -138t-115 -56zM490 140v-140h-410v140h120v320h-120v140
h320v-110h30q28 65 80 92.5t106 27.5q78 0 131 -50.5t53 -160.5v-259h120v-140h-320v374q0 42 -18.5 64t-50.5 22q-33 0 -68 -23t-63 -63v-234h90z" />
    <glyph glyph-name="nacute" unicode="&#x144;" horiz-adv-x="1000" 
d="M80 0zM386 700l106 200h250l-225 -200h-131zM490 140v-140h-410v140h120v320h-120v140h320v-110h30q28 65 80 92.5t106 27.5q78 0 131 -50.5t53 -160.5v-259h120v-140h-320v374q0 42 -18.5 64t-50.5 22q-33 0 -68 -23t-63 -63v-234h90z" />
    <glyph glyph-name="ncommaaccent" unicode="&#x146;" horiz-adv-x="1000" 
d="M80 0zM336 -300l66 200h250l-185 -200h-131zM490 140v-140h-410v140h120v320h-120v140h320v-110h30q28 65 80 92.5t106 27.5q78 0 131 -50.5t53 -160.5v-259h120v-140h-320v374q0 42 -18.5 64t-50.5 22q-33 0 -68 -23t-63 -63v-234h90z" />
    <glyph glyph-name="ncaron" unicode="&#x148;" horiz-adv-x="1000" 
d="M80 0zM415 704l-186 159l61 83l201 -105l198 106l62 -84l-184 -159h-152zM490 140v-140h-410v140h120v320h-120v140h320v-110h30q28 65 80 92.5t106 27.5q78 0 131 -50.5t53 -160.5v-259h120v-140h-320v374q0 42 -18.5 64t-50.5 22q-33 0 -68 -23t-63 -63v-234h90z" />
    <glyph glyph-name="o" unicode="o" horiz-adv-x="800" 
d="M400 -10q-127 0 -213.5 58t-86.5 174v152q0 117 87 176.5t214 59.5t213 -59.5t86 -176.5v-152q0 -116 -86.5 -174t-213.5 -58zM400 130q56 0 78 24t22 78v143q0 46 -22 70.5t-78 24.5t-78 -25.5t-22 -72.5v-140q0 -54 22 -78t78 -24z" />
    <glyph glyph-name="ograve" unicode="&#xf2;" horiz-adv-x="800" 
d="M100 0zM381 700l-225 200h250l106 -200h-131zM400 -10q-127 0 -213.5 58t-86.5 174v152q0 117 87 176.5t214 59.5t213 -59.5t86 -176.5v-152q0 -116 -86.5 -174t-213.5 -58zM400 130q56 0 78 24t22 78v143q0 46 -22 70.5t-78 24.5t-78 -25.5t-22 -72.5v-140q0 -54 22 -78
t78 -24z" />
    <glyph glyph-name="oacute" unicode="&#xf3;" horiz-adv-x="800" 
d="M100 0zM266 700l106 200h250l-225 -200h-131zM400 -10q-127 0 -213.5 58t-86.5 174v152q0 117 87 176.5t214 59.5t213 -59.5t86 -176.5v-152q0 -116 -86.5 -174t-213.5 -58zM400 130q56 0 78 24t22 78v143q0 46 -22 70.5t-78 24.5t-78 -25.5t-22 -72.5v-140q0 -54 22 -78
t78 -24z" />
    <glyph glyph-name="ocircumflex" unicode="&#xf4;" horiz-adv-x="800" 
d="M100 0zM201 684l-62 84l184 159h152l186 -159l-61 -83l-201 105zM400 -10q-127 0 -213.5 58t-86.5 174v152q0 117 87 176.5t214 59.5t213 -59.5t86 -176.5v-152q0 -116 -86.5 -174t-213.5 -58zM400 130q56 0 78 24t22 78v143q0 46 -22 70.5t-78 24.5t-78 -25.5t-22 -72.5
v-140q0 -54 22 -78t78 -24z" />
    <glyph glyph-name="otilde" unicode="&#xf5;" horiz-adv-x="800" 
d="M100 0zM496 710q-49 0 -75 15t-42 32q-16 18 -30 32.5t-33 14.5q-16 0 -29 -14.5t-12 -60.5v-9h-127v15q0 83 42 139t116 56q48 0 74 -15t43 -32q17 -18 31 -33t31 -15q16 0 29 14.5t12 60.5v9h127v-15q0 -82 -42 -138t-115 -56zM400 -10q-127 0 -213.5 58t-86.5 174v152
q0 117 87 176.5t214 59.5t213 -59.5t86 -176.5v-152q0 -116 -86.5 -174t-213.5 -58zM400 130q56 0 78 24t22 78v143q0 46 -22 70.5t-78 24.5t-78 -25.5t-22 -72.5v-140q0 -54 22 -78t78 -24z" />
    <glyph glyph-name="odieresis" unicode="&#xf6;" horiz-adv-x="800" 
d="M100 0zM270 690q-43 0 -70.5 17t-27.5 59v15q0 43 27.5 61t70.5 18q44 0 71 -18t27 -61v-15q0 -42 -27.5 -59t-70.5 -17zM530 690q-43 0 -70.5 17t-27.5 59v15q0 43 27.5 61t70.5 18q44 0 71 -18t27 -61v-15q0 -42 -27.5 -59t-70.5 -17zM400 -10q-127 0 -213.5 58
t-86.5 174v152q0 117 87 176.5t214 59.5t213 -59.5t86 -176.5v-152q0 -116 -86.5 -174t-213.5 -58zM400 130q56 0 78 24t22 78v143q0 46 -22 70.5t-78 24.5t-78 -25.5t-22 -72.5v-140q0 -54 22 -78t78 -24z" />
    <glyph glyph-name="omacron" unicode="&#x14d;" horiz-adv-x="800" 
d="M100 0zM175 725v150h450v-150h-450zM400 -10q-127 0 -213.5 58t-86.5 174v152q0 117 87 176.5t214 59.5t213 -59.5t86 -176.5v-152q0 -116 -86.5 -174t-213.5 -58zM400 130q56 0 78 24t22 78v143q0 46 -22 70.5t-78 24.5t-78 -25.5t-22 -72.5v-140q0 -54 22 -78t78 -24z
" />
    <glyph glyph-name="obreve" unicode="&#x14f;" horiz-adv-x="800" 
d="M100 0zM400 693q-135 0 -200.5 59t-66.5 181h160q1 -68 25 -94.5t82 -26.5t82 26.5t25 94.5h160q-1 -122 -66.5 -181t-200.5 -59zM400 -10q-127 0 -213.5 58t-86.5 174v152q0 117 87 176.5t214 59.5t213 -59.5t86 -176.5v-152q0 -116 -86.5 -174t-213.5 -58zM400 130
q56 0 78 24t22 78v143q0 46 -22 70.5t-78 24.5t-78 -25.5t-22 -72.5v-140q0 -54 22 -78t78 -24z" />
    <glyph glyph-name="ohungarumlaut" unicode="&#x151;" horiz-adv-x="800" 
d="M100 0zM436 700l46 200h190l-135 -200h-101zM206 700l46 200h190l-135 -200h-101zM400 -10q-127 0 -213.5 58t-86.5 174v152q0 117 87 176.5t214 59.5t213 -59.5t86 -176.5v-152q0 -116 -86.5 -174t-213.5 -58zM400 130q56 0 78 24t22 78v143q0 46 -22 70.5t-78 24.5
t-78 -25.5t-22 -72.5v-140q0 -54 22 -78t78 -24z" />
    <glyph glyph-name="p" unicode="p" horiz-adv-x="900" 
d="M504 149q46 0 71 20t25 67v135q0 46 -22 67.5t-58 21.5q-31 0 -60 -12.5t-60 -37.5v-235q26 -13 49.5 -19.5t54.5 -6.5zM540 -60v-140h-460v140h120v520h-120v140h320v-110h30q23 57 73.5 88.5t117.5 31.5q82 0 130.5 -59.5t48.5 -160.5v-155q0 -106 -68 -165.5
t-190 -59.5q-40 0 -76 5.5t-66 17.5v-93h140z" />
    <glyph glyph-name="q" unicode="q" horiz-adv-x="900" 
d="M359 -200v140h141v170h-30q-22 -55 -73.5 -87.5t-117.5 -32.5q-83 0 -131 59.5t-48 160.5v171q0 104 82.5 164.5t224.5 60.5q90 0 168.5 -15t124.5 -41v-610h119v-140h-460zM380 140q31 0 60 12.5t60 37.5v252q-19 10 -44.5 17.5t-59.5 7.5q-46 0 -71 -19.5t-25 -67.5
v-151q0 -46 22 -67.5t58 -21.5z" />
    <glyph glyph-name="r" unicode="r" horiz-adv-x="800" 
d="M80 0v140h120v320h-120v140h320v-110h30q22 62 63.5 91t98.5 29q81 0 119.5 -55t38.5 -155v-72h-180v55q0 35 -13.5 56t-47.5 21q-28 0 -57 -21t-52 -59v-240h200v-140h-520z" />
    <glyph glyph-name="racute" unicode="&#x155;" horiz-adv-x="800" 
d="M80 0zM341 700l106 200h250l-225 -200h-131zM80 0v140h120v320h-120v140h320v-110h30q22 62 63.5 91t98.5 29q81 0 119.5 -55t38.5 -155v-72h-180v55q0 35 -13.5 56t-47.5 21q-28 0 -57 -21t-52 -59v-240h200v-140h-520z" />
    <glyph glyph-name="rcommaaccent" unicode="&#x157;" horiz-adv-x="800" 
d="M80 0zM80 0v140h120v320h-120v140h320v-110h30q22 62 63.5 91t98.5 29q81 0 119.5 -55t38.5 -155v-72h-180v55q0 35 -13.5 56t-47.5 21q-28 0 -57 -21t-52 -59v-240h200v-140h-520zM131 -300l66 200h250l-185 -200h-131z" />
    <glyph glyph-name="rcaron" unicode="&#x159;" horiz-adv-x="800" 
d="M80 0zM350 704l-186 159l61 83l201 -105l198 106l62 -84l-184 -159h-152zM80 0v140h120v320h-120v140h320v-110h30q22 62 63.5 91t98.5 29q81 0 119.5 -55t38.5 -155v-72h-180v55q0 35 -13.5 56t-47.5 21q-28 0 -57 -21t-52 -59v-240h200v-140h-520z" />
    <glyph glyph-name="s" unicode="s" horiz-adv-x="800" 
d="M401 -6q-84 0 -167.5 20.5t-143.5 66.5l45 119q65 -49 138.5 -66.5t132.5 -17.5q55 0 77.5 13.5t22.5 40.5q0 31 -26 45t-85 20q-137 14 -211 50.5t-74 124.5q0 92 76 146t207 54q66 0 139 -19.5t133 -56.5l-35 -112q-64 36 -121.5 51t-107.5 15q-49 0 -70.5 -13.5
t-21.5 -38.5q0 -32 35.5 -43t109.5 -21q129 -16 190 -57t61 -122q0 -92 -78 -145.5t-226 -53.5z" />
    <glyph glyph-name="sacute" unicode="&#x15b;" horiz-adv-x="800" 
d="M90 0zM401 -6q-84 0 -167.5 20.5t-143.5 66.5l45 119q65 -49 138.5 -66.5t132.5 -17.5q55 0 77.5 13.5t22.5 40.5q0 31 -26 45t-85 20q-137 14 -211 50.5t-74 124.5q0 92 76 146t207 54q66 0 139 -19.5t133 -56.5l-35 -112q-64 36 -121.5 51t-107.5 15q-49 0 -70.5 -13.5
t-21.5 -38.5q0 -32 35.5 -43t109.5 -21q129 -16 190 -57t61 -122q0 -92 -78 -145.5t-226 -53.5zM264 700l106 200h250l-225 -200h-131z" />
    <glyph glyph-name="scircumflex" unicode="&#x15d;" horiz-adv-x="800" 
d="M90 0zM199 684l-62 84l184 159h152l186 -159l-61 -83l-201 105zM401 -6q-84 0 -167.5 20.5t-143.5 66.5l45 119q65 -49 138.5 -66.5t132.5 -17.5q55 0 77.5 13.5t22.5 40.5q0 31 -26 45t-85 20q-137 14 -211 50.5t-74 124.5q0 92 76 146t207 54q66 0 139 -19.5t133 -56.5
l-35 -112q-64 36 -121.5 51t-107.5 15q-49 0 -70.5 -13.5t-21.5 -38.5q0 -32 35.5 -43t109.5 -21q129 -16 190 -57t61 -122q0 -92 -78 -145.5t-226 -53.5z" />
    <glyph glyph-name="scedilla" unicode="&#x15f;" horiz-adv-x="800" 
d="M90 0zM401 -6q-84 0 -167.5 20.5t-143.5 66.5l45 119q65 -49 138.5 -66.5t132.5 -17.5q55 0 77.5 13.5t22.5 40.5q0 31 -26 45t-85 20q-137 14 -211 50.5t-74 124.5q0 92 76 146t207 54q66 0 139 -19.5t133 -56.5l-35 -112q-64 36 -121.5 51t-107.5 15q-49 0 -70.5 -13.5
t-21.5 -38.5q0 -32 35.5 -43t109.5 -21q129 -16 190 -57t61 -122q0 -92 -78 -145.5t-226 -53.5zM368 0l20 42q86 -8 140 -35.5t54 -94.5q0 -75 -67 -106.5t-149 -31.5q-96 0 -157 31.5t-66 104.5l168 10q2 -19 12.5 -26.5t34.5 -7.5q27 0 40.5 10.5t13.5 44.5q0 25 -9 38.5
t-35 20.5z" />
    <glyph glyph-name="scaron" unicode="&#x161;" horiz-adv-x="800" 
d="M90 0zM323 704l-186 159l61 83l201 -105l198 106l62 -84l-184 -159h-152zM401 -6q-84 0 -167.5 20.5t-143.5 66.5l45 119q65 -49 138.5 -66.5t132.5 -17.5q55 0 77.5 13.5t22.5 40.5q0 31 -26 45t-85 20q-137 14 -211 50.5t-74 124.5q0 92 76 146t207 54q66 0 139 -19.5
t133 -56.5l-35 -112q-64 36 -121.5 51t-107.5 15q-49 0 -70.5 -13.5t-21.5 -38.5q0 -32 35.5 -43t109.5 -21q129 -16 190 -57t61 -122q0 -92 -78 -145.5t-226 -53.5z" />
    <glyph glyph-name="scommaaccent" unicode="&#x219;" horiz-adv-x="800" 
d="M90 0zM401 -6q-84 0 -167.5 20.5t-143.5 66.5l45 119q65 -49 138.5 -66.5t132.5 -17.5q55 0 77.5 13.5t22.5 40.5q0 31 -26 45t-85 20q-137 14 -211 50.5t-74 124.5q0 92 76 146t207 54q66 0 139 -19.5t133 -56.5l-35 -112q-64 36 -121.5 51t-107.5 15q-49 0 -70.5 -13.5
t-21.5 -38.5q0 -32 35.5 -43t109.5 -21q129 -16 190 -57t61 -122q0 -92 -78 -145.5t-226 -53.5zM186 -300l66 200h250l-185 -200h-131z" />
    <glyph glyph-name="t" unicode="t" horiz-adv-x="700" 
d="M460 -11q-122 0 -191 58t-69 161v252h-120v140h120v200h200v-200h200v-140h-200v-224q0 -57 24.5 -81.5t66.5 -24.5q19 0 44.5 5t53.5 15l20 -136q-18 -8 -58.5 -16.5t-90.5 -8.5z" />
    <glyph glyph-name="tcedilla" unicode="&#x163;" horiz-adv-x="700" 
d="M80 0zM460 -11q-122 0 -191 58t-69 161v252h-120v140h120v200h200v-200h200v-140h-200v-224q0 -57 24.5 -81.5t66.5 -24.5q19 0 44.5 5t53.5 15l20 -136q-18 -8 -58.5 -16.5t-90.5 -8.5zM363 0l20 42q86 -8 140 -35.5t54 -94.5q0 -75 -67 -106.5t-149 -31.5
q-96 0 -157 31.5t-66 104.5l168 10q2 -19 12.5 -26.5t34.5 -7.5q27 0 40.5 10.5t13.5 44.5q0 25 -9 38.5t-35 20.5z" />
    <glyph glyph-name="tcaron" unicode="&#x165;" horiz-adv-x="700" 
d="M80 0zM496 705l51 295h247l-186 -295h-112zM460 -11q-122 0 -191 58t-69 161v252h-120v140h120v200h200v-200h200v-140h-200v-224q0 -57 24.5 -81.5t66.5 -24.5q19 0 44.5 5t53.5 15l20 -136q-18 -8 -58.5 -16.5t-90.5 -8.5z" />
    <glyph glyph-name="tcommaaccent" unicode="&#x21b;" horiz-adv-x="700" 
d="M80 0zM460 -11q-122 0 -191 58t-69 161v252h-120v140h120v200h200v-200h200v-140h-200v-224q0 -57 24.5 -81.5t66.5 -24.5q19 0 44.5 5t53.5 15l20 -136q-18 -8 -58.5 -16.5t-90.5 -8.5zM216 -300l66 200h250l-185 -200h-131z" />
    <glyph glyph-name="u" unicode="u" horiz-adv-x="1000" 
d="M377 -10q-82 0 -129.5 57t-47.5 156v257h-120v140h320v-374q0 -42 18.5 -64t50.5 -22q33 0 68 23t63 63v234h-100v140h300v-460h120v-140h-320v110h-30q-24 -55 -75.5 -87.5t-117.5 -32.5z" />
    <glyph glyph-name="ugrave" unicode="&#xf9;" horiz-adv-x="1000" 
d="M80 0zM481 700l-225 200h250l106 -200h-131zM377 -10q-82 0 -129.5 57t-47.5 156v257h-120v140h320v-374q0 -42 18.5 -64t50.5 -22q33 0 68 23t63 63v234h-100v140h300v-460h120v-140h-320v110h-30q-24 -55 -75.5 -87.5t-117.5 -32.5z" />
    <glyph glyph-name="uacute" unicode="&#xfa;" horiz-adv-x="1000" 
d="M80 0zM386 700l106 200h250l-225 -200h-131zM377 -10q-82 0 -129.5 57t-47.5 156v257h-120v140h320v-374q0 -42 18.5 -64t50.5 -22q33 0 68 23t63 63v234h-100v140h300v-460h120v-140h-320v110h-30q-24 -55 -75.5 -87.5t-117.5 -32.5z" />
    <glyph glyph-name="ucircumflex" unicode="&#xfb;" horiz-adv-x="1000" 
d="M80 0zM261 684l-62 84l184 159h152l186 -159l-61 -83l-201 105zM377 -10q-82 0 -129.5 57t-47.5 156v257h-120v140h320v-374q0 -42 18.5 -64t50.5 -22q33 0 68 23t63 63v234h-100v140h300v-460h120v-140h-320v110h-30q-24 -55 -75.5 -87.5t-117.5 -32.5z" />
    <glyph glyph-name="udieresis" unicode="&#xfc;" horiz-adv-x="1000" 
d="M80 0zM377 -10q-82 0 -129.5 57t-47.5 156v257h-120v140h320v-374q0 -42 18.5 -64t50.5 -22q33 0 68 23t63 63v234h-100v140h300v-460h120v-140h-320v110h-30q-24 -55 -75.5 -87.5t-117.5 -32.5zM330 690q-43 0 -70.5 17t-27.5 59v15q0 43 27.5 61t70.5 18q44 0 71 -18
t27 -61v-15q0 -42 -27.5 -59t-70.5 -17zM590 690q-43 0 -70.5 17t-27.5 59v15q0 43 27.5 61t70.5 18q44 0 71 -18t27 -61v-15q0 -42 -27.5 -59t-70.5 -17z" />
    <glyph glyph-name="utilde" unicode="&#x169;" horiz-adv-x="1000" 
d="M80 0zM377 -10q-82 0 -129.5 57t-47.5 156v257h-120v140h320v-374q0 -42 18.5 -64t50.5 -22q33 0 68 23t63 63v234h-100v140h300v-460h120v-140h-320v110h-30q-24 -55 -75.5 -87.5t-117.5 -32.5zM586 710q-49 0 -75 15t-42 32q-16 18 -30 32.5t-33 14.5q-16 0 -29 -14.5
t-12 -60.5v-9h-127v15q0 83 42 139t116 56q48 0 74 -15t43 -32q17 -18 31 -33t31 -15q16 0 29 14.5t12 60.5v9h127v-15q0 -82 -42 -138t-115 -56z" />
    <glyph glyph-name="umacron" unicode="&#x16b;" horiz-adv-x="1000" 
d="M80 0zM377 -10q-82 0 -129.5 57t-47.5 156v257h-120v140h320v-374q0 -42 18.5 -64t50.5 -22q33 0 68 23t63 63v234h-100v140h300v-460h120v-140h-320v110h-30q-24 -55 -75.5 -87.5t-117.5 -32.5zM255 725v150h450v-150h-450z" />
    <glyph glyph-name="ubreve" unicode="&#x16d;" horiz-adv-x="1000" 
d="M80 0zM377 -10q-82 0 -129.5 57t-47.5 156v257h-120v140h320v-374q0 -42 18.5 -64t50.5 -22q33 0 68 23t63 63v234h-100v140h300v-460h120v-140h-320v110h-30q-24 -55 -75.5 -87.5t-117.5 -32.5zM480 693q-135 0 -200.5 59t-66.5 181h160q1 -68 25 -94.5t82 -26.5
t82 26.5t25 94.5h160q-1 -122 -66.5 -181t-200.5 -59z" />
    <glyph glyph-name="uring" unicode="&#x16f;" horiz-adv-x="1000" 
d="M80 0zM377 -10q-82 0 -129.5 57t-47.5 156v257h-120v140h320v-374q0 -42 18.5 -64t50.5 -22q33 0 68 23t63 63v234h-100v140h300v-460h120v-140h-320v110h-30q-24 -55 -75.5 -87.5t-117.5 -32.5zM480 675q-94 0 -152 38t-58 117v32q0 80 58 119t152 39q95 0 152.5 -39
t57.5 -119v-32q0 -79 -58 -117t-152 -38zM480 766q35 0 53.5 14.5t18.5 49.5v32q0 34 -18.5 50.5t-53.5 16.5q-36 0 -54 -16.5t-18 -50.5v-32q0 -35 18 -49.5t54 -14.5z" />
    <glyph glyph-name="uhungarumlaut" unicode="&#x171;" horiz-adv-x="1000" 
d="M80 0zM516 700l46 200h190l-135 -200h-101zM286 700l46 200h190l-135 -200h-101zM377 -10q-82 0 -129.5 57t-47.5 156v257h-120v140h320v-374q0 -42 18.5 -64t50.5 -22q33 0 68 23t63 63v234h-100v140h300v-460h120v-140h-320v110h-30q-24 -55 -75.5 -87.5t-117.5 -32.5z
" />
    <glyph glyph-name="uogonek" unicode="&#x173;" horiz-adv-x="1000" 
d="M80 0zM736 -224q-84 0 -132.5 32t-48.5 96q0 66 51 111.5t111 61.5l27 -54q-34 -21 -41.5 -40t-7.5 -36q0 -26 17.5 -38.5t57.5 -12.5q18 0 42 2.5t53 7.5v-116q-36 -7 -68.5 -10.5t-60.5 -3.5zM377 -10q-82 0 -129.5 57t-47.5 156v257h-120v140h320v-374q0 -42 18.5 -64
t50.5 -22q33 0 68 23t63 63v234h-100v140h300v-460h120v-140h-320v110h-30q-24 -55 -75.5 -87.5t-117.5 -32.5z" />
    <glyph glyph-name="v" unicode="v" horiz-adv-x="900" 
d="M582 0h-265l-178 460h-89v140h370v-140h-85l129 -342l128 342h-92v140h350v-140h-90z" />
    <glyph glyph-name="w" unicode="w" horiz-adv-x="1200" 
d="M708 0l-108 326l-104 -326h-214l-153 460h-79v140h370v-140h-114l105 -328l110 348h184l114 -351l105 331h-104v140h330v-140h-79l-153 -460h-210z" />
    <glyph glyph-name="wcircumflex" unicode="&#x175;" horiz-adv-x="1200" 
d="M50 0zM401 684l-62 84l184 159h152l186 -159l-61 -83l-201 105zM708 0l-108 326l-104 -326h-214l-153 460h-79v140h370v-140h-114l105 -328l110 348h184l114 -351l105 331h-104v140h330v-140h-79l-153 -460h-210z" />
    <glyph glyph-name="wgrave" unicode="&#x1e81;" horiz-adv-x="1200" 
d="M50 0zM581 700l-225 200h250l106 -200h-131zM708 0l-108 326l-104 -326h-214l-153 460h-79v140h370v-140h-114l105 -328l110 348h184l114 -351l105 331h-104v140h330v-140h-79l-153 -460h-210z" />
    <glyph glyph-name="wacute" unicode="&#x1e83;" horiz-adv-x="1200" 
d="M50 0zM466 700l106 200h250l-225 -200h-131zM708 0l-108 326l-104 -326h-214l-153 460h-79v140h370v-140h-114l105 -328l110 348h184l114 -351l105 331h-104v140h330v-140h-79l-153 -460h-210z" />
    <glyph glyph-name="wdieresis" unicode="&#x1e85;" horiz-adv-x="1200" 
d="M50 0zM470 690q-43 0 -70.5 17t-27.5 59v15q0 43 27.5 61t70.5 18q44 0 71 -18t27 -61v-15q0 -42 -27.5 -59t-70.5 -17zM730 690q-43 0 -70.5 17t-27.5 59v15q0 43 27.5 61t70.5 18q44 0 71 -18t27 -61v-15q0 -42 -27.5 -59t-70.5 -17zM708 0l-108 326l-104 -326h-214
l-153 460h-79v140h370v-140h-114l105 -328l110 348h184l114 -351l105 331h-104v140h330v-140h-79l-153 -460h-210z" />
    <glyph glyph-name="x" unicode="x" horiz-adv-x="900" 
d="M568 0l-146 187l-144 -187h-198v140h114l133 169l-117 151h-110v140h246l140 -179l127 179h197v-140h-108l-119 -163l123 -157h114v-140h-252z" />
    <glyph glyph-name="y" unicode="y" horiz-adv-x="900" 
d="M286 -212q-31 0 -68.5 3.5t-80.5 8.5l10 140q42 -7 74.5 -11.5t57.5 -4.5q58 0 86.5 25t48.5 79l3 7h-119l-158 425h-90v140h362v-140h-86l124 -338l129 338h-86v140h357v-140h-93l-179 -445q-42 -104 -104 -165.5t-188 -61.5z" />
    <glyph glyph-name="yacute" unicode="&#xfd;" horiz-adv-x="900" 
d="M50 0zM286 -212q-31 0 -68.5 3.5t-80.5 8.5l10 140q42 -7 74.5 -11.5t57.5 -4.5q58 0 86.5 25t48.5 79l3 7h-119l-158 425h-90v140h362v-140h-86l124 -338l129 338h-86v140h357v-140h-93l-179 -445q-42 -104 -104 -165.5t-188 -61.5zM316 700l106 200h250l-225 -200h-131
z" />
    <glyph glyph-name="ydieresis" unicode="&#xff;" horiz-adv-x="900" 
d="M50 0zM286 -212q-31 0 -68.5 3.5t-80.5 8.5l10 140q42 -7 74.5 -11.5t57.5 -4.5q58 0 86.5 25t48.5 79l3 7h-119l-158 425h-90v140h362v-140h-86l124 -338l129 338h-86v140h357v-140h-93l-179 -445q-42 -104 -104 -165.5t-188 -61.5zM320 690q-43 0 -70.5 17t-27.5 59v15
q0 43 27.5 61t70.5 18q44 0 71 -18t27 -61v-15q0 -42 -27.5 -59t-70.5 -17zM580 690q-43 0 -70.5 17t-27.5 59v15q0 43 27.5 61t70.5 18q44 0 71 -18t27 -61v-15q0 -42 -27.5 -59t-70.5 -17z" />
    <glyph glyph-name="ycircumflex" unicode="&#x177;" horiz-adv-x="900" 
d="M50 0zM286 -212q-31 0 -68.5 3.5t-80.5 8.5l10 140q42 -7 74.5 -11.5t57.5 -4.5q58 0 86.5 25t48.5 79l3 7h-119l-158 425h-90v140h362v-140h-86l124 -338l129 338h-86v140h357v-140h-93l-179 -445q-42 -104 -104 -165.5t-188 -61.5zM251 684l-62 84l184 159h152
l186 -159l-61 -83l-201 105z" />
    <glyph glyph-name="ygrave" unicode="&#x1ef3;" horiz-adv-x="900" 
d="M50 0zM286 -212q-31 0 -68.5 3.5t-80.5 8.5l10 140q42 -7 74.5 -11.5t57.5 -4.5q58 0 86.5 25t48.5 79l3 7h-119l-158 425h-90v140h362v-140h-86l124 -338l129 338h-86v140h357v-140h-93l-179 -445q-42 -104 -104 -165.5t-188 -61.5zM431 700l-225 200h250l106 -200h-131
z" />
    <glyph glyph-name="z" unicode="z" horiz-adv-x="800" 
d="M710 0h-620v130l380 340h-220v-110h-150v240h600v-130l-379 -340h239v110h150v-240z" />
    <glyph glyph-name="zacute" unicode="&#x17a;" horiz-adv-x="800" 
d="M90 0zM266 700l106 200h250l-225 -200h-131zM710 0h-620v130l380 340h-220v-110h-150v240h600v-130l-379 -340h239v110h150v-240z" />
    <glyph glyph-name="zdotaccent" unicode="&#x17c;" horiz-adv-x="800" 
d="M90 0zM400 690q-57 0 -92.5 17t-35.5 59v15q0 43 35.5 61t92.5 18t92.5 -18t35.5 -61v-15q0 -42 -36 -59t-92 -17zM710 0h-620v130l380 340h-220v-110h-150v240h600v-130l-379 -340h239v110h150v-240z" />
    <glyph glyph-name="zcaron" unicode="&#x17e;" horiz-adv-x="800" 
d="M90 0zM325 704l-186 159l61 83l201 -105l198 106l62 -84l-184 -159h-152zM710 0h-620v130l380 340h-220v-110h-150v240h600v-130l-379 -340h239v110h150v-240z" />
    <glyph glyph-name="ordfeminine" unicode="&#xaa;" horiz-adv-x="800" 
d="M338 385q31 0 61 6.5t55 18.5v83h-119q-30 0 -44.5 -11.5t-14.5 -46.5q0 -25 14.5 -37.5t47.5 -12.5zM301 283q-65 0 -126 33.5t-61 107.5q0 78 55.5 116t152.5 38h132v41q0 46 -21 61.5t-61 15.5q-37 0 -57.5 -14.5t-33.5 -55.5l-154 22q19 89 77 125.5t174 36.5
q118 0 182 -42t64 -148v-150q0 -46 26.5 -56t75.5 -4v-114q-69 -16 -121.5 -4.5t-79.5 68.5h-25q-25 -33 -80 -55t-119 -22z" />
    <glyph glyph-name="ordmasculine" unicode="&#xba;" horiz-adv-x="800" 
d="M400 283q-107 0 -181 47t-74 146v138q0 99 74 147.5t182 48.5q107 0 180.5 -48.5t73.5 -147.5v-138q0 -99 -73.5 -146t-181.5 -47zM400 402q48 0 66.5 20.5t18.5 66.5v121q0 39 -18.5 60t-66.5 21t-66.5 -21.5t-18.5 -61.5v-119q0 -46 18.5 -66.5t66.5 -20.5z" />
    <glyph glyph-name="germandbls" unicode="&#xdf;" 
d="M758 -6q-77 0 -152.5 20t-127.5 51l41 111q56 -33 124 -50.5t132 -17.5q40 0 58 12.5t18 36.5q0 25 -21 37t-81 22q-137 22 -195 60t-58 107q0 74 59 123.5t167 60.5q-9 57 -54.5 81t-102.5 24q-82 0 -123.5 -42t-41.5 -127v-503h-320v140h120v320h-120v140h129
q28 114 126.5 161t220.5 47q160 0 258.5 -75.5t98.5 -194.5v-66q-130 3 -184 -12.5t-54 -55.5q0 -24 31.5 -37t123.5 -28q108 -17 154 -55.5t46 -113.5q0 -81 -69.5 -128.5t-202.5 -47.5z" />
    <glyph glyph-name="ae" unicode="&#xe6;" 
d="M999 152q-33 -97 -97 -129.5t-163 -32.5q-66 0 -116 22.5t-78 67.5h-31q-29 -37 -80 -63.5t-124 -26.5q-81 0 -145.5 39.5t-64.5 126.5q0 92 68 136.5t187 44.5h105v48q0 54 -18.5 72.5t-53.5 18.5q-36 0 -56 -17t-36 -65l-181 25q22 104 81 147.5t179 43.5q66 0 115 -16
t78 -53q34 35 82.5 52t105.5 17q104 0 174 -57t70 -176v-117h-340v-54q0 -42 16.5 -66.5t58.5 -24.5q35 0 58.5 14.5t38.5 48.5zM660 399v-39h150v30q0 56 -15 78t-60 22t-60 -20.5t-15 -70.5zM460 139v98h-90q-40 0 -60 -15t-20 -53q0 -29 15 -44t48 -15q28 0 55 8.5
t52 20.5z" />
    <glyph glyph-name="aeacute" unicode="&#x1fd;" 
d="M100 0zM416 700l106 200h250l-225 -200h-131zM999 152q-33 -97 -97 -129.5t-163 -32.5q-66 0 -116 22.5t-78 67.5h-31q-29 -37 -80 -63.5t-124 -26.5q-81 0 -145.5 39.5t-64.5 126.5q0 92 68 136.5t187 44.5h105v48q0 54 -18.5 72.5t-53.5 18.5q-36 0 -56 -17t-36 -65
l-181 25q22 104 81 147.5t179 43.5q66 0 115 -16t78 -53q34 35 82.5 52t105.5 17q104 0 174 -57t70 -176v-117h-340v-54q0 -42 16.5 -66.5t58.5 -24.5q35 0 58.5 14.5t38.5 48.5zM660 399v-39h150v30q0 56 -15 78t-60 22t-60 -20.5t-15 -70.5zM460 139v98h-90q-40 0 -60 -15
t-20 -53q0 -29 15 -44t48 -15q28 0 55 8.5t52 20.5z" />
    <glyph glyph-name="eth" unicode="&#xf0;" horiz-adv-x="800" 
d="M400 -10q-134 0 -217 59t-83 181v52q0 100 63.5 159t164.5 59q63 0 103 -22t56 -52h21q-6 62 -30 104.5t-67 71.5l-161 -72v100l52 23q-28 10 -61.5 19.5t-71.5 19.5l126 129q60 -16 111.5 -35.5t92.5 -43.5l151 68v-100l-66 -30q60 -56 88 -133.5t28 -179.5v-131
q0 -128 -83 -187t-217 -59zM401 130q54 0 76.5 21.5t22.5 66.5v63q0 40 -22.5 59t-76.5 19t-76.5 -19t-22.5 -59v-63q0 -45 22.5 -66.5t76.5 -21.5z" />
    <glyph glyph-name="oslash" unicode="&#xf8;" horiz-adv-x="800" 
d="M280 232q0 -21 3 -37.5t9 -29.5l156 310q-10 2 -22.5 3.5t-25.5 1.5q-67 0 -93.5 -28.5t-26.5 -79.5v-140zM400 120q67 0 93.5 26t26.5 86v143q0 18 -3 33t-10 27l-155 -311q10 -2 22.5 -3t25.5 -1zM400 -10q-24 0 -47 2t-44 6l-49 -98h-120l66 133q-49 27 -77.5 73
t-28.5 111v162q0 117 87 174t214 57q24 0 46.5 -2t43.5 -6l49 98h120l-67 -133q49 -28 78 -75t29 -113v-162q0 -116 -86.5 -171.5t-213.5 -55.5z" />
    <glyph glyph-name="oslashacute" unicode="&#x1ff;" horiz-adv-x="800" 
d="M100 0zM280 232q0 -21 3 -37.5t9 -29.5l156 310q-10 2 -22.5 3.5t-25.5 1.5q-67 0 -93.5 -28.5t-26.5 -79.5v-140zM400 120q67 0 93.5 26t26.5 86v143q0 18 -3 33t-10 27l-155 -311q10 -2 22.5 -3t25.5 -1zM400 -10q-24 0 -47 2t-44 6l-49 -98h-120l66 133
q-49 27 -77.5 73t-28.5 111v162q0 117 87 174t214 57q24 0 46.5 -2t43.5 -6l49 98h120l-67 -133q49 -28 78 -75t29 -113v-162q0 -116 -86.5 -171.5t-213.5 -55.5zM266 700l106 200h250l-225 -200h-131z" />
    <glyph glyph-name="thorn" unicode="&#xfe;" horiz-adv-x="900" 
d="M504 149q46 0 71 20t25 67v135q0 46 -22 67.5t-58 21.5q-31 0 -60 -12.5t-60 -37.5v-235q26 -13 49.5 -19.5t54.5 -6.5zM540 -60v-140h-460v140h120v720h-120v140h320v-310h30q22 55 73.5 87.5t117.5 32.5q82 0 130.5 -59.5t48.5 -160.5v-155q0 -103 -69.5 -164
t-188.5 -61q-40 0 -76 5.5t-66 17.5v-93h140z" />
    <glyph glyph-name="dcroat" unicode="&#x111;" horiz-adv-x="900" 
d="M380 140q31 0 60 12.5t60 37.5v181q-26 13 -49.5 19.5t-54.5 6.5q-46 0 -71 -20t-25 -67v-81q0 -46 22 -67.5t58 -21.5zM470 110q-22 -55 -73.5 -87.5t-117.5 -32.5q-82 0 -130.5 60t-48.5 161v100q0 103 69.5 164t188.5 61q40 0 76 -5.5t66 -17.5v87h-170v100h170v100
h200v-100h120v-100h-120v-460h120v-140h-320v110h-30z" />
    <glyph glyph-name="hbar" unicode="&#x127;" horiz-adv-x="1000" 
d="M495 140v-140h-415v140h120v460h-120v100h120v100h200v-100h170v-100h-170v-180h30q24 57 72 88.5t115 31.5q87 0 135 -56.5t48 -155.5v-188h120v-140h-320v304q0 42 -18.5 64t-50.5 22t-65 -20.5t-66 -65.5v-164h95z" />
    <glyph glyph-name="dotlessi" unicode="&#x131;" horiz-adv-x="800" 
d="M100 0v140h200v320h-200v140h400v-460h200v-140h-600z" />
    <glyph glyph-name="ij" unicode="&#x133;" horiz-adv-x="1400" 
d="M100 0zM400 690q-57 0 -92.5 17t-35.5 59v15q0 43 35.5 61t92.5 18t92.5 -18t35.5 -61v-15q0 -42 -36 -59t-92 -17zM100 0v140h200v320h-200v140h400v-460h200v-140h-600zM988 -210q-37 0 -74.5 6t-72.5 17l20 126q29 -9 54 -14t47 -5q41 0 64.5 22t23.5 73v445h-169v140
h369v-602q0 -110 -80.5 -159t-181.5 -49zM1150 690q-57 0 -92.5 17t-35.5 59v15q0 43 35.5 61t92.5 18t92.5 -18t35.5 -61v-15q0 -42 -36 -59t-92 -17z" />
    <glyph glyph-name="kgreenlandic" unicode="&#x138;" horiz-adv-x="900" 
d="M80 0zM400 230v-230h-320v140h120v320h-120v140h320v-230h64l146 230h240v-140h-122l-86 -128l126 -192h92v-140h-220l-159 230h-81z" />
    <glyph glyph-name="ldot" unicode="&#x140;" horiz-adv-x="1000" 
d="M100 0zM865 330q-57 0 -92.5 17t-35.5 59v15q0 43 35.5 61t92.5 18t92.5 -18t35.5 -61v-15q0 -42 -36 -59t-92 -17zM100 0v140h200v520h-200v140h400v-660h200v-140h-600z" />
    <glyph glyph-name="lslash" unicode="&#x142;" horiz-adv-x="800" 
d="M100 0v140h200v177l-140 -37v120l140 37v223h-200v140h400v-310l110 30v-120l-110 -30v-230h200v-140h-600z" />
    <glyph glyph-name="napostrophe" unicode="&#x149;" horiz-adv-x="1000" 
d="M0 0zM-34 700l106 200h250l-225 -200h-131zM490 140v-140h-410v140h120v320h-120v140h320v-110h30q28 65 80 92.5t106 27.5q78 0 131 -50.5t53 -160.5v-259h120v-140h-320v374q0 42 -18.5 64t-50.5 22q-33 0 -68 -23t-63 -63v-234h90z" />
    <glyph glyph-name="eng" unicode="&#x14b;" horiz-adv-x="900" 
d="M800 -2q0 -110 -77 -159t-175 -49q-34 0 -69 6.5t-68 16.5l20 126q26 -8 49 -13.5t42 -5.5q37 0 57.5 22t20.5 73v359q0 42 -18.5 64t-50.5 22q-33 0 -68 -23t-63 -63v-234h85v-140h-405v140h120v320h-120v140h320v-110h30q24 57 73.5 88.5t112.5 31.5q87 0 135.5 -55.5
t48.5 -155.5v-401z" />
    <glyph glyph-name="oe" unicode="&#x153;" 
d="M1009 152q-33 -97 -93.5 -129.5t-166.5 -32.5q-60 0 -111.5 17.5t-86.5 52.5q-33 -34 -83 -52t-113 -18q-118 0 -186.5 61.5t-68.5 165.5v162q0 107 69 169t187 62q62 0 111.5 -18t82.5 -52q34 35 85 52.5t111 17.5q109 0 181.5 -57t72.5 -176v-117h-350v-54
q0 -42 19 -66.5t66 -24.5q37 0 62.5 9.5t44.5 53.5zM650 399v-39h150v30q0 56 -15 78t-60 22t-60 -20.5t-15 -70.5zM375 130q42 0 58.5 24t16.5 78v143q0 46 -16.5 70.5t-58.5 24.5t-58.5 -25.5t-16.5 -72.5v-140q0 -54 16.5 -78t58.5 -24z" />
    <glyph glyph-name="tbar" unicode="&#x167;" horiz-adv-x="700" 
d="M460 -11q-122 0 -191 58t-69 161v42h-120v120h120v90h-120v140h120v200h200v-200h200v-140h-200v-90h200v-120h-200v-14q0 -57 24.5 -81.5t66.5 -24.5q19 0 44.5 5t53.5 15l20 -136q-18 -8 -58.5 -16.5t-90.5 -8.5z" />
    <glyph glyph-name="longs" unicode="&#x17f;" horiz-adv-x="600" 
d="M80 0v140h120v320h-120v140h120v31q0 110 80.5 159t181.5 49q37 0 74.5 -6t72.5 -17l-20 -126q-29 9 -54 14t-47 5q-41 0 -64.5 -22t-23.5 -73v-474h150v-140h-470z" />
    <glyph glyph-name="dotlessj" unicode="&#xf6be;" horiz-adv-x="600" 
d="M188 -210q-37 0 -74.5 6t-72.5 17l20 126q29 -9 54 -14t47 -5q41 0 64.5 22t23.5 73v445h-169v140h369v-602q0 -110 -80.5 -159t-181.5 -49z" />
    <glyph glyph-name="dotlessj" unicode="&#x237;" horiz-adv-x="600" 
d="M188 -210q-37 0 -74.5 6t-72.5 17l20 126q29 -9 54 -14t47 -5q41 0 64.5 22t23.5 73v445h-169v140h369v-602q0 -110 -80.5 -159t-181.5 -49z" />
    <glyph glyph-name="alpha" unicode="&#x3b1;" horiz-adv-x="900" 
d="M380 141q31 0 60 12.5t60 37.5v221q-31 25 -60 37.5t-60 12.5q-36 0 -58 -21.5t-22 -67.5v-151q0 -46 22 -63.5t58 -17.5zM570 131h-30q-26 -63 -91.5 -101.5t-149.5 -38.5q-90 0 -144.5 54.5t-54.5 145.5v199q0 101 54.5 161.5t144.5 60.5q56 0 102.5 -33t68.5 -87h30
v109h200v-391q0 -49 25.5 -64t94.5 -7v-134q-103 -24 -166 7.5t-84 118.5z" />
    <glyph glyph-name="alphatonos" unicode="&#x3ac;" horiz-adv-x="900" 
d="M100 0zM380 141q31 0 60 12.5t60 37.5v221q-31 25 -60 37.5t-60 12.5q-36 0 -58 -21.5t-22 -67.5v-151q0 -46 22 -63.5t58 -17.5zM570 131h-30q-26 -63 -91.5 -101.5t-149.5 -38.5q-90 0 -144.5 54.5t-54.5 145.5v199q0 101 54.5 161.5t144.5 60.5q56 0 102.5 -33
t68.5 -87h30v109h200v-391q0 -49 25.5 -64t94.5 -7v-134q-103 -24 -166 7.5t-84 118.5zM326 700l46 200h240l-165 -200h-121z" />
    <glyph glyph-name="beta" unicode="&#x3b2;" horiz-adv-x="800" 
d="M400 138q49 0 73.5 26t24.5 77v22q0 54 -27 81.5t-81 27.5h-81v108h75q43 0 64.5 19t21.5 58v18q0 43 -21.5 64t-64.5 21t-63.5 -26t-20.5 -78v-390q23 -14 48 -21t52 -7zM442 -10q-40 0 -75.5 5t-66.5 15v-210h-200v773q0 124 82 180.5t202 56.5q131 0 207.5 -53
t76.5 -144v-16q0 -63 -43 -99.5t-116 -49.5v-29q86 -9 137.5 -57t53.5 -122v-31q0 -101 -69.5 -160t-188.5 -59z" />
    <glyph glyph-name="gamma" unicode="&#x3b3;" horiz-adv-x="700" 
d="M470 -200h-240l20 220l-226 580h200l129 -392l122 392h200l-225 -580z" />
    <glyph glyph-name="delta" unicode="&#x3b4;" horiz-adv-x="800" 
d="M400 -10q-134 0 -217 55.5t-83 171.5v92q0 55 32 95.5t102 69.5q-56 25 -80 58.5t-24 82.5q0 96 67.5 140.5t199.5 44.5h205v-140h-205q-37 0 -55.5 -9t-18.5 -36q0 -22 38 -42.5t151 -52.5q94 -27 141 -82t47 -139v-82q0 -116 -83 -171.5t-217 -55.5zM400 130
q50 0 75 20.5t25 66.5v82q0 51 -28.5 79t-98.5 51q-38 -21 -55.5 -50t-17.5 -70v-92q0 -46 25.5 -66.5t74.5 -20.5z" />
    <glyph glyph-name="epsilon" unicode="&#x3b5;" horiz-adv-x="800" 
d="M411 -10q-153 0 -232 40t-79 125v20q0 53 37.5 82.5t118.5 36.5v22q-70 6 -104 33t-34 78v20q0 88 80 126t204 37q136 -1 213.5 -47.5t84.5 -152.5l-183 -8q-7 46 -37 64t-75 18q-49 0 -71.5 -13t-22.5 -41v-14q0 -30 26 -41t78 -11h48v-110h-48q-70 0 -95 -14t-25 -46
v-10q0 -31 23 -49t90 -18q69 0 95 24t32 68l183 -7q-11 -107 -79 -159.5t-228 -52.5z" />
    <glyph glyph-name="epsilontonos" unicode="&#x3ad;" horiz-adv-x="800" 
d="M100 0zM411 -10q-153 0 -232 40t-79 125v20q0 53 37.5 82.5t118.5 36.5v22q-70 6 -104 33t-34 78v20q0 88 80 126t204 37q136 -1 213.5 -47.5t84.5 -152.5l-183 -8q-7 46 -37 64t-75 18q-49 0 -71.5 -13t-22.5 -41v-14q0 -30 26 -41t78 -11h48v-110h-48q-70 0 -95 -14
t-25 -46v-10q0 -31 23 -49t90 -18q69 0 95 24t32 68l183 -7q-11 -107 -79 -159.5t-228 -52.5zM326 700l46 200h240l-165 -200h-121z" />
    <glyph glyph-name="zeta" unicode="&#x3b6;" horiz-adv-x="800" 
d="M450 -200h-150v130h145q37 0 58.5 10.5t21.5 44.5q0 36 -21.5 48t-58.5 12h-65q-160 0 -220 62t-60 150q0 89 36.5 142t113.5 134l80 83l-7 19q-93 -27 -166.5 12t-124.5 141l99 69q54 -82 123.5 -104.5t191.5 4.5l211 75l24 -176l-184 -23l-99 -139q-46 -64 -72 -107.5
t-26 -109.5q0 -57 17.5 -79.5t62.5 -22.5h94q107 0 166.5 -45t59.5 -137q0 -97 -67.5 -145t-182.5 -48z" />
    <glyph glyph-name="eta" unicode="&#x3b7;" horiz-adv-x="800" 
d="M500 -200v574q0 42 -18.5 64t-50.5 22q-33 0 -68 -23t-63 -63v-374h-200v600h200v-110h30q23 54 76 87t117 33q80 0 128.5 -50t48.5 -131v-629h-200z" />
    <glyph glyph-name="etatonos" unicode="&#x3ae;" horiz-adv-x="800" 
d="M100 0zM336 700l46 200h240l-165 -200h-121zM500 -200v574q0 42 -18.5 64t-50.5 22q-33 0 -68 -23t-63 -63v-374h-200v600h200v-110h30q23 54 76 87t117 33q80 0 128.5 -50t48.5 -131v-629h-200z" />
    <glyph glyph-name="theta" unicode="&#x3b8;" horiz-adv-x="800" 
d="M400 -10q-127 0 -213.5 55.5t-86.5 171.5v362q0 117 87 174t214 57t213 -57t86 -174v-362q0 -116 -86.5 -171.5t-213.5 -55.5zM290 572v-107h220v110q0 46 -24 70.5t-86 24.5q-61 0 -85.5 -25.5t-24.5 -72.5zM400 130q62 0 86 24t24 78v113h-220v-113q0 -54 24.5 -78
t85.5 -24z" />
    <glyph glyph-name="iota" unicode="&#x3b9;" horiz-adv-x="600" 
d="M343 -13q-99 0 -146 59.5t-47 143.5v410h200v-372q0 -42 17 -65.5t54 -24.5q16 -1 38 5.5t50 16.5l30 -136q-57 -21 -102 -29t-94 -8z" />
    <glyph glyph-name="iotadieresistonos" unicode="&#x390;" horiz-adv-x="600" 
d="M0 0zM171 700l46 200h170l-105 -200h-111zM35 690q-39 0 -63.5 17t-24.5 59v15q0 43 24.5 61t63.5 18q40 0 64 -18t24 -61v-15q0 -42 -25 -59t-63 -17zM485 690q-39 0 -63.5 17t-24.5 59v15q0 43 24.5 61t63.5 18q40 0 64 -18t24 -61v-15q0 -42 -25 -59t-63 -17zM343 -13
q-99 0 -146 59.5t-47 143.5v410h200v-372q0 -42 17 -65.5t54 -24.5q16 -1 38 5.5t50 16.5l30 -136q-57 -21 -102 -29t-94 -8z" />
    <glyph glyph-name="iotatonos" unicode="&#x3af;" horiz-adv-x="600" 
d="M150 0zM181 700l46 200h240l-165 -200h-121zM343 -13q-99 0 -146 59.5t-47 143.5v410h200v-372q0 -42 17 -65.5t54 -24.5q16 -1 38 5.5t50 16.5l30 -136q-57 -21 -102 -29t-94 -8z" />
    <glyph glyph-name="iotadieresis" unicode="&#x3ca;" horiz-adv-x="600" 
d="M27 0zM343 -13q-99 0 -146 59.5t-47 143.5v410h200v-372q0 -42 17 -65.5t54 -24.5q16 -1 38 5.5t50 16.5l30 -136q-57 -21 -102 -29t-94 -8zM125 690q-43 0 -70.5 17t-27.5 59v15q0 43 27.5 61t70.5 18q44 0 71 -18t27 -61v-15q0 -42 -27.5 -59t-70.5 -17zM385 690
q-43 0 -70.5 17t-27.5 59v15q0 43 27.5 61t70.5 18q44 0 71 -18t27 -61v-15q0 -42 -27.5 -59t-70.5 -17z" />
    <glyph glyph-name="kappa" unicode="&#x3ba;" horiz-adv-x="700" 
d="M300 255v-255h-200v600h200v-215h37l143 215h205l-183 -261l180 -339h-212l-133 255h-37z" />
    <glyph glyph-name="lambda" unicode="&#x3bb;" horiz-adv-x="700" 
d="M480 -2l-133 448l-127 -448h-196l163 530h136l-10 32q-16 53 -51.5 83.5t-89.5 30.5q-34 0 -62 -3.5t-61 -10.5l-12 138q46 6 85 9t73 3q112 0 181.5 -44.5t98.5 -136.5l200 -631h-195z" />
    <glyph glyph-name="mu" unicode="&#x3bc;" horiz-adv-x="900" 
d="M300 20l10 -220h-220l10 220v580h200v-374q0 -43 25.5 -62t62.5 -19q36 0 63 10t49 35v410h200v-390q0 -54 31.5 -66t88.5 -5v-134q-81 -19 -143 -5t-93 80h-30q-21 -37 -57 -63.5t-96 -26.5q-30 0 -56 13.5t-45 40.5v-24z" />
    <glyph glyph-name="nu" unicode="&#x3bd;" horiz-adv-x="700" 
d="M452 0h-205l-223 600h200l147 -423q46 101 72.5 217t33.5 206h198q-19 -169 -80 -320t-143 -280z" />
    <glyph glyph-name="xi" unicode="&#x3be;" horiz-adv-x="800" 
d="M700 -7q0 -97 -67.5 -145t-182.5 -48h-150v130h145q37 0 58.5 10.5t21.5 44.5q0 36 -21.5 48t-58.5 12h-105q-110 0 -175 49t-65 133v17q0 57 44 100.5t133 50.5v23q-57 0 -87 28.5t-30 65.5q0 33 29 64.5t93 39.5v23q-94 -4 -155.5 35.5t-94.5 113.5l99 69
q39 -60 103 -96t212 -4l211 75l24 -176l-220 -28l-39 -16q-37 -17 -49.5 -43t-12.5 -43q0 -31 17 -43.5t42 -12.5h191v-130h-189q-64 0 -92.5 -23.5t-28.5 -57.5v-17q0 -30 28.5 -48.5t91.5 -18.5h54q107 0 166.5 -45t59.5 -137z" />
    <glyph glyph-name="omicron" unicode="&#x3bf;" horiz-adv-x="800" 
d="M100 0zM400 -10q-127 0 -213.5 58t-86.5 174v152q0 117 87 176.5t214 59.5t213 -59.5t86 -176.5v-152q0 -116 -86.5 -174t-213.5 -58zM400 130q56 0 78 24t22 78v143q0 46 -22 70.5t-78 24.5t-78 -25.5t-22 -72.5v-140q0 -54 22 -78t78 -24z" />
    <glyph glyph-name="omicrontonos" unicode="&#x3cc;" horiz-adv-x="800" 
d="M100 0zM316 700l46 200h240l-165 -200h-121zM400 -10q-127 0 -213.5 58t-86.5 174v152q0 117 87 176.5t214 59.5t213 -59.5t86 -176.5v-152q0 -116 -86.5 -174t-213.5 -58zM400 130q56 0 78 24t22 78v143q0 46 -22 70.5t-78 24.5t-78 -25.5t-22 -72.5v-140q0 -54 22 -78
t78 -24z" />
    <glyph glyph-name="pi" unicode="&#x3c0;" horiz-adv-x="900" 
d="M810 600v-140h-100v-250q0 -49 25.5 -64t94.5 -7v-134q-154 -31 -237 13.5t-83 159.5v282h-160v-460h-200v460h-100v140h760z" />
    <glyph glyph-name="rho" unicode="&#x3c1;" horiz-adv-x="800" 
d="M420 140q36 0 58 21.5t22 67.5v151q0 49 -25 69.5t-71 20.5q-50 0 -77 -20.5t-27 -69.5v-190q31 -25 60 -37.5t60 -12.5zM100 -200v581q0 110 76.5 169.5t216.5 59.5q147 0 227 -59.5t80 -169.5v-181q0 -84 -53 -147t-156 -63q-66 0 -108 33.5t-53 86.5h-30v-310h-200z
" />
    <glyph glyph-name="sigma1" unicode="&#x3c2;" horiz-adv-x="800" 
d="M300 -200v140h135q45 0 62.5 11t17.5 39q0 31 -17.5 43t-62.5 12h-88q-104 0 -175.5 61t-71.5 176v95q0 117 82.5 175t220.5 58q140 0 206.5 -59.5t81.5 -166.5l-193 -16q-5 58 -26.5 79.5t-74.5 21.5q-56 0 -76.5 -24t-20.5 -82v-71q0 -58 21 -82.5t78 -24.5h105
q94 0 145 -48t51 -137q0 -97 -75 -148.5t-189 -51.5h-136z" />
    <glyph glyph-name="sigma" unicode="&#x3c3;" horiz-adv-x="900" 
d="M400 130q56 0 78 24t22 78v143q0 46 -22 70.5t-78 24.5t-78 -25.5t-22 -72.5v-140q0 -54 22 -78t78 -24zM400 -10q-127 0 -213.5 55.5t-86.5 171.5v162q0 112 87 166.5t214 54.5h449v-150l-191 10q19 -25 30 -58t11 -73v-112q0 -116 -86.5 -171.5t-213.5 -55.5z" />
    <glyph glyph-name="tau" unicode="&#x3c4;" horiz-adv-x="700" 
d="M570 5q-153 -31 -236.5 14.5t-83.5 158.5v272h-200v150h610v-150h-210v-240q0 -46 27 -62t93 -9v-134z" />
    <glyph glyph-name="upsilon" unicode="&#x3c5;" horiz-adv-x="800" 
d="M401 -10q-127 0 -214 64.5t-87 196.5v349h200v-342q0 -57 22 -87.5t78 -30.5t78 30t22 85v345h200v-349q0 -132 -86 -196.5t-213 -64.5z" />
    <glyph glyph-name="upsilondieresistonos" unicode="&#x3b0;" horiz-adv-x="800" 
d="M87 0zM401 -10q-127 0 -214 64.5t-87 196.5v349h200v-342q0 -57 22 -87.5t78 -30.5t78 30t22 85v345h200v-349q0 -132 -86 -196.5t-213 -64.5zM311 700l46 200h170l-105 -200h-111zM175 690q-39 0 -63.5 17t-24.5 59v15q0 43 24.5 61t63.5 18q40 0 64 -18t24 -61v-15
q0 -42 -25 -59t-63 -17zM625 690q-39 0 -63.5 17t-24.5 59v15q0 43 24.5 61t63.5 18q40 0 64 -18t24 -61v-15q0 -42 -25 -59t-63 -17z" />
    <glyph glyph-name="upsilondieresis" unicode="&#x3cb;" horiz-adv-x="800" 
d="M100 0zM401 -10q-127 0 -214 64.5t-87 196.5v349h200v-342q0 -57 22 -87.5t78 -30.5t78 30t22 85v345h200v-349q0 -132 -86 -196.5t-213 -64.5zM270 690q-43 0 -70.5 17t-27.5 59v15q0 43 27.5 61t70.5 18q44 0 71 -18t27 -61v-15q0 -42 -27.5 -59t-70.5 -17zM530 690
q-43 0 -70.5 17t-27.5 59v15q0 43 27.5 61t70.5 18q44 0 71 -18t27 -61v-15q0 -42 -27.5 -59t-70.5 -17z" />
    <glyph glyph-name="upsilontonos" unicode="&#x3cd;" horiz-adv-x="800" 
d="M100 0zM401 -10q-127 0 -214 64.5t-87 196.5v349h200v-342q0 -57 22 -87.5t78 -30.5t78 30t22 85v345h200v-349q0 -132 -86 -196.5t-213 -64.5zM326 700l46 200h240l-165 -200h-121z" />
    <glyph glyph-name="phi" unicode="&#x3c6;" 
d="M650 -200h-200v195q-177 19 -263.5 107t-86.5 225v42q0 76 17.5 137.5t54.5 110.5l195 -32q-30 -42 -48.5 -96t-18.5 -120v-42q0 -81 34.5 -124t115.5 -56v453h134q174 0 295 -72.5t121 -218.5v-32q0 -122 -95 -194t-255 -88v-195zM650 450v-305q81 10 115.5 41.5
t34.5 90.5v32q0 73 -37.5 107t-112.5 34z" />
    <glyph glyph-name="chi" unicode="&#x3c7;" horiz-adv-x="700" 
d="M462 -200l-122 234l-104 -234h-200l211 411l-204 389h200l114 -217l97 217h200l-204 -394l212 -406h-200z" />
    <glyph glyph-name="psi" unicode="&#x3c8;" 
d="M650 -200h-200v184q-182 16 -266 88.5t-84 184.5v343h200v-313q0 -63 34.5 -97.5t115.5 -44.5v455h200v-455q81 10 115.5 44.5t34.5 97.5v313h200v-343q0 -112 -84 -184.5t-266 -88.5v-184z" />
    <glyph glyph-name="omega" unicode="&#x3c9;" 
d="M335 -10q-105 0 -170 75.5t-65 221.5v72q0 79 20 151t42 107l195 -32q-16 -30 -36.5 -93t-20.5 -133v-72q0 -73 19 -110t56 -37q38 0 56.5 18t18.5 59v283h200v-283q0 -41 19 -59t56 -18q38 0 56.5 37t18.5 110v72q0 70 -20.5 133t-36.5 93l195 32q22 -35 42 -107
t20 -151v-72q0 -146 -65 -221.5t-170 -75.5q-70 0 -122 31.5t-80 103.5h-30q-27 -73 -78 -104t-120 -31z" />
    <glyph glyph-name="omegatonos" unicode="&#x3ce;" 
d="M100 0zM466 700l46 200h240l-165 -200h-121zM335 -10q-105 0 -170 75.5t-65 221.5v72q0 79 20 151t42 107l195 -32q-16 -30 -36.5 -93t-20.5 -133v-72q0 -73 19 -110t56 -37q38 0 56.5 18t18.5 59v283h200v-283q0 -41 19 -59t56 -18q38 0 56.5 37t18.5 110v72
q0 70 -20.5 133t-36.5 93l195 32q22 -35 42 -107t20 -151v-72q0 -146 -65 -221.5t-170 -75.5q-70 0 -122 31.5t-80 103.5h-30q-27 -73 -78 -104t-120 -31z" />
    <glyph glyph-name="acyrillic" horiz-adv-x="900" 
d="M110 0zM378 110q33 0 67.5 7.5t64.5 21.5v98h-143q-31 0 -49 -13.5t-18 -49.5q0 -33 19.5 -48.5t58.5 -15.5zM330 -10q-103 0 -161.5 46.5t-58.5 128.5q0 85 60 128.5t165 43.5h175v58q0 46 -27.5 66t-78.5 20t-72.5 -18t-35.5 -69l-171 25q22 104 97 147.5t198 43.5
q140 0 215 -49t75 -156v-195q0 -49 25.5 -64t94.5 -7v-134q-100 -23 -158.5 -2t-77.5 87h-30q-27 -45 -91 -72.5t-143 -27.5z" />
    <glyph glyph-name="becyrillic" unicode="&#x431;" horiz-adv-x="800" 
d="M400 -10q-134 0 -217 63.5t-83 202.5v175q0 173 72.5 262t225.5 102l249 21l15 -155l-233 -21q-68 -7 -101.5 -40.5t-35.5 -98.5l-2 -65h23q27 52 72.5 78t106.5 26q93 0 150.5 -54t57.5 -144v-112q0 -121 -83 -180.5t-217 -59.5zM399 130q54 0 76.5 22t22.5 66v103
q0 40 -22.5 59t-76.5 19t-76.5 -19t-22.5 -59v-103q0 -44 22.5 -66t76.5 -22z" />
    <glyph glyph-name="vecyrillic" unicode="&#x432;" horiz-adv-x="900" 
d="M80 0v140h120v320h-120v140h445q141 0 208 -35.5t67 -109.5v-24q0 -51 -37 -79.5t-101 -35.5v-22q78 -7 117 -41.5t39 -82.5v-20q0 -77 -71.5 -113.5t-221.5 -36.5h-445zM390 359h123q54 0 75.5 12t21.5 43v14q0 31 -20.5 43t-74.5 12h-125v-124zM390 127h125
q63 0 88 13.5t25 49.5v10q0 34 -25 46.5t-90 12.5h-123v-132z" />
    <glyph glyph-name="gecyrillic" unicode="&#x433;" horiz-adv-x="800" 
d="M80 0v140h120v320h-120v140h670v-270h-170v130h-180v-320h200v-140h-520z" />
    <glyph glyph-name="gjecyrillic" unicode="&#x453;" horiz-adv-x="800" 
d="M80 0zM251 700l106 200h250l-225 -200h-131zM80 0v140h120v320h-120v140h670v-270h-170v130h-180v-320h200v-140h-520z" />
    <glyph glyph-name="decyrillic" unicode="&#x434;" horiz-adv-x="950" 
d="M334 160v-20h226v320h-173l-1 -166q0 -54 -16.5 -86t-35.5 -48zM255 0v-150h-195v290h85q25 17 40 51.5t16 98.5l2 170h-103v140h770v-140h-120v-320h120v-290h-195v150h-420z" />
    <glyph glyph-name="iecyrillic" unicode="&#x435;" horiz-adv-x="800" 
d="M100 0zM715 142q-40 -87 -108.5 -119.5t-202.5 -32.5q-142 0 -223 64.5t-81 177.5v141q0 110 80.5 173.5t220.5 63.5t219.5 -63.5t79.5 -174.5v-112h-400v-28q0 -54 27 -85.5t93 -31.5q58 0 88 17.5t43 53.5zM300 372v-12h200v12q0 65 -22.5 91.5t-77.5 26.5t-77.5 -26.5
t-22.5 -91.5z" />
    <glyph glyph-name="iegravecyrillic" unicode="&#x450;" horiz-adv-x="800" 
d="M100 0zM715 142q-40 -87 -108.5 -119.5t-202.5 -32.5q-142 0 -223 64.5t-81 177.5v141q0 110 80.5 173.5t220.5 63.5t219.5 -63.5t79.5 -174.5v-112h-400v-28q0 -54 27 -85.5t93 -31.5q58 0 88 17.5t43 53.5zM300 372v-12h200v12q0 65 -22.5 91.5t-77.5 26.5t-77.5 -26.5
t-22.5 -91.5zM386 700l-225 200h250l106 -200h-131z" />
    <glyph glyph-name="iocyrillic" unicode="&#x451;" horiz-adv-x="800" 
d="M100 0zM715 142q-40 -87 -108.5 -119.5t-202.5 -32.5q-142 0 -223 64.5t-81 177.5v141q0 110 80.5 173.5t220.5 63.5t219.5 -63.5t79.5 -174.5v-112h-400v-28q0 -54 27 -85.5t93 -31.5q58 0 88 17.5t43 53.5zM300 372v-12h200v12q0 65 -22.5 91.5t-77.5 26.5t-77.5 -26.5
t-22.5 -91.5zM270 690q-43 0 -70.5 17t-27.5 59v15q0 43 27.5 61t70.5 18q44 0 71 -18t27 -61v-15q0 -42 -27.5 -59t-70.5 -17zM530 690q-43 0 -70.5 17t-27.5 59v15q0 43 27.5 61t70.5 18q44 0 71 -18t27 -61v-15q0 -42 -27.5 -59t-70.5 -17z" />
    <glyph glyph-name="zhecyrillic" unicode="&#x436;" 
d="M357 236l-137 -236h-190v140h91l99 176l-68 144h-102v140h210l108 -235h92v115h-60v120h300v-120h-60v-115h92l108 235h210v-140h-106l-68 -134l103 -186h91v-140h-190l-137 236h-103v-116h60v-120h-300v120h60v116h-103z" />
    <glyph glyph-name="zecyrillic" unicode="&#x437;" horiz-adv-x="800" 
d="M407 -10q-160 0 -228 52.5t-79 159.5l183 7q6 -44 32 -68t95 -24q67 0 90 18t23 49v10q0 32 -25 46t-95 14h-48v110h48q52 0 78 11t26 41v14q0 28 -22.5 41t-71.5 13q-45 0 -75 -18t-37 -64l-183 8q7 106 84.5 152.5t213.5 47.5q124 1 204 -37t80 -126v-20q0 -51 -34 -78
t-104 -33v-22q81 -7 118.5 -36.5t37.5 -82.5v-20q0 -85 -79 -125t-232 -40z" />
    <glyph glyph-name="iicyrillic" unicode="&#x438;" horiz-adv-x="1000" 
d="M630 0v373l-227 -373h-323v140h120v320h-120v140h290v-400l243 400h307v-140h-120v-320h120v-140h-290z" />
    <glyph glyph-name="iishortcyrillic" unicode="&#x439;" horiz-adv-x="1000" 
d="M80 0zM630 0v373l-227 -373h-323v140h120v320h-120v140h290v-400l243 400h307v-140h-120v-320h120v-140h-290zM500 693q-105 0 -184.5 51.5t-77.5 178.5l170 10q-1 -65 18.5 -93t73.5 -28t73.5 28t18.5 93l170 -10q2 -127 -77.5 -178.5t-184.5 -51.5z" />
    <glyph glyph-name="igravecyrillic" unicode="&#x45d;" horiz-adv-x="1000" 
d="M80 0zM481 700l-225 200h250l106 -200h-131zM630 0v373l-227 -373h-323v140h120v320h-120v140h290v-400l243 400h307v-140h-120v-320h120v-140h-290z" />
    <glyph glyph-name="kacyrillic" unicode="&#x43a;" horiz-adv-x="900" 
d="M400 230v-230h-320v140h120v320h-120v140h320v-230h64l146 230h240v-140h-122l-86 -128l126 -192h92v-140h-220l-159 230h-81z" />
    <glyph glyph-name="kjecyrillic" unicode="&#x45c;" horiz-adv-x="900" 
d="M80 0zM379 700l106 200h250l-225 -200h-131zM400 230v-230h-320v140h120v320h-120v140h320v-230h64l146 230h240v-140h-122l-86 -128l126 -192h92v-140h-220l-159 230h-81z" />
    <glyph glyph-name="elcyrillic" unicode="&#x43b;" horiz-adv-x="1000" 
d="M435 237q-1 -126 -59 -188.5t-173 -62.5q-28 0 -59 4.5t-63 13.5l20 141q16 -4 33 -6.5t31 -2.5q40 0 58.5 27.5t19.5 85.5l2 211h-95v140h770v-140h-120v-320h120v-140h-410v140h90v320h-163z" />
    <glyph glyph-name="emcyrillic" unicode="&#x43c;" horiz-adv-x="1050" 
d="M470 130v-130h-390v140h120v320h-120v140h355l93 -238l92 238h350v-140h-120v-320h120v-140h-390v130h100v270l-82 -200h-146l-82 201v-271h100z" />
    <glyph glyph-name="encyrillic" unicode="&#x43d;" horiz-adv-x="1000" 
d="M80 0v140h120v320h-120v140h320v-230h200v90h-88v140h408v-140h-120v-320h120v-140h-320v250h-200v-110h88v-140h-408z" />
    <glyph glyph-name="ocyrillic" unicode="&#x43e;" horiz-adv-x="800" 
d="M100 0zM400 -10q-127 0 -213.5 58t-86.5 174v152q0 117 87 176.5t214 59.5t213 -59.5t86 -176.5v-152q0 -116 -86.5 -174t-213.5 -58zM400 130q56 0 78 24t22 78v143q0 46 -22 70.5t-78 24.5t-78 -25.5t-22 -72.5v-140q0 -54 22 -78t78 -24z" />
    <glyph glyph-name="pecyrillic" unicode="&#x43f;" horiz-adv-x="1000" 
d="M80 0v140h120v320h-120v140h840v-140h-120v-320h120v-140h-320v460h-200v-320h90v-140h-410z" />
    <glyph glyph-name="ercyrillic" unicode="&#x440;" horiz-adv-x="900" 
d="M80 0zM504 149q46 0 71 20t25 67v135q0 46 -22 67.5t-58 21.5q-31 0 -60 -12.5t-60 -37.5v-235q26 -13 49.5 -19.5t54.5 -6.5zM540 -60v-140h-460v140h120v520h-120v140h320v-110h30q23 57 73.5 88.5t117.5 31.5q82 0 130.5 -59.5t48.5 -160.5v-155q0 -106 -68 -165.5
t-190 -59.5q-40 0 -76 5.5t-66 17.5v-93h140z" />
    <glyph glyph-name="escyrillic" unicode="&#x441;" horiz-adv-x="800" 
d="M100 0zM404 -10q-151 0 -227.5 60.5t-76.5 171.5v153q0 117 80 176t223 59q146 0 219.5 -59.5t88.5 -166.5l-193 -16q-5 58 -29 79.5t-82 21.5q-62 0 -84.5 -25t-22.5 -72v-140q0 -54 23 -78t86 -24q65 0 85 18t24 64l193 -16q-7 -99 -74.5 -152.5t-232.5 -53.5z" />
    <glyph glyph-name="tecyrillic" unicode="&#x442;" horiz-adv-x="900" 
d="M220 0v150h140v310h-110v-160h-180v300h760v-300h-180v160h-110v-310h140v-150h-460z" />
    <glyph glyph-name="ucyrillic" unicode="&#x443;" horiz-adv-x="900" 
d="M50 0zM286 -212q-31 0 -68.5 3.5t-80.5 8.5l10 140q42 -7 74.5 -11.5t57.5 -4.5q58 0 86.5 25t48.5 79l3 7h-119l-158 425h-90v140h362v-140h-86l124 -338l129 338h-86v140h357v-140h-93l-179 -445q-42 -104 -104 -165.5t-188 -61.5z" />
    <glyph glyph-name="ushortcyrillic" unicode="&#x45e;" horiz-adv-x="900" 
d="M50 0zM286 -212q-31 0 -68.5 3.5t-80.5 8.5l10 140q42 -7 74.5 -11.5t57.5 -4.5q58 0 86.5 25t48.5 79l3 7h-119l-158 425h-90v140h362v-140h-86l124 -338l129 338h-86v140h357v-140h-93l-179 -445q-42 -104 -104 -165.5t-188 -61.5zM450 693q-105 0 -184.5 51.5
t-77.5 178.5l170 10q-1 -65 18.5 -93t73.5 -28t73.5 28t18.5 93l170 -10q2 -127 -77.5 -178.5t-184.5 -51.5z" />
    <glyph glyph-name="efcyrillic" unicode="&#x444;" 
d="M770 -70v-130h-440v130h120v80h-67q-136 0 -209.5 65t-73.5 184v82q0 119 73.5 184t209.5 65h67v80h-120v130h320v-210h67q136 0 209.5 -65t73.5 -184v-82q0 -119 -73.5 -184t-209.5 -65h-67v-80h120zM404 153h51v292h-51q-50 0 -77 -28.5t-27 -79.5v-76q0 -51 27 -79.5
t77 -28.5zM696 445h-51v-292h51q50 0 77 28.5t27 79.5v76q0 51 -27 79.5t-77 28.5z" />
    <glyph glyph-name="khacyrillic" unicode="&#x445;" horiz-adv-x="900" 
d="M80 0zM568 0l-146 187l-144 -187h-198v140h114l133 169l-117 151h-110v140h246l140 -179l127 179h197v-140h-108l-119 -163l123 -157h114v-140h-252z" />
    <glyph glyph-name="tsecyrillic" unicode="&#x446;" horiz-adv-x="1000" 
d="M80 0v140h120v320h-120v140h420v-140h-100v-320h200v460h320v-140h-120v-320h120v-290h-200v150h-640z" />
    <glyph glyph-name="checyrillic" unicode="&#x447;" horiz-adv-x="900" 
d="M330 0v140h170v90q-34 -10 -68.5 -15t-69.5 -5q-131 0 -196.5 53t-65.5 158v39h-80v140h280v-177q0 -37 25 -56t75 -19q29 0 54 5t46 15v92h-95v140h415v-140h-120v-320h120v-140h-490z" />
    <glyph glyph-name="shacyrillic" unicode="&#x448;" horiz-adv-x="1300" 
d="M1220 0h-1140v140h120v320h-120v140h310v-460h165v320h-70v140h260v-460h165v320h-70v140h380v-140h-120v-320h120v-140z" />
    <glyph glyph-name="shchacyrillic" unicode="&#x449;" horiz-adv-x="1300" 
d="M1220 -150h-180v150h-960v140h120v320h-120v140h310v-460h165v320h-70v140h260v-460h165v320h-70v140h380v-140h-120v-320h120v-290z" />
    <glyph glyph-name="hardsigncyrillic" unicode="&#x44a;" horiz-adv-x="1000" 
d="M662 0h-482v140h120v320h-110v-150h-170v290h600v-120h-120v-100h163q127 0 197 -47t70 -132v-30q0 -81 -70 -126t-198 -45zM500 140h130q50 0 75 12t25 41v13q0 30 -25 42t-75 12h-130v-120z" />
    <glyph glyph-name="yericyrillic" unicode="&#x44b;" horiz-adv-x="1300" 
d="M1220 0h-320v460h-120v140h440v-140h-120v-320h120v-140zM80 0v140h120v320h-120v140h440v-120h-120v-100h133q127 0 197 -47t70 -132v-30q0 -81 -70 -126t-198 -45h-452zM400 140h100q50 0 75 12t25 41v13q0 30 -25 42t-75 12h-100v-120z" />
    <glyph glyph-name="softsigncyrillic" unicode="&#x44c;" horiz-adv-x="900" 
d="M80 0v140h120v320h-120v140h440v-120h-120v-100h163q127 0 197 -47t70 -132v-30q0 -81 -70 -126t-198 -45h-482zM400 140h130q50 0 75 12t25 41v13q0 30 -25 42t-75 12h-130v-120z" />
    <glyph glyph-name="ereversedcyrillic" unicode="&#x44d;" horiz-adv-x="800" 
d="M386 -10q-165 0 -227.5 52.5t-69.5 148.5l193 16q4 -52 24 -72t85 -20q63 0 86 24.5t23 82.5v33h-177v110h177v18q0 55 -22.5 78t-84.5 23q-58 0 -82.5 -16t-28.5 -60l-193 16q12 89 82 137.5t216 48.5q143 0 228 -58t85 -175v-150q0 -115 -81.5 -176t-232.5 -61z" />
    <glyph glyph-name="iucyrillic" unicode="&#x44e;" horiz-adv-x="1300" 
d="M905 -10q-145 0 -220 60t-75 167v33h-210v-110h120v-140h-440v140h120v320h-120v140h440v-140h-120v-90h210v9q0 109 75.5 170t220.5 61t219.5 -61t74.5 -170v-162q0 -107 -75 -167t-220 -60zM905 140q51 0 73 22.5t22 74.5v122q0 54 -22 77.5t-73 23.5t-73 -23.5
t-22 -77.5v-122q0 -52 22 -74.5t73 -22.5z" />
    <glyph glyph-name="iacyrillic" unicode="&#x44f;" horiz-adv-x="900" 
d="M500 320v140h-90q-43 0 -66.5 -12.5t-23.5 -46.5v-22q0 -35 23.5 -47t66.5 -12h90zM500 200h-63l-124 -200h-253v140h110l62 84q-53 20 -82.5 59t-29.5 94v32q0 93 70 142t189 49h441v-140h-120v-320h120v-140h-320v200z" />
    <glyph glyph-name="djecyrillic" unicode="&#x452;" horiz-adv-x="900" 
d="M548 -210q-34 0 -69 6.5t-68 16.5l20 126q26 -8 49 -13.5t42 -5.5q37 0 57.5 22t20.5 73v289q0 42 -18.5 64t-50.5 22q-33 0 -68 -23t-63 -63v-164h85v-140h-405v140h120v460h-120v100h120v100h200v-100h170v-100h-170v-180h30q24 57 73.5 88.5t112.5 31.5
q87 0 135.5 -55.5t48.5 -155.5v-331q0 -110 -77 -159t-175 -49z" />
    <glyph glyph-name="ecyrillic" unicode="&#x454;" horiz-adv-x="800" 
d="M711 191q-7 -96 -69.5 -148.5t-227.5 -52.5q-151 0 -232.5 61t-81.5 176v150q0 117 85 175t228 58q146 0 216 -48.5t82 -137.5l-193 -16q-4 44 -28.5 60t-82.5 16q-62 0 -84.5 -23t-22.5 -78v-23h200v-100h-200v-38q0 -58 23 -82.5t86 -24.5q65 0 85 20t24 72z" />
    <glyph glyph-name="dzecyrillic" unicode="&#x455;" horiz-adv-x="800" 
d="M90 0zM401 -6q-84 0 -167.5 20.5t-143.5 66.5l45 119q65 -49 138.5 -66.5t132.5 -17.5q55 0 77.5 13.5t22.5 40.5q0 31 -26 45t-85 20q-137 14 -211 50.5t-74 124.5q0 92 76 146t207 54q66 0 139 -19.5t133 -56.5l-35 -112q-64 36 -121.5 51t-107.5 15q-49 0 -70.5 -13.5
t-21.5 -38.5q0 -32 35.5 -43t109.5 -21q129 -16 190 -57t61 -122q0 -92 -78 -145.5t-226 -53.5z" />
    <glyph glyph-name="icyrillic" unicode="&#x456;" horiz-adv-x="800" 
d="M100 0zM400 690q-57 0 -92.5 17t-35.5 59v15q0 43 35.5 61t92.5 18t92.5 -18t35.5 -61v-15q0 -42 -36 -59t-92 -17zM100 0v140h200v320h-200v140h400v-460h200v-140h-600z" />
    <glyph glyph-name="yicyrillic" unicode="&#x457;" horiz-adv-x="800" 
d="M100 0zM100 0v140h200v320h-200v140h400v-460h200v-140h-600zM270 690q-43 0 -70.5 17t-27.5 59v15q0 43 27.5 61t70.5 18q44 0 71 -18t27 -61v-15q0 -42 -27.5 -59t-70.5 -17zM530 690q-43 0 -70.5 17t-27.5 59v15q0 43 27.5 61t70.5 18q44 0 71 -18t27 -61v-15
q0 -42 -27.5 -59t-70.5 -17z" />
    <glyph glyph-name="jecyrillic" unicode="&#x458;" horiz-adv-x="600" 
d="M41 0zM188 -210q-37 0 -74.5 6t-72.5 17l20 126q29 -9 54 -14t47 -5q41 0 64.5 22t23.5 73v445h-169v140h369v-602q0 -110 -80.5 -159t-181.5 -49zM350 690q-57 0 -92.5 17t-35.5 59v15q0 43 35.5 61t92.5 18t92.5 -18t35.5 -61v-15q0 -42 -36 -59t-92 -17z" />
    <glyph glyph-name="ljecyrillic" unicode="&#x459;" horiz-adv-x="1250" 
d="M390 460l-2 -223q-1 -135 -65 -193t-170 -58q-28 0 -59 4.5t-63 13.5l20 141q16 -4 33 -6.5t31 -2.5q32 0 53 22.5t22 90.5l2 211h-92v140h770v-120h-120v-100h163q127 0 197 -47t70 -132v-30q0 -81 -70 -126t-198 -45h-452v140h90v320h-160zM750 140h130q50 0 75 12
t25 41v13q0 30 -25 42t-75 12h-130v-120z" />
    <glyph glyph-name="njecyrillic" unicode="&#x45a;" horiz-adv-x="1300" 
d="M800 140h130q50 0 75 12t25 41v13q0 30 -25 42t-75 12h-130v-120zM488 140v-140h-408v140h120v320h-120v140h320v-230h200v90h-88v140h408v-120h-120v-100h163q128 0 197.5 -46.5t69.5 -132.5v-30q0 -82 -69.5 -126.5t-198.5 -44.5h-362v250h-200v-110h88z" />
    <glyph glyph-name="tshecyrillic" unicode="&#x45b;" horiz-adv-x="1000" 
d="M80 0zM495 140v-140h-415v140h120v460h-120v100h120v100h200v-100h170v-100h-170v-180h30q24 57 72 88.5t115 31.5q87 0 135 -56.5t48 -155.5v-188h120v-140h-320v304q0 42 -18.5 64t-50.5 22t-65 -20.5t-66 -65.5v-164h95z" />
    <glyph glyph-name="dzhecyrillic" unicode="&#x45f;" horiz-adv-x="1000" 
d="M400 -150v150h-320v140h120v320h-120v140h420v-140h-100v-320h200v460h320v-140h-120v-320h120v-140h-320v-150h-200z" />
    <glyph glyph-name="gheupturncyrillic" unicode="&#x491;" horiz-adv-x="700" 
d="M600 0h-520v140h120v320h-120v140h400v150h190v-290h-270v-320h200v-140z" />
    <glyph glyph-name="nsuperior" unicode="&#x207f;" horiz-adv-x="700" 
d="M100 300v500h170v-90h30q10 24 25.5 42.5t35.5 31.5t44 19.5t51 6.5q34 0 61 -14t45 -42q19 -27 28.5 -66t9.5 -89v-299h-170v294q0 21 -3.5 37t-9.5 27t-15 16.5t-21 5.5q-14 0 -27.5 -6t-27.5 -18q-14 -11 -28 -26.5t-28 -35.5v-294h-170z" />
    <glyph glyph-name="gravecmb" unicode="&#x300;" horiz-adv-x="0" 
d="M-19 700l-225 200h250l106 -200h-131z" />
    <glyph glyph-name="acutecmb" unicode="&#x301;" horiz-adv-x="0" 
d="M-134 700l106 200h250l-225 -200h-131z" />
    <glyph glyph-name="circumflexcmb" unicode="&#x302;" horiz-adv-x="0" 
d="M-199 684l-62 84l184 159h152l186 -159l-61 -83l-201 105z" />
    <glyph glyph-name="tildecmb" unicode="&#x303;" horiz-adv-x="0" 
d="M96 710q-49 0 -75 15t-42 32q-16 18 -30 32.5t-33 14.5q-16 0 -29 -14.5t-12 -60.5v-9h-127v15q0 83 42 139t116 56q48 0 74 -15t43 -32q17 -18 31 -33t31 -15q16 0 29 14.5t12 60.5v9h127v-15q0 -82 -42 -138t-115 -56z" />
    <glyph glyph-name="macroncmb" unicode="&#x304;" horiz-adv-x="0" 
d="M-225 725v150h450v-150h-450z" />
    <glyph glyph-name="brevecmb" unicode="&#x306;" horiz-adv-x="0" 
d="M0 693q-135 0 -200.5 59t-66.5 181h160q1 -68 25 -94.5t82 -26.5t82 26.5t25 94.5h160q-1 -122 -66.5 -181t-200.5 -59z" />
    <glyph glyph-name="dotaccentcmb" unicode="&#x307;" horiz-adv-x="0" 
d="M0 690q-57 0 -92.5 17t-35.5 59v15q0 43 35.5 61t92.5 18t92.5 -18t35.5 -61v-15q0 -42 -36 -59t-92 -17z" />
    <glyph glyph-name="dieresiscmb" unicode="&#x308;" horiz-adv-x="0" 
d="M-130 690q-43 0 -70.5 17t-27.5 59v15q0 43 27.5 61t70.5 18q44 0 71 -18t27 -61v-15q0 -42 -27.5 -59t-70.5 -17zM130 690q-43 0 -70.5 17t-27.5 59v15q0 43 27.5 61t70.5 18q44 0 71 -18t27 -61v-15q0 -42 -27.5 -59t-70.5 -17z" />
    <glyph glyph-name="ringcmb" unicode="&#x30a;" horiz-adv-x="0" 
d="M0 675q-94 0 -152 38t-58 117v32q0 80 58 119t152 39q95 0 152.5 -39t57.5 -119v-32q0 -79 -58 -117t-152 -38zM0 766q35 0 53.5 14.5t18.5 49.5v32q0 34 -18.5 50.5t-53.5 16.5q-36 0 -54 -16.5t-18 -50.5v-32q0 -35 18 -49.5t54 -14.5z" />
    <glyph glyph-name="hungarumlautcmb" unicode="&#x30b;" horiz-adv-x="0" 
d="M36 700l46 200h190l-135 -200h-101zM-194 700l46 200h190l-135 -200h-101z" />
    <glyph glyph-name="caroncmb" unicode="&#x30c;" horiz-adv-x="0" 
d="M-75 704l-186 159l61 83l201 -105l198 106l62 -84l-184 -159h-152z" />
    <glyph glyph-name="commaturnedabovecmb" unicode="&#x312;" horiz-adv-x="0" 
d="M-154 700l185 200h131l-66 -200h-250z" />
    <glyph glyph-name="commaaccentcmb" unicode="&#x326;" horiz-adv-x="0" 
d="M-164 -300l66 200h250l-185 -200h-131z" />
    <glyph glyph-name="cedillacmb" unicode="&#x327;" horiz-adv-x="0" 
d="M-30 0l20 42q86 -8 140 -35.5t54 -94.5q0 -75 -67 -106.5t-149 -31.5q-96 0 -157 31.5t-66 104.5l168 10q2 -19 12.5 -26.5t34.5 -7.5q27 0 40.5 10.5t13.5 44.5q0 25 -9 38.5t-35 20.5z" />
    <glyph glyph-name="ogonekcmb" unicode="&#x328;" horiz-adv-x="0" 
d="M16 -224q-84 0 -132.5 32t-48.5 96q0 66 51 111.5t111 61.5l27 -54q-34 -21 -41.5 -40t-7.5 -36q0 -26 17.5 -38.5t57.5 -12.5q18 0 42 2.5t53 7.5v-116q-36 -7 -68.5 -10.5t-60.5 -3.5z" />
    <glyph glyph-name="zero" unicode="0" horiz-adv-x="900" 
d="M450 -10q-172 0 -261 89t-89 248v142q0 160 89.5 250.5t261.5 90.5t260.5 -90.5t88.5 -250.5v-142q0 -159 -89 -248t-261 -89zM450 130q97 0 123.5 58t26.5 159v102q0 99 -26.5 160t-123.5 61t-123.5 -61t-26.5 -160v-102q0 -101 26.5 -159t123.5 -58zM450 312
q-32 0 -52 11t-20 42v69q0 30 20 41.5t52 11.5t51.5 -11.5t19.5 -41.5v-69q0 -31 -20 -42t-51 -11z" />
    <glyph glyph-name="one" unicode="1" horiz-adv-x="900" 
d="M180 0v150h220v470h-29q-16 -66 -73.5 -106t-127.5 -44l-10 148q71 7 144 51t99 131h197v-650h200v-150h-620z" />
    <glyph glyph-name="two" unicode="2" horiz-adv-x="900" 
d="M100 0v165q0 105 47 166.5t142 80.5l196 40q59 12 82 35t23 71v16q0 54 -35.5 75t-104.5 21q-70 0 -102.5 -23.5t-37.5 -97.5l-200 10q7 125 83.5 188t255.5 63t260 -61.5t81 -175.5v-40q0 -88 -46 -141.5t-139 -72.5l-197 -40q-60 -12 -84 -36.5t-24 -75.5v-17h500v-150
h-700z" />
    <glyph glyph-name="three" unicode="3" horiz-adv-x="900" 
d="M453 -10q-181 0 -268.5 60.5t-94.5 181.5l200 10q7 -71 42.5 -87.5t119.5 -16.5q75 0 111.5 21t36.5 65v27q0 47 -37 70t-113 23h-130v147h130q66 0 98 16t32 49v32q0 38 -34 56t-106 18q-58 0 -91 -18.5t-39 -65.5l-200 10q7 119 84 170.5t246 51.5q173 0 256.5 -49.5
t83.5 -151.5v-18q0 -69 -43 -108t-104 -47v-29q63 -5 115 -49t52 -122v-17q0 -116 -85 -172.5t-262 -56.5z" />
    <glyph glyph-name="four" unicode="4" horiz-adv-x="900" 
d="M270 335h230v288zM850 195h-150v-195h-200v195h-410v140l365 465h245v-465h150v-140z" />
    <glyph glyph-name="five" unicode="5" horiz-adv-x="900" 
d="M449 -10q-187 0 -269.5 58t-89.5 203l200 10q9 -81 45 -106t115 -25q93 0 121.5 27t28.5 89v28q0 61 -37 83.5t-140 22.5h-303v420h650v-140h-450v-131h175q151 0 228 -54.5t77 -165.5v-93q0 -96 -82 -161t-269 -65z" />
    <glyph glyph-name="six" unicode="6" horiz-adv-x="900" 
d="M450 -10q-185 0 -267.5 77t-82.5 209v241q0 136 79.5 214.5t272.5 78.5q178 0 248.5 -58t90.5 -156l-209 -23q-13 62 -44.5 79.5t-102.5 17.5q-78 0 -106.5 -32t-28.5 -122v-83h10q28 31 79 49t122 18q149 0 219 -58t70 -180v-22q0 -101 -81.5 -175.5t-268.5 -74.5z
M449 130q87 0 118 31.5t31 80.5v13q0 57 -31 90.5t-118 33.5t-118 -33.5t-31 -90.5v-13q0 -57 31 -84.5t118 -27.5z" />
    <glyph glyph-name="seven" unicode="7" horiz-adv-x="900" 
d="M300 0q54 248 116.5 360.5t183.5 289.5h-500v150h700v-150q-117 -193 -185.5 -315t-104.5 -335h-210z" />
    <glyph glyph-name="eight" unicode="8" horiz-adv-x="900" 
d="M450 -10q-200 0 -275 60.5t-75 166.5v22q0 71 44.5 116t122.5 52v29q-63 6 -105 43t-42 97v32q0 106 86 154t244 48t244 -47t86 -155v-32q0 -60 -42 -97t-105 -43v-29q78 -7 122.5 -53t44.5 -115v-22q0 -108 -75 -167.5t-275 -59.5zM450 490q63 0 96.5 16.5t33.5 59.5v22
q0 42 -33.5 58t-96.5 16t-96.5 -16t-33.5 -58v-22q0 -43 33.5 -59.5t96.5 -16.5zM450 138q93 0 121.5 26.5t28.5 72.5v12q0 46 -28.5 73.5t-121.5 27.5t-121.5 -27.5t-28.5 -73.5v-12q0 -46 28.5 -72.5t121.5 -26.5z" />
    <glyph glyph-name="nine" unicode="9" horiz-adv-x="900" 
d="M451 421q87 0 118 33.5t31 90.5v13q0 57 -31 84.5t-118 27.5t-118 -31.5t-31 -80.5v-13q0 -57 31 -90.5t118 -33.5zM448 -10q-178 0 -248.5 58t-90.5 156l209 23q13 -62 44.5 -79.5t102.5 -17.5q78 0 106.5 32t28.5 122v83h-20q-27 -31 -77 -49t-129 -18
q-141 0 -207.5 58t-66.5 180v22q0 101 81.5 175.5t268.5 74.5q185 0 267.5 -77t82.5 -209v-241q0 -136 -79.5 -214.5t-272.5 -78.5z" />
    <glyph glyph-name="onequarter" unicode="&#xbc;" horiz-adv-x="1560" 
d="M106 0zM1150 217h127v154zM1521 117h-93v-117h-151v117h-254v100l226 279h179v-279h93v-100zM119 304v109h136v270h-21q-8 -43 -43.5 -67.5t-78.5 -28.5l-6 105q42 7 87 33t64 75h149v-387h124v-109h-411zM500 0l400 800h160l-400 -800h-160z" />
    <glyph glyph-name="onehalf" unicode="&#xbd;" horiz-adv-x="1560" 
d="M106 0zM119 304v109h136v270h-21q-8 -43 -43.5 -67.5t-78.5 -28.5l-6 105q42 7 87 33t64 75h149v-387h124v-109h-411zM1029 0v119q0 52 27 89.5t90 50.5l122 25q35 7 50 19.5t15 43.5v4q0 34 -23 42.5t-51 8.5t-49 -9.5t-24 -52.5l-151 7q4 77 56.5 116t167.5 39t170 -39
t55 -116v-18q0 -57 -32 -92.5t-83 -45.5l-122 -25q-40 -8 -53.5 -17.5t-13.5 -28.5v-11h310v-109h-461zM500 0l400 800h160l-400 -800h-160z" />
    <glyph glyph-name="threequarters" unicode="&#xbe;" horiz-adv-x="1560" 
d="M63 0zM1150 217h127v154zM1521 117h-93v-117h-151v117h-254v100l226 279h179v-279h93v-100zM500 0l400 800h160l-400 -800h-160zM305 298q-115 0 -176.5 38.5t-65.5 115.5l151 6q4 -32 24.5 -42t65.5 -10q40 0 57.5 8.5t17.5 32.5v15q0 27 -20 36.5t-60 9.5h-112v106h112
q35 0 51.5 8t16.5 31v6q0 25 -17 32t-57 7t-52 -7.5t-15 -30.5l-151 6q5 81 63.5 110.5t154.5 29.5q98 0 161 -25t63 -99v-8q0 -45 -27 -70t-61 -31v-18q32 -3 66.5 -29.5t34.5 -77.5v-8q0 -86 -63.5 -114t-161.5 -28z" />
    <glyph glyph-name="oneeighth" unicode="&#x215b;" horiz-adv-x="1560" 
d="M106 0zM1259 -6q-131 0 -180.5 38.5t-49.5 104.5v14q0 43 28 70t78 31v18q-40 4 -67 26t-27 58v20q0 67 57 97.5t161 30.5q105 0 161.5 -29.5t56.5 -98.5v-20q0 -36 -26.5 -58t-66.5 -26v-18q49 -4 77.5 -31.5t28.5 -69.5v-14q0 -68 -49.5 -105.5t-181.5 -37.5zM1259 301
q30 0 49 9t19 32v21q0 24 -19 32.5t-49 8.5q-29 0 -48 -8.5t-19 -32.5v-21q0 -23 19 -32t48 -9zM1259 92q47 0 63.5 15t16.5 40v16q0 26 -16.5 41.5t-63.5 15.5q-46 0 -62.5 -15.5t-16.5 -41.5v-16q0 -25 16.5 -40t62.5 -15zM119 304v109h136v270h-21q-8 -43 -43.5 -67.5
t-78.5 -28.5l-6 105q42 7 87 33t64 75h149v-387h124v-109h-411zM500 0l400 800h160l-400 -800h-160z" />
    <glyph glyph-name="threeeighths" unicode="&#x215c;" horiz-adv-x="1560" 
d="M63 0zM1259 -6q-131 0 -180.5 38.5t-49.5 104.5v14q0 43 28 70t78 31v18q-40 4 -67 26t-27 58v20q0 67 57 97.5t161 30.5q105 0 161.5 -29.5t56.5 -98.5v-20q0 -36 -26.5 -58t-66.5 -26v-18q49 -4 77.5 -31.5t28.5 -69.5v-14q0 -68 -49.5 -105.5t-181.5 -37.5zM1259 301
q30 0 49 9t19 32v21q0 24 -19 32.5t-49 8.5q-29 0 -48 -8.5t-19 -32.5v-21q0 -23 19 -32t48 -9zM1259 92q47 0 63.5 15t16.5 40v16q0 26 -16.5 41.5t-63.5 15.5q-46 0 -62.5 -15.5t-16.5 -41.5v-16q0 -25 16.5 -40t62.5 -15zM500 0l400 800h160l-400 -800h-160zM305 298
q-115 0 -176.5 38.5t-65.5 115.5l151 6q4 -32 24.5 -42t65.5 -10q40 0 57.5 8.5t17.5 32.5v15q0 27 -20 36.5t-60 9.5h-112v106h112q35 0 51.5 8t16.5 31v6q0 25 -17 32t-57 7t-52 -7.5t-15 -30.5l-151 6q5 81 63.5 110.5t154.5 29.5q98 0 161 -25t63 -99v-8q0 -45 -27 -70
t-61 -31v-18q32 -3 66.5 -29.5t34.5 -77.5v-8q0 -86 -63.5 -114t-161.5 -28z" />
    <glyph glyph-name="fiveeighths" unicode="&#x215d;" horiz-adv-x="1560" 
d="M63 0zM1259 -6q-131 0 -180.5 38.5t-49.5 104.5v14q0 43 28 70t78 31v18q-40 4 -67 26t-27 58v20q0 67 57 97.5t161 30.5q105 0 161.5 -29.5t56.5 -98.5v-20q0 -36 -26.5 -58t-66.5 -26v-18q49 -4 77.5 -31.5t28.5 -69.5v-14q0 -68 -49.5 -105.5t-181.5 -37.5zM1259 301
q30 0 49 9t19 32v21q0 24 -19 32.5t-49 8.5q-29 0 -48 -8.5t-19 -32.5v-21q0 -23 19 -32t48 -9zM1259 92q47 0 63.5 15t16.5 40v16q0 26 -16.5 41.5t-63.5 15.5q-46 0 -62.5 -15.5t-16.5 -41.5v-16q0 -25 16.5 -40t62.5 -15zM305 298q-126 0 -182 39t-60 131l151 6
q6 -44 25.5 -60t68.5 -16q41 0 56 14t15 53v12q0 33 -23.5 45t-89.5 12h-185v266h433v-100h-282v-59h98q101 0 150.5 -34t49.5 -102v-64q0 -58 -51.5 -100.5t-173.5 -42.5zM500 0l400 800h160l-400 -800h-160z" />
    <glyph glyph-name="seveneighths" unicode="&#x215e;" horiz-adv-x="1560" 
d="M69 0zM1259 -6q-131 0 -180.5 38.5t-49.5 104.5v14q0 43 28 70t78 31v18q-40 4 -67 26t-27 58v20q0 67 57 97.5t161 30.5q105 0 161.5 -29.5t56.5 -98.5v-20q0 -36 -26.5 -58t-66.5 -26v-18q49 -4 77.5 -31.5t28.5 -69.5v-14q0 -68 -49.5 -105.5t-181.5 -37.5zM1259 301
q30 0 49 9t19 32v21q0 24 -19 32.5t-49 8.5q-29 0 -48 -8.5t-19 -32.5v-21q0 -23 19 -32t48 -9zM1259 92q47 0 63.5 15t16.5 40v16q0 26 -16.5 41.5t-63.5 15.5q-46 0 -62.5 -15.5t-16.5 -41.5v-16q0 -25 16.5 -40t62.5 -15zM193 304q41 124 83.5 213.5t102.5 176.5h-310
v106h461v-106q-57 -97 -103.5 -192.5t-76.5 -197.5h-157zM500 0l400 800h160l-400 -800h-160z" />
    <glyph glyph-name="underscore" unicode="_" horiz-adv-x="900" 
d="M100 -200v170h700v-170h-700z" />
    <glyph glyph-name="hyphen" unicode="&#x2011;" horiz-adv-x="900" 
d="M100 270v170h700v-170h-700z" />
    <glyph glyph-name="hyphen" unicode="&#x2010;" horiz-adv-x="900" 
d="M100 270v170h700v-170h-700z" />
    <glyph glyph-name="hyphen" unicode="&#xad;" horiz-adv-x="900" 
d="M100 270v170h700v-170h-700z" />
    <glyph glyph-name="hyphen" unicode="-" horiz-adv-x="900" 
d="M100 270v170h700v-170h-700z" />
    <glyph glyph-name="endash" unicode="&#x2013;" horiz-adv-x="1000" 
d="M120 270v170h760v-170h-760z" />
    <glyph glyph-name="emdash" unicode="&#x2014;" horiz-adv-x="1300" 
d="M120 270v170h1060v-170h-1060z" />
    <glyph glyph-name="horizontalbar" unicode="&#x2015;" horiz-adv-x="1000" 
d="M0 270v170h1000v-170h-1000z" />
    <glyph glyph-name="parenleft" unicode="(" horiz-adv-x="800" 
d="M630 -210q-246 37 -338 183t-92 327q0 173 92 323t338 187l20 -130q-149 -37 -199.5 -133t-50.5 -247t50.5 -243t199.5 -129z" />
    <glyph glyph-name="parenright" unicode=")" horiz-adv-x="800" 
d="M170 -210l-20 138q149 37 199.5 131.5t50.5 240.5q0 136 -50.5 239.5t-199.5 140.5l20 130q246 -37 338 -187t92 -323q0 -181 -92 -327t-338 -183z" />
    <glyph glyph-name="bracketleft" unicode="[" horiz-adv-x="800" 
d="M200 -200v1000h450v-140h-250v-720h250v-140h-450z" />
    <glyph glyph-name="bracketright" unicode="]" horiz-adv-x="800" 
d="M150 -200v140h250v720h-250v140h450v-1000h-450z" />
    <glyph glyph-name="braceleft" horiz-adv-x="800" 
d="M650 -210q-269 -3 -384.5 33t-115.5 133q0 43 13.5 71.5t49.5 60.5q38 34 52.5 52t14.5 33q0 47 -49.5 66.5t-180.5 22.5v100q131 3 180.5 22t49.5 65q0 15 -13.5 30t-50.5 40q-37 26 -51.5 51.5t-14.5 65.5q0 101 115.5 139t384.5 35v-140q-170 3 -235 -11.5t-65 -54.5
q0 -21 14 -38t51 -41q37 -23 51 -43t14 -52q0 -60 -63 -86.5t-229 -30.5v-5q166 -10 229 -37t63 -82q0 -35 -13.5 -55.5t-50.5 -44.5t-51.5 -43.5t-14.5 -46.5q0 -43 65 -58.5t235 -12.5v-138z" />
    <glyph glyph-name="braceright" horiz-adv-x="800" 
d="M650 -44q0 -97 -115.5 -133t-384.5 -33v138q170 -3 235 12.5t65 58.5q0 27 -14.5 46.5t-51.5 43.5t-50.5 44.5t-13.5 55.5q0 55 63 82t229 37v5q-166 4 -229 30.5t-63 86.5q0 32 14 52t51 43q37 24 51 41t14 38q0 40 -65 54.5t-235 11.5v140q269 3 384.5 -35t115.5 -139
q0 -40 -14.5 -65.5t-51.5 -51.5q-37 -25 -50.5 -40t-13.5 -30q0 -46 49.5 -65t180.5 -22v-100q-131 -3 -180.5 -22.5t-49.5 -66.5q0 -15 14.5 -33t52.5 -52q36 -32 49.5 -60.5t13.5 -71.5z" />
    <glyph glyph-name="numbersign" unicode="#" horiz-adv-x="1000" 
d="M575 300l10 200h-160l-10 -200h160zM560 0l9 170h-160l-9 -170h-170l9 170h-139v130h145l10 200h-155v130h162l8 170h170l-8 -170h160l8 170h170l-8 -170h138v-130h-145l-10 -200h155v-130h-161l-9 -170h-170z" />
    <glyph glyph-name="percent" unicode="%" horiz-adv-x="1300" 
d="M300 368q-107 0 -173.5 38t-66.5 117v130q0 80 66.5 118.5t173.5 38.5t173 -38.5t66 -118.5v-130q0 -79 -66 -117t-173 -38zM310 0l500 800h180l-500 -800h-180zM300 484q32 0 51 12t19 40v104q0 28 -19 41t-51 13t-51.5 -13t-19.5 -41v-104q0 -28 19.5 -40t51.5 -12z
M1000 -12q-107 0 -173.5 38t-66.5 117v140q0 80 66.5 118.5t173.5 38.5t173 -38.5t66 -118.5v-140q0 -79 -66 -117t-173 -38zM1000 104q32 0 51 12t19 40v114q0 28 -19 41t-51 13t-51.5 -13t-19.5 -41v-114q0 -28 19.5 -40t51.5 -12z" />
    <glyph glyph-name="perthousand" unicode="&#x2030;" horiz-adv-x="1700" 
d="M290 368q-94 0 -152 39.5t-58 120.5v120q0 82 58.5 122t151.5 40q94 0 151.5 -40t57.5 -122v-120q0 -81 -58 -120.5t-151 -39.5zM950 800l-500 -800h-180l500 800h180zM229 536q0 -28 16.5 -40t44.5 -12t44 12t16 40v104q0 28 -16 41t-44 13t-44.5 -13t-16.5 -41v-104z
M1619 148q0 -81 -58 -120.5t-151 -39.5q-94 0 -152 39.5t-58 120.5v130q0 82 58.5 122t151.5 40q94 0 151.5 -40t57.5 -122v-130zM1139 148q0 -81 -58 -120.5t-151 -39.5q-94 0 -152 39.5t-58 120.5v130q0 82 58.5 122t151.5 40q94 0 151.5 -40t57.5 -122v-130zM869 156
q0 -28 16.5 -40t44.5 -12t44 12t16 40v114q0 28 -16 41t-44 13t-44.5 -13t-16.5 -41v-114zM1349 156q0 -28 16.5 -40t44.5 -12t44 12t16 40v114q0 28 -16 41t-44 13t-44.5 -13t-16.5 -41v-114z" />
    <glyph glyph-name="quotesingle" unicode="'" horiz-adv-x="700" 
d="M266 350l-36 450h240l-36 -450h-168z" />
    <glyph glyph-name="quotedbl" unicode="&#x22;" 
d="M666 350l-36 450h240l-36 -450h-168zM266 350l-36 450h240l-36 -450h-168z" />
    <glyph glyph-name="quoteleft" unicode="&#x2018;" horiz-adv-x="700" 
d="M159 350l251 450h127l-95 -450h-283z" />
    <glyph glyph-name="quoteleft" unicode="&#x2bb;" horiz-adv-x="700" 
d="M159 350l251 450h127l-95 -450h-283z" />
    <glyph glyph-name="quoteright" unicode="&#x2019;" horiz-adv-x="700" 
d="M163 350l95 450h283l-251 -450h-127z" />
    <glyph glyph-name="quotedblleft" unicode="&#x201c;" 
d="M559 350l251 450h127l-95 -450h-283zM169 350l251 450h127l-95 -450h-283z" />
    <glyph glyph-name="quotedblright" unicode="&#x201d;" 
d="M553 350l95 450h283l-251 -450h-127zM163 350l95 450h283l-251 -450h-127z" />
    <glyph glyph-name="quotereversed" unicode="&#x201b;" horiz-adv-x="700" 
d="M143 350zM394 350l-251 450h283l95 -450h-127z" />
    <glyph glyph-name="quotesinglbase" unicode="&#x201a;" horiz-adv-x="700" 
d="M173 0zM173 -150l75 450h283l-231 -450h-127z" />
    <glyph glyph-name="quotedblbase" unicode="&#x201e;" 
d="M163 0zM553 -150l95 450h283l-251 -450h-127zM163 -150l95 450h283l-251 -450h-127z" />
    <glyph glyph-name="guilsinglleft" unicode="&#x2039;" horiz-adv-x="700" 
d="M550 20l-400 230v200l400 230v-175l-270 -155l270 -155v-175z" />
    <glyph glyph-name="guilsinglright" unicode="&#x203a;" horiz-adv-x="700" 
d="M150 20v175l270 155l-270 155v175l400 -230v-200z" />
    <glyph glyph-name="guillemotleft" unicode="&#xab;" 
d="M975 20l-400 230v200l400 230v-175l-270 -155l270 -155v-175zM525 20l-400 230v200l400 230v-175l-270 -155l270 -155v-175z" />
    <glyph glyph-name="guillemotright" unicode="&#xbb;" 
d="M125 20v175l270 155l-270 155v175l400 -230v-200zM575 20v175l270 155l-270 155v175l400 -230v-200z" />
    <glyph glyph-name="asterisk" unicode="*" horiz-adv-x="900" 
d="M669 261l-187 181l48 -242h-162l49 241l-186 -180l-81 140l246 100l-246 100l81 140l186 -181l-49 240h162l-48 -240l187 181l81 -140l-247 -100l247 -100z" />
    <glyph glyph-name="dagger" unicode="&#x2020;" horiz-adv-x="1000" 
d="M450 -200v660h-120l-40 -220h-140l30 360h267l-7 200h220l-7 -200h267l30 -360h-140l-40 220h-120v-660h-200z" />
    <glyph glyph-name="daggerdbl" unicode="&#x2021;" horiz-adv-x="1000" 
d="M440 -200l7 170h-267l-30 260h140l40 -120h120v380h-120l-40 -120h-140l30 260h267l-7 170h220l-7 -170h267l30 -260h-140l-40 120h-120v-380h120l40 120h140l-30 -260h-267l7 -170h-220z" />
    <glyph glyph-name="period" unicode="." horiz-adv-x="700" 
d="M351 -10q-68 0 -109.5 29.5t-41.5 81.5v87q0 53 41.5 83t109.5 30q67 0 108 -30t41 -83v-87q0 -52 -42 -81.5t-107 -29.5z" />
    <glyph glyph-name="comma" unicode="," horiz-adv-x="700" 
d="M173 -150l75 450h283l-231 -450h-127z" />
    <glyph glyph-name="colon" unicode=":" horiz-adv-x="700" 
d="M351 386q-61 0 -98.5 26t-37.5 73v59q0 48 37.5 74.5t98.5 26.5q60 0 97 -26.5t37 -74.5v-59q0 -47 -38 -73t-96 -26zM351 -4q-61 0 -98.5 26t-37.5 73v59q0 48 37.5 74.5t98.5 26.5q60 0 97 -26.5t37 -74.5v-59q0 -47 -38 -73t-96 -26z" />
    <glyph glyph-name="semicolon" unicode=";" horiz-adv-x="700" 
d="M351 386q-61 0 -98.5 26t-37.5 73v59q0 48 37.5 74.5t98.5 26.5q60 0 97 -26.5t37 -74.5v-59q0 -47 -38 -73t-96 -26zM191 -128l67 406h255l-208 -406h-114z" />
    <glyph glyph-name="ellipsis" unicode="&#x2026;" horiz-adv-x="1900" 
d="M154 0zM1505 -10q-68 0 -109.5 29.5t-41.5 81.5v87q0 53 41.5 83t109.5 30q67 0 108 -30t41 -83v-87q0 -52 -42 -81.5t-107 -29.5zM905 -10q-68 0 -109.5 29.5t-41.5 81.5v87q0 53 41.5 83t109.5 30q67 0 108 -30t41 -83v-87q0 -52 -42 -81.5t-107 -29.5zM305 -10
q-68 0 -109.5 29.5t-41.5 81.5v87q0 53 41.5 83t109.5 30q67 0 108 -30t41 -83v-87q0 -52 -42 -81.5t-107 -29.5z" />
    <glyph glyph-name="exclam" unicode="!" horiz-adv-x="800" 
d="M305 300l-30 500h240l-30 -500h-180zM401 -10q-72 0 -109.5 20.5t-37.5 63.5v28q0 44 37.5 65t109.5 21t109 -21t37 -65v-28q0 -43 -37.5 -63.5t-108.5 -20.5z" />
    <glyph glyph-name="exclamdown" unicode="&#xa1;" horiz-adv-x="800" 
d="M400 810q72 0 109.5 -20.5t37.5 -63.5v-28q0 -44 -37.5 -65t-109.5 -21t-109 21t-37 65v28q0 43 37.5 63.5t108.5 20.5zM496 500l30 -500h-240l30 500h180z" />
    <glyph glyph-name="exclamdbl" unicode="&#x203c;" 
d="M154 0zM705 300l-30 500h240l-30 -500h-180zM801 -10q-72 0 -109.5 20.5t-37.5 63.5v28q0 44 37.5 65t109.5 21t109 -21t37 -65v-28q0 -43 -37.5 -63.5t-108.5 -20.5zM205 300l-30 500h240l-30 -500h-180zM301 -10q-72 0 -109.5 20.5t-37.5 63.5v28q0 44 37.5 65
t109.5 21t109 -21t37 -65v-28q0 -43 -37.5 -63.5t-108.5 -20.5z" />
    <glyph glyph-name="question" unicode="?" horiz-adv-x="1000" 
d="M420 263l-20 131q174 28 232 63t58 95v20q0 49 -29.5 73.5t-110.5 24.5q-83 0 -113 -26.5t-37 -94.5l-200 10q7 128 92.5 189.5t256.5 61.5q164 0 252.5 -67t88.5 -164v-31q0 -122 -111 -185.5t-359 -99.5zM501 -10q-72 0 -109.5 20.5t-37.5 63.5v28q0 44 37.5 65
t109.5 21t109 -21t37 -65v-28q0 -43 -37.5 -63.5t-108.5 -20.5z" />
    <glyph glyph-name="questiondown" unicode="&#xbf;" horiz-adv-x="1000" 
d="M589 810q72 0 109.5 -20.5t37.5 -63.5v-28q0 -44 -37.5 -65t-109.5 -21t-109 21t-37 65v28q0 43 37.5 63.5t108.5 20.5zM670 537l20 -131q-174 -28 -232 -63t-58 -95v-20q0 -49 29.5 -73.5t110.5 -24.5q83 0 113 26.5t37 94.5l200 -10q-7 -128 -92.5 -189.5t-256.5 -61.5
q-164 0 -252.5 67t-88.5 164v31q0 122 111 185.5t359 99.5z" />
    <glyph glyph-name="slash" unicode="/" horiz-adv-x="700" 
d="M70 -200l400 1000h160l-400 -1000h-160z" />
    <glyph glyph-name="backslash" unicode="\" horiz-adv-x="700" 
d="M470 -198l-400 1000l160 -2l400 -1000z" />
    <glyph glyph-name="fraction" unicode="&#x2215;" horiz-adv-x="360" 
d="M-100 0l400 800h160l-400 -800h-160z" />
    <glyph glyph-name="fraction" unicode="&#x2044;" horiz-adv-x="360" 
d="M-100 0l400 800h160l-400 -800h-160z" />
    <glyph glyph-name="bar" unicode="|" horiz-adv-x="700" 
d="M270 -200v1000h160v-1000h-160z" />
    <glyph glyph-name="brokenbar" unicode="&#xa6;" horiz-adv-x="700" 
d="M270 400v400h160v-400h-160zM270 -200v400h160v-400h-160z" />
    <glyph glyph-name="at" unicode="@" 
d="M628 -110q-236 0 -352 98t-116 261v238q0 146 101.5 234.5t307.5 88.5q179 0 275 -82t96 -231v-204q-6 -89 -73.5 -131t-191.5 -42q-131 0 -193 48t-62 134v82q0 84 52.5 135t143.5 51q65 0 105 -21.5t57 -53.5h30q-2 105 -52 155t-188 50t-198 -56t-60 -157v-228
q0 -121 74.5 -188t243.5 -67q59 0 109 9t93 21v-114q-41 -10 -95.5 -20t-106.5 -10zM679 230q32 0 50.5 14.5t18.5 59.5v72q0 45 -19 64.5t-50 19.5q-32 0 -50.5 -20t-18.5 -66v-62q0 -44 17.5 -63t51.5 -19z" />
    <glyph glyph-name="ampersand" unicode="&#x26;" horiz-adv-x="900" 
d="M857 -22q-60 16 -118 40.5t-111 55.5q-47 -40 -106 -62t-139 -22q-132 0 -207.5 55.5t-75.5 159.5q0 66 35.5 117.5t121.5 101.5q-28 46 -42.5 87t-14.5 74q0 104 69 165t186 61q102 0 168.5 -51.5t66.5 -133.5q0 -75 -51 -123.5t-193 -98.5q9 -12 19 -24l20 -24
q25 -29 55 -56.5t62 -53.5q19 34 39.5 79t43.5 102l149 -29q-31 -66 -68.5 -127t-74.5 -109l200 -52zM380 585q0 -24 5 -47.5t13 -46.5q67 30 94.5 59t27.5 67q0 35 -17.5 54t-49.5 19q-40 0 -56.5 -29.5t-16.5 -75.5zM425 110q27 0 51 7.5t46 25.5q-44 32 -83.5 67.5
t-73.5 71.5q-9 9 -17.5 18.5t-15.5 19.5q-15 -25 -23.5 -53.5t-8.5 -55.5q0 -56 32 -78.5t93 -22.5z" />
    <glyph glyph-name="section" unicode="&#xa7;" 
d="M540 232q10 -2 19 -4l18 -4q49 1 88.5 14t39.5 45q0 41 -41.5 55.5t-98.5 26.5q-10 2 -19 4l-18 4q-49 -1 -88.5 -13.5t-39.5 -44.5q0 -42 41.5 -56.5t98.5 -26.5zM568 -207q-99 0 -193.5 27t-153.5 67l50 141q66 -41 140.5 -63t161.5 -22q56 0 97.5 12.5t41.5 41.5
q0 39 -56.5 51.5t-127.5 27.5q-156 31 -242 74.5t-86 142.5q0 50 39.5 83.5t102.5 51.5q-69 30 -105.5 73t-36.5 109q0 104 104.5 149t232.5 45q99 0 190 -27t157 -67l-60 -131q-69 37 -138.5 56t-153.5 19q-73 0 -105.5 -16.5t-32.5 -46.5q0 -34 63 -46t171 -35
q118 -22 197.5 -64.5t79.5 -141.5q0 -52 -31 -89.5t-82 -59.5q55 -29 84 -69.5t29 -98.5q0 -99 -98.5 -146.5t-238.5 -47.5z" />
    <glyph glyph-name="paragraph" unicode="&#xb6;" 
d="M700 340h-100v-540h-200v540q-90 0 -160 44.5t-70 152.5v52q0 110 69.5 160.5t159.5 50.5h501v-1000h-200v540z" />
    <glyph glyph-name="lsquare" unicode="&#x2113;" horiz-adv-x="700" 
d="M340 370q14 0 23 2.5t17 8.5q7 7 12.5 20.5t9.5 35.5l27 152q3 20 2.5 33.5t-5.5 21.5q-4 9 -12.5 12.5t-21.5 3.5q-15 0 -24 -2t-16 -9t-13 -21.5t-10 -38.5l-29 -165q-3 -14 -1 -24.5t7 -16.5q5 -7 13.5 -10t20.5 -3zM537 49q-31 -14 -61.5 -24.5t-60.5 -17.5
q-29 -7 -58 -10.5t-57 -3.5q-59 0 -106 15.5t-79 48.5t-44 84t0 121l59 336q10 59 35.5 100t62.5 66q37 24 82.5 35t98.5 11q67 0 113 -10.5t74 -34.5t37 -64.5t-2 -100.5l-34 -193q-7 -40 -27 -70t-50 -49t-68.5 -28.5t-82.5 -9.5q-14 0 -27.5 1t-25.5 2q-12 2 -23 4.5
t-21 5.5l-4 -24q-4 -25 0 -43.5t15 -30.5t28.5 -17.5t40.5 -5.5q19 0 41 3.5t46 10.5t49 17t51 22z" />
    <glyph glyph-name="numero" unicode="&#x2116;" horiz-adv-x="1400" 
d="M1050 290q-106 0 -178 55.5t-72 171.5v62q0 117 72.5 174t178.5 57t177.5 -57t71.5 -174v-62q0 -116 -72 -171.5t-178 -55.5zM1050 430q40 0 55 19t15 63v83q0 36 -15 55.5t-55 19.5q-39 0 -54.5 -20.5t-15.5 -57.5v-80q0 -44 15.5 -63t54.5 -19zM270 566v-566h-170v800
h237l193 -618v618h170v-800h-253z" />
    <glyph glyph-name="periodcentered" unicode="&#x2219;" horiz-adv-x="700" 
d="M351 245q-68 0 -109.5 29.5t-41.5 81.5v87q0 53 41.5 83t109.5 30q67 0 108 -30t41 -83v-87q0 -52 -42 -81.5t-107 -29.5z" />
    <glyph glyph-name="periodcentered" unicode="&#xb7;" horiz-adv-x="700" 
d="M351 245q-68 0 -109.5 29.5t-41.5 81.5v87q0 53 41.5 83t109.5 30q67 0 108 -30t41 -83v-87q0 -52 -42 -81.5t-107 -29.5z" />
    <glyph glyph-name="bullet" unicode="&#x2022;" horiz-adv-x="900" 
d="M451 236q-75 0 -121.5 30.5t-46.5 95.5v72q0 66 46.5 97.5t121.5 31.5t121 -31.5t46 -97.5v-72q0 -65 -47 -95.5t-120 -30.5z" />
    <glyph glyph-name="anoteleia" unicode="&#x387;" horiz-adv-x="700" 
d="M200 245zM351 245q-68 0 -109.5 29.5t-41.5 81.5v87q0 53 41.5 83t109.5 30q67 0 108 -30t41 -83v-87q0 -52 -42 -81.5t-107 -29.5z" />
    <glyph glyph-name="underscoredbl" unicode="&#x2017;" horiz-adv-x="900" 
d="M100 0zM100 0v170h700v-170h-700zM100 -300v170h700v-170h-700z" />
    <glyph glyph-name="minute" unicode="&#x2032;" horiz-adv-x="700" 
d="M163 350zM163 350l95 450h283l-251 -450h-127z" />
    <glyph glyph-name="second" unicode="&#x2033;" 
d="M163 350zM553 350l95 450h283l-251 -450h-127zM163 350l95 450h283l-251 -450h-127z" />
    <glyph glyph-name="overline" unicode="&#x203e;" horiz-adv-x="900" 
d="M100 830zM100 830v170h700v-170h-700z" />
    <glyph glyph-name="plus" unicode="+" horiz-adv-x="900" 
d="M370 0v270h-270v160h270v270h160v-270h270v-160h-270v-270h-160z" />
    <glyph glyph-name="minus" unicode="&#x2212;" horiz-adv-x="900" 
d="M100 270v160h700v-160h-700z" />
    <glyph glyph-name="plusminus" unicode="&#xb1;" horiz-adv-x="900" 
d="M100 0zM370 100v270h-270v160h270v270h160v-270h270v-160h-270v-270h-160zM100 0v160h700v-160h-700z" />
    <glyph glyph-name="divide" unicode="&#xf7;" horiz-adv-x="900" 
d="M450 511q-46 0 -75 18.5t-29 58.5v21q0 40 29 59.5t75 19.5t74.5 -19.5t28.5 -59.5v-21q0 -40 -28.5 -58.5t-74.5 -18.5zM100 280v140h700v-140h-700zM450 11q-46 0 -75 18.5t-29 58.5v21q0 40 29 59.5t75 19.5t74.5 -19.5t28.5 -59.5v-21q0 -40 -28.5 -58.5t-74.5 -18.5
z" />
    <glyph glyph-name="multiply" unicode="&#xd7;" horiz-adv-x="900" 
d="M234 31l-103 103l216 216l-216 216l103 103l216 -216l216 216l103 -103l-216 -216l216 -216l-103 -103l-216 216z" />
    <glyph glyph-name="equal" unicode="=" horiz-adv-x="900" 
d="M100 430v160h700v-160h-700zM100 110v160h700v-160h-700z" />
    <glyph glyph-name="less" unicode="&#x3c;" horiz-adv-x="900" 
d="M750 0l-600 250v200l600 250v-155l-468 -195l468 -195v-155z" />
    <glyph glyph-name="greater" unicode="&#x3e;" horiz-adv-x="900" 
d="M150 0v145l492 205l-492 205v145l600 -250v-200z" />
    <glyph glyph-name="lessequal" unicode="&#x2264;" horiz-adv-x="900" 
d="M750 200l-600 200v200l600 200v-155l-435 -145l435 -145v-155zM150 0v135h600v-135h-600z" />
    <glyph glyph-name="greaterequal" unicode="&#x2265;" horiz-adv-x="900" 
d="M150 200v155l435 145l-435 145v155l600 -200v-200zM750 0h-600v135h600v-135z" />
    <glyph glyph-name="approxequal" unicode="&#x2248;" horiz-adv-x="900" 
d="M601 380q-36 0 -64.5 8.5t-50.5 23.5q-21 15 -38 32.5t-34 41.5q-43 60 -57 74t-31 22q-9 5 -18.5 7t-20.5 2q-16 0 -28 -5.5t-21 -16.5q-9 -12 -13.5 -31t-4.5 -45v-73h-150v79q0 58 16 103t46 76t72 46.5t95 15.5q36 0 65 -8.5t50 -23.5q22 -15 38.5 -32.5t33.5 -40.5
q59 -82 51 -71t6 -4q14 -14 32 -22.5t40 -8.5q15 0 27 5.5t21 16.5q8 12 12.5 31t4.5 46v72h150v-79q0 -58 -16 -103t-46 -76t-72 -46.5t-95 -15.5zM598 -20q-35 0 -63 8.5t-49 23.5q-22 15 -38 32.5t-33 41.5q-43 60 -57 74.5t-31 22.5q-9 5 -19 7t-21 2q-16 0 -28 -5.5
t-21 -17.5t-13.5 -31t-4.5 -45v-73h-150v79q0 58 16 103t46 76t72 46.5t95 15.5q36 0 65 -8.5t50 -23.5q22 -15 38.5 -32.5t33.5 -40.5q59 -82 51 -71t6 -4q14 -14 32 -22.5t40 -8.5q15 0 27 5.5t21 16.5q8 12 12.5 31t4.5 46v72h150v-79q0 -58 -16 -103t-46 -76t-73 -46.5
t-97 -15.5z" />
    <glyph glyph-name="notequal" unicode="&#x2260;" horiz-adv-x="900" 
d="M800 165h-339l-41 -165h-140l41 165h-221v150h259l42 170h-301v150h339l41 165h140l-41 -165h221v-150h-259l-42 -170h301v-150z" />
    <glyph glyph-name="logicalnot" unicode="&#xac;" horiz-adv-x="900" 
d="M640 0v270h-540v160h700v-430h-160z" />
    <glyph glyph-name="uni23af" unicode="&#x23af;" horiz-adv-x="1000" 
d="M-150 300v200h1300v-200h-1300z" />
    <glyph glyph-name="arrowleft" unicode="&#x2190;" horiz-adv-x="1200" 
d="M580 25l-430 365v20l430 365h20v-275h450v-200h-450v-275h-20z" />
    <glyph glyph-name="arrowup" unicode="&#x2191;" horiz-adv-x="900" 
d="M350 -50v450h-275v20l365 430h20l365 -430v-20h-275v-450h-200z" />
    <glyph glyph-name="arrowright" unicode="&#x2192;" horiz-adv-x="1200" 
d="M600 25v275h-450v200h450v275h20l430 -365v-20l-430 -365h-20z" />
    <glyph glyph-name="arrowdown" unicode="&#x2193;" horiz-adv-x="900" 
d="M440 -100l-365 430v20h275v450h200v-450h275v-20l-365 -430h-20z" />
    <glyph glyph-name="arrowboth" unicode="&#x2194;" horiz-adv-x="1400" 
d="M550 300v-275h-20l-380 365v20l380 365h20v-275h300v275h20l380 -365v-20l-380 -365h-20v275h-300z" />
    <glyph glyph-name="partialdiff" unicode="&#x2202;" horiz-adv-x="800" 
d="M338 -10q-68 0 -120.5 14.5t-86.5 44.5q-35 30 -48 75.5t-2 105.5l9 52q9 50 32 90.5t58 68.5q36 29 80.5 44t95.5 15q31 0 55.5 -5.5t43.5 -16.5q18 -10 30 -23.5t17 -28.5h21q5 60 -10 101t-50 70t-90 50.5t-142 44.5l149 129q104 -29 173 -68.5t108 -93.5
q40 -54 50.5 -126t-6.5 -166l-23 -131q-11 -63 -40.5 -110t-74.5 -77t-102.5 -44.5t-126.5 -14.5zM363 130q27 0 46.5 5.5t32.5 15.5q14 11 22 27.5t13 39.5l13 63q4 20 1.5 34.5t-12.5 24.5q-11 10 -29 14.5t-45 4.5t-46.5 -4.5t-33.5 -14.5q-13 -10 -21 -24.5t-12 -34.5
l-13 -63q-5 -23 -2.5 -39.5t12.5 -27.5q10 -10 28.5 -15.5t45.5 -5.5z" />
    <glyph glyph-name="Delta#1" unicode="&#x2206;" horiz-adv-x="800" 
d="M30 0zM30 0v150l233 650h285l222 -650v-150h-740zM567 150l-172 529l-180 -529h352z" />
    <glyph glyph-name="product" unicode="&#x220f;" horiz-adv-x="900" 
d="M100 -200v1000h700v-1000h-200v850h-300v-850h-200z" />
    <glyph glyph-name="summation" unicode="&#x2211;" horiz-adv-x="800" 
d="M720 -50v-150h-650v150l398 359l-398 341v150h650v-150h-446l326 -275v-118l-340 -307h460z" />
    <glyph glyph-name="mu1" unicode="&#xb5;" horiz-adv-x="900" 
d="M90 0zM300 20l10 -220h-220l10 220v580h200v-374q0 -43 25.5 -62t62.5 -19q36 0 63 10t49 35v410h200v-390q0 -54 31.5 -66t88.5 -5v-134q-81 -19 -143 -5t-93 80h-30q-21 -37 -57 -63.5t-96 -26.5q-30 0 -56 13.5t-45 40.5v-24z" />
    <glyph glyph-name="radical" unicode="&#x221a;" horiz-adv-x="800" 
d="M337 0l-147 343l-139 -18v145l233 30l135 -334l166 734h192l-215 -900h-225z" />
    <glyph glyph-name="infinity" unicode="&#x221e;" horiz-adv-x="1000" 
d="M298 90q-44 0 -85 20.5t-74 59.5q-32 40 -50.5 98t-18.5 131q0 74 18.5 132.5t52.5 98.5q33 40 76 60t91 20q42 0 75.5 -11.5t59.5 -32.5t45.5 -48.5t35.5 -61.5q17 34 35.5 61.5t40.5 48.5t48.5 32.5t56.5 11.5q44 0 84.5 -20.5t71.5 -60.5q32 -39 50.5 -97t18.5 -131
q0 -74 -19 -132.5t-52 -98.5q-34 -40 -77.5 -60t-93.5 -20q-41 0 -73.5 11.5t-58.5 32.5q-25 20 -44 47t-35 61q-17 -34 -35.5 -61t-40.5 -48q-21 -20 -47 -31.5t-56 -11.5zM691 239q17 0 31.5 9t24.5 28q11 20 17 50.5t6 73.5q-1 43 -7 74t-17 51q-10 19 -24 27.5t-31 8.5
q-20 0 -37 -9t-32 -25t-28.5 -37.5t-27.5 -49.5q20 -65 28.5 -90.5t21.5 -52.5q14 -27 32 -42.5t43 -15.5zM309 239q19 0 36.5 8.5t32.5 24.5t28.5 37.5t27.5 48.5q-25 79 -31 98t-19 46q-14 27 -32 43t-43 16q-17 0 -31.5 -9t-24.5 -28q-11 -20 -17 -50.5t-6 -73.5
q1 -43 7 -74t17 -51q10 -19 24 -27.5t31 -8.5z" />
    <glyph glyph-name="orthogonal" unicode="&#x221f;" horiz-adv-x="800" 
d="M100 0v700h200v-540h420v-160h-620z" />
    <glyph glyph-name="intersection" unicode="&#x2229;" horiz-adv-x="1000" 
d="M170 0v449q0 65 25 114.5t69 81.5q45 33 105.5 49t131.5 16t131 -16t105 -49q44 -32 68.5 -81.5t24.5 -114.5v-449h-200v435q0 31 -6.5 54t-22.5 39q-15 16 -40 24t-61 8t-61 -8.5t-40 -24.5t-22 -39.5t-7 -55.5v-432h-200z" />
    <glyph glyph-name="integral" unicode="&#x222b;" horiz-adv-x="800" 
d="M237 -205q-18 0 -37 1.5t-37 4.5q-19 3 -37 7t-36 10l20 126q15 -5 28.5 -8.5t26.5 -5.5q12 -2 23.5 -3.5t22.5 -1.5q21 0 37.5 5.5t27.5 16.5q12 12 18 30t6 43v611q0 53 21 93t58 65q36 26 83 38t100 12q18 0 37 -1.5t37 -4.5q19 -3 37 -7t36 -10l-20 -126
q-15 5 -28.5 8.5t-26.5 5.5q-12 2 -23.5 3.5t-22.5 1.5q-21 0 -37 -5.5t-28 -16.5q-11 -12 -17 -30t-6 -43v-611q0 -53 -21 -93t-58 -65q-37 -26 -84 -38t-100 -12z" />
    <glyph glyph-name="equivalence" unicode="&#x2261;" horiz-adv-x="900" 
d="M100 520v160h700v-160h-700zM100 260v160h700v-160h-700zM100 0v160h700v-160h-700z" />
    <glyph glyph-name="integralbt" unicode="&#x2321;" horiz-adv-x="700" 
d="M237 -205q-18 0 -37 1.5t-37 4.5q-19 3 -37 7t-36 10l20 126q15 -5 28.5 -8.5t26.5 -5.5q12 -2 23.5 -3.5t22.5 -1.5q21 0 37.5 5.5t27.5 16.5q12 12 18 30t6 43v780h200v-797q0 -53 -21 -93t-58 -65q-37 -26 -84 -38t-100 -12z" />
    <glyph glyph-name="dollar" unicode="$" horiz-adv-x="800" 
d="M275 562q0 -27 17 -44t58 -28v135q-42 -5 -58.5 -20t-16.5 -43zM546 240q0 29 -21.5 46.5t-74.5 29.5v-143q54 2 75 18t21 49zM460 -50h-120v92q-94 7 -155.5 32t-110.5 55l42 131q48 -29 100 -53t134 -32v158q-140 20 -198.5 64.5t-58.5 134.5q0 86 61 148.5t186 75.5
v94h120v-93q64 -6 127 -25.5t97 -46.5l-32 -125q-49 26 -95 43t-107 22v-153q153 -22 216 -69.5t63 -140.5q0 -96 -71.5 -153t-197.5 -67v-92z" />
    <glyph glyph-name="cent" unicode="&#xa2;" horiz-adv-x="800" 
d="M290 337q0 -51 14 -78t51 -35v351q-37 -7 -51 -34t-14 -78v-126zM340 -50v143q-116 13 -178 73t-62 161v150q0 103 65 160.5t175 69.5v143h120v-143q110 -12 164 -69.5t67 -153.5l-183 -16q-4 49 -18 73.5t-45 32.5v-351q35 7 47 30t16 69l183 -16q-7 -93 -56 -148.5
t-175 -65.5v-142h-120z" />
    <glyph glyph-name="sterling" unicode="&#xa3;" horiz-adv-x="900" 
d="M830 277q-8 -140 -81.5 -213.5t-198.5 -73.5q-49 0 -93.5 17.5t-84.5 34.5q-42 17 -80 24t-72 -15l-92 -60l-81 120l106 64q34 21 61 58t27 74q0 13 -3 25t-7 23h-151v100h92q-13 22 -23 47.5t-10 54.5q0 113 84.5 183t237.5 70q180 0 256 -72t83 -209l-200 -10
q-5 63 -30.5 97t-109.5 34q-64 0 -92 -27t-28 -68q0 -25 13.5 -49.5t29.5 -50.5h157v-100h-103q3 -10 4.5 -20t1.5 -20q0 -40 -38 -66t-112 -52l19 -39q45 23 78 26t59 -3q26 -5 49.5 -13.5t51.5 -8.5q46 0 60 29.5t20 98.5z" />
    <glyph glyph-name="currency" unicode="&#xa4;" horiz-adv-x="900" 
d="M450 240q45 0 67.5 18t22.5 59v162q0 41 -22.5 61t-67.5 20t-67.5 -20t-22.5 -61v-162q0 -41 22.5 -59t67.5 -18zM450 90q-54 0 -100 11t-80 33l-106 -108l-83 83l115 116q-8 20 -12 43t-4 49v162q0 27 4.5 51t12.5 44l-116 117l83 83l107 -109q34 22 80 33.5t100 11.5
t100 -11.5t80 -34.5l105 105l83 -83l-114 -114q7 -20 11 -43.5t4 -49.5v-162q0 -22 -3 -41.5t-8 -36.5l110 -125l-83 -83l-104 104q-34 -22 -81 -33.5t-101 -11.5z" />
    <glyph glyph-name="yen" unicode="&#xa5;" horiz-adv-x="800" 
d="M700 100h-200v-100h-200v100h-200v100h200v100h-200v100h142l-232 400h209l185 -342l188 342h198l-232 -400h142v-100h-200v-100h200v-100z" />
    <glyph glyph-name="franc" unicode="&#x20a3;" horiz-adv-x="800" 
d="M450 130h-150v-130h-200v130h-100v120h100v550h620v-150h-420v-120h350v-150h-350v-130h150v-120z" />
    <glyph glyph-name="lira" unicode="&#x20a4;" horiz-adv-x="900" 
d="M830 277q-4 -70 -24.5 -124t-56.5 -90t-86 -54.5t-113 -18.5q-23 0 -46 4.5t-44 11.5q-22 8 -17 5.5t-71 30.5q-24 10 -43 16t-38 9q-19 2 -36.5 -1.5t-34.5 -14.5l-92 -60l-81 120l106 64q13 8 26 19.5t24 24.5t19.5 27.5t13.5 28.5h-156v100h139q-2 4 -5 9t-5 9
q-3 5 -5 9.5t-6 10.5q-5 9 -8.5 14.5t-6.5 11.5q-4 7 -7.5 13.5t-6.5 12.5h-89v100h60q0 2 -0.5 4.5t-0.5 4.5v4v5q0 47 21.5 88.5t63.5 72.5q41 31 101.5 48.5t135.5 17.5q89 0 152.5 -18t102.5 -53q40 -36 60 -87.5t24 -122.5l-200 -10q-3 35 -9.5 58.5t-21.5 39.5
t-41 24.5t-68 8.5q-30 0 -52 -6t-37 -17q-14 -12 -21.5 -27.5t-9.5 -34.5h180v-100h-145q2 -3 4 -5.5t3 -4.5q2 -3 5 -7t5 -6q7 -9 12 -16.5t10 -15.5t9.5 -17t8.5 -18h88v-100h-89q-8 -11 -20.5 -21t-29.5 -20q-17 -9 -38.5 -18t-49.5 -19l19 -39q22 11 41 17.5t36 8.5
t31.5 1t28.5 -4q11 -2 41 -11t27 -8q-4 1 8 -1t25 -2q23 0 37.5 7t22.5 22t12.5 38t7.5 61z" />
    <glyph glyph-name="peseta" unicode="&#x20a7;" horiz-adv-x="1200" 
d="M219 387h61q20 0 35 6t25 18q10 13 15.5 33t5.5 49v73q0 29 -5.5 49t-15.5 33q-10 12 -25 18t-35 6h-61v-285zM1123 170q0 -45 -15 -79.5t-41 -56.5t-59 -33t-70 -11q-13 0 -26.5 1.5t-27.5 4.5q-13 3 -26.5 7t-26.5 9v-1q-27 -7 -43.5 -10.5t-32.5 -6.5q-9 -2 -15 -2.5
t-11 -0.5q-36 0 -66 12t-53 38q-23 27 -36 70.5t-13 104.5v259l-62 9v-12q0 -63 -18.5 -105t-49.5 -65t-69 -32t-82 -9h-61v-261h-138v800h200q41 0 77 -8.5t66 -30.5q31 -22 50.5 -62t23.5 -99h63v200h138v-200h120v-48q11 14 25.5 25t31.5 19q16 7 33.5 10.5t36.5 3.5
t40 -3t41 -10q21 -6 39.5 -14.5t32.5 -18.5l-45 -113q-13 8 -25 14t-24 9q-11 4 -22.5 6t-23.5 2q-11 0 -19 -3t-13 -9q-5 -5 -7 -13.5t-2 -19.5q0 -19 8.5 -34.5t21.5 -28.5q14 -13 24.5 -20t48.5 -32q23 -15 40 -29t31 -32t22.5 -40.5t8.5 -50.5zM938 118q9 0 17.5 2
t15.5 7q7 4 11 13t4 23t-8 25.5t-21 21.5q-14 10 -38.5 25.5t-34.5 21.5q-22 14 -40 30t-32 36q-14 21 -22.5 47.5t-8.5 59.5v11.5t1 10.5q0 5 0.5 10t1.5 10h-85v-257q0 -20 2 -37.5t6 -29.5q4 -13 11 -20.5t17 -7.5q5 0 15.5 2.5t21.5 5.5q6 2 13.5 4t17.5 5l4 -19l12 31
q12 -6 26.5 -12t30.5 -10t32 -6.5t30 -2.5z" />
    <glyph glyph-name="Euro" unicode="&#x20ac;" horiz-adv-x="900" 
d="M480 -10q-170 0 -254.5 67t-84.5 187v2h-101v98h100v110h-100v98h101v2q0 121 85.5 188.5t254.5 67.5q174 0 258 -73t91 -228l-190 -10q-8 99 -42 135t-118 36q-75 0 -111.5 -25t-36.5 -91v-2h178v-98h-180v-110h180v-98h-178v-2q0 -65 36 -89.5t112 -24.5q84 0 118 35
t42 132l190 -10q-7 -154 -91 -225.5t-259 -71.5z" />
    <glyph glyph-name="florin" unicode="&#x192;" horiz-adv-x="800" 
d="M237 -5q-18 0 -37 1.5t-37 4.5q-19 3 -37 7t-36 10l20 126q15 -5 28.5 -8.5t26.5 -5.5q12 -2 23.5 -3.5t22.5 -1.5q21 0 37 5.5t28 16.5q11 12 17 30t6 43v170h-199v140h200v101q0 48 18 87t52 66t82.5 41t109.5 14q18 0 37 -1.5t37 -4.5q19 -3 37 -7t36 -10l-20 -126
q-15 5 -28.5 8.5t-26.5 5.5q-12 2 -23.5 3.5t-22.5 1.5q-21 0 -37 -5.5t-28 -16.5q-11 -12 -17 -30t-6 -43v-84h200v-140h-200v-187q0 -48 -18 -87t-52 -66t-83 -41t-110 -14z" />
    <glyph glyph-name="asciicircum" unicode="^" horiz-adv-x="1000" 
d="M705 200l-205 410l-205 -410h-195l300 600h200l300 -600h-195z" />
    <glyph glyph-name="asciitilde" unicode="~" horiz-adv-x="1000" 
d="M661 190q-78 0 -126.5 34.5t-81.5 76.5q-33 41 -58 75.5t-58 34.5q-37 0 -49.5 -29t-12.5 -109v-73h-175v79q0 155 60 243t181 88q80 0 129 -34.5t81 -75.5t56 -75.5t54 -34.5q41 0 54 31.5t13 117.5v61h172v-65q0 -180 -61.5 -262.5t-177.5 -82.5z" />
    <glyph glyph-name="acute" unicode="&#xb4;" horiz-adv-x="700" 
d="M216 700zM216 700l106 200h250l-225 -200h-131z" />
    <glyph glyph-name="grave" unicode="`" horiz-adv-x="700" 
d="M394 350l-251 450h283l95 -450h-127z" />
    <glyph glyph-name="hungarumlaut" unicode="&#x2dd;" horiz-adv-x="700" 
d="M156 700zM386 700l46 200h190l-135 -200h-101zM156 700l46 200h190l-135 -200h-101z" />
    <glyph glyph-name="circumflex" unicode="&#x2c6;" horiz-adv-x="700" 
d="M89 684zM151 684l-62 84l184 159h152l186 -159l-61 -83l-201 105z" />
    <glyph glyph-name="caron" unicode="&#x2c7;" horiz-adv-x="700" 
d="M89 704zM275 704l-186 159l61 83l201 -105l198 106l62 -84l-184 -159h-152z" />
    <glyph glyph-name="breve" unicode="&#x2d8;" horiz-adv-x="700" 
d="M83 693zM350 693q-135 0 -200.5 59t-66.5 181h160q1 -68 25 -94.5t82 -26.5t82 26.5t25 94.5h160q-1 -122 -66.5 -181t-200.5 -59z" />
    <glyph glyph-name="tilde" unicode="&#x2dc;" horiz-adv-x="700" 
d="M98 710zM446 710q-49 0 -75 15t-42 32q-16 18 -30 32.5t-33 14.5q-16 0 -29 -14.5t-12 -60.5v-9h-127v15q0 83 42 139t116 56q48 0 74 -15t43 -32q17 -18 31 -33t31 -15q16 0 29 14.5t12 60.5v9h127v-15q0 -82 -42 -138t-115 -56z" />
    <glyph glyph-name="macron" unicode="&#x2c9;" horiz-adv-x="700" 
d="M125 725zM125 725v150h450v-150h-450z" />
    <glyph glyph-name="macron" unicode="&#xaf;" horiz-adv-x="700" 
d="M125 725zM125 725v150h450v-150h-450z" />
    <glyph glyph-name="dieresis" unicode="&#xa8;" horiz-adv-x="700" 
d="M122 690zM220 690q-43 0 -70.5 17t-27.5 59v15q0 43 27.5 61t70.5 18q44 0 71 -18t27 -61v-15q0 -42 -27.5 -59t-70.5 -17zM480 690q-43 0 -70.5 17t-27.5 59v15q0 43 27.5 61t70.5 18q44 0 71 -18t27 -61v-15q0 -42 -27.5 -59t-70.5 -17z" />
    <glyph glyph-name="dotaccent" unicode="&#x2d9;" horiz-adv-x="700" 
d="M222 690zM350 690q-57 0 -92.5 17t-35.5 59v15q0 43 35.5 61t92.5 18t92.5 -18t35.5 -61v-15q0 -42 -36 -59t-92 -17z" />
    <glyph glyph-name="ring" unicode="&#x2da;" horiz-adv-x="700" 
d="M140 675zM350 675q-94 0 -152 38t-58 117v32q0 80 58 119t152 39q95 0 152.5 -39t57.5 -119v-32q0 -79 -58 -117t-152 -38zM350 766q35 0 53.5 14.5t18.5 49.5v32q0 34 -18.5 50.5t-53.5 16.5q-36 0 -54 -16.5t-18 -50.5v-32q0 -35 18 -49.5t54 -14.5z" />
    <glyph glyph-name="cedilla" unicode="&#xb8;" horiz-adv-x="700" 
d="M95 0zM320 0l20 42q86 -8 140 -35.5t54 -94.5q0 -75 -67 -106.5t-149 -31.5q-96 0 -157 31.5t-66 104.5l168 10q2 -19 12.5 -26.5t34.5 -7.5q27 0 40.5 10.5t13.5 44.5q0 25 -9 38.5t-35 20.5z" />
    <glyph glyph-name="ogonek" unicode="&#x2db;" horiz-adv-x="700" 
d="M185 0zM366 -224q-84 0 -132.5 32t-48.5 96q0 66 51 111.5t111 61.5l27 -54q-34 -21 -41.5 -40t-7.5 -36q0 -26 17.5 -38.5t57.5 -12.5q18 0 42 2.5t53 7.5v-116q-36 -7 -68.5 -10.5t-60.5 -3.5z" />
    <glyph glyph-name="tonos" unicode="&#x384;" horiz-adv-x="700" 
d="M256 700zM256 700l46 200h240l-165 -200h-121z" />
    <glyph glyph-name="dieresistonos" unicode="&#x385;" horiz-adv-x="700" 
d="M37 690zM261 700l46 200h170l-105 -200h-111zM125 690q-39 0 -63.5 17t-24.5 59v15q0 43 24.5 61t63.5 18q40 0 64 -18t24 -61v-15q0 -42 -25 -59t-63 -17zM575 690q-39 0 -63.5 17t-24.5 59v15q0 43 24.5 61t63.5 18q40 0 64 -18t24 -61v-15q0 -42 -25 -59t-63 -17z" />
    <glyph glyph-name="copyright" unicode="&#xa9;" horiz-adv-x="1300" 
d="M650 -110q-228 0 -339 95.5t-111 291.5v182q0 198 111.5 294.5t339.5 96.5q227 0 338 -96.5t111 -294.5v-182q0 -196 -111 -291.5t-339 -95.5zM650 -45q202 0 291 75t89 247v182q0 174 -89 250t-291 76t-291 -76t-89 -250v-182q0 -172 89 -247t291 -75zM651 91
q-132 0 -189.5 54.5t-57.5 158.5v135q0 102 57.5 156t188.5 54q128 0 190 -49.5t69 -153.5l-174 -6q-3 55 -20 73.5t-57 18.5q-38 0 -56 -22.5t-18 -73.5v-132q0 -51 18 -73.5t58 -22.5q39 0 55.5 16t19.5 67l174 -6q-7 -101 -68.5 -147.5t-189.5 -46.5z" />
    <glyph glyph-name="registered" unicode="&#xae;" horiz-adv-x="1000" 
d="M500 118q-177 0 -263.5 70t-86.5 213v173q0 145 86.5 215.5t264.5 70.5q176 0 262.5 -70.5t86.5 -215.5v-173q0 -143 -86.5 -213t-263.5 -70zM500 176q146 0 217.5 55.5t71.5 169.5v173q0 116 -71.5 172.5t-217.5 56.5t-217.5 -56.5t-71.5 -172.5v-173
q0 -114 71.5 -169.5t217.5 -55.5zM458 505h67q16 0 29.5 6t13.5 27v28q0 25 -13.5 33.5t-29.5 8.5h-67v-103zM458 304h-119v376h200q54 0 101.5 -25t47.5 -89v-28q0 -35 -19.5 -55t-47.5 -30l91 -149h-128l-88 138h-38v-138z" />
    <glyph glyph-name="trademark" unicode="&#x2122;" horiz-adv-x="1500" 
d="M342 331v368h-172v101h472v-101h-161v-368h-139zM862 617v-286h-131v469h159l110 -267l110 267h160v-469h-131l-1 291l-88 -204h-102z" />
    <glyph glyph-name="degree" unicode="&#xb0;" horiz-adv-x="600" 
d="M300 316q-103 0 -166.5 44.5t-63.5 137.5v123q0 93 63.5 139t166.5 46q104 0 167 -46t63 -139v-123q0 -93 -63.5 -137.5t-166.5 -44.5zM300 443q37 0 56 17.5t19 57.5v83q0 40 -19 59t-56 19q-38 0 -56.5 -19t-18.5 -59v-83q0 -40 18.5 -57.5t56.5 -17.5z" />
    <glyph glyph-name="careof" unicode="&#x2105;" horiz-adv-x="1300" 
d="M310 0l500 800h180l-500 -800h-180zM370 541l169 -8q0 -42 -17 -73t-48 -52q-32 -20 -76 -30t-98 -10q-55 0 -99 9.5t-75 28.5q-32 19 -49 48.5t-17 68.5v130q0 39 17 69t49 49q32 20 76 29.5t98 9.5q55 0 99 -8.5t75 -27.5q32 -19 48.5 -49t16.5 -72l-169 -18
q0 16 -5 28t-14 20t-22 12t-29 4t-29 -3.5t-23 -9.5q-9 -7 -14 -17t-5 -24v-114q0 -14 5 -23.5t14 -16.5q9 -6 22.5 -9t29.5 -3t29 3.5t22 11.5q9 7 14 19t5 28zM1000 -12q-55 0 -99 9.5t-75 28.5q-32 19 -49 48.5t-17 68.5v140q0 39 17 69t49 49q32 20 76 29.5t98 9.5
q55 0 99 -9.5t75 -29.5q31 -19 48 -49t17 -69v-140q0 -39 -17 -68.5t-48 -48.5q-32 -19 -76 -28.5t-98 -9.5zM1000 104q16 0 29 3t22 9q9 7 14 16.5t5 23.5v114q0 14 -5 24t-14 17q-9 6 -22 9.5t-29 3.5t-29 -3.5t-23 -9.5q-9 -7 -14 -17t-5 -24v-114q0 -14 5 -23.5
t14 -16.5q9 -6 22.5 -9t29.5 -3z" />
    <glyph glyph-name="uni2117" unicode="&#x2117;" horiz-adv-x="1300" 
d="M650 -110q-228 0 -339 95.5t-111 291.5v182q0 198 111.5 294.5t339.5 96.5q227 0 338 -96.5t111 -294.5v-182q0 -196 -111 -291.5t-339 -95.5zM650 -44q202 0 291 75t89 246v182q0 173 -89 249t-291 76t-291 -76t-89 -249v-182q0 -171 89 -246t291 -75zM434 104v540h243
q97 0 174.5 -41.5t77.5 -148.5v-38q0 -105 -78 -141t-174 -36h-63v-135h-180zM614 354h63q31 0 51.5 11t20.5 51v38q0 44 -20.5 58.5t-51.5 14.5h-63v-173z" />
    <glyph glyph-name="estimated" unicode="&#x212e;" horiz-adv-x="1000" 
d="M495 -12q-180 0 -288.5 122.5t-108.5 291.5q0 171 107 292t294 121t291.5 -138t108.5 -327h-607v-210q38 -33 90.5 -52.5t112.5 -19.5q107 0 183 38.5t120 107.5l48 -60q-51 -79 -139.5 -122.5t-211.5 -43.5zM292 430h409v230q-38 31 -89 53t-115 22q-59 0 -112.5 -18.5
t-92.5 -53.5v-233z" />
    <glyph glyph-name="arrowupdn" unicode="&#x2195;" 
d="M560 -150h-20l-365 380v20h275v300h-275v20l365 380h20l365 -380v-20h-275v-300h275v-20z" />
    <glyph glyph-name="arrowupdnbse" unicode="&#x21a8;" 
d="M175 0zM200 -260v160h700v-160h-700zM560 -150h-20l-365 380v20h275v300h-275v20l365 380h20l365 -380v-20h-275v-300h275v-20z" />
    <glyph glyph-name="logicalnotreversed" unicode="&#x2310;" horiz-adv-x="900" 
d="M100 0v430h700v-160h-540v-270h-160z" />
    <glyph glyph-name="lighthorzbxd" unicode="&#x2500;" 
d="M-20 350h1140v-100h-1140v100z" />
    <glyph glyph-name="heavyhorzbxd" unicode="&#x2501;" 
d="M-20 400h1140v-200h-1140v200z" />
    <glyph glyph-name="lightvertbxd" unicode="&#x2502;" 
d="M500 1050h100v-1500h-100v1500z" />
    <glyph glyph-name="heavyvertbxd" unicode="&#x2503;" 
d="M450 1050h200v-1500h-200v1500z" />
    <glyph glyph-name="lighttrpldashhorzbxd" unicode="&#x2504;" 
d="M61 350h244v-100h-244v100zM427 350h244v-100h-244v100zM793 350h244v-100h-244v100z" />
    <glyph glyph-name="heavytrpldashhorzbxd" unicode="&#x2505;" 
d="M61 400h244v-200h-244v200zM427 400h244v-200h-244v200zM793 400h244v-200h-244v200z" />
    <glyph glyph-name="lighttrpldashvertbxd" unicode="&#x2506;" 
d="M500 55h100v-244h-100v244zM500 421h100v-244h-100v244zM500 787h100v-244h-100v244zM500 1153h100v-244h-100v244z" />
    <glyph glyph-name="heavytrpldashvertbxd" unicode="&#x2507;" 
d="M450 55h200v-244h-200v244zM450 421h200v-244h-200v244zM450 787h200v-244h-200v244zM450 1153h200v-244h-200v244z" />
    <glyph glyph-name="lightquaddashhorzbxd" unicode="&#x2508;" 
d="M34 350h207v-100h-207v100zM309 350h207v-100h-207v100zM584 350h207v-100h-207v100zM859 350h207v-100h-207v100z" />
    <glyph glyph-name="heavyquaddashhorzbxd" unicode="&#x2509;" 
d="M34 400h207v-200h-207v200zM309 400h207v-200h-207v200zM584 400h207v-200h-207v200zM859 400h207v-200h-207v200z" />
    <glyph glyph-name="lightquaddashvertbxd" unicode="&#x250a;" 
d="M500 -9h100v-207h-100v207zM500 266h100v-207h-100v207zM500 541h100v-207h-100v207zM500 816h100v-207h-100v207z" />
    <glyph glyph-name="heavyquaddashvertbxd" unicode="&#x250b;" 
d="M450 -9h200v-207h-200v207zM450 266h200v-207h-200v207zM450 541h200v-207h-200v207zM450 816h200v-207h-200v207z" />
    <glyph glyph-name="lightdnrightbxd" unicode="&#x250c;" 
d="M500 350h620v-100h-520v-700h-100v800z" />
    <glyph glyph-name="dnlightrightheavybxd" unicode="&#x250d;" 
d="M500 400h620v-200h-520v-650h-100v850z" />
    <glyph glyph-name="dnheavyrightlightbxd" unicode="&#x250e;" 
d="M450 350h670v-100h-470v-700h-200v800z" />
    <glyph glyph-name="heavydnrightbxd" unicode="&#x250f;" 
d="M450 400h670v-200h-470v-650h-200v850z" />
    <glyph glyph-name="lightdnleftbxd" unicode="&#x2510;" 
d="M-20 350h620v-800h-100v700h-520v100z" />
    <glyph glyph-name="dnlightleftheavybxd" unicode="&#x2511;" 
d="M-20 400h620v-850h-100v650h-520v200z" />
    <glyph glyph-name="dnheavyleftlightbxd" unicode="&#x2512;" 
d="M-20 350h670v-800h-200v700h-470v100z" />
    <glyph glyph-name="heavydnleftbxd" unicode="&#x2513;" 
d="M-20 400h670v-850h-200v650h-470v200z" />
    <glyph glyph-name="lightuprightbxd" unicode="&#x2514;" 
d="M500 1050h100v-700h520v-100h-620v800z" />
    <glyph glyph-name="uplightrightheavybxd" unicode="&#x2515;" 
d="M500 1050h100v-650h520v-200h-620v850z" />
    <glyph glyph-name="upheavyrightlightbxd" unicode="&#x2516;" 
d="M450 1050h200v-700h470v-100h-670v800z" />
    <glyph glyph-name="heavyuprightbxd" unicode="&#x2517;" 
d="M450 1050h200v-650h470v-200h-670v850z" />
    <glyph glyph-name="lightupleftbxd" unicode="&#x2518;" 
d="M-20 350h520v700h100v-800h-620v100z" />
    <glyph glyph-name="uplightleftheavybxd" unicode="&#x2519;" 
d="M-20 400h520v650h100v-850h-620v200z" />
    <glyph glyph-name="upheavyleftlightbxd" unicode="&#x251a;" 
d="M-20 350h470v700h200v-800h-670v100z" />
    <glyph glyph-name="heavyupleftbxd" unicode="&#x251b;" 
d="M-20 400h470v650h200v-850h-670v200z" />
    <glyph glyph-name="lightvertrightbxd" unicode="&#x251c;" 
d="M500 1050h100v-700h520v-100h-520v-700h-100v1500z" />
    <glyph glyph-name="vertlightrightheavybxd" unicode="&#x251d;" 
d="M500 1050h100v-650h520v-200h-520v-650h-100v1500z" />
    <glyph glyph-name="upheavyrightdnlightbxd" unicode="&#x251e;" 
d="M450 1050h200v-700h470v-100h-520v-700h-100v700h-50v800z" />
    <glyph glyph-name="dnheavyrightuplightbxd" unicode="&#x251f;" 
d="M450 350h50v700h100v-700h520v-100h-470v-700h-200v800z" />
    <glyph glyph-name="vertheavyrightlightbxd" unicode="&#x2520;" 
d="M450 1050h200v-700h470v-100h-470v-700h-200v1500z" />
    <glyph glyph-name="dnlightrightupheavybxd" unicode="&#x2521;" 
d="M450 1050h200v-650h470v-200h-520v-650h-100v650h-50v850z" />
    <glyph glyph-name="uplightrightdnheavybxd" unicode="&#x2522;" 
d="M450 400h50v650h100v-650h520v-200h-470v-650h-200v850z" />
    <glyph glyph-name="heavyvertrightbxd" unicode="&#x2523;" 
d="M450 1050h200v-650h470v-200h-470v-650h-200v1500z" />
    <glyph glyph-name="lightvertleftbxd" unicode="&#x2524;" 
d="M-20 350h520v700h100v-1500h-100v700h-520v100z" />
    <glyph glyph-name="vertlightleftheavybxd" unicode="&#x2525;" 
d="M-20 400h520v650h100v-1500h-100v650h-520v200z" />
    <glyph glyph-name="upheavyleftdnlightbxd" unicode="&#x2526;" 
d="M-20 350h470v700h200v-800h-50v-700h-100v700h-520v100z" />
    <glyph glyph-name="dnheavyleftuplightbxd" unicode="&#x2527;" 
d="M-20 350h520v700h100v-700h50v-800h-200v700h-470v100z" />
    <glyph glyph-name="vertheavyleftlightbxd" unicode="&#x2528;" 
d="M-20 350h470v700h200v-1500h-200v700h-470v100z" />
    <glyph glyph-name="dnlightleftupheavybxd" unicode="&#x2529;" 
d="M-20 400h470v650h200v-850h-50v-650h-100v650h-520v200z" />
    <glyph glyph-name="uplightleftdnheavybxd" unicode="&#x252a;" 
d="M-20 400h520v650h100v-650h50v-850h-200v650h-470v200z" />
    <glyph glyph-name="heavyvertleftbxd" unicode="&#x252b;" 
d="M-20 400h470v650h200v-1500h-200v650h-470v200z" />
    <glyph glyph-name="lightdnhorzbxd" unicode="&#x252c;" 
d="M-20 350h1140v-100h-520v-700h-100v700h-520v100z" />
    <glyph glyph-name="leftheavyrightdnlightbxd" unicode="&#x252d;" 
d="M-20 400h620v-50h520v-100h-520v-700h-100v650h-520v200z" />
    <glyph glyph-name="rightheavyleftdnlightbxd" unicode="&#x252e;" 
d="M-20 350h520v50h620v-200h-520v-650h-100v700h-520v100z" />
    <glyph glyph-name="dnlighthorzheavybxd" unicode="&#x252f;" 
d="M-20 400h1140v-200h-520v-650h-100v650h-520v200z" />
    <glyph glyph-name="dnheavyhorzlightbxd" unicode="&#x2530;" 
d="M-20 350h1140v-100h-470v-700h-200v700h-470v100z" />
    <glyph glyph-name="rightlightleftdnheavybxd" unicode="&#x2531;" 
d="M-20 400h670v-50h470v-100h-470v-700h-200v650h-470v200z" />
    <glyph glyph-name="leftlightrightdnheavybxd" unicode="&#x2532;" 
d="M-20 350h470v50h670v-200h-470v-650h-200v700h-470v100z" />
    <glyph glyph-name="heavydnhorzbxd" unicode="&#x2533;" 
d="M-20 400h1140v-200h-470v-650h-200v650h-470v200z" />
    <glyph glyph-name="lightuphorzbxd" unicode="&#x2534;" 
d="M-20 350h520v700h100v-700h520v-100h-1140v100z" />
    <glyph glyph-name="leftheavyrightuplightbxd" unicode="&#x2535;" 
d="M-20 400h520v650h100v-700h520v-100h-520v-50h-620v200z" />
    <glyph glyph-name="rightheavyleftuplightbxd" unicode="&#x2536;" 
d="M-20 350h520v700h100v-650h520v-200h-620v50h-520v100z" />
    <glyph glyph-name="uplighthorzheavybxd" unicode="&#x2537;" 
d="M-20 400h520v650h100v-650h520v-200h-1140v200z" />
    <glyph glyph-name="upheavyhorzlightbxd" unicode="&#x2538;" 
d="M-20 350h470v700h200v-700h470v-100h-1140v100z" />
    <glyph glyph-name="rightlightleftupheavybxd" unicode="&#x2539;" 
d="M-20 400h470v650h200v-700h470v-100h-470v-50h-670v200z" />
    <glyph glyph-name="leftlightrightupheavybxd" unicode="&#x253a;" 
d="M-20 350h470v700h200v-650h470v-200h-670v50h-470v100z" />
    <glyph glyph-name="heavyuphorzbxd" unicode="&#x253b;" 
d="M-20 400h470v650h200v-650h470v-200h-1140v200z" />
    <glyph glyph-name="lightverthorzbxd" unicode="&#x253c;" 
d="M-20 350h520v700h100v-700h520v-100h-520v-700h-100v700h-520v100z" />
    <glyph glyph-name="leftheavyrightvertlightbxd" unicode="&#x253d;" 
d="M-20 400h520v650h100v-700h520v-100h-520v-700h-100v650h-520v200z" />
    <glyph glyph-name="rightheavyleftvertlightbxd" unicode="&#x253e;" 
d="M-20 350h520v700h100v-650h520v-200h-520v-650h-100v700h-520v100z" />
    <glyph glyph-name="vertlighthorzheavybxd" unicode="&#x253f;" 
d="M-20 400h520v650h100v-650h520v-200h-520v-650h-100v650h-520v200z" />
    <glyph glyph-name="upheavydnhorzlightbxd" unicode="&#x2540;" 
d="M-20 350h470v700h200v-700h470v-100h-520v-700h-100v700h-520v100z" />
    <glyph glyph-name="dnheavyuphorzlightbxd" unicode="&#x2541;" 
d="M-20 350h520v700h100v-700h520v-100h-470v-700h-200v700h-470v100z" />
    <glyph glyph-name="vertheavyhorzlightbxd" unicode="&#x2542;" 
d="M-20 350h470v700h200v-700h470v-100h-470v-700h-200v700h-470v100z" />
    <glyph glyph-name="leftupheavyrightdnlightbxd" unicode="&#x2543;" 
d="M-20 400h470v650h200v-700h470v-100h-470v-50h-50v-650h-100v650h-520v200z" />
    <glyph glyph-name="rightupheavyleftdnlightbxd" unicode="&#x2544;" 
d="M-20 350h470v700h200v-650h470v-200h-520v-650h-100v650h-50v50h-470v100z" />
    <glyph glyph-name="leftdnheavyrightuplightbxd" unicode="&#x2545;" 
d="M-20 400h520v650h100v-650h50v-50h470v-100h-470v-700h-200v650h-470v200z" />
    <glyph glyph-name="rightdnheavyleftuplightbxd" unicode="&#x2546;" 
d="M-20 350h470v50h50v650h100v-650h520v-200h-470v-650h-200v700h-470v100z" />
    <glyph glyph-name="dnlightuphorzheavybxd" unicode="&#x2547;" 
d="M-20 400h470v650h200v-650h470v-200h-520v-650h-100v650h-520v200z" />
    <glyph glyph-name="uplightdnhorzheavybxd" unicode="&#x2548;" 
d="M-20 400h520v650h100v-650h520v-200h-470v-650h-200v650h-470v200z" />
    <glyph glyph-name="rightlightleftvertheavybxd" unicode="&#x2549;" 
d="M-20 400h470v650h200v-700h470v-100h-470v-700h-200v650h-470v200z" />
    <glyph glyph-name="leftlightrightvertheavybxd" unicode="&#x254a;" 
d="M-20 350h470v700h200v-650h470v-200h-470v-650h-200v700h-470v100z" />
    <glyph glyph-name="heavyverthorzbxd" unicode="&#x254b;" 
d="M-20 400h470v650h200v-650h470v-200h-470v-650h-200v650h-470v200z" />
    <glyph glyph-name="lightdbldashhorzbxd" unicode="&#x254c;" 
d="M137 350h275v-100h-275v100zM687 350h275v-100h-275v100z" />
    <glyph glyph-name="heavydbldashhorzbxd" unicode="&#x254d;" 
d="M137 400h275v-200h-275v200zM687 400h275v-200h-275v200z" />
    <glyph glyph-name="lightdbldashvertbxd" unicode="&#x254e;" 
d="M500 162h100v-275h-100v275zM500 712h100v-275h-100v275z" />
    <glyph glyph-name="heavydbldashvertbxd" unicode="&#x254f;" 
d="M450 162h200v-275h-200v275zM450 712h200v-275h-200v275z" />
    <glyph glyph-name="dblhorzbxd" unicode="&#x2550;" 
d="M-20 450h1140v-100h-1140v100zM-20 250h1140v-100h-1140v100z" />
    <glyph glyph-name="dblvertbxd" unicode="&#x2551;" 
d="M400 1050h100v-1500h-100v1500zM600 1050h100v-1500h-100v1500z" />
    <glyph glyph-name="dnsngrightdblbxd" unicode="&#x2552;" 
d="M500 450h620v-100h-520v-100h520v-100h-520v-600h-100v900z" />
    <glyph glyph-name="dndblrightsngbxd" unicode="&#x2553;" 
d="M400 350h720v-100h-420v-700h-100v700h-100v-700h-100v800z" />
    <glyph glyph-name="dbldnrightbxd" unicode="&#x2554;" 
d="M400 450h720v-100h-620v-800h-100v900zM600 250h520v-100h-420v-600h-100v700z" />
    <glyph glyph-name="dnsngleftdblbxd" unicode="&#x2555;" 
d="M-20 450h620v-900h-100v600h-520v100h520v100h-520v100z" />
    <glyph glyph-name="dndblleftsngbxd" unicode="&#x2556;" 
d="M-20 350h720v-800h-100v700h-100v-700h-100v700h-420v100z" />
    <glyph glyph-name="dbldnleftbxd" unicode="&#x2557;" 
d="M-20 450h720v-900h-100v800h-620v100zM-20 250h520v-700h-100v600h-420v100z" />
    <glyph glyph-name="upsngrightdblbxd" unicode="&#x2558;" 
d="M500 1050h100v-600h520v-100h-520v-100h520v-100h-620v900z" />
    <glyph glyph-name="updblrightsngbxd" unicode="&#x2559;" 
d="M400 1050h100v-700h100v700h100v-700h420v-100h-720v800z" />
    <glyph glyph-name="dbluprightbxd" unicode="&#x255a;" 
d="M400 1050h100v-800h620v-100h-720v900zM600 1050h100v-600h420v-100h-520v700z" />
    <glyph glyph-name="upsngleftdblbxd" unicode="&#x255b;" 
d="M-20 450h520v600h100v-900h-620v100h520v100h-520v100z" />
    <glyph glyph-name="updblleftsngbxd" unicode="&#x255c;" 
d="M-20 350h420v700h100v-700h100v700h100v-800h-720v100z" />
    <glyph glyph-name="dblupleftbxd" unicode="&#x255d;" 
d="M-20 250h620v800h100v-900h-720v100zM-20 450h420v600h100v-700h-520v100z" />
    <glyph glyph-name="vertsngrightdblbxd" unicode="&#x255e;" 
d="M500 1050h100v-600h520v-100h-520v-100h520v-100h-520v-600h-100v1500z" />
    <glyph glyph-name="vertdblrightsngbxd" unicode="&#x255f;" 
d="M600 1050h100v-700h420v-100h-420v-700h-100v1500zM400 1050h100v-1500h-100v1500z" />
    <glyph glyph-name="dblvertrightbxd" unicode="&#x2560;" 
d="M400 1050h100v-1500h-100v1500zM600 1050h100v-600h420v-100h-520v700zM600 250h520v-100h-420v-600h-100v700z" />
    <glyph glyph-name="vertsngleftdblbxd" unicode="&#x2561;" 
d="M-20 450h520v600h100v-1500h-100v600h-520v100h520v100h-520v100z" />
    <glyph glyph-name="vertdblleftsngbxd" unicode="&#x2562;" 
d="M-20 350h420v700h100v-1500h-100v700h-420v100zM600 1050h100v-1500h-100v1500z" />
    <glyph glyph-name="dblvertleftbxd" unicode="&#x2563;" 
d="M600 1050h100v-1500h-100v1500zM-20 250h520v-700h-100v600h-420v100zM-20 450h420v600h100v-700h-520v100z" />
    <glyph glyph-name="dnsnghorzdblbxd" unicode="&#x2564;" 
d="M-20 250h1140v-100h-520v-600h-100v600h-520v100zM-20 450h1140v-100h-1140v100z" />
    <glyph glyph-name="dndblhorzsngbxd" unicode="&#x2565;" 
d="M-20 350h1140v-100h-420v-700h-100v700h-100v-700h-100v700h-420v100z" />
    <glyph glyph-name="dbldnhorzbxd" unicode="&#x2566;" 
d="M-20 450h1140v-100h-1140v100zM600 250h520v-100h-420v-600h-100v700zM-20 250h520v-700h-100v600h-420v100z" />
    <glyph glyph-name="upsnghorzdblbxd" unicode="&#x2567;" 
d="M-20 450h520v600h100v-600h520v-100h-1140v100zM-20 250h1140v-100h-1140v100z" />
    <glyph glyph-name="updblhorzsngbxd" unicode="&#x2568;" 
d="M-20 350h420v700h100v-700h100v700h100v-700h420v-100h-1140v100z" />
    <glyph glyph-name="dbluphorzbxd" unicode="&#x2569;" 
d="M-20 250h1140v-100h-1140v100zM-20 450h420v600h100v-700h-520v100zM600 1050h100v-600h420v-100h-520v700z" />
    <glyph glyph-name="vertsnghorzdblbxd" unicode="&#x256a;" 
d="M-20 450h520v600h100v-600h520v-100h-520v-100h520v-100h-520v-600h-100v600h-520v100h520v100h-520v100z" />
    <glyph glyph-name="vertdblhorzsngbxd" unicode="&#x256b;" 
d="M-20 350h420v700h100v-700h100v700h100v-700h420v-100h-420v-700h-100v700h-100v-700h-100v700h-420v100z" />
    <glyph glyph-name="dblverthorzbxd" unicode="&#x256c;" 
d="M-20 450h420v600h100v-700h-520v100zM-20 250h520v-700h-100v600h-420v100zM600 1050h100v-600h420v-100h-520v700zM600 250h520v-100h-420v-600h-100v700z" />
    <glyph glyph-name="lightarcdnrightbxd" unicode="&#x256d;" 
d="M500 -250q0 124 47 233.5t128.5 191t191 128.5t233.5 47h20v-100h-20q-69 0 -133 -18t-119.5 -50.5t-101 -78t-78 -101t-50.5 -119.5t-18 -133v-200h-100v200z" />
    <glyph glyph-name="lightarcdnleftbxd" unicode="&#x256e;" 
d="M600 -450h-100v200q0 103 -39.5 194.5t-107 159t-159 107t-194.5 39.5h-20v100h20q124 0 233.5 -47t191 -128.5t128.5 -191t47 -233.5v-200z" />
    <glyph glyph-name="lightarcupleftbxd" unicode="&#x256f;" 
d="M600 850q0 -124 -47 -233.5t-128.5 -191t-191 -128.5t-233.5 -47h-20v100h20q69 0 133 18t119.5 50.5t101 78t78 101t50.5 119.5t18 133v200h100v-200z" />
    <glyph glyph-name="lightarcuprightbxd" unicode="&#x2570;" 
d="M500 1050h100v-200q0 -69 18 -133t50.5 -119.5t78 -101t101 -78t119.5 -50.5t133 -18h20v-100h-20q-124 0 -233.5 47t-191 128.5t-128.5 191t-47 233.5v200z" />
    <glyph glyph-name="lightdiaguprightdnleftbxd" unicode="&#x2571;" 
d="M1029 850h71v-71l-1029 -1029h-71v71z" />
    <glyph glyph-name="lightdiagupleftdnrightbxd" unicode="&#x2572;" 
d="M1100 -179v-71h-71l-1029 1029v71h71z" />
    <glyph glyph-name="lightdiagcrossbxd" unicode="&#x2573;" 
d="M479 300l-479 479v71h71l479 -479l479 479h71v-71l-479 -479l479 -479v-71h-71l-479 479l-479 -479h-71v71z" />
    <glyph glyph-name="lightleftbxd" unicode="&#x2574;" 
d="M-20 350h620v-100h-620v100z" />
    <glyph glyph-name="lightupbxd" unicode="&#x2575;" 
d="M500 1050h100v-800h-100v800z" />
    <glyph glyph-name="lightrightbxd" unicode="&#x2576;" 
d="M500 350h620v-100h-620v100z" />
    <glyph glyph-name="lightdnbxd" unicode="&#x2577;" 
d="M500 350h100v-800h-100v800z" />
    <glyph glyph-name="heavyleftbxd" unicode="&#x2578;" 
d="M-20 400h620v-200h-620v200z" />
    <glyph glyph-name="heavyupbxd" unicode="&#x2579;" 
d="M450 1050h200v-800h-200v800z" />
    <glyph glyph-name="heavyrightbxd" unicode="&#x257a;" 
d="M500 400h620v-200h-620v200z" />
    <glyph glyph-name="heavydnbxd" unicode="&#x257b;" 
d="M450 350h200v-800h-200v800z" />
    <glyph glyph-name="lightleftheavyrightbxd" unicode="&#x257c;" 
d="M-20 350h520v50h620v-200h-620v50h-520v100z" />
    <glyph glyph-name="lightupheavydnbxd" unicode="&#x257d;" 
d="M450 350h50v700h100v-700h50v-800h-200v800z" />
    <glyph glyph-name="heavyleftlightrightbxd" unicode="&#x257e;" 
d="M-20 400h620v-50h520v-100h-520v-50h-620v200z" />
    <glyph glyph-name="heavyuplightdnbxd" unicode="&#x257f;" 
d="M450 1050h200v-800h-50v-700h-100v700h-50v800z" />
    <glyph glyph-name="uphalfblock" unicode="&#x2580;" 
d="M0 850h1100v-550h-1100v550z" />
    <glyph glyph-name="dneighthblock" unicode="&#x2581;" 
d="M0 -113h1100v-137h-1100v137z" />
    <glyph glyph-name="dnquarterblock" unicode="&#x2582;" 
d="M0 25h1100v-275h-1100v275z" />
    <glyph glyph-name="dnthreeeighthsblock" unicode="&#x2583;" 
d="M0 162h1100v-412h-1100v412z" />
    <glyph glyph-name="dnhalfblock" unicode="&#x2584;" 
d="M0 300h1100v-550h-1100v550z" />
    <glyph glyph-name="dnfiveeighthsblock" unicode="&#x2585;" 
d="M0 437h1100v-687h-1100v687z" />
    <glyph glyph-name="dnthreequartersblock" unicode="&#x2586;" 
d="M0 575h1100v-825h-1100v825z" />
    <glyph glyph-name="dnseveneighthsblock" unicode="&#x2587;" 
d="M0 712h1100v-962h-1100v962z" />
    <glyph glyph-name="fullblock" unicode="&#x2588;" 
d="M0 850h1100v-1100h-1100v1100z" />
    <glyph glyph-name="leftseveneighthsblock" unicode="&#x2589;" 
d="M0 850h962v-1100h-962v1100z" />
    <glyph glyph-name="leftthreequartersblock" unicode="&#x258a;" 
d="M0 850h825v-1100h-825v1100z" />
    <glyph glyph-name="leftfiveeighthsblock" unicode="&#x258b;" 
d="M0 850h687v-1100h-687v1100z" />
    <glyph glyph-name="lefthalfblock" unicode="&#x258c;" 
d="M0 850h550v-1100h-550v1100z" />
    <glyph glyph-name="leftthreeeighthsblock" unicode="&#x258d;" 
d="M0 850h412v-1100h-412v1100z" />
    <glyph glyph-name="leftquarterblock" unicode="&#x258e;" 
d="M0 850h275v-1100h-275v1100z" />
    <glyph glyph-name="lefteighthblock" unicode="&#x258f;" 
d="M0 850h137v-1100h-137v1100z" />
    </font>
</defs>
</svg>
