<?xml version="1.0" standalone="no"?>
<!DOCTYPE svg PUBLIC "-//W3C//DTD SVG 1.1//EN" "http://www.w3.org/Graphics/SVG/1.1/DTD/svg11.dtd" >
<svg xmlns="http://www.w3.org/2000/svg" xmlns:xlink="http://www.w3.org/1999/xlink" version="1.1">
<metadata>
Created by FontForge 20190801 at Sun Feb  2 16:42:47 2025
 By root
(c) Copyright The Font Bureau, Inc. 2014. All rights reserved.
</metadata>
<defs>
<font id="Input-BoldItalic" horiz-adv-x="1100" >
  <font-face 
    font-family="Input"
    font-weight="700"
    font-style="italic"
    font-stretch="normal"
    units-per-em="1100"
    panose-1="2 0 8 0 3 0 0 9 0 4"
    ascent="850"
    descent="-250"
    x-height="600"
    bbox="-324.407 -450 1656 1400"
    underline-thickness="0"
    underline-position="0"
    slope="-8"
    unicode-range="U+000D-1F41B"
  />
<missing-glyph horiz-adv-x="900" 
d="M50 -250v1100h800v-1100h-800zM150 -150h600v900h-600v-900z" />
    <glyph glyph-name=".notdef" horiz-adv-x="900" 
d="M50 -250v1100h800v-1100h-800zM150 -150h600v900h-600v-900z" />
    <glyph glyph-name="NULL" horiz-adv-x="0" 
 />
    <glyph glyph-name="nonmarkingreturn" unicode="&#xd;" horiz-adv-x="0" 
 />
    <glyph glyph-name="space" unicode="&#xa0;" horiz-adv-x="600" 
 />
    <glyph glyph-name="space" unicode=" " horiz-adv-x="600" 
 />
    <glyph glyph-name="A" unicode="A" horiz-adv-x="1000" 
d="M580 410l-53 267l-128 -267h181zM385 150l-21 -150h-370l21 150h91l319 650h265l137 -650h88l-21 -150h-390l21 150h106l-24 120h-275l-58 -120h111z" />
    <glyph glyph-name="Agrave" unicode="&#xc0;" horiz-adv-x="1000" 
d="M0 0zM580 410l-53 267l-128 -267h181zM385 150l-21 -150h-370l21 150h91l319 650h265l137 -650h88l-21 -150h-390l21 150h106l-24 120h-275l-58 -120h111zM547 900l-197 200h250l78 -200h-131z" />
    <glyph glyph-name="Aacute" unicode="&#xc1;" horiz-adv-x="1000" 
d="M0 0zM580 410l-53 267l-128 -267h181zM385 150l-21 -150h-370l21 150h91l319 650h265l137 -650h88l-21 -150h-390l21 150h106l-24 120h-275l-58 -120h111zM432 900l134 200h250l-253 -200h-131z" />
    <glyph glyph-name="Acircumflex" unicode="&#xc2;" horiz-adv-x="1000" 
d="M0 0zM580 410l-53 267l-128 -267h181zM385 150l-21 -150h-370l21 150h91l319 650h265l137 -650h88l-21 -150h-390l21 150h106l-24 120h-275l-58 -120h111zM365 884l-50 84l206 159h152l164 -159l-73 -83l-186 105z" />
    <glyph glyph-name="Atilde" unicode="&#xc3;" horiz-adv-x="1000" 
d="M0 0zM580 410l-53 267l-128 -267h181zM385 150l-21 -150h-370l21 150h91l319 650h265l137 -650h88l-21 -150h-390l21 150h106l-24 120h-275l-58 -120h111zM664 910q-49 0 -73 15t-38 32q-13 18 -25 32.5t-31 14.5q-16 0 -31 -14.5t-21 -60.5l-1 -9h-127l2 15
q12 83 62 139t124 56q48 0 71.5 -15t38.5 -32q15 -18 26.5 -33t28.5 -15q16 0 31 14.5t21 60.5l1 9h127l-2 -15q-11 -82 -61 -138t-123 -56z" />
    <glyph glyph-name="Adieresis" unicode="&#xc4;" horiz-adv-x="1000" 
d="M0 0zM580 410l-53 267l-128 -267h181zM385 150l-21 -150h-370l21 150h91l319 650h265l137 -650h88l-21 -150h-390l21 150h106l-24 120h-275l-58 -120h111zM435 890q-43 0 -68 17t-19 59l2 15q6 43 36 61t73 18q44 0 68.5 -18t18.5 -61l-2 -15q-6 -42 -36 -59t-73 -17z
M695 890q-43 0 -68 17t-19 59l2 15q6 43 36 61t73 18q44 0 68.5 -18t18.5 -61l-2 -15q-6 -42 -36 -59t-73 -17z" />
    <glyph glyph-name="Aring" unicode="&#xc5;" horiz-adv-x="1000" 
d="M0 0zM580 410l-53 267l-128 -267h181zM385 150l-21 -150h-370l21 150h91l319 650h265l137 -650h88l-21 -150h-390l21 150h106l-24 120h-275l-58 -120h111zM563 875q-94 0 -146.5 38t-41.5 117l4 32q11 80 74.5 119t157.5 39q95 0 147 -39t41 -119l-4 -32
q-11 -79 -74.5 -117t-157.5 -38zM576 966q35 0 55.5 14.5t25.5 49.5l4 32q5 34 -11 50.5t-51 16.5q-36 0 -56.5 -16.5t-25.5 -50.5l-4 -32q-5 -35 11 -49.5t52 -14.5z" />
    <glyph glyph-name="Amacron" unicode="&#x100;" horiz-adv-x="1000" 
d="M0 0zM580 410l-53 267l-128 -267h181zM385 150l-21 -150h-370l21 150h91l319 650h265l137 -650h88l-21 -150h-390l21 150h106l-24 120h-275l-58 -120h111zM345 925l21 150h450l-21 -150h-450z" />
    <glyph glyph-name="Abreve" unicode="&#x102;" horiz-adv-x="1000" 
d="M0 0zM580 410l-53 267l-128 -267h181zM385 150l-21 -150h-370l21 150h91l319 650h265l137 -650h88l-21 -150h-390l21 150h106l-24 120h-275l-58 -120h111zM565 893q-135 0 -192 59t-41 181h160q-8 -68 12 -94.5t78 -26.5t86 26.5t38 94.5h160q-18 -122 -92 -181t-209 -59
z" />
    <glyph glyph-name="Aogonek" unicode="&#x104;" horiz-adv-x="1000" 
d="M0 0zM580 410l-53 267l-128 -267h181zM385 150l-21 -150h-370l21 150h91l319 650h265l137 -650h88l-21 -150h-390l21 150h106l-24 120h-275l-58 -120h111zM723 -224q-84 0 -128 32t-35 96q9 66 66.5 111.5t119.5 61.5l19 -54q-37 -21 -47 -40t-12 -36q-4 -26 11.5 -38.5
t55.5 -12.5q18 0 42.5 2.5t54.5 7.5l-17 -116q-36 -7 -69 -10.5t-61 -3.5z" />
    <glyph glyph-name="Aringacute" unicode="&#x1fa;" horiz-adv-x="1000" 
d="M0 0zM580 410l-53 267l-128 -267h181zM385 150l-21 -150h-370l21 150h91l319 650h265l137 -650h88l-21 -150h-390l21 150h106l-24 120h-275l-58 -120h111zM563 875q-94 0 -146.5 38t-41.5 117l4 32q11 80 74.5 119t157.5 39q95 0 147 -39t41 -119l-4 -32
q-11 -79 -74.5 -117t-157.5 -38zM576 966q35 0 55.5 14.5t25.5 49.5l4 32q5 34 -11 50.5t-51 16.5q-36 0 -56.5 -16.5t-25.5 -50.5l-4 -32q-5 -35 11 -49.5t52 -14.5zM452 1200l134 200h250l-253 -200h-131z" />
    <glyph glyph-name="B" unicode="B" horiz-adv-x="1000" 
d="M24 0l21 150h120l70 500h-120l21 150h534q128 0 189.5 -48t48.5 -139l-5 -36q-8 -58 -46 -92t-112 -47l-5 -29q77 -7 112.5 -52.5t25.5 -113.5l-4 -32q-15 -102 -97 -156.5t-222 -54.5h-531zM411 480h184q51 0 76.5 18t30.5 59l4 28q6 40 -14 57.5t-71 17.5h-184z
M364 140h180q64 0 95 21t37 70l5 32q7 48 -18.5 68.5t-89.5 20.5h-180z" />
    <glyph glyph-name="C" unicode="C" horiz-adv-x="900" 
d="M413 -10q-194 0 -272 73t-59 204l36 262q19 132 118 206.5t293 74.5q184 0 258.5 -68.5t59.5 -222.5l-201 -10q4 85 -25.5 118t-113.5 33q-96 0 -138 -33t-54 -119l-31 -221q-11 -83 21.5 -115t128.5 -32q84 0 123 32t57 115l199 -10q-28 -152 -122 -219.5t-278 -67.5z
" />
    <glyph glyph-name="Ccedilla" unicode="&#xc7;" horiz-adv-x="900" 
d="M63 0zM413 -10q-194 0 -272 73t-59 204l36 262q19 132 118 206.5t293 74.5q184 0 258.5 -68.5t59.5 -222.5l-201 -10q4 85 -25.5 118t-113.5 33q-96 0 -138 -33t-54 -119l-31 -221q-11 -83 21.5 -115t128.5 -32q84 0 123 32t57 115l199 -10q-28 -152 -122 -219.5
t-278 -67.5zM379 0l26 42q85 -8 135 -35.5t41 -94.5q-11 -75 -82.5 -106.5t-153.5 -31.5q-96 0 -152.5 31.5t-51.5 104.5l170 10q-1 -19 8.5 -26.5t33.5 -7.5q27 0 42 10.5t20 44.5q3 25 -4 38.5t-32 20.5z" />
    <glyph glyph-name="Cacute" unicode="&#x106;" horiz-adv-x="900" 
d="M63 0zM413 -10q-194 0 -272 73t-59 204l36 262q19 132 118 206.5t293 74.5q184 0 258.5 -68.5t59.5 -222.5l-201 -10q4 85 -25.5 118t-113.5 33q-96 0 -138 -33t-54 -119l-31 -221q-11 -83 21.5 -115t128.5 -32q84 0 123 32t57 115l199 -10q-28 -152 -122 -219.5
t-278 -67.5zM397 900l134 200h250l-253 -200h-131z" />
    <glyph glyph-name="Ccircumflex" unicode="&#x108;" horiz-adv-x="900" 
d="M63 0zM330 884l-50 84l206 159h152l164 -159l-73 -83l-186 105zM413 -10q-194 0 -272 73t-59 204l36 262q19 132 118 206.5t293 74.5q184 0 258.5 -68.5t59.5 -222.5l-201 -10q4 85 -25.5 118t-113.5 33q-96 0 -138 -33t-54 -119l-31 -221q-11 -83 21.5 -115t128.5 -32
q84 0 123 32t57 115l199 -10q-28 -152 -122 -219.5t-278 -67.5z" />
    <glyph glyph-name="Cdotaccent" unicode="&#x10a;" horiz-adv-x="900" 
d="M63 0zM413 -10q-194 0 -272 73t-59 204l36 262q19 132 118 206.5t293 74.5q184 0 258.5 -68.5t59.5 -222.5l-201 -10q4 85 -25.5 118t-113.5 33q-96 0 -138 -33t-54 -119l-31 -221q-11 -83 21.5 -115t128.5 -32q84 0 123 32t57 115l199 -10q-28 -152 -122 -219.5
t-278 -67.5zM530 890q-57 0 -90 17t-27 59l2 15q6 43 44 61t95 18t90 -18t27 -61l-2 -15q-6 -42 -44.5 -59t-94.5 -17z" />
    <glyph glyph-name="Ccaron" unicode="&#x10c;" horiz-adv-x="900" 
d="M63 0zM457 904l-164 159l73 83l186 -105l213 106l50 -84l-206 -159h-152zM413 -10q-194 0 -272 73t-59 204l36 262q19 132 118 206.5t293 74.5q184 0 258.5 -68.5t59.5 -222.5l-201 -10q4 85 -25.5 118t-113.5 33q-96 0 -138 -33t-54 -119l-31 -221q-11 -83 21.5 -115
t128.5 -32q84 0 123 32t57 115l199 -10q-28 -152 -122 -219.5t-278 -67.5z" />
    <glyph glyph-name="D" unicode="D" horiz-adv-x="1000" 
d="M24 0l21 150h120l70 500h-120l21 150h471q164 0 245.5 -79.5t63.5 -211.5l-32 -222q-18 -131 -122 -209t-268 -78h-470zM365 150h130q96 0 138 34t54 123l26 182q13 92 -19.5 126.5t-128.5 34.5h-130z" />
    <glyph glyph-name="Dcaron" unicode="&#x10e;" horiz-adv-x="1000" 
d="M24 0zM492 904l-164 159l73 83l186 -105l213 106l50 -84l-206 -159h-152zM24 0l21 150h120l70 500h-120l21 150h471q164 0 245.5 -79.5t63.5 -211.5l-32 -222q-18 -131 -122 -209t-268 -78h-470zM365 150h130q96 0 138 34t54 123l26 182q13 92 -19.5 126.5t-128.5 34.5
h-130z" />
    <glyph glyph-name="E" unicode="E" horiz-adv-x="1000" 
d="M24 0l21 150h120l70 500h-120l21 150h800l-39 -280h-190l18 130h-290l-24 -170h240l-21 -150h-240l-25 -180h290l18 130h190l-39 -280h-800z" />
    <glyph glyph-name="Egrave" unicode="&#xc8;" horiz-adv-x="1000" 
d="M24 0zM557 900l-197 200h250l78 -200h-131zM24 0l21 150h120l70 500h-120l21 150h800l-39 -280h-190l18 130h-290l-24 -170h240l-21 -150h-240l-25 -180h290l18 130h190l-39 -280h-800z" />
    <glyph glyph-name="Eacute" unicode="&#xc9;" horiz-adv-x="1000" 
d="M24 0zM442 900l134 200h250l-253 -200h-131zM24 0l21 150h120l70 500h-120l21 150h800l-39 -280h-190l18 130h-290l-24 -170h240l-21 -150h-240l-25 -180h290l18 130h190l-39 -280h-800z" />
    <glyph glyph-name="Ecircumflex" unicode="&#xca;" horiz-adv-x="1000" 
d="M24 0zM375 886l-50 84l206 159h152l164 -159l-73 -83l-186 105zM24 0l21 150h120l70 500h-120l21 150h800l-39 -280h-190l18 130h-290l-24 -170h240l-21 -150h-240l-25 -180h290l18 130h190l-39 -280h-800z" />
    <glyph glyph-name="Edieresis" unicode="&#xcb;" horiz-adv-x="1000" 
d="M24 0zM24 0l21 150h120l70 500h-120l21 150h800l-39 -280h-190l18 130h-290l-24 -170h240l-21 -150h-240l-25 -180h290l18 130h190l-39 -280h-800zM445 890q-43 0 -68 17t-19 59l2 15q6 43 36 61t73 18q44 0 68.5 -18t18.5 -61l-2 -15q-6 -42 -36 -59t-73 -17zM705 890
q-43 0 -68 17t-19 59l2 15q6 43 36 61t73 18q44 0 68.5 -18t18.5 -61l-2 -15q-6 -42 -36 -59t-73 -17z" />
    <glyph glyph-name="Emacron" unicode="&#x112;" horiz-adv-x="1000" 
d="M24 0zM24 0l21 150h120l70 500h-120l21 150h800l-39 -280h-190l18 130h-290l-24 -170h240l-21 -150h-240l-25 -180h290l18 130h190l-39 -280h-800zM355 925l21 150h450l-21 -150h-450z" />
    <glyph glyph-name="Ebreve" unicode="&#x114;" horiz-adv-x="1000" 
d="M24 0zM24 0l21 150h120l70 500h-120l21 150h800l-39 -280h-190l18 130h-290l-24 -170h240l-21 -150h-240l-25 -180h290l18 130h190l-39 -280h-800zM575 893q-135 0 -192 59t-41 181h160q-8 -68 12 -94.5t78 -26.5t86 26.5t38 94.5h160q-18 -122 -92 -181t-209 -59z" />
    <glyph glyph-name="Edotaccent" unicode="&#x116;" horiz-adv-x="1000" 
d="M24 0zM575 890q-57 0 -90 17t-27 59l2 15q6 43 44 61t95 18t90 -18t27 -61l-2 -15q-6 -42 -44.5 -59t-94.5 -17zM24 0l21 150h120l70 500h-120l21 150h800l-39 -280h-190l18 130h-290l-24 -170h240l-21 -150h-240l-25 -180h290l18 130h190l-39 -280h-800z" />
    <glyph glyph-name="Eogonek" unicode="&#x118;" horiz-adv-x="1000" 
d="M24 0zM662 -224q-84 0 -128 32t-35 96q9 66 66.5 111.5t119.5 61.5l19 -54q-37 -21 -47 -40t-12 -36q-4 -26 11.5 -38.5t55.5 -12.5q18 0 42.5 2.5t54.5 7.5l-17 -116q-36 -7 -69 -10.5t-61 -3.5zM24 0l21 150h120l70 500h-120l21 150h800l-39 -280h-190l18 130h-290
l-24 -170h240l-21 -150h-240l-25 -180h290l18 130h190l-39 -280h-800z" />
    <glyph glyph-name="Ecaron" unicode="&#x11a;" horiz-adv-x="1000" 
d="M24 0zM502 904l-164 159l73 83l186 -105l213 106l50 -84l-206 -159h-152zM24 0l21 150h120l70 500h-120l21 150h800l-39 -280h-190l18 130h-290l-24 -170h240l-21 -150h-240l-25 -180h290l18 130h190l-39 -280h-800z" />
    <glyph glyph-name="F" unicode="F" horiz-adv-x="900" 
d="M24 0l21 150h120l70 500h-120l21 150h770l-38 -270h-190l17 120h-260l-24 -170h220l-21 -150h-220l-25 -180h200l-21 -150h-520z" />
    <glyph glyph-name="G" unicode="G" horiz-adv-x="900" 
d="M604 0l-8 78q-43 -43 -106.5 -65.5t-147.5 -22.5q-141 0 -210 73t-50 204l36 262q21 147 120 214t271 67q182 0 253.5 -60t58.5 -201l-201 -10q2 68 -26.5 94.5t-103.5 26.5q-86 0 -124.5 -33t-49.5 -118l-32 -222q-11 -83 17 -115t111 -32q84 0 121.5 29t48.5 104l1 7
h-150l21 150h350l-60 -430h-140z" />
    <glyph glyph-name="Gcircumflex" unicode="&#x11c;" horiz-adv-x="900" 
d="M63 0zM315 884l-50 84l206 159h152l164 -159l-73 -83l-186 105zM604 0l-8 78q-43 -43 -106.5 -65.5t-147.5 -22.5q-141 0 -210 73t-50 204l36 262q21 147 120 214t271 67q182 0 253.5 -60t58.5 -201l-201 -10q2 68 -26.5 94.5t-103.5 26.5q-86 0 -124.5 -33t-49.5 -118
l-32 -222q-11 -83 17 -115t111 -32q84 0 121.5 29t48.5 104l1 7h-150l21 150h350l-60 -430h-140z" />
    <glyph glyph-name="Gbreve" unicode="&#x11e;" horiz-adv-x="900" 
d="M63 0zM515 893q-135 0 -192 59t-41 181h160q-8 -68 12 -94.5t78 -26.5t86 26.5t38 94.5h160q-18 -122 -92 -181t-209 -59zM604 0l-8 78q-43 -43 -106.5 -65.5t-147.5 -22.5q-141 0 -210 73t-50 204l36 262q21 147 120 214t271 67q182 0 253.5 -60t58.5 -201l-201 -10
q2 68 -26.5 94.5t-103.5 26.5q-86 0 -124.5 -33t-49.5 -118l-32 -222q-11 -83 17 -115t111 -32q84 0 121.5 29t48.5 104l1 7h-150l21 150h350l-60 -430h-140z" />
    <glyph glyph-name="Gdotaccent" unicode="&#x120;" horiz-adv-x="900" 
d="M63 0zM515 890q-57 0 -90 17t-27 59l2 15q6 43 44 61t95 18t90 -18t27 -61l-2 -15q-6 -42 -44.5 -59t-94.5 -17zM604 0l-8 78q-43 -43 -106.5 -65.5t-147.5 -22.5q-141 0 -210 73t-50 204l36 262q21 147 120 214t271 67q182 0 253.5 -60t58.5 -201l-201 -10
q2 68 -26.5 94.5t-103.5 26.5q-86 0 -124.5 -33t-49.5 -118l-32 -222q-11 -83 17 -115t111 -32q84 0 121.5 29t48.5 104l1 7h-150l21 150h350l-60 -430h-140z" />
    <glyph glyph-name="Gcommaaccent" unicode="&#x122;" horiz-adv-x="900" 
d="M63 0zM188 -300l94 200h250l-213 -200h-131zM604 0l-8 78q-43 -43 -106.5 -65.5t-147.5 -22.5q-141 0 -210 73t-50 204l36 262q21 147 120 214t271 67q182 0 253.5 -60t58.5 -201l-201 -10q2 68 -26.5 94.5t-103.5 26.5q-86 0 -124.5 -33t-49.5 -118l-32 -222
q-11 -83 17 -115t111 -32q84 0 121.5 29t48.5 104l1 7h-150l21 150h350l-60 -430h-140z" />
    <glyph glyph-name="H" unicode="H" 
d="M24 0l21 150h120l70 500h-120l21 150h420l-21 -150h-100l-21 -150h300l21 150h-100l21 150h420l-21 -150h-120l-70 -500h120l-21 -150h-420l21 150h100l30 210h-300l-30 -210h100l-21 -150h-420z" />
    <glyph glyph-name="Hcircumflex" unicode="&#x124;" 
d="M24 0zM24 0l21 150h120l70 500h-120l21 150h420l-21 -150h-100l-21 -150h300l21 150h-100l21 150h420l-21 -150h-120l-70 -500h120l-21 -150h-420l21 150h100l30 210h-300l-30 -210h100l-21 -150h-420zM415 884l-50 84l206 159h152l164 -159l-73 -83l-186 105z" />
    <glyph glyph-name="I" unicode="I" horiz-adv-x="800" 
d="M44 0l21 150h200l70 500h-200l21 150h600l-21 -150h-200l-70 -500h200l-21 -150h-600z" />
    <glyph glyph-name="Igrave" unicode="&#xcc;" horiz-adv-x="800" 
d="M44 0zM44 0l21 150h200l70 500h-200l21 150h600l-21 -150h-200l-70 -500h200l-21 -150h-600zM447 900l-197 200h250l78 -200h-131z" />
    <glyph glyph-name="Iacute" unicode="&#xcd;" horiz-adv-x="800" 
d="M44 0zM44 0l21 150h200l70 500h-200l21 150h600l-21 -150h-200l-70 -500h200l-21 -150h-600zM332 900l134 200h250l-253 -200h-131z" />
    <glyph glyph-name="Icircumflex" unicode="&#xce;" horiz-adv-x="800" 
d="M44 0zM44 0l21 150h200l70 500h-200l21 150h600l-21 -150h-200l-70 -500h200l-21 -150h-600zM265 884l-50 84l206 159h152l164 -159l-73 -83l-186 105z" />
    <glyph glyph-name="Idieresis" unicode="&#xcf;" horiz-adv-x="800" 
d="M44 0zM44 0l21 150h200l70 500h-200l21 150h600l-21 -150h-200l-70 -500h200l-21 -150h-600zM335 890q-43 0 -68 17t-19 59l2 15q6 43 36 61t73 18q44 0 68.5 -18t18.5 -61l-2 -15q-6 -42 -36 -59t-73 -17zM595 890q-43 0 -68 17t-19 59l2 15q6 43 36 61t73 18
q44 0 68.5 -18t18.5 -61l-2 -15q-6 -42 -36 -59t-73 -17z" />
    <glyph glyph-name="Itilde" unicode="&#x128;" horiz-adv-x="800" 
d="M44 0zM44 0l21 150h200l70 500h-200l21 150h600l-21 -150h-200l-70 -500h200l-21 -150h-600zM564 910q-49 0 -73 15t-38 32q-13 18 -25 32.5t-31 14.5q-16 0 -31 -14.5t-21 -60.5l-1 -9h-127l2 15q12 83 62 139t124 56q48 0 71.5 -15t38.5 -32q15 -18 26.5 -33t28.5 -15
q16 0 31 14.5t21 60.5l1 9h127l-2 -15q-11 -82 -61 -138t-123 -56z" />
    <glyph glyph-name="Imacron" unicode="&#x12a;" horiz-adv-x="800" 
d="M44 0zM44 0l21 150h200l70 500h-200l21 150h600l-21 -150h-200l-70 -500h200l-21 -150h-600zM245 925l21 150h450l-21 -150h-450z" />
    <glyph glyph-name="Ibreve" unicode="&#x12c;" horiz-adv-x="800" 
d="M44 0zM44 0l21 150h200l70 500h-200l21 150h600l-21 -150h-200l-70 -500h200l-21 -150h-600zM465 893q-135 0 -192 59t-41 181h160q-8 -68 12 -94.5t78 -26.5t86 26.5t38 94.5h160q-18 -122 -92 -181t-209 -59z" />
    <glyph glyph-name="Iogonek" unicode="&#x12e;" horiz-adv-x="800" 
d="M44 0zM44 0l21 150h200l70 500h-200l21 150h600l-21 -150h-200l-70 -500h200l-21 -150h-600zM399 -224q-84 0 -128 32t-35 96q9 66 66.5 111.5t119.5 61.5l19 -54q-37 -21 -47 -40t-12 -36q-4 -26 11.5 -38.5t55.5 -12.5q18 0 42.5 2.5t54.5 7.5l-17 -116
q-36 -7 -69 -10.5t-61 -3.5z" />
    <glyph glyph-name="Idotaccent" unicode="&#x130;" horiz-adv-x="800" 
d="M44 0zM44 0l21 150h200l70 500h-200l21 150h600l-21 -150h-200l-70 -500h200l-21 -150h-600zM465 890q-57 0 -90 17t-27 59l2 15q6 43 44 61t95 18t90 -18t27 -61l-2 -15q-6 -42 -44.5 -59t-94.5 -17z" />
    <glyph glyph-name="J" unicode="J" horiz-adv-x="900" 
d="M856 800l-21 -150h-100l-54 -390q-20 -137 -102.5 -203.5t-234.5 -66.5q-185 0 -250.5 64t-49.5 233l202 11q-7 -101 12 -129.5t93 -28.5q67 0 93.5 26.5t37.5 103.5l53 380h-200l21 150h500z" />
    <glyph glyph-name="Jcircumflex" unicode="&#x134;" horiz-adv-x="900" 
d="M28 0zM435 884l-50 84l206 159h152l164 -159l-73 -83l-186 105zM856 800l-21 -150h-100l-54 -390q-20 -137 -102.5 -203.5t-234.5 -66.5q-185 0 -250.5 64t-49.5 233l202 11q-7 -101 12 -129.5t93 -28.5q67 0 93.5 26.5t37.5 103.5l53 380h-200l21 150h500z" />
    <glyph glyph-name="K" unicode="K" horiz-adv-x="1000" 
d="M455 150l-21 -150h-410l21 150h120l70 500h-120l21 150h390l-21 -150h-70l-23 -165h90l158 165h-75l21 150h370l-21 -150h-90l-212 -221l139 -279h103l-21 -150h-248l-159 335h-76l-26 -185h90z" />
    <glyph glyph-name="Kcommaaccent" unicode="&#x136;" horiz-adv-x="1000" 
d="M24 0zM455 150l-21 -150h-410l21 150h120l70 500h-120l21 150h390l-21 -150h-70l-23 -165h90l158 165h-75l21 150h370l-21 -150h-90l-212 -221l139 -279h103l-21 -150h-248l-159 335h-76l-26 -185h90zM261 -300l94 200h250l-213 -200h-131z" />
    <glyph glyph-name="L" unicode="L" horiz-adv-x="900" 
d="M24 0l21 150h120l70 500h-120l21 150h459l-21 -150h-139l-70 -500h240l25 180h190l-46 -330h-750z" />
    <glyph glyph-name="Lacute" unicode="&#x139;" horiz-adv-x="900" 
d="M24 0zM237 900l134 200h250l-253 -200h-131zM24 0l21 150h120l70 500h-120l21 150h459l-21 -150h-139l-70 -500h240l25 180h190l-46 -330h-750z" />
    <glyph glyph-name="Lcommaaccent" unicode="&#x13b;" horiz-adv-x="900" 
d="M24 0zM24 0l21 150h120l70 500h-120l21 150h459l-21 -150h-139l-70 -500h240l25 180h190l-46 -330h-750zM233 -300l94 200h250l-213 -200h-131z" />
    <glyph glyph-name="Lcaron" unicode="&#x13d;" horiz-adv-x="900" 
d="M24 0zM635 505l92 295h247l-227 -295h-112zM24 0l21 150h120l70 500h-120l21 150h459l-21 -150h-139l-70 -500h240l25 180h190l-46 -330h-750z" />
    <glyph glyph-name="M" unicode="M" horiz-adv-x="1200" 
d="M435 150l-21 -150h-390l21 150h120l70 500h-120l21 150h390l86 -376l189 376h375l-21 -150h-120l-70 -500h120l-21 -150h-390l21 150h100l64 457l-187 -357h-186l-87 356l-64 -456h100z" />
    <glyph glyph-name="N" unicode="N" 
d="M435 150l-21 -150h-390l21 150h120l70 500h-120l21 150h387l177 -615l65 465h-100l21 150h390l-21 -150h-120l-91 -650h-283l-166 577l-60 -427h100z" />
    <glyph glyph-name="Ntilde" unicode="&#xd1;" 
d="M24 0zM734 910q-49 0 -73 15t-38 32q-13 18 -25 32.5t-31 14.5q-16 0 -31 -14.5t-21 -60.5l-1 -9h-127l2 15q12 83 62 139t124 56q48 0 71.5 -15t38.5 -32q15 -18 26.5 -33t28.5 -15q16 0 31 14.5t21 60.5l1 9h127l-2 -15q-11 -82 -61 -138t-123 -56zM435 150l-21 -150
h-390l21 150h120l70 500h-120l21 150h387l177 -615l65 465h-100l21 150h390l-21 -150h-120l-91 -650h-283l-166 577l-60 -427h100z" />
    <glyph glyph-name="Nacute" unicode="&#x143;" 
d="M24 0zM522 900l134 200h250l-253 -200h-131zM435 150l-21 -150h-390l21 150h120l70 500h-120l21 150h387l177 -615l65 465h-100l21 150h390l-21 -150h-120l-91 -650h-283l-166 577l-60 -427h100z" />
    <glyph glyph-name="Ncommaaccent" unicode="&#x145;" 
d="M24 0zM248 -300l94 200h250l-213 -200h-131zM435 150l-21 -150h-390l21 150h120l70 500h-120l21 150h387l177 -615l65 465h-100l21 150h390l-21 -150h-120l-91 -650h-283l-166 577l-60 -427h100z" />
    <glyph glyph-name="Ncaron" unicode="&#x147;" 
d="M24 0zM582 904l-164 159l73 83l186 -105l213 106l50 -84l-206 -159h-152zM435 150l-21 -150h-390l21 150h120l70 500h-120l21 150h387l177 -615l65 465h-100l21 150h390l-21 -150h-120l-91 -650h-283l-166 577l-60 -427h100z" />
    <glyph glyph-name="O" unicode="O" horiz-adv-x="900" 
d="M393 -10q-172 0 -251 73t-60 204l36 262q19 132 119 206.5t272 74.5t250 -74.5t59 -206.5l-36 -262q-19 -131 -118 -204t-271 -73zM414 140q83 0 121 33t49 114l32 222q11 84 -17.5 117.5t-111.5 33.5t-121.5 -33.5t-49.5 -117.5l-32 -222q-11 -81 18 -114t112 -33z" />
    <glyph glyph-name="Ograve" unicode="&#xd2;" horiz-adv-x="900" 
d="M63 0zM497 900l-197 200h250l78 -200h-131zM393 -10q-172 0 -251 73t-60 204l36 262q19 132 119 206.5t272 74.5t250 -74.5t59 -206.5l-36 -262q-19 -131 -118 -204t-271 -73zM414 140q83 0 121 33t49 114l32 222q11 84 -17.5 117.5t-111.5 33.5t-121.5 -33.5
t-49.5 -117.5l-32 -222q-11 -81 18 -114t112 -33z" />
    <glyph glyph-name="Oacute" unicode="&#xd3;" horiz-adv-x="900" 
d="M63 0zM382 900l134 200h250l-253 -200h-131zM393 -10q-172 0 -251 73t-60 204l36 262q19 132 119 206.5t272 74.5t250 -74.5t59 -206.5l-36 -262q-19 -131 -118 -204t-271 -73zM414 140q83 0 121 33t49 114l32 222q11 84 -17.5 117.5t-111.5 33.5t-121.5 -33.5
t-49.5 -117.5l-32 -222q-11 -81 18 -114t112 -33z" />
    <glyph glyph-name="Ocircumflex" unicode="&#xd4;" horiz-adv-x="900" 
d="M63 0zM315 884l-50 84l206 159h152l164 -159l-73 -83l-186 105zM393 -10q-172 0 -251 73t-60 204l36 262q19 132 119 206.5t272 74.5t250 -74.5t59 -206.5l-36 -262q-19 -131 -118 -204t-271 -73zM414 140q83 0 121 33t49 114l32 222q11 84 -17.5 117.5t-111.5 33.5
t-121.5 -33.5t-49.5 -117.5l-32 -222q-11 -81 18 -114t112 -33z" />
    <glyph glyph-name="Otilde" unicode="&#xd5;" horiz-adv-x="900" 
d="M63 0zM614 910q-49 0 -73 15t-38 32q-13 18 -25 32.5t-31 14.5q-16 0 -31 -14.5t-21 -60.5l-1 -9h-127l2 15q12 83 62 139t124 56q48 0 71.5 -15t38.5 -32q15 -18 26.5 -33t28.5 -15q16 0 31 14.5t21 60.5l1 9h127l-2 -15q-11 -82 -61 -138t-123 -56zM393 -10
q-172 0 -251 73t-60 204l36 262q19 132 119 206.5t272 74.5t250 -74.5t59 -206.5l-36 -262q-19 -131 -118 -204t-271 -73zM414 140q83 0 121 33t49 114l32 222q11 84 -17.5 117.5t-111.5 33.5t-121.5 -33.5t-49.5 -117.5l-32 -222q-11 -81 18 -114t112 -33z" />
    <glyph glyph-name="Odieresis" unicode="&#xd6;" horiz-adv-x="900" 
d="M63 0zM385 890q-43 0 -68 17t-19 59l2 15q6 43 36 61t73 18q44 0 68.5 -18t18.5 -61l-2 -15q-6 -42 -36 -59t-73 -17zM645 890q-43 0 -68 17t-19 59l2 15q6 43 36 61t73 18q44 0 68.5 -18t18.5 -61l-2 -15q-6 -42 -36 -59t-73 -17zM393 -10q-172 0 -251 73t-60 204
l36 262q19 132 119 206.5t272 74.5t250 -74.5t59 -206.5l-36 -262q-19 -131 -118 -204t-271 -73zM414 140q83 0 121 33t49 114l32 222q11 84 -17.5 117.5t-111.5 33.5t-121.5 -33.5t-49.5 -117.5l-32 -222q-11 -81 18 -114t112 -33z" />
    <glyph glyph-name="Omacron" unicode="&#x14c;" horiz-adv-x="900" 
d="M63 0zM295 925l21 150h450l-21 -150h-450zM393 -10q-172 0 -251 73t-60 204l36 262q19 132 119 206.5t272 74.5t250 -74.5t59 -206.5l-36 -262q-19 -131 -118 -204t-271 -73zM414 140q83 0 121 33t49 114l32 222q11 84 -17.5 117.5t-111.5 33.5t-121.5 -33.5
t-49.5 -117.5l-32 -222q-11 -81 18 -114t112 -33z" />
    <glyph glyph-name="Obreve" unicode="&#x14e;" horiz-adv-x="900" 
d="M63 0zM515 893q-135 0 -192 59t-41 181h160q-8 -68 12 -94.5t78 -26.5t86 26.5t38 94.5h160q-18 -122 -92 -181t-209 -59zM393 -10q-172 0 -251 73t-60 204l36 262q19 132 119 206.5t272 74.5t250 -74.5t59 -206.5l-36 -262q-19 -131 -118 -204t-271 -73zM414 140
q83 0 121 33t49 114l32 222q11 84 -17.5 117.5t-111.5 33.5t-121.5 -33.5t-49.5 -117.5l-32 -222q-11 -81 18 -114t112 -33z" />
    <glyph glyph-name="Ohungarumlaut" unicode="&#x150;" horiz-adv-x="900" 
d="M63 0zM552 900l74 200h190l-163 -200h-101zM322 900l74 200h190l-163 -200h-101zM393 -10q-172 0 -251 73t-60 204l36 262q19 132 119 206.5t272 74.5t250 -74.5t59 -206.5l-36 -262q-19 -131 -118 -204t-271 -73zM414 140q83 0 121 33t49 114l32 222q11 84 -17.5 117.5
t-111.5 33.5t-121.5 -33.5t-49.5 -117.5l-32 -222q-11 -81 18 -114t112 -33z" />
    <glyph glyph-name="P" unicode="P" horiz-adv-x="900" 
d="M24 0l21 150h120l70 500h-120l21 150h462q142 0 207.5 -53.5t51.5 -157.5l-17 -120q-14 -97 -93.5 -147t-221.5 -50h-143l-17 -122h170l-21 -150h-490zM403 420h110q64 0 94.5 18t36.5 59l10 70q6 45 -19.5 64t-89.5 19h-110z" />
    <glyph glyph-name="Q" unicode="Q" horiz-adv-x="900" 
d="M624 -211q-203 -28 -277 26.5t-50 212.5q-119 19 -173 89t-38 180l32 232q19 132 119 206.5t272 74.5t250 -74.5t59 -206.5l-32 -232q-17 -121 -104 -193t-235 -82q-4 -60 37 -75.5t143 2.5zM416 160q90 0 124.5 32t48.5 125l27 192q12 90 -13.5 120.5t-115.5 30.5
t-124.5 -30.5t-46.5 -120.5l-27 -192q-14 -93 11.5 -125t115.5 -32z" />
    <glyph glyph-name="R" unicode="R" horiz-adv-x="1000" 
d="M407 450h170q60 0 87.5 18t33.5 61l6 42q6 43 -16.5 61t-82.5 18h-170zM444 0h-420l21 150h120l70 500h-120l21 150h541q128 0 186 -56t42 -165l-7 -52q-12 -86 -58.5 -140t-124.5 -74l71 -163h129l-21 -150h-258l-132 300h-118l-21 -150h100z" />
    <glyph glyph-name="Racute" unicode="&#x154;" horiz-adv-x="1000" 
d="M24 0zM487 900l134 200h250l-253 -200h-131zM407 450h170q60 0 87.5 18t33.5 61l6 42q6 43 -16.5 61t-82.5 18h-170zM444 0h-420l21 150h120l70 500h-120l21 150h541q128 0 186 -56t42 -165l-7 -52q-12 -86 -58.5 -140t-124.5 -74l71 -163h129l-21 -150h-258l-132 300
h-118l-21 -150h100z" />
    <glyph glyph-name="Rcommaaccent" unicode="&#x156;" horiz-adv-x="1000" 
d="M24 0zM407 450h170q60 0 87.5 18t33.5 61l6 42q6 43 -16.5 61t-82.5 18h-170zM444 0h-420l21 150h120l70 500h-120l21 150h541q128 0 186 -56t42 -165l-7 -52q-12 -86 -58.5 -140t-124.5 -74l71 -163h129l-21 -150h-258l-132 300h-118l-21 -150h100zM263 -300l94 200h250
l-213 -200h-131z" />
    <glyph glyph-name="Rcaron" unicode="&#x158;" horiz-adv-x="1000" 
d="M24 0zM547 904l-164 159l73 83l186 -105l213 106l50 -84l-206 -159h-152zM407 450h170q60 0 87.5 18t33.5 61l6 42q6 43 -16.5 61t-82.5 18h-170zM444 0h-420l21 150h120l70 500h-120l21 150h541q128 0 186 -56t42 -165l-7 -52q-12 -86 -58.5 -140t-124.5 -74l71 -163
h129l-21 -150h-258l-132 300h-118l-21 -150h100z" />
    <glyph glyph-name="S" unicode="S" horiz-adv-x="900" 
d="M384 -10q-92 0 -180.5 25.5t-158.5 65.5l66 149q72 -42 151.5 -66t171.5 -24q70 0 106 25t41 66q6 36 -36.5 53.5t-196.5 44.5q-132 22 -181.5 72t-35.5 149q16 110 109 185t259 75q82 0 167 -27t135 -59l-55 -142q-69 34 -137 55t-134 21q-62 0 -99 -21.5t-42 -63.5
q-6 -36 36 -54t197 -46q132 -25 181 -77.5t35 -152.5q-17 -120 -122 -186.5t-277 -66.5z" />
    <glyph glyph-name="Sacute" unicode="&#x15a;" horiz-adv-x="900" 
d="M45 0zM384 -10q-92 0 -180.5 25.5t-158.5 65.5l66 149q72 -42 151.5 -66t171.5 -24q70 0 106 25t41 66q6 36 -36.5 53.5t-196.5 44.5q-132 22 -181.5 72t-35.5 149q16 110 109 185t259 75q82 0 167 -27t135 -59l-55 -142q-69 34 -137 55t-134 21q-62 0 -99 -21.5
t-42 -63.5q-6 -36 36 -54t197 -46q132 -25 181 -77.5t35 -152.5q-17 -120 -122 -186.5t-277 -66.5zM380 900l134 200h250l-253 -200h-131z" />
    <glyph glyph-name="Scircumflex" unicode="&#x15c;" horiz-adv-x="900" 
d="M45 0zM313 884l-50 84l206 159h152l164 -159l-73 -83l-186 105zM384 -10q-92 0 -180.5 25.5t-158.5 65.5l66 149q72 -42 151.5 -66t171.5 -24q70 0 106 25t41 66q6 36 -36.5 53.5t-196.5 44.5q-132 22 -181.5 72t-35.5 149q16 110 109 185t259 75q82 0 167 -27t135 -59
l-55 -142q-69 34 -137 55t-134 21q-62 0 -99 -21.5t-42 -63.5q-6 -36 36 -54t197 -46q132 -25 181 -77.5t35 -152.5q-17 -120 -122 -186.5t-277 -66.5z" />
    <glyph glyph-name="Scedilla" unicode="&#x15e;" horiz-adv-x="900" 
d="M45 0zM384 -10q-92 0 -180.5 25.5t-158.5 65.5l66 149q72 -42 151.5 -66t171.5 -24q70 0 106 25t41 66q6 36 -36.5 53.5t-196.5 44.5q-132 22 -181.5 72t-35.5 149q16 110 109 185t259 75q82 0 167 -27t135 -59l-55 -142q-69 34 -137 55t-134 21q-62 0 -99 -21.5
t-42 -63.5q-6 -36 36 -54t197 -46q132 -25 181 -77.5t35 -152.5q-17 -120 -122 -186.5t-277 -66.5zM362 0l26 42q85 -8 135 -35.5t41 -94.5q-11 -75 -82.5 -106.5t-153.5 -31.5q-96 0 -152.5 31.5t-51.5 104.5l170 10q-1 -19 8.5 -26.5t33.5 -7.5q27 0 42 10.5t20 44.5
q3 25 -4 38.5t-32 20.5z" />
    <glyph glyph-name="Scaron" unicode="&#x160;" horiz-adv-x="900" 
d="M45 0zM440 904l-164 159l73 83l186 -105l213 106l50 -84l-206 -159h-152zM384 -10q-92 0 -180.5 25.5t-158.5 65.5l66 149q72 -42 151.5 -66t171.5 -24q70 0 106 25t41 66q6 36 -36.5 53.5t-196.5 44.5q-132 22 -181.5 72t-35.5 149q16 110 109 185t259 75q82 0 167 -27
t135 -59l-55 -142q-69 34 -137 55t-134 21q-62 0 -99 -21.5t-42 -63.5q-6 -36 36 -54t197 -46q132 -25 181 -77.5t35 -152.5q-17 -120 -122 -186.5t-277 -66.5z" />
    <glyph glyph-name="Scommaaccent" unicode="&#x218;" horiz-adv-x="900" 
d="M45 0zM384 -10q-92 0 -180.5 25.5t-158.5 65.5l66 149q72 -42 151.5 -66t171.5 -24q70 0 106 25t41 66q6 36 -36.5 53.5t-196.5 44.5q-132 22 -181.5 72t-35.5 149q16 110 109 185t259 75q82 0 167 -27t135 -59l-55 -142q-69 34 -137 55t-134 21q-62 0 -99 -21.5
t-42 -63.5q-6 -36 36 -54t197 -46q132 -25 181 -77.5t35 -152.5q-17 -120 -122 -186.5t-277 -66.5zM148 -300l94 200h250l-213 -200h-131z" />
    <glyph glyph-name="T" unicode="T" horiz-adv-x="1000" 
d="M203 0l21 150h141l70 500h-120l-21 -150h-200l42 300h840l-42 -300h-200l21 150h-120l-70 -500h141l-21 -150h-482z" />
    <glyph glyph-name="Tcedilla" unicode="&#x162;" horiz-adv-x="1000" 
d="M94 0zM203 0l21 150h141l70 500h-120l-21 -150h-200l42 300h840l-42 -300h-200l21 150h-120l-70 -500h141l-21 -150h-482zM414 0l26 42q85 -8 135 -35.5t41 -94.5q-11 -75 -82.5 -106.5t-153.5 -31.5q-96 0 -152.5 31.5t-51.5 104.5l170 10q-1 -19 8.5 -26.5t33.5 -7.5
q27 0 42 10.5t20 44.5q3 25 -4 38.5t-32 20.5z" />
    <glyph glyph-name="Tcaron" unicode="&#x164;" horiz-adv-x="1000" 
d="M94 0zM492 904l-164 159l73 83l186 -105l213 106l50 -84l-206 -159h-152zM203 0l21 150h141l70 500h-120l-21 -150h-200l42 300h840l-42 -300h-200l21 150h-120l-70 -500h141l-21 -150h-482z" />
    <glyph glyph-name="Tcommaaccent" unicode="&#x21a;" horiz-adv-x="1000" 
d="M94 0zM203 0l21 150h141l70 500h-120l-21 -150h-200l42 300h840l-42 -300h-200l21 150h-120l-70 -500h141l-21 -150h-482zM218 -300l94 200h250l-213 -200h-131z" />
    <glyph glyph-name="U" unicode="U" 
d="M493 -10q-181 0 -255.5 74t-51.5 233l49 353h-120l21 150h420l-21 -150h-100l-48 -343q-12 -88 16 -122.5t112 -34.5t122 34.5t50 122.5l48 343h-100l21 150h420l-21 -150h-120l-49 -353q-23 -159 -117.5 -233t-275.5 -74z" />
    <glyph glyph-name="Ugrave" unicode="&#xd9;" 
d="M115 0zM597 900l-197 200h250l78 -200h-131zM493 -10q-181 0 -255.5 74t-51.5 233l49 353h-120l21 150h420l-21 -150h-100l-48 -343q-12 -88 16 -122.5t112 -34.5t122 34.5t50 122.5l48 343h-100l21 150h420l-21 -150h-120l-49 -353q-23 -159 -117.5 -233t-275.5 -74z
" />
    <glyph glyph-name="Uacute" unicode="&#xda;" 
d="M115 0zM482 900l134 200h250l-253 -200h-131zM493 -10q-181 0 -255.5 74t-51.5 233l49 353h-120l21 150h420l-21 -150h-100l-48 -343q-12 -88 16 -122.5t112 -34.5t122 34.5t50 122.5l48 343h-100l21 150h420l-21 -150h-120l-49 -353q-23 -159 -117.5 -233t-275.5 -74z
" />
    <glyph glyph-name="Ucircumflex" unicode="&#xdb;" 
d="M115 0zM415 884l-50 84l206 159h152l164 -159l-73 -83l-186 105zM493 -10q-181 0 -255.5 74t-51.5 233l49 353h-120l21 150h420l-21 -150h-100l-48 -343q-12 -88 16 -122.5t112 -34.5t122 34.5t50 122.5l48 343h-100l21 150h420l-21 -150h-120l-49 -353
q-23 -159 -117.5 -233t-275.5 -74z" />
    <glyph glyph-name="Udieresis" unicode="&#xdc;" 
d="M115 0zM493 -10q-181 0 -255.5 74t-51.5 233l49 353h-120l21 150h420l-21 -150h-100l-48 -343q-12 -88 16 -122.5t112 -34.5t122 34.5t50 122.5l48 343h-100l21 150h420l-21 -150h-120l-49 -353q-23 -159 -117.5 -233t-275.5 -74zM485 890q-43 0 -68 17t-19 59l2 15
q6 43 36 61t73 18q44 0 68.5 -18t18.5 -61l-2 -15q-6 -42 -36 -59t-73 -17zM745 890q-43 0 -68 17t-19 59l2 15q6 43 36 61t73 18q44 0 68.5 -18t18.5 -61l-2 -15q-6 -42 -36 -59t-73 -17z" />
    <glyph glyph-name="Utilde" unicode="&#x168;" 
d="M115 0zM493 -10q-181 0 -255.5 74t-51.5 233l49 353h-120l21 150h420l-21 -150h-100l-48 -343q-12 -88 16 -122.5t112 -34.5t122 34.5t50 122.5l48 343h-100l21 150h420l-21 -150h-120l-49 -353q-23 -159 -117.5 -233t-275.5 -74zM714 910q-49 0 -73 15t-38 32
q-13 18 -25 32.5t-31 14.5q-16 0 -31 -14.5t-21 -60.5l-1 -9h-127l2 15q12 83 62 139t124 56q48 0 71.5 -15t38.5 -32q15 -18 26.5 -33t28.5 -15q16 0 31 14.5t21 60.5l1 9h127l-2 -15q-11 -82 -61 -138t-123 -56z" />
    <glyph glyph-name="Umacron" unicode="&#x16a;" 
d="M115 0zM493 -10q-181 0 -255.5 74t-51.5 233l49 353h-120l21 150h420l-21 -150h-100l-48 -343q-12 -88 16 -122.5t112 -34.5t122 34.5t50 122.5l48 343h-100l21 150h420l-21 -150h-120l-49 -353q-23 -159 -117.5 -233t-275.5 -74zM395 925l21 150h450l-21 -150h-450z" />
    <glyph glyph-name="Ubreve" unicode="&#x16c;" 
d="M115 0zM493 -10q-181 0 -255.5 74t-51.5 233l49 353h-120l21 150h420l-21 -150h-100l-48 -343q-12 -88 16 -122.5t112 -34.5t122 34.5t50 122.5l48 343h-100l21 150h420l-21 -150h-120l-49 -353q-23 -159 -117.5 -233t-275.5 -74zM615 893q-135 0 -192 59t-41 181h160
q-8 -68 12 -94.5t78 -26.5t86 26.5t38 94.5h160q-18 -122 -92 -181t-209 -59z" />
    <glyph glyph-name="Uring" unicode="&#x16e;" 
d="M115 0zM493 -10q-181 0 -255.5 74t-51.5 233l49 353h-120l21 150h420l-21 -150h-100l-48 -343q-12 -88 16 -122.5t112 -34.5t122 34.5t50 122.5l48 343h-100l21 150h420l-21 -150h-120l-49 -353q-23 -159 -117.5 -233t-275.5 -74zM613 875q-94 0 -146.5 38t-41.5 117
l4 32q11 80 74.5 119t157.5 39q95 0 147 -39t41 -119l-4 -32q-11 -79 -74.5 -117t-157.5 -38zM626 966q35 0 55.5 14.5t25.5 49.5l4 32q5 34 -11 50.5t-51 16.5q-36 0 -56.5 -16.5t-25.5 -50.5l-4 -32q-5 -35 11 -49.5t52 -14.5z" />
    <glyph glyph-name="Uhungarumlaut" unicode="&#x170;" 
d="M115 0zM652 900l74 200h190l-163 -200h-101zM422 900l74 200h190l-163 -200h-101zM493 -10q-181 0 -255.5 74t-51.5 233l49 353h-120l21 150h420l-21 -150h-100l-48 -343q-12 -88 16 -122.5t112 -34.5t122 34.5t50 122.5l48 343h-100l21 150h420l-21 -150h-120l-49 -353
q-23 -159 -117.5 -233t-275.5 -74z" />
    <glyph glyph-name="Uogonek" unicode="&#x172;" 
d="M115 0zM539 -224q-84 0 -128 32t-35 96q9 66 66.5 111.5t119.5 61.5l19 -54q-37 -21 -47 -40t-12 -36q-4 -26 11.5 -38.5t55.5 -12.5q18 0 42.5 2.5t54.5 7.5l-17 -116q-36 -7 -69 -10.5t-61 -3.5zM493 -10q-181 0 -255.5 74t-51.5 233l49 353h-120l21 150h420l-21 -150
h-100l-48 -343q-12 -88 16 -122.5t112 -34.5t122 34.5t50 122.5l48 343h-100l21 150h420l-21 -150h-120l-49 -353q-23 -159 -117.5 -233t-275.5 -74z" />
    <glyph glyph-name="V" unicode="V" horiz-adv-x="1000" 
d="M575 0h-265l-137 650h-88l21 150h394l-21 -150h-100l99 -497l238 497h-100l21 150h369l-21 -150h-91z" />
    <glyph glyph-name="W" unicode="W" horiz-adv-x="1300" 
d="M722 0l-56 502l-196 -502h-214l-50 650h-101l21 150h390l-21 -150h-111l29 -459l190 509h179l57 -510l157 460h-111l21 150h380l-21 -150h-101l-232 -650h-210z" />
    <glyph glyph-name="Wcircumflex" unicode="&#x174;" horiz-adv-x="1300" 
d="M105 0zM515 884l-50 84l206 159h152l164 -159l-73 -83l-186 105zM722 0l-56 502l-196 -502h-214l-50 650h-101l21 150h390l-21 -150h-111l29 -459l190 509h179l57 -510l157 460h-111l21 150h380l-21 -150h-101l-232 -650h-210z" />
    <glyph glyph-name="Wgrave" unicode="&#x1e80;" horiz-adv-x="1300" 
d="M105 0zM697 900l-197 200h250l78 -200h-131zM722 0l-56 502l-196 -502h-214l-50 650h-101l21 150h390l-21 -150h-111l29 -459l190 509h179l57 -510l157 460h-111l21 150h380l-21 -150h-101l-232 -650h-210z" />
    <glyph glyph-name="Wacute" unicode="&#x1e82;" horiz-adv-x="1300" 
d="M105 0zM582 900l134 200h250l-253 -200h-131zM722 0l-56 502l-196 -502h-214l-50 650h-101l21 150h390l-21 -150h-111l29 -459l190 509h179l57 -510l157 460h-111l21 150h380l-21 -150h-101l-232 -650h-210z" />
    <glyph glyph-name="Wdieresis" unicode="&#x1e84;" horiz-adv-x="1300" 
d="M105 0zM585 890q-43 0 -68 17t-19 59l2 15q6 43 36 61t73 18q44 0 68.5 -18t18.5 -61l-2 -15q-6 -42 -36 -59t-73 -17zM845 890q-43 0 -68 17t-19 59l2 15q6 43 36 61t73 18q44 0 68.5 -18t18.5 -61l-2 -15q-6 -42 -36 -59t-73 -17zM722 0l-56 502l-196 -502h-214
l-50 650h-101l21 150h390l-21 -150h-111l29 -459l190 509h179l57 -510l157 460h-111l21 150h380l-21 -150h-101l-232 -650h-210z" />
    <glyph glyph-name="X" unicode="X" horiz-adv-x="1000" 
d="M367 130l-18 -130h-325l21 150h79l253 261l-161 239h-101l21 150h396l-18 -130h-77l117 -173l158 173h-78l18 130h324l-21 -150h-85l-244 -260l162 -240h97l-21 -150h-395l18 130h78l-117 175l-161 -175h80z" />
    <glyph glyph-name="Y" unicode="Y" horiz-adv-x="1000" 
d="M685 0h-482l21 150h141l21 150l-196 350h-105l21 150h420l-21 -150h-99l118 -216l180 216h-99l21 150h380l-21 -150h-106l-293 -350l-21 -150h141z" />
    <glyph glyph-name="Yacute" unicode="&#xdd;" horiz-adv-x="1000" 
d="M85 0zM685 0h-482l21 150h141l21 150l-196 350h-105l21 150h420l-21 -150h-99l118 -216l180 216h-99l21 150h380l-21 -150h-106l-293 -350l-21 -150h141zM432 900l134 200h250l-253 -200h-131z" />
    <glyph glyph-name="Ycircumflex" unicode="&#x176;" horiz-adv-x="1000" 
d="M85 0zM685 0h-482l21 150h141l21 150l-196 350h-105l21 150h420l-21 -150h-99l118 -216l180 216h-99l21 150h380l-21 -150h-106l-293 -350l-21 -150h141zM365 884l-50 84l206 159h152l164 -159l-73 -83l-186 105z" />
    <glyph glyph-name="Ydieresis" unicode="&#x178;" horiz-adv-x="1000" 
d="M85 0zM685 0h-482l21 150h141l21 150l-196 350h-105l21 150h420l-21 -150h-99l118 -216l180 216h-99l21 150h380l-21 -150h-106l-293 -350l-21 -150h141zM435 890q-43 0 -68 17t-19 59l2 15q6 43 36 61t73 18q44 0 68.5 -18t18.5 -61l-2 -15q-6 -42 -36 -59t-73 -17z
M695 890q-43 0 -68 17t-19 59l2 15q6 43 36 61t73 18q44 0 68.5 -18t18.5 -61l-2 -15q-6 -42 -36 -59t-73 -17z" />
    <glyph glyph-name="Ygrave" unicode="&#x1ef2;" horiz-adv-x="1000" 
d="M85 0zM685 0h-482l21 150h141l21 150l-196 350h-105l21 150h420l-21 -150h-99l118 -216l180 216h-99l21 150h380l-21 -150h-106l-293 -350l-21 -150h141zM547 900l-197 200h250l78 -200h-131z" />
    <glyph glyph-name="Z" unicode="Z" horiz-adv-x="900" 
d="M754 0h-720l21 150l523 500h-273l-15 -110h-170l36 260h700l-21 -150l-522 -500h292l16 110h170z" />
    <glyph glyph-name="Zacute" unicode="&#x179;" horiz-adv-x="900" 
d="M34 0zM382 900l134 200h250l-253 -200h-131zM754 0h-720l21 150l523 500h-273l-15 -110h-170l36 260h700l-21 -150l-522 -500h292l16 110h170z" />
    <glyph glyph-name="Zdotaccent" unicode="&#x17b;" horiz-adv-x="900" 
d="M34 0zM754 0h-720l21 150l523 500h-273l-15 -110h-170l36 260h700l-21 -150l-522 -500h292l16 110h170zM515 890q-57 0 -90 17t-27 59l2 15q6 43 44 61t95 18t90 -18t27 -61l-2 -15q-6 -42 -44.5 -59t-94.5 -17z" />
    <glyph glyph-name="Zcaron" unicode="&#x17d;" horiz-adv-x="900" 
d="M34 0zM442 904l-164 159l73 83l186 -105l213 106l50 -84l-206 -159h-152zM754 0h-720l21 150l523 500h-273l-15 -110h-170l36 260h700l-21 -150l-522 -500h292l16 110h170z" />
    <glyph glyph-name="AE" unicode="&#xc6;" horiz-adv-x="1400" 
d="M624 650l-119 -210h201l29 210h-111zM445 150l-21 -150h-390l21 150h106l291 500h-127l21 150h990l-39 -280h-190l18 130h-190l-24 -170h140l-21 -150h-140l-25 -180h190l18 130h190l-39 -280h-670l21 150h90l20 140h-266l-80 -140h106z" />
    <glyph glyph-name="AEacute" unicode="&#x1fc;" horiz-adv-x="1400" 
d="M34 0zM739 900l134 200h250l-253 -200h-131zM624 650l-119 -210h201l29 210h-111zM445 150l-21 -150h-390l21 150h106l291 500h-127l21 150h990l-39 -280h-190l18 130h-190l-24 -170h140l-21 -150h-140l-25 -180h190l18 130h190l-39 -280h-670l21 150h90l20 140h-266
l-80 -140h106z" />
    <glyph glyph-name="Eth" unicode="&#xd0;" horiz-adv-x="1000" 
d="M24 0l21 150h120l32 230h-120l17 120h120l21 150h-120l21 150h471q164 0 245.5 -79.5t63.5 -211.5l-32 -222q-18 -131 -122 -209t-268 -78h-470zM365 150h130q96 0 138 34t54 123l26 182q13 92 -19.5 126.5t-128.5 34.5h-130l-21 -150h130l-17 -120h-130z" />
    <glyph glyph-name="Oslash" unicode="&#xd8;" horiz-adv-x="900" 
d="M285 204l243 454q-8 1 -19 1.5t-22 0.5q-84 0 -122 -33t-49 -118l-32 -222q-3 -26 -3 -46.5t4 -36.5zM414 140q84 0 121.5 32t48.5 115l32 222q3 26 3 47.5t-4 37.5l-244 -452q10 -1 20.5 -1.5t22.5 -0.5zM393 -10q-25 0 -47.5 1.5t-44.5 4.5l-51 -96h-140l73 134
q-61 34 -87 93t-14 140l36 262q19 132 119 206.5t272 74.5q24 0 46 -1.5t43 -4.5l52 96h140l-71 -134q61 -35 86 -95.5t13 -141.5l-36 -262q-19 -131 -118 -204t-271 -73z" />
    <glyph glyph-name="Oslashacute" unicode="&#x1fe;" horiz-adv-x="900" 
d="M70 0zM285 204l243 454q-8 1 -19 1.5t-22 0.5q-84 0 -122 -33t-49 -118l-32 -222q-3 -26 -3 -46.5t4 -36.5zM414 140q84 0 121.5 32t48.5 115l32 222q3 26 3 47.5t-4 37.5l-244 -452q10 -1 20.5 -1.5t22.5 -0.5zM393 -10q-25 0 -47.5 1.5t-44.5 4.5l-51 -96h-140l73 134
q-61 34 -87 93t-14 140l36 262q19 132 119 206.5t272 74.5q24 0 46 -1.5t43 -4.5l52 96h140l-71 -134q61 -35 86 -95.5t13 -141.5l-36 -262q-19 -131 -118 -204t-271 -73zM382 900l134 200h250l-253 -200h-131z" />
    <glyph glyph-name="Thorn" unicode="&#xde;" horiz-adv-x="900" 
d="M504 122h-143l-17 -122h-320l22 160h120l68 480h-120l22 160h320l-16 -120h142q141 0 206.5 -54t51.5 -157l-21 -150q-14 -96 -94.5 -146.5t-220.5 -50.5zM528 530h-110l-36 -260h110q60 0 92 15.5t39 60.5l14 103q7 46 -21 63.5t-88 17.5z" />
    <glyph glyph-name="Dcroat" unicode="&#x110;" horiz-adv-x="1000" 
d="M24 0l21 150h120l32 230h-120l17 120h120l21 150h-120l21 150h471q164 0 245.5 -79.5t63.5 -211.5l-32 -222q-18 -131 -122 -209t-268 -78h-470zM365 150h130q96 0 138 34t54 123l26 182q13 92 -19.5 126.5t-128.5 34.5h-130l-21 -150h130l-17 -120h-130z" />
    <glyph glyph-name="Hbar" unicode="&#x126;" 
d="M396 370h300l11 80h-300zM465 150l-21 -150h-420l21 150h120l42 300h-120l17 120h120l11 80h-120l21 150h420l-21 -150h-100l-11 -80h300l11 80h-100l21 150h420l-21 -150h-120l-11 -80h120l-17 -120h-120l-42 -300h120l-21 -150h-420l21 150h100l14 100h-300l-14 -100
h100z" />
    <glyph glyph-name="IJ" unicode="&#x132;" horiz-adv-x="1700" 
d="M44 0zM44 0l21 150h200l70 500h-200l21 150h600l-21 -150h-200l-70 -500h200l-21 -150h-600zM1656 800l-21 -150h-100l-54 -390q-20 -137 -102.5 -203.5t-234.5 -66.5q-185 0 -250.5 64t-49.5 233l202 11q-7 -101 12 -129.5t93 -28.5q67 0 93.5 26.5t37.5 103.5l53 380
h-200l21 150h500z" />
    <glyph glyph-name="Ldot" unicode="&#x13f;" horiz-adv-x="1000" 
d="M24 0zM861 400q-57 0 -90 17t-27 59l2 15q6 43 44 61t95 18t90 -18t27 -61l-2 -15q-6 -42 -44.5 -59t-94.5 -17zM24 0l21 150h120l70 500h-120l21 150h459l-21 -150h-139l-70 -500h240l25 180h190l-46 -330h-750z" />
    <glyph glyph-name="Lslash" unicode="&#x141;" horiz-adv-x="900" 
d="M24 0l21 150h120l27 188l-126 -38l17 120l125 38l27 192h-120l21 150h459l-21 -150h-139l-18 -128l189 58l-17 -120l-189 -58l-35 -252h240l25 180h190l-46 -330h-750z" />
    <glyph glyph-name="Eng" unicode="&#x14a;" horiz-adv-x="1000" 
d="M24 0l21 150h120l70 500h-120l21 150h320l-22 -160h30q53 94 124 132t143 38q100 0 155 -58.5t39 -172.5l-81 -581q-16 -110 -106.5 -159t-195.5 -49q-40 0 -79 5.5t-74 17.5l37 126q30 -10 57.5 -14.5t51.5 -4.5q46 0 75 22t36 73l72 509q9 70 -12.5 103t-78.5 33
q-49 0 -100 -33t-109 -103l-53 -374h120l-21 -150h-440z" />
    <glyph glyph-name="OE" unicode="&#x152;" horiz-adv-x="1300" 
d="M373 0q-154 0 -230.5 79.5t-57.5 211.5l31 222q19 131 117 209t253 78h750l-39 -280h-190l18 130h-210l-24 -170h160l-21 -150h-160l-25 -180h210l18 130h190l-39 -280h-751zM415 150h130l70 500h-130q-87 0 -123 -33.5t-49 -123.5l-25 -182q-13 -93 13.5 -127t113.5 -34
z" />
    <glyph glyph-name="Tbar" unicode="&#x166;" horiz-adv-x="1000" 
d="M203 0l21 150h141l20 140h-200l17 120h200l33 240h-120l-21 -150h-200l42 300h840l-42 -300h-200l21 150h-120l-33 -240h200l-17 -120h-200l-20 -140h141l-21 -150h-482z" />
    <glyph glyph-name="Alpha" unicode="&#x391;" horiz-adv-x="1000" 
d="M0 0zM580 410l-53 267l-128 -267h181zM385 150l-21 -150h-370l21 150h91l319 650h265l137 -650h88l-21 -150h-390l21 150h106l-24 120h-275l-58 -120h111z" />
    <glyph glyph-name="Alphatonos" unicode="&#x386;" 
d="M49 0zM680 410l-53 267l-128 -267h181zM485 150l-21 -150h-370l21 150h91l319 650h265l137 -650h88l-21 -150h-390l21 150h106l-24 120h-275l-58 -120h111zM49 600l74 200h240l-193 -200h-121z" />
    <glyph glyph-name="Beta" unicode="&#x392;" horiz-adv-x="1000" 
d="M24 0zM24 0l21 150h120l70 500h-120l21 150h534q128 0 189.5 -48t48.5 -139l-5 -36q-8 -58 -46 -92t-112 -47l-5 -29q77 -7 112.5 -52.5t25.5 -113.5l-4 -32q-15 -102 -97 -156.5t-222 -54.5h-531zM411 480h184q51 0 76.5 18t30.5 59l4 28q6 40 -14 57.5t-71 17.5h-184z
M364 140h180q64 0 95 21t37 70l5 32q7 48 -18.5 68.5t-89.5 20.5h-180z" />
    <glyph glyph-name="Gamma" unicode="&#x393;" horiz-adv-x="900" 
d="M24 0l21 150h120l70 500h-120l21 150h770l-42 -300h-190l21 150h-260l-70 -500h200l-21 -150h-520z" />
    <glyph glyph-name="Delta" unicode="&#x394;" horiz-adv-x="800" 
d="M-26 0l21 150l324 650h285l131 -650l-21 -150h-740zM532 150l-98 529l-254 -529h352z" />
    <glyph glyph-name="Epsilon" unicode="&#x395;" horiz-adv-x="1000" 
d="M24 0zM24 0l21 150h120l70 500h-120l21 150h800l-39 -280h-190l18 130h-290l-24 -170h240l-21 -150h-240l-25 -180h290l18 130h190l-39 -280h-800z" />
    <glyph glyph-name="Epsilontonos" unicode="&#x388;" horiz-adv-x="1200" 
d="M9 0zM224 0l21 150h120l70 500h-120l21 150h800l-39 -280h-190l18 130h-290l-24 -170h240l-21 -150h-240l-25 -180h290l18 130h190l-39 -280h-800zM9 600l74 200h240l-193 -200h-121z" />
    <glyph glyph-name="Zeta" unicode="&#x396;" horiz-adv-x="900" 
d="M34 0zM754 0h-720l21 150l523 500h-273l-15 -110h-170l36 260h700l-21 -150l-522 -500h292l16 110h170z" />
    <glyph glyph-name="Eta" unicode="&#x397;" 
d="M24 0zM24 0l21 150h120l70 500h-120l21 150h420l-21 -150h-100l-21 -150h300l21 150h-100l21 150h420l-21 -150h-120l-70 -500h120l-21 -150h-420l21 150h100l30 210h-300l-30 -210h100l-21 -150h-420z" />
    <glyph glyph-name="Etatonos" unicode="&#x389;" horiz-adv-x="1300" 
d="M0 0zM-1 600l74 200h240l-193 -200h-121zM224 0l21 150h120l70 500h-120l21 150h420l-21 -150h-100l-21 -150h300l21 150h-100l21 150h420l-21 -150h-120l-70 -500h120l-21 -150h-420l21 150h100l30 210h-300l-30 -210h100l-21 -150h-420z" />
    <glyph glyph-name="Theta" unicode="&#x398;" horiz-adv-x="900" 
d="M393 -10q-172 0 -251 73t-60 204l36 262q19 132 119 206.5t272 74.5t250 -74.5t59 -206.5l-36 -262q-19 -131 -118 -204t-271 -73zM414 140q88 0 128.5 33t51.5 114l32 222q11 83 -20 117t-119 34t-129 -34t-52 -117l-32 -222q-11 -81 20.5 -114t119.5 -33zM362 340
l18 130h160l-18 -130h-160z" />
    <glyph glyph-name="Iota" unicode="&#x399;" horiz-adv-x="800" 
d="M44 0zM44 0l21 150h200l70 500h-200l21 150h600l-21 -150h-200l-70 -500h200l-21 -150h-600z" />
    <glyph glyph-name="Iotatonos" unicode="&#x38a;" horiz-adv-x="1000" 
d="M0 0zM-1 600l74 200h240l-193 -200h-121zM244 0l21 150h200l70 500h-200l21 150h600l-21 -150h-200l-70 -500h200l-21 -150h-600z" />
    <glyph glyph-name="Iotadieresis" unicode="&#x3aa;" horiz-adv-x="800" 
d="M44 0zM44 0l21 150h200l70 500h-200l21 150h600l-21 -150h-200l-70 -500h200l-21 -150h-600zM335 890q-43 0 -68 17t-19 59l2 15q6 43 36 61t73 18q44 0 68.5 -18t18.5 -61l-2 -15q-6 -42 -36 -59t-73 -17zM595 890q-43 0 -68 17t-19 59l2 15q6 43 36 61t73 18
q44 0 68.5 -18t18.5 -61l-2 -15q-6 -42 -36 -59t-73 -17z" />
    <glyph glyph-name="Kappa" unicode="&#x39a;" horiz-adv-x="1000" 
d="M24 0zM455 150l-21 -150h-410l21 150h120l70 500h-120l21 150h390l-21 -150h-70l-23 -165h90l158 165h-75l21 150h370l-21 -150h-90l-212 -221l139 -279h103l-21 -150h-248l-159 335h-76l-26 -185h90z" />
    <glyph glyph-name="Lambda" unicode="&#x39b;" horiz-adv-x="1000" 
d="M384 150l-21 -150h-369l21 150h91l319 650h265l137 -650h88l-21 -150h-394l21 150h100l-98 497l-239 -497h100z" />
    <glyph glyph-name="Mu" unicode="&#x39c;" horiz-adv-x="1200" 
d="M24 0zM435 150l-21 -150h-390l21 150h120l70 500h-120l21 150h390l86 -376l189 376h375l-21 -150h-120l-70 -500h120l-21 -150h-390l21 150h100l64 457l-187 -357h-186l-87 356l-64 -456h100z" />
    <glyph glyph-name="Nu" unicode="&#x39d;" 
d="M24 0zM435 150l-21 -150h-390l21 150h120l70 500h-120l21 150h387l177 -615l65 465h-100l21 150h390l-21 -150h-120l-91 -650h-283l-166 577l-60 -427h100z" />
    <glyph glyph-name="Xi" unicode="&#x39e;" horiz-adv-x="1000" 
d="M327 520h-190l39 280h760l-39 -280h-190l18 130h-380zM630 330h-280l21 150h280zM64 0l39 280h190l-18 -130h380l18 130h190l-39 -280h-760z" />
    <glyph glyph-name="Omicron" unicode="&#x39f;" horiz-adv-x="900" 
d="M63 0zM393 -10q-172 0 -251 73t-60 204l36 262q19 132 119 206.5t272 74.5t250 -74.5t59 -206.5l-36 -262q-19 -131 -118 -204t-271 -73zM414 140q83 0 121 33t49 114l32 222q11 84 -17.5 117.5t-111.5 33.5t-121.5 -33.5t-49.5 -117.5l-32 -222q-11 -81 18 -114t112 -33
z" />
    <glyph glyph-name="Omicrontonos" unicode="&#x38c;" horiz-adv-x="1000" 
d="M19 0zM19 600l74 200h240l-193 -200h-121zM493 -10q-172 0 -251 73t-60 204l36 262q19 132 119 206.5t272 74.5t250 -74.5t59 -206.5l-36 -262q-19 -131 -118 -204t-271 -73zM514 140q83 0 121 33t49 114l32 222q11 84 -17.5 117.5t-111.5 33.5t-121.5 -33.5
t-49.5 -117.5l-32 -222q-11 -81 18 -114t112 -33z" />
    <glyph glyph-name="Pi" unicode="&#x3a0;" 
d="M24 0l21 150h120l70 500h-120l21 150h940l-21 -150h-120l-70 -500h120l-21 -150h-420l21 150h100l70 500h-300l-70 -500h100l-21 -150h-420z" />
    <glyph glyph-name="Rho" unicode="&#x3a1;" horiz-adv-x="900" 
d="M24 0zM24 0l21 150h120l70 500h-120l21 150h462q142 0 207.5 -53.5t51.5 -157.5l-17 -120q-14 -97 -93.5 -147t-221.5 -50h-143l-17 -122h170l-21 -150h-490zM403 420h110q64 0 94.5 18t36.5 59l10 70q6 45 -19.5 64t-89.5 19h-110z" />
    <glyph glyph-name="Sigma" unicode="&#x3a3;" horiz-adv-x="900" 
d="M803 280l-39 -280h-750l21 150l305 276l-235 224l21 150h750l-39 -280h-190l18 130h-337l183 -175l-17 -118l-236 -207h337l18 130h190z" />
    <glyph glyph-name="Tau" unicode="&#x3a4;" horiz-adv-x="1000" 
d="M94 0zM203 0l21 150h141l70 500h-120l-21 -150h-200l42 300h840l-42 -300h-200l21 150h-120l-70 -500h141l-21 -150h-482z" />
    <glyph glyph-name="Upsilon" unicode="&#x3a5;" horiz-adv-x="1000" 
d="M85 0zM685 0h-482l21 150h141l21 150l-196 350h-105l21 150h420l-21 -150h-99l118 -216l180 216h-99l21 150h380l-21 -150h-106l-293 -350l-21 -150h141z" />
    <glyph glyph-name="Upsilontonos" unicode="&#x38e;" horiz-adv-x="1300" 
d="M59 0zM985 0h-482l21 150h141l21 150l-196 350h-105l21 150h420l-21 -150h-99l118 -216l180 216h-99l21 150h380l-21 -150h-106l-293 -350l-21 -150h141zM59 600l74 200h240l-193 -200h-121z" />
    <glyph glyph-name="Upsilondieresis" unicode="&#x3ab;" horiz-adv-x="1000" 
d="M85 0zM685 0h-482l21 150h141l21 150l-196 350h-105l21 150h420l-21 -150h-99l118 -216l180 216h-99l21 150h380l-21 -150h-106l-293 -350l-21 -150h141zM435 890q-43 0 -68 17t-19 59l2 15q6 43 36 61t73 18q44 0 68.5 -18t18.5 -61l-2 -15q-6 -42 -36 -59t-73 -17z
M695 890q-43 0 -68 17t-19 59l2 15q6 43 36 61t73 18q44 0 68.5 -18t18.5 -61l-2 -15q-6 -42 -36 -59t-73 -17z" />
    <glyph glyph-name="Phi" unicode="&#x3a6;" horiz-adv-x="1000" 
d="M36 0zM698 100l-17 -120h-480l17 120h140l14 100h-62q-150 0 -212 49t-51 128l6 42q11 81 87 131t226 50h62l14 100h-140l17 120h480l-17 -120h-140l-14 -100h43q160 0 226.5 -50t55.5 -131l-6 -42q-11 -79 -91.5 -128t-240.5 -49h-43l-14 -100h140zM656 490h-48
l-25 -180h48q55 0 83 16.5t33 50.5l6 42q5 37 -18.5 54t-78.5 17zM326 310h67l25 180h-67q-46 0 -69.5 -17t-28.5 -54l-6 -42q-5 -34 14 -50.5t65 -16.5z" />
    <glyph glyph-name="Chi" unicode="&#x3a7;" 
d="M24 0zM367 130l-18 -130h-325l21 150h79l253 261l-161 239h-101l21 150h396l-18 -130h-77l117 -173l158 173h-78l18 130h324l-21 -150h-85l-244 -260l162 -240h97l-21 -150h-395l18 130h78l-117 175l-161 -175h80z" />
    <glyph glyph-name="Psi" unicode="&#x3a8;" 
d="M709 0h-430l20 140h120l16 114q-165 16 -242 85t-60 188l17 123h-100l21 150h290l-34 -243q-9 -64 21 -98t109 -44l35 245h-70l19 140h330l-19 -140h-70l-35 -246q84 10 122.5 43.5t47.5 99.5l34 243h290l-21 -150h-100l-17 -123q-17 -121 -113 -190.5t-265 -82.5
l-16 -114h120z" />
    <glyph glyph-name="Omega" unicode="&#x3a9;" horiz-adv-x="900" 
d="M344 0h-330l17 120h130l13 90q-72 33 -102 83t-20 118l15 108q18 132 125 211.5t316 79.5t293 -79.5t66 -211.5l-15 -108q-10 -68 -54 -118t-124 -83l-13 -90h130l-17 -120h-330l32 230q90 15 128 61.5t48 119.5l15 108q8 60 -27.5 95.5t-154.5 35.5t-164.5 -35.5
t-53.5 -95.5l-15 -108q-10 -73 14 -119.5t110 -61.5z" />
    <glyph glyph-name="Omegatonos" unicode="&#x38f;" 
d="M19 0zM19 600l74 200h240l-193 -200h-121zM544 0h-330l17 120h130l13 90q-72 33 -102 83t-20 118l15 108q18 132 125 211.5t316 79.5t293 -79.5t66 -211.5l-15 -108q-10 -68 -54 -118t-124 -83l-13 -90h130l-17 -120h-330l32 230q90 15 128 61.5t48 119.5l15 108
q8 60 -27.5 95.5t-154.5 35.5t-164.5 -35.5t-53.5 -95.5l-15 -108q-10 -73 14 -119.5t110 -61.5z" />
    <glyph glyph-name="Ohm" unicode="&#x2126;" horiz-adv-x="900" 
d="M14 0zM344 0h-330l17 120h130l13 90q-72 33 -102 83t-20 118l15 108q18 132 125 211.5t316 79.5t293 -79.5t66 -211.5l-15 -108q-10 -68 -54 -118t-124 -83l-13 -90h130l-17 -120h-330l32 230q90 15 128 61.5t48 119.5l15 108q8 60 -27.5 95.5t-154.5 35.5t-164.5 -35.5
t-53.5 -95.5l-15 -108q-10 -73 14 -119.5t110 -61.5z" />
    <glyph glyph-name="Djecyrillic" unicode="&#x402;" 
d="M204 0l21 150h140l70 500h-120l-21 -150h-200l42 300h840l-35 -250h-200l14 100h-120l-24 -170h130q164 0 234.5 -54t54.5 -167l-5 -41q-16 -112 -101.5 -165t-249.5 -53l21 148q63 0 94 17.5t36 54.5l5 37q6 40 -20 57.5t-89 17.5h-130l-47 -332h-340z" />
    <glyph glyph-name="Ecyrillic" unicode="&#x404;" horiz-adv-x="900" 
d="M813 277q-28 -151 -122 -219t-278 -68q-194 0 -272 73t-59 204l36 262q19 132 118 206.5t293 74.5q183 0 258 -68.5t60 -222.5l-201 -10q4 85 -25.5 118t-113.5 33q-96 0 -137.5 -32.5t-54.5 -119.5l-1 -8h250l-21 -150h-250l-9 -63q-11 -84 21.5 -115.5t128.5 -31.5
q84 0 123 32t57 115z" />
    <glyph glyph-name="Dzecyrillic" unicode="&#x405;" horiz-adv-x="900" 
d="M45 0zM384 -10q-92 0 -180.5 25.5t-158.5 65.5l66 149q72 -42 151.5 -66t171.5 -24q70 0 106 25t41 66q6 36 -36.5 53.5t-196.5 44.5q-132 22 -181.5 72t-35.5 149q16 110 109 185t259 75q82 0 167 -27t135 -59l-55 -142q-69 34 -137 55t-134 21q-62 0 -99 -21.5
t-42 -63.5q-6 -36 36 -54t197 -46q132 -25 181 -77.5t35 -152.5q-17 -120 -122 -186.5t-277 -66.5z" />
    <glyph glyph-name="Icyrillic" unicode="&#x406;" horiz-adv-x="800" 
d="M44 0zM44 0l21 150h200l70 500h-200l21 150h600l-21 -150h-200l-70 -500h200l-21 -150h-600z" />
    <glyph glyph-name="Yicyrillic" unicode="&#x407;" horiz-adv-x="800" 
d="M44 0zM335 890q-43 0 -68 17t-19 59l2 15q6 43 36 61t73 18q44 0 68.5 -18t18.5 -61l-2 -15q-6 -42 -36 -59t-73 -17zM595 890q-43 0 -68 17t-19 59l2 15q6 43 36 61t73 18q44 0 68.5 -18t18.5 -61l-2 -15q-6 -42 -36 -59t-73 -17zM44 0l21 150h200l70 500h-200l21 150
h600l-21 -150h-200l-70 -500h200l-21 -150h-600z" />
    <glyph glyph-name="Jecyrillic" unicode="&#x408;" horiz-adv-x="900" 
d="M28 0zM856 800l-21 -150h-100l-54 -390q-20 -137 -102.5 -203.5t-234.5 -66.5q-185 0 -250.5 64t-49.5 233l202 11q-7 -101 12 -129.5t93 -28.5q67 0 93.5 26.5t37.5 103.5l53 380h-200l21 150h500z" />
    <glyph glyph-name="Ljecyrillic" unicode="&#x409;" horiz-adv-x="1300" 
d="M370 237q-20 -135 -92 -193t-178 -58q-29 0 -60.5 4.5t-63.5 13.5l41 151q17 -4 34.5 -6.5t33.5 -2.5q32 0 55.5 20.5t33.5 82.5l62 401h-101l21 150h850l-21 -150h-150l-17 -122h143q136 0 204.5 -52t55.5 -145l-17 -120q-14 -100 -97.5 -155.5t-220.5 -55.5h-462
l21 150h120l70 500h-205zM797 380l-32 -230h110q63 0 94 18.5t37 60.5l10 73q6 41 -20 59.5t-89 18.5h-110z" />
    <glyph glyph-name="Njecyrillic" unicode="&#x40a;" horiz-adv-x="1400" 
d="M897 380l-32 -230h110q63 0 94 19t37 62l11 73q5 40 -21 58t-89 18h-110zM465 150l-21 -150h-420l21 150h120l70 500h-120l21 150h420l-21 -150h-100l-21 -150h300l21 150h-100l21 150h450l-21 -150h-150l-17 -122h143q136 0 204.5 -52t55.5 -145l-17 -120
q-14 -100 -97.5 -155.5t-220.5 -55.5h-442l21 150h100l30 210h-300l-30 -210h100z" />
    <glyph glyph-name="Tshecyrillic" unicode="&#x40b;" horiz-adv-x="1200" 
d="M203 0l21 150h141l70 500h-120l-21 -150h-200l42 300h840l-35 -250h-200l14 100h-120l-24 -170h150q147 0 215 -61.5t52 -179.5l-13 -89h110l-21 -150h-310l33 237q8 54 -16 74.5t-70 20.5h-150l-26 -182h121l-21 -150h-462z" />
    <glyph glyph-name="Dzhecyrillic" unicode="&#x40f;" 
d="M964 0h-375l-21 -150h-190l21 150h-375l21 150h120l70 500h-120l21 150h420l-21 -150h-100l-70 -500h300l70 500h-100l21 150h420l-21 -150h-120l-70 -500h120z" />
    <glyph glyph-name="Acyrillic" unicode="&#x410;" horiz-adv-x="1000" 
d="M0 0zM580 410l-53 267l-128 -267h181zM385 150l-21 -150h-370l21 150h91l319 650h265l137 -650h88l-21 -150h-390l21 150h106l-24 120h-275l-58 -120h111z" />
    <glyph glyph-name="Becyrillic" unicode="&#x411;" horiz-adv-x="1000" 
d="M24 0l21 150h120l70 500h-120l21 150h790l-33 -240h-190l12 90h-280l-24 -170h234q133 0 199 -54.5t52 -152.5l-7 -52q-15 -104 -96.5 -162.5t-213.5 -58.5h-555zM365 150h214q51 0 78 18t33 58l4 32q6 38 -16 56t-73 18h-214z" />
    <glyph glyph-name="Vecyrillic" unicode="&#x412;" horiz-adv-x="1000" 
d="M24 0zM24 0l21 150h120l70 500h-120l21 150h534q128 0 189.5 -48t48.5 -139l-5 -36q-8 -58 -46 -92t-112 -47l-5 -29q77 -7 112.5 -52.5t25.5 -113.5l-4 -32q-15 -102 -97 -156.5t-222 -54.5h-531zM411 480h184q51 0 76.5 18t30.5 59l4 28q6 40 -14 57.5t-71 17.5h-184z
M364 140h180q64 0 95 21t37 70l5 32q7 48 -18.5 68.5t-89.5 20.5h-180z" />
    <glyph glyph-name="Gecyrillic" unicode="&#x413;" horiz-adv-x="900" 
d="M24 0zM24 0l21 150h120l70 500h-120l21 150h770l-42 -300h-190l21 150h-260l-70 -500h200l-21 -150h-520z" />
    <glyph glyph-name="Gjecyrillic" unicode="&#x403;" horiz-adv-x="900" 
d="M24 0zM517 900l134 200h250l-253 -200h-131zM24 0l21 150h120l70 500h-120l21 150h770l-42 -300h-190l21 150h-260l-70 -500h200l-21 -150h-520z" />
    <glyph glyph-name="Decyrillic" unicode="&#x414;" horiz-adv-x="1000" 
d="M313 169l-3 -19h255l70 500h-214l-51 -345q-10 -61 -24.5 -90.5t-32.5 -45.5zM174 0l-21 -150h-200l42 300h122q20 15 34.5 49.5t25.5 108.5l52 342h-116l21 150h842l-21 -150h-120l-70 -500h120l-42 -300h-200l21 150h-490z" />
    <glyph glyph-name="Iecyrillic" unicode="&#x415;" horiz-adv-x="1000" 
d="M24 0zM24 0l21 150h120l70 500h-120l21 150h800l-39 -280h-190l18 130h-290l-24 -170h240l-21 -150h-240l-25 -180h290l18 130h190l-39 -280h-800z" />
    <glyph glyph-name="IEgravecyrillic" unicode="&#x400;" horiz-adv-x="1000" 
d="M24 0zM527 900l-197 200h250l78 -200h-131zM24 0l21 150h120l70 500h-120l21 150h800l-39 -280h-190l18 130h-290l-24 -170h240l-21 -150h-240l-25 -180h290l18 130h190l-39 -280h-800z" />
    <glyph glyph-name="Iocyrillic" unicode="&#x401;" horiz-adv-x="1000" 
d="M24 0zM24 0l21 150h120l70 500h-120l21 150h800l-39 -280h-190l18 130h-290l-24 -170h240l-21 -150h-240l-25 -180h290l18 130h190l-39 -280h-800zM445 890q-43 0 -68 17t-19 59l2 15q6 43 36 61t73 18q44 0 68.5 -18t18.5 -61l-2 -15q-6 -42 -36 -59t-73 -17zM705 890
q-43 0 -68 17t-19 59l2 15q6 43 36 61t73 18q44 0 68.5 -18t18.5 -61l-2 -15q-6 -42 -36 -59t-73 -17z" />
    <glyph glyph-name="Zhecyrillic" unicode="&#x416;" horiz-adv-x="1300" 
d="M449 340l-220 -340h-240l21 150h107l182 272l-103 228h-106l21 150h220l145 -320h90l26 180h-90l19 140h370l-19 -140h-89l-26 -180h89l235 320h220l-21 -150h-106l-167 -228l106 -272h107l-21 -150h-240l-124 340h-97l-28 -200h89l-20 -140h-370l20 140h90l28 200h-98z
" />
    <glyph glyph-name="Zecyrillic" unicode="&#x417;" horiz-adv-x="900" 
d="M406 -10q-189 0 -268 70.5t-69 191.5l202 10q-2 -65 34.5 -94.5t119.5 -29.5q73 0 109 22t43 72l3 22q7 51 -24.5 69.5t-103.5 18.5h-83l21 147h83q66 0 95 16.5t35 56.5l3 19q6 43 -21 62t-93 19q-69 0 -107 -25.5t-53 -81.5l-199 10q24 119 111.5 182t263.5 63
q155 0 235 -47.5t65 -154.5l-2 -18q-9 -62 -39 -101t-105 -52l-4 -29q80 -10 105.5 -50t14.5 -118l-3 -17q-17 -122 -116 -177.5t-253 -55.5z" />
    <glyph glyph-name="Iicyrillic" unicode="&#x418;" 
d="M685 150l61 435l-329 -585h-393l21 150h120l70 500h-120l21 150h400l-21 -150h-100l-67 -480l351 630h377l-21 -150h-120l-70 -500h120l-21 -150h-400l21 150h100z" />
    <glyph glyph-name="Igravecyrillic" unicode="&#x40d;" 
d="M24 0zM577 900l-197 200h250l78 -200h-131zM685 150l61 435l-329 -585h-393l21 150h120l70 500h-120l21 150h400l-21 -150h-100l-67 -480l351 630h377l-21 -150h-120l-70 -500h120l-21 -150h-400l21 150h100z" />
    <glyph glyph-name="Iishortcyrillic" unicode="&#x419;" 
d="M24 0zM685 150l61 435l-329 -585h-393l21 150h120l70 500h-120l21 150h400l-21 -150h-100l-67 -480l351 630h377l-21 -150h-120l-70 -500h120l-21 -150h-400l21 150h100zM635 893q-105 0 -177 51.5t-52 178.5l171 10q-10 -65 5.5 -93t69.5 -28t77.5 28t31.5 93l169 -10
q-16 -127 -103 -178.5t-192 -51.5z" />
    <glyph glyph-name="Kacyrillic" unicode="&#x41a;" horiz-adv-x="1000" 
d="M24 0zM455 150l-21 -150h-410l21 150h120l70 500h-120l21 150h390l-21 -150h-70l-23 -165h90l158 165h-75l21 150h370l-21 -150h-90l-212 -221l139 -279h103l-21 -150h-248l-159 335h-76l-26 -185h90z" />
    <glyph glyph-name="Kjecyrillic" unicode="&#x40c;" horiz-adv-x="1000" 
d="M24 0zM502 900l134 200h250l-253 -200h-131zM455 150l-21 -150h-410l21 150h120l70 500h-120l21 150h390l-21 -150h-70l-23 -165h90l158 165h-75l21 150h370l-21 -150h-90l-212 -221l139 -279h103l-21 -150h-248l-159 335h-76l-26 -185h90z" />
    <glyph glyph-name="Elcyrillic" unicode="&#x41b;" horiz-adv-x="1000" 
d="M370 237q-20 -135 -92 -193t-178 -58q-29 0 -60.5 4.5t-63.5 13.5l41 151q17 -4 34.5 -6.5t33.5 -2.5q32 0 55.5 20.5t33.5 82.5l62 401h-101l21 150h820l-21 -150h-120l-70 -500h120l-21 -150h-440l21 150h120l70 500h-205z" />
    <glyph glyph-name="Emcyrillic" unicode="&#x41c;" horiz-adv-x="1200" 
d="M24 0zM435 150l-21 -150h-390l21 150h120l70 500h-120l21 150h390l86 -376l189 376h375l-21 -150h-120l-70 -500h120l-21 -150h-390l21 150h100l64 457l-187 -357h-186l-87 356l-64 -456h100z" />
    <glyph glyph-name="Encyrillic" unicode="&#x41d;" 
d="M24 0zM24 0l21 150h120l70 500h-120l21 150h420l-21 -150h-100l-21 -150h300l21 150h-100l21 150h420l-21 -150h-120l-70 -500h120l-21 -150h-420l21 150h100l30 210h-300l-30 -210h100l-21 -150h-420z" />
    <glyph glyph-name="Ocyrillic" unicode="&#x41e;" horiz-adv-x="900" 
d="M63 0zM393 -10q-172 0 -251 73t-60 204l36 262q19 132 119 206.5t272 74.5t250 -74.5t59 -206.5l-36 -262q-19 -131 -118 -204t-271 -73zM414 140q83 0 121 33t49 114l32 222q11 84 -17.5 117.5t-111.5 33.5t-121.5 -33.5t-49.5 -117.5l-32 -222q-11 -81 18 -114t112 -33
z" />
    <glyph glyph-name="Pecyrillic" unicode="&#x41f;" 
d="M24 0zM24 0l21 150h120l70 500h-120l21 150h940l-21 -150h-120l-70 -500h120l-21 -150h-420l21 150h100l70 500h-300l-70 -500h100l-21 -150h-420z" />
    <glyph glyph-name="Ercyrillic" unicode="&#x420;" horiz-adv-x="900" 
d="M24 0zM24 0l21 150h120l70 500h-120l21 150h462q142 0 207.5 -53.5t51.5 -157.5l-17 -120q-14 -97 -93.5 -147t-221.5 -50h-143l-17 -122h170l-21 -150h-490zM403 420h110q64 0 94.5 18t36.5 59l10 70q6 45 -19.5 64t-89.5 19h-110z" />
    <glyph glyph-name="Escyrillic" unicode="&#x421;" horiz-adv-x="900" 
d="M63 0zM413 -10q-194 0 -272 73t-59 204l36 262q19 132 118 206.5t293 74.5q184 0 258.5 -68.5t59.5 -222.5l-201 -10q4 85 -25.5 118t-113.5 33q-96 0 -138 -33t-54 -119l-31 -221q-11 -83 21.5 -115t128.5 -32q84 0 123 32t57 115l199 -10q-28 -152 -122 -219.5
t-278 -67.5z" />
    <glyph glyph-name="Tecyrillic" unicode="&#x422;" horiz-adv-x="1000" 
d="M94 0zM203 0l21 150h141l70 500h-120l-21 -150h-200l42 300h840l-42 -300h-200l21 150h-120l-70 -500h141l-21 -150h-482z" />
    <glyph glyph-name="Ucyrillic" unicode="&#x423;" horiz-adv-x="1000" 
d="M267 -11q-35 0 -71 5t-73 15l38 150q30 -9 57 -13.5t49 -4.5q50 0 85.5 22.5t64.5 68.5l11 18h-82l-153 400h-113l21 150h410l-21 -150h-93l104 -285l182 285h-93l21 150h399l-21 -150h-111l-316 -495q-58 -90 -133.5 -128t-161.5 -38z" />
    <glyph glyph-name="Ushortcyrillic" unicode="&#x40e;" horiz-adv-x="1000" 
d="M80 0zM267 -11q-35 0 -71 5t-73 15l38 150q30 -9 57 -13.5t49 -4.5q50 0 85.5 22.5t64.5 68.5l11 18h-82l-153 400h-113l21 150h410l-21 -150h-93l104 -285l182 285h-93l21 150h399l-21 -150h-111l-316 -495q-58 -90 -133.5 -128t-161.5 -38zM575 893q-105 0 -177 51.5
t-52 178.5l171 10q-10 -65 5.5 -93t69.5 -28t77.5 28t31.5 93l169 -10q-16 -127 -103 -178.5t-192 -51.5z" />
    <glyph glyph-name="Efcyrillic" unicode="&#x424;" horiz-adv-x="1000" 
d="M698 100l-17 -120h-480l17 120h140l14 100h-62q-150 0 -212 49t-51 128l6 42q11 81 87 131t226 50h62l14 100h-140l17 120h480l-17 -120h-140l-14 -100h43q160 0 226.5 -50t55.5 -131l-6 -42q-11 -79 -91.5 -128t-240.5 -49h-43l-14 -100h140zM656 490h-48l-25 -180h48
q55 0 83 16.5t33 50.5l6 42q5 37 -18.5 54t-78.5 17zM326 310h67l25 180h-67q-46 0 -69.5 -17t-28.5 -54l-6 -42q-5 -34 14 -50.5t65 -16.5z" />
    <glyph glyph-name="Khacyrillic" unicode="&#x425;" 
d="M24 0zM367 130l-18 -130h-325l21 150h79l253 261l-161 239h-101l21 150h396l-18 -130h-77l117 -173l158 173h-78l18 130h324l-21 -150h-85l-244 -260l162 -240h97l-21 -150h-395l18 130h78l-117 175l-161 -175h80z" />
    <glyph glyph-name="Tsecyrillic" unicode="&#x426;" 
d="M943 -150h-190l21 150h-750l21 150h120l70 500h-120l21 150h420l-21 -150h-100l-70 -500h300l70 500h-100l21 150h420l-21 -150h-120l-70 -500h120z" />
    <glyph glyph-name="Checyrillic" unicode="&#x427;" horiz-adv-x="1000" 
d="M374 0l21 150h170l17 120h-140q-154 0 -223 65.5t-50 195.5l16 119h-120l21 150h400l-21 -150h-80l-16 -117q-8 -57 16 -86t78 -29h140l32 232h-80l21 150h400l-21 -150h-120l-70 -500h120l-21 -150h-490z" />
    <glyph glyph-name="Shacyrillic" unicode="&#x428;" horiz-adv-x="1500" 
d="M24 0l21 150h120l70 500h-120l21 150h400l-21 -150h-90l-70 -500h265l70 500h-85l21 150h360l-21 -150h-85l-70 -500h265l70 500h-90l21 150h400l-21 -150h-120l-70 -500h120l-21 -150h-1340z" />
    <glyph glyph-name="Shchacyrillic" unicode="&#x429;" horiz-adv-x="1500" 
d="M1343 -150h-190l21 150h-1150l21 150h120l70 500h-120l21 150h400l-21 -150h-90l-70 -500h265l70 500h-85l21 150h360l-21 -150h-85l-70 -500h265l70 500h-90l21 150h400l-21 -150h-120l-70 -500h120z" />
    <glyph glyph-name="Hardsigncyrillic" unicode="&#x42a;" horiz-adv-x="1000" 
d="M596 0h-452l21 150h130l70 500h-120l-21 -150h-190l42 300h680l-21 -150h-170l-17 -122h123q136 0 204 -54.5t54 -152.5l-14 -100q-15 -104 -98.5 -162.5t-220.5 -58.5zM527 380l-32 -230h90q62 0 94 21t38 67l8 53q6 46 -20 67.5t-88 21.5h-90z" />
    <glyph glyph-name="Yericyrillic" unicode="&#x42b;" horiz-adv-x="1400" 
d="M824 0l21 150h120l70 500h-120l21 150h440l-21 -150h-120l-70 -500h120l-21 -150h-440zM136 800h470l-21 -150h-150l-17 -122h143q136 0 204.5 -52t55.5 -145l-17 -120q-14 -100 -97.5 -155.5t-220.5 -55.5h-462l21 150h120l70 500h-120zM397 380l-32 -230h110
q62 0 93.5 18.5t37.5 58.5l10 73q6 42 -20.5 61t-88.5 19h-110z" />
    <glyph glyph-name="Softsigncyrillic" unicode="&#x42c;" horiz-adv-x="900" 
d="M136 800h470l-21 -150h-150l-17 -122h143q136 0 204.5 -52t55.5 -145l-17 -120q-14 -100 -97.5 -155.5t-220.5 -55.5h-462l21 150h120l70 500h-120zM397 380l-32 -230h110q62 0 93.5 19t37.5 59l10 73q6 41 -20.5 60t-88.5 19h-110z" />
    <glyph glyph-name="Ereversedcyrillic" unicode="&#x42d;" horiz-adv-x="900" 
d="M378 -10q-184 0 -261.5 68t-63.5 219l201 10q-5 -87 25 -117t120 -30q97 0 135 30t50 117l9 63h-235l21 150h235l1 8q13 90 -15.5 121t-123.5 31q-93 0 -132 -31t-58 -120l-199 10q28 152 125 221.5t284 69.5q194 0 267.5 -74.5t54.5 -206.5l-36 -262
q-19 -131 -114.5 -204t-289.5 -73z" />
    <glyph glyph-name="IUcyrillic" unicode="&#x42e;" horiz-adv-x="1400" 
d="M918 -10q-160 0 -232.5 73t-53.5 204l11 83h-250l-28 -200h120l-21 -150h-440l21 150h120l70 500h-120l21 150h440l-21 -150h-120l-21 -150h250l4 29q19 132 112.5 206.5t253.5 74.5t231.5 -74.5t52.5 -206.5l-36 -262q-19 -131 -111.5 -204t-252.5 -73zM939 140
q71 0 102.5 32t42.5 115l32 222q11 85 -11 118t-93 33t-103 -33t-43 -118l-32 -222q-11 -83 11.5 -115t93.5 -32z" />
    <glyph glyph-name="IAcyrillic" unicode="&#x42f;" horiz-adv-x="1000" 
d="M607 450l28 200h-170q-62 0 -88 -17t-33 -62l-6 -42q-6 -45 15.5 -62t83.5 -17h170zM586 300h-108l-216 -300h-268l21 150h129l123 161q-76 19 -109 70.5t-21 135.5l7 52q16 113 90 172t201 59h541l-21 -150h-120l-70 -500h120l-21 -150h-420l21 150h100z" />
    <glyph glyph-name="Gheupturncyrillic" unicode="&#x490;" horiz-adv-x="800" 
d="M544 0h-520l21 150h120l70 500h-120l21 150h490l22 150h190l-43 -300h-360l-70 -500h200z" />
    <glyph glyph-name="a" horiz-adv-x="900" 
d="M337 110q33 0 69 7.5t68 21.5l13 98h-143q-31 0 -50.5 -13.5t-25.5 -49.5q-4 -33 13 -48.5t56 -15.5zM273 -10q-103 0 -155 46.5t-41 128.5q12 85 78 128.5t171 43.5h175l9 58q6 46 -18.5 66t-75.5 20t-75 -18t-46 -69l-167 25q37 104 118 147.5t204 43.5q140 0 208 -49
t53 -156l-27 -195q-7 -49 16 -64t94 -7l-19 -134q-104 -23 -159.5 -2t-64.5 87h-30q-34 -45 -101.5 -72.5t-146.5 -27.5z" />
    <glyph glyph-name="agrave" horiz-adv-x="900" 
d="M66 0zM337 110q33 0 69 7.5t68 21.5l13 98h-143q-31 0 -50.5 -13.5t-25.5 -49.5q-4 -33 13 -48.5t56 -15.5zM273 -10q-103 0 -155 46.5t-41 128.5q12 85 78 128.5t171 43.5h175l9 58q6 46 -18.5 66t-75.5 20t-75 -18t-46 -69l-167 25q37 104 118 147.5t204 43.5
q140 0 208 -49t53 -156l-27 -195q-7 -49 16 -64t94 -7l-19 -134q-104 -23 -159.5 -2t-64.5 87h-30q-34 -45 -101.5 -72.5t-146.5 -27.5zM443 700l-197 200h250l78 -200h-131z" />
    <glyph glyph-name="aacute" horiz-adv-x="900" 
d="M66 0zM337 110q33 0 69 7.5t68 21.5l13 98h-143q-31 0 -50.5 -13.5t-25.5 -49.5q-4 -33 13 -48.5t56 -15.5zM273 -10q-103 0 -155 46.5t-41 128.5q12 85 78 128.5t171 43.5h175l9 58q6 46 -18.5 66t-75.5 20t-75 -18t-46 -69l-167 25q37 104 118 147.5t204 43.5
q140 0 208 -49t53 -156l-27 -195q-7 -49 16 -64t94 -7l-19 -134q-104 -23 -159.5 -2t-64.5 87h-30q-34 -45 -101.5 -72.5t-146.5 -27.5zM328 700l134 200h250l-253 -200h-131z" />
    <glyph glyph-name="acircumflex" horiz-adv-x="900" 
d="M66 0zM337 110q33 0 69 7.5t68 21.5l13 98h-143q-31 0 -50.5 -13.5t-25.5 -49.5q-4 -33 13 -48.5t56 -15.5zM273 -10q-103 0 -155 46.5t-41 128.5q12 85 78 128.5t171 43.5h175l9 58q6 46 -18.5 66t-75.5 20t-75 -18t-46 -69l-167 25q37 104 118 147.5t204 43.5
q140 0 208 -49t53 -156l-27 -195q-7 -49 16 -64t94 -7l-19 -134q-104 -23 -159.5 -2t-64.5 87h-30q-34 -45 -101.5 -72.5t-146.5 -27.5zM261 684l-50 84l206 159h152l164 -159l-73 -83l-186 105z" />
    <glyph glyph-name="atilde" horiz-adv-x="900" 
d="M66 0zM337 110q33 0 69 7.5t68 21.5l13 98h-143q-31 0 -50.5 -13.5t-25.5 -49.5q-4 -33 13 -48.5t56 -15.5zM273 -10q-103 0 -155 46.5t-41 128.5q12 85 78 128.5t171 43.5h175l9 58q6 46 -18.5 66t-75.5 20t-75 -18t-46 -69l-167 25q37 104 118 147.5t204 43.5
q140 0 208 -49t53 -156l-27 -195q-7 -49 16 -64t94 -7l-19 -134q-104 -23 -159.5 -2t-64.5 87h-30q-34 -45 -101.5 -72.5t-146.5 -27.5zM560 710q-49 0 -73 15t-38 32q-13 18 -25 32.5t-31 14.5q-16 0 -31 -14.5t-21 -60.5l-1 -9h-127l2 15q12 83 62 139t124 56
q48 0 71.5 -15t38.5 -32q15 -18 26.5 -33t28.5 -15q16 0 31 14.5t21 60.5l1 9h127l-2 -15q-11 -82 -61 -138t-123 -56z" />
    <glyph glyph-name="adieresis" horiz-adv-x="900" 
d="M66 0zM337 110q33 0 69 7.5t68 21.5l13 98h-143q-31 0 -50.5 -13.5t-25.5 -49.5q-4 -33 13 -48.5t56 -15.5zM273 -10q-103 0 -155 46.5t-41 128.5q12 85 78 128.5t171 43.5h175l9 58q6 46 -18.5 66t-75.5 20t-75 -18t-46 -69l-167 25q37 104 118 147.5t204 43.5
q140 0 208 -49t53 -156l-27 -195q-7 -49 16 -64t94 -7l-19 -134q-104 -23 -159.5 -2t-64.5 87h-30q-34 -45 -101.5 -72.5t-146.5 -27.5zM331 690q-43 0 -68 17t-19 59l2 15q6 43 36 61t73 18q44 0 68.5 -18t18.5 -61l-2 -15q-6 -42 -36 -59t-73 -17zM591 690q-43 0 -68 17
t-19 59l2 15q6 43 36 61t73 18q44 0 68.5 -18t18.5 -61l-2 -15q-6 -42 -36 -59t-73 -17z" />
    <glyph glyph-name="aring" horiz-adv-x="900" 
d="M66 0zM337 110q33 0 69 7.5t68 21.5l13 98h-143q-31 0 -50.5 -13.5t-25.5 -49.5q-4 -33 13 -48.5t56 -15.5zM273 -10q-103 0 -155 46.5t-41 128.5q12 85 78 128.5t171 43.5h175l9 58q6 46 -18.5 66t-75.5 20t-75 -18t-46 -69l-167 25q37 104 118 147.5t204 43.5
q140 0 208 -49t53 -156l-27 -195q-7 -49 16 -64t94 -7l-19 -134q-104 -23 -159.5 -2t-64.5 87h-30q-34 -45 -101.5 -72.5t-146.5 -27.5zM459 675q-94 0 -146.5 38t-41.5 117l4 32q11 80 74.5 119t157.5 39q95 0 147 -39t41 -119l-4 -32q-11 -79 -74.5 -117t-157.5 -38z
M472 766q35 0 55.5 14.5t25.5 49.5l4 32q5 34 -11 50.5t-51 16.5q-36 0 -56.5 -16.5t-25.5 -50.5l-4 -32q-5 -35 11 -49.5t52 -14.5z" />
    <glyph glyph-name="amacron" horiz-adv-x="900" 
d="M66 0zM337 110q33 0 69 7.5t68 21.5l13 98h-143q-31 0 -50.5 -13.5t-25.5 -49.5q-4 -33 13 -48.5t56 -15.5zM273 -10q-103 0 -155 46.5t-41 128.5q12 85 78 128.5t171 43.5h175l9 58q6 46 -18.5 66t-75.5 20t-75 -18t-46 -69l-167 25q37 104 118 147.5t204 43.5
q140 0 208 -49t53 -156l-27 -195q-7 -49 16 -64t94 -7l-19 -134q-104 -23 -159.5 -2t-64.5 87h-30q-34 -45 -101.5 -72.5t-146.5 -27.5zM241 725l21 150h450l-21 -150h-450z" />
    <glyph glyph-name="abreve" horiz-adv-x="900" 
d="M66 0zM337 110q33 0 69 7.5t68 21.5l13 98h-143q-31 0 -50.5 -13.5t-25.5 -49.5q-4 -33 13 -48.5t56 -15.5zM273 -10q-103 0 -155 46.5t-41 128.5q12 85 78 128.5t171 43.5h175l9 58q6 46 -18.5 66t-75.5 20t-75 -18t-46 -69l-167 25q37 104 118 147.5t204 43.5
q140 0 208 -49t53 -156l-27 -195q-7 -49 16 -64t94 -7l-19 -134q-104 -23 -159.5 -2t-64.5 87h-30q-34 -45 -101.5 -72.5t-146.5 -27.5zM461 693q-135 0 -192 59t-41 181h160q-8 -68 12 -94.5t78 -26.5t86 26.5t38 94.5h160q-18 -122 -92 -181t-209 -59z" />
    <glyph glyph-name="aogonek" horiz-adv-x="900" 
d="M66 0zM337 110q33 0 69 7.5t68 21.5l13 98h-143q-31 0 -50.5 -13.5t-25.5 -49.5q-4 -33 13 -48.5t56 -15.5zM273 -10q-103 0 -155 46.5t-41 128.5q12 85 78 128.5t171 43.5h175l9 58q6 46 -18.5 66t-75.5 20t-75 -18t-46 -69l-167 25q37 104 118 147.5t204 43.5
q140 0 208 -49t53 -156l-27 -195q-7 -49 16 -64t94 -7l-19 -134q-104 -23 -159.5 -2t-64.5 87h-30q-34 -45 -101.5 -72.5t-146.5 -27.5zM614 -224q-84 0 -128 32t-35 96q9 66 66.5 111.5t119.5 61.5l19 -54q-37 -21 -47 -40t-12 -36q-4 -26 11.5 -38.5t55.5 -12.5
q18 0 42.5 2.5t54.5 7.5l-17 -116q-36 -7 -69 -10.5t-61 -3.5z" />
    <glyph glyph-name="aringacute" unicode="&#x1fb;" horiz-adv-x="900" 
d="M66 0zM337 110q33 0 69 7.5t68 21.5l13 98h-143q-31 0 -50.5 -13.5t-25.5 -49.5q-4 -33 13 -48.5t56 -15.5zM273 -10q-103 0 -155 46.5t-41 128.5q12 85 78 128.5t171 43.5h175l9 58q6 46 -18.5 66t-75.5 20t-75 -18t-46 -69l-167 25q37 104 118 147.5t204 43.5
q140 0 208 -49t53 -156l-27 -195q-7 -49 16 -64t94 -7l-19 -134q-104 -23 -159.5 -2t-64.5 87h-30q-34 -45 -101.5 -72.5t-146.5 -27.5zM459 675q-94 0 -146.5 38t-41.5 117l4 32q11 80 74.5 119t157.5 39q95 0 147 -39t41 -119l-4 -32q-11 -79 -74.5 -117t-157.5 -38z
M472 766q35 0 55.5 14.5t25.5 49.5l4 32q5 34 -11 50.5t-51 16.5q-36 0 -56.5 -16.5t-25.5 -50.5l-4 -32q-5 -35 11 -49.5t52 -14.5zM388 1000l134 200h250l-253 -200h-131z" />
    <glyph glyph-name="b" unicode="b" horiz-adv-x="900" 
d="M436 -7q-71 0 -156.5 15t-128.5 42l86 610h-120l19 140h320l-43 -310h30q26 52 80.5 86t117.5 34q103 0 137 -64.5t18 -173.5l-21 -153q-15 -107 -104 -166.5t-235 -59.5zM467 133q46 0 74 19.5t36 83.5l21 155q5 35 -13 52t-46 17q-38 0 -70.5 -12.5t-66.5 -37.5
l-36 -252q18 -10 41 -17.5t60 -7.5z" />
    <glyph glyph-name="c" unicode="c" horiz-adv-x="800" 
d="M347 -10q-151 0 -219 60.5t-53 171.5l22 153q16 117 104.5 176t231.5 59q146 0 211 -59.5t65 -166.5l-195 -16q3 58 -18 79.5t-79 21.5q-62 0 -88 -25t-33 -72l-19 -140q-8 -54 11.5 -78t82.5 -24q65 0 87.5 18t33.5 64l191 -16q-21 -99 -96 -152.5t-240 -53.5z" />
    <glyph glyph-name="ccedilla" unicode="&#xe7;" horiz-adv-x="800" 
d="M60 0zM347 -10q-151 0 -219 60.5t-53 171.5l22 153q16 117 104.5 176t231.5 59q146 0 211 -59.5t65 -166.5l-195 -16q3 58 -18 79.5t-79 21.5q-62 0 -88 -25t-33 -72l-19 -140q-8 -54 11.5 -78t82.5 -24q65 0 87.5 18t33.5 64l191 -16q-21 -99 -96 -152.5t-240 -53.5z
M310 0l26 42q85 -8 135 -35.5t41 -94.5q-11 -75 -82.5 -106.5t-153.5 -31.5q-96 0 -152.5 31.5t-51.5 104.5l170 10q-1 -19 8.5 -26.5t33.5 -7.5q27 0 42 10.5t20 44.5q3 25 -4 38.5t-32 20.5z" />
    <glyph glyph-name="cacute" unicode="&#x107;" horiz-adv-x="800" 
d="M60 0zM347 -10q-151 0 -219 60.5t-53 171.5l22 153q16 117 104.5 176t231.5 59q146 0 211 -59.5t65 -166.5l-195 -16q3 58 -18 79.5t-79 21.5q-62 0 -88 -25t-33 -72l-19 -140q-8 -54 11.5 -78t82.5 -24q65 0 87.5 18t33.5 64l191 -16q-21 -99 -96 -152.5t-240 -53.5z
M304 700l134 200h250l-253 -200h-131z" />
    <glyph glyph-name="ccircumflex" unicode="&#x109;" horiz-adv-x="800" 
d="M60 0zM237 684l-50 84l206 159h152l164 -159l-73 -83l-186 105zM347 -10q-151 0 -219 60.5t-53 171.5l22 153q16 117 104.5 176t231.5 59q146 0 211 -59.5t65 -166.5l-195 -16q3 58 -18 79.5t-79 21.5q-62 0 -88 -25t-33 -72l-19 -140q-8 -54 11.5 -78t82.5 -24
q65 0 87.5 18t33.5 64l191 -16q-21 -99 -96 -152.5t-240 -53.5z" />
    <glyph glyph-name="cdotaccent" unicode="&#x10b;" horiz-adv-x="800" 
d="M60 0zM347 -10q-151 0 -219 60.5t-53 171.5l22 153q16 117 104.5 176t231.5 59q146 0 211 -59.5t65 -166.5l-195 -16q3 58 -18 79.5t-79 21.5q-62 0 -88 -25t-33 -72l-19 -140q-8 -54 11.5 -78t82.5 -24q65 0 87.5 18t33.5 64l191 -16q-21 -99 -96 -152.5t-240 -53.5z
M437 690q-57 0 -90 17t-27 59l2 15q6 43 44 61t95 18t90 -18t27 -61l-2 -15q-6 -42 -44.5 -59t-94.5 -17z" />
    <glyph glyph-name="ccaron" unicode="&#x10d;" horiz-adv-x="800" 
d="M60 0zM364 704l-164 159l73 83l186 -105l213 106l50 -84l-206 -159h-152zM347 -10q-151 0 -219 60.5t-53 171.5l22 153q16 117 104.5 176t231.5 59q146 0 211 -59.5t65 -166.5l-195 -16q3 58 -18 79.5t-79 21.5q-62 0 -88 -25t-33 -72l-19 -140q-8 -54 11.5 -78t82.5 -24
q65 0 87.5 18t33.5 64l191 -16q-21 -99 -96 -152.5t-240 -53.5z" />
    <glyph glyph-name="d" unicode="d" horiz-adv-x="900" 
d="M334 140q38 0 70 12.5t67 37.5l32 232q-29 21 -58.5 29.5t-54.5 8.5q-43 0 -64.5 -23.5t-29.5 -77.5l-18 -131q-6 -45 9 -66.5t47 -21.5zM429 110q-26 -52 -80 -86t-117 -34q-103 0 -137 64.5t-19 173.5l20 143q15 105 85.5 167t176.5 62q53 1 93.5 -8.5t72.5 -24.5
l13 93h-120l19 140h320l-92 -660h120l-20 -140h-320l15 110h-30z" />
    <glyph glyph-name="dcaron" unicode="&#x10f;" horiz-adv-x="900" 
d="M61 0zM811 705l92 295h247l-227 -295h-112zM334 140q38 0 70 12.5t67 37.5l32 232q-29 21 -58.5 29.5t-54.5 8.5q-43 0 -64.5 -23.5t-29.5 -77.5l-18 -131q-6 -45 9 -66.5t47 -21.5zM429 110q-26 -52 -80 -86t-117 -34q-103 0 -137 64.5t-19 173.5l20 143
q15 105 85.5 167t176.5 62q53 1 93.5 -8.5t72.5 -24.5l13 93h-120l19 140h320l-92 -660h120l-20 -140h-320l15 110h-30z" />
    <glyph glyph-name="e" unicode="e" horiz-adv-x="800" 
d="M679 142q-52 -87 -125 -119.5t-207 -32.5q-142 0 -214 64.5t-56 177.5l19 141q16 110 105.5 173.5t229.5 63.5t210.5 -63.5t54.5 -174.5l-15 -112h-400l-4 -28q-8 -54 14.5 -85.5t88.5 -31.5q58 0 90.5 17.5t50.5 53.5zM296 372l-1 -12h200l1 12q9 65 -9.5 91.5
t-73.5 26.5t-81.5 -26.5t-35.5 -91.5z" />
    <glyph glyph-name="egrave" unicode="&#xe8;" horiz-adv-x="800" 
d="M61 0zM428 700l-197 200h250l78 -200h-131zM679 142q-52 -87 -125 -119.5t-207 -32.5q-142 0 -214 64.5t-56 177.5l19 141q16 110 105.5 173.5t229.5 63.5t210.5 -63.5t54.5 -174.5l-15 -112h-400l-4 -28q-8 -54 14.5 -85.5t88.5 -31.5q58 0 90.5 17.5t50.5 53.5z
M296 372l-1 -12h200l1 12q9 65 -9.5 91.5t-73.5 26.5t-81.5 -26.5t-35.5 -91.5z" />
    <glyph glyph-name="eacute" unicode="&#xe9;" horiz-adv-x="800" 
d="M61 0zM313 700l134 200h250l-253 -200h-131zM679 142q-52 -87 -125 -119.5t-207 -32.5q-142 0 -214 64.5t-56 177.5l19 141q16 110 105.5 173.5t229.5 63.5t210.5 -63.5t54.5 -174.5l-15 -112h-400l-4 -28q-8 -54 14.5 -85.5t88.5 -31.5q58 0 90.5 17.5t50.5 53.5z
M296 372l-1 -12h200l1 12q9 65 -9.5 91.5t-73.5 26.5t-81.5 -26.5t-35.5 -91.5z" />
    <glyph glyph-name="ecircumflex" unicode="&#xea;" horiz-adv-x="800" 
d="M61 0zM246 684l-50 84l206 159h152l164 -159l-73 -83l-186 105zM679 142q-52 -87 -125 -119.5t-207 -32.5q-142 0 -214 64.5t-56 177.5l19 141q16 110 105.5 173.5t229.5 63.5t210.5 -63.5t54.5 -174.5l-15 -112h-400l-4 -28q-8 -54 14.5 -85.5t88.5 -31.5
q58 0 90.5 17.5t50.5 53.5zM296 372l-1 -12h200l1 12q9 65 -9.5 91.5t-73.5 26.5t-81.5 -26.5t-35.5 -91.5z" />
    <glyph glyph-name="edieresis" unicode="&#xeb;" horiz-adv-x="800" 
d="M61 0zM679 142q-52 -87 -125 -119.5t-207 -32.5q-142 0 -214 64.5t-56 177.5l19 141q16 110 105.5 173.5t229.5 63.5t210.5 -63.5t54.5 -174.5l-15 -112h-400l-4 -28q-8 -54 14.5 -85.5t88.5 -31.5q58 0 90.5 17.5t50.5 53.5zM296 372l-1 -12h200l1 12q9 65 -9.5 91.5
t-73.5 26.5t-81.5 -26.5t-35.5 -91.5zM316 690q-43 0 -68 17t-19 59l2 15q6 43 36 61t73 18q44 0 68.5 -18t18.5 -61l-2 -15q-6 -42 -36 -59t-73 -17zM576 690q-43 0 -68 17t-19 59l2 15q6 43 36 61t73 18q44 0 68.5 -18t18.5 -61l-2 -15q-6 -42 -36 -59t-73 -17z" />
    <glyph glyph-name="emacron" unicode="&#x113;" horiz-adv-x="800" 
d="M61 0zM679 142q-52 -87 -125 -119.5t-207 -32.5q-142 0 -214 64.5t-56 177.5l19 141q16 110 105.5 173.5t229.5 63.5t210.5 -63.5t54.5 -174.5l-15 -112h-400l-4 -28q-8 -54 14.5 -85.5t88.5 -31.5q58 0 90.5 17.5t50.5 53.5zM296 372l-1 -12h200l1 12q9 65 -9.5 91.5
t-73.5 26.5t-81.5 -26.5t-35.5 -91.5zM226 725l21 150h450l-21 -150h-450z" />
    <glyph glyph-name="ebreve" unicode="&#x115;" horiz-adv-x="800" 
d="M61 0zM679 142q-52 -87 -125 -119.5t-207 -32.5q-142 0 -214 64.5t-56 177.5l19 141q16 110 105.5 173.5t229.5 63.5t210.5 -63.5t54.5 -174.5l-15 -112h-400l-4 -28q-8 -54 14.5 -85.5t88.5 -31.5q58 0 90.5 17.5t50.5 53.5zM296 372l-1 -12h200l1 12q9 65 -9.5 91.5
t-73.5 26.5t-81.5 -26.5t-35.5 -91.5zM446 693q-135 0 -192 59t-41 181h160q-8 -68 12 -94.5t78 -26.5t86 26.5t38 94.5h160q-18 -122 -92 -181t-209 -59z" />
    <glyph glyph-name="edotaccent" unicode="&#x117;" horiz-adv-x="800" 
d="M61 0zM446 690q-57 0 -90 17t-27 59l2 15q6 43 44 61t95 18t90 -18t27 -61l-2 -15q-6 -42 -44.5 -59t-94.5 -17zM679 142q-52 -87 -125 -119.5t-207 -32.5q-142 0 -214 64.5t-56 177.5l19 141q16 110 105.5 173.5t229.5 63.5t210.5 -63.5t54.5 -174.5l-15 -112h-400
l-4 -28q-8 -54 14.5 -85.5t88.5 -31.5q58 0 90.5 17.5t50.5 53.5zM296 372l-1 -12h200l1 12q9 65 -9.5 91.5t-73.5 26.5t-81.5 -26.5t-35.5 -91.5z" />
    <glyph glyph-name="eogonek" unicode="&#x119;" horiz-adv-x="800" 
d="M61 0zM480 -224q-84 0 -128 32t-35 96q9 66 66.5 111.5t119.5 61.5l19 -54q-37 -21 -47 -40t-12 -36q-4 -26 11.5 -38.5t55.5 -12.5q18 0 42.5 2.5t54.5 7.5l-17 -116q-36 -7 -69 -10.5t-61 -3.5zM679 142q-52 -87 -125 -119.5t-207 -32.5q-142 0 -214 64.5t-56 177.5
l19 141q16 110 105.5 173.5t229.5 63.5t210.5 -63.5t54.5 -174.5l-15 -112h-400l-4 -28q-8 -54 14.5 -85.5t88.5 -31.5q58 0 90.5 17.5t50.5 53.5zM296 372l-1 -12h200l1 12q9 65 -9.5 91.5t-73.5 26.5t-81.5 -26.5t-35.5 -91.5z" />
    <glyph glyph-name="ecaron" unicode="&#x11b;" horiz-adv-x="800" 
d="M61 0zM373 704l-164 159l73 83l186 -105l213 106l50 -84l-206 -159h-152zM679 142q-52 -87 -125 -119.5t-207 -32.5q-142 0 -214 64.5t-56 177.5l19 141q16 110 105.5 173.5t229.5 63.5t210.5 -63.5t54.5 -174.5l-15 -112h-400l-4 -28q-8 -54 14.5 -85.5t88.5 -31.5
q58 0 90.5 17.5t50.5 53.5zM296 372l-1 -12h200l1 12q9 65 -9.5 91.5t-73.5 26.5t-81.5 -26.5t-35.5 -91.5z" />
    <glyph glyph-name="f" unicode="f" horiz-adv-x="700" 
d="M116 -200l93 660h-130l19 140h130l5 31q13 96 91.5 152t199.5 56q37 0 73.5 -6t70.5 -17l-38 -126q-28 9 -52 14t-46 5q-41 0 -68 -22t-34 -73l-2 -14h200l-19 -140h-200l-93 -660h-200z" />
    <glyph glyph-name="g" horiz-adv-x="900" 
d="M740 -26q-11 -82 -81.5 -133t-186.5 -51h-202q-130 0 -187 41.5t-49 98.5q7 51 43.5 81.5t83.5 35.5l2 20q-35 12 -57 35t-16 71q8 56 55.5 90.5t110.5 41.5l3 20q-55 13 -82 45t-20 81l1 2q10 72 85.5 109.5t215.5 37.5h369l-15 -110l-162 18l-2 -20q35 -10 55 -39
t15 -66l-1 -4q-10 -72 -87 -110t-219 -38h-98q-33 0 -53.5 -11t-23.5 -36q-4 -25 13.5 -36t50.5 -11h226q113 0 169 -40.5t44 -122.5zM424 321q51 0 76 20t29 52l4 30q5 30 -15 49.5t-70 19.5t-75 -19.5t-30 -49.5l-4 -30q-4 -32 14.5 -52t70.5 -20zM288 -100h188
q41 0 68.5 9t32.5 42t-21 41.5t-66 8.5h-258l-6 -46q-4 -27 11 -41t51 -14z" />
    <glyph glyph-name="gcircumflex" horiz-adv-x="900" 
d="M26 0zM291 684l-50 84l206 159h152l164 -159l-73 -83l-186 105zM740 -26q-11 -82 -81.5 -133t-186.5 -51h-202q-130 0 -187 41.5t-49 98.5q7 51 43.5 81.5t83.5 35.5l2 20q-35 12 -57 35t-16 71q8 56 55.5 90.5t110.5 41.5l3 20q-55 13 -82 45t-20 81l1 2
q10 72 85.5 109.5t215.5 37.5h369l-15 -110l-162 18l-2 -20q35 -10 55 -39t15 -66l-1 -4q-10 -72 -87 -110t-219 -38h-98q-33 0 -53.5 -11t-23.5 -36q-4 -25 13.5 -36t50.5 -11h226q113 0 169 -40.5t44 -122.5zM424 321q51 0 76 20t29 52l4 30q5 30 -15 49.5t-70 19.5
t-75 -19.5t-30 -49.5l-4 -30q-4 -32 14.5 -52t70.5 -20zM288 -100h188q41 0 68.5 9t32.5 42t-21 41.5t-66 8.5h-258l-6 -46q-4 -27 11 -41t51 -14z" />
    <glyph glyph-name="gbreve" horiz-adv-x="900" 
d="M26 0zM491 693q-135 0 -192 59t-41 181h160q-8 -68 12 -94.5t78 -26.5t86 26.5t38 94.5h160q-18 -122 -92 -181t-209 -59zM740 -26q-11 -82 -81.5 -133t-186.5 -51h-202q-130 0 -187 41.5t-49 98.5q7 51 43.5 81.5t83.5 35.5l2 20q-35 12 -57 35t-16 71q8 56 55.5 90.5
t110.5 41.5l3 20q-55 13 -82 45t-20 81l1 2q10 72 85.5 109.5t215.5 37.5h369l-15 -110l-162 18l-2 -20q35 -10 55 -39t15 -66l-1 -4q-10 -72 -87 -110t-219 -38h-98q-33 0 -53.5 -11t-23.5 -36q-4 -25 13.5 -36t50.5 -11h226q113 0 169 -40.5t44 -122.5zM424 321
q51 0 76 20t29 52l4 30q5 30 -15 49.5t-70 19.5t-75 -19.5t-30 -49.5l-4 -30q-4 -32 14.5 -52t70.5 -20zM288 -100h188q41 0 68.5 9t32.5 42t-21 41.5t-66 8.5h-258l-6 -46q-4 -27 11 -41t51 -14z" />
    <glyph glyph-name="gdotaccent" horiz-adv-x="900" 
d="M26 0zM491 690q-57 0 -90 17t-27 59l2 15q6 43 44 61t95 18t90 -18t27 -61l-2 -15q-6 -42 -44.5 -59t-94.5 -17zM740 -26q-11 -82 -81.5 -133t-186.5 -51h-202q-130 0 -187 41.5t-49 98.5q7 51 43.5 81.5t83.5 35.5l2 20q-35 12 -57 35t-16 71q8 56 55.5 90.5t110.5 41.5
l3 20q-55 13 -82 45t-20 81l1 2q10 72 85.5 109.5t215.5 37.5h369l-15 -110l-162 18l-2 -20q35 -10 55 -39t15 -66l-1 -4q-10 -72 -87 -110t-219 -38h-98q-33 0 -53.5 -11t-23.5 -36q-4 -25 13.5 -36t50.5 -11h226q113 0 169 -40.5t44 -122.5zM424 321q51 0 76 20t29 52
l4 30q5 30 -15 49.5t-70 19.5t-75 -19.5t-30 -49.5l-4 -30q-4 -32 14.5 -52t70.5 -20zM288 -100h188q41 0 68.5 9t32.5 42t-21 41.5t-66 8.5h-258l-6 -46q-4 -27 11 -41t51 -14z" />
    <glyph glyph-name="gcommaaccent" horiz-adv-x="900" 
d="M26 0zM740 -26q-11 -82 -81.5 -133t-186.5 -51h-202q-130 0 -187 41.5t-49 98.5q7 51 43.5 81.5t83.5 35.5l2 20q-35 12 -57 35t-16 71q8 56 55.5 90.5t110.5 41.5l3 20q-55 13 -82 45t-20 81l1 2q10 72 85.5 109.5t215.5 37.5h369l-15 -110l-162 18l-2 -20
q35 -10 55 -39t15 -66l-1 -4q-10 -72 -87 -110t-219 -38h-98q-33 0 -53.5 -11t-23.5 -36q-4 -25 13.5 -36t50.5 -11h226q113 0 169 -40.5t44 -122.5zM424 321q51 0 76 20t29 52l4 30q5 30 -15 49.5t-70 19.5t-75 -19.5t-30 -49.5l-4 -30q-4 -32 14.5 -52t70.5 -20zM288 -100
h188q41 0 68.5 9t32.5 42t-21 41.5t-66 8.5h-258l-6 -46q-4 -27 11 -41t51 -14zM338 700l213 200h131l-94 -200h-250z" />
    <glyph glyph-name="h" unicode="h" horiz-adv-x="1000" 
d="M334 0h-200l93 660h-130l19 140h330l-43 -310h30q32 57 84.5 88.5t119.5 31.5q87 0 127 -56.5t26 -155.5l-36 -258h130l-20 -140h-330l53 374q5 42 -10 64t-47 22t-68 -20.5t-75 -65.5z" />
    <glyph glyph-name="hcircumflex" unicode="&#x125;" horiz-adv-x="1000" 
d="M41 0zM91 884l-50 84l206 159h152l164 -159l-73 -83l-186 105zM334 0h-200l93 660h-130l19 140h330l-43 -310h30q32 57 84.5 88.5t119.5 31.5q87 0 127 -56.5t26 -155.5l-36 -258h130l-20 -140h-330l53 374q5 42 -10 64t-47 22t-68 -20.5t-75 -65.5z" />
    <glyph glyph-name="i" unicode="i" horiz-adv-x="800" 
d="M69 0zM441 690q-57 0 -90 17t-27 59l2 15q6 43 44 61t95 18t90 -18t27 -61l-2 -15q-6 -42 -44.5 -59t-94.5 -17zM684 0h-440l65 460h-240l19 140h440l-64 -460h240z" />
    <glyph glyph-name="igrave" unicode="&#xec;" horiz-adv-x="800" 
d="M69 0zM423 700l-197 200h250l78 -200h-131zM684 0h-440l65 460h-240l19 140h440l-64 -460h240z" />
    <glyph glyph-name="iacute" unicode="&#xed;" horiz-adv-x="800" 
d="M69 0zM308 700l134 200h250l-253 -200h-131zM684 0h-440l65 460h-240l19 140h440l-64 -460h240z" />
    <glyph glyph-name="icircumflex" unicode="&#xee;" horiz-adv-x="800" 
d="M69 0zM231 684l-50 84l206 159h152l164 -159l-73 -83l-186 105zM684 0h-440l65 460h-240l19 140h440l-64 -460h240z" />
    <glyph glyph-name="idieresis" unicode="&#xef;" horiz-adv-x="800" 
d="M69 0zM311 690q-43 0 -68 17t-19 59l2 15q6 43 36 61t73 18q44 0 68.5 -18t18.5 -61l-2 -15q-6 -42 -36 -59t-73 -17zM571 690q-43 0 -68 17t-19 59l2 15q6 43 36 61t73 18q44 0 68.5 -18t18.5 -61l-2 -15q-6 -42 -36 -59t-73 -17zM684 0h-440l65 460h-240l19 140h440
l-64 -460h240z" />
    <glyph glyph-name="itilde" unicode="&#x129;" horiz-adv-x="800" 
d="M69 0zM540 710q-49 0 -73 15t-38 32q-13 18 -25 32.5t-31 14.5q-16 0 -31 -14.5t-21 -60.5l-1 -9h-127l2 15q12 83 62 139t124 56q48 0 71.5 -15t38.5 -32q15 -18 26.5 -33t28.5 -15q16 0 31 14.5t21 60.5l1 9h127l-2 -15q-11 -82 -61 -138t-123 -56zM684 0h-440l65 460
h-240l19 140h440l-64 -460h240z" />
    <glyph glyph-name="imacron" unicode="&#x12b;" horiz-adv-x="800" 
d="M69 0zM211 725l21 150h450l-21 -150h-450zM684 0h-440l65 460h-240l19 140h440l-64 -460h240z" />
    <glyph glyph-name="ibreve" unicode="&#x12d;" horiz-adv-x="800" 
d="M69 0zM441 693q-135 0 -192 59t-41 181h160q-8 -68 12 -94.5t78 -26.5t86 26.5t38 94.5h160q-18 -122 -92 -181t-209 -59zM684 0h-440l65 460h-240l19 140h440l-64 -460h240z" />
    <glyph glyph-name="iogonek" unicode="&#x12f;" horiz-adv-x="800" 
d="M69 0zM379 -224q-84 0 -128 32t-35 96q9 66 66.5 111.5t119.5 61.5l19 -54q-37 -21 -47 -40t-12 -36q-4 -26 11.5 -38.5t55.5 -12.5q18 0 42.5 2.5t54.5 7.5l-17 -116q-36 -7 -69 -10.5t-61 -3.5zM441 690q-57 0 -90 17t-27 59l2 15q6 43 44 61t95 18t90 -18t27 -61
l-2 -15q-6 -42 -44.5 -59t-94.5 -17zM684 0h-440l65 460h-240l19 140h440l-64 -460h240z" />
    <glyph glyph-name="j" unicode="j" horiz-adv-x="600" 
d="M0 0zM102 -210q-37 0 -73.5 6t-69.5 17l37 126q28 -9 52.5 -14t46.5 -5q41 0 67.5 22t33.5 73l63 445h-169l19 140h369l-84 -602q-16 -110 -103.5 -159t-188.5 -49zM391 690q-57 0 -90 17t-27 59l2 15q6 43 44 61t95 18t90 -18t27 -61l-2 -15q-6 -42 -44.5 -59t-94.5 -17
z" />
    <glyph glyph-name="jcircumflex" unicode="&#x135;" horiz-adv-x="600" 
d="M0 0zM102 -210q-37 0 -73.5 6t-69.5 17l37 126q28 -9 52.5 -14t46.5 -5q41 0 67.5 22t33.5 73l63 445h-169l19 140h369l-84 -602q-16 -110 -103.5 -159t-188.5 -49zM156 684l-50 84l206 159h152l164 -159l-73 -83l-186 105z" />
    <glyph glyph-name="k" unicode="k" horiz-adv-x="900" 
d="M347 235l-33 -235h-200l93 660h-130l19 140h330l-61 -435h83l86 95h-85l19 140h380l-19 -140h-93l-129 -142l93 -178h94l-20 -140h-230l-121 235h-76z" />
    <glyph glyph-name="kcommaaccent" unicode="&#x137;" horiz-adv-x="900" 
d="M77 0zM211 -300l94 200h250l-213 -200h-131zM347 235l-33 -235h-200l93 660h-130l19 140h330l-61 -435h83l86 95h-85l19 140h380l-19 -140h-93l-129 -142l93 -178h94l-20 -140h-230l-121 235h-76z" />
    <glyph glyph-name="l" unicode="l" horiz-adv-x="800" 
d="M684 0h-440l93 660h-240l19 140h441l-92 -660h239z" />
    <glyph glyph-name="lacute" unicode="&#x13a;" horiz-adv-x="800" 
d="M97 0zM684 0h-440l93 660h-240l19 140h441l-92 -660h239zM353 900l134 200h250l-253 -200h-131z" />
    <glyph glyph-name="lcommaaccent" unicode="&#x13c;" horiz-adv-x="800" 
d="M97 0zM684 0h-440l93 660h-240l19 140h441l-92 -660h239zM123 -300l94 200h250l-213 -200h-131z" />
    <glyph glyph-name="lcaron" unicode="&#x13e;" horiz-adv-x="800" 
d="M97 0zM611 705l92 295h247l-227 -295h-112zM684 0h-440l93 660h-240l19 140h441l-92 -660h239z" />
    <glyph glyph-name="m" unicode="m" horiz-adv-x="1300" 
d="M144 0l65 460h-130l19 140h330l-15 -110h30q36 64 85.5 92t100.5 28q49 0 82.5 -30t41.5 -90h40q36 64 85 92t96 28q67 0 104.5 -50.5t23.5 -149.5l-38 -270h130l-20 -140h-330l55 394q5 32 -6 49t-33 17q-25 0 -54.5 -18t-56.5 -52l-55 -390h-200l55 394q5 32 -6 49
t-33 17q-25 0 -54.5 -17.5t-56.5 -48.5l-55 -394h-200z" />
    <glyph glyph-name="n" unicode="n" horiz-adv-x="1000" 
d="M344 0h-200l65 460h-130l19 140h330l-15 -110h30q37 65 93 92.5t110 27.5q78 0 124 -50.5t30 -160.5l-36 -259h130l-20 -140h-330l53 374q5 42 -10 64t-47 22q-33 0 -71.5 -23t-71.5 -63z" />
    <glyph glyph-name="ntilde" unicode="&#xf1;" horiz-adv-x="1000" 
d="M79 0zM344 0h-200l65 460h-130l19 140h330l-15 -110h30q37 65 93 92.5t110 27.5q78 0 124 -50.5t30 -160.5l-36 -259h130l-20 -140h-330l53 374q5 42 -10 64t-47 22q-33 0 -71.5 -23t-71.5 -63zM660 710q-49 0 -73 15t-38 32q-13 18 -25 32.5t-31 14.5q-16 0 -31 -14.5
t-21 -60.5l-1 -9h-127l2 15q12 83 62 139t124 56q48 0 71.5 -15t38.5 -32q15 -18 26.5 -33t28.5 -15q16 0 31 14.5t21 60.5l1 9h127l-2 -15q-11 -82 -61 -138t-123 -56z" />
    <glyph glyph-name="nacute" unicode="&#x144;" horiz-adv-x="1000" 
d="M79 0zM428 700l134 200h250l-253 -200h-131zM344 0h-200l65 460h-130l19 140h330l-15 -110h30q37 65 93 92.5t110 27.5q78 0 124 -50.5t30 -160.5l-36 -259h130l-20 -140h-330l53 374q5 42 -10 64t-47 22q-33 0 -71.5 -23t-71.5 -63z" />
    <glyph glyph-name="ncommaaccent" unicode="&#x146;" horiz-adv-x="1000" 
d="M79 0zM344 0h-200l65 460h-130l19 140h330l-15 -110h30q37 65 93 92.5t110 27.5q78 0 124 -50.5t30 -160.5l-36 -259h130l-20 -140h-330l53 374q5 42 -10 64t-47 22q-33 0 -71.5 -23t-71.5 -63zM238 -300l94 200h250l-213 -200h-131z" />
    <glyph glyph-name="ncaron" unicode="&#x148;" horiz-adv-x="1000" 
d="M79 0zM458 704l-164 159l73 83l186 -105l213 106l50 -84l-206 -159h-152zM344 0h-200l65 460h-130l19 140h330l-15 -110h30q37 65 93 92.5t110 27.5q78 0 124 -50.5t30 -160.5l-36 -259h130l-20 -140h-330l53 374q5 42 -10 64t-47 22q-33 0 -71.5 -23t-71.5 -63z" />
    <glyph glyph-name="o" unicode="o" horiz-adv-x="800" 
d="M343 -10q-127 0 -205.5 58t-62.5 174l22 152q16 117 111.5 176.5t222.5 59.5t204.5 -59.5t61.5 -176.5l-22 -152q-16 -116 -110.5 -174t-221.5 -58zM362 130q56 0 81.5 24t33.5 78l20 143q6 46 -12.5 70.5t-74.5 24.5t-81.5 -25.5t-32.5 -72.5l-19 -140q-8 -54 10.5 -78
t74.5 -24z" />
    <glyph glyph-name="ograve" unicode="&#xf2;" horiz-adv-x="800" 
d="M59 0zM423 700l-197 200h250l78 -200h-131zM343 -10q-127 0 -205.5 58t-62.5 174l22 152q16 117 111.5 176.5t222.5 59.5t204.5 -59.5t61.5 -176.5l-22 -152q-16 -116 -110.5 -174t-221.5 -58zM362 130q56 0 81.5 24t33.5 78l20 143q6 46 -12.5 70.5t-74.5 24.5
t-81.5 -25.5t-32.5 -72.5l-19 -140q-8 -54 10.5 -78t74.5 -24z" />
    <glyph glyph-name="oacute" unicode="&#xf3;" horiz-adv-x="800" 
d="M59 0zM308 700l134 200h250l-253 -200h-131zM343 -10q-127 0 -205.5 58t-62.5 174l22 152q16 117 111.5 176.5t222.5 59.5t204.5 -59.5t61.5 -176.5l-22 -152q-16 -116 -110.5 -174t-221.5 -58zM362 130q56 0 81.5 24t33.5 78l20 143q6 46 -12.5 70.5t-74.5 24.5
t-81.5 -25.5t-32.5 -72.5l-19 -140q-8 -54 10.5 -78t74.5 -24z" />
    <glyph glyph-name="ocircumflex" unicode="&#xf4;" horiz-adv-x="800" 
d="M59 0zM241 684l-50 84l206 159h152l164 -159l-73 -83l-186 105zM343 -10q-127 0 -205.5 58t-62.5 174l22 152q16 117 111.5 176.5t222.5 59.5t204.5 -59.5t61.5 -176.5l-22 -152q-16 -116 -110.5 -174t-221.5 -58zM362 130q56 0 81.5 24t33.5 78l20 143q6 46 -12.5 70.5
t-74.5 24.5t-81.5 -25.5t-32.5 -72.5l-19 -140q-8 -54 10.5 -78t74.5 -24z" />
    <glyph glyph-name="otilde" unicode="&#xf5;" horiz-adv-x="800" 
d="M59 0zM540 710q-49 0 -73 15t-38 32q-13 18 -25 32.5t-31 14.5q-16 0 -31 -14.5t-21 -60.5l-1 -9h-127l2 15q12 83 62 139t124 56q48 0 71.5 -15t38.5 -32q15 -18 26.5 -33t28.5 -15q16 0 31 14.5t21 60.5l1 9h127l-2 -15q-11 -82 -61 -138t-123 -56zM343 -10
q-127 0 -205.5 58t-62.5 174l22 152q16 117 111.5 176.5t222.5 59.5t204.5 -59.5t61.5 -176.5l-22 -152q-16 -116 -110.5 -174t-221.5 -58zM362 130q56 0 81.5 24t33.5 78l20 143q6 46 -12.5 70.5t-74.5 24.5t-81.5 -25.5t-32.5 -72.5l-19 -140q-8 -54 10.5 -78t74.5 -24z
" />
    <glyph glyph-name="odieresis" unicode="&#xf6;" horiz-adv-x="800" 
d="M59 0zM311 690q-43 0 -68 17t-19 59l2 15q6 43 36 61t73 18q44 0 68.5 -18t18.5 -61l-2 -15q-6 -42 -36 -59t-73 -17zM571 690q-43 0 -68 17t-19 59l2 15q6 43 36 61t73 18q44 0 68.5 -18t18.5 -61l-2 -15q-6 -42 -36 -59t-73 -17zM343 -10q-127 0 -205.5 58t-62.5 174
l22 152q16 117 111.5 176.5t222.5 59.5t204.5 -59.5t61.5 -176.5l-22 -152q-16 -116 -110.5 -174t-221.5 -58zM362 130q56 0 81.5 24t33.5 78l20 143q6 46 -12.5 70.5t-74.5 24.5t-81.5 -25.5t-32.5 -72.5l-19 -140q-8 -54 10.5 -78t74.5 -24z" />
    <glyph glyph-name="omacron" unicode="&#x14d;" horiz-adv-x="800" 
d="M59 0zM221 725l21 150h450l-21 -150h-450zM343 -10q-127 0 -205.5 58t-62.5 174l22 152q16 117 111.5 176.5t222.5 59.5t204.5 -59.5t61.5 -176.5l-22 -152q-16 -116 -110.5 -174t-221.5 -58zM362 130q56 0 81.5 24t33.5 78l20 143q6 46 -12.5 70.5t-74.5 24.5
t-81.5 -25.5t-32.5 -72.5l-19 -140q-8 -54 10.5 -78t74.5 -24z" />
    <glyph glyph-name="obreve" unicode="&#x14f;" horiz-adv-x="800" 
d="M59 0zM441 693q-135 0 -192 59t-41 181h160q-8 -68 12 -94.5t78 -26.5t86 26.5t38 94.5h160q-18 -122 -92 -181t-209 -59zM343 -10q-127 0 -205.5 58t-62.5 174l22 152q16 117 111.5 176.5t222.5 59.5t204.5 -59.5t61.5 -176.5l-22 -152q-16 -116 -110.5 -174t-221.5 -58
zM362 130q56 0 81.5 24t33.5 78l20 143q6 46 -12.5 70.5t-74.5 24.5t-81.5 -25.5t-32.5 -72.5l-19 -140q-8 -54 10.5 -78t74.5 -24z" />
    <glyph glyph-name="ohungarumlaut" unicode="&#x151;" horiz-adv-x="800" 
d="M59 0zM478 700l74 200h190l-163 -200h-101zM248 700l74 200h190l-163 -200h-101zM343 -10q-127 0 -205.5 58t-62.5 174l22 152q16 117 111.5 176.5t222.5 59.5t204.5 -59.5t61.5 -176.5l-22 -152q-16 -116 -110.5 -174t-221.5 -58zM362 130q56 0 81.5 24t33.5 78l20 143
q6 46 -12.5 70.5t-74.5 24.5t-81.5 -25.5t-32.5 -72.5l-19 -140q-8 -54 10.5 -78t74.5 -24z" />
    <glyph glyph-name="p" unicode="p" horiz-adv-x="900" 
d="M469 149q46 0 74 20t34 67l19 135q7 46 -12 67.5t-55 21.5q-31 0 -62 -12.5t-65 -37.5l-33 -235q24 -13 46.5 -19.5t53.5 -6.5zM486 -60l-20 -140h-350l93 660h-130l19 140h330l-15 -110h30q31 57 86 88.5t122 31.5q82 0 122 -59.5t26 -160.5l-22 -155
q-15 -106 -91.5 -165.5t-198.5 -59.5q-40 0 -75 5.5t-63 17.5l-13 -93h150z" />
    <glyph glyph-name="q" unicode="q" horiz-adv-x="900" 
d="M745 -200h-329l43 310h-30q-29 -55 -85 -87.5t-122 -32.5q-83 0 -123 59.5t-25 160.5l24 171q14 104 105 164.5t233 60.5q90 0 166.5 -15t118.5 -41l-85 -610h129zM344 140q31 0 61.5 12.5t65.5 37.5l35 252q-17 10 -41.5 17.5t-58.5 7.5q-46 0 -74 -19.5t-35 -67.5
l-21 -151q-6 -46 13 -67.5t55 -21.5z" />
    <glyph glyph-name="r" unicode="r" horiz-adv-x="800" 
d="M344 0h-200l65 460h-130l19 140h330l-15 -110h30q31 62 76.5 91t102.5 29q81 0 111.5 -55t16.5 -155l-10 -72h-180l8 55q5 35 -5.5 56t-44.5 21q-28 0 -60 -21t-61 -59z" />
    <glyph glyph-name="racute" unicode="&#x155;" horiz-adv-x="800" 
d="M79 0zM383 700l134 200h250l-253 -200h-131zM344 0h-200l65 460h-130l19 140h330l-15 -110h30q31 62 76.5 91t102.5 29q81 0 111.5 -55t16.5 -155l-10 -72h-180l8 55q5 35 -5.5 56t-44.5 21q-28 0 -60 -21t-61 -59z" />
    <glyph glyph-name="rcommaaccent" unicode="&#x157;" horiz-adv-x="800" 
d="M33 0zM33 -300l94 200h250l-213 -200h-131zM344 0h-200l65 460h-130l19 140h330l-15 -110h30q31 62 76.5 91t102.5 29q81 0 111.5 -55t16.5 -155l-10 -72h-180l8 55q5 35 -5.5 56t-44.5 21q-28 0 -60 -21t-61 -59z" />
    <glyph glyph-name="rcaron" unicode="&#x159;" horiz-adv-x="800" 
d="M79 0zM393 704l-164 159l73 83l186 -105l213 106l50 -84l-206 -159h-152zM344 0h-200l65 460h-130l19 140h330l-15 -110h30q31 62 76.5 91t102.5 29q81 0 111.5 -55t16.5 -155l-10 -72h-180l8 55q5 35 -5.5 56t-44.5 21q-28 0 -60 -21t-61 -59z" />
    <glyph glyph-name="s" unicode="s" horiz-adv-x="800" 
d="M344 -6q-84 0 -164.5 20.5t-134.5 66.5l62 119q58 -49 129 -66.5t130 -17.5q55 0 79.5 13.5t28.5 40.5q4 31 -20 45t-82 20q-135 14 -204 50.5t-56 124.5q13 92 96.5 146t214.5 54q66 0 136 -19.5t125 -56.5l-51 -112q-59 36 -114 51t-105 15q-49 0 -72.5 -13.5
t-27.5 -38.5q-4 -32 30 -43t106 -21q127 -16 182.5 -57t43.5 -122q-13 -92 -98.5 -145.5t-233.5 -53.5z" />
    <glyph glyph-name="sacute" unicode="&#x15b;" horiz-adv-x="800" 
d="M45 0zM344 -6q-84 0 -164.5 20.5t-134.5 66.5l62 119q58 -49 129 -66.5t130 -17.5q55 0 79.5 13.5t28.5 40.5q4 31 -20 45t-82 20q-135 14 -204 50.5t-56 124.5q13 92 96.5 146t214.5 54q66 0 136 -19.5t125 -56.5l-51 -112q-59 36 -114 51t-105 15q-49 0 -72.5 -13.5
t-27.5 -38.5q-4 -32 30 -43t106 -21q127 -16 182.5 -57t43.5 -122q-13 -92 -98.5 -145.5t-233.5 -53.5zM306 700l134 200h250l-253 -200h-131z" />
    <glyph glyph-name="scircumflex" unicode="&#x15d;" horiz-adv-x="800" 
d="M45 0zM239 684l-50 84l206 159h152l164 -159l-73 -83l-186 105zM344 -6q-84 0 -164.5 20.5t-134.5 66.5l62 119q58 -49 129 -66.5t130 -17.5q55 0 79.5 13.5t28.5 40.5q4 31 -20 45t-82 20q-135 14 -204 50.5t-56 124.5q13 92 96.5 146t214.5 54q66 0 136 -19.5
t125 -56.5l-51 -112q-59 36 -114 51t-105 15q-49 0 -72.5 -13.5t-27.5 -38.5q-4 -32 30 -43t106 -21q127 -16 182.5 -57t43.5 -122q-13 -92 -98.5 -145.5t-233.5 -53.5z" />
    <glyph glyph-name="scedilla" unicode="&#x15f;" horiz-adv-x="800" 
d="M45 0zM344 -6q-84 0 -164.5 20.5t-134.5 66.5l62 119q58 -49 129 -66.5t130 -17.5q55 0 79.5 13.5t28.5 40.5q4 31 -20 45t-82 20q-135 14 -204 50.5t-56 124.5q13 92 96.5 146t214.5 54q66 0 136 -19.5t125 -56.5l-51 -112q-59 36 -114 51t-105 15q-49 0 -72.5 -13.5
t-27.5 -38.5q-4 -32 30 -43t106 -21q127 -16 182.5 -57t43.5 -122q-13 -92 -98.5 -145.5t-233.5 -53.5zM312 0l26 42q85 -8 135 -35.5t41 -94.5q-11 -75 -82.5 -106.5t-153.5 -31.5q-96 0 -152.5 31.5t-51.5 104.5l170 10q-1 -19 8.5 -26.5t33.5 -7.5q27 0 42 10.5t20 44.5
q3 25 -4 38.5t-32 20.5z" />
    <glyph glyph-name="scaron" unicode="&#x161;" horiz-adv-x="800" 
d="M45 0zM366 704l-164 159l73 83l186 -105l213 106l50 -84l-206 -159h-152zM344 -6q-84 0 -164.5 20.5t-134.5 66.5l62 119q58 -49 129 -66.5t130 -17.5q55 0 79.5 13.5t28.5 40.5q4 31 -20 45t-82 20q-135 14 -204 50.5t-56 124.5q13 92 96.5 146t214.5 54q66 0 136 -19.5
t125 -56.5l-51 -112q-59 36 -114 51t-105 15q-49 0 -72.5 -13.5t-27.5 -38.5q-4 -32 30 -43t106 -21q127 -16 182.5 -57t43.5 -122q-13 -92 -98.5 -145.5t-233.5 -53.5z" />
    <glyph glyph-name="scommaaccent" unicode="&#x219;" horiz-adv-x="800" 
d="M45 0zM344 -6q-84 0 -164.5 20.5t-134.5 66.5l62 119q58 -49 129 -66.5t130 -17.5q55 0 79.5 13.5t28.5 40.5q4 31 -20 45t-82 20q-135 14 -204 50.5t-56 124.5q13 92 96.5 146t214.5 54q66 0 136 -19.5t125 -56.5l-51 -112q-59 36 -114 51t-105 15q-49 0 -72.5 -13.5
t-27.5 -38.5q-4 -32 30 -43t106 -21q127 -16 182.5 -57t43.5 -122q-13 -92 -98.5 -145.5t-233.5 -53.5zM88 -300l94 200h250l-213 -200h-131z" />
    <glyph glyph-name="t" unicode="t" horiz-adv-x="700" 
d="M402 -11q-122 0 -182.5 58t-46.5 161l36 252h-120l19 140h120l28 200h200l-28 -200h200l-19 -140h-200l-32 -224q-8 -57 13 -81.5t63 -24.5q19 0 45.5 5t55.5 15l1 -136q-19 -8 -61 -16.5t-92 -8.5z" />
    <glyph glyph-name="tcedilla" unicode="&#x163;" horiz-adv-x="700" 
d="M64 0zM402 -11q-122 0 -182.5 58t-46.5 161l36 252h-120l19 140h120l28 200h200l-28 -200h200l-19 -140h-200l-32 -224q-8 -57 13 -81.5t63 -24.5q19 0 45.5 5t55.5 15l1 -136q-19 -8 -61 -16.5t-92 -8.5zM307 0l26 42q85 -8 135 -35.5t41 -94.5q-11 -75 -82.5 -106.5
t-153.5 -31.5q-96 0 -152.5 31.5t-51.5 104.5l170 10q-1 -19 8.5 -26.5t33.5 -7.5q27 0 42 10.5t20 44.5q3 25 -4 38.5t-32 20.5z" />
    <glyph glyph-name="tcaron" unicode="&#x165;" horiz-adv-x="700" 
d="M89 0zM511 705l92 295h247l-227 -295h-112zM402 -11q-122 0 -182.5 58t-46.5 161l36 252h-120l19 140h120l28 200h200l-28 -200h200l-19 -140h-200l-32 -224q-8 -57 13 -81.5t63 -24.5q19 0 45.5 5t55.5 15l1 -136q-19 -8 -61 -16.5t-92 -8.5z" />
    <glyph glyph-name="tcommaaccent" unicode="&#x21b;" horiz-adv-x="700" 
d="M89 0zM402 -11q-122 0 -182.5 58t-46.5 161l36 252h-120l19 140h120l28 200h200l-28 -200h200l-19 -140h-200l-32 -224q-8 -57 13 -81.5t63 -24.5q19 0 45.5 5t55.5 15l1 -136q-19 -8 -61 -16.5t-92 -8.5zM118 -300l94 200h250l-213 -200h-131z" />
    <glyph glyph-name="u" unicode="u" horiz-adv-x="1000" 
d="M320 -10q-82 0 -121.5 57t-25.5 156l36 257h-130l19 140h330l-52 -374q-6 -42 9.5 -64t47.5 -22q33 0 71 23t72 63l52 374h200l-64 -460h130l-20 -140h-330l15 110h-30q-31 -55 -87 -87.5t-122 -32.5z" />
    <glyph glyph-name="ugrave" unicode="&#xf9;" horiz-adv-x="1000" 
d="M79 0zM320 -10q-82 0 -121.5 57t-25.5 156l36 257h-130l19 140h330l-52 -374q-6 -42 9.5 -64t47.5 -22q33 0 71 23t72 63l52 374h200l-64 -460h130l-20 -140h-330l15 110h-30q-31 -55 -87 -87.5t-122 -32.5zM523 700l-197 200h250l78 -200h-131z" />
    <glyph glyph-name="uacute" unicode="&#xfa;" horiz-adv-x="1000" 
d="M79 0zM320 -10q-82 0 -121.5 57t-25.5 156l36 257h-130l19 140h330l-52 -374q-6 -42 9.5 -64t47.5 -22q33 0 71 23t72 63l52 374h200l-64 -460h130l-20 -140h-330l15 110h-30q-31 -55 -87 -87.5t-122 -32.5zM428 700l134 200h250l-253 -200h-131z" />
    <glyph glyph-name="ucircumflex" unicode="&#xfb;" horiz-adv-x="1000" 
d="M79 0zM320 -10q-82 0 -121.5 57t-25.5 156l36 257h-130l19 140h330l-52 -374q-6 -42 9.5 -64t47.5 -22q33 0 71 23t72 63l52 374h200l-64 -460h130l-20 -140h-330l15 110h-30q-31 -55 -87 -87.5t-122 -32.5zM301 684l-50 84l206 159h152l164 -159l-73 -83l-186 105z" />
    <glyph glyph-name="udieresis" unicode="&#xfc;" horiz-adv-x="1000" 
d="M79 0zM320 -10q-82 0 -121.5 57t-25.5 156l36 257h-130l19 140h330l-52 -374q-6 -42 9.5 -64t47.5 -22q33 0 71 23t72 63l52 374h200l-64 -460h130l-20 -140h-330l15 110h-30q-31 -55 -87 -87.5t-122 -32.5zM371 690q-43 0 -68 17t-19 59l2 15q6 43 36 61t73 18
q44 0 68.5 -18t18.5 -61l-2 -15q-6 -42 -36 -59t-73 -17zM631 690q-43 0 -68 17t-19 59l2 15q6 43 36 61t73 18q44 0 68.5 -18t18.5 -61l-2 -15q-6 -42 -36 -59t-73 -17z" />
    <glyph glyph-name="utilde" unicode="&#x169;" horiz-adv-x="1000" 
d="M79 0zM320 -10q-82 0 -121.5 57t-25.5 156l36 257h-130l19 140h330l-52 -374q-6 -42 9.5 -64t47.5 -22q33 0 71 23t72 63l52 374h200l-64 -460h130l-20 -140h-330l15 110h-30q-31 -55 -87 -87.5t-122 -32.5zM630 710q-49 0 -73 15t-38 32q-13 18 -25 32.5t-31 14.5
q-16 0 -31 -14.5t-21 -60.5l-1 -9h-127l2 15q12 83 62 139t124 56q48 0 71.5 -15t38.5 -32q15 -18 26.5 -33t28.5 -15q16 0 31 14.5t21 60.5l1 9h127l-2 -15q-11 -82 -61 -138t-123 -56z" />
    <glyph glyph-name="umacron" unicode="&#x16b;" horiz-adv-x="1000" 
d="M79 0zM320 -10q-82 0 -121.5 57t-25.5 156l36 257h-130l19 140h330l-52 -374q-6 -42 9.5 -64t47.5 -22q33 0 71 23t72 63l52 374h200l-64 -460h130l-20 -140h-330l15 110h-30q-31 -55 -87 -87.5t-122 -32.5zM301 725l21 150h450l-21 -150h-450z" />
    <glyph glyph-name="ubreve" unicode="&#x16d;" horiz-adv-x="1000" 
d="M79 0zM320 -10q-82 0 -121.5 57t-25.5 156l36 257h-130l19 140h330l-52 -374q-6 -42 9.5 -64t47.5 -22q33 0 71 23t72 63l52 374h200l-64 -460h130l-20 -140h-330l15 110h-30q-31 -55 -87 -87.5t-122 -32.5zM521 693q-135 0 -192 59t-41 181h160q-8 -68 12 -94.5
t78 -26.5t86 26.5t38 94.5h160q-18 -122 -92 -181t-209 -59z" />
    <glyph glyph-name="uring" unicode="&#x16f;" horiz-adv-x="1000" 
d="M79 0zM320 -10q-82 0 -121.5 57t-25.5 156l36 257h-130l19 140h330l-52 -374q-6 -42 9.5 -64t47.5 -22q33 0 71 23t72 63l52 374h200l-64 -460h130l-20 -140h-330l15 110h-30q-31 -55 -87 -87.5t-122 -32.5zM519 675q-94 0 -146.5 38t-41.5 117l4 32q11 80 74.5 119
t157.5 39q95 0 147 -39t41 -119l-4 -32q-11 -79 -74.5 -117t-157.5 -38zM532 766q35 0 55.5 14.5t25.5 49.5l4 32q5 34 -11 50.5t-51 16.5q-36 0 -56.5 -16.5t-25.5 -50.5l-4 -32q-5 -35 11 -49.5t52 -14.5z" />
    <glyph glyph-name="uhungarumlaut" unicode="&#x171;" horiz-adv-x="1000" 
d="M79 0zM320 -10q-82 0 -121.5 57t-25.5 156l36 257h-130l19 140h330l-52 -374q-6 -42 9.5 -64t47.5 -22q33 0 71 23t72 63l52 374h200l-64 -460h130l-20 -140h-330l15 110h-30q-31 -55 -87 -87.5t-122 -32.5zM558 700l74 200h190l-163 -200h-101zM328 700l74 200h190
l-163 -200h-101z" />
    <glyph glyph-name="uogonek" unicode="&#x173;" horiz-adv-x="1000" 
d="M79 0zM320 -10q-82 0 -121.5 57t-25.5 156l36 257h-130l19 140h330l-52 -374q-6 -42 9.5 -64t47.5 -22q33 0 71 23t72 63l52 374h200l-64 -460h130l-20 -140h-330l15 110h-30q-31 -55 -87 -87.5t-122 -32.5zM649 -224q-84 0 -128 32t-35 96q9 66 66.5 111.5t119.5 61.5
l19 -54q-37 -21 -47 -40t-12 -36q-4 -26 11.5 -38.5t55.5 -12.5q18 0 42.5 2.5t54.5 7.5l-17 -116q-36 -7 -69 -10.5t-61 -3.5z" />
    <glyph glyph-name="v" unicode="v" horiz-adv-x="900" 
d="M526 0h-265l-113 460h-89l19 140h370l-19 -140h-85l81 -342l176 342h-92l19 140h350l-19 -140h-90z" />
    <glyph glyph-name="w" unicode="w" horiz-adv-x="1200" 
d="M652 0l-62 326l-150 -326h-214l-88 460h-79l19 140h370l-19 -140h-114l59 -328l158 348h184l65 -351l152 331h-104l19 140h330l-19 -140h-79l-218 -460h-210z" />
    <glyph glyph-name="wcircumflex" unicode="&#x175;" horiz-adv-x="1200" 
d="M59 0zM441 684l-50 84l206 159h152l164 -159l-73 -83l-186 105zM652 0l-62 326l-150 -326h-214l-88 460h-79l19 140h370l-19 -140h-114l59 -328l158 348h184l65 -351l152 331h-104l19 140h330l-19 -140h-79l-218 -460h-210z" />
    <glyph glyph-name="wgrave" unicode="&#x1e81;" horiz-adv-x="1200" 
d="M59 0zM623 700l-197 200h250l78 -200h-131zM652 0l-62 326l-150 -326h-214l-88 460h-79l19 140h370l-19 -140h-114l59 -328l158 348h184l65 -351l152 331h-104l19 140h330l-19 -140h-79l-218 -460h-210z" />
    <glyph glyph-name="wacute" unicode="&#x1e83;" horiz-adv-x="1200" 
d="M59 0zM508 700l134 200h250l-253 -200h-131zM652 0l-62 326l-150 -326h-214l-88 460h-79l19 140h370l-19 -140h-114l59 -328l158 348h184l65 -351l152 331h-104l19 140h330l-19 -140h-79l-218 -460h-210z" />
    <glyph glyph-name="wdieresis" unicode="&#x1e85;" horiz-adv-x="1200" 
d="M59 0zM511 690q-43 0 -68 17t-19 59l2 15q6 43 36 61t73 18q44 0 68.5 -18t18.5 -61l-2 -15q-6 -42 -36 -59t-73 -17zM771 690q-43 0 -68 17t-19 59l2 15q6 43 36 61t73 18q44 0 68.5 -18t18.5 -61l-2 -15q-6 -42 -36 -59t-73 -17zM652 0l-62 326l-150 -326h-214l-88 460
h-79l19 140h370l-19 -140h-114l59 -328l158 348h184l65 -351l152 331h-104l19 140h330l-19 -140h-79l-218 -460h-210z" />
    <glyph glyph-name="x" unicode="x" horiz-adv-x="900" 
d="M513 0l-120 187l-170 -187h-199l20 140h114l156 169l-95 151h-110l19 140h245l115 -179l152 179h198l-19 -140h-108l-142 -163l101 -157h114l-20 -140h-251z" />
    <glyph glyph-name="y" unicode="y" horiz-adv-x="900" 
d="M200 -212q-31 0 -68 3.5t-79 8.5l30 140q41 -7 72.5 -11.5t56.5 -4.5q58 0 90 25t60 79l4 7h-119l-98 425h-90l19 140h362l-19 -140h-86l76 -338l177 338h-86l19 140h357l-19 -140h-93l-242 -445q-57 -104 -127.5 -165.5t-196.5 -61.5z" />
    <glyph glyph-name="yacute" unicode="&#xfd;" horiz-adv-x="900" 
d="M53 0zM200 -212q-31 0 -68 3.5t-79 8.5l30 140q41 -7 72.5 -11.5t56.5 -4.5q58 0 90 25t60 79l4 7h-119l-98 425h-90l19 140h362l-19 -140h-86l76 -338l177 338h-86l19 140h357l-19 -140h-93l-242 -445q-57 -104 -127.5 -165.5t-196.5 -61.5zM358 700l134 200h250
l-253 -200h-131z" />
    <glyph glyph-name="ydieresis" unicode="&#xff;" horiz-adv-x="900" 
d="M53 0zM200 -212q-31 0 -68 3.5t-79 8.5l30 140q41 -7 72.5 -11.5t56.5 -4.5q58 0 90 25t60 79l4 7h-119l-98 425h-90l19 140h362l-19 -140h-86l76 -338l177 338h-86l19 140h357l-19 -140h-93l-242 -445q-57 -104 -127.5 -165.5t-196.5 -61.5zM361 690q-43 0 -68 17
t-19 59l2 15q6 43 36 61t73 18q44 0 68.5 -18t18.5 -61l-2 -15q-6 -42 -36 -59t-73 -17zM621 690q-43 0 -68 17t-19 59l2 15q6 43 36 61t73 18q44 0 68.5 -18t18.5 -61l-2 -15q-6 -42 -36 -59t-73 -17z" />
    <glyph glyph-name="ycircumflex" unicode="&#x177;" horiz-adv-x="900" 
d="M53 0zM200 -212q-31 0 -68 3.5t-79 8.5l30 140q41 -7 72.5 -11.5t56.5 -4.5q58 0 90 25t60 79l4 7h-119l-98 425h-90l19 140h362l-19 -140h-86l76 -338l177 338h-86l19 140h357l-19 -140h-93l-242 -445q-57 -104 -127.5 -165.5t-196.5 -61.5zM291 684l-50 84l206 159h152
l164 -159l-73 -83l-186 105z" />
    <glyph glyph-name="ygrave" unicode="&#x1ef3;" horiz-adv-x="900" 
d="M53 0zM200 -212q-31 0 -68 3.5t-79 8.5l30 140q41 -7 72.5 -11.5t56.5 -4.5q58 0 90 25t60 79l4 7h-119l-98 425h-90l19 140h362l-19 -140h-86l76 -338l177 338h-86l19 140h357l-19 -140h-93l-242 -445q-57 -104 -127.5 -165.5t-196.5 -61.5zM473 700l-197 200h250
l78 -200h-131z" />
    <glyph glyph-name="z" unicode="z" horiz-adv-x="800" 
d="M654 0h-620l18 130l428 340h-220l-15 -110h-150l33 240h600l-18 -130l-427 -340h239l16 110h150z" />
    <glyph glyph-name="zacute" unicode="&#x17a;" horiz-adv-x="800" 
d="M34 0zM308 700l134 200h250l-253 -200h-131zM654 0h-620l18 130l428 340h-220l-15 -110h-150l33 240h600l-18 -130l-427 -340h239l16 110h150z" />
    <glyph glyph-name="zdotaccent" unicode="&#x17c;" horiz-adv-x="800" 
d="M34 0zM441 690q-57 0 -90 17t-27 59l2 15q6 43 44 61t95 18t90 -18t27 -61l-2 -15q-6 -42 -44.5 -59t-94.5 -17zM654 0h-620l18 130l428 340h-220l-15 -110h-150l33 240h600l-18 -130l-427 -340h239l16 110h150z" />
    <glyph glyph-name="zcaron" unicode="&#x17e;" horiz-adv-x="800" 
d="M34 0zM368 704l-164 159l73 83l186 -105l213 106l50 -84l-206 -159h-152zM654 0h-620l18 130l428 340h-220l-15 -110h-150l33 240h600l-18 -130l-427 -340h239l16 110h150z" />
    <glyph glyph-name="ordfeminine" unicode="&#xaa;" horiz-adv-x="800" 
d="M336 385q31 0 62 6.5t58 18.5l11 83h-119q-30 0 -46 -11.5t-21 -46.5q-3 -25 9.5 -37.5t45.5 -12.5zM285 283q-65 0 -121.5 33.5t-45.5 107.5q11 78 71.5 116t157.5 38h132l6 41q6 46 -12.5 61.5t-58.5 15.5q-37 0 -59.5 -14.5t-41.5 -55.5l-151 22q32 89 95 125.5
t179 36.5q118 0 176 -42t43 -148l-21 -150q-6 -46 19 -56t75 -4l-16 -114q-72 -16 -122.5 -4.5t-69.5 68.5h-25q-30 -33 -88 -55t-122 -22z" />
    <glyph glyph-name="ordmasculine" unicode="&#xba;" horiz-adv-x="800" 
d="M384 283q-107 0 -174.5 47t-53.5 146l19 138q14 99 95 147.5t189 48.5q107 0 173.5 -48.5t52.5 -147.5l-19 -138q-14 -99 -94 -146t-188 -47zM400 402q48 0 69.5 20.5t28.5 66.5l17 121q5 39 -10.5 60t-63.5 21t-69.5 -21.5t-27.5 -61.5l-16 -119q-7 -46 8.5 -66.5
t63.5 -20.5z" />
    <glyph glyph-name="germandbls" unicode="&#xdf;" horiz-adv-x="900" 
d="M316 -200h-200l93 660h-130l19 140h139q44 114 149.5 161t227.5 47q160 0 247.5 -75.5t71.5 -194.5l-10 -66q-129 3 -185.5 -12.5t-61.5 -55.5q-4 -24 26 -37t120 -28q105 -17 145.5 -55.5t30.5 -113.5q-11 -81 -87.5 -128.5t-209.5 -47.5q-77 0 -149.5 20t-120.5 51
l57 111q51 -33 116.5 -50.5t129.5 -17.5q40 0 60 12.5t23 36.5q4 25 -15.5 37t-78.5 22q-134 22 -186.5 60t-42.5 107q10 74 76 123.5t176 60.5q-1 57 -43.5 81t-99.5 24q-82 0 -129 -42t-59 -127z" />
    <glyph glyph-name="ae" unicode="&#xe6;" 
d="M964 152q-46 -97 -114.5 -129.5t-167.5 -32.5q-66 0 -113 22.5t-69 67.5h-31q-34 -37 -88.5 -63.5t-127.5 -26.5q-81 0 -140 39.5t-47 126.5q13 92 87 136.5t193 44.5h105l7 48q8 54 -8 72.5t-51 18.5q-36 0 -58.5 -17t-45.5 -65l-177 25q37 104 102 147.5t185 43.5
q66 0 112.5 -16t70.5 -53q39 35 90 52t108 17q104 0 166 -57t45 -176l-16 -117h-340l-8 -54q-6 -42 7 -66.5t55 -24.5q35 0 60.5 14.5t45.5 48.5zM660 399l-5 -39h150l4 30q8 56 -4 78t-57 22t-63 -20.5t-25 -70.5zM424 139l13 98h-90q-40 0 -62 -15t-27 -53q-4 -29 8.5 -44
t45.5 -15q28 0 56.5 8.5t55.5 20.5z" />
    <glyph glyph-name="aeacute" unicode="&#x1fd;" 
d="M54 0zM458 700l134 200h250l-253 -200h-131zM964 152q-46 -97 -114.5 -129.5t-167.5 -32.5q-66 0 -113 22.5t-69 67.5h-31q-34 -37 -88.5 -63.5t-127.5 -26.5q-81 0 -140 39.5t-47 126.5q13 92 87 136.5t193 44.5h105l7 48q8 54 -8 72.5t-51 18.5q-36 0 -58.5 -17
t-45.5 -65l-177 25q37 104 102 147.5t185 43.5q66 0 112.5 -16t70.5 -53q39 35 90 52t108 17q104 0 166 -57t45 -176l-16 -117h-340l-8 -54q-6 -42 7 -66.5t55 -24.5q35 0 60.5 14.5t45.5 48.5zM660 399l-5 -39h150l4 30q8 56 -4 78t-57 22t-63 -20.5t-25 -70.5zM424 139
l13 98h-90q-40 0 -62 -15t-27 -53q-4 -29 8.5 -44t45.5 -15q28 0 56.5 8.5t55.5 20.5z" />
    <glyph glyph-name="eth" unicode="&#xf0;" horiz-adv-x="800" 
d="M343 -10q-134 0 -209 59t-58 181l8 52q14 100 85.5 159t172.5 59q63 0 100 -22t49 -52h21q3 62 -15 104.5t-57 71.5l-172 -72l15 100l55 23q-27 10 -59 19.5t-69 19.5l144 129q58 -16 107 -35.5t86 -43.5l161 68l-14 -100l-70 -30q52 -56 69 -133.5t3 -179.5l-19 -131
q-18 -128 -109 -187t-225 -59zM363 130q54 0 79.5 21.5t32.5 66.5l8 63q6 40 -14 59t-74 19t-79 -19t-31 -59l-8 -63q-7 -45 12.5 -66.5t73.5 -21.5z" />
    <glyph glyph-name="oslash" unicode="&#xf8;" horiz-adv-x="800" 
d="M257 232q-3 -21 -2.5 -37.5t4.5 -29.5l200 310q-10 2 -22.5 3.5t-25.5 1.5q-67 0 -97.5 -28.5t-37.5 -79.5zM361 120q67 0 97 26t39 86l20 143q2 18 1 33t-6 27l-199 -311q10 -2 22.5 -3t25.5 -1zM343 -10q-24 0 -47 2t-43 6l-63 -98h-120l85 133q-46 27 -68 73t-13 111
l23 162q17 117 112 174t222 57q24 0 46 -2t43 -6l62 98h120l-85 -133q45 -28 67.5 -75t12.5 -113l-23 -162q-16 -116 -110 -171.5t-221 -55.5z" />
    <glyph glyph-name="oslashacute" unicode="&#x1ff;" horiz-adv-x="800" 
d="M65 0zM257 232q-3 -21 -2.5 -37.5t4.5 -29.5l200 310q-10 2 -22.5 3.5t-25.5 1.5q-67 0 -97.5 -28.5t-37.5 -79.5zM361 120q67 0 97 26t39 86l20 143q2 18 1 33t-6 27l-199 -311q10 -2 22.5 -3t25.5 -1zM343 -10q-24 0 -47 2t-43 6l-63 -98h-120l85 133q-46 27 -68 73
t-13 111l23 162q17 117 112 174t222 57q24 0 46 -2t43 -6l62 98h120l-85 -133q45 -28 67.5 -75t12.5 -113l-23 -162q-16 -116 -110 -171.5t-221 -55.5zM308 700l134 200h250l-253 -200h-131z" />
    <glyph glyph-name="thorn" unicode="&#xfe;" horiz-adv-x="900" 
d="M469 149q46 0 74 20t34 67l19 135q7 46 -12 67.5t-55 21.5q-31 0 -62 -12.5t-65 -37.5l-33 -235q24 -13 46.5 -19.5t53.5 -6.5zM486 -60l-20 -140h-350l121 860h-130l19 140h330l-43 -310h30q30 55 86 87.5t122 32.5q82 0 122 -59.5t26 -160.5l-22 -155
q-14 -103 -92.5 -164t-197.5 -61q-40 0 -75 5.5t-63 17.5l-13 -93h150z" />
    <glyph glyph-name="dcroat" unicode="&#x111;" horiz-adv-x="900" 
d="M344 140q31 0 61.5 12.5t65.5 37.5l25 181q-24 13 -46.5 19.5t-53.5 6.5q-46 0 -74 -20t-34 -67l-12 -81q-6 -46 13 -67.5t55 -21.5zM429 110q-29 -55 -85 -87.5t-122 -32.5q-82 0 -122.5 60t-25.5 161l14 100q14 103 92 164t197 61q40 0 75.5 -5.5t63.5 -17.5l12 87
h-170l14 100h170l14 100h200l-14 -100h120l-14 -100h-120l-64 -460h120l-20 -140h-320l15 110h-30z" />
    <glyph glyph-name="hbar" unicode="&#x127;" horiz-adv-x="1000" 
d="M344 0h-200l84 600h-120l14 100h120l14 100h200l-14 -100h170l-14 -100h-170l-25 -180h30q32 57 84.5 88.5t119.5 31.5q87 0 127 -56.5t26 -155.5l-26 -188h120l-20 -140h-320l43 304q6 42 -9.5 64t-47.5 22t-68 -20.5t-75 -65.5z" />
    <glyph glyph-name="dotlessi" unicode="&#x131;" horiz-adv-x="800" 
d="M684 0h-440l65 460h-240l19 140h440l-64 -460h240z" />
    <glyph glyph-name="ij" unicode="&#x133;" horiz-adv-x="1400" 
d="M69 0zM902 -210q-37 0 -73.5 6t-69.5 17l37 126q28 -9 52.5 -14t46.5 -5q41 0 67.5 22t33.5 73l63 445h-169l19 140h369l-84 -602q-16 -110 -103.5 -159t-188.5 -49zM1191 690q-57 0 -90 17t-27 59l2 15q6 43 44 61t95 18t90 -18t27 -61l-2 -15q-6 -42 -44.5 -59
t-94.5 -17zM441 690q-57 0 -90 17t-27 59l2 15q6 43 44 61t95 18t90 -18t27 -61l-2 -15q-6 -42 -44.5 -59t-94.5 -17zM684 0h-440l65 460h-240l19 140h440l-64 -460h240z" />
    <glyph glyph-name="kgreenlandic" unicode="&#x138;" horiz-adv-x="900" 
d="M49 0zM347 235l-33 -235h-200l65 460h-130l19 140h330l-33 -235h83l86 95h-85l19 140h380l-19 -140h-93l-129 -142l93 -178h94l-20 -140h-230l-121 235h-76z" />
    <glyph glyph-name="ldot" unicode="&#x140;" horiz-adv-x="1000" 
d="M97 0zM684 0h-440l93 660h-240l19 140h441l-92 -660h239zM906 330q-57 0 -90 17t-27 59l2 15q6 43 44 61t95 18t90 -18t27 -61l-2 -15q-6 -42 -44.5 -59t-94.5 -17z" />
    <glyph glyph-name="lslash" unicode="&#x142;" horiz-adv-x="800" 
d="M684 0h-440l45 317l-146 -37l17 120l145 37l32 223h-240l19 140h441l-43 -309l113 29l-17 -120l-113 -29l-32 -231h239z" />
    <glyph glyph-name="napostrophe" unicode="&#x149;" horiz-adv-x="1000" 
d="M8 0zM8 700l134 200h250l-253 -200h-131zM344 0h-200l65 460h-130l19 140h330l-15 -110h30q37 65 93 92.5t110 27.5q78 0 124 -50.5t30 -160.5l-36 -259h130l-20 -140h-330l53 374q5 42 -10 64t-47 22q-33 0 -71.5 -23t-71.5 -63z" />
    <glyph glyph-name="eng" unicode="&#x14b;" horiz-adv-x="900" 
d="M744 -2q-8 -53 -33.5 -93t-64.5 -65q-39 -26 -86 -38t-98 -12q-17 0 -34 1.5t-34 4.5q-16 3 -32.5 7.5t-32.5 9.5l37 126q14 -5 25.5 -8t21.5 -6q12 -2 22.5 -3.5t19.5 -1.5q19 0 34 5.5t27 16.5q12 12 19.5 30t10.5 43l51 359q3 21 0.5 37t-9.5 27q-8 11 -20 16.5
t-28 5.5t-34.5 -6t-37.5 -17q-18 -11 -36.5 -27t-34.5 -36l-53 -374h-200l65 460h-130l19 140h330l-15 -110h30q16 28 37.5 50.5t47.5 37.5q26 16 56 24t62 8q43 0 75.5 -14t52.5 -41q19 -27 26 -66.5t0 -89.5z" />
    <glyph glyph-name="oe" unicode="&#x153;" 
d="M974 152q-46 -97 -111 -129.5t-171 -32.5q-60 0 -109 17.5t-80 52.5q-37 -34 -89.5 -52t-115.5 -18q-118 0 -178 61.5t-46 165.5l23 162q15 107 93 169t196 62q62 0 109 -18t75 -52q39 35 92.5 52.5t113.5 17.5q109 0 173.5 -57t47.5 -176l-16 -117h-350l-8 -54
q-6 -42 9.5 -66.5t62.5 -24.5q37 0 64 9.5t52 53.5zM650 399l-5 -39h150l4 30q8 56 -4 78t-57 22t-63 -20.5t-25 -70.5zM337 130q42 0 62 24t28 78l20 143q6 46 -7 70.5t-55 24.5t-62 -25.5t-27 -72.5l-19 -140q-8 -54 5 -78t55 -24z" />
    <glyph glyph-name="tbar" unicode="&#x167;" horiz-adv-x="700" 
d="M402 -11q-122 0 -182.5 58t-46.5 161l6 42h-120l17 120h120l13 90h-120l19 140h120l28 200h200l-28 -200h200l-19 -140h-200l-13 -90h200l-17 -120h-200l-2 -14q-8 -57 13 -81.5t63 -24.5q19 0 45.5 5t55.5 15l1 -136q-19 -8 -61 -16.5t-92 -8.5z" />
    <glyph glyph-name="longs" unicode="&#x17f;" horiz-adv-x="600" 
d="M116 -200l93 660h-130l19 140h130l5 31q13 98 90.5 153t200.5 55q37 0 73.5 -6t70.5 -17l-38 -126q-28 9 -52 14t-46 5q-41 0 -68 -22t-34 -73l-114 -814h-200z" />
    <glyph glyph-name="dotlessj" unicode="&#xf6be;" horiz-adv-x="600" 
d="M102 -210q-37 0 -73.5 6t-69.5 17l37 126q28 -9 52.5 -14t46.5 -5q41 0 67.5 22t33.5 73l63 445h-169l19 140h369l-84 -602q-16 -110 -103.5 -159t-188.5 -49z" />
    <glyph glyph-name="dotlessj" unicode="&#x237;" horiz-adv-x="600" 
d="M102 -210q-37 0 -73.5 6t-69.5 17l37 126q28 -9 52.5 -14t46.5 -5q41 0 67.5 22t33.5 73l63 445h-169l19 140h369l-84 -602q-16 -110 -103.5 -159t-188.5 -49z" />
    <glyph glyph-name="alpha" unicode="&#x3b1;" horiz-adv-x="900" 
d="M344 141q31 0 61.5 12.5t65.5 37.5l31 221q-28 25 -55 37.5t-58 12.5q-36 0 -61 -21.5t-32 -67.5l-21 -151q-6 -46 13.5 -63.5t55.5 -17.5zM532 131h-30q-34 -63 -105 -101.5t-155 -38.5q-90 0 -137 54.5t-34 145.5l28 199q14 101 77 161.5t153 60.5q56 0 98 -33t56 -87
h30l15 109h200l-54 -391q-7 -49 16 -64t94 -7l-19 -134q-107 -24 -165.5 7.5t-67.5 118.5z" />
    <glyph glyph-name="alphatonos" unicode="&#x3ac;" horiz-adv-x="900" 
d="M58 0zM344 141q31 0 61.5 12.5t65.5 37.5l31 221q-28 25 -55 37.5t-58 12.5q-36 0 -61 -21.5t-32 -67.5l-21 -151q-6 -46 13.5 -63.5t55.5 -17.5zM532 131h-30q-34 -63 -105 -101.5t-155 -38.5q-90 0 -137 54.5t-34 145.5l28 199q14 101 77 161.5t153 60.5q56 0 98 -33
t56 -87h30l15 109h200l-54 -391q-7 -49 16 -64t94 -7l-19 -134q-107 -24 -165.5 7.5t-67.5 118.5zM368 700l74 200h240l-193 -200h-121z" />
    <glyph glyph-name="beta" unicode="&#x3b2;" horiz-adv-x="800" 
d="M363 138q49 0 77.5 26t35.5 77l3 22q8 54 -15.5 81.5t-77.5 27.5h-81l15 108h75q43 0 67.5 19t29.5 58l3 18q6 43 -12.5 64t-61.5 21t-67.5 -26t-31.5 -78l-55 -390q21 -14 45 -21t51 -7zM385 -10q-40 0 -75 5t-65 15l-29 -210h-200l109 773q17 124 107 180.5t210 56.5
q131 0 200 -53t56 -144l-2 -16q-9 -63 -57 -99.5t-123 -49.5l-4 -29q85 -9 129.5 -57t36.5 -122l-5 -31q-14 -101 -91.5 -160t-196.5 -59z" />
    <glyph glyph-name="gamma" unicode="&#x3b3;" horiz-adv-x="700" 
d="M386 -200h-240l51 220l-145 580h200l74 -392l177 392h200l-306 -580z" />
    <glyph glyph-name="delta" unicode="&#x3b4;" horiz-adv-x="800" 
d="M343 -10q-134 0 -209.5 55.5t-59.5 171.5l13 92q8 55 46 95.5t112 69.5q-53 25 -72 58.5t-13 82.5q14 96 87.5 140.5t205.5 44.5h205l-19 -140h-205q-37 0 -57 -9t-24 -36q-3 -22 32.5 -42.5t143.5 -52.5q90 -27 129.5 -82t27.5 -139l-12 -82q-16 -116 -106.5 -171.5
t-224.5 -55.5zM362 130q50 0 78 20.5t34 66.5l12 82q7 51 -17.5 79t-91.5 51q-41 -21 -62.5 -50t-27.5 -70l-13 -92q-6 -46 16.5 -66.5t71.5 -20.5z" />
    <glyph glyph-name="epsilon" unicode="&#x3b5;" horiz-adv-x="800" 
d="M354 -10q-153 0 -226.5 40t-61.5 125l3 20q7 53 48.5 82.5t123.5 36.5l3 22q-69 6 -99 33t-23 78l3 20q12 88 97.5 126t209.5 37q136 -1 207 -47.5t63 -152.5l-185 -8q0 46 -27.5 64t-72.5 18q-49 0 -73.5 -13t-28.5 -41l-2 -14q-4 -30 20.5 -41t76.5 -11h48l-15 -110
h-48q-70 0 -97 -14t-32 -46l-1 -10q-4 -31 16 -49t87 -18q69 0 98.5 24t41.5 68l182 -7q-26 -107 -101 -159.5t-235 -52.5z" />
    <glyph glyph-name="epsilontonos" unicode="&#x3ad;" horiz-adv-x="800" 
d="M54 0zM354 -10q-153 0 -226.5 40t-61.5 125l3 20q7 53 48.5 82.5t123.5 36.5l3 22q-69 6 -99 33t-23 78l3 20q12 88 97.5 126t209.5 37q136 -1 207 -47.5t63 -152.5l-185 -8q0 46 -27.5 64t-72.5 18q-49 0 -73.5 -13t-28.5 -41l-2 -14q-4 -30 20.5 -41t76.5 -11h48
l-15 -110h-48q-70 0 -97 -14t-32 -46l-1 -10q-4 -31 16 -49t87 -18q69 0 98.5 24t41.5 68l182 -7q-26 -107 -101 -159.5t-235 -52.5zM368 700l74 200h240l-193 -200h-121z" />
    <glyph glyph-name="zeta" unicode="&#x3b6;" horiz-adv-x="800" 
d="M366 -200h-150l18 130h145q37 0 60 10.5t28 44.5q5 36 -15 48t-57 12h-65q-160 0 -211 62t-39 150q13 89 57 142t132 134l92 83l-5 19q-97 -27 -165 12t-104 141l108 69q43 -82 109.5 -104.5t191.5 4.5l222 75l-1 -176l-187 -23l-119 -139q-55 -64 -87 -107.5t-41 -109.5
q-8 -57 6.5 -79.5t59.5 -22.5h94q107 0 160 -45t40 -137q-14 -97 -88 -145t-189 -48z" />
    <glyph glyph-name="eta" unicode="&#x3b7;" horiz-adv-x="800" 
d="M416 -200l81 574q5 42 -10 64t-47 22q-33 0 -71.5 -23t-71.5 -63l-53 -374h-200l84 600h200l-15 -110h30q30 54 88 87t122 33q80 0 121.5 -50t29.5 -131l-88 -629h-200z" />
    <glyph glyph-name="etatonos" unicode="&#x3ae;" horiz-adv-x="800" 
d="M44 0zM378 700l74 200h240l-193 -200h-121zM416 -200l81 574q5 42 -10 64t-47 22q-33 0 -71.5 -23t-71.5 -63l-53 -374h-200l84 600h200l-15 -110h30q30 54 88 87t122 33q80 0 121.5 -50t29.5 -131l-88 -629h-200z" />
    <glyph glyph-name="theta" unicode="&#x3b8;" horiz-adv-x="800" 
d="M343 -10q-127 0 -206 55.5t-63 171.5l51 362q17 117 112 174t222 57t205 -57t61 -174l-51 -362q-16 -116 -110 -171.5t-221 -55.5zM314 572l-15 -107h220l16 110q6 46 -14.5 70.5t-82.5 24.5q-61 0 -89 -25.5t-35 -72.5zM362 130q62 0 89.5 24t35.5 78l15 113h-220
l-15 -113q-8 -54 13 -78t82 -24z" />
    <glyph glyph-name="iota" unicode="&#x3b9;" horiz-adv-x="600" 
d="M285 -13q-99 0 -137.5 59.5t-26.5 143.5l57 410h200l-52 -372q-6 -42 8 -65.5t50 -24.5q16 -1 39 5.5t52 16.5l11 -136q-60 -21 -106 -29t-95 -8z" />
    <glyph glyph-name="iotadieresistonos" unicode="&#x390;" horiz-adv-x="600" 
d="M0 0zM213 700l74 200h170l-133 -200h-111zM76 690q-39 0 -61 17t-16 59l2 15q6 43 33 61t66 18q40 0 61.5 -18t15.5 -61l-2 -15q-6 -42 -33.5 -59t-65.5 -17zM526 690q-39 0 -61 17t-16 59l2 15q6 43 33 61t66 18q40 0 61.5 -18t15.5 -61l-2 -15q-6 -42 -33.5 -59
t-65.5 -17zM285 -13q-99 0 -137.5 59.5t-26.5 143.5l57 410h200l-52 -372q-6 -42 8 -65.5t50 -24.5q16 -1 39 5.5t52 16.5l11 -136q-60 -21 -106 -29t-95 -8z" />
    <glyph glyph-name="iotatonos" unicode="&#x3af;" horiz-adv-x="600" 
d="M109 0zM223 700l74 200h240l-193 -200h-121zM285 -13q-99 0 -137.5 59.5t-26.5 143.5l57 410h200l-52 -372q-6 -42 8 -65.5t50 -24.5q16 -1 39 5.5t52 16.5l11 -136q-60 -21 -106 -29t-95 -8z" />
    <glyph glyph-name="iotadieresis" unicode="&#x3ca;" horiz-adv-x="600" 
d="M73 0zM285 -13q-99 0 -137.5 59.5t-26.5 143.5l57 410h200l-52 -372q-6 -42 8 -65.5t50 -24.5q16 -1 39 5.5t52 16.5l11 -136q-60 -21 -106 -29t-95 -8zM166 690q-43 0 -68 17t-19 59l2 15q6 43 36 61t73 18q44 0 68.5 -18t18.5 -61l-2 -15q-6 -42 -36 -59t-73 -17z
M426 690q-43 0 -68 17t-19 59l2 15q6 43 36 61t73 18q44 0 68.5 -18t18.5 -61l-2 -15q-6 -42 -36 -59t-73 -17z" />
    <glyph glyph-name="kappa" unicode="&#x3ba;" horiz-adv-x="700" 
d="M280 255l-36 -255h-200l84 600h200l-30 -215h37l173 215h205l-219 -261l132 -339h-212l-97 255h-37z" />
    <glyph glyph-name="lambda" unicode="&#x3bb;" horiz-adv-x="700" 
d="M424 -2l-70 448l-190 -448h-196l237 530h136l-5 32q-9 53 -40 83.5t-85 30.5q-34 0 -62.5 -3.5t-62.5 -10.5l7 138q47 6 86.5 9t73.5 3q112 0 175 -44.5t79 -136.5l112 -631h-195z" />
    <glyph glyph-name="mu" unicode="&#x3bc;" horiz-adv-x="900" 
d="M247 20l-21 -220h-220l41 220l81 580h200l-52 -374q-6 -43 16.5 -62t59.5 -19q36 0 64.5 10t54.5 35l57 410h200l-54 -390q-8 -54 22 -66t88 -5l-19 -134q-84 -19 -144 -5t-82 80h-30q-26 -37 -65.5 -63.5t-99.5 -26.5q-30 0 -54.5 13.5t-39.5 40.5z" />
    <glyph glyph-name="nu" unicode="&#x3bd;" horiz-adv-x="700" 
d="M396 0h-205l-139 600h200l88 -423q60 101 103 217t62 206h198q-42 -169 -124.5 -320t-182.5 -280z" />
    <glyph glyph-name="xi" unicode="&#x3be;" horiz-adv-x="800" 
d="M643 -7q-14 -97 -88 -145t-189 -48h-150l18 130h145q37 0 60 10.5t28 44.5q5 36 -15 48t-57 12h-105q-110 0 -168 49t-46 133l2 17q8 57 58.5 100.5t140.5 50.5l3 23q-57 0 -83 28.5t-21 65.5q5 33 38 64.5t99 39.5l3 23q-95 -4 -151 35.5t-78 113.5l108 69
q31 -60 90 -96t211 -4l222 75l-1 -176l-224 -28l-41 -16q-39 -17 -55.5 -43t-18.5 -43q-4 -31 11 -43.5t40 -12.5h191l-18 -130h-189q-64 0 -96 -23.5t-37 -57.5l-2 -17q-4 -30 22 -48.5t89 -18.5h54q107 0 160 -45t40 -137z" />
    <glyph glyph-name="omicron" unicode="&#x3bf;" horiz-adv-x="800" 
d="M59 0zM343 -10q-127 0 -205.5 58t-62.5 174l22 152q16 117 111.5 176.5t222.5 59.5t204.5 -59.5t61.5 -176.5l-22 -152q-16 -116 -110.5 -174t-221.5 -58zM362 130q56 0 81.5 24t33.5 78l20 143q6 46 -12.5 70.5t-74.5 24.5t-81.5 -25.5t-32.5 -72.5l-19 -140
q-8 -54 10.5 -78t74.5 -24z" />
    <glyph glyph-name="omicrontonos" unicode="&#x3cc;" horiz-adv-x="800" 
d="M59 0zM358 700l74 200h240l-193 -200h-121zM343 -10q-127 0 -205.5 58t-62.5 174l22 152q16 117 111.5 176.5t222.5 59.5t204.5 -59.5t61.5 -176.5l-22 -152q-16 -116 -110.5 -174t-221.5 -58zM362 130q56 0 81.5 24t33.5 78l20 143q6 46 -12.5 70.5t-74.5 24.5
t-81.5 -25.5t-32.5 -72.5l-19 -140q-8 -54 10.5 -78t74.5 -24z" />
    <glyph glyph-name="pi" unicode="&#x3c0;" horiz-adv-x="900" 
d="M838 600l-19 -140h-100l-35 -250q-7 -49 16 -64t94 -7l-19 -134q-159 -31 -235.5 13.5t-60.5 159.5l40 282h-160l-65 -460h-200l65 460h-100l19 140h760z" />
    <glyph glyph-name="rho" unicode="&#x3c1;" horiz-adv-x="800" 
d="M384 140q36 0 61 21.5t31 67.5l21 151q7 49 -15 69.5t-68 20.5q-50 0 -80 -20.5t-37 -69.5l-26 -190q27 -25 54.5 -37.5t58.5 -12.5zM16 -200l82 581q15 110 100 169.5t225 59.5q147 0 218.5 -59.5t56.5 -169.5l-26 -181q-12 -84 -73.5 -147t-164.5 -63
q-66 0 -103.5 33.5t-41.5 86.5h-30l-43 -310h-200z" />
    <glyph glyph-name="sigma1" unicode="&#x3c2;" horiz-adv-x="800" 
d="M216 -200l20 140h135q45 0 64 11t23 39q4 31 -12 43t-61 12h-88q-104 0 -167 61t-46 176l13 95q16 117 107 175t229 58q140 0 198 -59.5t58 -166.5l-195 -16q3 58 -15.5 79.5t-71.5 21.5q-56 0 -80 -24t-32 -82l-10 -71q-8 -58 9.5 -82.5t74.5 -24.5h105q94 0 138.5 -48
t31.5 -137q-14 -97 -96 -148.5t-196 -51.5h-136z" />
    <glyph glyph-name="sigma" unicode="&#x3c3;" horiz-adv-x="900" 
d="M362 130q56 0 81.5 24t33.5 78l20 143q6 46 -12.5 70.5t-74.5 24.5t-81.5 -25.5t-32.5 -72.5l-19 -140q-8 -54 10.5 -78t74.5 -24zM343 -10q-127 0 -206 55.5t-63 171.5l23 162q16 112 110.5 166.5t221.5 54.5h449l-21 -150l-189 10q15 -25 21.5 -58t0.5 -73l-16 -112
q-16 -116 -110 -171.5t-221 -55.5z" />
    <glyph glyph-name="tau" unicode="&#x3c4;" horiz-adv-x="700" 
d="M515 5q-158 -31 -235 14.5t-61 158.5l38 272h-200l21 150h610l-21 -150h-210l-33 -240q-7 -46 18 -62t92 -9z" />
    <glyph glyph-name="upsilon" unicode="&#x3c5;" horiz-adv-x="800" 
d="M344 -10q-127 0 -205 64.5t-60 196.5l49 349h200l-48 -342q-8 -57 10 -87.5t74 -30.5t82 30t34 85l48 345h200l-49 -349q-18 -132 -113 -196.5t-222 -64.5z" />
    <glyph glyph-name="upsilondieresistonos" unicode="&#x3b0;" horiz-adv-x="800" 
d="M61 0zM344 -10q-127 0 -205 64.5t-60 196.5l49 349h200l-48 -342q-8 -57 10 -87.5t74 -30.5t82 30t34 85l48 345h200l-49 -349q-18 -132 -113 -196.5t-222 -64.5zM353 700l74 200h170l-133 -200h-111zM216 690q-39 0 -61 17t-16 59l2 15q6 43 33 61t66 18q40 0 61.5 -18
t15.5 -61l-2 -15q-6 -42 -33.5 -59t-65.5 -17zM666 690q-39 0 -61 17t-16 59l2 15q6 43 33 61t66 18q40 0 61.5 -18t15.5 -61l-2 -15q-6 -42 -33.5 -59t-65.5 -17z" />
    <glyph glyph-name="upsilondieresis" unicode="&#x3cb;" horiz-adv-x="800" 
d="M61 0zM344 -10q-127 0 -205 64.5t-60 196.5l49 349h200l-48 -342q-8 -57 10 -87.5t74 -30.5t82 30t34 85l48 345h200l-49 -349q-18 -132 -113 -196.5t-222 -64.5zM311 690q-43 0 -68 17t-19 59l2 15q6 43 36 61t73 18q44 0 68.5 -18t18.5 -61l-2 -15q-6 -42 -36 -59
t-73 -17zM571 690q-43 0 -68 17t-19 59l2 15q6 43 36 61t73 18q44 0 68.5 -18t18.5 -61l-2 -15q-6 -42 -36 -59t-73 -17z" />
    <glyph glyph-name="upsilontonos" unicode="&#x3cd;" horiz-adv-x="800" 
d="M61 0zM344 -10q-127 0 -205 64.5t-60 196.5l49 349h200l-48 -342q-8 -57 10 -87.5t74 -30.5t82 30t34 85l48 345h200l-49 -349q-18 -132 -113 -196.5t-222 -64.5zM368 700l74 200h240l-193 -200h-121z" />
    <glyph glyph-name="phi" unicode="&#x3c6;" 
d="M566 -200h-200l27 195q-174 19 -248 107t-55 225l6 42q11 76 37 137.5t70 110.5l190 -32q-36 -42 -62 -96t-35 -120l-6 -42q-11 -81 17 -124t108 -56l63 453h134q174 0 285 -72.5t90 -218.5l-4 -32q-17 -122 -122 -194t-268 -88zM657 450l-43 -305q83 10 122 41.5
t47 90.5l4 32q11 73 -22 107t-108 34z" />
    <glyph glyph-name="chi" unicode="&#x3c7;" horiz-adv-x="700" 
d="M378 -200l-89 234l-137 -234h-200l269 411l-150 389h200l84 -217l127 217h200l-259 -394l155 -406h-200z" />
    <glyph glyph-name="psi" unicode="&#x3c8;" 
d="M566 -200h-200l26 184q-180 16 -254 88.5t-58 184.5l48 343h200l-44 -313q-9 -63 21 -97.5t109 -44.5l64 455h200l-64 -455q83 10 122 44.5t48 97.5l44 313h200l-48 -343q-16 -112 -110 -184.5t-278 -88.5z" />
    <glyph glyph-name="omega" unicode="&#x3c9;" 
d="M278 -10q-105 0 -159.5 75.5t-34.5 221.5l10 72q12 79 42 151t57 107l190 -32q-20 -30 -49.5 -93t-39.5 -133l-10 -72q-10 -73 4 -110t51 -37q38 0 59 18t26 59l40 283h200l-40 -283q-5 -41 11.5 -59t53.5 -18q38 0 61.5 37t33.5 110l10 72q10 70 -1.5 133t-23.5 93
l200 32q17 -35 27 -107t-2 -151l-10 -72q-20 -146 -95.5 -221.5t-180.5 -75.5q-70 0 -118 31.5t-65 103.5h-30q-38 -73 -93 -104t-124 -31z" />
    <glyph glyph-name="omegatonos" unicode="&#x3ce;" 
d="M64 0zM508 700l74 200h240l-193 -200h-121zM278 -10q-105 0 -159.5 75.5t-34.5 221.5l10 72q12 79 42 151t57 107l190 -32q-20 -30 -49.5 -93t-39.5 -133l-10 -72q-10 -73 4 -110t51 -37q38 0 59 18t26 59l40 283h200l-40 -283q-5 -41 11.5 -59t53.5 -18q38 0 61.5 37
t33.5 110l10 72q10 70 -1.5 133t-23.5 93l200 32q17 -35 27 -107t-2 -151l-10 -72q-20 -146 -95.5 -221.5t-180.5 -75.5q-70 0 -118 31.5t-65 103.5h-30q-38 -73 -93 -104t-124 -31z" />
    <glyph glyph-name="acyrillic" horiz-adv-x="900" 
d="M66 0zM337 110q33 0 69 7.5t68 21.5l13 98h-143q-31 0 -50.5 -13.5t-25.5 -49.5q-4 -33 13 -48.5t56 -15.5zM273 -10q-103 0 -155 46.5t-41 128.5q12 85 78 128.5t171 43.5h175l9 58q6 46 -18.5 66t-75.5 20t-75 -18t-46 -69l-167 25q37 104 118 147.5t204 43.5
q140 0 208 -49t53 -156l-27 -195q-7 -49 16 -64t94 -7l-19 -134q-104 -23 -159.5 -2t-64.5 87h-30q-34 -45 -101.5 -72.5t-146.5 -27.5z" />
    <glyph glyph-name="becyrillic" unicode="&#x431;" horiz-adv-x="800" 
d="M343 -10q-134 0 -208.5 63.5t-54.5 202.5l25 175q24 173 109 262t240 102l252 21l-7 -155l-236 -21q-69 -7 -107 -40.5t-50 -98.5l-11 -65h23q35 52 84 78t110 26q93 0 143 -54t37 -144l-16 -112q-17 -121 -108 -180.5t-225 -59.5zM361 130q54 0 79.5 22t32.5 66l14 103
q6 40 -14 59t-74 19t-79 -19t-31 -59l-14 -103q-7 -44 12.5 -66t73.5 -22z" />
    <glyph glyph-name="vecyrillic" unicode="&#x432;" horiz-adv-x="900" 
d="M469 0h-325l65 460h-130l19 140h455q141 0 203 -35.5t52 -109.5l-3 -24q-8 -51 -49 -79.5t-106 -35.5l-3 -22q77 -7 111.5 -41.5t27.5 -82.5l-3 -20q-11 -77 -88 -113.5t-226 -36.5zM384 359h123q54 0 77.5 12t27.5 43l2 14q5 31 -14 43t-73 12h-125zM352 127h125
q63 0 90 13.5t32 49.5l1 10q5 34 -18.5 46.5t-88.5 12.5h-123z" />
    <glyph glyph-name="gecyrillic" unicode="&#x433;" horiz-adv-x="800" 
d="M344 0h-200l65 460h-130l19 140h680l-38 -270h-170l19 130h-180z" />
    <glyph glyph-name="gjecyrillic" unicode="&#x453;" horiz-adv-x="800" 
d="M79 0zM293 700l134 200h250l-253 -200h-131zM344 0h-200l65 460h-130l19 140h680l-38 -270h-170l19 130h-180z" />
    <glyph glyph-name="decyrillic" unicode="&#x434;" horiz-adv-x="950" 
d="M300 160l-2 -20h226l45 320h-173l-25 -166q-7 -54 -28 -86t-43 -48zM199 0l-21 -150h-195l41 290h85q27 17 47 51.5t30 98.5l26 170h-103l19 140h650l-64 -460h120l-41 -290h-195l21 150h-420z" />
    <glyph glyph-name="iecyrillic" unicode="&#x435;" horiz-adv-x="800" 
d="M61 0zM679 142q-52 -87 -125 -119.5t-207 -32.5q-142 0 -214 64.5t-56 177.5l19 141q16 110 105.5 173.5t229.5 63.5t210.5 -63.5t54.5 -174.5l-15 -112h-400l-4 -28q-8 -54 14.5 -85.5t88.5 -31.5q58 0 90.5 17.5t50.5 53.5zM296 372l-1 -12h200l1 12q9 65 -9.5 91.5
t-73.5 26.5t-81.5 -26.5t-35.5 -91.5z" />
    <glyph glyph-name="iegravecyrillic" unicode="&#x450;" horiz-adv-x="800" 
d="M61 0zM679 142q-52 -87 -125 -119.5t-207 -32.5q-142 0 -214 64.5t-56 177.5l19 141q16 110 105.5 173.5t229.5 63.5t210.5 -63.5t54.5 -174.5l-15 -112h-400l-4 -28q-8 -54 14.5 -85.5t88.5 -31.5q58 0 90.5 17.5t50.5 53.5zM296 372l-1 -12h200l1 12q9 65 -9.5 91.5
t-73.5 26.5t-81.5 -26.5t-35.5 -91.5zM428 700l-197 200h250l78 -200h-131z" />
    <glyph glyph-name="iocyrillic" unicode="&#x451;" horiz-adv-x="800" 
d="M61 0zM679 142q-52 -87 -125 -119.5t-207 -32.5q-142 0 -214 64.5t-56 177.5l19 141q16 110 105.5 173.5t229.5 63.5t210.5 -63.5t54.5 -174.5l-15 -112h-400l-4 -28q-8 -54 14.5 -85.5t88.5 -31.5q58 0 90.5 17.5t50.5 53.5zM296 372l-1 -12h200l1 12q9 65 -9.5 91.5
t-73.5 26.5t-81.5 -26.5t-35.5 -91.5zM311 690q-43 0 -68 17t-19 59l2 15q6 43 36 61t73 18q44 0 68.5 -18t18.5 -61l-2 -15q-6 -42 -36 -59t-73 -17zM571 690q-43 0 -68 17t-19 59l2 15q6 43 36 61t73 18q44 0 68.5 -18t18.5 -61l-2 -15q-6 -42 -36 -59t-73 -17z" />
    <glyph glyph-name="zhecyrillic" unicode="&#x436;" 
d="M364 236l-170 -236h-190l20 140h91l125 177l-48 143h-103l19 140h210l75 -235h72l33 235h160l-33 -235h72l141 235h210l-18 -140h-106l-88 -134l77 -186h91l-20 -140h-190l-104 236h-83l-33 -236h-160l33 236h-83z" />
    <glyph glyph-name="zecyrillic" unicode="&#x437;" horiz-adv-x="800" 
d="M350 -10q-160 0 -221 52.5t-57 159.5l184 7q0 -44 22.5 -68t91.5 -24q67 0 93 18t30 49l1 10q5 32 -18 46t-93 14h-48l15 110h48q52 0 79.5 11t31.5 41l2 14q4 28 -16.5 41t-69.5 13q-45 0 -77.5 -18t-46.5 -64l-181 8q22 106 106 152.5t220 47.5q124 1 198.5 -37
t62.5 -126l-3 -20q-7 -51 -45 -78t-109 -33l-3 -22q80 -7 113.5 -36.5t26.5 -82.5l-3 -20q-12 -85 -96.5 -125t-237.5 -40z" />
    <glyph glyph-name="iicyrillic" unicode="&#x438;" horiz-adv-x="1000" 
d="M347 0h-203l65 460h-130l19 140h300l-56 -400l299 400h187l-64 -460h130l-20 -140h-300l52 373z" />
    <glyph glyph-name="iishortcyrillic" unicode="&#x439;" horiz-adv-x="1000" 
d="M79 0zM347 0h-203l65 460h-130l19 140h300l-56 -400l299 400h187l-64 -460h130l-20 -140h-300l52 373zM541 693q-105 0 -177 51.5t-52 178.5l171 10q-10 -65 5.5 -93t69.5 -28t77.5 28t31.5 93l169 -10q-16 -127 -103 -178.5t-192 -51.5z" />
    <glyph glyph-name="igravecyrillic" unicode="&#x45d;" horiz-adv-x="1000" 
d="M79 0zM523 700l-197 200h250l78 -200h-131zM347 0h-203l65 460h-130l19 140h300l-56 -400l299 400h187l-64 -460h130l-20 -140h-300l52 373z" />
    <glyph glyph-name="kacyrillic" unicode="&#x43a;" horiz-adv-x="900" 
d="M347 235l-33 -235h-200l65 460h-130l19 140h330l-33 -235h83l86 95h-85l19 140h380l-19 -140h-93l-129 -142l93 -178h94l-20 -140h-230l-121 235h-76z" />
    <glyph glyph-name="kjecyrillic" unicode="&#x45c;" horiz-adv-x="900" 
d="M49 0zM421 700l134 200h250l-253 -200h-131zM347 235l-33 -235h-200l65 460h-130l19 140h330l-33 -235h83l86 95h-85l19 140h380l-19 -140h-93l-129 -142l93 -178h94l-20 -140h-230l-121 235h-76z" />
    <glyph glyph-name="elcyrillic" unicode="&#x43b;" horiz-adv-x="1000" 
d="M413 204q-17 -109 -92.5 -165.5t-172.5 -56.5q-32 0 -66 5.5t-66 16.5l39 141q16 -5 32 -8.5t32 -3.5q31 0 59.5 18.5t36.5 70.5l38 238h-94l19 140h650l-64 -460h130l-20 -140h-332l67 460h-157z" />
    <glyph glyph-name="emcyrillic" unicode="&#x43c;" horiz-adv-x="1050" 
d="M442 130l-18 -130h-280l65 460h-130l19 140h365l60 -238l125 238h230l-64 -460h130l-20 -140h-300l56 400l-110 -200h-146l-54 201l-38 -271h110z" />
    <glyph glyph-name="encyrillic" unicode="&#x43d;" horiz-adv-x="1000" 
d="M344 0h-200l65 460h-130l19 140h330l-31 -220h200l31 220h200l-64 -460h130l-20 -140h-330l34 240h-200z" />
    <glyph glyph-name="ocyrillic" unicode="&#x43e;" horiz-adv-x="800" 
d="M59 0zM343 -10q-127 0 -205.5 58t-62.5 174l22 152q16 117 111.5 176.5t222.5 59.5t204.5 -59.5t61.5 -176.5l-22 -152q-16 -116 -110.5 -174t-221.5 -58zM362 130q56 0 81.5 24t33.5 78l20 143q6 46 -12.5 70.5t-74.5 24.5t-81.5 -25.5t-32.5 -72.5l-19 -140
q-8 -54 10.5 -78t74.5 -24z" />
    <glyph glyph-name="pecyrillic" unicode="&#x43f;" horiz-adv-x="1000" 
d="M344 0h-200l65 460h-130l19 140h730l-64 -460h130l-20 -140h-330l65 460h-200z" />
    <glyph glyph-name="ercyrillic" unicode="&#x440;" horiz-adv-x="900" 
d="M79 0zM469 149q46 0 74 20t34 67l19 135q7 46 -12 67.5t-55 21.5q-31 0 -62 -12.5t-65 -37.5l-33 -235q24 -13 46.5 -19.5t53.5 -6.5zM486 -60l-20 -140h-350l93 660h-130l19 140h330l-15 -110h30q31 57 86 88.5t122 31.5q82 0 122 -59.5t26 -160.5l-22 -155
q-15 -106 -91.5 -165.5t-198.5 -59.5q-40 0 -75 5.5t-63 17.5l-13 -93h150z" />
    <glyph glyph-name="escyrillic" unicode="&#x441;" horiz-adv-x="800" 
d="M60 0zM347 -10q-151 0 -219 60.5t-53 171.5l22 153q16 117 104.5 176t231.5 59q146 0 211 -59.5t65 -166.5l-195 -16q3 58 -18 79.5t-79 21.5q-62 0 -88 -25t-33 -72l-19 -140q-8 -54 11.5 -78t82.5 -24q65 0 87.5 18t33.5 64l191 -16q-21 -99 -96 -152.5t-240 -53.5z
" />
    <glyph glyph-name="tecyrillic" unicode="&#x442;" horiz-adv-x="900" 
d="M504 140h120l-20 -140h-300l65 460h-250l19 140h680l-19 -140h-250z" />
    <glyph glyph-name="ucyrillic" unicode="&#x443;" horiz-adv-x="900" 
d="M53 0zM200 -212q-31 0 -68 3.5t-79 8.5l30 140q41 -7 72.5 -11.5t56.5 -4.5q58 0 90 25t60 79l4 7h-119l-98 425h-90l19 140h362l-19 -140h-86l76 -338l177 338h-86l19 140h357l-19 -140h-93l-242 -445q-57 -104 -127.5 -165.5t-196.5 -61.5z" />
    <glyph glyph-name="ushortcyrillic" unicode="&#x45e;" horiz-adv-x="900" 
d="M53 0zM200 -212q-31 0 -68 3.5t-79 8.5l30 140q41 -7 72.5 -11.5t56.5 -4.5q58 0 90 25t60 79l4 7h-119l-98 425h-90l19 140h362l-19 -140h-86l76 -338l177 338h-86l19 140h357l-19 -140h-93l-242 -445q-57 -104 -127.5 -165.5t-196.5 -61.5zM491 693q-105 0 -177 51.5
t-52 178.5l171 10q-10 -65 5.5 -93t69.5 -28t77.5 28t31.5 93l169 -10q-16 -127 -103 -178.5t-192 -51.5z" />
    <glyph glyph-name="efcyrillic" unicode="&#x444;" 
d="M714 -70l-18 -130h-330l29 210h-67q-136 0 -200 65t-48 184l12 82q17 119 99.5 184t218.5 65h67l11 80h-130l18 130h330l-29 -210h67q136 0 200.5 -65t47.5 -184l-12 -82q-16 -119 -99 -184t-219 -65h-67l-11 -80h130zM370 153h51l41 292h-51q-50 0 -81 -28.5t-39 -79.5
l-10 -76q-7 -51 16 -79.5t73 -28.5zM703 445h-51l-41 -292h51q50 0 81 28.5t38 79.5l10 76q8 51 -15 79.5t-73 28.5z" />
    <glyph glyph-name="khacyrillic" unicode="&#x445;" horiz-adv-x="900" 
d="M24 0zM513 0l-120 187l-170 -187h-199l20 140h114l156 169l-95 151h-110l19 140h245l115 -179l152 179h198l-19 -140h-108l-142 -163l101 -157h114l-20 -140h-251z" />
    <glyph glyph-name="tsecyrillic" unicode="&#x446;" horiz-adv-x="1000" 
d="M674 0h-530l65 460h-130l19 140h330l-64 -460h200l64 460h200l-64 -460h120l-41 -290h-190z" />
    <glyph glyph-name="checyrillic" unicode="&#x447;" horiz-adv-x="900" 
d="M103 421l6 39h-90l19 140h290l-25 -177q-5 -37 17.5 -56t72.5 -19q29 0 54.5 5t48.5 15l32 232h200l-64 -460h130l-20 -140h-330l32 230q-35 -10 -70 -15t-70 -5q-131 0 -189.5 53t-43.5 158z" />
    <glyph glyph-name="shacyrillic" unicode="&#x448;" horiz-adv-x="1300" 
d="M1044 0h-900l65 460h-130l19 140h320l-64 -460h165l64 460h190l-64 -460h165l64 460h320l-19 -140h-130z" />
    <glyph glyph-name="shchacyrillic" unicode="&#x449;" horiz-adv-x="1300" 
d="M144 0l65 460h-130l19 140h320l-64 -460h165l64 460h190l-64 -460h165l64 460h190l-64 -460h130l-41 -290h-180l21 150h-850z" />
    <glyph glyph-name="hardsigncyrillic" unicode="&#x44a;" horiz-adv-x="1000" 
d="M606 0h-362l65 460h-220l19 140h420l-24 -170h163q125 0 189 -53t50 -146l-5 -40q-13 -90 -91.5 -140.5t-203.5 -50.5zM464 140h130q51 0 77.5 15.5t31.5 47.5l3 23q4 33 -18 48.5t-73 15.5h-130z" />
    <glyph glyph-name="yericyrillic" unicode="&#x44b;" horiz-adv-x="1300" 
d="M1154 0h-330l84 600h200l-64 -460h130zM416 0h-332l84 600h200l-22 -160h133q125 0 188.5 -53t50.5 -146l-7 -50q-13 -90 -91.5 -140.5t-203.5 -50.5zM304 140h100q51 0 77.5 15.5t31.5 47.5l4 33q5 33 -17.5 48.5t-73.5 15.5h-100z" />
    <glyph glyph-name="softsigncyrillic" unicode="&#x44c;" horiz-adv-x="900" 
d="M456 0h-362l84 600h200l-24 -170h163q125 0 189 -53t50 -146l-5 -40q-13 -90 -91.5 -140.5t-203.5 -50.5zM314 140h130q51 0 77.5 15.5t31.5 47.5l3 23q4 33 -18 48.5t-73 15.5h-130z" />
    <glyph glyph-name="ereversedcyrillic" unicode="&#x44d;" horiz-adv-x="800" 
d="M329 -10q-165 0 -220.5 52.5t-48.5 148.5l195 16q-3 -52 14 -72t82 -20q63 0 89.5 24.5t34.5 82.5l5 33h-177l15 110h177l3 18q8 55 -11.5 78t-81.5 23q-58 0 -84.5 -16t-37.5 -60l-190 16q24 89 101 137.5t223 48.5q143 0 219.5 -58t60.5 -175l-21 -150
q-16 -115 -106 -176t-241 -61z" />
    <glyph glyph-name="iucyrillic" unicode="&#x44e;" horiz-adv-x="1300" 
d="M828 -10q-145 0 -212 60t-52 167l5 33h-170l-35 -250h-200l65 460h-120l19 140h320l-32 -230h170l1 9q16 109 100 170t229 61t211 -61t50 -170l-23 -162q-15 -107 -98 -167t-228 -60zM849 140q51 0 76 22.5t32 74.5l17 122q8 54 -10.5 77.5t-69.5 23.5t-76.5 -23.5
t-33.5 -77.5l-17 -122q-7 -52 12 -74.5t70 -22.5z" />
    <glyph glyph-name="iacyrillic" unicode="&#x44f;" horiz-adv-x="900" 
d="M492 340l17 120h-110q-34 0 -54 -12.5t-23 -36.5l-3 -22q-4 -24 12.5 -36.5t50.5 -12.5h110zM475 220h-101l-140 -220h-240l20 140h92l79 111q-39 20 -56.5 51.5t-11.5 74.5l4 32q13 91 88.5 141t197.5 50h321l-64 -460h130l-20 -140h-330z" />
    <glyph glyph-name="djecyrillic" unicode="&#x452;" horiz-adv-x="900" 
d="M442 -210q-34 0 -68 6.5t-65 16.5l37 126q25 -8 47.5 -13.5t41.5 -5.5q37 0 60.5 22t30.5 73l41 289q6 42 -9.5 64t-47.5 22q-33 0 -71.5 -23t-71.5 -63l-43 -304h-200l84 600h-120l14 100h120l14 100h200l-14 -100h170l-14 -100h-170l-25 -180h30q32 57 86 88.5
t117 31.5q87 0 127.5 -55.5t26.5 -155.5l-46 -331q-16 -110 -100 -159t-182 -49z" />
    <glyph glyph-name="ecyrillic" unicode="&#x454;" horiz-adv-x="800" 
d="M682 191q-21 -96 -90.5 -148.5t-234.5 -52.5q-151 0 -224 61t-57 176l21 150q16 117 109.5 175t236.5 58q146 0 209 -48.5t63 -137.5l-196 -16q3 44 -19.5 60t-80.5 16q-62 0 -87.5 -23t-33.5 -78l-3 -23h200l-14 -100h-200l-6 -38q-8 -58 11.5 -82.5t82.5 -24.5
q65 0 88 20t34 72z" />
    <glyph glyph-name="dzecyrillic" unicode="&#x455;" horiz-adv-x="800" 
d="M45 0zM344 -6q-84 0 -164.5 20.5t-134.5 66.5l62 119q58 -49 129 -66.5t130 -17.5q55 0 79.5 13.5t28.5 40.5q4 31 -20 45t-82 20q-135 14 -204 50.5t-56 124.5q13 92 96.5 146t214.5 54q66 0 136 -19.5t125 -56.5l-51 -112q-59 36 -114 51t-105 15q-49 0 -72.5 -13.5
t-27.5 -38.5q-4 -32 30 -43t106 -21q127 -16 182.5 -57t43.5 -122q-13 -92 -98.5 -145.5t-233.5 -53.5z" />
    <glyph glyph-name="icyrillic" unicode="&#x456;" horiz-adv-x="800" 
d="M69 0zM441 690q-57 0 -90 17t-27 59l2 15q6 43 44 61t95 18t90 -18t27 -61l-2 -15q-6 -42 -44.5 -59t-94.5 -17zM684 0h-440l65 460h-240l19 140h440l-64 -460h240z" />
    <glyph glyph-name="yicyrillic" unicode="&#x457;" horiz-adv-x="800" 
d="M69 0zM684 0h-440l65 460h-240l19 140h440l-64 -460h240zM311 690q-43 0 -68 17t-19 59l2 15q6 43 36 61t73 18q44 0 68.5 -18t18.5 -61l-2 -15q-6 -42 -36 -59t-73 -17zM571 690q-43 0 -68 17t-19 59l2 15q6 43 36 61t73 18q44 0 68.5 -18t18.5 -61l-2 -15
q-6 -42 -36 -59t-73 -17z" />
    <glyph glyph-name="jecyrillic" unicode="&#x458;" horiz-adv-x="600" 
d="M0 0zM102 -210q-37 0 -73.5 6t-69.5 17l37 126q28 -9 52.5 -14t46.5 -5q41 0 67.5 22t33.5 73l63 445h-169l19 140h369l-84 -602q-16 -110 -103.5 -159t-188.5 -49zM391 690q-57 0 -90 17t-27 59l2 15q6 43 44 61t95 18t90 -18t27 -61l-2 -15q-6 -42 -44.5 -59t-94.5 -17
z" />
    <glyph glyph-name="ljecyrillic" unicode="&#x459;" horiz-adv-x="1250" 
d="M365 237q-20 -135 -92 -193t-178 -58q-28 0 -58.5 4.5t-60.5 13.5l39 141q16 -4 32.5 -6.5t30.5 -2.5q32 0 56 22.5t35 90.5l32 211h-92l19 140h650l-24 -170h163q125 0 189 -53t50 -146l-5 -40q-13 -90 -91.5 -140.5t-203.5 -50.5h-362l65 460h-160zM714 140h130
q51 0 77.5 15.5t31.5 47.5l3 23q4 33 -18 48.5t-73 15.5h-130z" />
    <glyph glyph-name="njecyrillic" unicode="&#x45a;" horiz-adv-x="1300" 
d="M764 140h130q51 0 77.5 15.5t31.5 47.5l3 23q4 33 -18 48.5t-73 15.5h-130zM344 0h-200l65 460h-130l19 140h330l-31 -220h200l31 220h200l-24 -170h163q125 0 189 -53t50 -146l-5 -40q-13 -90 -91.5 -140.5t-203.5 -50.5h-362l34 240h-200z" />
    <glyph glyph-name="tshecyrillic" unicode="&#x45b;" horiz-adv-x="1000" 
d="M108 0zM344 0h-200l84 600h-120l14 100h120l14 100h200l-14 -100h170l-14 -100h-170l-25 -180h30q32 57 84.5 88.5t119.5 31.5q87 0 127 -56.5t26 -155.5l-26 -188h120l-20 -140h-320l43 304q6 42 -9.5 64t-47.5 22t-68 -20.5t-75 -65.5z" />
    <glyph glyph-name="dzhecyrillic" unicode="&#x45f;" horiz-adv-x="1000" 
d="M328 -150l21 150h-205l65 460h-130l19 140h330l-64 -460h200l64 460h330l-19 -140h-130l-65 -460h-205l-21 -150h-190z" />
    <glyph glyph-name="gheupturncyrillic" unicode="&#x491;" horiz-adv-x="700" 
d="M344 0h-200l65 460h-130l19 140h410l21 150h190l-40 -290h-270z" />
    <glyph glyph-name="nsuperior" unicode="&#x207f;" horiz-adv-x="700" 
d="M86 300l70 500h170l-12 -90h30q13 24 31 42.5t40 31.5t47 19.5t52 6.5q34 0 59 -14t39 -42q15 -27 19 -66t-3 -89l-42 -299h-170l41 294q3 21 2 37t-6 27q-4 11 -12 16.5t-20 5.5q-14 0 -28.5 -6t-30.5 -18q-15 -11 -31.5 -26.5t-33.5 -35.5l-41 -294h-170z" />
    <glyph glyph-name="gravecmb" unicode="&#x300;" horiz-adv-x="0" 
d="M23 700l-197 200h250l78 -200h-131z" />
    <glyph glyph-name="acutecmb" unicode="&#x301;" horiz-adv-x="0" 
d="M-92 700l134 200h250l-253 -200h-131z" />
    <glyph glyph-name="circumflexcmb" unicode="&#x302;" horiz-adv-x="0" 
d="M-159 684l-50 84l206 159h152l164 -159l-73 -83l-186 105z" />
    <glyph glyph-name="tildecmb" unicode="&#x303;" horiz-adv-x="0" 
d="M140 710q-49 0 -73 15t-38 32q-13 18 -25 32.5t-31 14.5q-16 0 -31 -14.5t-21 -60.5l-1 -9h-127l2 15q12 83 62 139t124 56q48 0 71.5 -15t38.5 -32q15 -18 26.5 -33t28.5 -15q16 0 31 14.5t21 60.5l1 9h127l-2 -15q-11 -82 -61 -138t-123 -56z" />
    <glyph glyph-name="macroncmb" unicode="&#x304;" horiz-adv-x="0" 
d="M-179 725l21 150h450l-21 -150h-450z" />
    <glyph glyph-name="brevecmb" unicode="&#x306;" horiz-adv-x="0" 
d="M41 693q-135 0 -192 59t-41 181h160q-8 -68 12 -94.5t78 -26.5t86 26.5t38 94.5h160q-18 -122 -92 -181t-209 -59z" />
    <glyph glyph-name="dotaccentcmb" unicode="&#x307;" horiz-adv-x="0" 
d="M41 690q-57 0 -90 17t-27 59l2 15q6 43 44 61t95 18t90 -18t27 -61l-2 -15q-6 -42 -44.5 -59t-94.5 -17z" />
    <glyph glyph-name="dieresiscmb" unicode="&#x308;" horiz-adv-x="0" 
d="M-89 690q-43 0 -68 17t-19 59l2 15q6 43 36 61t73 18q44 0 68.5 -18t18.5 -61l-2 -15q-6 -42 -36 -59t-73 -17zM171 690q-43 0 -68 17t-19 59l2 15q6 43 36 61t73 18q44 0 68.5 -18t18.5 -61l-2 -15q-6 -42 -36 -59t-73 -17z" />
    <glyph glyph-name="ringcmb" unicode="&#x30a;" horiz-adv-x="0" 
d="M39 675q-94 0 -146.5 38t-41.5 117l4 32q11 80 74.5 119t157.5 39q95 0 147 -39t41 -119l-4 -32q-11 -79 -74.5 -117t-157.5 -38zM52 766q35 0 55.5 14.5t25.5 49.5l4 32q5 34 -11 50.5t-51 16.5q-36 0 -56.5 -16.5t-25.5 -50.5l-4 -32q-5 -35 11 -49.5t52 -14.5z" />
    <glyph glyph-name="hungarumlautcmb" unicode="&#x30b;" horiz-adv-x="0" 
d="M78 700l74 200h190l-163 -200h-101zM-152 700l74 200h190l-163 -200h-101z" />
    <glyph glyph-name="caroncmb" unicode="&#x30c;" horiz-adv-x="0" 
d="M-32 704l-164 159l73 83l186 -105l213 106l50 -84l-206 -159h-152z" />
    <glyph glyph-name="commaturnedabovecmb" unicode="&#x312;" horiz-adv-x="0" 
d="M-112 700l213 200h131l-94 -200h-250z" />
    <glyph glyph-name="commaaccentcmb" unicode="&#x326;" horiz-adv-x="0" 
d="M-262 -300l94 200h250l-213 -200h-131z" />
    <glyph glyph-name="cedillacmb" unicode="&#x327;" horiz-adv-x="0" 
d="M-86 0l26 42q85 -8 135 -35.5t41 -94.5q-11 -75 -82.5 -106.5t-153.5 -31.5q-96 0 -152.5 31.5t-51.5 104.5l170 10q-1 -19 8.5 -26.5t33.5 -7.5q27 0 42 10.5t20 44.5q3 25 -4 38.5t-32 20.5z" />
    <glyph glyph-name="ogonekcmb" unicode="&#x328;" horiz-adv-x="0" 
d="M-71 -224q-84 0 -128 32t-35 96q9 66 66.5 111.5t119.5 61.5l19 -54q-37 -21 -47 -40t-12 -36q-4 -26 11.5 -38.5t55.5 -12.5q18 0 42.5 2.5t54.5 7.5l-17 -116q-36 -7 -69 -10.5t-61 -3.5z" />
    <glyph glyph-name="zero" unicode="0" horiz-adv-x="900" 
d="M393 -10q-172 0 -248.5 89t-54.5 248l20 142q22 160 124.5 250.5t274.5 90.5t247.5 -90.5t53.5 -250.5l-20 -142q-22 -159 -123.5 -248t-273.5 -89zM412 130q97 0 132 58t49 159l14 102q14 99 -4 160t-115 61t-132 -61t-49 -160l-14 -102q-14 -101 4 -159t115 -58z
M438 312q-32 0 -50.5 11t-14.5 42l10 69q4 30 25.5 41.5t53.5 11.5t50 -11.5t14 -41.5l-10 -69q-4 -31 -25.5 -42t-52.5 -11z" />
    <glyph glyph-name="one" unicode="1" horiz-adv-x="900" 
d="M124 0l21 150h220l66 470h-29q-25 -66 -88 -106t-134 -44l11 148q72 7 151 51t117 131h197l-91 -650h200l-21 -150h-620z" />
    <glyph glyph-name="two" unicode="2" horiz-adv-x="900" 
d="M44 0l23 165q15 105 70.5 166.5t153.5 80.5l202 40q60 12 86.5 35t32.5 71l3 16q7 54 -25.5 75t-101.5 21q-70 0 -105.5 -23.5t-51.5 -97.5l-198 10q24 125 109.5 188t264.5 63t251.5 -61.5t56.5 -175.5l-6 -40q-12 -88 -65.5 -141.5t-149.5 -72.5l-203 -40
q-61 -12 -88.5 -36.5t-35.5 -75.5l-2 -17h500l-21 -150h-700z" />
    <glyph glyph-name="three" unicode="3" horiz-adv-x="900" 
d="M396 -10q-181 0 -260 60.5t-69 181.5l201 10q-3 -71 30 -87.5t117 -16.5q75 0 114.5 21t45.5 65l4 27q7 47 -27 70t-110 23h-130l21 147h130q66 0 100.5 16t38.5 49l5 32q5 38 -26.5 56t-103.5 18q-58 0 -93.5 -18.5t-48.5 -65.5l-198 10q23 119 107.5 170.5t253.5 51.5
q173 0 249.5 -49.5t62.5 -151.5l-3 -18q-10 -69 -58.5 -108t-110.5 -47l-4 -29q62 -5 108 -49t35 -122l-2 -17q-17 -116 -109.5 -172.5t-269.5 -56.5z" />
    <glyph glyph-name="four" unicode="4" horiz-adv-x="900" 
d="M261 335h230l41 288zM821 195h-150l-27 -195h-200l27 195h-410l20 140l430 465h245l-65 -465h150z" />
    <glyph glyph-name="five" unicode="5" horiz-adv-x="900" 
d="M392 -10q-187 0 -261.5 58t-61.5 203l202 10q-3 -81 29.5 -106t111.5 -25q93 0 125.5 27t41.5 89l4 28q8 61 -26 83.5t-137 22.5h-303l59 420h650l-19 -140h-450l-19 -131h175q151 0 220.5 -54.5t53.5 -165.5l-13 -93q-13 -96 -104 -161t-278 -65z" />
    <glyph glyph-name="six" unicode="6" horiz-adv-x="900" 
d="M393 -10q-185 0 -257 77t-53 209l34 241q19 136 109.5 214.5t283.5 78.5q178 0 240.5 -58t68.5 -156l-212 -23q-5 62 -34 79.5t-100 17.5q-78 0 -111 -32t-45 -122l-12 -83h10q32 31 85.5 49t124.5 18q149 0 211 -58t45 -180l-3 -22q-14 -101 -106 -175.5t-279 -74.5z
M411 130q87 0 122.5 31.5t42.5 80.5l2 13q8 57 -18.5 90.5t-113.5 33.5t-122.5 -33.5t-43.5 -90.5l-2 -13q-8 -57 19 -84.5t114 -27.5z" />
    <glyph glyph-name="seven" unicode="7" horiz-adv-x="900" 
d="M244 0q89 248 167 360.5t224 289.5h-500l21 150h700l-21 -150q-144 -193 -229.5 -315t-151.5 -335h-210z" />
    <glyph glyph-name="eight" unicode="8" horiz-adv-x="900" 
d="M393 -10q-200 0 -266.5 60.5t-52.5 166.5l4 22q10 71 60.5 116t129.5 52l4 29q-62 6 -98.5 43t-28.5 97l4 32q15 106 108 154t251 48t237.5 -47t63.5 -155l-4 -32q-8 -60 -55.5 -97t-111.5 -43l-4 -29q77 -7 115 -53t29 -115l-4 -22q-15 -108 -98 -167.5t-283 -59.5z
M463 490q63 0 99 16.5t42 59.5l3 22q6 42 -25.5 58t-94.5 16t-98.5 -16t-41.5 -58l-3 -22q-6 -43 25 -59.5t94 -16.5zM413 138q93 0 125.5 26.5t38.5 72.5l2 12q6 46 -18.5 73.5t-117.5 27.5t-125.5 -27.5t-38.5 -73.5l-2 -12q-6 -46 18.5 -72.5t117.5 -26.5z" />
    <glyph glyph-name="nine" unicode="9" horiz-adv-x="900" 
d="M454 421q87 0 123 33.5t44 90.5l1 13q8 57 -19 84.5t-114 27.5t-122.5 -31.5t-42.5 -80.5l-1 -13q-8 -57 18 -90.5t113 -33.5zM391 -10q-178 0 -240.5 58t-68.5 156l212 23q4 -62 33 -79.5t100 -17.5q78 0 111 32t46 122l12 83h-20q-32 -31 -84.5 -49t-131.5 -18
q-141 0 -199.5 58t-40.5 180l3 22q14 101 106 175.5t279 74.5q185 0 256.5 -77t53.5 -209l-34 -241q-19 -136 -109.5 -214.5t-283.5 -78.5z" />
    <glyph glyph-name="onequarter" unicode="&#xbc;" horiz-adv-x="1560" 
d="M106 0zM1167 217h127l22 154zM1524 117h-93l-16 -117h-151l16 117h-254l14 100l265 279h179l-39 -279h93zM106 304l15 109h136l38 270h-21q-14 -43 -53 -67.5t-83 -28.5l9 105q43 7 92 33t74 75h149l-54 -387h124l-15 -109h-411zM444 0l512 800h160l-512 -800h-160z" />
    <glyph glyph-name="onehalf" unicode="&#xbd;" horiz-adv-x="1560" 
d="M106 0zM106 304l15 109h136l38 270h-21q-14 -43 -53 -67.5t-83 -28.5l9 105q43 7 92 33t74 75h149l-54 -387h124l-15 -109h-411zM1016 0l16 119q8 52 40 89.5t97 50.5l126 25q36 7 52.5 19.5t20.5 43.5l1 4q5 34 -17 42.5t-50 8.5t-50 -9.5t-31 -52.5l-151 7
q15 77 73 116t173 39t164.5 -39t38.5 -116l-2 -18q-8 -57 -45 -92.5t-89 -45.5l-126 -25q-41 -8 -56 -17.5t-17 -28.5l-2 -11h310l-15 -109h-461zM444 0l512 800h160l-512 -800h-160z" />
    <glyph glyph-name="threequarters" unicode="&#xbe;" horiz-adv-x="1560" 
d="M64 0zM1167 217h127l22 154zM1524 117h-93l-16 -117h-151l16 117h-254l14 100l265 279h179l-39 -279h93zM444 0l512 800h160l-512 -800h-160zM291 298q-115 0 -171 38.5t-49 115.5l151 6q0 -32 19 -42t64 -10q40 0 58.5 8.5t22.5 32.5l2 15q4 27 -15 36.5t-59 9.5h-112
l15 106h112q35 0 53 8t21 31l1 6q3 25 -13 32t-56 7t-53 -7.5t-19 -30.5l-150 6q16 81 78.5 110.5t158.5 29.5q98 0 157.5 -25t49.5 -99l-1 -8q-7 -45 -37.5 -70t-64.5 -31l-3 -18q32 -3 62.5 -29.5t23.5 -77.5l-1 -8q-12 -86 -79.5 -114t-165.5 -28z" />
    <glyph glyph-name="oneeighth" unicode="&#x215b;" horiz-adv-x="1560" 
d="M106 0zM1245 -6q-131 0 -175 38.5t-35 104.5l2 14q6 43 38 70t82 31l3 18q-40 4 -64 26t-19 58l3 20q10 67 71 97.5t165 30.5q105 0 157.5 -29.5t42.5 -98.5l-3 -20q-5 -36 -34.5 -58t-69.5 -26l-3 -18q49 -4 73.5 -31.5t18.5 -69.5l-2 -14q-10 -68 -64.5 -105.5
t-186.5 -37.5zM1288 301q30 0 50.5 9t23.5 32l3 21q3 24 -14.5 32.5t-47.5 8.5q-29 0 -49.5 -8.5t-23.5 -32.5l-3 -21q-3 -23 14.5 -32t46.5 -9zM1259 92q47 0 65.5 15t21.5 40l3 16q3 26 -11 41.5t-61 15.5q-46 0 -65 -15.5t-22 -41.5l-3 -16q-3 -25 11.5 -40t60.5 -15z
M106 304l15 109h136l38 270h-21q-14 -43 -53 -67.5t-83 -28.5l9 105q43 7 92 33t74 75h149l-54 -387h124l-15 -109h-411zM444 0l512 800h160l-512 -800h-160z" />
    <glyph glyph-name="threeeighths" unicode="&#x215c;" horiz-adv-x="1560" 
d="M64 0zM1245 -6q-131 0 -175 38.5t-35 104.5l2 14q6 43 38 70t82 31l3 18q-40 4 -64 26t-19 58l3 20q10 67 71 97.5t165 30.5q105 0 157.5 -29.5t42.5 -98.5l-3 -20q-5 -36 -34.5 -58t-69.5 -26l-3 -18q49 -4 73.5 -31.5t18.5 -69.5l-2 -14q-10 -68 -64.5 -105.5
t-186.5 -37.5zM1288 301q30 0 50.5 9t23.5 32l3 21q3 24 -14.5 32.5t-47.5 8.5q-29 0 -49.5 -8.5t-23.5 -32.5l-3 -21q-3 -23 14.5 -32t46.5 -9zM1259 92q47 0 65.5 15t21.5 40l3 16q3 26 -11 41.5t-61 15.5q-46 0 -65 -15.5t-22 -41.5l-3 -16q-3 -25 11.5 -40t60.5 -15z
M444 0l512 800h160l-512 -800h-160zM291 298q-115 0 -171 38.5t-49 115.5l151 6q0 -32 19 -42t64 -10q40 0 58.5 8.5t22.5 32.5l2 15q4 27 -15 36.5t-59 9.5h-112l15 106h112q35 0 53 8t21 31l1 6q3 25 -13 32t-56 7t-53 -7.5t-19 -30.5l-150 6q16 81 78.5 110.5t158.5 29.5
q98 0 157.5 -25t49.5 -99l-1 -8q-7 -45 -37.5 -70t-64.5 -31l-3 -18q32 -3 62.5 -29.5t23.5 -77.5l-1 -8q-12 -86 -79.5 -114t-165.5 -28z" />
    <glyph glyph-name="fiveeighths" unicode="&#x215d;" horiz-adv-x="1560" 
d="M64 0zM1245 -6q-131 0 -175 38.5t-35 104.5l2 14q6 43 38 70t82 31l3 18q-40 4 -64 26t-19 58l3 20q10 67 71 97.5t165 30.5q105 0 157.5 -29.5t42.5 -98.5l-3 -20q-5 -36 -34.5 -58t-69.5 -26l-3 -18q49 -4 73.5 -31.5t18.5 -69.5l-2 -14q-10 -68 -64.5 -105.5
t-186.5 -37.5zM1288 301q30 0 50.5 9t23.5 32l3 21q3 24 -14.5 32.5t-47.5 8.5q-29 0 -49.5 -8.5t-23.5 -32.5l-3 -21q-3 -23 14.5 -32t46.5 -9zM1259 92q47 0 65.5 15t21.5 40l3 16q3 26 -11 41.5t-61 15.5q-46 0 -65 -15.5t-22 -41.5l-3 -16q-3 -25 11.5 -40t60.5 -15z
M291 298q-126 0 -176.5 39t-41.5 131l152 6q-1 -44 16.5 -60t66.5 -16q41 0 58 14t22 53l2 12q5 33 -17 45t-88 12h-185l37 266h433l-14 -100h-282l-8 -59h98q101 0 146 -34t35 -102l-9 -64q-8 -58 -65.5 -100.5t-179.5 -42.5zM444 0l512 800h160l-512 -800h-160z" />
    <glyph glyph-name="seveneighths" unicode="&#x215e;" horiz-adv-x="1560" 
d="M111 0zM1245 -6q-131 0 -175 38.5t-35 104.5l2 14q6 43 38 70t82 31l3 18q-40 4 -64 26t-19 58l3 20q10 67 71 97.5t165 30.5q105 0 157.5 -29.5t42.5 -98.5l-3 -20q-5 -36 -34.5 -58t-69.5 -26l-3 -18q49 -4 73.5 -31.5t18.5 -69.5l-2 -14q-10 -68 -64.5 -105.5
t-186.5 -37.5zM1288 301q30 0 50.5 9t23.5 32l3 21q3 24 -14.5 32.5t-47.5 8.5q-29 0 -49.5 -8.5t-23.5 -32.5l-3 -21q-3 -23 14.5 -32t46.5 -9zM1259 92q47 0 65.5 15t21.5 40l3 16q3 26 -11 41.5t-61 15.5q-46 0 -65 -15.5t-22 -41.5l-3 -16q-3 -25 11.5 -40t60.5 -15z
M180 304q58 124 113 213.5t128 176.5h-310l14 106h461l-14 -106q-71 -97 -131 -192.5t-104 -197.5h-157zM444 0l512 800h160l-512 -800h-160z" />
    <glyph glyph-name="underscore" unicode="_" horiz-adv-x="900" 
d="M16 -200l24 170h700l-24 -170h-700z" />
    <glyph glyph-name="hyphen" unicode="&#x2011;" horiz-adv-x="900" 
d="M82 270l24 170h700l-24 -170h-700z" />
    <glyph glyph-name="hyphen" unicode="&#x2010;" horiz-adv-x="900" 
d="M82 270l24 170h700l-24 -170h-700z" />
    <glyph glyph-name="hyphen" unicode="&#xad;" horiz-adv-x="900" 
d="M82 270l24 170h700l-24 -170h-700z" />
    <glyph glyph-name="hyphen" unicode="-" horiz-adv-x="900" 
d="M82 270l24 170h700l-24 -170h-700z" />
    <glyph glyph-name="endash" unicode="&#x2013;" horiz-adv-x="1000" 
d="M102 270l24 170h760l-24 -170h-760z" />
    <glyph glyph-name="emdash" unicode="&#x2014;" horiz-adv-x="1300" 
d="M102 270l24 170h1060l-24 -170h-1060z" />
    <glyph glyph-name="horizontalbar" unicode="&#x2015;" horiz-adv-x="1000" 
d="M-18 270l24 170h1000l-24 -170h-1000z" />
    <glyph glyph-name="parenleft" unicode="(" horiz-adv-x="800" 
d="M544 -210q-240 37 -311.5 183t-46.5 327q24 173 137.5 323t364.5 187l2 -130q-155 -37 -219 -133t-85 -247t16.5 -243t181.5 -129z" />
    <glyph glyph-name="parenright" unicode=")" horiz-adv-x="800" 
d="M84 -210v138q154 37 218 131.5t84 240.5q19 136 -17 239.5t-179 140.5l38 130q241 -37 311.5 -187t46.5 -323q-25 -181 -137.5 -327t-364.5 -183z" />
    <glyph glyph-name="bracketleft" unicode="[" horiz-adv-x="800" 
d="M116 -200l140 1000h450l-19 -140h-250l-101 -720h250l-20 -140h-450z" />
    <glyph glyph-name="bracketright" unicode="]" horiz-adv-x="800" 
d="M66 -200l20 140h250l101 720h-250l19 140h450l-140 -1000h-450z" />
    <glyph glyph-name="braceleft" horiz-adv-x="800" 
d="M564 -210q-269 -3 -379.5 33t-96.5 133q6 43 23.5 71.5t57.5 60.5q43 34 60 52t19 33q7 47 -40 66.5t-177 22.5l14 100q131 3 183.5 22t58.5 65q2 15 -9.5 30t-44.5 40q-33 26 -44 51.5t-6 65.5q15 101 135.5 139t389.5 35l-20 -140q-169 3 -236 -11.5t-73 -54.5
q-3 -21 8.5 -38t45.5 -41q34 -23 45 -43t6 -52q-8 -60 -74.5 -86.5t-233.5 -30.5l-1 -5q165 -10 224 -37t52 -82q-5 -35 -21.5 -55.5t-56.5 -44.5q-41 -24 -58 -43.5t-21 -46.5q-6 -43 56.5 -58.5t233.5 -12.5z" />
    <glyph glyph-name="braceright" horiz-adv-x="800" 
d="M588 -44q-14 -97 -134.5 -133t-389.5 -33l20 138q169 -3 236.5 12.5t73.5 58.5q4 27 -8 46.5t-45 43.5q-34 24 -44.5 44.5t-5.5 55.5q7 55 74 82t234 37l1 5q-165 4 -224.5 30.5t-51.5 86.5q5 32 22 52t57 43q40 24 56.5 41t19.5 38q6 40 -57 54.5t-234 11.5l20 140
q269 3 379.5 -35t95.5 -139q-5 -40 -23 -65.5t-59 -51.5q-41 -25 -56.5 -40t-17.5 -30q-6 -46 40.5 -65t177.5 -22l-14 -100q-132 -3 -184 -22.5t-59 -66.5q-2 -15 10 -33t45 -52q32 -32 41.5 -60.5t3.5 -71.5z" />
    <glyph glyph-name="numbersign" unicode="#" horiz-adv-x="1000" 
d="M561 300l38 200h-160l-38 -200h160zM504 0l33 170h-160l-33 -170h-170l33 170h-139l18 130h145l38 200h-155l19 130h162l31 170h170l-31 -170h160l31 170h170l-31 -170h138l-19 -130h-145l-38 -200h155l-18 -130h-161l-33 -170h-170z" />
    <glyph glyph-name="percent" unicode="%" horiz-adv-x="1300" 
d="M296 368q-107 0 -168.5 38t-49.5 117l18 130q11 80 83 118.5t179 38.5t167.5 -38.5t49.5 -118.5l-18 -130q-12 -79 -83 -117t-178 -38zM254 0l612 800h180l-612 -800h-180zM312 484q32 0 52.5 12t24.5 40l15 104q4 28 -13 41t-49 13t-53.5 -13t-25.5 -41l-15 -104
q-4 -28 14 -40t50 -12zM942 -12q-107 0 -168 38t-50 117l20 140q11 80 83 118.5t179 38.5t167.5 -38.5t49.5 -118.5l-20 -140q-11 -79 -82.5 -117t-178.5 -38zM959 104q32 0 52.5 12t24.5 40l16 114q4 28 -13 41t-49 13t-53.5 -13t-25.5 -41l-16 -114q-4 -28 14 -40t50 -12z
" />
    <glyph glyph-name="perthousand" unicode="&#x2030;" horiz-adv-x="1700" 
d="M286 368q-94 0 -146.5 39.5t-41.5 120.5l17 120q12 82 76 122t157 40q94 0 146 -40t40 -122l-17 -120q-11 -81 -74.5 -120.5t-156.5 -39.5zM1006 800l-612 -800h-180l612 800h180zM248 536q-4 -28 11 -40t43 -12t45.5 12t21.5 40l15 104q4 28 -10 41t-42 13t-46.5 -13
t-22.5 -41zM1584 148q-12 -81 -75.5 -120.5t-156.5 -39.5q-94 0 -146.5 39.5t-40.5 120.5l18 130q12 82 76 122t157 40q94 0 146 -40t40 -122zM1104 148q-12 -81 -75.5 -120.5t-156.5 -39.5q-94 0 -146.5 39.5t-40.5 120.5l18 130q12 82 76 122t157 40q94 0 146 -40t40 -122
zM835 156q-4 -28 11 -40t43 -12t45.5 12t21.5 40l16 114q4 28 -10 41t-42 13t-46.5 -13t-22.5 -41zM1315 156q-4 -28 11 -40t43 -12t45.5 12t21.5 40l16 114q4 28 -10 41t-42 13t-46.5 -13t-22.5 -41z" />
    <glyph glyph-name="quotesingle" unicode="'" horiz-adv-x="700" 
d="M259 350l27 450h240l-99 -450h-168z" />
    <glyph glyph-name="quotedbl" unicode="&#x22;" 
d="M659 350l27 450h240l-99 -450h-168zM259 350l27 450h240l-99 -450h-168z" />
    <glyph glyph-name="quoteleft" unicode="&#x2018;" horiz-adv-x="700" 
d="M152 350l314 450h127l-158 -450h-283z" />
    <glyph glyph-name="quoteleft" unicode="&#x2bb;" horiz-adv-x="700" 
d="M152 350l314 450h127l-158 -450h-283z" />
    <glyph glyph-name="quoteright" unicode="&#x2019;" horiz-adv-x="700" 
d="M156 350l158 450h283l-314 -450h-127z" />
    <glyph glyph-name="quotedblleft" unicode="&#x201c;" 
d="M552 350l314 450h127l-158 -450h-283zM162 350l314 450h127l-158 -450h-283z" />
    <glyph glyph-name="quotedblright" unicode="&#x201d;" 
d="M546 350l158 450h283l-314 -450h-127zM156 350l158 450h283l-314 -450h-127z" />
    <glyph glyph-name="quotereversed" unicode="&#x201b;" horiz-adv-x="700" 
d="M199 350zM387 350l-188 450h283l32 -450h-127z" />
    <glyph glyph-name="quotesinglbase" unicode="&#x201a;" horiz-adv-x="700" 
d="M96 0zM96 -150l138 450h283l-294 -450h-127z" />
    <glyph glyph-name="quotedblbase" unicode="&#x201e;" 
d="M156 0zM546 -150l158 450h283l-314 -450h-127zM156 -150l158 450h283l-314 -450h-127z" />
    <glyph glyph-name="guilsinglleft" unicode="&#x2039;" horiz-adv-x="700" 
d="M497 20l-368 230l28 200l433 230l-25 -175l-292 -155l248 -155z" />
    <glyph glyph-name="guilsinglright" unicode="&#x203a;" horiz-adv-x="700" 
d="M97 20l24 175l292 155l-248 155l25 175l367 -230l-28 -200z" />
    <glyph glyph-name="guillemotleft" unicode="&#xab;" 
d="M922 20l-368 230l28 200l433 230l-25 -175l-292 -155l248 -155zM472 20l-368 230l28 200l433 230l-25 -175l-292 -155l248 -155z" />
    <glyph glyph-name="guillemotright" unicode="&#xbb;" 
d="M72 20l24 175l292 155l-248 155l25 175l367 -230l-28 -200zM522 20l24 175l292 155l-248 155l25 175l367 -230l-28 -200z" />
    <glyph glyph-name="asterisk" unicode="*" horiz-adv-x="900" 
d="M650 261l-162 181l14 -242h-162l83 241l-211 -180l-62 140l260 100l-232 100l101 140l161 -181l-16 240h162l-81 -240l212 181l61 -140l-261 -100l233 -100z" />
    <glyph glyph-name="dagger" unicode="&#x2020;" horiz-adv-x="1000" 
d="M366 -200l93 660h-120l-71 -220h-140l80 360h267l21 200h220l-35 -200h267l-20 -360h-140l-9 220h-120l-93 -660h-200z" />
    <glyph glyph-name="daggerdbl" unicode="&#x2021;" horiz-adv-x="1000" 
d="M356 -200l31 170h-267l6 260h140l23 -120h120l54 380h-120l-57 -120h-140l67 260h267l16 170h220l-30 -170h267l-7 -260h-140l-23 120h-120l-54 -380h120l57 120h140l-66 -260h-267l-17 -170h-220z" />
    <glyph glyph-name="period" unicode="." horiz-adv-x="700" 
d="M294 -10q-68 0 -105.5 29.5t-30.5 81.5l12 87q8 53 53.5 83t113.5 30q67 0 104 -30t29 -83l-12 -87q-7 -52 -53 -81.5t-111 -29.5z" />
    <glyph glyph-name="comma" unicode="," horiz-adv-x="700" 
d="M96 -150l138 450h283l-294 -450h-127z" />
    <glyph glyph-name="colon" unicode=":" horiz-adv-x="700" 
d="M349 386q-61 0 -94.5 26t-27.5 73l8 59q7 48 48.5 74.5t102.5 26.5q60 0 93 -26.5t26 -74.5l-8 -59q-6 -47 -48 -73t-100 -26zM294 -4q-61 0 -94.5 26t-27.5 73l9 59q6 48 47.5 74.5t102.5 26.5q60 0 93 -26.5t27 -74.5l-9 -59q-6 -47 -48 -73t-100 -26z" />
    <glyph glyph-name="semicolon" unicode=";" horiz-adv-x="700" 
d="M349 386q-61 0 -94.5 26t-27.5 73l8 59q7 48 48.5 74.5t102.5 26.5q60 0 93 -26.5t26 -74.5l-8 -59q-6 -47 -48 -73t-100 -26zM117 -128l124 406h255l-265 -406h-114z" />
    <glyph glyph-name="ellipsis" unicode="&#x2026;" horiz-adv-x="1900" 
d="M105 0zM1448 -10q-68 0 -105.5 29.5t-30.5 81.5l12 87q8 53 53.5 83t113.5 30q67 0 104 -30t29 -83l-12 -87q-7 -52 -53 -81.5t-111 -29.5zM848 -10q-68 0 -105.5 29.5t-30.5 81.5l12 87q8 53 53.5 83t113.5 30q67 0 104 -30t29 -83l-12 -87q-7 -52 -53 -81.5t-111 -29.5
zM248 -10q-68 0 -105.5 29.5t-30.5 81.5l12 87q8 53 53.5 83t113.5 30q67 0 104 -30t29 -83l-12 -87q-7 -52 -53 -81.5t-111 -29.5z" />
    <glyph glyph-name="exclam" unicode="!" horiz-adv-x="800" 
d="M291 300l40 500h240l-100 -500h-180zM344 -10q-72 0 -107 20.5t-29 63.5l4 28q7 44 47 65t112 21t106.5 -21t27.5 -65l-4 -28q-6 -43 -46 -63.5t-111 -20.5z" />
    <glyph glyph-name="exclamdown" unicode="&#xa1;" horiz-adv-x="800" 
d="M458 810q72 0 106.5 -20.5t28.5 -63.5l-4 -28q-6 -44 -46.5 -65t-112.5 -21t-106 21t-28 65l4 28q6 43 46.5 63.5t111.5 20.5zM510 500l-40 -500h-240l100 500h180z" />
    <glyph glyph-name="exclamdbl" unicode="&#x203c;" 
d="M102 0zM691 300l40 500h240l-100 -500h-180zM744 -10q-72 0 -107 20.5t-29 63.5l4 28q7 44 47 65t112 21t106.5 -21t27.5 -65l-4 -28q-6 -43 -46 -63.5t-111 -20.5zM191 300l40 500h240l-100 -500h-180zM244 -10q-72 0 -107 20.5t-29 63.5l4 28q7 44 47 65t112 21
t106.5 -21t27.5 -65l-4 -28q-6 -43 -46 -63.5t-111 -20.5z" />
    <glyph glyph-name="question" unicode="?" horiz-adv-x="1000" 
d="M401 263l-2 131q178 28 241 63t72 95l2 20q7 49 -19 73.5t-107 24.5q-83 0 -116.5 -26.5t-50.5 -94.5l-198 10q25 128 119 189.5t265 61.5q164 0 243 -67t65 -164l-4 -31q-17 -122 -137 -185.5t-373 -99.5zM444 -10q-72 0 -107 20.5t-29 63.5l4 28q7 44 47 65t112 21
t106.5 -21t27.5 -65l-4 -28q-6 -43 -46 -63.5t-111 -20.5z" />
    <glyph glyph-name="questiondown" unicode="&#xbf;" horiz-adv-x="1000" 
d="M647 810q72 0 106.5 -20.5t28.5 -63.5l-4 -28q-6 -44 -46.5 -65t-112.5 -21t-106 21t-28 65l4 28q6 43 46.5 63.5t111.5 20.5zM689 537l2 -131q-178 -28 -241 -63t-71 -95l-3 -20q-7 -49 19 -73.5t107 -24.5q83 0 117 26.5t50 94.5l199 -10q-25 -128 -119 -189.5
t-265 -61.5q-164 0 -243.5 67t-65.5 164l4 31q18 122 137.5 185.5t372.5 99.5z" />
    <glyph glyph-name="slash" unicode="/" horiz-adv-x="700" 
d="M-14 -200l540 1000h160l-540 -1000h-160z" />
    <glyph glyph-name="backslash" unicode="\" horiz-adv-x="700" 
d="M386 -198l-259 1000l159 -2l260 -1000z" />
    <glyph glyph-name="fraction" unicode="&#x2215;" horiz-adv-x="360" 
d="M-156 0l512 800h160l-512 -800h-160z" />
    <glyph glyph-name="fraction" unicode="&#x2044;" horiz-adv-x="360" 
d="M-156 0l512 800h160l-512 -800h-160z" />
    <glyph glyph-name="bar" unicode="|" horiz-adv-x="700" 
d="M186 -200l140 1000h160l-140 -1000h-160z" />
    <glyph glyph-name="brokenbar" unicode="&#xa6;" horiz-adv-x="700" 
d="M270 400l56 400h160l-56 -400h-160zM186 -200l56 400h160l-56 -400h-160z" />
    <glyph glyph-name="at" unicode="@" 
d="M557 -110q-236 0 -338.5 98t-79.5 261l33 238q21 146 135 234.5t320 88.5q179 0 263.5 -82t63.5 -231l-29 -204q-18 -89 -91.5 -131t-197.5 -42q-131 0 -186.5 48t-43.5 134l12 82q12 84 71.5 135t150.5 51q65 0 102 -21.5t50 -53.5h30q12 105 -31 155t-181 50
t-205.5 -56t-82.5 -157l-32 -228q-17 -121 48.5 -188t234.5 -67q59 0 110 9t96 21l-16 -114q-43 -10 -98.5 -20t-107.5 -10zM655 230q32 0 52.5 14.5t27.5 59.5l10 72q6 45 -10 64.5t-47 19.5q-32 0 -53.5 -20t-27.5 -66l-9 -62q-6 -44 8.5 -63t48.5 -19z" />
    <glyph glyph-name="ampersand" unicode="&#x26;" horiz-adv-x="900" 
d="M798 -22q-58 16 -112.5 40.5t-103.5 55.5q-52 -40 -114 -62t-142 -22q-132 0 -200 55.5t-53 159.5q9 66 52 117.5t136 101.5q-22 46 -30.5 87t-4.5 74q15 104 92.5 165t194.5 61q102 0 161.5 -51.5t47.5 -133.5q-11 -75 -68.5 -123.5t-206.5 -98.5q7 -12 15.5 -24
t16.5 -24q21 -29 47 -56.5t55 -53.5q23 34 50 79t58 102l145 -29q-40 -66 -86 -127t-90 -109l192 -52zM406 585q-3 -24 -1.5 -47.5t6.5 -46.5q71 30 102.5 59t37.5 67q5 35 -10 54t-47 19q-40 0 -60.5 -29.5t-27.5 -75.5zM384 110q27 0 52.5 7.5t49.5 25.5
q-39 32 -73.5 67.5t-63.5 71.5q-8 9 -15 18.5t-13 19.5q-19 -25 -31.5 -53.5t-15.5 -55.5q-8 -56 20.5 -78.5t89.5 -22.5z" />
    <glyph glyph-name="section" unicode="&#xa7;" 
d="M517 232l18 -4t17 -4q50 1 91 14t46 45q6 41 -33.5 55.5t-95.5 26.5l-18 4l-18 4q-49 -1 -90 -13.5t-46 -44.5q-6 -42 33.5 -56.5t95.5 -26.5zM483 -207q-99 0 -190 27t-144 67l70 141q60 -41 131.5 -63t158.5 -22q56 0 99.5 12.5t47.5 41.5q5 39 -49.5 51.5t-123.5 27.5
q-152 31 -232 74.5t-66 142.5q7 50 51.5 83.5t109.5 51.5q-65 30 -95.5 73t-20.5 109q14 104 125 149t239 45q99 0 186 -27t148 -67l-79 -131q-63 37 -130 56t-151 19q-73 0 -108 -16.5t-39 -46.5q-5 -34 56.5 -46t166.5 -35q115 -22 188.5 -64.5t59.5 -141.5
q-8 -52 -44 -89.5t-90 -59.5q51 -29 74 -69.5t15 -98.5q-14 -99 -119 -146.5t-245 -47.5z" />
    <glyph glyph-name="paragraph" unicode="&#xb6;" 
d="M692 340h-100l-76 -540h-200l76 540q-90 0 -154 44.5t-49 152.5l8 52q15 110 91.5 160.5t166.5 50.5h501l-140 -1000h-200z" />
    <glyph glyph-name="lsquare" unicode="&#x2113;" horiz-adv-x="700" 
d="M336 370q14 0 23.5 2.5t18.5 8.5q8 7 15 20.5t14 35.5l49 152q6 20 7 33.5t-2 21.5q-3 9 -11 12.5t-21 3.5q-15 0 -24.5 -2t-17.5 -9t-16 -21.5t-15 -38.5l-52 -165q-5 -14 -4.5 -24.5t4.5 -16.5q4 -7 12 -10t20 -3zM488 49q-33 -14 -65 -24.5t-63 -17.5
q-30 -7 -59.5 -10.5t-57.5 -3.5q-59 0 -104 15.5t-72 48.5t-32 84t17 121l106 336q18 59 49.5 100t71.5 66q41 24 88 35t100 11q67 0 111.5 -10.5t69.5 -34.5q24 -24 27.5 -64.5t-16.5 -100.5l-61 -193q-12 -40 -36.5 -70t-57.5 -49q-32 -19 -72 -28.5t-84 -9.5
q-14 0 -27.5 1t-24.5 2q-12 2 -22.5 4.5t-20.5 5.5l-7 -24q-8 -25 -6.5 -43.5t10.5 -30.5q10 -12 26.5 -17.5t39.5 -5.5q19 0 41.5 3.5t47.5 10.5t51.5 17t53.5 22z" />
    <glyph glyph-name="numero" unicode="&#x2116;" horiz-adv-x="1400" 
d="M1035 290q-106 0 -170.5 55.5t-47.5 171.5l8 62q17 117 97.5 174t186.5 57t169.5 -57t46.5 -174l-8 -62q-17 -116 -96.5 -171.5t-185.5 -55.5zM1054 430q40 0 58 19t24 63l12 83q5 36 -7.5 55.5t-52.5 19.5q-39 0 -57.5 -20.5t-23.5 -57.5l-11 -80q-6 -44 6.5 -63
t51.5 -19zM294 566l-80 -566h-170l112 800h237l107 -618l86 618h170l-112 -800h-253z" />
    <glyph glyph-name="periodcentered" unicode="&#x2219;" horiz-adv-x="700" 
d="M329 245q-68 0 -105 29.5t-30 81.5l12 87q8 53 53.5 83t113.5 30q67 0 104 -30t29 -83l-12 -87q-7 -52 -53.5 -81.5t-111.5 -29.5z" />
    <glyph glyph-name="periodcentered" unicode="&#xb7;" horiz-adv-x="700" 
d="M329 245q-68 0 -105 29.5t-30 81.5l12 87q8 53 53.5 83t113.5 30q67 0 104 -30t29 -83l-12 -87q-7 -52 -53.5 -81.5t-111.5 -29.5z" />
    <glyph glyph-name="bullet" unicode="&#x2022;" horiz-adv-x="900" 
d="M428 236q-75 0 -117 30.5t-33 95.5l10 72q9 66 60 97.5t126 31.5t116.5 -31.5t32.5 -97.5l-10 -72q-9 -65 -60.5 -95.5t-124.5 -30.5z" />
    <glyph glyph-name="anoteleia" unicode="&#x387;" horiz-adv-x="700" 
d="M187 245zM329 245q-68 0 -105 29.5t-30 81.5l12 87q8 53 53.5 83t113.5 30q67 0 104 -30t29 -83l-12 -87q-7 -52 -53.5 -81.5t-111.5 -29.5z" />
    <glyph glyph-name="underscoredbl" unicode="&#x2017;" horiz-adv-x="900" 
d="M16 0zM16 0l24 170h700l-24 -170h-700zM16 -300l24 170h700l-24 -170h-700z" />
    <glyph glyph-name="minute" unicode="&#x2032;" horiz-adv-x="700" 
d="M156 350zM156 350l158 450h283l-314 -450h-127z" />
    <glyph glyph-name="second" unicode="&#x2033;" 
d="M156 350zM546 350l158 450h283l-314 -450h-127zM156 350l158 450h283l-314 -450h-127z" />
    <glyph glyph-name="overline" unicode="&#x203e;" horiz-adv-x="900" 
d="M16 830zM16 830l24 170h700l-24 -170h-700z" />
    <glyph glyph-name="plus" unicode="+" horiz-adv-x="900" 
d="M314 0l38 270h-270l22 160h270l38 270h160l-38 -270h270l-22 -160h-270l-38 -270h-160z" />
    <glyph glyph-name="minus" unicode="&#x2212;" horiz-adv-x="900" 
d="M82 270l22 160h700l-22 -160h-700z" />
    <glyph glyph-name="plusminus" unicode="&#xb1;" horiz-adv-x="900" 
d="M82 0zM314 100l38 270h-270l22 160h270l38 270h160l-38 -270h270l-22 -160h-270l-38 -270h-160zM82 0l22 160h700l-22 -160h-700z" />
    <glyph glyph-name="divide" unicode="&#xf7;" horiz-adv-x="900" 
d="M466 511q-46 0 -72.5 18.5t-20.5 58.5l3 21q5 40 37 59.5t78 19.5t71.5 -19.5t20.5 -59.5l-3 -21q-6 -40 -37 -58.5t-77 -18.5zM83 280l20 140h700l-20 -140h-700zM396 11q-46 0 -72.5 18.5t-21.5 58.5l3 21q6 40 37.5 59.5t77.5 19.5t72 -19.5t20 -59.5l-3 -21
q-5 -40 -36 -58.5t-77 -18.5z" />
    <glyph glyph-name="multiply" unicode="&#xd7;" horiz-adv-x="900" 
d="M182 31l-88 103l246 216l-185 216l117 103l186 -216l246 216l89 -103l-247 -216l186 -216l-118 -103l-185 216z" />
    <glyph glyph-name="equal" unicode="=" horiz-adv-x="900" 
d="M104 430l23 160h700l-23 -160h-700zM59 110l23 160h700l-23 -160h-700z" />
    <glyph glyph-name="less" unicode="&#x3c;" horiz-adv-x="900" 
d="M694 0l-565 250l28 200l635 250l-21 -155l-496 -195l441 -195z" />
    <glyph glyph-name="greater" unicode="&#x3e;" horiz-adv-x="900" 
d="M94 0l20 145l521 205l-463 205l20 145l565 -250l-28 -200z" />
    <glyph glyph-name="lessequal" unicode="&#x2264;" horiz-adv-x="900" 
d="M722 200l-572 200l28 200l628 200l-21 -155l-456 -145l415 -145zM94 0l19 135h600l-19 -135h-600z" />
    <glyph glyph-name="greaterequal" unicode="&#x2265;" horiz-adv-x="900" 
d="M122 200l22 155l455 145l-414 145l21 155l572 -200l-28 -200zM694 0h-600l19 135h600z" />
    <glyph glyph-name="approxequal" unicode="&#x2248;" horiz-adv-x="900" 
d="M598 380q-36 0 -63 8.5t-47 23.5q-19 15 -33.5 32.5t-28.5 41.5q-34 60 -46 74t-28 22q-9 5 -18 7t-20 2q-16 0 -28.5 -5.5t-23.5 -16.5q-11 -12 -18 -31t-11 -45l-10 -73h-150l11 79q8 58 30.5 103t56.5 76q35 31 79 46.5t97 15.5q36 0 64 -8.5t47 -23.5t33 -32.5
t28 -40.5q48 -82 41.5 -71t5.5 -4q12 -14 28.5 -22.5t38.5 -8.5q15 0 28 5.5t23 16.5q10 12 17 31t11 46l10 72h150l-11 -79q-8 -58 -30.5 -103t-56.5 -76t-78.5 -46.5t-97.5 -15.5zM539 -20q-35 0 -61.5 8.5t-45.5 23.5q-20 15 -33.5 32.5t-27.5 41.5q-34 60 -46 74.5
t-28 22.5q-9 5 -18.5 7t-20.5 2q-16 0 -29 -5.5t-23 -17.5q-11 -12 -18 -31t-11 -45l-10 -73h-150l11 79q8 58 30.5 103t56.5 76t78.5 46.5t97.5 15.5q36 0 63.5 -8.5t46.5 -23.5q20 -15 34 -32.5t28 -40.5q48 -82 41.5 -71t4.5 -4q13 -14 29.5 -22.5t38.5 -8.5q15 0 28 5.5
t23 16.5q10 12 17 31t11 46l10 72h150l-11 -79q-8 -58 -30.5 -103t-56.5 -76t-79.5 -46.5t-99.5 -15.5z" />
    <glyph glyph-name="notequal" unicode="&#x2260;" horiz-adv-x="900" 
d="M767 165h-339l-64 -165h-140l64 165h-221l21 150h259l66 170h-301l21 150h339l64 165h140l-64 -165h221l-21 -150h-259l-66 -170h301z" />
    <glyph glyph-name="logicalnot" unicode="&#xac;" horiz-adv-x="900" 
d="M584 0l38 270h-540l22 160h700l-60 -430h-160z" />
    <glyph glyph-name="uni23af" unicode="&#x23af;" horiz-adv-x="1000" 
d="M-150 300v200h1300v-200h-1300z" />
    <glyph glyph-name="arrowleft" unicode="&#x2190;" horiz-adv-x="1200" 
d="M580 25l-430 365v20l430 365h20v-275h450v-200h-450v-275h-20z" />
    <glyph glyph-name="arrowup" unicode="&#x2191;" horiz-adv-x="900" 
d="M350 -50v450h-275v20l365 430h20l365 -430v-20h-275v-450h-200z" />
    <glyph glyph-name="arrowright" unicode="&#x2192;" horiz-adv-x="1200" 
d="M600 25v275h-450v200h450v275h20l430 -365v-20l-430 -365h-20z" />
    <glyph glyph-name="arrowdown" unicode="&#x2193;" horiz-adv-x="900" 
d="M440 -100l-365 430v20h275v450h200v-450h275v-20l-365 -430h-20z" />
    <glyph glyph-name="arrowboth" unicode="&#x2194;" horiz-adv-x="1400" 
d="M550 300v-275h-20l-380 365v20l380 365h20v-275h300v275h20l380 -365v-20l-380 -365h-20v275h-300z" />
    <glyph glyph-name="partialdiff" unicode="&#x2202;" horiz-adv-x="800" 
d="M338 -10q-68 0 -120.5 14.5t-86.5 44.5q-35 30 -48 75.5t-2 105.5l9 52q9 50 32 90.5t58 68.5q36 29 80.5 44t95.5 15q31 0 55.5 -5.5t43.5 -16.5q18 -10 30 -23.5t17 -28.5h21q5 60 -10 101t-50 70t-90 50.5t-142 44.5l149 129q104 -29 173 -68.5t108 -93.5
q40 -54 50.5 -126t-6.5 -166l-23 -131q-11 -63 -40.5 -110t-74.5 -77t-102.5 -44.5t-126.5 -14.5zM363 130q27 0 46.5 5.5t32.5 15.5q14 11 22 27.5t13 39.5l13 63q4 20 1.5 34.5t-12.5 24.5q-11 10 -29 14.5t-45 4.5t-46.5 -4.5t-33.5 -14.5q-13 -10 -21 -24.5t-12 -34.5
l-13 -63q-5 -23 -2.5 -39.5t12.5 -27.5q10 -10 28.5 -15.5t45.5 -5.5z" />
    <glyph glyph-name="Delta#1" unicode="&#x2206;" horiz-adv-x="800" 
d="M0 0zM-26 0l21 150l324 650h285l131 -650l-21 -150h-740zM532 150l-98 529l-254 -529h352z" />
    <glyph glyph-name="product" unicode="&#x220f;" horiz-adv-x="900" 
d="M16 -200l140 1000h700l-140 -1000h-200l119 850h-300l-119 -850h-200z" />
    <glyph glyph-name="summation" unicode="&#x2211;" horiz-adv-x="800" 
d="M657 -50l-21 -150h-650l21 150l448 359l-350 341l21 150h650l-21 -150h-446l288 -275l-17 -118l-383 -307h460z" />
    <glyph glyph-name="mu1" unicode="&#xb5;" horiz-adv-x="900" 
d="M6 0zM247 20l-21 -220h-220l41 220l81 580h200l-52 -374q-6 -43 16.5 -62t59.5 -19q36 0 64.5 10t54.5 35l57 410h200l-54 -390q-8 -54 22 -66t88 -5l-19 -134q-84 -19 -144 -5t-82 80h-30q-26 -37 -65.5 -63.5t-99.5 -26.5q-30 0 -54.5 13.5t-39.5 40.5z" />
    <glyph glyph-name="radical" unicode="&#x221a;" horiz-adv-x="800" 
d="M281 0l-99 343l-141 -18l20 145l237 30l88 -334l269 734h192l-341 -900h-225z" />
    <glyph glyph-name="infinity" unicode="&#x221e;" horiz-adv-x="1000" 
d="M255 90q-44 0 -82.5 20.5t-65.5 59.5q-26 40 -36.5 98t-0.5 131q10 74 37 132.5t67 98.5q38 40 84 60t94 20q42 0 74 -11.5t55 -32.5t38.5 -48.5t26.5 -61.5q22 34 44.5 61.5t47.5 48.5t53 32.5t58 11.5q44 0 81.5 -20.5t62.5 -60.5q27 -39 37.5 -97t-0.5 -131
q-10 -74 -37 -132.5t-66 -98.5q-40 -40 -86 -60t-96 -20q-41 0 -72 11.5t-54 32.5q-22 20 -37.5 47t-26.5 61q-22 -34 -44 -61t-47 -48q-24 -20 -51.5 -31.5t-57.5 -11.5zM669 239q17 0 32.5 9t28.5 28q14 20 24 50.5t16 73.5q5 43 3.5 74t-9.5 51q-8 19 -20.5 27.5
t-29.5 8.5q-20 0 -38.5 -9t-35.5 -25t-33.5 -37.5t-34.5 -49.5q11 -65 16 -90.5t14 -52.5q10 -27 26 -42.5t41 -15.5zM287 239q19 0 37.5 8.5t35.5 24.5t34 37.5t34 48.5q-14 79 -17 98t-12 46q-11 27 -26.5 43t-40.5 16q-17 0 -33 -9t-28 -28q-14 -20 -24.5 -50.5
t-16.5 -73.5q-5 -43 -3.5 -74t10.5 -51q7 -19 20 -27.5t30 -8.5z" />
    <glyph glyph-name="orthogonal" unicode="&#x221f;" horiz-adv-x="800" 
d="M44 0l98 700h200l-76 -540h420l-22 -160h-620z" />
    <glyph glyph-name="intersection" unicode="&#x2229;" horiz-adv-x="1000" 
d="M114 0l63 449q9 65 41 114.5t81 81.5q49 33 112 49t134 16t128.5 -16t98.5 -49q39 -32 56.5 -81.5t8.5 -114.5l-63 -449h-200l61 435q4 31 1 54t-17 39q-13 16 -36.5 24t-59.5 8t-62.5 -8.5t-43.5 -24.5t-27.5 -39.5t-14.5 -55.5l-61 -432h-200z" />
    <glyph glyph-name="integral" unicode="&#x222b;" horiz-adv-x="800" 
d="M152 -205q-18 0 -36.5 1.5t-36.5 4.5q-19 3 -36 7t-35 10l38 126q14 -5 27 -8.5t26 -5.5q12 -2 23 -3.5t22 -1.5q21 0 38.5 5.5t30.5 16.5q13 12 21.5 30t12.5 43l86 611q7 53 33.5 93t67.5 65q40 26 88.5 38t101.5 12q18 0 36.5 -1.5t36.5 -4.5q19 -3 36.5 -7t34.5 -10
l-38 -126q-14 5 -27 8.5t-26 5.5q-12 2 -23 3.5t-22 1.5q-21 0 -38 -5.5t-30 -16.5q-13 -12 -21.5 -30t-12.5 -43l-86 -611q-7 -53 -33.5 -93t-67.5 -65q-40 -26 -89 -38t-102 -12z" />
    <glyph glyph-name="equivalence" unicode="&#x2261;" horiz-adv-x="900" 
d="M117 520l23 160h700l-23 -160h-700zM81 260l22 160h700l-22 -160h-700zM44 0l22 160h700l-22 -160h-700z" />
    <glyph glyph-name="integralbt" unicode="&#x2321;" horiz-adv-x="700" 
d="M152 -205q-18 0 -36.5 1.5t-36.5 4.5q-19 3 -36 7t-35 10l38 126q14 -5 27 -8.5t26 -5.5q12 -2 23 -3.5t22 -1.5q21 0 38.5 5.5t30.5 16.5q13 12 21.5 30t12.5 43l109 780h200l-112 -797q-7 -53 -33.5 -93t-67.5 -65q-40 -26 -89 -38t-102 -12z" />
    <glyph glyph-name="dollar" unicode="$" horiz-adv-x="800" 
d="M298 562q-4 -27 10.5 -44t54.5 -28l19 135q-43 -5 -61.5 -20t-22.5 -43zM524 240q4 29 -15 46.5t-71 29.5l-20 -143q55 2 78 18t28 49zM397 -50h-120l13 92q-93 7 -151 32t-103 55l61 131q43 -29 92 -53t130 -32l22 158q-137 20 -189.5 64.5t-39.5 134.5
q12 86 81.5 148.5t196.5 75.5l13 94h120l-13 -93q64 -6 124 -25.5t90 -46.5l-49 -125q-46 26 -89.5 43t-103.5 22l-22 -153q150 -22 206.5 -69.5t43.5 -140.5q-14 -96 -93.5 -153t-206.5 -67z" />
    <glyph glyph-name="cent" unicode="&#xa2;" horiz-adv-x="800" 
d="M281 337q-7 -51 3.5 -78t45.5 -35l50 351q-38 -7 -56 -34t-25 -78zM277 -50l20 143q-114 13 -167.5 73t-39.5 161l21 150q15 103 88 160.5t184 69.5l20 143h120l-20 -143q109 -12 155 -69.5t45 -153.5l-185 -16q3 49 -7.5 73.5t-40.5 32.5l-50 -351q36 7 51.5 30t25.5 69
l181 -16q-20 -93 -77 -148.5t-184 -65.5l-20 -142h-120z" />
    <glyph glyph-name="sterling" unicode="&#xa3;" horiz-adv-x="900" 
d="M813 277q-28 -140 -111.5 -213.5t-208.5 -73.5q-49 0 -91 17.5t-80 34.5q-40 17 -77 24t-74 -15l-100 -60l-64 120l115 64q37 21 69 58t37 74q2 13 0.5 25t-3.5 23h-151l14 100h92q-10 22 -16.5 47.5t-2.5 54.5q16 113 110.5 183t247.5 70q180 0 246 -72t53 -209
l-201 -10q4 63 -17 97t-105 34q-64 0 -95.5 -27t-37.5 -68q-4 -25 6.5 -49.5t22.5 -50.5h157l-14 -100h-103q1 -10 1.5 -20t-1.5 -20q-5 -40 -47 -66t-119 -52l13 -39q48 23 81.5 26t58.5 -3q26 -5 48 -13.5t50 -8.5q46 0 64.5 29.5t33.5 98.5z" />
    <glyph glyph-name="currency" unicode="&#xa4;" horiz-adv-x="900" 
d="M428 240q45 0 70 18t31 59l22 162q6 41 -13.5 61t-64.5 20t-70.5 -20t-31.5 -61l-22 -162q-6 -41 14 -59t65 -18zM407 90q-54 0 -98.5 11t-75.5 33l-121 -108l-72 83l132 116q-6 20 -6.5 43t3.5 49l22 162q4 27 12 51t19 44l-100 117l95 83l91 -109q38 22 85.5 33.5
t101.5 11.5t98.5 -11.5t74.5 -34.5l120 105l71 -83l-130 -114q5 -20 5.5 -43.5t-3.5 -49.5l-22 -162q-4 -22 -9.5 -41.5t-12.5 -36.5l92 -125l-95 -83l-89 104q-37 -22 -85.5 -33.5t-102.5 -11.5z" />
    <glyph glyph-name="yen" unicode="&#xa5;" horiz-adv-x="800" 
d="M658 100h-200l-14 -100h-200l14 100h-200l14 100h200l14 100h-200l14 100h142l-176 400h209l137 -342l236 342h198l-288 -400h142l-14 -100h-200l-14 -100h200z" />
    <glyph glyph-name="franc" unicode="&#x20a3;" horiz-adv-x="800" 
d="M412 130h-150l-18 -130h-200l18 130h-100l17 120h100l77 550h620l-21 -150h-420l-17 -120h350l-21 -150h-350l-18 -130h150z" />
    <glyph glyph-name="lira" unicode="&#x20a4;" horiz-adv-x="900" 
d="M813 277q-14 -70 -42 -124t-69 -90t-93.5 -54.5t-115.5 -18.5q-23 0 -45.5 4.5t-42.5 11.5q-21 8 -16.5 5.5t-66.5 30.5q-23 10 -41 16t-37 9q-18 2 -36 -1.5t-37 -14.5l-100 -60l-64 120l115 64q14 8 28.5 19.5t27.5 24.5t23.5 27.5t17.5 28.5h-156l14 100h139
q-2 4 -4 9t-4 9q-2 5 -3.5 9.5t-4.5 10.5q-4 9 -6.5 14.5t-4.5 11.5q-3 7 -5.5 13.5t-5.5 12.5h-89l14 100h60q1 2 0.5 4.5t0.5 4.5q0 2 0.5 4t0.5 5q7 47 34 88.5t74 72.5q45 31 108 48.5t138 17.5q89 0 150 -18t95 -53q35 -36 47.5 -87.5t6.5 -122.5l-201 -10
q2 35 -1.5 58.5t-15.5 39.5q-13 16 -38 24.5t-67 8.5q-30 0 -52.5 -6t-39.5 -17q-16 -12 -25.5 -27.5t-14.5 -34.5h180l-14 -100h-145q2 -3 3.5 -5.5t2.5 -4.5q2 -3 4 -7t4 -6q6 -9 10 -16.5t8 -15.5q3 -8 6.5 -17t6.5 -18h88l-14 -100h-89q-10 -11 -24 -21t-32 -20
q-18 -9 -41 -18t-52 -19l13 -39q24 11 44 17.5t37 8.5t31.5 1t27.5 -4q11 -2 40 -11t26 -8q-4 1 7.5 -1t24.5 -2q23 0 38.5 7t25.5 22q11 15 18.5 38t15.5 61z" />
    <glyph glyph-name="peseta" unicode="&#x20a7;" horiz-adv-x="1200" 
d="M217 387h61q20 0 36 6t28 18q12 13 20 33t12 49l11 73q4 29 1 49t-11 33q-8 12 -22.5 18t-34.5 6h-61zM1091 170q-6 -45 -26 -79.5t-49 -56.5t-63.5 -33t-71.5 -11q-13 0 -26.5 1.5t-27.5 4.5q-12 3 -25 7t-25 9v-1q-28 -7 -45 -10.5t-34 -6.5q-9 -2 -15 -2.5t-11 -0.5
q-36 0 -64.5 12t-47.5 38q-19 27 -26 70.5t1 104.5l37 259l-61 9l-2 -12q-9 -63 -33 -105t-59 -65q-34 -23 -73 -32t-83 -9h-61l-37 -261h-138l112 800h200q41 0 76 -8.5t62 -30.5q28 -22 42 -62t9 -99h63l28 200h138l-28 -200h120l-6 -48q13 14 29 25t34 19q17 7 35 10.5
t37 3.5t39.5 -3t39.5 -10q20 -6 37.5 -14.5t29.5 -18.5l-61 -113q-11 8 -22.5 14t-22.5 9q-11 4 -22 6t-23 2q-11 0 -19.5 -3t-14.5 -9q-6 -5 -9 -13.5t-5 -19.5q-2 -19 4 -34.5t18 -28.5t21.5 -20t43.5 -32q21 -15 36 -29t27 -32q11 -18 16.5 -40.5t1.5 -50.5zM899 118
q9 0 17.5 2t16.5 7q7 4 12.5 13t7.5 23t-4.5 25.5t-17.5 21.5q-13 10 -35.5 25.5t-31.5 21.5q-20 14 -35.5 30t-27.5 36q-11 21 -15.5 47.5t-0.5 59.5q1 6 2 11.5t3 10.5q0 5 1.5 10t2.5 10h-85l-36 -257q-3 -20 -3.5 -37.5t2.5 -29.5q2 -13 8 -20.5t16 -7.5q5 0 16 2.5
t22 5.5q6 2 14 4t18 5l2 -19l16 31q11 -6 24.5 -12t29.5 -10q15 -4 31 -6.5t30 -2.5z" />
    <glyph glyph-name="Euro" unicode="&#x20ac;" horiz-adv-x="900" 
d="M423 -10q-170 0 -245.5 67t-58.5 187l1 2h-101l13 98h100l16 110h-100l14 98h101v2q17 121 112 188.5t264 67.5q174 0 247.5 -73t59.5 -228l-192 -10q6 99 -23 135t-113 36q-75 0 -115 -25t-49 -91v-2h178l-14 -98h-180l-16 -110h180l-13 -98h-178l-1 -2
q-9 -65 23.5 -89.5t108.5 -24.5q84 0 123 35t61 132l188 -10q-28 -154 -122 -225.5t-269 -71.5z" />
    <glyph glyph-name="florin" unicode="&#x192;" horiz-adv-x="800" 
d="M180 -5q-18 0 -36.5 1.5t-36.5 4.5t-35.5 7t-34.5 10l37 126q15 -5 28 -8.5t25 -5.5t23.5 -3.5t22.5 -1.5q21 0 37.5 5.5t30.5 16.5q12 12 20.5 30t12.5 43l24 170h-199l19 140h200l15 101q6 48 29.5 87t61.5 66t88.5 41t111.5 14q18 0 36.5 -1.5t36.5 -4.5
q19 -3 36.5 -7t34.5 -10l-38 -126q-14 5 -27 8.5t-26 5.5q-12 2 -23 3.5t-22 1.5q-21 0 -38 -5.5t-30 -16.5q-13 -12 -21.5 -30t-12.5 -43l-12 -84h200l-19 -140h-200l-26 -187q-7 -48 -30.5 -87t-61.5 -66t-89 -41t-112 -14z" />
    <glyph glyph-name="asciicircum" unicode="^" horiz-adv-x="1000" 
d="M677 200l-147 410l-263 -410h-195l384 600h200l216 -600h-195z" />
    <glyph glyph-name="asciitilde" unicode="~" horiz-adv-x="1000" 
d="M632 190q-78 0 -122 34.5t-71 76.5q-27 41 -47 75.5t-53 34.5q-37 0 -53.5 -29t-28.5 -109l-10 -73h-175l11 79q22 155 94.5 243t193.5 88q80 0 124 -34.5t70 -75.5q27 -41 46 -75.5t49 -34.5q41 0 58.5 31.5t29.5 117.5l8 61h172l-9 -65q-25 -180 -98 -262.5t-189 -82.5
z" />
    <glyph glyph-name="acute" unicode="&#xb4;" horiz-adv-x="700" 
d="M258 700zM258 700l134 200h250l-253 -200h-131z" />
    <glyph glyph-name="grave" unicode="`" horiz-adv-x="700" 
d="M387 350l-188 450h283l32 -450h-127z" />
    <glyph glyph-name="hungarumlaut" unicode="&#x2dd;" horiz-adv-x="700" 
d="M198 700zM428 700l74 200h190l-163 -200h-101zM198 700l74 200h190l-163 -200h-101z" />
    <glyph glyph-name="circumflex" unicode="&#x2c6;" horiz-adv-x="700" 
d="M141 684zM191 684l-50 84l206 159h152l164 -159l-73 -83l-186 105z" />
    <glyph glyph-name="caron" unicode="&#x2c7;" horiz-adv-x="700" 
d="M154 704zM318 704l-164 159l73 83l186 -105l213 106l50 -84l-206 -159h-152z" />
    <glyph glyph-name="breve" unicode="&#x2d8;" horiz-adv-x="700" 
d="M142 693zM391 693q-135 0 -192 59t-41 181h160q-8 -68 12 -94.5t78 -26.5t86 26.5t38 94.5h160q-18 -122 -92 -181t-209 -59z" />
    <glyph glyph-name="tilde" unicode="&#x2dc;" horiz-adv-x="700" 
d="M143 710zM490 710q-49 0 -73 15t-38 32q-13 18 -25 32.5t-31 14.5q-16 0 -31 -14.5t-21 -60.5l-1 -9h-127l2 15q12 83 62 139t124 56q48 0 71.5 -15t38.5 -32q15 -18 26.5 -33t28.5 -15q16 0 31 14.5t21 60.5l1 9h127l-2 -15q-11 -82 -61 -138t-123 -56z" />
    <glyph glyph-name="macron" unicode="&#x2c9;" horiz-adv-x="700" 
d="M171 725zM171 725l21 150h450l-21 -150h-450z" />
    <glyph glyph-name="macron" unicode="&#xaf;" horiz-adv-x="700" 
d="M171 725zM171 725l21 150h450l-21 -150h-450z" />
    <glyph glyph-name="dieresis" unicode="&#xa8;" horiz-adv-x="700" 
d="M168 690zM261 690q-43 0 -68 17t-19 59l2 15q6 43 36 61t73 18q44 0 68.5 -18t18.5 -61l-2 -15q-6 -42 -36 -59t-73 -17zM521 690q-43 0 -68 17t-19 59l2 15q6 43 36 61t73 18q44 0 68.5 -18t18.5 -61l-2 -15q-6 -42 -36 -59t-73 -17z" />
    <glyph glyph-name="dotaccent" unicode="&#x2d9;" horiz-adv-x="700" 
d="M268 690zM391 690q-57 0 -90 17t-27 59l2 15q6 43 44 61t95 18t90 -18t27 -61l-2 -15q-6 -42 -44.5 -59t-94.5 -17z" />
    <glyph glyph-name="ring" unicode="&#x2da;" horiz-adv-x="700" 
d="M190 675zM389 675q-94 0 -146.5 38t-41.5 117l4 32q11 80 74.5 119t157.5 39q95 0 147 -39t41 -119l-4 -32q-11 -79 -74.5 -117t-157.5 -38zM402 766q35 0 55.5 14.5t25.5 49.5l4 32q5 34 -11 50.5t-51 16.5q-36 0 -56.5 -16.5t-25.5 -50.5l-4 -32q-5 -35 11 -49.5
t52 -14.5z" />
    <glyph glyph-name="cedilla" unicode="&#xb8;" horiz-adv-x="700" 
d="M21 0zM264 0l26 42q85 -8 135 -35.5t41 -94.5q-11 -75 -82.5 -106.5t-153.5 -31.5q-96 0 -152.5 31.5t-51.5 104.5l170 10q-1 -19 8.5 -26.5t33.5 -7.5q27 0 42 10.5t20 44.5q3 25 -4 38.5t-32 20.5z" />
    <glyph glyph-name="ogonek" unicode="&#x2db;" horiz-adv-x="700" 
d="M107 0zM279 -224q-84 0 -128 32t-35 96q9 66 66.5 111.5t119.5 61.5l19 -54q-37 -21 -47 -40t-12 -36q-4 -26 11.5 -38.5t55.5 -12.5q18 0 42.5 2.5t54.5 7.5l-17 -116q-36 -7 -69 -10.5t-61 -3.5z" />
    <glyph glyph-name="tonos" unicode="&#x384;" horiz-adv-x="700" 
d="M298 700zM298 700l74 200h240l-193 -200h-121z" />
    <glyph glyph-name="dieresistonos" unicode="&#x385;" horiz-adv-x="700" 
d="M83 690zM303 700l74 200h170l-133 -200h-111zM166 690q-39 0 -61 17t-16 59l2 15q6 43 33 61t66 18q40 0 61.5 -18t15.5 -61l-2 -15q-6 -42 -33.5 -59t-65.5 -17zM616 690q-39 0 -61 17t-16 59l2 15q6 43 33 61t66 18q40 0 61.5 -18t15.5 -61l-2 -15q-6 -42 -33.5 -59
t-65.5 -17z" />
    <glyph glyph-name="copyright" unicode="&#xa9;" horiz-adv-x="1300" 
d="M650 -110q-228 0 -339 95.5t-111 291.5v182q0 198 111.5 294.5t339.5 96.5q227 0 338 -96.5t111 -294.5v-182q0 -196 -111 -291.5t-339 -95.5zM650 -45q202 0 291 75t89 247v182q0 174 -89 250t-291 76t-291 -76t-89 -250v-182q0 -172 89 -247t291 -75zM651 91
q-132 0 -189.5 54.5t-57.5 158.5v135q0 102 57.5 156t188.5 54q128 0 190 -49.5t69 -153.5l-174 -6q-3 55 -20 73.5t-57 18.5q-38 0 -56 -22.5t-18 -73.5v-132q0 -51 18 -73.5t58 -22.5q39 0 55.5 16t19.5 67l174 -6q-7 -101 -68.5 -147.5t-189.5 -46.5z" />
    <glyph glyph-name="registered" unicode="&#xae;" horiz-adv-x="1000" 
d="M500 118q-177 0 -263.5 70t-86.5 213v173q0 145 86.5 215.5t264.5 70.5q176 0 262.5 -70.5t86.5 -215.5v-173q0 -143 -86.5 -213t-263.5 -70zM500 176q146 0 217.5 55.5t71.5 169.5v173q0 116 -71.5 172.5t-217.5 56.5t-217.5 -56.5t-71.5 -172.5v-173
q0 -114 71.5 -169.5t217.5 -55.5zM458 505h67q16 0 29.5 6t13.5 27v28q0 25 -13.5 33.5t-29.5 8.5h-67v-103zM458 304h-119v376h200q54 0 101.5 -25t47.5 -89v-28q0 -35 -19.5 -55t-47.5 -30l91 -149h-128l-88 138h-38v-138z" />
    <glyph glyph-name="trademark" unicode="&#x2122;" horiz-adv-x="1500" 
d="M342 331v368h-172v101h472v-101h-161v-368h-139zM862 617v-286h-131v469h159l110 -267l110 267h160v-469h-131l-1 291l-88 -204h-102z" />
    <glyph glyph-name="degree" unicode="&#xb0;" horiz-adv-x="600" 
d="M300 316q-103 0 -166.5 44.5t-63.5 137.5v123q0 93 63.5 139t166.5 46q104 0 167 -46t63 -139v-123q0 -93 -63.5 -137.5t-166.5 -44.5zM300 443q37 0 56 17.5t19 57.5v83q0 40 -19 59t-56 19q-38 0 -56.5 -19t-18.5 -59v-83q0 -40 18.5 -57.5t56.5 -17.5z" />
    <glyph glyph-name="careof" unicode="&#x2105;" horiz-adv-x="1300" 
d="M254 0l612 800h180l-612 -800h-180zM390 541l168 -8q-6 -42 -27.5 -73t-55.5 -52q-34 -20 -79.5 -30t-99.5 -10q-55 0 -98 9.5t-71 28.5q-29 19 -42 48.5t-7 68.5l18 130q5 39 26.5 69t55.5 49q35 20 80.5 29.5t99.5 9.5q55 0 97.5 -8.5t71.5 -27.5t41.5 -49t6.5 -72
l-172 -18q2 16 -1 28t-11 20t-20.5 12t-28.5 4t-29.5 -3.5t-24.5 -9.5q-10 -7 -16 -17t-8 -24l-16 -114q-2 -14 1.5 -23.5t11.5 -16.5q8 -6 21 -9t29 -3t29.5 3.5t23.5 11.5q10 7 17 19t9 28zM942 -12q-55 0 -97.5 9.5t-70.5 28.5q-30 19 -42.5 48.5t-7.5 68.5l20 140
q5 39 26.5 69t55.5 49q35 20 80.5 29.5t99.5 9.5q55 0 97.5 -9.5t70.5 -29.5q29 -19 41.5 -49t7.5 -69l-20 -140q-5 -39 -26.5 -68.5t-54.5 -48.5q-35 -19 -80.5 -28.5t-99.5 -9.5zM959 104q16 0 29 3t23 9q10 7 16.5 16.5t8.5 23.5l16 114q2 14 -1.5 24t-11.5 17
q-8 6 -20.5 9.5t-28.5 3.5t-29.5 -3.5t-24.5 -9.5q-10 -7 -16.5 -17t-8.5 -24l-16 -114q-2 -14 1.5 -23.5t11.5 -16.5q8 -6 21.5 -9t29.5 -3z" />
    <glyph glyph-name="uni2117" unicode="&#x2117;" horiz-adv-x="1300" 
d="M650 -110q-228 0 -339 95.5t-111 291.5v182q0 198 111.5 294.5t339.5 96.5q227 0 338 -96.5t111 -294.5v-182q0 -196 -111 -291.5t-339 -95.5zM650 -44q202 0 291 75t89 246v182q0 173 -89 249t-291 76t-291 -76t-89 -249v-182q0 -171 89 -246t291 -75zM434 104v540h243
q97 0 174.5 -41.5t77.5 -148.5v-38q0 -105 -78 -141t-174 -36h-63v-135h-180zM614 354h63q31 0 51.5 11t20.5 51v38q0 44 -20.5 58.5t-51.5 14.5h-63v-173z" />
    <glyph glyph-name="estimated" unicode="&#x212e;" horiz-adv-x="1000" 
d="M495 -12q-180 0 -288.5 122.5t-108.5 291.5q0 171 107 292t294 121t291.5 -138t108.5 -327h-607v-210q38 -33 90.5 -52.5t112.5 -19.5q107 0 183 38.5t120 107.5l48 -60q-51 -79 -139.5 -122.5t-211.5 -43.5zM292 430h409v230q-38 31 -89 53t-115 22q-59 0 -112.5 -18.5
t-92.5 -53.5v-233z" />
    <glyph glyph-name="arrowupdn" unicode="&#x2195;" 
d="M560 -150h-20l-365 380v20h275v300h-275v20l365 380h20l365 -380v-20h-275v-300h275v-20z" />
    <glyph glyph-name="arrowupdnbse" unicode="&#x21a8;" 
d="M175 0zM182 -260l22 160h700l-22 -160h-700zM560 -150h-20l-365 380v20h275v300h-275v20l365 380h20l365 -380v-20h-275v-300h275v-20z" />
    <glyph glyph-name="logicalnotreversed" unicode="&#x2310;" horiz-adv-x="900" 
d="M44 0l60 430h700l-22 -160h-540l-38 -270h-160z" />
    <glyph glyph-name="lighthorzbxd" unicode="&#x2500;" 
d="M-20 350h1140v-100h-1140v100z" />
    <glyph glyph-name="heavyhorzbxd" unicode="&#x2501;" 
d="M-20 400h1140v-200h-1140v200z" />
    <glyph glyph-name="lightvertbxd" unicode="&#x2502;" 
d="M500 1050h100v-1500h-100v1500z" />
    <glyph glyph-name="heavyvertbxd" unicode="&#x2503;" 
d="M450 1050h200v-1500h-200v1500z" />
    <glyph glyph-name="lighttrpldashhorzbxd" unicode="&#x2504;" 
d="M61 350h244v-100h-244v100zM427 350h244v-100h-244v100zM793 350h244v-100h-244v100z" />
    <glyph glyph-name="heavytrpldashhorzbxd" unicode="&#x2505;" 
d="M61 400h244v-200h-244v200zM427 400h244v-200h-244v200zM793 400h244v-200h-244v200z" />
    <glyph glyph-name="lighttrpldashvertbxd" unicode="&#x2506;" 
d="M500 55h100v-244h-100v244zM500 421h100v-244h-100v244zM500 787h100v-244h-100v244zM500 1153h100v-244h-100v244z" />
    <glyph glyph-name="heavytrpldashvertbxd" unicode="&#x2507;" 
d="M450 55h200v-244h-200v244zM450 421h200v-244h-200v244zM450 787h200v-244h-200v244zM450 1153h200v-244h-200v244z" />
    <glyph glyph-name="lightquaddashhorzbxd" unicode="&#x2508;" 
d="M34 350h207v-100h-207v100zM309 350h207v-100h-207v100zM584 350h207v-100h-207v100zM859 350h207v-100h-207v100z" />
    <glyph glyph-name="heavyquaddashhorzbxd" unicode="&#x2509;" 
d="M34 400h207v-200h-207v200zM309 400h207v-200h-207v200zM584 400h207v-200h-207v200zM859 400h207v-200h-207v200z" />
    <glyph glyph-name="lightquaddashvertbxd" unicode="&#x250a;" 
d="M500 -9h100v-207h-100v207zM500 266h100v-207h-100v207zM500 541h100v-207h-100v207zM500 816h100v-207h-100v207z" />
    <glyph glyph-name="heavyquaddashvertbxd" unicode="&#x250b;" 
d="M450 -9h200v-207h-200v207zM450 266h200v-207h-200v207zM450 541h200v-207h-200v207zM450 816h200v-207h-200v207z" />
    <glyph glyph-name="lightdnrightbxd" unicode="&#x250c;" 
d="M500 350h620v-100h-520v-700h-100v800z" />
    <glyph glyph-name="dnlightrightheavybxd" unicode="&#x250d;" 
d="M500 400h620v-200h-520v-650h-100v850z" />
    <glyph glyph-name="dnheavyrightlightbxd" unicode="&#x250e;" 
d="M450 350h670v-100h-470v-700h-200v800z" />
    <glyph glyph-name="heavydnrightbxd" unicode="&#x250f;" 
d="M450 400h670v-200h-470v-650h-200v850z" />
    <glyph glyph-name="lightdnleftbxd" unicode="&#x2510;" 
d="M-20 350h620v-800h-100v700h-520v100z" />
    <glyph glyph-name="dnlightleftheavybxd" unicode="&#x2511;" 
d="M-20 400h620v-850h-100v650h-520v200z" />
    <glyph glyph-name="dnheavyleftlightbxd" unicode="&#x2512;" 
d="M-20 350h670v-800h-200v700h-470v100z" />
    <glyph glyph-name="heavydnleftbxd" unicode="&#x2513;" 
d="M-20 400h670v-850h-200v650h-470v200z" />
    <glyph glyph-name="lightuprightbxd" unicode="&#x2514;" 
d="M500 1050h100v-700h520v-100h-620v800z" />
    <glyph glyph-name="uplightrightheavybxd" unicode="&#x2515;" 
d="M500 1050h100v-650h520v-200h-620v850z" />
    <glyph glyph-name="upheavyrightlightbxd" unicode="&#x2516;" 
d="M450 1050h200v-700h470v-100h-670v800z" />
    <glyph glyph-name="heavyuprightbxd" unicode="&#x2517;" 
d="M450 1050h200v-650h470v-200h-670v850z" />
    <glyph glyph-name="lightupleftbxd" unicode="&#x2518;" 
d="M-20 350h520v700h100v-800h-620v100z" />
    <glyph glyph-name="uplightleftheavybxd" unicode="&#x2519;" 
d="M-20 400h520v650h100v-850h-620v200z" />
    <glyph glyph-name="upheavyleftlightbxd" unicode="&#x251a;" 
d="M-20 350h470v700h200v-800h-670v100z" />
    <glyph glyph-name="heavyupleftbxd" unicode="&#x251b;" 
d="M-20 400h470v650h200v-850h-670v200z" />
    <glyph glyph-name="lightvertrightbxd" unicode="&#x251c;" 
d="M500 1050h100v-700h520v-100h-520v-700h-100v1500z" />
    <glyph glyph-name="vertlightrightheavybxd" unicode="&#x251d;" 
d="M500 1050h100v-650h520v-200h-520v-650h-100v1500z" />
    <glyph glyph-name="upheavyrightdnlightbxd" unicode="&#x251e;" 
d="M450 1050h200v-700h470v-100h-520v-700h-100v700h-50v800z" />
    <glyph glyph-name="dnheavyrightuplightbxd" unicode="&#x251f;" 
d="M450 350h50v700h100v-700h520v-100h-470v-700h-200v800z" />
    <glyph glyph-name="vertheavyrightlightbxd" unicode="&#x2520;" 
d="M450 1050h200v-700h470v-100h-470v-700h-200v1500z" />
    <glyph glyph-name="dnlightrightupheavybxd" unicode="&#x2521;" 
d="M450 1050h200v-650h470v-200h-520v-650h-100v650h-50v850z" />
    <glyph glyph-name="uplightrightdnheavybxd" unicode="&#x2522;" 
d="M450 400h50v650h100v-650h520v-200h-470v-650h-200v850z" />
    <glyph glyph-name="heavyvertrightbxd" unicode="&#x2523;" 
d="M450 1050h200v-650h470v-200h-470v-650h-200v1500z" />
    <glyph glyph-name="lightvertleftbxd" unicode="&#x2524;" 
d="M-20 350h520v700h100v-1500h-100v700h-520v100z" />
    <glyph glyph-name="vertlightleftheavybxd" unicode="&#x2525;" 
d="M-20 400h520v650h100v-1500h-100v650h-520v200z" />
    <glyph glyph-name="upheavyleftdnlightbxd" unicode="&#x2526;" 
d="M-20 350h470v700h200v-800h-50v-700h-100v700h-520v100z" />
    <glyph glyph-name="dnheavyleftuplightbxd" unicode="&#x2527;" 
d="M-20 350h520v700h100v-700h50v-800h-200v700h-470v100z" />
    <glyph glyph-name="vertheavyleftlightbxd" unicode="&#x2528;" 
d="M-20 350h470v700h200v-1500h-200v700h-470v100z" />
    <glyph glyph-name="dnlightleftupheavybxd" unicode="&#x2529;" 
d="M-20 400h470v650h200v-850h-50v-650h-100v650h-520v200z" />
    <glyph glyph-name="uplightleftdnheavybxd" unicode="&#x252a;" 
d="M-20 400h520v650h100v-650h50v-850h-200v650h-470v200z" />
    <glyph glyph-name="heavyvertleftbxd" unicode="&#x252b;" 
d="M-20 400h470v650h200v-1500h-200v650h-470v200z" />
    <glyph glyph-name="lightdnhorzbxd" unicode="&#x252c;" 
d="M-20 350h1140v-100h-520v-700h-100v700h-520v100z" />
    <glyph glyph-name="leftheavyrightdnlightbxd" unicode="&#x252d;" 
d="M-20 400h620v-50h520v-100h-520v-700h-100v650h-520v200z" />
    <glyph glyph-name="rightheavyleftdnlightbxd" unicode="&#x252e;" 
d="M-20 350h520v50h620v-200h-520v-650h-100v700h-520v100z" />
    <glyph glyph-name="dnlighthorzheavybxd" unicode="&#x252f;" 
d="M-20 400h1140v-200h-520v-650h-100v650h-520v200z" />
    <glyph glyph-name="dnheavyhorzlightbxd" unicode="&#x2530;" 
d="M-20 350h1140v-100h-470v-700h-200v700h-470v100z" />
    <glyph glyph-name="rightlightleftdnheavybxd" unicode="&#x2531;" 
d="M-20 400h670v-50h470v-100h-470v-700h-200v650h-470v200z" />
    <glyph glyph-name="leftlightrightdnheavybxd" unicode="&#x2532;" 
d="M-20 350h470v50h670v-200h-470v-650h-200v700h-470v100z" />
    <glyph glyph-name="heavydnhorzbxd" unicode="&#x2533;" 
d="M-20 400h1140v-200h-470v-650h-200v650h-470v200z" />
    <glyph glyph-name="lightuphorzbxd" unicode="&#x2534;" 
d="M-20 350h520v700h100v-700h520v-100h-1140v100z" />
    <glyph glyph-name="leftheavyrightuplightbxd" unicode="&#x2535;" 
d="M-20 400h520v650h100v-700h520v-100h-520v-50h-620v200z" />
    <glyph glyph-name="rightheavyleftuplightbxd" unicode="&#x2536;" 
d="M-20 350h520v700h100v-650h520v-200h-620v50h-520v100z" />
    <glyph glyph-name="uplighthorzheavybxd" unicode="&#x2537;" 
d="M-20 400h520v650h100v-650h520v-200h-1140v200z" />
    <glyph glyph-name="upheavyhorzlightbxd" unicode="&#x2538;" 
d="M-20 350h470v700h200v-700h470v-100h-1140v100z" />
    <glyph glyph-name="rightlightleftupheavybxd" unicode="&#x2539;" 
d="M-20 400h470v650h200v-700h470v-100h-470v-50h-670v200z" />
    <glyph glyph-name="leftlightrightupheavybxd" unicode="&#x253a;" 
d="M-20 350h470v700h200v-650h470v-200h-670v50h-470v100z" />
    <glyph glyph-name="heavyuphorzbxd" unicode="&#x253b;" 
d="M-20 400h470v650h200v-650h470v-200h-1140v200z" />
    <glyph glyph-name="lightverthorzbxd" unicode="&#x253c;" 
d="M-20 350h520v700h100v-700h520v-100h-520v-700h-100v700h-520v100z" />
    <glyph glyph-name="leftheavyrightvertlightbxd" unicode="&#x253d;" 
d="M-20 400h520v650h100v-700h520v-100h-520v-700h-100v650h-520v200z" />
    <glyph glyph-name="rightheavyleftvertlightbxd" unicode="&#x253e;" 
d="M-20 350h520v700h100v-650h520v-200h-520v-650h-100v700h-520v100z" />
    <glyph glyph-name="vertlighthorzheavybxd" unicode="&#x253f;" 
d="M-20 400h520v650h100v-650h520v-200h-520v-650h-100v650h-520v200z" />
    <glyph glyph-name="upheavydnhorzlightbxd" unicode="&#x2540;" 
d="M-20 350h470v700h200v-700h470v-100h-520v-700h-100v700h-520v100z" />
    <glyph glyph-name="dnheavyuphorzlightbxd" unicode="&#x2541;" 
d="M-20 350h520v700h100v-700h520v-100h-470v-700h-200v700h-470v100z" />
    </font>
</defs>
</svg>
