<?xml version="1.0" standalone="no"?>
<!DOCTYPE svg PUBLIC "-//W3C//DTD SVG 1.1//EN" "http://www.w3.org/Graphics/SVG/1.1/DTD/svg11.dtd" >
<svg xmlns="http://www.w3.org/2000/svg" xmlns:xlink="http://www.w3.org/1999/xlink" version="1.1">
<metadata>
Created by FontForge 20190801 at Wed Dec 11 04:15:36 2024
 By root
March Personal Use Only \(c\) Din Studio  2020. All Rights Reserved
</metadata>
<defs>
<font id="MarchPersonalUseOnly-Regular" horiz-adv-x="281" >
  <font-face 
    font-family="March Personal Use Only"
    font-weight="400"
    font-stretch="normal"
    units-per-em="1000"
    panose-1="2 0 5 0 0 0 0 0 0 0"
    ascent="800"
    descent="-200"
    x-height="447"
    cap-height="587"
    bbox="-121.254 -252 2814 774"
    underline-thickness="50"
    underline-position="-100"
    stemh="28"
    stemv="36"
    unicode-range="U+001D-E156"
  />
<missing-glyph horiz-adv-x="500" 
 />
    <glyph glyph-name=".notdef" horiz-adv-x="500" 
 />
    <glyph glyph-name="uni0000" horiz-adv-x="0" 
 />
    <glyph glyph-name="uni0000" horiz-adv-x="0" 
 />
    <glyph glyph-name="nonmarkingreturn" horiz-adv-x="508" 
 />
    <glyph glyph-name="space" unicode=" " horiz-adv-x="400" 
 />
    <glyph glyph-name="space" unicode="&#xa0;" horiz-adv-x="400" 
 />
    <glyph glyph-name="exclam" unicode="!" horiz-adv-x="279" 
d="M253 585c0 0 -31 -17 -48 -93l-47 -342h-69l-41 347c-16 70 -48 88 -48 88h253zM124 116c-32 0 -58 -26 -58 -58s26 -58 58 -58s58 26 58 58s-26 58 -58 58z" />
    <glyph glyph-name="quotedbl" unicode="&#x22;" horiz-adv-x="198" 
d="M0 586c36 -19 80 16 80 16l-47 -148h-33v132zM105 586c36 -19 80 16 80 16l-47 -148h-33v132z" />
    <glyph glyph-name="numbersign" unicode="#" horiz-adv-x="1112" 
d="M57 91h103l-84 -106h-19v106zM92 304h-29v-20h26v-6h-26v-29h-6v60h35v-5zM138 270c0 -13 -16 -21 -24 -21c-10 0 -19 10 -19 21c0 16 9 24 22 24c11 0 21 -10 21 -24zM57 134v25h184v-25h-184zM214 91h108l-81 -106h-113zM156 249h-13v45h11v-10c2 9 6 10 10 10h4v-8h-6
c-2 0 -6 -2 -6 -8v-29zM189 279c0 19 14 32 30 32c8 0 14 -2 15 -3v-4h-13c-14 0 -25 -10 -25 -25c0 -14 11 -22 23 -22c8 0 10 0 15 2v-8c-1 0 -7 -2 -15 -2c-16 0 -30 10 -30 30zM260 249c-10 0 -19 10 -19 21c0 16 9 24 20 24c12 0 23 -10 23 -24c0 -13 -11 -21 -24 -21z
M316 123h-18v8c0 -8 -11 -13 -14 -13c-11 0 -23 9 -23 23c0 24 17 44 37 44h10l4 23h21l-16 -61c-2 -10 -1 -16 -1 -24zM360 185l-12 -62h-21l16 62h17zM364 199c0 -6 -5 -11 -9 -11c-7 0 -11 5 -11 11c0 3 5 9 11 9c5 0 9 -2 9 -9zM378 91h110l-84 -106h-109zM544 91h112
l-87 -106h-113zM706 91h114l-84 -106h-114zM872 91h112l-84 -106h-109zM955 -15l82 106h21v-106h-103zM355 249h-11v24c0 11 -1 13 -8 13c-3 0 -11 -2 -11 -7v-30h-8v29c0 6 -1 8 -9 8c-5 0 -10 -2 -10 -7v-30h-10v45h10v-7c0 6 5 7 12 7s12 -1 12 -10c3 2 1 5 5 9
c5 4 6 1 11 1c6 0 17 -1 17 -21v-24zM402 123l2 33s5 3 5 6c0 4 -5 5 -7 5c-7 0 -12 -5 -17 -20l-7 -24h-18l11 39c0 5 1 15 3 23h16v-11c5 6 12 11 19 11c11 0 16 -8 16 -18v-11l-5 -33h-18zM425 273v-24h-5v24c0 11 -5 13 -11 13c-5 0 -7 -2 -7 -7v-30h-11v29
c0 6 -1 8 -9 8c-5 0 -10 -2 -10 -7v-30h-8v45h7v-8c3 7 7 8 14 8c6 0 10 -1 11 -10c2 2 5 4 6 9c1 2 7 1 10 1s13 -1 13 -21zM435 147v12h35l-5 -12h-30zM472 273v-3h-31c0 -11 9 -17 15 -17c8 0 9 4 14 6v-8c-3 0 -6 -2 -14 -2c-10 0 -21 10 -21 21c0 14 6 24 19 24
c16 0 18 -10 18 -21zM481 294h7v-10c3 9 5 10 12 10h2v-8h-2c-7 0 -9 -2 -12 -8v-29h-7v45zM502 167c-3 0 -5 0 -5 -1c0 -4 2 -6 5 -7c7 -3 14 -9 14 -18c0 -14 -12 -23 -28 -23c-8 0 -15 5 -18 6l3 13c4 -3 15 -6 18 -6c6 0 8 3 8 6c0 4 -2 4 -8 10c-7 5 -14 9 -14 15
c0 12 11 23 25 23c7 0 14 0 18 -5l-4 -13h-14zM541 251c-2 0 -9 -2 -11 -2c-17 0 -24 10 -24 21c0 14 10 24 24 24c2 0 9 0 11 -1l-2 -7h-9c-10 0 -17 -7 -17 -16c0 -10 7 -13 17 -13c2 0 6 0 9 2zM554 167l-4 -20s-5 -6 -5 -7c0 -3 5 -6 9 -6h5l-3 -11c-2 -5 -6 -5 -12 -5
c-12 0 -14 6 -14 13c0 6 1 8 1 10l5 26h-6v18h9l2 9l18 5l-3 -14h13l-4 -18h-11zM550 249v45h6v-45h-6zM554 309c2 0 5 -1 5 -5c0 0 -3 -4 -5 -4c-4 0 -4 4 -4 4c0 4 0 5 4 5zM577 249c-7 0 -9 4 -9 11c0 10 6 19 24 18v1c0 5 0 7 -11 7c-4 0 -8 0 -11 -2l-1 9c4 1 8 1 13 1
c15 0 18 -10 18 -16v-29h-7v8c-1 -6 -10 -8 -16 -8zM622 123h-15l2 8h-2c-4 -8 -14 -13 -24 -13c-9 0 -13 6 -13 19c0 3 -1 4 0 10l7 38h20l-5 -35c-1 -3 -2 -9 -2 -9c0 -4 2 -7 7 -7c6 0 12 7 12 22l6 29h18l-7 -44c-2 -10 -4 -14 -4 -18zM612 249v62h7v-62h-7zM633 259
l5 1c0 -9 -5 -16 -5 -20h-7c4 6 5 11 7 19zM693 123h-16v8c-5 -8 -12 -13 -20 -13c-12 0 -19 9 -19 23c0 24 16 44 39 44h10l3 23h16l-13 -61c-2 -10 0 -16 0 -24zM669 249v60c3 0 8 2 15 2c6 0 11 -3 17 -7c2 -2 4 -6 4 -10c0 -8 0 -9 -4 -15c-5 -6 -11 -6 -17 -6h-7v-24
h-8zM714 249v62h10v-62h-10zM736 185l-12 -62h-19l14 62h17zM739 199c0 -6 -3 -11 -10 -11c-5 0 -9 5 -9 11c0 3 5 9 9 9c7 0 10 -2 10 -9zM768 251c-3 0 -9 -2 -14 -2c-15 0 -25 10 -25 21c0 14 10 24 25 24c11 0 14 -10 14 -21v-3h-29c0 -11 9 -17 15 -17c5 0 9 4 11 6z
M768 118c-18 0 -29 13 -29 29c0 19 18 38 38 38c15 0 26 -11 26 -26c0 -22 -16 -41 -35 -41zM809 249h-6v8c-4 -6 -6 -8 -12 -8c-8 0 -14 4 -14 11c0 10 10 19 26 18v1c0 5 -4 7 -12 7c-4 0 -7 0 -8 -2l-6 9c7 1 10 1 15 1c14 0 17 -10 17 -16v-29zM816 118
c-5 0 -10 5 -10 13c0 6 5 10 14 10c3 0 7 -4 7 -10c0 -7 -4 -13 -11 -13zM849 260c0 -7 -11 -11 -18 -11c-6 0 -9 0 -11 2v8c3 -2 5 -6 11 -6c5 0 6 6 6 7c0 5 -1 6 -6 8c-8 1 -11 10 -11 16c0 2 3 10 13 10c4 0 5 0 12 -1l-2 -7h-10c-6 0 -8 0 -8 -2c0 -5 0 -6 8 -11
s16 -8 16 -13zM878 167c-11 0 -18 -8 -18 -20c0 -10 4 -13 11 -13c6 0 7 0 12 3v-14c-5 0 -11 -5 -17 -5c-15 0 -28 13 -28 29c0 19 20 38 40 38c8 0 12 0 13 -5l-1 -13h-12zM890 273v-3h-26c0 -11 3 -17 10 -17c9 0 9 4 12 6l4 -8c-4 0 -7 -2 -16 -2c-10 0 -20 10 -20 21
c0 14 10 24 18 24c14 0 18 -10 18 -21zM921 118c-19 0 -30 13 -30 29c0 19 16 38 38 38c16 0 26 -11 26 -26c0 -22 -14 -41 -34 -41zM951 309h7l-20 -60h-9l-17 60h7l10 -30c3 -6 5 -14 5 -20c1 6 4 11 7 20zM962 249v45h10v-45h-10zM967 309c0 0 5 -1 5 -5l-5 -4
c-2 0 -5 4 -5 4c0 4 3 5 5 5zM996 253c3 0 3 6 3 7c0 5 1 6 -3 8c-10 2 -12 10 -12 16c0 2 5 10 12 10c3 0 9 0 13 -1l-4 -7h-9c-4 0 -7 0 -7 -2c0 -5 4 -6 10 -11c6 -4 10 -8 10 -13c0 -7 -4 -11 -17 -11c-3 0 -8 0 -12 2l4 8c2 -2 5 -6 12 -6zM1030 123l7 33v6
c0 4 -2 5 -4 5c-7 0 -14 -5 -16 -17l-3 -27h-18l9 33v6c0 4 -4 5 -6 5c-7 0 -12 -5 -15 -17l-6 -27h-20l9 39c0 5 0 15 5 23h17l-3 -11c6 6 13 11 23 11c8 0 11 -8 11 -11c6 6 13 11 22 11s14 -8 14 -18v-11l-6 -33h-20zM1026 294v-45h-9v45h9zM1020 309c4 0 6 -1 6 -5
c0 0 -2 -4 -6 -4l-3 4c0 4 3 5 3 5zM1060 286h-10v-21c0 -6 0 -8 6 -8h2l2 -8h-9c-1 0 -4 0 -6 2c-3 2 -4 8 -4 14v21h-8v8h8v10h9v-10h10v-8zM74 594l-5 -26h-18l12 65c9 6 18 6 21 6c8 0 14 -1 20 -6c5 -2 5 -6 5 -12c0 -14 -14 -29 -28 -29c-5 0 -5 0 -7 2zM120 342
c-44 4 -69 26 -69 56c1 29 12 37 25 37c17 0 22 -20 13 -33c0 10 -7 15 -14 15s-15 -6 -15 -21c0 -25 25 -40 60 -40c51 0 56 45 56 80c0 27 0 78 -33 78c0 0 -5 -2 -5 -15v-101c0 -15 9 -15 9 -15v-3h-52v3s9 0 9 13v106c0 10 0 18 -12 18c-8 0 -11 -6 -11 -8
c0 -10 11 -8 11 -8c0 -11 -11 -15 -16 -15c-16 0 -19 13 -19 15c0 16 24 22 35 22c20 0 27 -6 51 -6c37 0 71 -21 71 -84c0 -43 -30 -94 -94 -94zM164 627h-26l-4 -15h28l-2 -14h-29v-17h29l-4 -13h-44l10 71h46zM183 598l-3 -30h-16l12 65c7 6 15 6 20 6c7 0 18 -3 22 -6
c4 -2 9 -6 9 -12c0 -9 -8 -16 -17 -19c4 0 3 -8 4 -13c3 -10 4 -18 5 -21h-16c0 3 -5 10 -5 17s-2 13 -7 13h-8zM250 517c10 0 19 -8 19 -18c0 -6 -9 -12 -19 -12c-8 0 -16 6 -16 12c0 10 8 18 16 18zM278 383v-3h-51v3s6 0 7 13v56c-1 13 -7 13 -7 13v6l42 7v-80
c0 -15 9 -15 9 -15zM246 579c6 0 10 2 10 10c0 3 -1 5 -6 9c-9 4 -16 11 -16 18c0 15 10 26 27 26c12 0 14 -3 17 -9l-5 -10c0 4 -6 4 -13 4c-5 0 -10 -4 -10 -6c0 -5 4 -9 10 -12c10 -4 13 -7 13 -17c0 -16 -13 -24 -29 -24c-10 0 -15 0 -17 3l2 14c5 -4 12 -6 17 -6z
M322 642c16 0 27 -15 27 -30c0 -14 -5 -27 -11 -34c-5 -7 -16 -10 -28 -10c-17 0 -26 11 -26 30c0 11 3 23 14 33c5 3 12 11 24 11zM333 465c5 7 15 13 27 13c17 0 30 -7 30 -32v-48c0 -12 6 -15 12 -15v-3h-58v3s11 0 11 13v54c0 8 -5 12 -10 12c-6 0 -12 -6 -12 -16v-48
c0 -15 10 -15 10 -15v-3h-55v3s10 0 10 13v56c0 13 -10 13 -10 13v6l45 7v-13zM371 592l-4 -24h-12l9 71h21l6 -27c2 -10 7 -18 11 -23c0 5 0 13 2 27l5 23h12l-12 -71h-18l-6 30c-2 7 -7 18 -8 23c-3 -5 -4 -16 -6 -29zM441 585l-6 -17h-15l31 71h19l10 -71h-15l-1 17h-23z
M500 639h16l-12 -58h27l-1 -13h-42zM493 483c0 0 -2 37 51 37c19 0 26 -7 33 -7c3 0 6 1 10 4c2 2 5 0 6 0v-35h-3s-8 30 -46 30c-24 0 -35 -28 -14 -36c20 -8 79 -13 79 -61c-2 -20 -19 -35 -59 -35c-25 0 -36 4 -42 4c-3 0 -5 -1 -6 -4h-3v37h3c0 -19 28 -26 48 -26
c37 0 37 36 9 44c-27 8 -66 11 -66 48zM583 639l-6 -41s-3 -6 -3 -9c0 -4 3 -10 13 -10s15 6 16 19l6 41h17l-8 -41c-4 -20 -14 -30 -36 -30c-12 0 -20 8 -20 21c0 3 -1 9 0 13l8 37h13zM669 476c0 0 -10 0 -10 -13v-67c0 -13 10 -13 10 -13v-3h-15c-13 0 -32 0 -32 26v53
c0 17 -7 17 -7 17v2c23 0 28 11 44 11v-11h10v-2zM643 579c7 0 13 2 13 10c0 3 -2 4 -11 9c-5 3 -14 11 -14 18c0 15 12 26 28 26c10 0 13 -3 18 -9l-5 -10c-3 4 -7 4 -13 4c-9 0 -14 -4 -14 -6c0 -5 7 -8 12 -12c7 -4 15 -7 15 -17c0 -16 -13 -24 -29 -24
c-10 0 -17 0 -21 3l4 14c7 -4 12 -6 17 -6zM729 627h-28v-15h24l-1 -14h-26l-3 -17h29l-3 -13h-42l14 71h36v-12zM677 476v2h51v-2s-8 0 -8 -17v-49c0 -11 5 -15 10 -15c7 0 14 7 14 15v48c0 18 -8 18 -8 18v2h51v-2s-10 0 -10 -17v-63c0 -13 10 -13 10 -13v-3h-24
c-13 0 -19 8 -19 15c-5 -7 -15 -15 -25 -15c-18 0 -32 8 -32 30v48c0 14 -8 18 -10 18zM851 621c-2 -5 -4 -16 -8 -29l-6 -24h-14l14 71h21l8 -27c3 -10 5 -18 5 -23h1c0 5 -1 13 2 27l4 23h15l-10 -71h-17l-12 30c-3 7 -3 18 -3 23zM934 357c0 -8 -5 -15 -22 -15
c-11 0 -46 5 -54 41c-4 -3 -7 -3 -20 -3c-22 0 -43 21 -43 48s21 50 43 50c11 0 16 -1 20 -1v43l43 -8v-5s-10 0 -10 -11v-103c0 -31 10 -41 23 -41c-2 0 -2 4 -2 5c0 5 4 11 12 11c5 0 10 -6 10 -11zM907 639h17l-12 -58h26v-13h-45zM958 383v-3h-51v3s8 0 9 13v56
c-1 13 -9 13 -9 13v6l44 7v-80c0 -15 7 -15 7 -15zM919 499c0 10 6 18 16 18c7 0 16 -8 16 -18c0 -6 -9 -12 -16 -12c-10 0 -16 6 -16 12zM967 598l-5 -30h-13l6 30l-14 41h15l6 -18c1 -5 0 -9 0 -12c3 3 3 3 10 12l12 18h15zM1058 428c0 -27 -23 -48 -49 -48
c-25 0 -47 21 -47 48s22 50 47 50c26 0 49 -23 49 -50zM160 774l-84 -105h-19v105h103zM241 669h-113l86 105h108zM404 669h-109l83 105h110zM569 669h-113l88 105h112zM736 669h-114l84 105h114zM809 578c-6 -7 -17 -10 -25 -10c-19 0 -30 11 -30 30c0 11 4 25 14 33
c6 4 16 11 24 11c19 0 30 -15 30 -30c0 -14 -6 -27 -13 -34zM900 669h-109l81 105h112zM1058 669h-103l82 105h21v-105zM1014 576c0 5 3 9 10 9c3 0 6 -4 6 -7c0 -7 -4 -10 -10 -10c-3 0 -6 3 -6 8zM1042 639l-12 -47h-10l6 47h16zM100 270c0 -10 8 -17 14 -17
c8 0 14 7 14 17c0 9 -6 16 -14 16c-6 0 -14 -7 -14 -16zM261 286c-9 0 -15 -7 -15 -16c0 -10 9 -17 15 -17c9 0 12 7 12 17c0 9 0 16 -12 16zM288 134c7 0 10 6 15 19l3 14h-8c-10 0 -16 -8 -16 -20c0 -10 2 -13 6 -13zM441 278h24c0 1 0 8 -11 8c-8 0 -8 -7 -13 -8z
M593 270c-11 0 -20 0 -20 -10c0 -3 4 -7 8 -7c6 0 11 6 11 7l1 5v5zM665 134c7 0 12 6 14 19l3 14h-8c-9 0 -17 -8 -17 -20c0 -10 2 -13 8 -13zM677 304v-25h7c9 0 14 5 14 15c0 6 -5 10 -14 10h-7zM750 286c-6 0 -11 -7 -11 -8h24c0 1 -4 8 -13 8zM772 167
c-7 0 -15 -11 -15 -20c0 -10 6 -16 11 -16c9 0 19 16 19 28c0 6 -3 8 -15 8zM803 265v5c-11 0 -19 0 -19 -10c0 -3 3 -7 7 -7c6 0 4 5 8 7c4 3 4 5 4 5zM864 278h19c0 1 0 8 -11 8c-6 0 -8 -7 -8 -8zM929 167c-13 0 -17 -11 -17 -20c0 -10 3 -16 12 -16c8 0 14 16 14 28
c0 6 -3 8 -9 8zM81 627l-5 -22h5c11 0 17 7 17 15c0 7 -6 7 -13 7h-4zM191 627l-7 -19h10c9 0 16 8 16 13c0 2 -7 6 -14 6h-5zM325 585c8 4 8 17 8 27c0 9 0 15 -16 15c-12 0 -19 -19 -19 -29c0 -12 5 -19 14 -19c5 0 7 2 13 6zM451 616l-5 -18h18l-3 18s0 5 -5 11
c0 -6 -4 -7 -5 -11zM768 598c0 -12 4 -19 19 -19c14 0 19 22 19 33c0 9 -3 15 -15 15c-4 0 -7 0 -14 -6c-5 -5 -9 -16 -9 -23zM838 387c16 0 20 19 20 41c0 24 -4 44 -20 44c-11 0 -13 -20 -13 -44c0 -22 2 -41 13 -41zM1009 387c11 0 15 19 15 41c0 24 -4 44 -15 44
c-13 0 -13 -20 -13 -44c0 -22 0 -41 13 -41z" />
    <glyph glyph-name="dollar" unicode="$" horiz-adv-x="2881" 
d="M1200 95v180c-62 -2 -146 -5 -146 -123c0 -85 27 -124 92 -124c12 0 54 9 54 67zM122 573l2 14h219l5 -14c-9 -2 -40 -18 -22 -71l130 -358l141 359c16 40 -1 71 -26 71v13h253l2 -14s-46 -9 -40 -73l42 -413c7 -65 56 -72 56 -72l1 -15h-252l-2 15s48 8 41 77l-37 344
l-170 -436h-91l-160 423l-33 -335c-6 -69 40 -73 40 -73l-1 -15h-153l1 15s48 7 54 72l42 413c6 64 -42 73 -42 73zM1200 300c0 82 -28 109 -57 109c-39 0 -81 -50 -59 -82l-125 36c55 69 102 85 188 85c59 0 213 -14 211 -164c-2 -114 0 -192 0 -192c0 -71 47 -78 47 -78
v-14h-136c-35 0 -48 13 -51 23c-18 -17 -56 -23 -93 -23c-191 0 -230 69 -230 150c0 147 174 150 305 150zM1640 454v-40c37 27 80 39 118 39c57 0 106 -27 120 -79l-109 -34c-14 39 -36 64 -71 64c-16 0 -36 -5 -58 -17v-300c0 -66 47 -73 47 -73v-14h-253v14s49 4 49 75
v249c0 71 -48 78 -48 78v15zM2233 105l28 -47c-12 -17 -51 -58 -129 -58c-156 0 -264 66 -264 221c0 130 108 230 256 230c69 0 128 -30 162 -66c-8 -35 -44 -53 -87 -53c-8 0 -17 0 -26 2c24 21 20 96 -49 96c-71 0 -97 -98 -97 -206c0 -109 37 -196 105 -196s91 53 101 77
zM2493 384v-297c0 -66 48 -73 48 -73v-14h-254l1 14s47 4 47 74v384c0 71 -47 78 -47 78v15l205 22v-177c44 32 88 46 128 46c82 0 146 -57 146 -120v-248c0 -70 47 -74 47 -74v-14h-252v14s48 7 48 73v211c0 61 -19 102 -62 102c-16 0 -34 -5 -55 -16z" />
    <glyph glyph-name="percent" unicode="%" horiz-adv-x="671" 
d="M541 574l5 11h-174l-5 -11s47 -2 21 -59l-205 -444c-26 -56 -76 -59 -76 -59l-5 -12h174l5 12s-46 5 -21 58l206 445c23 52 75 59 75 59zM137 583c75 0 136 -76 136 -170c0 -93 -61 -169 -136 -169c-76 0 -137 76 -137 169c0 94 61 170 137 170zM137 566
c-35 0 -42 -67 -42 -150s7 -151 42 -151c34 0 45 68 45 151s-11 150 -45 150zM507 339c76 0 137 -76 137 -170c0 -93 -61 -169 -137 -169c-75 0 -136 76 -136 169c0 94 61 170 136 170zM507 322c-34 0 -41 -67 -41 -150s7 -151 41 -151c35 0 46 68 46 151s-11 150 -46 150z
" />
    <glyph glyph-name="ampersand" unicode="&#x26;" horiz-adv-x="556" 
d="M225 294c-47 -11 -82 -55 -82 -134c0 -91 75 -135 138 -135c84 0 134 60 134 127c0 74 -79 122 -152 66c0 69 48 107 119 107c89 0 146 -69 146 -152c0 -58 -35 -190 -247 -190c-138 0 -281 57 -281 174c0 76 72 159 147 159c-60 23 -101 67 -101 119
c0 79 92 149 206 149c88 0 159 -41 157 -108c-1 -88 -129 -121 -161 -39c42 2 61 24 61 63c0 38 -19 57 -57 57c-52 0 -68 -49 -68 -120c0 -39 22 -76 54 -76c15 0 35 14 34 27c27 -12 36 -74 -47 -94z" />
    <glyph glyph-name="quotesingle" unicode="'" horiz-adv-x="95" 
d="M0 586c36 -19 80 16 80 16l-47 -148h-33v132z" />
    <glyph glyph-name="parenleft" unicode="(" horiz-adv-x="284" 
d="M249 37v-36h-2c-137 0 -247 132 -247 294s110 294 247 294h2v-28h-2c-62 0 -113 -118 -113 -262s51 -262 113 -262h2z" />
    <glyph glyph-name="parenright" unicode=")" 
d="M0 1v36h1c63 0 113 118 113 262s-50 262 -113 262h-1v28h1c137 0 248 -132 248 -294s-111 -294 -248 -294h-1z" />
    <glyph glyph-name="asterisk" unicode="*" horiz-adv-x="154" 
d="M58 556c-1 15 -3 30 -6 44l37 6c-3 -17 -5 -33 -6 -49c11 9 21 19 31 30l27 -26c-18 -9 -34 -19 -50 -29c15 -11 32 -20 50 -28l-27 -27c-10 10 -20 19 -30 28c1 -14 2 -27 5 -41l-37 -6c3 17 5 33 6 48c-11 -9 -22 -19 -32 -29l-26 27c17 8 34 17 49 28
c-15 10 -32 20 -49 29l26 26c10 -11 20 -21 32 -31z" />
    <glyph glyph-name="plus" unicode="+" horiz-adv-x="329" 
d="M111 448h81c-9 -42 -14 -84 -15 -126c42 1 84 7 126 15v-82c-42 7 -84 12 -126 13c2 -41 7 -82 15 -124h-81c6 42 11 83 12 124c-41 -1 -82 -5 -123 -13v82c41 -9 82 -14 124 -15c-1 42 -6 84 -13 126z" />
    <glyph glyph-name="comma" unicode="," horiz-adv-x="69" 
d="M12 4c-12 9 -16 25 -9 38c8 14 26 19 40 11s19 -26 11 -39l-28 -48c-21 9 -6 25 -14 38z" />
    <glyph glyph-name="hyphen" unicode="-" horiz-adv-x="330" 
d="M304 337v-82c-103 17 -204 19 -304 0v82c100 -22 201 -20 304 0z" />
    <glyph glyph-name="hyphen" unicode="&#xad;" horiz-adv-x="330" 
d="M304 337v-82c-103 17 -204 19 -304 0v82c100 -22 201 -20 304 0z" />
    <glyph glyph-name="period" unicode="." horiz-adv-x="73" 
d="M29 58c16 0 29 -13 29 -29s-13 -29 -29 -29s-29 13 -29 29s13 29 29 29z" />
    <glyph glyph-name="slash" unicode="/" horiz-adv-x="326" 
d="M308 586l-4 -12s-50 -7 -64 -58l-127 -445c-15 -53 32 -58 32 -58l-4 -12h-141l3 12s49 3 65 59l126 444c17 57 -31 58 -31 58l3 12h142z" />
    <glyph glyph-name="zero" unicode="0" horiz-adv-x="493" 
d="M238 588c131 0 237 -131 237 -294c0 -162 -106 -294 -237 -294s-238 132 -238 294c0 163 107 294 238 294zM238 560c-60 0 -73 -117 -73 -261c0 -145 13 -262 73 -262s79 117 79 262c0 144 -19 261 -79 261z" />
    <glyph glyph-name="one" unicode="1" horiz-adv-x="285" 
d="M0 499l194 88h10v-495c0 -71 49 -78 49 -78v-14h-253v14s48 7 48 73v345c0 51 -25 67 -48 67z" />
    <glyph glyph-name="two" unicode="2" horiz-adv-x="463" 
d="M437 164l-18 -164h-419v53c0 198 327 217 327 385c0 88 -38 123 -97 123c-99 0 -112 -130 -80 -157c-71 -13 -91 37 -152 65c37 8 43 117 231 117c94 0 212 -38 212 -182c0 -165 -270 -237 -270 -347c0 -12 12 -29 29 -29c50 0 45 0 45 0c110 0 180 143 180 143z" />
    <glyph glyph-name="three" unicode="3" horiz-adv-x="490" 
d="M178 281l39 45c80 0 101 71 101 133c0 75 -39 105 -90 105c-99 0 -113 -111 -86 -135c-60 -11 -78 32 -130 56c32 7 53 101 216 101c80 0 201 -33 201 -157c0 -48 -26 -93 -81 -120c61 -19 119 -59 119 -143c0 -122 -103 -170 -241 -166c-188 5 -219 98 -226 119
c30 58 76 82 146 69c-46 -48 -4 -146 81 -146c57 0 103 26 103 124c0 88 -82 115 -152 115z" />
    <glyph glyph-name="four" unicode="4" horiz-adv-x="452" 
d="M231 587h43h106v-437h45v-29h-45l1 -29c0 -71 48 -78 48 -78v-14h-253v14s48 7 48 73v34h-224v29s213 405 231 437zM224 150v307l-164 -307h164z" />
    <glyph glyph-name="five" unicode="5" horiz-adv-x="485" 
d="M16 573l1 13h415l-18 -164l-14 -3s-26 138 -153 138c-29 0 -53 -15 -58 -46c-1 -6 -11 -103 -11 -103c163 37 294 -57 282 -231c-9 -130 -113 -177 -242 -177c-163 0 -210 104 -218 127c32 62 80 87 155 73c-48 -50 -28 -149 62 -149c46 0 86 24 102 133
c20 135 -38 188 -144 188c-55 0 -101 -37 -120 -79h-15l19 207c5 66 -43 73 -43 73z" />
    <glyph glyph-name="six" unicode="6" horiz-adv-x="494" 
d="M234 587h70c-31 -41 -73 -89 -103 -151c10 2 21 3 32 3c129 0 234 -99 234 -220c0 -122 -105 -220 -234 -220c-128 0 -233 98 -233 220c0 9 1 18 2 27c13 142 232 340 232 341zM233 418c-58 0 -76 -88 -76 -196s18 -196 76 -196c59 0 81 88 81 196s-22 196 -81 196z" />
    <glyph glyph-name="seven" unicode="7" horiz-adv-x="537" 
d="M201 559h-24c-111 0 -165 -143 -165 -143l-12 7l28 164h494l-5 -18c-10 -1 -45 -15 -58 -45l-148 -432c-25 -71 21 -78 21 -78l-5 -14h-253l5 14s50 7 73 73l119 345c16 45 24 127 -70 127z" />
    <glyph glyph-name="eight" unicode="8" horiz-adv-x="521" 
d="M147 329c-60 23 -101 66 -101 119c0 79 92 143 206 143c113 0 205 -64 205 -143c0 -53 -41 -97 -102 -120c74 0 145 -83 145 -158c0 -121 -112 -174 -250 -174s-250 57 -250 174c0 76 72 159 147 159zM250 310c-63 0 -82 -46 -82 -137c0 -92 19 -135 82 -135
s86 43 86 135c0 91 -23 137 -86 137zM252 564c-52 0 -68 -44 -68 -114s16 -106 68 -106c51 0 71 36 71 106s-20 114 -71 114z" />
    <glyph glyph-name="nine" unicode="9" horiz-adv-x="489" 
d="M267 149c-11 -1 -22 -2 -33 -2c-129 0 -234 99 -234 220s105 220 234 220s233 -99 233 -220c0 -9 0 -19 -1 -28c-13 -141 -233 -340 -233 -340h-70c32 41 73 88 104 150zM234 168c59 0 76 88 76 196s-17 195 -76 195s-81 -87 -81 -195s22 -196 81 -196z" />
    <glyph glyph-name="colon" unicode=":" horiz-adv-x="68" 
d="M29 449c16 0 29 -13 29 -29s-13 -29 -29 -29s-29 13 -29 29s13 29 29 29zM29 207c16 0 29 -13 29 -29s-13 -29 -29 -29s-29 13 -29 29s13 29 29 29z" />
    <glyph glyph-name="semicolon" unicode=";" horiz-adv-x="84" 
d="M29 449c16 0 29 -13 29 -29s-13 -29 -29 -29s-29 13 -29 29s13 29 29 29zM12 155c-12 8 -16 25 -9 38c8 13 26 18 40 10s19 -25 11 -39l-28 -48c-21 9 -6 25 -14 39z" />
    <glyph glyph-name="semicolon" unicode="&#x37e;" horiz-adv-x="84" 
d="M29 449c16 0 29 -13 29 -29s-13 -29 -29 -29s-29 13 -29 29s13 29 29 29zM12 155c-12 8 -16 25 -9 38c8 13 26 18 40 10s19 -25 11 -39l-28 -48c-21 9 -6 25 -14 39z" />
    <glyph glyph-name="less" unicode="&#x3c;" horiz-adv-x="263" 
d="M0 296c0 0 139 71 241 116v-85c-42 10 -94 -13 -158 -32c64 -18 126 -40 158 -22v-95c-102 46 -241 118 -241 118z" />
    <glyph glyph-name="equal" unicode="=" horiz-adv-x="332" 
d="M304 385v-82c-102 17 -204 19 -304 0v82c100 -22 202 -20 304 0zM304 292v-81c-102 16 -204 18 -304 0v81c100 -22 202 -20 304 0z" />
    <glyph glyph-name="greater" unicode="&#x3e;" horiz-adv-x="258" 
d="M241 296c0 0 -139 -72 -241 -118v95c32 -18 95 4 159 22c-64 19 -117 42 -159 32v85c102 -45 241 -116 241 -116z" />
    <glyph glyph-name="question" unicode="?" horiz-adv-x="469" 
d="M234 142h-59c0 184 118 163 129 280c8 80 -19 133 -79 133c-99 0 -106 -124 -74 -151c-70 -13 -91 37 -151 65c37 8 35 117 224 117c93 0 219 -44 219 -182c0 -169 -209 -108 -209 -262zM209 116c32 0 58 -26 58 -58s-26 -58 -58 -58c-31 0 -57 26 -57 58s26 58 57 58z
" />
    <glyph glyph-name="at" unicode="@" horiz-adv-x="495" 
d="M365 175c47 0 59 91 59 119c0 104 -85 218 -189 218s-188 -114 -188 -218s84 -216 188 -216c30 0 64 18 82 46c15 -9 37 -17 63 -16c-40 -31 -90 -50 -145 -50c-130 0 -235 106 -235 236s105 235 235 235s236 -105 236 -235c0 -42 -20 -145 -114 -145
c-26 0 -65 11 -66 59c-23 -22 -36 -37 -74 -37c-62 0 -104 52 -104 113c0 67 54 111 99 112c37 0 61 -10 79 -26l2 17l68 -17s-36 -195 4 -195zM217 373c-22 0 -31 -36 -31 -89c0 -49 -2 -92 29 -92s28 45 28 95c0 53 -4 86 -26 86z" />
    <glyph glyph-name="A" unicode="A" horiz-adv-x="696" 
d="M91 87l245 500l242 -492c24 -50 47 -75 82 -81l7 -14h-246l-7 14c8 2 38 17 13 71l-43 86h-203l-42 -87c-29 -58 13 -70 13 -70l-7 -14h-145l7 14c11 1 61 21 84 73zM372 197l-89 180l-89 -180h178z" />
    <glyph glyph-name="B" unicode="B" horiz-adv-x="584" 
d="M0 587h253c130 -1 234 -27 234 -139c0 -73 -50 -104 -106 -118c119 -17 181 -70 181 -162c0 -141 -133 -168 -311 -168h-251v14s48 7 48 73v413c0 64 -48 73 -48 73v14zM238 320h-33v-216c0 -60 29 -78 64 -78c108 0 135 63 135 144s-23 146 -166 150zM250 567
c-28 0 -45 -28 -45 -72v-151c98 3 140 30 140 106c0 80 -22 117 -95 117z" />
    <glyph glyph-name="C" unicode="C" horiz-adv-x="548" 
d="M465 140l36 -62c-16 -24 -68 -78 -172 -78c-206 0 -329 132 -329 294c0 163 122 294 318 294c92 0 164 -33 208 -81c-28 -42 -61 -76 -115 -76c-8 0 -17 1 -27 3c32 27 28 126 -66 126c-93 0 -160 -117 -160 -261c0 -145 81 -262 171 -262c91 0 122 71 136 103z" />
    <glyph glyph-name="D" unicode="D" horiz-adv-x="584" 
d="M0 573v14h289c178 0 273 -180 273 -294c0 -140 -111 -293 -289 -293h-273v14s48 7 48 73v413c0 64 -48 73 -48 73zM253 561c-13 0 -48 -7 -48 -78v-379c0 -65 33 -78 48 -78c130 1 151 188 151 269c0 79 -25 266 -151 266z" />
    <glyph glyph-name="E" unicode="E" horiz-adv-x="524" 
d="M309 559h-35c-25 -1 -68 -10 -69 -78v-164h11c85 1 97 66 97 66l14 -2v-146l-14 -2s-12 65 -97 66h-11v-193c0 -72 55 -78 71 -78h33c111 0 181 143 181 143l12 -7l-28 -164h-474v14s48 7 48 73v413c0 64 -48 73 -48 73v14h474l28 -164l-12 -7s-70 143 -181 143z" />
    <glyph glyph-name="F" unicode="F" horiz-adv-x="523" 
d="M309 559h-36c-24 -1 -68 -10 -68 -78c0 0 1 0 1 -164h10c85 1 97 66 97 66l13 -2v-146l-13 -2s-12 65 -97 66h-10c-1 -53 -1 -120 -1 -206c-1 -61 33 -78 48 -78v-15h-253v14s48 7 48 73v413c0 64 -48 73 -48 73v14h474l28 -164l-12 -7s-70 143 -181 143z" />
    <glyph glyph-name="G" unicode="G" horiz-adv-x="596" 
d="M326 0c-204 1 -326 133 -326 294c0 163 122 294 318 294c92 0 163 -33 208 -81c-28 -42 -61 -76 -115 -76c-8 0 -17 1 -27 3c32 27 27 126 -66 126s-160 -117 -160 -261c0 -145 81 -262 171 -262c18 0 55 9 55 50v124c0 58 -17 59 -29 54c-63 -30 -101 -108 -101 -108
l-10 6l23 136h300v-15s-48 -7 -48 -78v-98c0 -71 48 -78 48 -78v-15c-84 6 -148 -15 -241 -15z" />
    <glyph glyph-name="H" unicode="H" horiz-adv-x="629" 
d="M253 14v-14h-253v14s48 7 48 73v413c0 64 -48 73 -48 73v14h253v-14s-48 -7 -48 -78v-184h191v189c0 64 -48 73 -48 73v14h252v-14s-48 -7 -48 -78v-403c0 -70 48 -78 48 -78v-14h-252v14s48 7 48 73v198h-191v-193c0 -70 48 -78 48 -78z" />
    <glyph glyph-name="I" unicode="I" horiz-adv-x="282" 
d="M0 573v14h253v-14s-48 -7 -48 -78v-403c0 -70 48 -78 48 -78v-14h-253v14s48 7 48 73v413c0 64 -48 73 -48 73z" />
    <glyph glyph-name="J" unicode="J" horiz-adv-x="515" 
d="M282 142c0 4 1 358 1 358c0 64 -48 73 -48 73v14h252v-14s-48 -7 -48 -78v-291c0 -139 -47 -204 -228 -204c-168 0 -199 67 -211 125c44 12 85 89 174 55c-74 -21 -61 -143 32 -143c83 0 76 80 76 105z" />
    <glyph glyph-name="K" unicode="K" horiz-adv-x="576" 
d="M253 14v-14h-253v14s48 7 48 73v413c0 64 -48 73 -48 73v14h253v-14s-48 -7 -48 -78v-272l171 280c35 58 -6 70 -6 70l9 14h146l-9 -14c-11 -1 -64 -21 -93 -73l-103 -170l133 -238c40 -70 93 -78 93 -78l8 -14h-253l-8 14s44 7 7 73l-59 114l-36 -59v-50
c0 -70 48 -78 48 -78z" />
    <glyph glyph-name="L" unicode="L" horiz-adv-x="531" 
d="M0 587h254v-15c-14 0 -49 -23 -49 -78v-388c1 -68 44 -78 69 -78h36c111 0 180 143 180 143l12 -7l-28 -164h-474v14s48 9 48 73v413c0 66 -48 73 -48 73v14z" />
    <glyph glyph-name="M" unicode="M" horiz-adv-x="849" 
d="M56 573l2 14h219l5 -14c-9 -2 -41 -18 -22 -71l130 -359l141 360c16 40 -1 71 -26 71v13h253l2 -14s-47 -9 -41 -73l43 -413c7 -66 56 -73 56 -73l1 -14h-252l-2 14s47 8 40 78l-36 344l-170 -436h-91l-160 423l-34 -335c-6 -70 41 -74 41 -74l-1 -14h-154l1 14
s49 7 55 73l41 413c6 64 -41 73 -41 73z" />
    <glyph glyph-name="N" unicode="N" horiz-adv-x="551" 
d="M0 587h212l9 -14c-8 -2 -35 -18 -1 -71l196 -298l-1 296c0 71 -48 73 -48 73v14h155v-14s-48 -9 -48 -73v-500h-58l-310 459v-372c0 -66 48 -73 48 -73v-14h-154v14s48 4 48 74v412c0 71 -48 73 -48 73v14z" />
    <glyph glyph-name="O" unicode="O" horiz-adv-x="604" 
d="M291 588c161 0 291 -131 291 -294c0 -162 -130 -294 -291 -294s-291 132 -291 294c0 163 130 294 291 294zM291 560c-73 0 -133 -117 -133 -261c0 -145 60 -262 133 -262s133 117 133 262c0 144 -60 261 -133 261z" />
    <glyph glyph-name="P" unicode="P" horiz-adv-x="584" 
d="M0 573v14h248c178 0 314 -28 314 -168c0 -114 -94 -178 -273 -178h-84v-149c0 -71 48 -78 48 -78v-14h-253v14s48 9 48 73v413c0 66 -48 73 -48 73zM258 560c-19 0 -52 -15 -53 -77v-217h21c144 0 178 69 178 151c0 81 -39 143 -146 143z" />
    <glyph glyph-name="Q" unicode="Q" horiz-adv-x="602" 
d="M396 20c-33 -13 -68 -20 -105 -20c-161 0 -291 132 -291 294c0 163 130 294 291 294s291 -131 291 -294c0 -102 -51 -192 -130 -245c1 -1 2 -1 3 -2c18 -19 86 -46 108 4c32 -10 41 -107 -46 -106c-69 1 -95 46 -121 75zM291 560c-73 0 -133 -117 -133 -261
c0 -145 60 -262 133 -262s133 117 133 262c0 144 -60 261 -133 261z" />
    <glyph glyph-name="R" unicode="R" horiz-adv-x="609" 
d="M0 573v14h248c178 0 314 -28 314 -168c0 -85 -52 -142 -152 -166l85 -161c33 -70 84 -78 84 -78l7 -14h-253l-7 14s34 7 15 73c-35 121 -43 148 -45 154h-91v-149c0 -71 48 -78 48 -78v-14h-253v14s48 9 48 73v413c0 66 -48 73 -48 73zM257 560c-23 0 -52 -14 -52 -77
v-217h21c143 0 178 69 178 151c0 81 -39 143 -147 143z" />
    <glyph glyph-name="S" unicode="S" horiz-adv-x="541" 
d="M273 586c106 0 175 -31 220 -79c-33 -49 -72 -86 -142 -73c32 27 4 127 -78 127c-60 0 -98 -35 -98 -90c0 -130 344 -82 344 -303c0 -138 -117 -169 -276 -169c-61 0 -189 15 -243 86c73 34 70 163 169 151c-46 0 -73 -196 80 -196c51 0 111 23 111 95
c0 80 -70 115 -142 147l-14 6c-73 33 -143 67 -143 148c0 115 118 150 212 150z" />
    <glyph glyph-name="T" unicode="T" horiz-adv-x="553" 
d="M0 454l22 133h487l22 -133l-12 -7s-56 98 -154 111c-11 -11 -21 -31 -21 -63v-403c0 -70 48 -78 48 -78v-14h-253v14s48 7 48 73v413c0 29 -10 47 -21 58c-98 -13 -154 -111 -154 -111z" />
    <glyph glyph-name="U" unicode="U" horiz-adv-x="613" 
d="M48 218v282c0 64 -48 73 -48 73v14h253v-14s-48 -7 -48 -78c0 0 -1 -297 -1 -308c0 -108 14 -150 87 -150c74 0 85 38 88 151c0 23 1 312 1 312c0 64 -48 73 -48 73v14h253v-14s-49 -7 -49 -78v-277c0 -162 -84 -218 -245 -218c-160 0 -243 55 -243 218z" />
    <glyph glyph-name="V" unicode="V" horiz-adv-x="695" 
d="M0 587h246l7 -14c-9 -2 -38 -18 -13 -71l144 -292l144 293c29 58 -14 70 -14 70l7 14h146l-7 -14c-12 -1 -62 -21 -84 -73l-246 -500l-242 491c-23 50 -46 76 -81 82z" />
    <glyph glyph-name="W" unicode="W" horiz-adv-x="1015" 
d="M0 587h246l7 -14c-8 -2 -38 -18 -13 -71l144 -292l84 171l-54 110c-23 50 -47 76 -81 82l-7 14h246l7 -14c-9 -2 -39 -18 -13 -71l143 -292l145 293c28 58 -14 70 -14 70l7 14h146l-7 -14c-12 -1 -62 -21 -84 -73l-246 -500l-163 331l-162 -331l-243 491
c-23 50 -46 76 -81 82z" />
    <glyph glyph-name="X" unicode="X" horiz-adv-x="584" 
d="M103 87l104 168l-147 245c-39 64 -92 73 -92 73l-9 14h253l9 -14s-44 -7 -1 -78l67 -112l72 117c40 64 -3 73 -3 73l9 14h153l-9 -14s-53 -7 -97 -78l-98 -158l148 -245c42 -70 95 -78 95 -78l9 -14h-253l-9 14s44 7 4 73l-73 122l-73 -117c-44 -70 0 -78 0 -78l-9 -14
h-153l9 14s52 7 94 73z" />
    <glyph glyph-name="Y" unicode="Y" horiz-adv-x="654" 
d="M256 87v215l-145 198c-47 64 -101 73 -101 73l-10 14h252l11 -14s-43 -7 9 -78l108 -148l95 153c40 64 -3 73 -3 73l9 14h152l-8 -14s-53 -7 -97 -78l-115 -189v-214c0 -70 48 -78 48 -78v-14h-253v14s48 7 48 73z" />
    <glyph glyph-name="Z" unicode="Z" horiz-adv-x="529" 
d="M45 587h481l-7 -15c-14 0 -60 -23 -85 -78l-180 -388c-31 -68 3 -78 32 -78h23c111 0 181 143 181 143l12 -7l-28 -164h-474l7 14s52 9 82 73l184 399c31 66 -6 73 -15 73h-64c-111 0 -165 -143 -165 -143l-12 7z" />
    <glyph glyph-name="bracketleft" unicode="[" horiz-adv-x="279" 
d="M249 37v-36h-1c-137 0 -248 2 -248 294s111 294 248 294h1v-28h-1c-63 0 -113 20 -113 -262c0 -297 50 -262 113 -262h1z" />
    <glyph glyph-name="backslash" unicode="\" horiz-adv-x="326" 
d="M0 586h141l4 -12s-48 -1 -32 -58l126 -444c16 -56 65 -59 65 -59l4 -12h-142l-3 12s46 5 31 58l-126 445c-15 51 -65 58 -65 58z" />
    <glyph glyph-name="bracketright" unicode="]" 
d="M0 1v36h2c62 0 113 -35 113 262c0 282 -51 262 -113 262h-2v28h2c137 0 247 -2 247 -294s-110 -294 -247 -294h-2z" />
    <glyph glyph-name="asciicircum" unicode="^" horiz-adv-x="143" 
d="M64 538c0 0 40 -77 65 -133h-52c9 18 -2 52 -13 87c-10 -35 -22 -64 -17 -87h-47c25 56 64 133 64 133z" />
    <glyph glyph-name="underscore" unicode="_" horiz-adv-x="527" 
d="M492 -25v-82c-165 17 -330 19 -492 0v82c162 -22 327 -20 492 0z" />
    <glyph glyph-name="grave" unicode="`" horiz-adv-x="85" 
d="M57 594l20 -86h-21l-53 96z" />
    <glyph glyph-name="a" unicode="a" horiz-adv-x="538" 
d="M305 95v180c-62 -2 -147 -5 -147 -123c0 -85 27 -124 93 -124c12 0 54 9 54 67zM305 300c0 82 -28 109 -57 109c-40 0 -82 -51 -60 -83l-125 37c55 68 101 85 187 85c58 0 214 -14 212 -164c-2 -114 0 -192 0 -192c0 -71 48 -78 48 -78v-14h-137c-35 0 -48 13 -51 23
c-17 -17 -55 -23 -93 -23c-190 0 -229 68 -229 150c0 147 174 150 305 150z" />
    <glyph glyph-name="b" unicode="b" horiz-adv-x="528" 
d="M278 0h-278v14s48 4 48 75v383c0 71 -48 78 -48 78v14l206 23s-1 -61 -1 -125v-52c140 101 302 -12 302 -190c0 -105 -40 -220 -229 -220zM257 29c75 0 91 109 91 193c0 119 -31 220 -143 161v-288c-1 -70 39 -66 52 -66z" />
    <glyph glyph-name="c" unicode="c" horiz-adv-x="439" 
d="M366 105l27 -47c-12 -17 -51 -58 -129 -58c-156 0 -264 66 -264 221c0 130 108 230 256 230c69 0 129 -30 162 -66c-8 -35 -44 -53 -87 -53c-8 0 -17 0 -26 2c24 21 21 96 -49 96c-71 0 -97 -98 -97 -206c0 -109 37 -196 105 -196s91 53 102 77z" />
    <glyph glyph-name="d" unicode="d" horiz-adv-x="535" 
d="M302 410v62c0 71 -48 78 -48 78v14l205 23s-1 -61 -1 -125v-375c0 -66 48 -73 48 -73v-14h-277c-189 0 -229 115 -229 220c0 178 162 291 302 190zM302 97v286c-112 59 -143 -42 -143 -161c0 -84 17 -197 94 -197c17 0 50 0 49 72z" />
    <glyph glyph-name="e" unicode="e" horiz-adv-x="461" 
d="M321 221c-63 0 -162 3 -162 3c0 -138 42 -197 106 -196c87 0 109 58 120 83l27 -47c-12 -18 -38 -64 -148 -64c-155 0 -264 66 -264 221c0 130 93 230 241 230c158 0 213 -131 195 -201c-22 -23 -70 -29 -115 -29zM240 421c-60 0 -80 -68 -80 -162h113
c61 0 51 162 -33 162z" />
    <glyph glyph-name="f" unicode="f" horiz-adv-x="463" 
d="M-10 396h58v8c-2 176 211 163 232 162c94 -4 126 -33 168 -83l-125 -37c21 31 0 83 -52 83c-41 0 -68 -27 -66 -120v-13h104v-30h-103c2 -122 -1 -279 -1 -279c0 -66 48 -73 48 -73v-14h-253v14s48 7 48 78c0 0 2 159 1 274h-59v30z" />
    <glyph glyph-name="g" unicode="g" horiz-adv-x="473" 
d="M322 425c15 26 54 53 64 58c0 0 4 -37 34 -57c0 0 -46 0 -70 -16c61 -40 101 -109 101 -187c0 -123 -101 -223 -225 -223c-32 0 -63 7 -90 18c-14 -5 -22 -13 -22 -23c0 -18 25 -22 43 -22c110 0 257 0 264 -101c9 -118 -131 -123 -200 -123c-70 0 -135 30 -154 89
c6 26 56 59 108 49c-36 -23 -23 -96 47 -96c41 0 64 28 64 62c0 17 -14 55 -67 55c-109 0 -177 11 -177 73c0 31 21 51 49 63c-55 41 -91 106 -91 179c0 124 101 224 226 224c34 0 67 -8 96 -22zM230 425c-57 0 -74 -89 -74 -198c0 -110 17 -199 74 -199s78 89 78 199
c0 109 -21 198 -78 198z" />
    <glyph glyph-name="h" unicode="h" horiz-adv-x="555" 
d="M206 384v-297c0 -66 48 -73 48 -73v-14h-254l1 14s48 4 48 74v384c0 71 -48 78 -48 78v14l205 23v-125v-52c134 99 274 19 274 -74v-248c0 -70 48 -74 48 -74v-14h-253v14s48 7 48 73v211c0 82 -34 129 -117 86z" />
    <glyph glyph-name="i" unicode="i" 
d="M253 14v-14h-253v14s48 7 48 73v260c0 64 -48 73 -48 73v14l204 15v-357c0 -71 49 -78 49 -78zM120 631c45 0 81 -37 81 -82s-36 -81 -81 -81c-46 0 -82 36 -82 81s36 82 82 82z" />
    <glyph glyph-name="j" unicode="j" horiz-adv-x="234" 
d="M4 -125c36 0 45 22 45 49v417c0 71 -48 75 -48 75l-1 14l206 18v-14v-73c0 0 0 31 0 -344c0 -158 -80 -180 -202 -180c-89 0 -121 31 -125 72c-5 58 65 101 109 45c-46 -2 -44 -79 16 -79zM122 631c45 0 82 -37 82 -82s-37 -81 -82 -81s-82 36 -82 81s37 82 82 82z" />
    <glyph glyph-name="k" unicode="k" horiz-adv-x="567" 
d="M253 14v-14h-253v14s48 4 48 74v384c0 71 -48 78 -48 78v14l206 23s-1 -61 -1 -125v-325l139 226c35 58 -6 70 -6 70l9 14h145l-8 -14c-12 -1 -64 -21 -93 -73l-50 -81l105 -187c40 -71 92 -78 92 -78l8 -14h-253l-8 14s45 7 7 73l-30 61l-54 -87c10 -42 45 -47 45 -47z
" />
    <glyph glyph-name="l" unicode="l" horiz-adv-x="283" 
d="M206 587c0 0 -1 -61 -1 -125v-375c0 -66 48 -73 48 -73v-14h-253v14s48 4 48 74v384c0 71 -48 78 -48 78v14z" />
    <glyph glyph-name="m" unicode="m" horiz-adv-x="835" 
d="M200 406c104 80 212 52 257 -7c134 110 300 32 300 -63v-248c0 -70 49 -74 49 -74v-14h-253v14s48 7 48 73v211c0 82 -45 123 -130 78c6 -13 9 -26 9 -40v-248c0 -70 48 -74 48 -74v-14h-253v14s48 7 48 73v211c0 83 -36 131 -123 83c0 -18 5 -294 5 -294
c0 -66 48 -73 48 -73v-14h-253v14s49 4 49 74l-1 245c0 71 -48 79 -48 79v14l201 23s0 -17 -1 -43z" />
    <glyph glyph-name="n" unicode="n" horiz-adv-x="558" 
d="M201 406c136 105 279 24 279 -70v-248c0 -70 48 -74 48 -74v-14h-253v14s48 7 48 73v211c0 83 -35 131 -122 83c0 -18 5 -294 5 -294c0 -66 48 -73 48 -73v-14h-254v14c1 0 49 4 49 74l-1 245c0 71 -48 79 -48 79v14l201 23v-43z" />
    <glyph glyph-name="o" unicode="o" horiz-adv-x="474" 
d="M226 447c124 0 226 -100 226 -224c0 -123 -102 -223 -226 -223c-125 0 -226 100 -226 223c0 124 101 224 226 224zM226 425c-57 0 -74 -89 -74 -198c0 -110 17 -199 74 -199s78 89 78 199c0 109 -21 198 -78 198z" />
    <glyph glyph-name="p" unicode="p" horiz-adv-x="529" 
d="M205 387v-362c15 0 28 0 38 1c88 2 105 112 105 200c0 95 -20 178 -84 178c-17 0 -36 -5 -59 -17zM253 -119v-15h-253v15s48 4 48 74v383c0 71 -48 78 -48 78v15l206 23s0 -16 -1 -40c36 26 74 38 110 38c103 0 192 -96 192 -228c0 -104 -39 -217 -263 -217l-39 1v-54
c0 -66 48 -73 48 -73z" />
    <glyph glyph-name="q" unicode="q" horiz-adv-x="487" 
d="M308 387c-23 12 -42 17 -59 17c-67 0 -91 -83 -91 -178c0 -87 9 -198 92 -198c21 0 45 17 53 27c4 274 5 315 5 332zM308 414c0 24 -7 40 -7 40c71 0 157 -1 157 -116v-360c0 -40 27 -52 49 -52c14 0 25 5 27 11c4 -44 -27 -71 -78 -71c-63 0 -154 21 -154 153
c-12 -9 -35 -20 -61 -20c-181 0 -241 121 -241 225c0 132 93 228 197 228c37 0 75 -12 111 -38z" />
    <glyph glyph-name="r" unicode="r" horiz-adv-x="466" 
d="M206 414c92 66 216 47 239 -40l-110 -34c-19 57 -57 85 -129 47v-300c0 -66 48 -73 48 -73v-14h-254v14s49 4 49 75v249c0 71 -48 78 -48 78v15l205 23v-40z" />
    <glyph glyph-name="s" unicode="s" horiz-adv-x="410" 
d="M198 448c83 0 139 -27 174 -64c-25 -37 -56 -65 -111 -55c25 20 2 100 -63 100c-54 0 -80 -36 -80 -69c0 -99 270 -65 270 -233c0 -87 -59 -128 -211 -128c-48 0 -142 17 -177 60c28 34 37 86 81 109c-32 -60 2 -134 79 -134c41 0 79 13 79 68c0 61 -49 81 -106 106
c-19 8 -113 33 -113 129c0 56 59 111 178 111z" />
    <glyph glyph-name="t" unicode="t" horiz-adv-x="308" 
d="M0 399v31c79 0 121 59 206 90v-90h52v-31h-52c-1 -71 -1 -169 -1 -287c0 -79 81 -58 81 -58c-3 -28 -51 -69 -96 -69c-79 0 -142 34 -142 139v202c1 47 -8 73 -48 73z" />
    <glyph glyph-name="u" unicode="u" horiz-adv-x="530" 
d="M311 152v186c0 71 -48 78 -48 78v15l205 23s-1 -61 -1 -125v-151v-81c0 -71 42 -78 42 -78v-15c-110 18 -201 -4 -254 -4c-149 0 -207 66 -207 168v170c0 71 -48 78 -48 78v15l205 23v-125v-183c0 -46 0 -115 54 -115c48 0 51 49 52 121z" />
    <glyph glyph-name="v" unicode="v" horiz-adv-x="534" 
d="M240 362l74 -153c19 45 42 99 66 155c25 59 -14 70 -14 70l7 14h146l-7 -14c-12 -1 -62 -21 -84 -73l-168 -362l-172 353c-23 50 -46 75 -81 81l-7 15h246l7 -15c-8 -1 -38 -17 -13 -71z" />
    <glyph glyph-name="w" unicode="w" horiz-adv-x="803" 
d="M519 448l-1 -3l6 -12c-9 -1 -39 -17 -14 -71l74 -153c19 45 43 99 66 155c25 59 -14 70 -14 70l7 14h146l-7 -14c-11 -1 -61 -21 -84 -73l-168 -362l-138 284l-132 -284l-171 353c-24 50 -47 75 -82 81l-7 15h246l7 -15c-8 -1 -38 -17 -13 -71l74 -153
c16 37 34 80 53 125l-8 18c-24 50 -47 75 -82 81l-7 15h249z" />
    <glyph glyph-name="x" unicode="x" horiz-adv-x="552" 
d="M117 87l79 100l-125 174c-46 65 -100 73 -100 73l-10 15h253l10 -15s-43 -7 8 -78l46 -64l54 69c51 65 10 73 10 73l11 15h153l-12 -15s-53 -7 -109 -78l-81 -102l116 -161c50 -71 104 -79 104 -79l10 -14h-253l-10 14s43 7 -4 73l-45 63l-44 -57
c-56 -71 -14 -79 -14 -79l-11 -14h-153l12 14s53 7 105 73z" />
    <glyph glyph-name="y" unicode="y" horiz-adv-x="612" 
d="M268 -25l12 25c-18 9 -29 35 -46 74l-143 287c-32 65 -84 73 -84 73l-7 15h253l7 -15s-45 -7 -9 -78l101 -204c98 206 100 209 100 209c30 65 -13 73 -13 73l6 15h153l-7 -15s-51 -7 -85 -78l-179 -376c-30 -74 -64 -125 -151 -125c-107 0 -101 119 -16 121
c-15 -25 4 -60 40 -60c32 0 51 22 68 59z" />
    <glyph glyph-name="z" unicode="z" horiz-adv-x="484" 
d="M1 285l28 164h433l-7 -14c-15 0 -60 -24 -85 -79c-105 -226 -116 -250 -116 -250c-29 -63 3 -78 26 -78c105 0 172 143 172 143l12 -7l-28 -164h-436l6 14s52 9 82 73l121 261c31 65 -5 73 -16 73c-111 0 -180 -143 -180 -143z" />
    <glyph glyph-name="braceleft" unicode="{" horiz-adv-x="332" 
d="M0 297l48 37c9 253 116 255 246 255h2v-28h-2c-62 0 -113 20 -113 -262c0 -297 51 -262 113 -262h2v-36h-2c-131 0 -238 1 -246 259z" />
    <glyph glyph-name="bar" unicode="|" horiz-adv-x="159" 
d="M141 586v-12s-48 -7 -48 -58v-445c0 -53 48 -58 48 -58v-12h-141v12s48 3 48 59v444c0 57 -49 58 -49 58v12h142z" />
    <glyph glyph-name="braceright" unicode="}" horiz-adv-x="316" 
d="M248 334l48 -37l-48 -37c-9 -258 -116 -259 -246 -259h-2v36h2c62 0 112 -35 112 262c0 282 -50 262 -112 262h-2v28h2c129 0 236 -2 246 -255z" />
    <glyph glyph-name="asciitilde" unicode="~" horiz-adv-x="331" 
d="M303 326l2 -75c-100 -31 -117 42 -198 40c-42 -1 -77 -12 -107 -46v81c40 13 62 26 117 26c81 0 108 -84 186 -26z" />
    <glyph glyph-name="exclamdown" unicode="&#xa1;" horiz-adv-x="278" 
d="M253 0h-253s32 18 48 87l41 348h69l47 -342c17 -76 48 -93 48 -93zM124 469c32 0 58 26 58 58s-26 58 -58 58s-58 -26 -58 -58s26 -58 58 -58z" />
    <glyph glyph-name="cent" unicode="&#xa2;" horiz-adv-x="548" 
d="M229 651h142v-14s-36 -6 -46 -49c89 -1 158 -34 201 -80c-32 -50 -71 -87 -141 -74c31 27 27 123 -62 126v-523h7c90 0 121 71 135 103l36 -62c-16 -24 -68 -78 -172 -78h-6c5 -57 48 -63 48 -63v-14h-141v14s44 4 47 66c-174 21 -277 143 -277 291
c0 151 105 275 276 292c-9 49 -47 51 -47 51v14zM278 50v502c-72 -28 -119 -131 -119 -253c0 -116 52 -214 119 -249z" />
    <glyph glyph-name="sterling" unicode="&#xa3;" horiz-adv-x="529" 
d="M120 301c-36 29 -54 69 -54 110c0 139 135 176 225 176c181 0 187 -94 223 -102c-58 -27 -90 -63 -157 -50c30 26 44 128 -67 128c-57 0 -100 -34 -100 -118c0 -67 21 -142 102 -148c28 3 56 7 84 12v-81c-24 4 -48 7 -72 9l-50 -131c-28 -62 29 -78 52 -78
c105 0 158 97 158 97l12 -8l-6 -117h-470l7 14s52 9 82 73l99 153c-39 -1 -78 -5 -117 -12v81c17 -3 33 -6 49 -8z" />
    <glyph glyph-name="currency" unicode="&#xa4;" horiz-adv-x="499" 
d="M376 455c6 2 4 6 36 51l55 -60c-32 -20 -44 -25 -50 -27c30 -35 48 -78 48 -125c0 -45 -16 -86 -44 -120c7 -3 20 -9 46 -26l-55 -60c-22 32 -28 43 -32 48c-40 -29 -91 -47 -148 -47c-55 0 -105 17 -145 45c-4 -6 -10 -18 -30 -46l-56 60c24 15 37 21 44 25
c-28 34 -45 76 -45 121c0 47 18 91 49 126c-7 3 -19 9 -48 26l56 60c27 -39 30 -47 33 -50c40 27 89 43 142 43c55 0 105 -17 144 -44zM232 479c-58 0 -106 -81 -106 -182s48 -182 106 -182c59 0 107 81 107 182s-48 182 -107 182z" />
    <glyph glyph-name="yen" unicode="&#xa5;" horiz-adv-x="654" 
d="M257 272v30l-145 198c-47 64 -101 73 -101 73l-11 14h253l11 -14s-43 -8 9 -79l108 -147l95 153c39 64 -3 73 -3 73l9 14h152l-9 -14s-52 -8 -96 -79l-115 -189v-33c24 3 49 6 74 11v-81c-25 4 -50 7 -74 9v-31c24 2 49 6 74 11v-82c-25 4 -50 7 -74 10v-27
c0 -71 48 -78 48 -78v-14h-253v14s48 7 48 73v32c-25 -2 -49 -5 -73 -10v82c24 -5 48 -9 73 -12v33c-25 -2 -49 -6 -73 -10v81c24 -5 48 -9 73 -11z" />
    <glyph glyph-name="section" unicode="&#xa7;" horiz-adv-x="545" 
d="M167 393c-63 21 -120 45 -120 94c0 79 118 104 212 104c106 0 175 -22 220 -54c-32 -34 -72 -60 -142 -51c32 19 4 87 -78 87c-60 0 -98 -24 -98 -62c0 -78 265 -62 330 -159c0 -1 1 -1 1 -2c8 -13 13 -28 13 -46c0 -45 -23 -73 -64 -90c45 -20 77 -50 77 -96
c0 -95 -116 -116 -276 -116c-60 0 -189 10 -242 59c73 23 70 112 169 103c-46 0 -73 -134 80 -134c51 0 111 15 111 65c0 55 -70 78 -142 101l-14 4c-73 22 -143 46 -143 101c0 50 48 78 106 92zM217 378c-27 -10 -42 -29 -42 -53c0 -43 79 -57 162 -78c6 9 9 20 9 34
c0 52 -62 76 -129 97z" />
    <glyph glyph-name="dieresis" unicode="&#xa8;" horiz-adv-x="191" 
d="M39 597c22 0 39 -18 39 -39c0 -22 -17 -39 -39 -39c-21 0 -39 17 -39 39c0 21 18 39 39 39zM153 597c21 0 39 -18 39 -39c0 -22 -18 -39 -39 -39c-22 0 -39 17 -39 39c0 21 17 39 39 39z" />
    <glyph glyph-name="copyright" unicode="&#xa9;" horiz-adv-x="607" 
d="M292 585c161 0 292 -130 292 -291s-131 -292 -292 -292s-291 131 -291 292s130 291 291 291zM292 541c-132 0 -239 -111 -239 -247c0 -137 107 -248 239 -248c133 0 240 111 240 248c0 136 -107 247 -240 247zM398 188l22 -39c-9 -14 -41 -47 -106 -47
c-127 0 -203 81 -203 181c0 101 75 182 197 182c57 0 101 -20 128 -50c-20 -30 -44 -54 -87 -46c19 17 16 79 -41 79c-58 0 -99 -73 -99 -162s50 -162 106 -162c55 0 74 44 83 64z" />
    <glyph glyph-name="guillemotleft" unicode="&#xab;" horiz-adv-x="481" 
d="M0 296c0 0 139 71 241 116v-85c-42 10 -94 -13 -158 -32c64 -18 126 -40 158 -22v-95c-102 46 -241 118 -241 118zM222 296c0 0 139 71 241 116v-85c-42 10 -94 -13 -158 -32c64 -18 126 -40 158 -22v-95c-102 46 -241 118 -241 118z" />
    <glyph glyph-name="registered" unicode="&#xae;" horiz-adv-x="614" 
d="M292 585c161 0 292 -130 292 -291s-131 -292 -292 -292s-292 131 -292 292s131 291 292 291zM126 471v1c-45 -45 -74 -108 -74 -178c0 -137 108 -248 240 -248c65 0 125 27 168 71h-129l-4 9s21 4 9 45c-21 75 -26 92 -28 95h-56v-92c0 -43 30 -48 30 -48v-9h-156v9
s29 6 29 45v255c0 41 -29 45 -29 45zM472 130c37 44 59 101 59 164c0 136 -107 247 -239 247c-60 0 -116 -23 -158 -61h145c110 0 194 -17 194 -104c0 -52 -32 -87 -94 -102l53 -100c12 -26 29 -39 40 -44zM284 464c-14 0 -32 -9 -32 -48v-134h13c89 0 110 43 110 93
s-24 89 -91 89z" />
    <glyph glyph-name="acute" unicode="&#xb4;" horiz-adv-x="85" 
d="M22 594l55 10l-53 -96h-21z" />
    <glyph glyph-name="cedilla" unicode="&#xb8;" horiz-adv-x="96" 
d="M32 -30v46h15v-23c24 -1 44 -21 44 -46s-21 -45 -46 -45s-45 20 -45 45v1h23c-1 0 -1 0 -1 -1c0 -12 11 -23 23 -23c13 0 23 11 23 23s-10 22 -21 23h-15z" />
    <glyph glyph-name="guillemotright" unicode="&#xbb;" horiz-adv-x="481" 
d="M463 296c0 0 -139 -72 -241 -118v95c32 -18 95 4 159 22c-64 19 -117 42 -159 32v85c102 -45 241 -116 241 -116zM241 296c0 0 -139 -72 -241 -118v95c32 -18 95 4 159 22c-64 19 -117 42 -159 32v85c102 -45 241 -116 241 -116z" />
    <glyph glyph-name="questiondown" unicode="&#xbf;" horiz-adv-x="469" 
d="M209 444h58c0 -183 -118 -162 -129 -279c-8 -80 20 -133 79 -133c99 0 106 123 74 151c70 13 91 -37 152 -65c-38 -9 -36 -118 -224 -118c-94 0 -219 44 -219 183c0 168 209 108 209 261zM233 471c-32 0 -58 26 -58 58s26 57 58 57s57 -25 57 -57s-25 -58 -57 -58z" />
    <glyph glyph-name="Agrave" unicode="&#xc0;" horiz-adv-x="696" 
d="M91 87l245 500l242 -492c24 -50 47 -75 82 -81l7 -14h-246l-7 14c8 2 38 17 13 71l-43 86h-203l-42 -87c-29 -58 13 -70 13 -70l-7 -14h-145l7 14c11 1 61 21 84 73zM372 197l-89 180l-89 -180h178zM345 643l-20 86l-54 10l53 -96h21z" />
    <glyph glyph-name="Aacute" unicode="&#xc1;" horiz-adv-x="696" 
d="M91 87l245 500l242 -492c24 -50 47 -75 82 -81l7 -14h-246l-7 14c8 2 38 17 13 71l-43 86h-203l-42 -87c-29 -58 13 -70 13 -70l-7 -14h-145l7 14c11 1 61 21 84 73zM372 197l-89 180l-89 -180h178zM394 739l-55 -10l-19 -86h21z" />
    <glyph glyph-name="Acircumflex" unicode="&#xc2;" horiz-adv-x="696" 
d="M91 87l245 500l242 -492c24 -50 47 -75 82 -81l7 -14h-246l-7 14c8 2 38 17 13 71l-43 86h-203l-42 -87c-29 -58 13 -70 13 -70l-7 -14h-145l7 14c11 1 61 21 84 73zM372 197l-89 180l-89 -180h178zM242 643l88 98l87 -98l-57 10l-30 64l-31 -64z" />
    <glyph glyph-name="Atilde" unicode="&#xc3;" horiz-adv-x="696" 
d="M91 87l245 500l242 -492c24 -50 47 -75 82 -81l7 -14h-246l-7 14c8 2 38 17 13 71l-43 86h-203l-42 -87c-29 -58 13 -70 13 -70l-7 -14h-145l7 14c11 1 61 21 84 73zM372 197l-89 180l-89 -180h178zM405 641v37c-39 -29 -52 13 -92 13c-28 0 -39 -6 -59 -13v-40
c16 17 33 22 54 23c40 1 48 -35 97 -20z" />
    <glyph glyph-name="Adieresis" unicode="&#xc4;" horiz-adv-x="696" 
d="M91 87l245 500l242 -492c24 -50 47 -75 82 -81l7 -14h-246l-7 14c8 2 38 17 13 71l-43 86h-203l-42 -87c-29 -58 13 -70 13 -70l-7 -14h-145l7 14c11 1 61 21 84 73zM372 197l-89 180l-89 -180h178zM273 732c22 0 39 -18 39 -39c0 -22 -17 -39 -39 -39
c-21 0 -39 17 -39 39c0 21 18 39 39 39zM387 732c21 0 39 -18 39 -39c0 -22 -18 -39 -39 -39c-22 0 -39 17 -39 39c0 21 17 39 39 39z" />
    <glyph glyph-name="Aring" unicode="&#xc5;" horiz-adv-x="696" 
d="M91 87l245 500l242 -492c24 -50 47 -75 82 -81l7 -14h-246l-7 14c8 2 38 17 13 71l-43 86h-203l-42 -87c-29 -58 13 -70 13 -70l-7 -14h-145l7 14c11 1 61 21 84 73zM372 197l-89 180l-89 -180h178zM332 752c32 0 58 -27 58 -59c0 -33 -26 -59 -58 -59
c-33 0 -59 26 -59 59c0 32 26 59 59 59zM332 732c-22 0 -40 -18 -40 -39c0 -22 18 -39 40 -39c21 0 39 17 39 39c0 21 -18 39 -39 39z" />
    <glyph glyph-name="AE" unicode="&#xc6;" horiz-adv-x="815" 
d="M88 95l242 492h433l28 -164l-12 -7s-70 143 -181 143h-35c-25 0 -68 -10 -69 -78v-164h11c85 1 97 66 97 66l14 -2v-146l-14 -2s-12 65 -97 66h-11v-193c0 -71 55 -78 71 -78h33c111 0 181 143 181 143l12 -7l-28 -164h-473v14s48 7 48 73v84h-132l-31 -86
c-26 -53 4 -69 13 -71l-7 -14h-181l7 14c35 6 58 32 81 81zM338 496l-119 -299h119v299z" />
    <glyph glyph-name="Ccedilla" unicode="&#xc7;" horiz-adv-x="548" 
d="M300 -30h-15v32c-50 5 -94 17 -132 38c-49 27 -87 62 -113 107c-27 44 -40 93 -40 147s13 103 39 148c25 45 62 80 110 107c47 26 104 39 169 39c46 0 87 -7 122 -22s63 -34 86 -59c-15 -25 -34 -45 -56 -60c-23 -15 -51 -19 -86 -13c11 10 18 25 19 45
c1 19 -5 38 -18 55s-36 26 -67 26c-47 0 -85 -25 -115 -76s-45 -113 -45 -185c0 -73 17 -134 52 -185s74 -77 119 -77c31 0 55 6 73 19s32 27 42 43c9 16 16 30 21 41l36 -62c-5 -9 -15 -19 -28 -31c-14 -12 -33 -23 -56 -32c-24 -10 -53 -15 -88 -15c-10 0 -20 0 -29 1v-8
c13 -1 23 -6 32 -14c8 -9 12 -19 12 -32s-4 -23 -13 -32s-20 -13 -33 -13s-23 4 -32 13s-13 19 -13 32v1h23c-1 0 -1 0 -1 -1c0 -6 2 -11 7 -16s10 -7 16 -7c7 0 12 2 17 7c4 5 6 10 6 16s-2 11 -6 16c-4 4 -9 6 -15 7z" />
    <glyph glyph-name="Egrave" unicode="&#xc8;" horiz-adv-x="524" 
d="M309 559h-35c-25 -1 -68 -10 -69 -78v-164h11c85 1 97 66 97 66l14 -2v-146l-14 -2s-12 65 -97 66h-11v-193c0 -72 55 -78 71 -78h33c111 0 181 143 181 143l12 -7l-28 -164h-474v14s48 7 48 73v413c0 64 -48 73 -48 73v14h474l28 -164l-12 -7s-70 143 -181 143zM266 643
l-20 86l-54 10l53 -96h21z" />
    <glyph glyph-name="Eacute" unicode="&#xc9;" horiz-adv-x="524" 
d="M309 559h-35c-25 -1 -68 -10 -69 -78v-164h11c85 1 97 66 97 66l14 -2v-146l-14 -2s-12 65 -97 66h-11v-193c0 -72 55 -78 71 -78h33c111 0 181 143 181 143l12 -7l-28 -164h-474v14s48 7 48 73v413c0 64 -48 73 -48 73v14h474l28 -164l-12 -7s-70 143 -181 143zM332 739
l-55 -10l-19 -86h21z" />
    <glyph glyph-name="Ecircumflex" unicode="&#xca;" horiz-adv-x="524" 
d="M309 559h-35c-25 -1 -68 -10 -69 -78v-164h11c85 1 97 66 97 66l14 -2v-146l-14 -2s-12 65 -97 66h-11v-193c0 -72 55 -78 71 -78h33c111 0 181 143 181 143l12 -7l-28 -164h-474v14s48 7 48 73v413c0 64 -48 73 -48 73v14h474l28 -164l-12 -7s-70 143 -181 143zM176 643
l88 98l87 -98l-57 10l-30 64l-31 -64z" />
    <glyph glyph-name="Edieresis" unicode="&#xcb;" horiz-adv-x="524" 
d="M309 559h-35c-25 -1 -68 -10 -69 -78v-164h11c85 1 97 66 97 66l14 -2v-146l-14 -2s-12 65 -97 66h-11v-193c0 -72 55 -78 71 -78h33c111 0 181 143 181 143l12 -7l-28 -164h-474v14s48 7 48 73v413c0 64 -48 73 -48 73v14h474l28 -164l-12 -7s-70 143 -181 143zM214 732
c22 0 39 -18 39 -39c0 -22 -17 -39 -39 -39c-21 0 -39 17 -39 39c0 21 18 39 39 39zM328 732c21 0 39 -18 39 -39c0 -22 -18 -39 -39 -39c-22 0 -39 17 -39 39c0 21 17 39 39 39z" />
    <glyph glyph-name="Igrave" unicode="&#xcc;" horiz-adv-x="282" 
d="M0 573v14h253v-14s-48 -7 -48 -78v-403c0 -70 48 -78 48 -78v-14h-253v14s48 7 48 73v413c0 64 -48 73 -48 73zM154 643l-20 86l-54 10l53 -96h21z" />
    <glyph glyph-name="Iacute" unicode="&#xcd;" horiz-adv-x="282" 
d="M0 573v14h253v-14s-48 -7 -48 -78v-403c0 -70 48 -78 48 -78v-14h-253v14s48 7 48 73v413c0 64 -48 73 -48 73zM184 739l-55 -10l-19 -86h21z" />
    <glyph glyph-name="Icircumflex" unicode="&#xce;" horiz-adv-x="282" 
d="M0 573v14h253v-14s-48 -7 -48 -78v-403c0 -70 48 -78 48 -78v-14h-253v14s48 7 48 73v413c0 64 -48 73 -48 73zM39 643l88 98l87 -98l-57 10l-30 64l-31 -64z" />
    <glyph glyph-name="Idieresis" unicode="&#xcf;" horiz-adv-x="282" 
d="M0 573v14h253v-14s-48 -7 -48 -78v-403c0 -70 48 -78 48 -78v-14h-253v14s48 7 48 73v413c0 64 -48 73 -48 73zM80 732c22 0 39 -18 39 -39c0 -22 -17 -39 -39 -39c-21 0 -39 17 -39 39c0 21 18 39 39 39zM194 732c21 0 39 -18 39 -39c0 -22 -18 -39 -39 -39
c-22 0 -39 17 -39 39c0 21 17 39 39 39z" />
    <glyph glyph-name="Eth" unicode="&#xd0;" horiz-adv-x="584" 
d="M48 340v160c0 64 -48 73 -48 73v14h289c178 0 273 -180 273 -294c0 -140 -111 -293 -289 -293h-273v14s48 7 48 73v189c-14 -2 -27 -5 -40 -8v81c13 -4 26 -7 40 -9zM204 274v-169c0 -65 34 -78 49 -78c129 0 150 187 150 269c0 78 -24 265 -150 265
c-13 0 -48 -7 -49 -78v-141c11 2 21 4 32 7v-81c-11 2 -21 4 -32 6z" />
    <glyph glyph-name="Ntilde" unicode="&#xd1;" horiz-adv-x="551" 
d="M0 587h212l9 -14c-8 -2 -35 -18 -1 -71l196 -298l-1 296c0 71 -48 73 -48 73v14h155v-14s-48 -9 -48 -73v-500h-58l-310 459v-372c0 -66 48 -73 48 -73v-14h-154v14s48 4 48 74v412c0 71 -48 73 -48 73v14zM344 641v37c-39 -29 -52 13 -92 13c-28 0 -39 -6 -59 -13v-40
c16 17 33 22 54 23c40 1 48 -35 97 -20z" />
    <glyph glyph-name="Ograve" unicode="&#xd2;" horiz-adv-x="604" 
d="M291 588c161 0 291 -131 291 -294c0 -162 -130 -294 -291 -294s-291 132 -291 294c0 163 130 294 291 294zM291 560c-73 0 -133 -117 -133 -261c0 -145 60 -262 133 -262s133 117 133 262c0 144 -60 261 -133 261zM311 643l-20 86l-54 10l53 -96h21z" />
    <glyph glyph-name="Oacute" unicode="&#xd3;" horiz-adv-x="604" 
d="M291 588c161 0 291 -131 291 -294c0 -162 -130 -294 -291 -294s-291 132 -291 294c0 163 130 294 291 294zM291 560c-73 0 -133 -117 -133 -261c0 -145 60 -262 133 -262s133 117 133 262c0 144 -60 261 -133 261zM345 739l-55 -10l-19 -86h21z" />
    <glyph glyph-name="Ocircumflex" unicode="&#xd4;" horiz-adv-x="604" 
d="M291 588c161 0 291 -131 291 -294c0 -162 -130 -294 -291 -294s-291 132 -291 294c0 163 130 294 291 294zM291 560c-73 0 -133 -117 -133 -261c0 -145 60 -262 133 -262s133 117 133 262c0 144 -60 261 -133 261zM202 643l88 98l87 -98l-57 10l-30 64l-31 -64z" />
    <glyph glyph-name="Otilde" unicode="&#xd5;" horiz-adv-x="604" 
d="M291 588c161 0 291 -131 291 -294c0 -162 -130 -294 -291 -294s-291 132 -291 294c0 163 130 294 291 294zM291 560c-73 0 -133 -117 -133 -261c0 -145 60 -262 133 -262s133 117 133 262c0 144 -60 261 -133 261zM372 641v37c-39 -29 -52 13 -92 13
c-28 0 -39 -6 -59 -13v-40c16 17 33 22 54 23c40 1 48 -35 97 -20z" />
    <glyph glyph-name="Odieresis" unicode="&#xd6;" horiz-adv-x="604" 
d="M291 588c161 0 291 -131 291 -294c0 -162 -130 -294 -291 -294s-291 132 -291 294c0 163 130 294 291 294zM291 560c-73 0 -133 -117 -133 -261c0 -145 60 -262 133 -262s133 117 133 262c0 144 -60 261 -133 261zM237 732c22 0 39 -18 39 -39c0 -22 -17 -39 -39 -39
c-21 0 -39 17 -39 39c0 21 18 39 39 39zM351 732c21 0 39 -18 39 -39c0 -22 -18 -39 -39 -39c-22 0 -39 17 -39 39c0 21 17 39 39 39z" />
    <glyph glyph-name="multiply" unicode="&#xd7;" horiz-adv-x="293" 
d="M134 334c30 31 56 63 81 98l57 -57c-36 -23 -69 -50 -100 -79c31 -28 64 -54 100 -78l-57 -58c-25 35 -52 67 -81 98c-27 -30 -53 -63 -76 -98l-58 58c34 24 66 50 96 78c-30 29 -62 55 -96 79l57 57c23 -35 49 -68 77 -98z" />
    <glyph glyph-name="Oslash" unicode="&#xd8;" horiz-adv-x="604" 
d="M334 654h141l-4 -14s-51 -9 -71 -73c107 -44 183 -149 183 -273c0 -162 -131 -294 -292 -294c-21 0 -41 3 -61 7c-15 -60 28 -67 28 -67l-5 -14h-141l4 14s49 4 71 75l1 4c-110 42 -188 150 -188 275c0 163 131 294 291 294c23 0 46 -2 68 -7c11 57 -30 59 -30 59z
M379 496l-135 -442c15 -11 31 -17 47 -17c74 0 133 117 133 262c0 78 -17 149 -45 197zM210 91l136 446c-17 15 -35 23 -55 23c-73 0 -133 -117 -133 -261c0 -85 21 -160 52 -208z" />
    <glyph glyph-name="Ugrave" unicode="&#xd9;" horiz-adv-x="613" 
d="M48 218v282c0 64 -48 73 -48 73v14h253v-14s-48 -7 -48 -78c0 0 -1 -297 -1 -308c0 -108 14 -150 87 -150c74 0 85 38 88 151c0 23 1 312 1 312c0 64 -48 73 -48 73v14h253v-14s-49 -7 -49 -78v-277c0 -162 -84 -218 -245 -218c-160 0 -243 55 -243 218zM319 643l-20 86
l-54 10l53 -96h21z" />
    <glyph glyph-name="Uacute" unicode="&#xda;" horiz-adv-x="613" 
d="M48 218v282c0 64 -48 73 -48 73v14h253v-14s-48 -7 -48 -78c0 0 -1 -297 -1 -308c0 -108 14 -150 87 -150c74 0 85 38 88 151c0 23 1 312 1 312c0 64 -48 73 -48 73v14h253v-14s-49 -7 -49 -78v-277c0 -162 -84 -218 -245 -218c-160 0 -243 55 -243 218zM345 739l-55 -10
l-19 -86h21z" />
    <glyph glyph-name="Ucircumflex" unicode="&#xdb;" horiz-adv-x="613" 
d="M48 218v282c0 64 -48 73 -48 73v14h253v-14s-48 -7 -48 -78c0 0 -1 -297 -1 -308c0 -108 14 -150 87 -150c74 0 85 38 88 151c0 23 1 312 1 312c0 64 -48 73 -48 73v14h253v-14s-49 -7 -49 -78v-277c0 -162 -84 -218 -245 -218c-160 0 -243 55 -243 218zM205 643l88 98
l87 -98l-57 10l-30 64l-31 -64z" />
    <glyph glyph-name="Udieresis" unicode="&#xdc;" horiz-adv-x="613" 
d="M48 218v282c0 64 -48 73 -48 73v14h253v-14s-48 -7 -48 -78c0 0 -1 -297 -1 -308c0 -108 14 -150 87 -150c74 0 85 38 88 151c0 23 1 312 1 312c0 64 -48 73 -48 73v14h253v-14s-49 -7 -49 -78v-277c0 -162 -84 -218 -245 -218c-160 0 -243 55 -243 218zM232 732
c22 0 39 -18 39 -39c0 -22 -17 -39 -39 -39c-21 0 -39 17 -39 39c0 21 18 39 39 39zM346 732c21 0 39 -18 39 -39c0 -22 -18 -39 -39 -39c-22 0 -39 17 -39 39c0 21 17 39 39 39z" />
    <glyph glyph-name="Yacute" unicode="&#xdd;" horiz-adv-x="654" 
d="M256 87v215l-145 198c-47 64 -101 73 -101 73l-10 14h252l11 -14s-43 -7 9 -78l108 -148l95 153c40 64 -3 73 -3 73l9 14h152l-8 -14s-53 -7 -97 -78l-115 -189v-214c0 -70 48 -78 48 -78v-14h-253v14s48 7 48 73zM425 739l-55 -10l-19 -86h21z" />
    <glyph glyph-name="Thorn" unicode="&#xde;" horiz-adv-x="601" 
d="M253 15v-15h-253v15s48 6 48 73v412c0 65 -48 73 -48 73v15h253v-15s-36 -5 -46 -52c35 19 75 29 117 29c141 0 257 -117 257 -260s-116 -259 -257 -259c-41 0 -80 9 -115 27c13 -39 44 -43 44 -43zM324 525c-65 0 -118 -104 -118 -231s53 -231 118 -231
c64 0 117 104 117 231s-53 231 -117 231z" />
    <glyph glyph-name="germandbls" unicode="&#xdf;" horiz-adv-x="584" 
d="M252 17v-17h-1h-251v14s48 7 48 73v328c0 188 205 172 205 172c130 -1 234 -27 234 -139c0 -73 -50 -105 -106 -118c119 -17 181 -93 181 -185c0 -130 -69 -184 -442 -184v20c298 0 284 95 284 166c0 81 -23 168 -166 172l-33 1v-226c0 -50 12 -77 47 -77zM250 567
c-28 0 -45 -28 -45 -73v-151c98 4 140 31 140 107c0 80 -22 117 -95 117z" />
    <glyph glyph-name="agrave" unicode="&#xe0;" horiz-adv-x="538" 
d="M305 300c0 194 -155 82 -117 26l-125 37c41 51 74 79 167 84c21 1 234 13 232 -163c-2 -114 0 -192 0 -192c0 -71 48 -78 48 -78v-14h-137c-35 0 -48 13 -51 23c-17 -17 -55 -23 -93 -23c-190 0 -229 68 -229 150c0 147 174 150 305 150zM305 275
c-62 -2 -147 -5 -147 -123c0 -85 27 -124 93 -124c12 0 54 9 54 67v180zM266 508l-20 86l-54 10l53 -96h21z" />
    <glyph glyph-name="aacute" unicode="&#xe1;" horiz-adv-x="538" 
d="M305 300c0 194 -155 82 -117 26l-125 37c41 51 74 79 167 84c21 1 234 13 232 -163c-2 -114 0 -192 0 -192c0 -71 48 -78 48 -78v-14h-137c-35 0 -48 13 -51 23c-17 -17 -55 -23 -93 -23c-190 0 -229 68 -229 150c0 147 174 150 305 150zM305 275
c-62 -2 -147 -5 -147 -123c0 -85 27 -124 93 -124c12 0 54 9 54 67v180zM315 604l-55 -10l-19 -86h21z" />
    <glyph glyph-name="acircumflex" unicode="&#xe2;" horiz-adv-x="538" 
d="M305 300c0 194 -155 82 -117 26l-125 37c41 51 74 79 167 84c21 1 234 13 232 -163c-2 -114 0 -192 0 -192c0 -71 48 -78 48 -78v-14h-137c-35 0 -48 13 -51 23c-17 -17 -55 -23 -93 -23c-190 0 -229 68 -229 150c0 147 174 150 305 150zM305 275
c-62 -2 -147 -5 -147 -123c0 -85 27 -124 93 -124c12 0 54 9 54 67v180zM167 506l88 98l87 -98l-57 10l-30 64l-31 -64z" />
    <glyph glyph-name="atilde" unicode="&#xe3;" horiz-adv-x="538" 
d="M305 300c0 194 -155 82 -117 26l-125 37c41 51 74 79 167 84c21 1 234 13 232 -163c-2 -114 0 -192 0 -192c0 -71 48 -78 48 -78v-14h-137c-35 0 -48 13 -51 23c-17 -17 -55 -23 -93 -23c-190 0 -229 68 -229 150c0 147 174 150 305 150zM305 275
c-62 -2 -147 -5 -147 -123c0 -85 27 -124 93 -124c12 0 54 9 54 67v180zM339 524v37c-39 -29 -52 13 -92 13c-28 0 -39 -6 -59 -13v-40c16 17 33 22 54 23c40 1 48 -35 97 -20z" />
    <glyph glyph-name="adieresis" unicode="&#xe4;" horiz-adv-x="538" 
d="M305 300c0 194 -155 82 -117 26l-125 37c41 51 74 79 167 84c21 1 234 13 232 -163c-2 -114 0 -192 0 -192c0 -71 48 -78 48 -78v-14h-137c-35 0 -48 13 -51 23c-17 -17 -55 -23 -93 -23c-190 0 -229 68 -229 150c0 147 174 150 305 150zM305 275
c-62 -2 -147 -5 -147 -123c0 -85 27 -124 93 -124c12 0 54 9 54 67v180zM208 597c22 0 39 -18 39 -39c0 -22 -17 -39 -39 -39c-21 0 -39 17 -39 39c0 21 18 39 39 39zM322 597c21 0 39 -18 39 -39c0 -22 -18 -39 -39 -39c-22 0 -39 17 -39 39c0 21 17 39 39 39z" />
    <glyph glyph-name="aring" unicode="&#xe5;" horiz-adv-x="538" 
d="M305 300c0 194 -155 82 -117 26l-125 37c41 51 74 79 167 84c21 1 234 13 232 -163c-2 -114 0 -192 0 -192c0 -71 48 -78 48 -78v-14h-137c-35 0 -48 13 -51 23c-17 -17 -55 -23 -93 -23c-190 0 -229 68 -229 150c0 147 174 150 305 150zM305 275
c-62 -2 -147 -5 -147 -123c0 -85 27 -124 93 -124c12 0 54 9 54 67v180zM260 615c32 0 58 -27 58 -59c0 -33 -26 -59 -58 -59c-33 0 -59 26 -59 59c0 32 26 59 59 59zM260 595c-22 0 -40 -18 -40 -39c0 -22 18 -39 40 -39c21 0 39 17 39 39c0 21 -18 39 -39 39z" />
    <glyph glyph-name="ae" unicode="&#xe6;" horiz-adv-x="766" 
d="M401 408c38 25 87 40 144 40c158 0 213 -131 195 -200c-22 -24 -69 -29 -115 -29c-63 0 -162 2 -162 2c0 -137 42 -196 106 -196c87 1 109 59 120 83l27 -47c-12 -17 -38 -63 -148 -63c-120 0 -194 69 -246 22c-17 -16 -54 -23 -93 -23c-189 0 -229 69 -229 151
c0 146 175 150 306 150c0 194 -156 82 -118 26l-125 37c42 50 74 79 168 83c13 1 106 6 170 -36zM306 92v181c-63 -2 -147 -5 -147 -123c0 -85 27 -124 93 -124c11 0 54 8 54 66zM544 419c-60 0 -80 -68 -80 -163h113c61 0 51 163 -33 163z" />
    <glyph glyph-name="ccedilla" unicode="&#xe7;" horiz-adv-x="439" 
d="M366 105l27 -47c-12 -17 -51 -58 -129 -58c-156 0 -264 66 -264 221c0 130 108 230 256 230c69 0 129 -30 162 -66c-10 -42 -60 -60 -113 -51c24 21 21 96 -49 96c-71 0 -97 -98 -97 -206c0 -109 37 -196 105 -196s91 53 102 77z" />
    <glyph glyph-name="egrave" unicode="&#xe8;" horiz-adv-x="461" 
d="M321 221c-63 0 -162 3 -162 3c0 -138 42 -197 106 -196c87 0 109 58 120 83l27 -47c-12 -18 -38 -64 -148 -64c-155 0 -264 66 -264 221c0 130 93 230 241 230c158 0 213 -131 195 -201c-22 -23 -70 -29 -115 -29zM240 421c-60 0 -80 -68 -80 -162h113
c61 0 51 162 -33 162zM266 508l-20 86l-54 10l53 -96h21z" />
    <glyph glyph-name="eacute" unicode="&#xe9;" horiz-adv-x="461" 
d="M321 221c-63 0 -162 3 -162 3c0 -138 42 -197 106 -196c87 0 109 58 120 83l27 -47c-12 -18 -38 -64 -148 -64c-155 0 -264 66 -264 221c0 130 93 230 241 230c158 0 213 -131 195 -201c-22 -23 -70 -29 -115 -29zM240 421c-60 0 -80 -68 -80 -162h113
c61 0 51 162 -33 162zM281 604l-55 -10l-19 -86h21z" />
    <glyph glyph-name="ecircumflex" unicode="&#xea;" horiz-adv-x="461" 
d="M321 221c-63 0 -162 3 -162 3c0 -138 42 -197 106 -196c87 0 109 58 120 83l27 -47c-12 -18 -38 -64 -148 -64c-155 0 -264 66 -264 221c0 130 93 230 241 230c158 0 213 -131 195 -201c-22 -23 -70 -29 -115 -29zM240 421c-60 0 -80 -68 -80 -162h113
c61 0 51 162 -33 162zM153 506l88 98l87 -98l-57 10l-30 64l-31 -64z" />
    <glyph glyph-name="edieresis" unicode="&#xeb;" horiz-adv-x="461" 
d="M321 221c-63 0 -162 3 -162 3c0 -138 42 -197 106 -196c87 0 109 58 120 83l27 -47c-12 -18 -38 -64 -148 -64c-155 0 -264 66 -264 221c0 130 93 230 241 230c158 0 213 -131 195 -201c-22 -23 -70 -29 -115 -29zM240 421c-60 0 -80 -68 -80 -162h113
c61 0 51 162 -33 162zM193 597c22 0 39 -18 39 -39c0 -22 -17 -39 -39 -39c-21 0 -39 17 -39 39c0 21 18 39 39 39zM307 597c21 0 39 -18 39 -39c0 -22 -18 -39 -39 -39c-22 0 -39 17 -39 39c0 21 17 39 39 39z" />
    <glyph glyph-name="igrave" unicode="&#xec;" 
d="M253 14v-14h-253v14s48 7 48 73v260c0 64 -48 73 -48 73v14l204 15v-357c0 -71 49 -78 49 -78zM135 508l-20 86l-54 10l53 -96h21z" />
    <glyph glyph-name="iacute" unicode="&#xed;" 
d="M253 14v-14h-253v14s48 7 48 73v260c0 64 -48 73 -48 73v14l204 15v-357c0 -71 49 -78 49 -78zM163 604l-55 -10l-19 -86h21z" />
    <glyph glyph-name="icircumflex" unicode="&#xee;" 
d="M253 14v-14h-253v14s48 7 48 73v260c0 64 -48 73 -48 73v14l204 15v-357c0 -71 49 -78 49 -78zM32 506l88 98l87 -98l-57 10l-30 64l-31 -64z" />
    <glyph glyph-name="idieresis" unicode="&#xef;" 
d="M253 14v-14h-253v14s48 7 48 73v260c0 64 -48 73 -48 73v14l204 15v-357c0 -71 49 -78 49 -78zM65 597c22 0 39 -18 39 -39c0 -22 -17 -39 -39 -39c-21 0 -39 17 -39 39c0 21 18 39 39 39zM179 597c21 0 39 -18 39 -39c0 -22 -18 -39 -39 -39c-22 0 -39 17 -39 39
c0 21 17 39 39 39z" />
    <glyph glyph-name="eth" unicode="&#xf0;" horiz-adv-x="474" 
d="M269 573l-29 -41c61 -55 212 -171 212 -306c0 -124 -101 -224 -226 -224c-124 0 -226 100 -226 224c0 123 102 223 226 223c13 0 25 -1 37 -3l-44 55l-9 -12s-40 0 -48 -5l39 39l-38 48h32c10 -8 19 -16 28 -25l27 27h19zM226 428c-57 0 -74 -90 -74 -199
c0 -110 17 -199 74 -199s78 89 78 199c0 109 -21 199 -78 199z" />
    <glyph glyph-name="ntilde" unicode="&#xf1;" horiz-adv-x="558" 
d="M201 406c136 105 279 24 279 -70v-248c0 -70 48 -74 48 -74v-14h-253v14s48 7 48 73v211c0 83 -35 131 -122 83c0 -18 5 -294 5 -294c0 -66 48 -73 48 -73v-14h-254v14c1 0 49 4 49 74l-1 245c0 71 -48 79 -48 79v14l201 23v-43zM339 524v37c-39 -29 -52 13 -92 13
c-28 0 -39 -6 -59 -13v-40c16 17 33 22 54 23c40 1 48 -35 97 -20z" />
    <glyph glyph-name="ograve" unicode="&#xf2;" horiz-adv-x="474" 
d="M226 447c124 0 226 -100 226 -224c0 -123 -102 -223 -226 -223c-125 0 -226 100 -226 223c0 124 101 224 226 224zM226 425c-57 0 -74 -89 -74 -198c0 -110 17 -199 74 -199s78 89 78 199c0 109 -21 198 -78 198zM249 508l-20 86l-54 10l53 -96h21z" />
    <glyph glyph-name="oacute" unicode="&#xf3;" horiz-adv-x="474" 
d="M226 447c124 0 226 -100 226 -224c0 -123 -102 -223 -226 -223c-125 0 -226 100 -226 223c0 124 101 224 226 224zM226 425c-57 0 -74 -89 -74 -198c0 -110 17 -199 74 -199s78 89 78 199c0 109 -21 198 -78 198zM275 604l-55 -10l-19 -86h21z" />
    <glyph glyph-name="ocircumflex" unicode="&#xf4;" horiz-adv-x="474" 
d="M226 447c124 0 226 -100 226 -224c0 -123 -102 -223 -226 -223c-125 0 -226 100 -226 223c0 124 101 224 226 224zM226 425c-57 0 -74 -89 -74 -198c0 -110 17 -199 74 -199s78 89 78 199c0 109 -21 198 -78 198zM147 506l88 98l87 -98l-57 10l-30 64l-31 -64z" />
    <glyph glyph-name="otilde" unicode="&#xf5;" horiz-adv-x="474" 
d="M226 447c124 0 226 -100 226 -224c0 -123 -102 -223 -226 -223c-125 0 -226 100 -226 223c0 124 101 224 226 224zM226 425c-57 0 -74 -89 -74 -198c0 -110 17 -199 74 -199s78 89 78 199c0 109 -21 198 -78 198zM302 524v37c-39 -29 -52 13 -92 13c-28 0 -39 -6 -59 -13
v-40c16 17 33 22 54 23c40 1 48 -35 97 -20z" />
    <glyph glyph-name="odieresis" unicode="&#xf6;" horiz-adv-x="474" 
d="M226 447c124 0 226 -100 226 -224c0 -123 -102 -223 -226 -223c-125 0 -226 100 -226 223c0 124 101 224 226 224zM226 425c-57 0 -74 -89 -74 -198c0 -110 17 -199 74 -199s78 89 78 199c0 109 -21 198 -78 198zM176 597c22 0 39 -18 39 -39c0 -22 -17 -39 -39 -39
c-21 0 -39 17 -39 39c0 21 18 39 39 39zM290 597c21 0 39 -18 39 -39c0 -22 -18 -39 -39 -39c-22 0 -39 17 -39 39c0 21 17 39 39 39z" />
    <glyph glyph-name="divide" unicode="&#xf7;" horiz-adv-x="332" 
d="M304 337v-82c-102 17 -204 19 -304 0v82c100 -22 202 -20 304 0zM158 431c-23 0 -42 -19 -42 -42c0 -24 19 -43 42 -43s42 19 42 43c0 23 -19 42 -42 42zM158 245c-23 0 -42 -19 -42 -42c0 -24 19 -43 42 -43s42 19 42 43c0 23 -19 42 -42 42z" />
    <glyph glyph-name="oslash" unicode="&#xf8;" horiz-adv-x="474" 
d="M243 498h141l-3 -11s-50 -7 -64 -59h-1c80 -35 135 -113 135 -205c0 -123 -101 -223 -226 -223c-10 0 -20 1 -29 2c-11 -48 32 -53 32 -53l-3 -12h-141l3 12s49 2 65 59l1 4c-89 30 -153 113 -153 211c0 124 101 224 225 224c17 0 33 -2 49 -5c6 43 -34 45 -34 45z
M293 344l-89 -311c7 -3 14 -5 21 -5c57 0 79 89 79 199c0 43 -4 84 -11 117zM171 75l94 331c-11 13 -24 19 -40 19c-56 0 -74 -89 -74 -198c0 -61 6 -115 20 -152z" />
    <glyph glyph-name="ugrave" unicode="&#xf9;" horiz-adv-x="530" 
d="M311 152v186c0 71 -48 78 -48 78v15l205 23s-1 -61 -1 -125v-151v-81c0 -71 42 -78 42 -78v-15c-110 18 -201 -4 -254 -4c-149 0 -207 66 -207 168v170c0 71 -48 78 -48 78v15l205 23v-125v-183c0 -46 0 -115 54 -115c48 0 51 49 52 121zM277 508l-20 86l-54 10l53 -96
h21z" />
    <glyph glyph-name="uacute" unicode="&#xfa;" horiz-adv-x="530" 
d="M311 152v186c0 71 -48 78 -48 78v15l205 23s-1 -61 -1 -125v-151v-81c0 -71 42 -78 42 -78v-15c-110 18 -201 -4 -254 -4c-149 0 -207 66 -207 168v170c0 71 -48 78 -48 78v15l205 23v-125v-183c0 -46 0 -115 54 -115c48 0 51 49 52 121zM318 604l-55 -10l-19 -86h21z
" />
    <glyph glyph-name="ucircumflex" unicode="&#xfb;" horiz-adv-x="530" 
d="M311 152v186c0 71 -48 78 -48 78v15l205 23s-1 -61 -1 -125v-151v-81c0 -71 42 -78 42 -78v-15c-110 18 -201 -4 -254 -4c-149 0 -207 66 -207 168v170c0 71 -48 78 -48 78v15l205 23v-125v-183c0 -46 0 -115 54 -115c48 0 51 49 52 121zM167 506l88 98l87 -98l-57 10
l-30 64l-31 -64z" />
    <glyph glyph-name="udieresis" unicode="&#xfc;" horiz-adv-x="530" 
d="M311 152v186c0 71 -48 78 -48 78v15l205 23s-1 -61 -1 -125v-151v-81c0 -71 42 -78 42 -78v-15c-110 18 -201 -4 -254 -4c-149 0 -207 66 -207 168v170c0 71 -48 78 -48 78v15l205 23v-125v-183c0 -46 0 -115 54 -115c48 0 51 49 52 121zM208 597c22 0 39 -18 39 -39
c0 -22 -17 -39 -39 -39c-21 0 -39 17 -39 39c0 21 18 39 39 39zM322 597c21 0 39 -18 39 -39c0 -22 -18 -39 -39 -39c-22 0 -39 17 -39 39c0 21 17 39 39 39z" />
    <glyph glyph-name="yacute" unicode="&#xfd;" horiz-adv-x="612" 
d="M268 -25l12 25c-18 9 -29 35 -46 74l-143 287c-32 65 -84 73 -84 73l-7 15h253l7 -15s-45 -7 -9 -78l101 -204c101 212 100 209 100 209c30 65 -13 73 -13 73l6 15h153l-7 -15s-51 -7 -85 -78l-179 -376c-30 -74 -64 -125 -151 -125c-107 0 -101 119 -16 121
c-15 -25 4 -60 40 -60c32 0 51 22 68 59zM400 604l-55 -10l-19 -86h21z" />
    <glyph glyph-name="thorn" unicode="&#xfe;" horiz-adv-x="497" 
d="M253 15v-15h-253v15s48 6 48 73v278c0 64 -48 73 -48 73v14h253v-14s-48 -8 -48 -79v-13c26 10 56 16 87 16c104 0 189 -41 189 -145s-85 -145 -189 -145c-31 0 -61 6 -87 16c2 -67 48 -74 48 -74zM292 349c-47 0 -86 -58 -86 -129s39 -129 86 -129s58 58 58 129
s-11 129 -58 129z" />
    <glyph glyph-name="ydieresis" unicode="&#xff;" horiz-adv-x="612" 
d="M268 -25l12 25c-18 9 -29 35 -46 74l-143 287c-32 65 -84 73 -84 73l-7 15h253l7 -15s-45 -7 -9 -78l101 -204c101 212 100 209 100 209c30 65 -13 73 -13 73l6 15h153l-7 -15s-51 -7 -85 -78l-179 -376c-30 -74 -64 -125 -151 -125c-107 0 -101 119 -16 121
c-15 -25 4 -60 40 -60c32 0 51 22 68 59zM291 597c22 0 39 -18 39 -39c0 -22 -17 -39 -39 -39c-21 0 -39 17 -39 39c0 21 18 39 39 39zM405 597c21 0 39 -18 39 -39c0 -22 -18 -39 -39 -39c-22 0 -39 17 -39 39c0 21 17 39 39 39z" />
    <glyph glyph-name="Ydieresis" unicode="&#x178;" horiz-adv-x="654" 
d="M256 87v215l-145 198c-47 64 -101 73 -101 73l-10 14h252l11 -14s-43 -7 9 -78l108 -148l95 153c40 64 -3 73 -3 73l9 14h152l-8 -14s-53 -7 -97 -78l-115 -189v-214c0 -70 48 -78 48 -78v-14h-253v14s48 7 48 73zM301 732c22 0 39 -18 39 -39c0 -22 -17 -39 -39 -39
c-21 0 -39 17 -39 39c0 21 18 39 39 39zM415 732c21 0 39 -18 39 -39c0 -22 -18 -39 -39 -39c-22 0 -39 17 -39 39c0 21 17 39 39 39z" />
    <glyph glyph-name="circumflex" unicode="&#x2c6;" horiz-adv-x="184" 
d="M0 506l88 98l87 -98l-57 10l-30 64l-31 -64z" />
    <glyph glyph-name="caron" unicode="&#x2c7;" horiz-adv-x="184" 
d="M175 604l-87 -98l-88 98l57 -10l31 -64l30 64z" />
    <glyph glyph-name="ring" unicode="&#x2da;" horiz-adv-x="121" 
d="M61 752c32 0 58 -27 58 -59c0 -33 -26 -59 -58 -59c-33 0 -59 26 -59 59c0 32 26 59 59 59zM61 732c-22 0 -40 -18 -40 -39c0 -22 18 -39 40 -39c21 0 39 17 39 39c0 21 -18 39 -39 39z" />
    <glyph glyph-name="tilde" unicode="&#x2dc;" horiz-adv-x="169" 
d="M152 561v-37c-49 -15 -57 21 -97 20c-21 -1 -38 -6 -54 -23v40c20 7 31 13 59 13c40 0 53 -42 92 -13z" />
    <glyph glyph-name="quoteleft" unicode="&#x2018;" horiz-adv-x="69" 
d="M45 432c12 -9 16 -25 9 -38c-8 -14 -26 -19 -40 -11s-18 26 -11 40l28 47c21 -9 6 -25 14 -38z" />
    <glyph glyph-name="quoteright" unicode="&#x2019;" horiz-adv-x="69" 
d="M12 417c-12 9 -16 25 -9 38c8 14 26 19 40 11s19 -26 11 -39l-28 -48c-21 9 -6 25 -14 38z" />
    <glyph glyph-name="quotesinglbase" unicode="&#x201a;" horiz-adv-x="69" 
d="M12 4c-12 9 -16 25 -9 38c8 14 26 19 40 11s19 -26 11 -39l-28 -48c-21 9 -6 25 -14 38z" />
    <glyph glyph-name="quotedblleft" unicode="&#x201c;" horiz-adv-x="153" 
d="M45 432c12 -9 16 -25 9 -38c-8 -14 -26 -19 -40 -11s-18 26 -11 40l28 47c21 -9 6 -25 14 -38zM126 432c12 -9 16 -25 9 -38c-8 -14 -26 -19 -40 -11s-18 26 -11 40l28 47c21 -9 6 -25 14 -38z" />
    <glyph glyph-name="quotedblright" unicode="&#x201d;" horiz-adv-x="153" 
d="M93 417c-12 9 -16 25 -9 38c8 14 26 19 40 11s19 -26 11 -39l-28 -48c-21 9 -6 25 -14 38zM12 417c-12 9 -16 25 -9 38c8 14 26 19 40 11s19 -26 11 -39l-28 -48c-21 9 -6 25 -14 38z" />
    <glyph glyph-name="quotedblbase" unicode="&#x201e;" horiz-adv-x="153" 
d="M93 0c-12 9 -16 25 -9 38c8 14 26 19 40 11s19 -26 11 -39l-28 -48c-21 9 -6 25 -14 38zM12 0c-12 9 -16 25 -9 38c8 14 26 19 40 11s19 -26 11 -39l-28 -48c-21 9 -6 25 -14 38z" />
    <glyph glyph-name="dagger" unicode="&#x2020;" horiz-adv-x="234" 
d="M48 500c-1 64 -48 72 -48 72v15h200v-15s-45 -6 -48 -71c20 3 40 7 60 12v-81c-20 4 -40 7 -60 9v-349c0 -71 48 -78 48 -78v-14h-200v14s48 7 48 73v355c-22 -2 -43 -5 -64 -10v81c21 -6 42 -10 64 -13z" />
    <glyph glyph-name="daggerdbl" unicode="&#x2021;" horiz-adv-x="238" 
d="M48 500c0 64 -48 72 -48 72v15h200v-15s-45 -6 -48 -71c20 3 40 7 60 12v-81c-20 4 -40 7 -60 9v-290c20 3 40 7 60 12v-81c-20 4 -40 7 -60 9c0 -70 48 -77 48 -77v-14h-200v14s48 7 48 73v5c-21 -2 -43 -5 -64 -10v81c21 -6 43 -10 64 -13v292c-21 -2 -43 -5 -64 -10
v81c21 -6 43 -10 64 -13z" />
    <glyph glyph-name="bullet" unicode="&#x2022;" 
d="M120 631c45 0 81 -37 81 -82s-36 -81 -81 -81c-46 0 -82 36 -82 81s36 82 82 82z" />
    <glyph glyph-name="franc" unicode="&#x20a3;" horiz-adv-x="523" 
d="M48 217v283c0 65 -48 73 -48 73v14h474l28 -164l-12 -7s-70 143 -181 143h-36c-24 0 -68 -10 -68 -78c0 0 1 4 1 -136h10c85 1 97 67 97 67l13 -2v-147l-13 -2s-12 66 -97 66h-10c0 -27 -1 -66 -1 -109c24 3 28 7 52 11v-81c-24 4 -28 7 -52 9v-64c-1 -60 33 -78 48 -78
v-15h-253v15s48 6 48 73v70c-25 -2 -24 -6 -48 -10v81c24 -5 23 -9 48 -12z" />
    <glyph glyph-name="lira" unicode="&#x20a4;" horiz-adv-x="526" 
d="M120 301c-37 29 -54 69 -54 110c0 139 134 176 224 176c182 0 188 -94 224 -102c-58 -27 -90 -63 -158 -50c31 26 45 128 -66 128c-57 0 -101 -34 -101 -118c0 -67 22 -142 103 -148c28 3 56 7 84 12v-81c-24 4 -48 7 -72 9l-14 -36c29 2 57 6 86 12v-81
c-36 5 -72 9 -108 11l-14 -37c-28 -62 29 -78 52 -78c105 0 157 97 157 97l12 -8l-6 -117h-469l7 14s52 9 82 73l33 52c-17 -2 -34 -4 -51 -7v81c30 -6 60 -11 91 -13l26 40c-39 -1 -78 -5 -117 -12v81c16 -3 33 -6 49 -8z" />
    <glyph glyph-name="peseta" unicode="&#x20a7;" horiz-adv-x="1032" 
d="M253 15v-15h-253v15s48 8 48 73v412c0 66 -48 73 -48 73v14h248c110 0 204 -10 260 -51l8 50h360c57 0 97 -18 121 -44c-18 -27 -39 -47 -77 -40c17 15 2 69 -43 69c-32 0 -53 -18 -53 -49c0 -70 187 -44 187 -164c0 -76 -64 -93 -150 -93c-33 0 -103 9 -132 47
c40 19 38 89 92 83c-25 0 -40 -107 43 -107c28 0 61 12 61 51c0 44 -38 63 -78 81l-7 3c-40 18 -78 36 -78 80c0 12 2 22 6 31c-14 15 -36 32 -65 36c-6 -6 -11 -17 -11 -35v-219c0 -38 26 -42 26 -42v-8h-138v8s26 3 26 39v225c0 16 -5 26 -11 32c-35 -5 -60 -29 -73 -45
c26 -25 41 -59 41 -105c0 -115 -95 -178 -273 -178h-85v-149c0 -71 48 -78 48 -78zM258 561c-18 0 -52 -15 -53 -78v-216h21c144 0 178 69 178 150s-38 144 -146 144z" />
    <glyph glyph-name="Euro" unicode="&#x20ac;" horiz-adv-x="628" 
d="M94 382c36 120 147 206 306 206c92 0 163 -32 208 -80c-33 -50 -72 -87 -142 -74c32 27 27 126 -66 126c-74 0 -131 -73 -152 -175c24 3 48 7 72 13v-96c-27 5 -53 9 -80 11v-14c0 -8 0 -15 1 -23c26 3 53 8 79 13v-95c-23 4 -45 7 -68 10c26 -98 90 -167 159 -167
c90 0 121 71 135 103l36 -62c-16 -24 -67 -78 -171 -78c-168 0 -280 87 -317 207c-31 -2 -62 -7 -93 -13v95c27 -6 54 -11 81 -14v19v20c-27 -2 -54 -6 -81 -12v96c31 -8 62 -13 93 -16z" />
    <glyph glyph-name="uni2116" unicode="&#x2116;" horiz-adv-x="1069" 
d="M930 -19v82c-102 -20 -203 -22 -303 0v-82c100 18 201 17 303 0zM154 15v-15h-154v15s48 3 48 74v411c0 71 -48 73 -48 73v14h212l9 -14c-8 -1 -35 -17 -1 -71l196 -298v296c-1 71 -49 73 -49 73v14h155v-14s-48 -8 -48 -73v-500h-58l-310 460v-372c0 -67 48 -73 48 -73z
M777 589c142 0 257 -116 257 -260c0 -143 -115 -259 -257 -259s-257 116 -257 259c0 144 115 260 257 260zM777 564c-65 0 -117 -103 -117 -231c0 -127 52 -231 117 -231s117 104 117 231c0 128 -52 231 -117 231z" />
    <glyph glyph-name="trademark" unicode="&#x2122;" horiz-adv-x="658" 
d="M195 307v-7h-125v7s24 3 24 36v203c0 15 -5 24 -11 29c-48 -6 -76 -54 -76 -54l-6 3l11 65h240l11 -65l-6 -3s-27 48 -76 54c-5 -5 -10 -15 -10 -31v-198c0 -35 24 -39 24 -39zM318 307l-1 -7h-76l1 7s24 3 27 36l20 203c3 32 -20 36 -20 36v7h109l2 -7
c-4 0 -20 -8 -11 -35l64 -176l70 177c8 20 0 35 -13 35v6h125l1 -7s-24 -4 -20 -36l21 -203c3 -33 27 -36 27 -36l1 -7h-125v7s23 4 19 39l-17 169l-84 -215h-45l-79 209l-16 -165c-4 -35 20 -37 20 -37z" />
    <glyph glyph-name="summation" unicode="&#x2211;" horiz-adv-x="509" 
d="M89 87l134 206l-134 206c-40 61 -82 73 -82 73l-6 14h469l6 -117l-12 -7s-53 96 -158 96c-23 0 -80 -16 -51 -78l69 -181l-69 -193c-29 -62 28 -78 51 -78c105 0 158 97 158 97l12 -8l-6 -117h-469l6 14s42 12 82 73z" />
    <glyph glyph-name="approxequal" unicode="&#x2248;" horiz-adv-x="334" 
d="M304 371l1 -76c-99 -31 -116 42 -197 40c-42 -1 -77 -12 -108 -46v82c40 12 63 25 118 25c81 0 108 -84 186 -25zM304 275l1 -75c-99 -31 -116 42 -197 40c-42 -1 -77 -12 -108 -46v81c40 13 63 26 118 26c81 0 108 -85 186 -26z" />
    <glyph glyph-name="lessequal" unicode="&#x2264;" horiz-adv-x="267" 
d="M241 116v82c-77 -20 -154 -22 -230 0v-82c76 19 153 17 230 0zM0 330c0 0 139 71 241 116v-85c-42 10 -94 -13 -158 -32c64 -18 126 -40 158 -22v-95c-102 46 -241 118 -241 118z" />
    <glyph glyph-name="greaterequal" unicode="&#x2265;" horiz-adv-x="267" 
d="M0 198v-82c78 17 155 19 231 0v82c-76 -22 -153 -20 -231 0zM241 330c0 0 -139 -72 -241 -118v95c32 -18 95 4 159 22c-64 19 -117 42 -159 32v85c102 -45 241 -116 241 -116z" />
    <glyph glyph-name="uniE000" unicode="&#xe000;" horiz-adv-x="660" 
d="M336 587c0 0 1 0 242 -492c65 -131 110 -171 178 -171c31 0 69 17 84 49c23 -35 6 -129 -117 -129c-80 0 -201 35 -296 241c-40 87 -43 86 -43 86h-203l-42 -87c-29 -58 13 -70 13 -70l-7 -14h-145l7 14c11 1 61 21 84 73zM283 377l-89 -180h178z" />
    <glyph glyph-name="uniE002" unicode="&#xe002;" horiz-adv-x="794" 
d="M259 87v395c0 43 -29 58 -64 58c-63 0 -63 -64 -63 -64c0 -69 68 -70 68 -70c-71 -96 -200 -40 -200 53s99 129 172 129l292 -1c130 -1 234 -27 234 -139c0 -73 -50 -104 -106 -118c119 -17 181 -70 181 -162c0 -140 -133 -168 -311 -168h-251v14s48 7 48 73zM449 320
h-33v-216c0 -60 29 -78 64 -78c108 0 135 63 135 144s-23 146 -166 150zM461 567c-28 0 -45 -28 -45 -72v-151c98 3 140 30 140 106c0 80 -22 117 -95 117z" />
    <glyph glyph-name="uniE003" unicode="&#xe003;" horiz-adv-x="330" 
d="M541 -10l50 -62c-16 -24 -89 -57 -168 -57c-312 0 -423 243 -423 405c0 196 122 342 318 342c92 0 163 -33 208 -81c-33 -49 -72 -86 -142 -73c32 27 27 126 -66 126s-160 -97 -160 -310c0 -299 176 -360 266 -360c65 0 103 38 117 70z" />
    <glyph glyph-name="uniE004" unicode="&#xe004;" horiz-adv-x="797" 
d="M260 87v386c0 49 -28 67 -65 67c-63 0 -63 -64 -63 -64c0 -69 68 -70 68 -70c-71 -96 -200 -40 -200 53s99 129 173 129l328 -1c178 0 273 -180 273 -294c0 -140 -111 -293 -289 -293h-273v14s48 7 48 73zM465 561c-13 0 -48 -7 -49 -78v-379c0 -65 34 -78 49 -78
c129 1 150 188 150 269c0 79 -24 266 -150 266z" />
    <glyph glyph-name="uniE005" unicode="&#xe005;" horiz-adv-x="524" 
d="M-54 609c123 60 472 -176 531 85c79 -15 102 -166 -46 -198c-75 -17 -154 3 -220 21c-4 -9 -6 -21 -6 -36v-164h10c85 0 98 66 98 66l13 -2v-147l-13 -2s-13 66 -98 67h-10v-193c-1 -72 55 -78 70 -78h34c111 0 180 143 180 143l12 -7l-28 -164h-473v14s48 7 48 73v413
c0 53 -32 72 -62 72c-36 0 -62 -30 -54 -60c-34 6 -42 70 14 97z" />
    <glyph glyph-name="uniE006" unicode="&#xe006;" horiz-adv-x="523" 
d="M48 87v413c0 18 -2 72 -62 72c-35 0 -61 -30 -54 -60c-34 6 -41 70 15 97c123 60 471 -176 531 85c79 -15 102 -166 -46 -198c-75 -17 -154 3 -220 21c-4 -9 -7 -21 -7 -36c0 0 1 0 1 -164h10c85 0 98 66 98 66l13 -2v-147l-13 -2s-13 66 -98 67h-10
c0 -53 0 -120 -1 -206c0 -61 34 -79 48 -79v-14h-253v14s48 7 48 73z" />
    <glyph glyph-name="uniE007" unicode="&#xe007;" horiz-adv-x="609" 
d="M460 11c-20 -2 -74 -8 -134 -11c-204 1 -326 133 -326 294c0 162 122 294 318 294c92 0 163 -33 208 -81c-32 -49 -72 -86 -142 -73c32 27 27 126 -66 126s-160 -117 -160 -262c0 -144 81 -261 171 -261c18 0 55 9 55 50v124c0 58 -17 59 -29 53
c-63 -29 -101 -107 -101 -107l-10 6l23 135l300 1v-15s-48 -7 -48 -78v-98c2 -99 229 -180 399 -174c50 2 126 32 138 50c0 0 56 -120 -117 -120c-211 0 -384 159 -479 147z" />
    <glyph glyph-name="uniE008" unicode="&#xe008;" horiz-adv-x="841" 
d="M260 373v98c0 51 -27 69 -65 69c-63 0 -63 -64 -63 -64c0 -69 69 -70 69 -70c-72 -96 -201 -40 -201 53s99 129 173 129l292 -1v-14s-48 -7 -48 -78v-146c96 -36 158 -106 190 -175v326c0 64 -48 73 -48 73v14h253v-14s-48 -7 -48 -78v-403c0 -71 48 -78 48 -78v-14h-253
v14s43 6 48 61c-7 97 -92 169 -190 205v-188c0 -71 48 -78 48 -78v-14h-253v14s48 7 48 73v217c-70 -8 -81 -57 -81 -78c0 -31 22 -71 66 -65c-41 -53 -184 -33 -184 67c0 107 102 142 199 145z" />
    <glyph glyph-name="uniE009" unicode="&#xe009;" horiz-adv-x="493" 
d="M259 87l1 389c0 46 -28 64 -65 64c-62 0 -63 -64 -63 -64c0 -69 69 -70 69 -70c-72 -96 -201 -40 -201 53s99 129 173 129l291 -1v-14s-48 -7 -48 -78v-403c0 -71 48 -78 48 -78v-14h-253v14s48 7 48 73z" />
    <glyph glyph-name="uniE010" unicode="&#xe010;" horiz-adv-x="515" 
d="M282 479c0 46 -28 61 -64 61c-62 0 -63 -64 -63 -64c0 -69 69 -70 69 -70c-72 -96 -201 -40 -201 53s99 129 173 129l291 -1v-14s-48 -7 -48 -78v-291c0 -139 -47 -204 -229 -204c-146 0 -205 53 -205 116c0 75 84 136 169 64c-74 -21 -61 -143 32 -143
c83 0 76 80 76 105v337z" />
    <glyph glyph-name="uniE011" unicode="&#xe011;" horiz-adv-x="742" 
d="M260 87v376c0 60 -26 77 -66 77c-62 0 -63 -64 -63 -64c0 -69 69 -70 69 -70c-71 -96 -200 -40 -200 53s99 129 172 129l292 -1v-14s-48 -7 -48 -78v-272l172 280c35 58 -6 70 -6 70l9 14h145l-8 -14c-12 -1 -64 -21 -93 -73l-104 -170l134 -238c42 -74 70 -137 126 -137
c34 0 56 17 62 37c16 -51 -32 -90 -88 -90c-24 0 -162 5 -254 185c-58 114 -59 114 -59 114l-36 -59v-50c0 -70 48 -78 48 -78v-14h-252v14s48 7 48 73z" />
    <glyph glyph-name="uniE012" unicode="&#xe012;" horiz-adv-x="741" 
d="M260 87v378c0 56 -26 75 -65 75c-62 0 -63 -64 -63 -64c0 -69 69 -70 69 -70c-72 -96 -201 -40 -201 53s99 129 173 129l293 -1v-15c-15 0 -49 -23 -49 -78v-388c1 -68 44 -78 68 -78h36c111 0 181 143 181 143l12 -7l-28 -164h-474v14s48 9 48 73z" />
    <glyph glyph-name="uniE013" unicode="&#xe013;" horiz-adv-x="982" 
d="M223 87l37 379c4 51 -26 74 -65 74c-63 0 -63 -64 -63 -64c0 -69 68 -70 68 -70c-71 -96 -200 -40 -200 53s99 129 173 129l270 -1l5 -14c-8 -2 -40 -18 -22 -72l130 -358l141 360c16 40 0 71 -25 71v13h253l1 -14s-47 -9 -40 -73c0 0 1 0 43 -413
c12 -118 71 -130 90 -130c18 0 33 4 43 20c10 -41 -35 -71 -94 -71c-114 0 -184 62 -193 154c-40 383 -39 375 -39 375l-170 -435h-92l-160 423l-33 -335c-7 -70 41 -74 41 -74l-2 -14h-154l1 14s49 7 56 73z" />
    <glyph glyph-name="uniE014" unicode="&#xe014;" horiz-adv-x="756" 
d="M365 14v-14h-154v14s48 4 48 74v390c0 46 -28 62 -64 62c-63 0 -63 -64 -63 -64c0 -69 68 -70 68 -70c-71 -96 -200 -40 -200 53s99 129 172 129l251 -1l9 -14c-8 -2 -36 -18 -1 -72l196 -297l-1 295c0 71 -48 74 -48 74v14h155v-14s-48 -9 -48 -73v-295
c0 -125 16 -175 97 -251c80 -75 139 -17 129 32c97 -15 94 -175 -35 -175c-54 0 -145 37 -238 175c-3 5 -321 473 -321 473v-372c0 -66 48 -73 48 -73z" />
    <glyph glyph-name="uniE015" unicode="&#xe015;" horiz-adv-x="604" 
d="M291 588c161 0 291 -132 291 -294s-130 -294 -291 -294s-291 132 -291 294s130 294 291 294zM405 165c12 39 19 85 19 133c0 145 -60 262 -133 262s-133 -117 -133 -262c0 -144 60 -261 133 -261c21 0 41 10 59 27c-34 -13 -78 -14 -103 21c-31 43 13 107 68 92
c0 0 -28 -30 4 -58c16 -14 69 -10 86 46z" />
    <glyph glyph-name="uniE016" unicode="&#xe016;" horiz-adv-x="796" 
d="M260 87v374c0 55 -21 79 -65 79c-63 0 -63 -64 -63 -64c0 -69 68 -70 68 -70c-71 -96 -200 -40 -200 53s99 129 172 129l288 -1c178 0 314 -28 314 -168c0 -114 -94 -178 -273 -178h-84v-149c0 -71 48 -78 48 -78v-14h-253v14s48 9 48 73zM469 560c-18 0 -51 -15 -52 -78
v-216h21c144 0 178 69 178 151c0 81 -39 143 -147 143z" />
    <glyph glyph-name="uniE017" unicode="&#xe017;" horiz-adv-x="602" 
d="M396 20c-33 -13 -68 -20 -105 -20c-161 0 -291 132 -291 294s130 294 291 294s291 -132 291 -294c0 -102 -51 -192 -130 -245l3 -3c18 -18 86 -45 108 5c32 -10 41 -107 -46 -106c-69 1 -95 46 -121 75zM232 64c18 -17 38 -27 59 -27c73 0 133 117 133 261
c0 145 -60 262 -133 262s-133 -117 -133 -262c0 -48 7 -94 19 -133c13 -42 63 -65 86 -46c33 27 4 58 4 58c55 15 99 -49 68 -92c-25 -35 -69 -34 -103 -21z" />
    <glyph glyph-name="uniE018" unicode="&#xe018;" horiz-adv-x="811" 
d="M259 87l1 383c0 51 -27 70 -65 70c-63 0 -63 -64 -63 -64c0 -69 68 -70 68 -70c-71 -96 -200 -40 -200 53s99 129 172 129l287 -1c178 0 315 -28 315 -168c0 -85 -53 -142 -153 -166c0 0 -1 0 85 -161c59 -108 83 -125 117 -125c16 0 31 7 38 21c13 -5 29 -88 -65 -105
c-74 -13 -194 32 -234 168c-44 154 -53 184 -55 190h-91v-149c0 -71 48 -78 48 -78v-14h-253v14s48 9 48 73zM468 560c-23 0 -51 -14 -52 -78v-216h21c144 0 178 69 178 151c0 81 -39 143 -147 143z" />
    <glyph glyph-name="uniE019" unicode="&#xe019;" horiz-adv-x="541" 
d="M263 586c105 0 165 -44 210 -92c-32 -49 -72 -87 -142 -74c32 28 14 141 -69 141c-59 0 -86 -35 -86 -91c0 -129 343 -81 343 -302c0 -138 -116 -169 -276 -169c-45 0 -190 7 -226 104c-56 151 128 238 216 120c-102 25 -136 -183 17 -183c51 0 111 23 111 95
c0 80 -70 114 -142 147l-14 6c-73 33 -143 67 -143 148c0 115 107 150 201 150z" />
    <glyph glyph-name="uniE020" unicode="&#xe020;" horiz-adv-x="421" 
d="M187 87v458s-48 49 -118 32c-52 -13 -52 -65 -45 -95c-73 -2 -85 67 -49 106c130 140 582 -155 642 106c79 -15 102 -166 -46 -198c-75 -17 -154 3 -220 21c-4 -9 -7 -21 -7 -36c0 0 1 -302 0 -388c0 -61 34 -79 48 -79v-14h-253v14s48 7 48 73z" />
    <glyph glyph-name="uniE021" unicode="&#xe021;" horiz-adv-x="823" 
d="M258 218v246c0 55 -24 76 -65 76c-62 0 -63 -64 -63 -64c0 -69 69 -70 69 -70c-71 -96 -200 -40 -200 53s99 129 172 129l293 -1v-14s-49 -7 -49 -78v-309c0 -107 14 -149 87 -149s85 38 87 151c1 23 1 312 1 312c0 64 -48 73 -48 73v14h253v-14s-48 -7 -48 -78v-277
c0 -163 -84 -218 -245 -218s-244 55 -244 218z" />
    <glyph glyph-name="uniE022" unicode="&#xe022;" horiz-adv-x="695" 
d="M240 501l144 -291s106 212 157 320c28 58 74 150 170 150c108 0 136 -147 4 -169c6 15 -5 57 -50 57c-44 0 -72 -57 -72 -57l-263 -511l-242 491c-23 50 -46 75 -81 82l-7 14h246l7 -14c-9 -2 -39 -18 -13 -72z" />
    <glyph glyph-name="uniE023" unicode="&#xe023;" horiz-adv-x="1015" 
d="M566 501l142 -288c12 24 102 203 156 317c28 58 74 150 170 150c108 0 136 -147 5 -169c5 15 -6 57 -50 57c-45 0 -73 -57 -73 -57l-260 -511l-163 331l-162 -331l-243 491c-23 50 -46 75 -81 82l-7 14h246l7 -14c-8 -2 -38 -18 -13 -72l144 -291l84 171l-54 110
c-24 50 -47 75 -81 82l-7 14h246l7 -14c-9 -2 -39 -18 -13 -72z" />
    <glyph glyph-name="uniE024" unicode="&#xe024;" horiz-adv-x="584" 
d="M220 495l65 -110c29 49 60 101 86 143c32 55 86 143 182 134c108 -10 123 -159 -10 -168c7 15 0 57 -45 61s-78 -50 -78 -50l-105 -169l147 -244c42 -71 95 -78 95 -78l8 -14h-253l-8 14s44 7 4 73l-73 122l-73 -117c-44 -71 0 -78 0 -78l-9 -14h-153l9 14s52 7 93 73
c0 0 97 157 105 168l-147 245c-39 64 -92 73 -92 73l-9 14h253l9 -14s-44 -7 -1 -78z" />
    <glyph glyph-name="uniE025" unicode="&#xe025;" horiz-adv-x="654" 
d="M272 495l107 -148c34 56 71 118 101 168c33 55 86 143 182 134c108 -10 123 -159 -10 -168c7 15 0 57 -45 61s-78 -50 -78 -50l-116 -187v-213c0 -71 48 -78 48 -78v-14h-253v14s48 7 48 73v215l-145 198c-47 64 -101 73 -101 73l-10 14h253l10 -14s-43 -7 9 -78z" />
    <glyph glyph-name="uniE026" unicode="&#xe026;" horiz-adv-x="529" 
d="M526 587l-7 -15c-15 0 -60 -23 -85 -78l-180 -388c-31 -68 2 -78 32 -78h23c111 0 181 143 181 143l12 -7l-29 -164h-473l6 14s52 9 82 73l160 344c33 60 6 152 -100 152c-128 0 -129 -131 -76 -143c-159 -35 -166 160 3 179c130 15 285 -32 451 -32z" />
    <glyph glyph-name="uniE027" unicode="&#xe027;" horiz-adv-x="520" 
d="M315 17c-19 -12 -52 -17 -86 -17c-190 0 -229 68 -229 150c0 147 174 150 305 150c0 194 -155 82 -117 27l-125 36c41 51 74 79 167 84c21 1 234 13 232 -162c0 -14 0 -202 -1 -206c3 -107 54 -117 79 -117c26 0 41 13 46 28c4 -20 -10 -96 -104 -96
c-57 0 -139 34 -167 123zM304 84c0 1 1 165 1 191c-62 -1 -147 -5 -147 -123c0 -84 27 -124 93 -124c11 0 53 8 53 56z" />
    <glyph glyph-name="uniE028" unicode="&#xe028;" horiz-adv-x="512" 
d="M33 89v383c0 71 -48 78 -48 78v14l206 23s-1 -61 -1 -125v-52c139 101 302 -12 302 -190c0 -104 -40 -220 -230 -220h-89c-33 -76 -107 -106 -160 -106c-94 0 -108 76 -104 96c4 -15 20 -28 45 -28c26 0 80 11 79 127zM190 84c3 -59 39 -55 51 -55c76 0 92 109 92 193
c0 119 -31 221 -143 161v-296v-3z" />
    <glyph glyph-name="uniE030" unicode="&#xe030;" horiz-adv-x="518" 
d="M318 0h-89c-190 0 -229 116 -229 220c0 178 162 291 301 190v62c0 71 -48 78 -48 78v14l205 23v-125v-373c0 -116 53 -127 79 -127s41 13 46 28c4 -20 -11 -96 -104 -96c-53 0 -128 30 -161 106zM301 87v296c-112 60 -143 -42 -143 -161c0 -84 17 -197 94 -197
c17 0 48 0 49 62z" />
    <glyph glyph-name="uniE034" unicode="&#xe034;" horiz-adv-x="540" 
d="M253 14v-14h-253v14s48 4 48 75v383c0 71 -48 78 -48 78v14l206 23s-1 -61 -1 -125v-52c135 99 275 19 275 -73v-248c-1 -116 53 -127 78 -127c26 0 42 13 46 28c4 -20 -10 -96 -104 -96c-70 0 -177 52 -177 193v212c0 81 -35 128 -118 85v-297c0 -66 48 -73 48 -73z" />
    <glyph glyph-name="uniE036" unicode="&#xe036;" horiz-adv-x="234" 
d="M122 631c45 0 82 -37 82 -82s-37 -81 -82 -81s-82 36 -82 81s37 82 82 82zM47 85v256c0 71 -48 75 -48 75v14l206 18s-1 -159 -1 -361c0 -141 -107 -193 -177 -193c-94 0 -108 76 -104 96c4 -15 20 -28 45 -28c26 0 78 11 79 123z" />
    <glyph glyph-name="uniE037" unicode="&#xe037;" horiz-adv-x="524" 
d="M253 14v-14h-253v14s49 4 49 75v383c0 71 -49 78 -49 78v14l206 23s-1 -61 -1 -125v-325l139 227c35 58 -6 69 -6 69l9 15h146l-9 -15c-12 -1 -64 -21 -93 -73l-49 -81s113 -204 119 -214c55 -101 114 -141 160 -119c23 10 31 29 29 44c12 -16 18 -94 -49 -124
c-47 -21 -194 -25 -264 125c-19 41 -75 158 -75 158l-54 -88c11 -42 45 -47 45 -47z" />
    <glyph glyph-name="uniE038" unicode="&#xe038;" horiz-adv-x="255" 
d="M33 87v385c0 71 -48 78 -48 78v14l205 23s-1 -61 -1 -125c0 0 1 -271 1 -373c-1 -116 53 -127 79 -127c25 0 41 13 45 28c4 -20 -10 -96 -104 -96c-70 0 -177 52 -177 193z" />
    <glyph glyph-name="uniE039" unicode="&#xe039;" horiz-adv-x="818" 
d="M254 14v-14h-254l1 14s48 4 48 75l-1 245c0 71 -48 78 -48 78v14l201 23v-43c103 80 211 52 256 -7c135 110 301 32 301 -62v-248c0 -116 53 -127 79 -127s41 13 45 28c4 -20 -10 -96 -104 -96c-70 0 -177 52 -177 193v212c0 81 -45 123 -130 77c6 -12 9 -26 9 -39v-248
c0 -71 48 -75 48 -75l1 -14h-254v14s48 7 48 73v212c0 82 -36 130 -122 82c0 -18 5 -294 5 -294c0 -66 48 -73 48 -73z" />
    <glyph glyph-name="uniE040" unicode="&#xe040;" horiz-adv-x="540" 
d="M200 406c136 105 280 24 280 -70v-247c-1 -116 53 -127 78 -127c26 0 42 13 46 28c4 -20 -10 -96 -104 -96c-70 0 -177 52 -177 193v211c0 83 -36 131 -123 83c0 -18 5 -294 5 -294c0 -66 48 -73 48 -73v-14h-253v14s48 4 48 75v244c0 72 -48 79 -48 79v14l200 23v-43z
" />
    <glyph glyph-name="uniE050" unicode="&#xe050;" horiz-adv-x="506" 
d="M164 15l-12 -15h-152l11 15s53 6 106 73l78 99l-124 175c-46 64 -101 73 -101 73l-10 14h253l10 -14s-43 -8 8 -79l46 -64l55 70c50 64 9 73 9 73l11 14h153l-11 -14s-54 -8 -110 -79l-80 -102s116 -161 153 -214c67 -94 130 -126 173 -99c22 13 28 33 24 48
c14 -15 29 -92 -35 -129c-44 -27 -189 -49 -276 93c-16 26 -121 197 -121 197l-45 -57c-56 -71 -13 -78 -13 -78z" />
    <glyph glyph-name="uniE110" unicode="&#xe110;" horiz-adv-x="287" 
d="M-10 397h58v8c-2 175 211 200 232 201c158 9 261 -41 302 -91c-13 -26 -56 -56 -119 -56c-8 52 -21 110 -136 110c-74 0 -124 -66 -122 -159v-13h59v-30h-58c1 -122 -1 -279 -1 -279c0 -66 48 -73 48 -73v-15h-253v15s48 7 48 78c0 0 2 159 1 274h-59v30z" />
    <glyph glyph-name="uniE111" unicode="&#xe111;" horiz-adv-x="473" 
d="M306 431c114 5 207 169 370 171c103 2 112 -110 66 -123c-100 104 -277 -37 -386 -74c58 -41 95 -107 95 -183c0 -123 -101 -223 -225 -223c-32 0 -63 7 -90 18c-14 -5 -22 -13 -22 -23c0 -18 25 -22 43 -22c110 0 257 0 264 -101c9 -118 -131 -123 -200 -123
c-70 0 -135 30 -154 89c6 26 56 59 108 49c-36 -23 -23 -96 47 -96c41 0 64 28 64 62c0 17 -14 55 -68 55c-108 0 -176 11 -176 73c0 31 21 51 49 63c-55 41 -91 106 -91 179c0 124 101 224 226 224c28 0 55 -5 80 -15zM226 424c-57 0 -74 -89 -74 -198
c0 -110 17 -199 74 -199c56 0 78 89 78 199c0 109 -22 198 -78 198z" />
    <glyph glyph-name="uniE115" unicode="&#xe115;" horiz-adv-x="567" 
d="M205 463v-325s135 238 201 357c23 41 61 110 143 105c91 -5 112 -95 30 -134c7 15 -2 57 -47 60c-45 2 -76 -53 -76 -53l-116 -193h1l105 -187c40 -71 92 -78 92 -78l9 -15h-253l-8 15s44 7 7 73l-31 61l-54 -87c11 -42 45 -47 45 -47v-15h-253v15s49 4 49 74v384
c0 71 -49 78 -49 78v14l206 23s-1 -61 -1 -125z" />
    <glyph glyph-name="uniE122" unicode="&#xe122;" horiz-adv-x="286" 
d="M206 418c55 79 171 202 314 202c103 0 112 -110 66 -123c-58 103 -326 -13 -380 -143c-1 -18 -1 -266 -1 -266c0 -66 48 -73 48 -73l1 -15h-254v15s49 4 49 75v249c0 71 -49 78 -49 78v15l206 22v-36z" />
    <glyph glyph-name="uniE124" unicode="&#xe124;" horiz-adv-x="308" 
d="M206 446c83 42 192 155 308 155c103 0 112 -110 66 -123c-96 100 -264 -27 -374 -70v-282c0 -79 81 -58 81 -58c-3 -28 -51 -69 -96 -69c-80 0 -143 35 -142 140v187c0 54 -24 74 -49 74v30c79 0 122 59 207 90c0 0 -1 -26 -1 -74z" />
    <glyph glyph-name="uniE126" unicode="&#xe126;" horiz-adv-x="500" 
d="M240 362l69 -144c32 70 82 178 117 257c19 43 51 115 134 117c91 2 120 -85 41 -131c6 15 -7 56 -51 55c-45 -1 -72 -59 -72 -59l-218 -458l-172 353c-23 50 -46 75 -81 82l-7 14h246l7 -14c-8 -2 -38 -18 -13 -72z" />
    <glyph glyph-name="uniE127" unicode="&#xe127;" horiz-adv-x="770" 
d="M510 362l69 -143c32 70 82 178 117 256c19 43 51 115 133 117c91 2 120 -85 42 -131c5 15 -7 56 -52 55s-71 -59 -71 -59l-218 -458l-138 284l-132 -284l-172 353c-23 50 -46 75 -81 82l-7 14h246l7 -14c-8 -2 -38 -18 -13 -72l74 -153c16 37 34 80 53 125l-8 18
c-24 50 -47 75 -82 82l-7 14h103h146l-1 -2l6 -12c-9 -2 -39 -18 -14 -72z" />
    <glyph glyph-name="uniE128" unicode="&#xe128;" horiz-adv-x="552" 
d="M231 356l46 -63c45 63 106 148 152 210c28 38 74 102 155 86c90 -17 99 -108 13 -136c8 13 5 56 -39 65c-44 8 -82 -43 -82 -43l-172 -221l116 -162c50 -71 104 -78 104 -78l10 -14h-253l-10 14s43 7 -4 73l-45 62l-44 -57c-56 -71 -14 -78 -14 -78l-11 -14h-153l12 14
s53 7 105 73l78 100l-124 174c-46 64 -100 73 -100 73l-10 14h253l10 -14s-43 -7 7 -78z" />
    <glyph glyph-name="uniE129" unicode="&#xe129;" horiz-adv-x="577" 
d="M250 357l102 -205s96 199 151 324c19 43 51 115 134 117c91 2 120 -85 41 -131c6 15 -7 56 -51 55c-45 -1 -72 -59 -72 -59l-228 -478c-31 -73 -65 -125 -151 -125c-108 0 -102 119 -17 122c-14 -25 4 -61 41 -61c32 0 50 22 68 59l12 25c-18 9 -29 35 -46 74l-143 288
c-32 64 -84 73 -84 73l-7 14h252l8 -14s-45 -7 -10 -78z" />
    <glyph glyph-name="uniE131" unicode="&#xe131;" horiz-adv-x="538" 
d="M343 45c-16 -18 -38 -45 -115 -45c-190 0 -229 68 -229 151c0 146 174 149 305 149c0 195 -155 82 -117 27l-125 37c41 50 74 79 167 83c21 1 234 14 232 -162c-1 -60 -1 -154 -1 -160c0 -33 0 -87 54 -87s54 81 8 83c38 62 139 26 124 -51c-9 -45 -63 -73 -153 -73
c-49 0 -111 12 -150 48zM304 95v181c-62 -2 -147 -5 -147 -123c0 -85 27 -124 93 -124c12 0 54 8 54 66z" />
    <glyph glyph-name="uniE133" unicode="&#xe133;" horiz-adv-x="439" 
d="M600 312c0 -136 -83 -312 -306 -312c-194 0 -294 65 -294 221c0 129 108 229 256 229c69 0 129 -29 162 -65c-9 -42 -60 -61 -113 -51c24 20 21 95 -49 95c-71 0 -97 -97 -97 -206s26 -196 135 -196c121 0 228 92 213 289c-9 134 -80 143 -109 141c42 77 202 33 202 -145
z" />
    <glyph glyph-name="uniE134" unicode="&#xe134;" horiz-adv-x="535" 
d="M358 31c-26 -15 -76 -31 -129 -31c-190 0 -229 116 -229 220c0 178 162 291 301 190v62c0 71 -48 78 -48 78v15l205 22v-124v-338c0 -33 0 -87 54 -87s54 81 7 83c39 62 140 26 124 -51c-8 -45 -63 -73 -153 -73c-42 0 -94 9 -132 34zM301 97v287
c-112 59 -143 -43 -143 -162c0 -84 17 -197 94 -197c18 0 51 0 49 72z" />
    <glyph glyph-name="uniE135" unicode="&#xe135;" horiz-adv-x="461" 
d="M279 27c124 2 231 92 217 289c-10 134 -74 161 -118 163c71 76 211 11 211 -167c0 -106 -88 -302 -310 -312c-167 -8 -279 92 -279 221s94 229 241 229c159 0 213 -131 195 -200c-21 -24 -69 -29 -115 -29c-63 0 -161 2 -161 2c0 -110 39 -197 119 -196zM240 421
c-60 0 -79 -68 -79 -163h112c61 0 52 163 -33 163z" />
    <glyph glyph-name="uniE136" unicode="&#xe136;" horiz-adv-x="463" 
d="M238 0h-238v14s48 8 48 79c0 0 1 158 0 274h-59v30h59v7c-3 176 211 164 231 163c94 -5 127 -33 168 -84l-125 -37c22 32 1 83 -51 83c-41 0 -69 -27 -66 -119v-13h104v-30h-104c2 -89 1 -195 0 -247c0 -33 2 -82 53 -82c54 0 54 81 8 83c39 62 140 26 124 -51
c-9 -45 -62 -70 -152 -70z" />
    <glyph glyph-name="uniE138" unicode="&#xe138;" horiz-adv-x="555" 
d="M253 14v-14h-253v14s48 4 48 75v383c0 71 -48 78 -48 78v15l206 22s-1 -60 -1 -124v-53c135 99 275 20 275 -73v-223c0 -33 5 -76 53 -76c54 0 54 81 8 83c38 62 139 26 124 -51c-9 -45 -63 -73 -153 -73c-78 0 -189 30 -189 140v162c0 81 -35 129 -118 85v-297
c0 -66 48 -73 48 -73z" />
    <glyph glyph-name="uniE139" unicode="&#xe139;" 
d="M204 449v-112v-223c1 -33 5 -76 54 -76c54 0 54 81 7 83c39 62 140 26 124 -51c-8 -45 -61 -70 -151 -70h-42h-196v14s48 7 48 73v46v4v155v55c0 65 -48 73 -48 73v15zM119 632c45 0 82 -37 82 -82s-37 -82 -82 -82s-81 37 -81 82s36 82 81 82z" />
    <glyph glyph-name="uniE140" unicode="&#xe140;" horiz-adv-x="567" 
d="M253 14v-14h-253l1 14s48 4 48 75v383c0 71 -48 78 -48 78v15l205 22s-1 -60 -1 -124v-326l139 227c35 58 -5 70 -5 70l8 14h146l-9 -14c-11 -1 -64 -21 -93 -73l-41 -68l105 -173c15 -29 49 -86 92 -64c48 24 12 96 -30 77c7 73 104 79 125 22c16 -43 -4 -108 -74 -142
c-70 -35 -236 2 -284 100l-23 35l-53 -87c11 -42 45 -47 45 -47z" />
    <glyph glyph-name="uniE142" unicode="&#xe142;" horiz-adv-x="283" 
d="M49 89v383c0 71 -49 78 -49 78v15l206 22s-1 -60 -1 -124v-356c1 -31 8 -69 53 -69c54 0 54 81 8 83c39 62 140 26 124 -51c-9 -45 -63 -69 -153 -69c-13 0 -237 -1 -237 -1v14s49 4 49 75z" />
    <glyph glyph-name="uniE143" unicode="&#xe143;" horiz-adv-x="835" 
d="M254 14v-14h-254l1 14s48 4 48 75l-1 245c0 71 -48 78 -48 78v14l201 23v-42c104 79 211 52 257 -7c134 109 300 31 300 -63v-212c0 -33 -1 -87 53 -87s54 81 8 83c39 62 140 26 124 -51c-9 -45 -63 -73 -153 -73c-13 0 -26 1 -41 3h-196v14s48 7 48 73v212
c0 82 -45 123 -129 78c5 -13 8 -26 8 -40v-248c0 -71 48 -75 48 -75l1 -14h-253v14s48 7 48 73v212c0 83 -36 131 -123 82c0 -17 5 -294 5 -294c0 -66 48 -73 48 -73z" />
    <glyph glyph-name="uniE144" unicode="&#xe144;" horiz-adv-x="558" 
d="M254 14v-14h-254l1 14s48 4 48 75l-1 245c0 71 -48 78 -48 78v14l201 23v-42c136 104 279 24 279 -70v-201v-11c0 -33 0 -87 54 -87s54 81 7 83c39 62 140 26 124 -51c-9 -45 -63 -70 -153 -70h-237v14s48 7 48 73v212c0 83 -36 131 -122 82c0 -17 5 -294 5 -294
c0 -66 48 -73 48 -73z" />
    <glyph glyph-name="uniE148" unicode="&#xe148;" horiz-adv-x="466" 
d="M253 15v-15h-253v15s48 3 48 74v250c0 71 -48 78 -48 78v14l206 23s0 -16 -1 -40c80 58 184 51 225 -7c7 -9 16 -28 16 -49c0 -45 -37 -82 -82 -82s-81 37 -81 82c0 14 4 28 10 40c-21 12 -50 10 -88 -10v-300c0 -66 48 -73 48 -73z" />
    <glyph glyph-name="uniE149" unicode="&#xe149;" horiz-adv-x="410" 
d="M123 41c11 -4 24 -7 37 -7c41 0 79 14 79 68c0 62 -48 82 -105 106c-19 8 -114 33 -114 130c0 55 59 111 178 111c84 0 140 -28 175 -64c-26 -37 -57 -66 -112 -56c25 21 2 100 -63 100c-53 0 -80 -35 -80 -69c0 -98 270 -65 270 -232c0 -88 -80 -129 -232 -129
c-89 0 -136 23 -157 68c-6 11 -9 24 -9 37c0 66 66 81 82 81c45 0 81 -36 81 -81c0 -26 -11 -48 -30 -63z" />
    <glyph glyph-name="uniE150" unicode="&#xe150;" horiz-adv-x="308" 
d="M0 399v31c79 0 121 59 206 90v-91h51v-30h-52v-273c0 -33 0 -87 54 -87s54 81 7 83c39 63 140 26 124 -50c-9 -45 -63 -73 -153 -73c-78 0 -189 29 -189 139v187c0 54 -23 74 -48 74z" />
    <glyph glyph-name="uniE151" unicode="&#xe151;" horiz-adv-x="530" 
d="M408 11c-64 -1 -117 -11 -153 -11c-149 0 -207 65 -207 167v171c0 71 -48 78 -48 78v14l205 23v-125v-182c0 -47 0 -116 54 -116c48 0 51 49 52 121v187c0 71 -48 78 -48 78v14l205 23v-125v-204c0 -33 -1 -87 53 -87s54 81 8 83c38 62 139 26 124 -51
c-9 -45 -63 -73 -153 -73c-29 0 -61 4 -92 15z" />
    <glyph glyph-name="uniE152" unicode="&#xe152;" horiz-adv-x="534" 
d="M240 362l69 -143c17 38 40 88 63 141c19 43 51 115 134 117c91 3 119 -85 41 -131c5 16 -7 57 -52 56c-44 -2 -71 -59 -71 -59l-164 -345v1v-1l-171 354c-24 49 -47 75 -82 81l-7 14h246l7 -14c-8 -2 -38 -18 -13 -71z" />
    <glyph glyph-name="uniE153" unicode="&#xe153;" horiz-adv-x="803" 
d="M510 362l68 -143c18 39 40 88 63 141c20 43 52 115 134 117c91 3 120 -85 41 -131c6 16 -6 57 -51 56c-45 -2 -72 -59 -72 -59l-163 -344l-138 283l-132 -283l-172 353c-23 49 -46 75 -81 81l-7 14h246l7 -14c-9 -2 -38 -18 -13 -71l73 -153c16 37 35 80 54 125l-9 18
c-23 49 -46 75 -81 81l-7 14h249l-2 -2l6 -12c-8 -2 -38 -18 -13 -71z" />
    <glyph glyph-name="uniE154" unicode="&#xe154;" horiz-adv-x="552" 
d="M233 356l41 -58c15 21 31 43 48 66c28 38 75 102 156 87c89 -17 99 -109 12 -137c9 14 6 57 -38 65c-45 8 -83 -43 -83 -43l-64 -82l116 -162c50 -71 104 -78 104 -78l10 -14h-253l-10 14s43 7 -4 73l-44 62l-49 -62v1c-50 -67 -10 -74 -10 -74l-11 -14h-153l12 14
s53 7 105 73c0 0 74 95 78 101l-124 173c-46 64 -100 73 -100 73l-10 14h253l10 -14s-43 -7 8 -78z" />
    <glyph glyph-name="uniE155" unicode="&#xe155;" horiz-adv-x="612" 
d="M251 356l103 -208c16 36 52 115 92 206c19 43 52 115 134 117c91 3 120 -85 41 -130c6 15 -6 56 -51 55s-72 -59 -72 -59l-171 -357c-30 -74 -64 -126 -151 -126c-107 0 -101 119 -16 122c-14 -25 4 -61 40 -61c32 0 51 22 68 59l12 26c-18 8 -29 35 -46 73l-143 288
c-31 64 -84 73 -84 73l-7 14h253l7 -14s-44 -7 -9 -78z" />
    <glyph glyph-name="uniE156" unicode="&#xe156;" horiz-adv-x="484" 
d="M1 285l28 165h433l-7 -15c-15 0 -60 -23 -85 -78c-105 -226 -116 -250 -116 -250c-29 -63 3 -79 26 -78c243 3 185 253 158 254c82 4 123 -67 123 -109c0 -107 -113 -174 -268 -174h-293l6 15s52 8 82 73l121 261c31 64 -5 73 -16 73c-111 0 -180 -144 -180 -144z" />
  </font>
</defs>
</svg>
